<?xml version="1.0" standalone="no"?>
<!DOCTYPE svg PUBLIC "-//W3C//DTD SVG 1.1//EN" "http://www.w3.org/Graphics/SVG/1.1/DTD/svg11.dtd">
<!--Generator: Xara Designer (www.xara.com), SVG filter version: 6.6.0.13-->
<svg fill="none" fill-rule="evenodd" stroke="black" stroke-linejoin="bevel" stroke-miterlimit="10" font-family="Times New Roman" font-size="16" style="font-variant-ligatures:none" xmlns:xlink="http://www.w3.org/1999/xlink" xmlns="http://www.w3.org/2000/svg" version="1.1" overflow="visible" width="134.643pt" height="106.471pt" viewBox="1.288 -106.092 134.643 106.471">
 <defs>
	</defs>
 <g id="Layer 1" transform="scale(1 -1)" stroke-width="0.501">
  <path d="M 6.147,38.006 L 84.053,38.006 L 86.444,34.106 C 86.664,33.747 86.998,33.535 87.349,33.535 L 96.393,33.535 C 96.745,33.535 97.078,33.747 97.299,34.106 L 99.69,38.006 L 109.119,38.006 C 112.338,38.006 114.948,41.443 114.948,45.685 L 114.948,64.37 C 114.948,68.612 112.338,72.049 109.119,72.049 L 102.144,72.049 L 99.695,72.049 L 99.689,72.049 L 97.299,68.15 C 97.078,67.79 96.743,67.578 96.393,67.578 L 87.349,67.578 C 86.996,67.578 86.664,67.79 86.443,68.15 L 84.052,72.049 L 84.046,72.049 L 7.117,72.049 C 3.897,72.049 1.288,75.486 1.288,79.728 L 1.288,98.414 C 1.288,102.655 3.897,106.092 7.117,106.092 L 105.03,106.092 L 107.427,102.184 C 107.647,101.823 107.982,101.613 108.332,101.613 L 117.376,101.613 C 117.728,101.613 118.062,101.823 118.281,102.184 L 120.679,106.092 L 130.102,106.092 C 133.271,106.092 135.837,102.757 135.916,98.606 L 135.931,98.606 L 135.931,98.414 L 135.931,79.728 L 135.931,30.456 L 135.931,15.961 L 135.931,11.77 C 135.931,7.529 133.321,4.091 130.102,4.091 L 120.673,4.091 L 118.281,0.192 C 118.062,-0.167 117.726,-0.379 117.376,-0.379 L 108.334,-0.379 C 107.979,-0.379 107.648,-0.167 107.427,0.192 L 105.036,4.091 L 7.117,4.091 C 3.897,4.091 1.289,7.529 1.289,11.77 L 1.289,30.456 C 1.289,34.259 3.393,37.393 6.147,38.006 Z" fill="#f2af31" stroke-linejoin="miter" fill-rule="nonzero" stroke-width="1.338" stroke="none" marker-start="none" marker-end="none" stroke-miterlimit="4"/>
 </g>
</svg>
