<?xml version="1.0" encoding="UTF-8" standalone="no"?>
<svg 
  version="1.1" 
  xmlns="http://www.w3.org/2000/svg" 
  xmlns:xlink="http://www.w3.org/1999/xlink" 
  xmlns:svg="http://www.w3.org/2000/svg"
  xmlns:rdf="http://www.w3.org/1999/02/22-rdf-syntax-ns#"
  xmlns:cc="http://creativecommons.org/ns#"
  xmlns:dc="http://purl.org/dc/elements/1.1/"
  viewBox="0 0 768 768"
  width="768"
  height="768"
>
<style>svg {background-color: white; }</style>"
<metadata id="metadata1">
Created by https://svgstud.io and licensed under CC-BY-SA 4.0 license. Please attribute https://svgstud.io
</metadata>
<metadata id="prompt">
ORNGE CAT
</metadata>
<metadata id="version">
7
</metadata>
<metadata id="metadata2">
<rdf:RDF>
<cc:Work
    rdf:about="">
    <cc:license
    rdf:resource="http://creativecommons.org/licenses/by-sa/4.0/" />
    <dc:creator>
        <cc:Agent>
            <dc:title>https://svgstud.io</dc:title>
        </cc:Agent>
    </dc:creator>
</cc:Work>
<cc:License
    rdf:about="http://creativecommons.org/licenses/by-sa/4.0/">
    <cc:permits
    rdf:resource="http://creativecommons.org/ns#Reproduction" />
    <cc:permits
    rdf:resource="http://creativecommons.org/ns#Distribution" />
    <cc:requires
    rdf:resource="http://creativecommons.org/ns#Notice" />
    <cc:requires
    rdf:resource="http://creativecommons.org/ns#Attribution" />
    <cc:permits
    rdf:resource="http://creativecommons.org/ns#DerivativeWorks" />
    <cc:requires
    rdf:resource="http://creativecommons.org/ns#ShareAlike" />
</cc:License>
</rdf:RDF>
</metadata>
<metadata id="uid">
26425619b8dc74200fff919c7aed3927757f59054e59a100b450e09baf723c06
</metadata>
<path stroke="none" fill="black" fill-rule="evenodd" d="M367.00,735.80C362.32,735.71 356.25,735.51 353.50,735.34C350.75,735.18 340.62,734.56 331.00,733.98C321.38,733.39 307.43,732.23 300.00,731.39C292.57,730.56 280.43,729.01 273.00,727.95C265.57,726.89 250.95,724.41 240.50,722.44C230.05,720.48 216.10,717.78 209.50,716.45C202.90,715.13 190.07,711.75 181.00,708.95C171.93,706.14 160.00,702.09 154.50,699.94C149.00,697.78 139.55,693.25 133.50,689.86C124.68,684.91 120.71,681.89 113.46,674.60C107.64,668.74 103.26,663.28 101.16,659.28C99.37,655.85 97.03,650.50 95.96,647.38C94.89,644.27 93.50,637.71 92.87,632.82C91.83,624.72 91.93,623.11 93.96,614.67C96.19,605.41 96.19,605.41 93.15,591.45C91.48,583.78 89.60,572.77 88.96,567.00C88.31,561.04 88.09,552.18 88.46,546.50C88.81,541.00 89.54,533.80 90.08,530.50C90.62,527.20 91.92,520.67 92.96,516.00C94.01,511.32 95.60,501.20 96.50,493.50C97.41,485.80 99.04,474.77 100.14,469.00C101.24,463.23 103.93,451.30 106.11,442.50C108.29,433.70 112.17,420.21 114.73,412.53C117.50,404.20 122.55,392.32 127.23,383.10C131.56,374.60 138.05,363.34 141.68,358.07C145.30,352.81 151.53,344.45 155.53,339.50C159.52,334.55 167.46,325.97 173.15,320.43C178.85,314.89 188.11,306.93 193.73,302.75C199.36,298.56 208.36,292.65 213.73,289.61C219.10,286.58 228.22,282.07 234.00,279.59C239.78,277.12 249.93,273.53 256.56,271.62C263.20,269.71 275.80,266.94 284.56,265.46C299.17,262.99 302.15,262.80 320.33,263.23C340.08,263.69 340.15,263.68 339.56,261.60C339.24,260.44 337.77,252.97 336.29,245.00C333.98,232.54 333.61,227.89 333.64,212.00C333.66,197.43 334.13,190.98 335.83,181.65C337.02,175.13 338.00,168.80 338.00,167.57C338.00,166.35 336.87,162.56 335.48,159.15C334.10,155.75 330.78,145.65 328.10,136.72C325.41,127.79 322.28,115.76 321.14,109.99C319.99,104.22 318.59,95.69 318.03,91.03C317.46,86.37 317.00,77.57 317.00,71.49C317.00,64.90 317.60,58.10 318.49,54.68C319.32,51.53 320.73,47.81 321.64,46.42C322.55,45.03 324.56,43.25 326.10,42.45C327.64,41.65 330.77,41.00 333.06,41.00C335.34,41.00 339.98,41.70 343.36,42.55C346.74,43.40 356.29,47.43 364.58,51.51C374.01,56.15 387.03,63.84 399.37,72.06C419.08,85.21 419.08,85.21 432.79,82.61C440.33,81.18 450.99,79.50 456.47,78.87C462.17,78.21 472.67,77.96 480.97,78.26C488.96,78.56 502.56,79.82 511.20,81.06C526.90,83.31 526.90,83.31 530.20,80.64C532.01,79.17 537.33,74.78 542.00,70.89C546.67,66.99 556.80,59.65 564.50,54.57C572.20,49.50 583.90,42.04 590.50,37.99C597.10,33.94 605.88,29.14 610.00,27.33C614.19,25.48 619.20,24.02 621.35,24.01C623.47,24.01 626.62,24.68 628.35,25.51C630.08,26.34 632.52,28.60 633.77,30.52C635.01,32.44 636.72,36.60 637.56,39.76C638.41,42.92 639.37,52.04 639.69,60.04C640.04,68.51 639.77,80.81 639.06,89.54C638.38,97.77 636.97,109.67 635.93,116.00C634.89,122.33 632.16,133.23 629.87,140.24C625.72,152.99 625.72,152.99 627.85,159.74C629.02,163.46 630.97,170.78 632.18,176.00C634.09,184.21 634.40,188.50 634.44,207.50C634.49,226.02 634.20,230.61 632.62,236.50C631.58,240.35 628.73,248.10 626.28,253.71C623.74,259.53 621.10,264.15 620.14,264.45C619.22,264.75 607.91,264.10 595.01,263.02C571.55,261.06 571.55,261.06 567.02,256.09C564.54,253.36 559.38,249.03 555.56,246.48C551.75,243.92 544.22,239.62 538.83,236.92C533.44,234.21 528.35,232.00 527.52,232.00C526.68,232.00 526.00,232.82 526.00,233.82C526.00,234.82 526.72,237.76 527.60,240.34C528.48,242.92 528.92,245.78 528.57,246.68C528.04,248.06 527.37,247.78 524.43,244.93C522.50,243.06 519.84,239.24 518.51,236.43C517.18,233.62 515.63,228.44 515.06,224.91C514.48,221.39 514.02,215.12 514.02,211.00C514.02,206.88 514.48,200.64 515.05,197.14C515.62,193.64 517.19,188.59 518.55,185.91C519.90,183.24 523.26,177.60 526.00,173.40C528.75,169.19 531.64,163.59 532.42,160.95C533.20,158.31 534.35,155.21 534.97,154.05C535.59,152.89 536.53,152.21 537.05,152.53C537.57,152.85 538.00,155.81 538.00,159.09C538.00,163.48 538.40,165.22 539.50,165.64C540.33,165.95 540.99,166.95 540.98,167.86C540.97,168.76 540.08,170.62 539.00,172.00C537.92,173.38 537.03,174.89 537.02,175.36C537.01,175.83 537.79,175.90 538.75,175.53C539.71,175.15 543.17,174.40 546.42,173.87C550.41,173.22 554.61,173.25 559.27,173.97C563.07,174.56 568.73,175.99 571.84,177.14C574.95,178.29 578.62,179.43 580.00,179.68C582.00,180.04 583.58,179.02 587.87,174.66C590.83,171.64 592.93,168.70 592.56,168.10C592.19,167.49 591.12,166.99 590.19,166.98C589.26,166.98 587.90,166.59 587.16,166.12C586.04,165.41 586.08,164.74 587.38,162.23C588.24,160.56 591.04,157.41 593.61,155.22C598.26,151.24 598.26,151.24 593.59,148.50C591.02,146.99 589.07,145.28 589.27,144.70C589.46,144.11 591.85,142.89 594.56,141.99C598.52,140.67 599.56,139.85 599.80,137.87C600.03,135.96 598.76,134.12 594.27,129.84C591.07,126.79 584.75,122.14 580.23,119.51C575.70,116.88 572.00,114.34 572.00,113.87C572.00,113.39 574.36,113.02 577.25,113.04C580.14,113.05 585.42,113.70 588.99,114.46C592.56,115.23 595.63,115.70 595.82,115.51C596.00,115.33 593.31,113.83 589.83,112.18C586.35,110.53 581.04,108.46 578.03,107.58C575.02,106.70 566.02,105.49 558.03,104.90C550.04,104.30 542.88,103.47 542.13,103.05C541.06,102.46 541.54,101.39 544.20,98.39C546.10,96.25 550.51,90.67 554.02,86.00C557.52,81.33 563.34,74.41 566.95,70.62C570.55,66.84 577.10,60.74 581.50,57.07C585.90,53.40 592.42,48.35 596.00,45.86C599.58,43.37 604.98,39.98 608.00,38.32C611.02,36.66 614.69,35.02 616.15,34.66C617.97,34.22 619.49,34.58 621.03,35.82C622.48,37.00 623.54,39.35 624.07,42.56C624.52,45.28 624.91,52.69 624.94,59.03C624.97,65.37 624.31,76.12 623.47,82.93C622.63,89.73 621.74,95.61 621.50,96.00C621.26,96.39 620.56,100.03 619.94,104.10C619.29,108.39 617.78,113.30 616.35,115.79C613.87,120.08 613.87,120.08 616.06,121.85C618.10,123.50 618.17,123.97 617.12,128.86C616.51,131.74 616.00,134.53 616.00,135.05C616.00,135.57 616.38,136.00 616.84,136.00C617.30,136.00 618.83,133.86 620.24,131.25C621.65,128.64 623.79,123.15 625.00,119.06C626.21,114.97 628.09,106.87 629.18,101.06C630.58,93.54 631.31,84.18 631.70,68.55C632.07,53.69 631.87,44.46 631.06,39.96C630.41,36.31 629.03,31.93 627.99,30.22C626.63,27.99 625.05,26.91 622.43,26.42C620.42,26.04 617.28,26.19 615.45,26.75C613.62,27.32 605.16,31.94 596.64,37.04C588.13,42.14 573.75,51.82 564.69,58.55C555.63,65.28 543.92,74.89 538.66,79.89C529.63,88.50 528.87,89.00 524.76,89.00C522.37,89.00 515.04,88.25 508.46,87.32C500.86,86.26 489.94,85.65 478.50,85.65C464.02,85.66 457.96,86.11 447.50,87.99C440.35,89.28 432.48,90.59 430.00,90.92C425.50,91.50 425.50,91.50 429.75,96.11C432.09,98.65 434.00,101.63 434.00,102.75C434.00,103.86 432.89,105.50 431.54,106.38C430.18,107.27 428.42,108.00 427.62,108.00C426.82,108.00 424.56,105.81 422.60,103.13C420.63,100.45 413.47,92.89 406.68,86.34C399.90,79.78 390.66,71.64 386.16,68.24C381.66,64.85 374.94,60.31 371.24,58.15C367.53,55.99 359.32,51.87 353.00,48.98C344.40,45.06 339.94,43.61 335.32,43.24C329.58,42.77 328.97,42.93 326.63,45.46C325.10,47.10 323.64,50.42 322.92,53.84C322.16,57.50 321.94,64.28 322.31,73.00C322.62,80.42 323.59,90.55 324.46,95.50C325.33,100.45 327.88,111.92 330.13,121.00C332.37,130.07 335.78,141.78 337.70,147.00C339.63,152.22 342.59,159.35 344.28,162.84C347.15,168.74 347.28,169.47 346.16,173.34C345.49,175.63 343.86,181.63 342.53,186.68C341.19,191.73 339.80,200.28 339.43,205.68C339.04,211.40 339.25,220.09 339.94,226.50C340.58,232.55 341.79,240.88 342.63,245.00C343.46,249.12 345.48,256.52 347.12,261.44C348.75,266.35 352.20,273.93 354.79,278.28C357.93,283.56 362.47,289.06 368.49,294.86C373.45,299.63 380.76,305.68 384.75,308.29C388.74,310.90 392.00,313.27 392.00,313.56C392.00,313.84 390.99,313.53 389.75,312.88C388.51,312.23 384.17,309.45 380.10,306.72C376.04,303.98 369.17,298.37 364.85,294.24C360.53,290.11 357.00,286.97 357.00,287.26C357.00,287.54 358.40,290.77 360.12,294.44C363.09,300.78 363.15,301.17 361.42,302.43C359.73,303.67 359.89,304.09 363.93,308.92C366.31,311.75 371.57,316.79 375.62,320.10C379.68,323.42 383.00,326.52 383.00,326.99C383.00,327.47 381.41,329.17 379.46,330.77C377.52,332.37 372.59,335.60 368.51,337.93C364.43,340.26 360.68,341.92 360.17,341.61C359.66,341.29 357.46,337.99 355.27,334.27C353.08,330.55 350.49,325.36 349.51,322.75C348.53,320.13 347.09,318.00 346.30,318.00C345.51,318.00 344.06,317.57 343.07,317.04C341.36,316.12 341.39,315.68 343.67,307.83C344.98,303.30 345.83,299.00 345.56,298.29C345.29,297.58 344.32,297.00 343.40,297.00C342.05,297.00 341.85,296.32 342.35,293.25C342.68,291.19 343.25,287.93 343.63,286.00C344.31,282.50 344.31,282.50 342.03,284.50C340.78,285.60 335.43,292.95 330.13,300.83C324.83,308.71 318.58,318.38 316.24,322.33C313.89,326.27 311.52,331.07 310.96,333.00C310.41,334.93 309.67,338.52 309.31,340.98C308.67,345.46 308.67,345.46 311.91,342.73C313.69,341.23 315.60,340.00 316.14,340.00C316.69,340.00 316.90,340.79 316.61,341.75C316.32,342.71 315.33,350.02 314.42,358.00C313.33,367.52 312.96,376.11 313.33,383.00C313.65,388.77 314.49,395.46 315.20,397.85C315.92,400.24 316.95,402.26 317.50,402.35C318.05,402.43 319.25,400.16 320.16,397.31C321.08,394.45 323.33,389.95 325.16,387.31C328.50,382.50 328.50,382.50 329.14,391.50C329.49,396.45 330.30,402.41 330.93,404.75C331.56,407.09 332.44,409.00 332.89,409.00C333.34,409.00 334.48,406.14 335.42,402.65C336.37,399.15 338.03,394.83 339.12,393.03C340.22,391.24 341.35,390.01 341.64,390.30C341.93,390.59 342.58,394.13 343.09,398.17C343.59,402.20 344.72,407.64 345.58,410.25C346.65,413.46 347.72,415.00 348.88,415.00C349.83,415.00 351.87,417.01 353.43,419.48C354.99,421.94 356.65,423.71 357.13,423.42C357.61,423.12 358.00,421.16 358.00,419.07C358.00,416.97 358.28,413.84 358.62,412.12C358.97,410.41 359.60,409.00 360.03,409.00C360.46,409.00 362.48,414.28 364.51,420.73C367.78,431.10 368.70,432.94 372.46,436.48C374.81,438.69 379.27,442.47 382.39,444.89C385.51,447.30 388.30,449.04 388.59,448.75C388.88,448.45 387.90,445.36 386.41,441.86C384.55,437.50 383.55,433.10 383.23,427.88C382.94,423.20 383.16,420.02 383.79,419.63C384.38,419.26 385.61,421.03 386.64,423.74C387.64,426.36 390.57,431.67 393.16,435.54C395.75,439.41 400.71,445.01 404.18,447.97C407.66,450.94 411.29,454.03 412.26,454.84C413.22,455.66 414.26,456.07 414.56,455.77C414.86,455.47 414.41,452.52 413.56,449.22C412.70,445.91 412.00,440.49 412.00,437.16C412.00,433.64 412.49,430.82 413.16,430.40C413.83,429.99 415.27,430.77 416.53,432.24C417.74,433.64 420.17,438.26 421.93,442.49C423.69,446.72 426.65,453.52 428.51,457.59C430.37,461.67 432.30,465.00 432.80,465.00C433.30,465.00 434.12,463.17 434.61,460.94C435.10,458.71 435.93,456.79 436.45,456.69C436.98,456.59 439.04,460.77 441.03,466.00C443.02,471.23 445.64,477.41 446.85,479.75C448.05,482.09 449.53,484.00 450.13,484.00C450.72,484.00 450.96,483.33 450.64,482.51C450.33,481.70 449.77,476.97 449.39,472.01C448.91,465.62 449.04,463.00 449.83,463.00C450.45,463.00 451.71,464.15 452.63,465.56C453.90,467.49 454.51,467.80 455.14,466.81C455.60,466.09 455.98,463.59 455.98,461.25C455.99,458.91 456.43,457.00 456.96,457.00C457.49,457.00 458.61,459.33 459.46,462.18C460.31,465.03 461.00,468.20 461.00,469.22C461.00,470.25 461.70,474.48 462.56,478.64C463.67,483.99 466.02,489.80 470.65,498.60C474.24,505.42 477.59,510.75 478.09,510.44C478.59,510.14 479.00,506.78 479.00,502.99C479.00,499.20 479.49,493.83 480.08,491.06C480.68,488.29 481.54,485.79 482.00,485.50C482.46,485.22 484.00,488.49 485.42,492.77C486.85,497.05 488.35,503.21 488.76,506.45C489.17,509.68 489.95,512.47 490.50,512.63C491.05,512.79 492.98,510.91 494.78,508.46C496.59,506.01 498.56,504.00 499.16,504.00C499.90,504.00 500.04,505.70 499.59,509.25C499.22,512.14 498.66,518.42 498.34,523.21C498.02,527.99 498.07,533.96 498.44,536.46C498.82,538.96 499.52,541.00 499.99,541.00C500.47,541.00 503.00,538.29 505.60,534.97C508.21,531.66 510.82,529.11 511.42,529.31C512.07,529.53 512.36,531.76 512.15,534.95C511.89,538.91 512.12,540.13 513.08,539.81C513.78,539.57 516.58,535.81 519.29,531.44C522.00,527.07 527.24,519.45 530.93,514.50C534.63,509.55 539.28,502.94 541.27,499.81C543.27,496.68 545.86,492.24 547.04,489.93C549.17,485.74 549.17,485.74 546.68,486.37C545.31,486.71 543.47,487.27 542.59,487.60C541.56,488.00 541.00,487.67 541.00,486.66C541.00,485.81 542.75,481.72 544.90,477.58C547.04,473.44 550.29,468.13 552.12,465.78C553.95,463.42 559.26,457.00 563.92,451.50C568.57,446.00 576.02,437.23 580.47,432.00C584.92,426.77 590.41,420.02 592.67,417.00C594.92,413.98 597.75,409.54 598.96,407.15C600.16,404.76 600.97,402.63 600.75,402.42C600.54,402.21 594.63,405.85 587.62,410.52C580.61,415.18 574.19,419.00 573.35,419.00C572.16,419.00 572.43,417.96 574.60,414.25C576.12,411.64 578.86,406.63 580.68,403.13C582.51,399.63 584.00,395.92 584.00,394.90C584.00,393.31 583.13,393.60 578.05,396.89C574.77,399.01 570.01,401.26 567.47,401.90C564.92,402.55 559.45,403.50 555.30,404.02C551.16,404.55 546.70,404.71 545.38,404.38C544.07,404.05 543.00,403.43 543.00,402.99C543.00,402.55 544.69,401.20 546.75,399.99C548.81,398.77 557.16,393.03 565.30,387.22C573.43,381.42 583.17,373.58 586.93,369.79C590.69,366.01 595.19,360.25 596.93,356.99C598.68,353.70 600.36,348.75 600.70,345.87C601.14,342.19 600.99,340.89 600.20,341.37C599.59,341.75 595.25,346.70 590.54,352.36C585.84,358.03 580.87,363.27 579.50,364.00C578.13,364.74 576.79,365.13 576.54,364.87C576.28,364.62 576.69,362.07 577.45,359.20C578.20,356.34 578.58,354.00 578.29,354.00C578.00,354.00 575.21,355.55 572.09,357.45C568.97,359.34 564.36,361.78 561.85,362.85C559.33,363.93 553.95,365.34 549.89,365.98C545.38,366.70 541.59,366.82 540.18,366.28C538.05,365.48 538.73,364.82 548.03,358.63C553.63,354.90 560.21,350.00 562.67,347.74C565.12,345.48 567.60,342.75 568.17,341.69C568.92,340.27 568.87,339.54 567.97,338.98C567.29,338.56 564.09,338.45 560.86,338.75C555.09,339.27 555.00,339.24 555.00,336.70C555.00,335.28 555.45,333.84 556.00,333.50C556.55,333.16 557.00,331.99 557.00,330.91C557.00,329.82 556.34,328.68 555.54,328.38C554.73,328.07 550.12,328.73 545.29,329.85C540.45,330.97 529.40,333.04 520.72,334.44C512.04,335.85 500.93,337.00 496.04,337.00C491.15,337.00 483.69,336.52 479.47,335.93C475.24,335.34 468.57,334.04 464.64,333.04C460.72,332.03 447.82,327.39 436.00,322.74C424.18,318.08 413.71,314.00 412.75,313.66C411.79,313.33 411.00,312.63 411.00,312.11C411.00,311.58 412.75,309.66 414.89,307.83C417.03,306.00 422.32,302.40 426.64,299.83C430.96,297.26 435.66,294.87 437.09,294.51C438.81,294.08 441.02,294.57 443.69,295.95C445.89,297.10 451.03,298.75 455.10,299.61C459.96,300.64 465.76,301.04 472.00,300.77C479.80,300.45 482.41,299.91 486.59,297.75C489.39,296.31 493.10,293.51 494.84,291.53C496.58,289.55 498.00,286.86 498.00,285.55C498.00,283.94 496.95,282.51 494.75,281.15C492.96,280.05 487.74,275.30 483.15,270.60C478.57,265.90 475.00,261.48 475.22,260.78C475.44,260.07 477.15,258.72 479.03,257.77C481.95,256.29 485.24,256.05 501.75,256.17C520.83,256.30 521.08,256.27 523.61,253.90C526.11,251.55 526.19,251.54 527.58,253.44C528.36,254.51 529.00,255.76 529.00,256.23C529.00,256.70 528.05,258.97 526.89,261.29C525.73,263.61 520.10,270.12 514.39,275.76C507.73,282.33 504.00,286.78 504.00,288.13C504.00,289.29 505.71,291.94 507.79,294.03C510.42,296.66 513.39,298.35 517.45,299.53C521.65,300.75 525.62,301.11 531.41,300.79C537.71,300.44 540.72,299.72 545.00,297.53C548.02,295.99 551.47,293.69 552.65,292.42C554.58,290.35 555.20,290.22 558.55,291.14C560.60,291.71 568.15,294.83 575.32,298.07C582.50,301.32 588.54,303.80 588.75,303.58C588.96,303.37 587.56,301.91 585.62,300.35C583.69,298.78 577.96,295.25 572.90,292.50C567.83,289.75 563.65,287.05 563.59,286.50C563.54,285.95 566.15,285.36 569.39,285.20C573.48,284.98 578.02,285.68 584.24,287.46C589.17,288.88 596.58,291.59 600.72,293.51C606.63,296.24 610.00,298.75 616.48,305.24C621.01,309.78 625.49,315.00 626.43,316.84C627.38,318.68 627.96,320.37 627.74,320.60C627.51,320.82 625.88,320.50 624.11,319.89C622.34,319.27 620.62,319.05 620.28,319.38C619.94,319.72 622.41,325.74 625.77,332.75C629.13,339.76 632.57,348.24 633.42,351.60C634.28,354.95 635.48,362.35 636.10,368.05C636.94,375.75 636.94,380.98 636.09,388.45C635.47,393.98 633.85,402.98 632.49,408.45C630.86,415.04 627.94,422.58 623.87,430.76C620.48,437.56 614.56,448.38 610.71,454.81C606.86,461.24 601.86,470.32 599.60,475.00C595.50,483.50 595.50,483.50 595.57,517.00C595.61,535.42 596.20,557.70 596.88,566.50C597.56,575.30 598.74,588.63 599.51,596.12C600.28,603.61 601.80,613.96 602.89,619.12C603.97,624.28 605.45,630.27 606.18,632.43C607.50,636.36 607.50,636.36 618.50,638.65C625.90,640.19 632.18,642.27 637.69,644.99C643.09,647.66 647.09,650.46 649.46,653.23C651.61,655.74 653.84,659.98 655.02,663.81C656.11,667.33 657.00,672.78 657.00,675.92C657.00,679.07 656.34,683.88 655.52,686.61C654.71,689.35 652.44,693.46 650.48,695.75C648.40,698.18 644.33,701.17 640.71,702.94C637.29,704.60 631.80,706.72 628.50,707.65C624.02,708.91 617.46,709.41 602.56,709.65C582.62,709.96 582.62,709.96 579.06,713.38C577.10,715.26 573.19,717.94 570.38,719.35C567.56,720.76 561.76,722.82 557.50,723.94C553.24,725.05 544.86,726.50 538.89,727.15C530.58,728.05 524.55,728.05 513.26,727.16C505.14,726.52 494.43,725.13 489.46,724.07C484.49,723.02 478.09,721.27 475.24,720.18C472.39,719.10 468.29,716.82 466.14,715.11C462.21,712.00 462.21,712.00 446.65,712.00C431.09,712.00 431.09,712.00 427.47,716.75C425.48,719.36 421.08,723.42 417.71,725.78C414.33,728.13 408.63,730.97 405.03,732.09C401.44,733.21 393.32,734.54 387.00,735.04C380.68,735.54 371.68,735.88 367.00,735.80zM391.74,724.00C392.60,724.00 395.18,722.45 397.49,720.56C399.80,718.67 403.00,714.61 404.60,711.55C406.19,708.49 408.01,706.18 408.63,706.42C409.35,706.69 410.00,704.73 410.41,701.05C410.93,696.46 410.63,694.10 408.97,689.66C407.82,686.57 404.95,681.44 402.60,678.24C400.25,675.04 396.19,670.61 393.58,668.38C390.97,666.15 386.49,662.90 383.63,661.17C380.76,659.43 374.64,657.06 370.03,655.89C363.73,654.29 359.62,653.87 353.48,654.20C345.96,654.59 344.47,655.06 334.41,660.17C328.41,663.22 320.57,666.67 317.00,667.82C313.43,668.98 307.45,670.44 303.73,671.07C299.34,671.81 296.53,672.84 295.71,674.00C295.03,674.98 292.03,676.51 289.05,677.39C286.07,678.28 281.03,679.00 277.85,679.00C274.67,679.00 269.92,679.73 267.28,680.63C264.65,681.52 259.22,682.77 255.21,683.39C251.20,684.01 247.89,684.96 247.84,685.51C247.79,686.05 251.94,688.20 257.05,690.27C262.16,692.34 266.94,694.53 267.66,695.13C268.39,695.73 268.73,696.63 268.43,697.11C268.13,697.60 263.48,698.00 258.10,698.00C252.72,698.00 244.62,697.50 240.10,696.89C235.59,696.29 229.86,696.09 227.39,696.46C224.91,696.84 223.04,697.61 223.23,698.18C223.42,698.76 228.06,700.92 233.54,702.98C239.02,705.05 245.08,707.68 247.02,708.83C248.95,709.98 253.22,711.61 256.52,712.45C259.81,713.29 268.57,714.65 276.00,715.48C283.43,716.30 294.61,716.99 300.86,716.99C312.22,717.00 312.22,717.00 311.56,713.48C311.20,711.55 311.18,709.52 311.51,708.98C311.85,708.44 313.26,709.34 314.65,711.00C316.04,712.65 317.59,714.00 318.09,714.00C318.59,714.00 319.00,711.52 319.00,708.50C319.00,705.48 319.42,703.00 319.92,703.00C320.43,703.00 323.64,706.14 327.04,709.97C330.45,713.80 334.12,717.22 335.19,717.56C336.27,717.90 337.34,718.00 337.56,717.77C337.79,717.55 337.30,713.84 336.47,709.53C335.65,705.22 335.19,701.48 335.44,701.22C335.70,700.97 337.92,701.94 340.38,703.38C342.84,704.82 345.11,706.00 345.43,706.00C345.74,706.00 345.99,704.54 345.98,702.75C345.98,700.96 345.32,696.80 344.52,693.50C343.72,690.20 343.06,686.26 343.04,684.75C343.00,682.04 343.10,682.00 349.14,682.00C353.50,682.00 356.58,682.65 359.78,684.25C362.26,685.48 366.23,688.21 368.62,690.32C371.01,692.42 375.43,697.84 378.44,702.37C381.45,706.90 385.33,713.61 387.05,717.30C388.95,721.34 390.80,724.00 391.74,724.00zM489.38,713.90C489.86,713.96 489.98,712.76 489.65,711.25C489.32,709.74 488.76,707.48 488.40,706.24C487.93,704.58 488.13,704.09 489.13,704.40C489.88,704.64 492.86,705.12 495.75,705.45C500.73,706.04 501.00,705.95 501.00,703.78C501.00,702.53 500.33,698.35 499.52,694.50C498.70,690.65 498.03,686.04 498.02,684.25C498.00,681.80 498.44,681.00 499.78,681.00C500.76,681.00 502.53,680.31 503.73,679.48C505.71,678.09 505.99,678.11 506.85,679.73C507.37,680.70 509.66,686.21 511.94,691.97C514.23,697.73 516.85,703.28 517.77,704.30C518.80,705.43 520.33,705.98 521.75,705.71C523.01,705.47 524.29,705.66 524.58,706.13C524.88,706.61 526.42,707.00 528.02,707.00C530.58,707.00 531.06,706.51 532.05,702.80C532.90,699.66 532.89,697.09 532.01,692.55C531.37,689.22 529.70,683.94 528.31,680.80C526.91,677.67 524.93,674.34 523.89,673.40C522.85,672.46 522.00,671.08 522.00,670.35C522.00,669.40 523.49,669.00 527.05,669.00C529.83,669.00 533.54,669.73 535.30,670.62C537.06,671.51 539.56,673.19 540.85,674.37C542.14,675.54 544.08,678.22 545.16,680.33C546.24,682.44 548.00,687.57 549.06,691.74C550.13,695.91 551.00,701.27 551.00,703.66C551.00,706.58 551.43,708.00 552.31,708.00C553.04,708.00 554.81,706.76 556.25,705.25C557.69,703.74 559.35,701.23 559.94,699.68C560.52,698.14 561.00,694.73 561.00,692.12C561.00,689.50 560.27,684.92 559.39,681.93C558.50,678.94 556.67,674.32 555.32,671.65C553.97,668.98 553.11,666.56 553.40,666.27C553.70,665.97 555.30,666.30 556.98,666.99C558.65,667.68 562.48,670.91 565.48,674.16C568.49,677.40 572.10,682.02 573.51,684.42C574.91,686.82 576.55,691.57 577.15,694.97C577.96,699.57 578.53,700.87 579.37,700.03C580.02,699.38 580.46,695.85 580.40,691.70C580.33,686.78 579.57,682.61 578.00,678.55C576.65,675.04 573.86,670.62 571.19,667.78C568.40,664.78 563.99,661.64 559.59,659.49C555.69,657.59 549.96,655.39 546.86,654.60C543.76,653.81 537.24,652.86 532.36,652.49C525.14,651.95 520.80,652.30 508.95,654.38C500.94,655.80 492.49,657.62 490.17,658.44C487.84,659.26 483.56,661.52 480.64,663.45C477.72,665.39 474.52,667.88 473.51,668.99C472.51,670.09 471.11,671.00 470.39,671.00C469.68,671.00 468.80,669.42 468.43,667.50C468.07,665.58 467.59,664.00 467.35,664.00C467.12,664.00 465.88,664.69 464.60,665.53C462.42,666.95 462.17,666.90 460.83,664.78C460.05,663.52 457.74,658.81 455.70,654.29C453.67,649.78 449.06,640.82 445.45,634.38C441.85,627.94 437.94,621.28 436.76,619.59C435.58,617.89 430.98,612.00 426.53,606.50C422.07,601.00 415.31,592.45 411.49,587.50C407.67,582.55 402.69,576.48 400.42,574.00C398.15,571.52 396.29,568.83 396.30,568.00C396.31,567.17 394.70,564.02 392.72,561.00C390.74,557.98 386.44,552.17 383.17,548.11C379.89,544.04 376.23,538.98 375.04,536.86C372.87,533.00 372.87,533.00 375.44,533.00C377.09,533.00 378.00,532.45 378.00,531.44C378.00,530.58 374.92,525.51 371.16,520.19C367.40,514.86 363.81,509.15 363.18,507.50C362.55,505.85 360.66,498.70 358.99,491.60C357.32,484.51 354.62,475.90 352.99,472.48C350.76,467.81 348.14,464.58 342.45,459.49C338.29,455.76 333.08,450.07 330.89,446.83C328.69,443.60 326.29,439.24 325.55,437.13C324.80,435.03 323.14,431.32 321.85,428.90C319.51,424.50 319.51,424.50 319.17,428.00C318.99,429.92 319.36,434.19 320.01,437.50C320.65,440.80 322.77,447.55 324.70,452.50C326.64,457.45 329.64,466.37 331.37,472.32C333.10,478.27 334.96,483.14 335.51,483.14C336.05,483.15 337.18,480.89 338.00,478.13C338.82,475.38 339.79,472.84 340.15,472.49C340.51,472.15 341.36,473.57 342.05,475.66C342.74,477.74 344.09,482.84 345.05,486.97C346.01,491.11 350.23,504.18 354.43,516.00C358.62,527.83 363.64,540.85 365.57,544.94C367.50,549.03 372.16,556.68 375.91,561.94C379.67,567.20 385.64,574.65 389.19,578.50C392.73,582.35 398.89,589.31 402.89,593.96C406.88,598.61 413.07,606.85 416.63,612.28C420.20,617.70 426.84,627.17 431.40,633.32C436.16,639.75 443.52,651.72 448.70,661.50C453.66,670.85 459.67,683.34 462.06,689.25C464.45,695.16 468.01,702.13 469.98,704.73C471.95,707.34 474.68,709.78 476.03,710.16C477.39,710.54 480.75,711.51 483.50,712.33C486.25,713.14 488.89,713.85 489.38,713.90zM600.13,689.92C603.07,689.98 603.89,689.57 604.43,687.75C605.10,685.50 605.10,685.50 606.04,687.82C606.71,689.46 607.65,690.05 609.24,689.82C610.87,689.59 611.87,688.39 612.82,685.50C613.54,683.30 614.39,679.39 614.70,676.80C615.20,672.68 614.76,671.13 611.15,664.05C607.03,656.00 607.03,656.00 610.57,656.00C612.51,656.00 615.36,656.65 616.90,657.45C618.44,658.25 621.10,660.49 622.81,662.43C624.52,664.38 626.60,668.28 627.44,671.10C628.28,673.93 629.23,678.55 629.56,681.37C629.89,684.19 630.36,687.13 630.61,687.90C630.95,688.97 631.63,688.76 633.50,687.00C634.85,685.73 636.70,682.74 637.61,680.34C638.80,677.23 639.11,674.37 638.69,670.32C638.35,667.03 636.81,662.03 635.01,658.37C633.30,654.90 630.33,650.77 628.40,649.18C626.47,647.59 623.17,645.77 621.08,645.14C618.98,644.51 613.05,644.01 607.88,644.02C598.71,644.05 598.20,644.18 585.10,649.78C577.74,652.94 571.23,656.27 570.66,657.18C569.79,658.55 570.88,660.19 576.65,666.27C582.18,672.09 584.31,675.24 586.52,680.87C588.82,686.73 589.81,688.15 591.92,688.61C593.34,688.92 594.95,689.33 595.50,689.51C596.05,689.69 598.14,689.88 600.13,689.92zM159.52,666.00C160.12,666.00 161.09,662.07 161.72,657.06C162.34,652.14 163.79,645.99 164.95,643.39C166.10,640.79 168.60,636.75 170.52,634.41C172.70,631.75 175.68,629.52 178.51,628.44C182.70,626.84 183.16,626.84 184.84,628.36C185.84,629.26 187.39,630.00 188.29,630.00C189.19,630.00 192.19,629.11 194.96,628.01C197.73,626.92 200.00,626.40 200.00,626.85C200.00,627.31 199.10,631.20 198.00,635.50C196.90,639.80 196.00,644.82 196.00,646.66C196.00,648.50 196.34,649.99 196.75,649.97C197.16,649.95 198.37,649.28 199.44,648.47C200.51,647.66 202.61,647.00 204.11,647.00C205.91,647.00 207.49,647.91 208.78,649.67C210.73,652.35 210.73,652.35 211.47,645.43C211.88,641.62 213.06,636.23 214.11,633.44C215.15,630.66 217.44,626.90 219.20,625.10C220.96,623.30 224.55,620.74 227.17,619.41C229.79,618.09 232.37,617.00 232.90,617.00C233.43,617.00 232.70,619.08 231.28,621.61C228.70,626.23 228.70,626.23 231.10,625.53C232.42,625.15 236.83,623.29 240.90,621.40C244.96,619.51 248.42,618.09 248.58,618.24C248.73,618.40 247.90,621.78 246.73,625.76C244.60,633.00 244.60,633.00 246.80,637.52C248.01,640.02 249.00,643.62 249.00,645.53C249.00,647.44 249.47,649.00 250.04,649.00C250.61,649.00 252.95,648.04 255.24,646.88C258.97,644.98 259.94,644.87 264.38,645.90C268.31,646.81 269.52,646.78 270.16,645.77C270.61,645.07 270.98,641.32 270.98,637.43C270.99,633.54 271.72,627.92 272.59,624.93C273.81,620.79 275.43,618.29 279.41,614.41C282.76,611.14 286.40,608.71 289.57,607.63C292.28,606.70 298.65,605.42 303.72,604.77C308.79,604.13 313.23,603.89 313.58,604.24C313.93,604.60 313.17,606.36 311.88,608.17C310.11,610.65 309.44,613.15 309.15,618.42C308.86,623.44 309.19,626.24 310.33,628.44C311.20,630.12 312.39,633.41 312.99,635.75C313.59,638.09 314.63,640.00 315.32,640.00C316.00,640.00 317.67,639.21 319.03,638.25C320.49,637.22 323.32,636.50 325.95,636.50C330.40,636.50 330.40,636.50 330.58,628.50C330.68,624.10 331.30,619.15 331.95,617.50C332.60,615.85 334.08,613.49 335.24,612.25C336.50,610.91 338.53,610.00 340.28,610.00C341.89,610.00 345.98,611.33 349.36,612.95C352.74,614.57 357.19,617.55 359.26,619.57C361.33,621.60 363.26,624.21 363.55,625.38C363.84,626.54 363.43,629.64 362.63,632.25C361.54,635.85 361.49,637.00 362.41,637.00C363.08,637.00 364.78,635.76 366.20,634.25C367.61,632.74 369.50,630.06 370.39,628.30C371.27,626.54 372.00,623.84 371.99,622.30C371.99,620.76 370.67,617.22 369.07,614.43C367.48,611.65 364.67,608.22 362.83,606.82C361.00,605.42 356.59,602.81 353.04,601.02C349.48,599.22 342.51,596.92 337.54,595.89C332.57,594.87 324.81,594.02 320.30,594.01C315.79,594.01 307.01,594.67 300.79,595.48C294.57,596.30 283.10,598.32 275.30,599.97C267.50,601.63 254.68,603.68 246.81,604.53C238.94,605.39 224.18,607.28 214.00,608.74C197.35,611.12 192.70,611.37 167.50,611.30C139.50,611.23 139.50,611.23 130.07,606.61C124.07,603.68 119.31,602.00 116.97,602.00C114.81,602.00 111.93,602.93 109.98,604.25C108.16,605.49 105.17,608.69 103.34,611.36C101.02,614.73 100.00,617.36 100.00,619.94C100.00,621.99 100.29,623.96 100.64,624.31C100.99,624.66 103.02,623.16 105.14,620.97C107.26,618.79 109.44,617.00 109.97,617.00C110.52,617.00 110.69,618.30 110.36,619.97C110.03,621.60 110.03,623.64 110.36,624.50C110.88,625.84 111.67,625.69 116.08,623.46C118.89,622.03 121.40,621.07 121.65,621.31C121.89,621.56 121.16,623.55 120.02,625.75C118.87,627.94 117.66,632.04 117.33,634.87C117.00,637.69 117.04,640.00 117.43,640.00C117.81,640.00 119.27,638.65 120.65,637.00C122.04,635.35 123.59,634.00 124.09,634.00C124.59,634.00 125.01,636.14 125.02,638.75C125.04,641.36 125.51,645.52 126.07,648.00C126.64,650.48 128.24,654.24 129.64,656.36C131.03,658.49 132.52,659.84 132.93,659.36C133.34,658.89 134.26,655.80 134.96,652.50C135.66,649.20 136.89,645.21 137.70,643.64C138.51,642.06 139.52,641.16 139.95,641.64C140.37,642.11 141.49,645.65 142.43,649.50C143.36,653.35 144.78,657.50 145.57,658.73C146.37,659.96 148.41,661.68 150.10,662.55C151.80,663.43 153.43,663.91 153.72,663.61C154.02,663.31 155.20,663.73 156.35,664.54C157.50,665.34 158.93,666.00 159.52,666.00zM553.25,651.95C553.66,651.98 554.00,651.33 554.00,650.50C554.00,649.68 552.19,643.04 549.98,635.75C547.77,628.46 543.52,612.60 540.54,600.50C537.56,588.40 534.76,576.79 534.31,574.69C533.86,572.59 533.05,570.79 532.50,570.69C531.92,570.58 531.38,573.97 531.21,578.83C531.03,584.01 531.70,591.68 532.98,599.10C534.11,605.66 536.58,617.72 538.47,625.88C540.36,634.05 542.64,642.56 543.53,644.79C544.75,647.83 546.08,649.23 548.83,650.37C550.85,651.21 552.84,651.92 553.25,651.95zM511.00,648.72C511.93,648.55 512.38,647.59 512.18,646.19C512.01,644.94 509.39,636.40 506.37,627.21C503.35,618.02 497.95,600.60 494.37,588.50C490.78,576.40 486.76,563.23 485.43,559.23C484.09,555.23 481.62,549.12 479.93,545.65C478.23,542.18 475.80,538.03 474.51,536.42C473.23,534.82 471.92,533.75 471.61,534.06C471.30,534.37 472.64,540.67 474.58,548.06C476.52,555.45 479.26,565.33 480.66,570.00C482.05,574.67 486.12,587.95 489.69,599.50C493.25,611.05 497.76,624.77 499.71,630.00C501.65,635.23 504.15,641.30 505.26,643.50C506.36,645.70 507.77,647.84 508.38,648.25C509.00,648.66 510.18,648.87 511.00,648.72zM164.17,595.95C165.21,594.60 168.76,589.37 172.05,584.32C175.73,578.68 180.04,573.53 183.26,570.94C186.14,568.62 190.97,565.58 193.99,564.18C198.57,562.06 201.02,561.62 208.65,561.56C213.69,561.53 218.16,561.83 218.57,562.24C218.98,562.65 218.57,563.81 217.66,564.82C216.75,565.83 216.00,566.85 216.00,567.08C216.00,567.31 218.26,567.34 221.02,567.15C223.79,566.96 226.78,567.08 227.67,567.43C229.09,567.97 229.01,568.36 227.00,570.50C225.24,572.37 225.03,573.05 226.10,573.39C226.87,573.64 233.10,574.06 239.94,574.33C246.78,574.61 255.07,574.39 258.36,573.86C262.41,573.21 266.64,573.26 271.42,574.00C275.31,574.60 278.84,575.44 279.26,575.86C279.68,576.28 277.54,577.65 274.51,578.91C271.48,580.16 269.00,581.55 269.00,581.99C269.00,582.43 269.79,583.10 270.75,583.47C271.71,583.85 279.27,584.41 287.55,584.72C298.48,585.13 303.22,584.95 304.89,584.06C306.88,583.00 307.10,582.33 306.51,579.20C306.13,577.20 305.13,574.20 304.27,572.53C303.41,570.87 300.78,566.99 298.42,563.91C296.06,560.84 292.49,556.88 290.49,555.13C288.49,553.37 285.20,550.89 283.18,549.62C281.15,548.35 276.97,546.37 273.88,545.22C270.79,544.07 261.57,541.76 253.38,540.09C245.20,538.42 233.49,536.66 227.37,536.19C221.24,535.72 211.12,535.69 204.87,536.11C198.00,536.59 188.93,538.05 181.95,539.83C175.60,541.44 167.95,544.00 164.95,545.51C161.95,547.02 156.70,550.51 153.28,553.27C149.87,556.03 145.97,559.92 144.62,561.90C143.27,563.88 141.61,567.42 140.92,569.76C140.24,572.10 139.93,574.27 140.24,574.58C140.55,574.89 142.65,574.20 144.90,573.05C147.16,571.90 149.00,571.14 149.00,571.35C149.00,571.57 148.32,573.66 147.50,576.00C146.68,578.34 146.00,581.77 146.00,583.63C146.00,585.48 146.22,587.00 146.48,587.00C146.74,587.00 148.85,584.94 151.17,582.43C153.49,579.92 157.34,576.71 159.74,575.31C162.13,573.90 164.28,572.95 164.52,573.19C164.76,573.43 164.09,575.90 163.03,578.69C161.97,581.47 160.80,586.00 160.44,588.74C160.01,592.00 160.21,594.53 161.03,596.06C162.28,598.40 162.28,598.40 164.17,595.95zM438.16,586.00C439.17,586.00 440.00,585.76 440.00,585.47C440.00,585.17 438.93,582.81 437.62,580.22C436.32,577.62 433.59,571.06 431.57,565.64C429.54,560.22 428.09,555.57 428.35,555.32C428.60,555.07 430.54,555.75 432.65,556.83C434.77,557.91 440.97,561.99 446.44,565.90C451.91,569.80 456.71,573.00 457.11,573.00C457.51,573.00 457.38,571.31 456.81,569.25C456.24,567.19 454.53,562.80 453.00,559.50C451.47,556.20 448.03,550.04 445.36,545.82C442.69,541.59 434.73,531.38 427.67,523.12C420.62,514.86 411.71,505.54 407.89,502.41C404.07,499.28 400.64,497.02 400.28,497.39C399.91,497.75 400.20,499.73 400.92,501.78C401.63,503.82 403.84,508.74 405.82,512.70C407.80,516.67 409.18,520.16 408.87,520.46C408.56,520.77 406.33,520.32 403.91,519.47C401.50,518.62 397.15,516.58 394.26,514.95C391.37,513.32 389.00,512.47 389.00,513.06C389.00,513.65 389.99,516.46 391.21,519.31C392.43,522.17 395.56,528.08 398.18,532.45C400.79,536.82 402.78,540.56 402.59,540.75C402.40,540.94 400.15,540.56 397.58,539.92C395.02,539.27 392.73,538.94 392.50,539.17C392.26,539.41 394.57,542.95 397.62,547.05C400.68,551.15 403.96,555.17 404.91,556.00C405.86,556.83 408.15,559.52 409.99,562.00C411.83,564.48 415.85,569.14 418.92,572.37C421.99,575.60 427.16,579.99 430.41,582.12C433.65,584.25 437.14,586.00 438.16,586.00zM120.04,576.47C120.46,576.21 122.26,573.41 124.04,570.25C125.82,567.09 130.14,560.39 133.64,555.36C137.14,550.33 140.00,545.72 140.00,545.11C140.00,544.50 139.64,544.00 139.19,544.00C138.75,544.00 137.51,544.66 136.44,545.47C135.37,546.28 133.70,546.95 132.73,546.97C131.31,546.99 131.09,546.45 131.59,544.25C131.93,542.74 132.84,539.28 133.60,536.57C134.37,533.86 135.00,530.35 135.00,528.77C135.00,525.90 135.00,525.90 130.50,529.00C126.00,532.10 126.00,532.10 126.00,529.70C126.00,528.39 126.91,524.68 128.02,521.45C129.12,518.23 129.87,515.12 129.68,514.55C129.48,513.97 126.77,516.15 123.65,519.39C120.54,522.63 116.65,528.03 115.01,531.39C113.37,534.75 111.39,540.20 110.60,543.50C109.81,546.80 108.87,553.22 108.51,557.76C107.86,566.01 107.86,566.01 111.68,563.79C113.78,562.57 115.65,561.21 115.83,560.78C116.02,560.35 116.58,560.00 117.08,560.00C117.59,560.00 118.00,563.52 118.00,567.83C118.00,572.14 118.29,575.95 118.64,576.31C118.99,576.66 119.62,576.73 120.04,576.47zM297.11,512.31C298.82,511.31 302.19,508.21 304.60,505.40C307.01,502.60 309.66,498.38 310.49,496.03C311.32,493.67 312.00,491.58 312.00,491.37C312.00,491.17 311.54,491.00 310.98,491.00C310.42,491.00 307.98,492.82 305.57,495.04C303.16,497.27 299.57,501.80 297.59,505.12C295.62,508.43 294.00,511.81 294.00,512.63C294.00,513.87 294.50,513.82 297.11,512.31zM269.85,501.43C270.76,501.04 273.98,499.81 277.00,498.69C280.02,497.57 284.97,494.93 288.00,492.82C291.02,490.72 293.66,489.48 293.86,490.08C294.06,490.67 293.66,493.16 292.97,495.60C292.29,498.05 291.96,500.30 292.25,500.59C292.55,500.88 294.32,500.48 296.19,499.69C298.06,498.91 300.77,496.87 302.21,495.16C303.65,493.45 305.37,490.41 306.03,488.41C306.69,486.40 307.29,482.23 307.37,479.13C307.44,476.03 307.15,471.14 306.72,468.25C306.16,464.50 306.26,463.00 307.08,463.00C307.72,463.00 309.85,464.42 311.82,466.15C313.95,468.02 315.56,468.82 315.79,468.13C316.00,467.49 314.78,463.99 313.07,460.34C311.37,456.70 308.00,450.95 305.60,447.58C303.19,444.21 298.12,438.54 294.33,434.97C290.55,431.41 283.50,425.86 278.67,422.62C273.85,419.39 266.66,415.49 262.70,413.95C258.74,412.42 251.90,410.45 247.50,409.59C243.10,408.73 235.21,407.61 229.97,407.10C224.24,406.54 217.44,406.53 212.97,407.07C208.86,407.57 203.70,408.40 201.50,408.94C198.94,409.55 197.16,409.56 196.54,408.94C195.92,408.32 196.28,407.29 197.54,406.08C198.62,405.03 203.10,401.61 207.50,398.47C211.90,395.33 218.20,391.48 221.50,389.91C224.80,388.35 231.75,385.42 236.94,383.41C242.13,381.39 248.50,378.44 251.09,376.85C253.68,375.25 256.56,372.79 257.50,371.37C259.19,368.78 259.19,368.78 254.59,369.15C252.07,369.35 250.00,369.21 250.00,368.84C250.00,368.47 260.69,357.37 273.75,344.18C286.81,330.98 302.13,315.18 307.79,309.06C313.44,302.94 317.81,297.49 317.48,296.96C317.15,296.43 314.32,296.00 311.19,296.00C305.50,295.99 305.50,295.99 308.50,293.46C310.15,292.07 316.51,288.46 322.63,285.42C328.76,282.39 334.57,279.02 335.56,277.93C336.92,276.43 337.07,275.67 336.19,274.79C335.53,274.13 329.19,273.26 321.27,272.75C312.13,272.16 303.13,272.24 294.50,272.98C287.35,273.60 277.00,275.02 271.50,276.15C266.00,277.28 255.43,280.47 248.00,283.22C240.57,285.98 231.91,289.54 228.75,291.13C225.59,292.73 223.00,294.28 223.00,294.60C223.00,294.91 224.91,295.05 227.25,294.91C229.59,294.77 232.96,294.74 234.75,294.83C236.73,294.93 238.00,295.53 238.00,296.35C238.00,297.09 234.90,299.07 231.11,300.75C227.32,302.42 220.01,306.58 214.86,310.00C209.71,313.42 204.50,317.13 203.28,318.25C202.06,319.37 201.30,320.68 201.59,321.15C201.88,321.62 203.08,322.00 204.25,322.00C206.27,322.00 206.24,322.14 203.62,324.87C202.11,326.45 197.86,329.21 194.19,331.00C190.51,332.80 184.80,336.07 181.50,338.27C178.20,340.48 174.49,343.20 173.25,344.32C172.01,345.43 171.00,346.72 171.00,347.17C171.00,347.63 171.68,348.00 172.50,348.00C173.32,348.00 174.00,348.59 174.00,349.32C174.00,350.04 170.81,353.67 166.90,357.39C163.00,361.10 160.00,364.34 160.25,364.58C160.50,364.83 163.02,364.50 165.85,363.85C168.68,363.19 171.30,362.96 171.67,363.34C172.05,363.71 171.04,365.40 169.43,367.09C167.82,368.78 163.73,372.14 160.35,374.56C156.96,376.98 151.96,381.47 149.22,384.54C146.49,387.61 143.41,391.68 142.38,393.60C140.80,396.52 140.73,397.21 141.91,397.94C143.03,398.64 142.62,399.76 139.81,403.65C137.89,406.32 135.95,409.13 135.51,409.90C134.87,410.99 135.25,411.15 137.26,410.65C138.66,410.30 140.60,409.71 141.56,409.34C143.04,408.77 143.20,409.08 142.61,411.43C142.23,412.94 139.64,417.15 136.86,420.77C134.09,424.40 131.40,428.44 130.91,429.75C130.41,431.06 130.00,432.55 130.00,433.06C130.00,433.58 132.27,432.37 135.04,430.37C137.82,428.38 140.32,426.99 140.61,427.27C140.89,427.56 139.34,432.00 137.16,437.15C134.97,442.29 132.87,448.64 132.48,451.25C132.08,453.95 132.17,456.00 132.68,456.00C133.18,456.00 135.32,453.74 137.42,450.97C139.53,448.20 143.30,444.15 145.78,441.96C148.27,439.77 150.53,438.19 150.79,438.46C151.06,438.73 150.70,440.99 150.00,443.50C149.30,446.01 148.94,448.27 149.20,448.53C149.46,448.79 152.34,447.30 155.59,445.20C158.84,443.11 162.06,441.06 162.75,440.64C163.52,440.17 164.00,440.43 164.00,441.33C164.00,442.13 161.28,446.93 157.95,452.00C154.61,457.07 152.15,461.48 152.47,461.80C152.79,462.12 154.65,461.81 156.60,461.10C158.55,460.39 160.33,459.99 160.55,460.21C160.76,460.43 159.62,463.96 158.01,468.05C156.39,472.15 155.05,476.51 155.03,477.75C155.02,478.99 155.46,480.00 156.02,480.00C156.59,480.00 161.25,476.06 166.38,471.25C171.52,466.44 178.25,461.06 181.36,459.30C184.46,457.54 187.00,456.55 187.00,457.09C187.00,457.63 186.36,459.07 185.57,460.29C184.79,461.50 183.22,465.30 182.07,468.72C180.93,472.14 180.00,475.72 180.00,476.67C180.00,477.73 183.97,474.20 190.12,467.66C195.69,461.75 201.99,456.02 204.12,454.94C207.17,453.38 208.00,453.26 208.00,454.36C208.00,455.13 206.43,458.37 204.50,461.57C202.57,464.77 201.00,467.97 201.00,468.69C201.00,469.41 201.28,470.00 201.62,470.00C201.96,470.00 204.92,468.37 208.20,466.38C211.48,464.38 216.23,462.13 218.75,461.38C221.27,460.62 223.55,460.21 223.81,460.48C224.08,460.75 222.83,464.68 221.03,469.23C219.24,473.77 217.53,480.14 217.23,483.38C216.87,487.34 217.05,489.14 217.77,488.88C218.35,488.67 222.51,483.41 227.00,477.20C232.08,470.17 237.31,464.22 240.83,461.45C243.95,459.00 247.29,457.00 248.25,457.00C249.21,457.00 250.00,457.19 250.00,457.42C250.00,457.66 248.59,461.37 246.86,465.67C245.13,469.98 243.49,475.48 243.21,477.90C242.80,481.49 242.96,482.14 244.10,481.45C244.87,480.99 247.73,478.86 250.45,476.71C253.18,474.57 258.45,471.29 262.18,469.41C265.90,467.53 269.64,466.00 270.48,466.00C271.31,466.00 272.00,466.79 271.99,467.75C271.98,468.71 270.20,473.31 268.03,477.96C265.86,482.61 264.25,486.58 264.45,486.78C264.65,486.98 266.18,486.44 267.86,485.57C269.53,484.71 271.37,484.00 271.95,484.00C272.53,484.00 272.99,484.56 272.97,485.25C272.95,485.94 271.66,489.65 270.09,493.50C268.52,497.35 267.45,500.87 267.72,501.32C267.98,501.77 268.94,501.82 269.85,501.43zM573.30,472.85C576.16,469.75 580.44,463.96 582.81,459.99C585.18,456.03 586.93,452.60 586.70,452.37C586.47,452.14 583.30,455.11 579.66,458.98C576.01,462.84 571.90,468.24 570.52,470.97C569.13,473.70 568.02,476.51 568.05,477.22C568.07,477.92 570.43,475.96 573.30,472.85zM416.83,381.91C414.45,381.86 409.82,380.70 406.54,379.33C403.27,377.96 397.33,374.58 393.35,371.83C389.37,369.08 384.18,364.67 381.81,362.03C379.44,359.39 376.23,355.33 374.68,353.01C373.13,350.68 370.99,348.55 369.93,348.27C368.87,347.99 368.00,347.57 368.00,347.33C368.00,347.10 368.63,345.68 369.40,344.20C370.17,342.71 373.88,339.39 377.65,336.81C381.42,334.24 385.26,331.84 386.20,331.48C387.37,331.03 389.39,332.20 392.70,335.25C395.34,337.69 400.20,341.85 403.50,344.50C406.80,347.15 414.66,353.64 420.97,358.91C427.28,364.19 435.12,371.10 438.40,374.27C442.78,378.51 444.07,380.33 443.24,381.16C442.43,381.97 440.97,381.98 437.81,381.18C435.44,380.57 430.80,378.98 427.50,377.63C424.21,376.29 421.14,375.41 420.70,375.69C420.25,375.96 420.17,377.50 420.52,379.10C421.15,381.96 421.10,382.00 416.83,381.91zM237.75,342.68C235.42,343.04 234.00,342.87 234.00,342.21C234.00,341.63 236.36,339.15 239.25,336.70C242.14,334.24 247.39,330.38 250.93,328.10C254.46,325.83 260.14,323.11 263.54,322.06C266.95,321.01 272.72,320.04 276.37,319.91C280.01,319.77 283.24,319.91 283.54,320.20C283.83,320.50 281.47,322.97 278.29,325.69C275.10,328.41 270.93,331.81 269.00,333.24C267.07,334.67 263.10,336.78 260.18,337.94C257.25,339.09 251.85,340.49 248.18,341.06C244.50,341.63 239.81,342.35 237.75,342.68zM433.50,332.86C431.30,332.88 427.02,332.08 424.00,331.08C420.98,330.09 414.90,327.14 410.50,324.54C406.10,321.93 403.40,320.11 404.50,320.48C405.60,320.86 410.27,322.27 414.87,323.61C419.47,324.96 426.44,327.58 430.37,329.44C437.50,332.83 437.50,332.83 433.50,332.86zM498.71,322.93C506.66,322.99 510.13,322.55 514.37,320.96C517.36,319.84 521.32,317.91 523.15,316.68C524.99,315.44 526.62,313.71 526.79,312.83C526.99,311.84 526.04,310.83 524.30,310.19C522.76,309.61 517.07,307.30 511.66,305.04C501.83,300.93 501.83,300.93 492.93,305.03C484.96,308.70 483.08,309.17 474.77,309.51C469.67,309.73 464.64,309.92 463.60,309.95C461.80,310.00 461.79,310.11 463.36,311.85C464.29,312.87 467.98,315.13 471.56,316.88C475.15,318.63 480.43,320.69 483.29,321.47C486.16,322.24 493.10,322.90 498.71,322.93zM405.38,307.98C404.90,307.97 400.77,305.79 396.20,303.15C391.64,300.50 387.16,297.59 386.25,296.68C385.11,295.54 384.91,294.69 385.61,293.99C386.17,293.43 390.65,291.85 395.57,290.49C400.48,289.12 408.68,287.28 413.79,286.40C421.39,285.08 423.63,285.02 426.08,286.03C427.73,286.72 429.53,288.12 430.08,289.16C430.64,290.19 430.86,291.42 430.58,291.87C430.29,292.33 424.71,296.15 418.16,300.35C411.62,304.56 405.87,307.99 405.38,307.98zM610.14,293.92C609.24,293.87 604.54,291.91 599.71,289.57C594.87,287.22 586.66,283.83 581.46,282.04C576.26,280.24 572.00,278.47 572.00,278.09C572.00,277.71 572.54,276.86 573.20,276.20C573.86,275.54 575.89,275.00 577.71,275.00C579.53,275.00 585.18,275.92 590.26,277.05C595.34,278.18 601.88,279.79 604.79,280.63C607.70,281.48 611.16,283.14 612.49,284.33C614.82,286.43 614.84,286.62 613.34,290.25C612.40,292.52 611.14,293.97 610.14,293.92zM384.50,288.53C382.13,288.85 379.53,288.54 378.11,287.78C376.79,287.08 375.05,285.49 374.24,284.26C372.82,282.10 372.94,281.94 377.13,280.15C381.50,278.29 381.50,278.29 378.00,277.52C376.07,277.10 372.93,275.92 371.00,274.90C369.07,273.88 366.21,271.95 364.62,270.63C363.04,269.31 362.05,267.72 362.43,267.11C362.87,266.39 367.43,266.01 375.31,266.01C382.01,266.02 393.85,266.46 401.61,266.99C409.37,267.52 416.46,268.24 417.36,268.59C418.26,268.93 419.00,269.58 419.00,270.02C419.00,270.46 417.24,271.12 415.09,271.48C412.94,271.85 410.40,272.72 409.43,273.43C407.91,274.54 408.47,274.80 413.59,275.38C416.84,275.75 420.13,276.45 420.90,276.93C421.66,277.41 422.02,278.49 421.70,279.35C421.37,280.20 419.39,281.31 417.30,281.81C415.21,282.31 407.88,283.91 401.00,285.35C394.12,286.80 386.70,288.23 384.50,288.53zM611.68,279.93C610.48,279.89 602.26,277.92 593.41,275.57C584.56,273.21 576.50,270.82 575.50,270.26C573.75,269.28 573.75,269.21 575.60,268.63C576.65,268.29 586.81,267.90 598.17,267.76C609.53,267.62 619.15,267.82 619.55,268.22C619.94,268.61 619.70,270.32 619.00,272.01C618.30,273.70 616.85,276.19 615.79,277.54C614.73,278.89 612.88,279.97 611.68,279.93zM501.96,271.53C502.39,271.26 503.01,269.70 503.34,268.06C503.73,266.10 504.96,264.55 506.97,263.52C508.63,262.65 510.00,261.52 510.00,260.99C510.00,260.47 508.93,259.77 507.63,259.44C506.33,259.12 501.50,258.77 496.91,258.67C489.86,258.53 488.51,258.76 488.23,260.15C487.99,261.30 488.98,262.17 491.41,262.97C493.42,263.63 496.28,265.83 498.06,268.07C499.77,270.24 501.53,271.79 501.96,271.53zM422.37,262.82C420.79,262.71 408.02,262.34 394.00,261.99C379.38,261.62 367.39,260.88 365.90,260.26C364.47,259.65 361.43,256.82 359.15,253.95C356.87,251.08 355.00,248.07 355.00,247.25C355.00,246.04 355.99,245.89 360.50,246.46C365.09,247.03 366.00,246.89 366.00,245.60C366.00,244.75 364.61,243.03 362.91,241.78C361.20,240.53 358.33,236.98 356.52,233.90C354.72,230.82 352.63,226.61 351.88,224.55C350.59,220.96 350.64,220.71 353.13,218.65C354.56,217.47 357.14,215.73 358.86,214.80C360.59,213.86 362.00,212.41 362.00,211.59C362.00,210.67 360.41,209.65 357.94,208.98C355.70,208.38 354.01,207.52 354.19,207.07C354.36,206.62 357.39,203.95 360.91,201.13C367.33,196.00 367.33,196.00 377.85,196.00C388.37,196.00 388.37,196.00 397.94,190.59C403.20,187.61 411.88,183.56 417.24,181.58C422.59,179.60 430.33,177.46 434.43,176.82C440.23,175.92 443.44,175.94 448.91,176.91C453.66,177.76 457.24,179.12 459.96,181.09C462.18,182.69 465.36,185.89 467.02,188.19C468.69,190.49 470.73,194.71 471.56,197.56C472.39,200.41 473.45,206.19 473.93,210.39C474.40,214.59 474.42,219.64 473.97,221.61C473.53,223.58 472.12,226.32 470.83,227.70C469.55,229.08 464.94,232.27 460.59,234.78C456.24,237.30 449.44,241.93 445.49,245.07C441.55,248.21 435.37,253.52 431.78,256.89C426.63,261.71 424.64,262.96 422.37,262.82zM585.93,238.98C587.27,238.99 590.30,238.07 592.65,236.93C595.01,235.79 599.22,232.35 602.02,229.28C605.36,225.63 606.78,223.38 606.13,222.73C605.59,222.19 603.90,222.06 602.37,222.44C600.84,222.83 595.97,226.70 591.55,231.06C584.56,237.92 583.82,238.97 585.93,238.98zM546.00,228.90C549.02,228.93 553.43,228.51 555.79,227.96C558.15,227.42 562.03,226.06 564.40,224.94C566.77,223.83 571.59,220.53 575.11,217.62C579.20,214.23 582.85,210.02 585.25,205.93C587.31,202.42 589.00,199.05 589.00,198.44C589.00,197.83 586.86,196.79 584.25,196.11C581.64,195.44 578.52,194.65 577.32,194.34C575.46,193.88 574.98,194.37 574.09,197.65C573.52,199.77 571.58,203.97 569.78,206.98C567.61,210.62 564.64,213.73 561.00,216.21C557.97,218.27 552.82,220.64 549.54,221.48C546.26,222.31 540.97,223.00 537.79,223.00C534.61,223.00 532.00,223.39 532.00,223.88C532.00,224.36 532.56,225.20 533.25,225.74C533.94,226.29 535.85,227.21 537.50,227.79C539.15,228.37 542.98,228.87 546.00,228.90zM437.07,225.93C439.58,225.97 444.22,225.52 447.38,224.94C450.54,224.35 455.15,223.01 457.63,221.94C461.25,220.39 462.08,219.58 461.82,217.83C461.62,216.49 460.43,215.30 458.69,214.73C456.70,214.06 453.74,214.30 448.52,215.53C444.02,216.59 438.98,217.08 435.55,216.80C431.45,216.46 428.80,215.53 425.74,213.39C423.44,211.77 420.27,208.62 418.71,206.39C417.14,204.16 415.60,200.46 415.30,198.17C414.84,194.76 414.35,194.00 412.62,194.00C411.45,194.01 409.02,194.91 407.22,196.01C405.41,197.11 403.71,198.60 403.43,199.31C403.16,200.02 404.07,203.17 405.46,206.30C407.02,209.85 407.54,212.00 406.81,212.00C406.17,212.00 406.67,213.08 407.91,214.41C409.16,215.73 412.77,218.20 415.95,219.89C419.13,221.59 424.15,223.62 427.11,224.42C430.08,225.22 434.55,225.90 437.07,225.93zM542.07,217.91C545.13,217.96 549.95,217.31 552.77,216.48C555.59,215.64 559.34,213.74 561.10,212.27C562.85,210.79 565.34,207.31 566.63,204.54C568.02,201.56 568.98,197.61 568.99,194.88C569.00,191.72 568.35,189.44 566.93,187.63C565.79,186.19 563.95,185.00 562.83,185.00C560.99,185.00 560.87,185.43 561.48,189.89C561.85,192.57 561.84,196.86 561.46,199.41C561.08,201.97 559.79,205.50 558.60,207.28C557.40,209.05 555.14,211.12 553.56,211.88C551.99,212.63 547.95,213.27 544.60,213.30C540.77,213.33 537.31,212.72 535.30,211.67C533.54,210.75 531.18,210.00 530.05,210.00C528.71,210.00 528.00,210.65 528.00,211.88C528.00,212.91 528.65,214.29 529.44,214.95C530.23,215.60 532.14,216.52 533.69,216.98C535.23,217.45 539.01,217.87 542.07,217.91zM444.69,211.00C445.20,211.00 447.12,209.54 448.96,207.75C450.79,205.96 452.90,203.05 453.65,201.28C454.39,199.51 455.00,197.39 455.00,196.57C455.00,195.74 453.60,193.48 451.90,191.53C450.19,189.59 448.19,188.00 447.46,188.00C446.72,188.00 445.86,188.42 445.54,188.93C445.23,189.44 445.50,191.84 446.15,194.26C447.02,197.52 447.04,199.69 446.23,202.59C445.63,204.74 444.83,207.51 444.45,208.75C444.08,209.99 444.18,211.00 444.69,211.00zM543.38,200.71C543.99,200.51 545.07,199.25 545.77,197.92C546.50,196.52 546.80,194.02 546.47,192.00C546.15,190.07 545.66,187.71 545.38,186.75C545.10,185.79 543.97,185.00 542.88,185.00C541.80,185.00 539.80,186.19 538.45,187.65C537.08,189.13 536.00,191.51 536.00,193.06C536.00,194.93 537.01,196.67 539.13,198.45C540.85,199.90 542.76,200.92 543.38,200.71zM431.00,196.00C431.38,196.00 433.11,195.29 434.85,194.43C436.80,193.45 438.00,192.10 438.00,190.86C438.00,189.77 437.53,188.00 436.96,186.93C436.31,185.71 434.87,185.00 433.04,185.00C431.44,185.00 429.44,185.71 428.57,186.57C427.71,187.44 427.00,189.09 427.00,190.24C427.00,191.40 427.74,193.17 428.65,194.17C429.57,195.18 430.62,196.00 431.00,196.00zM474.04,170.00C473.63,170.00 472.79,166.96 472.17,163.25C471.56,159.54 470.37,154.21 469.54,151.41C468.70,148.62 467.14,145.54 466.07,144.57C464.18,142.86 464.10,142.93 463.05,147.15C462.46,149.54 461.48,153.30 460.88,155.50C460.27,157.70 459.12,160.79 458.31,162.36C456.84,165.22 456.84,165.22 453.83,162.36C452.17,160.79 449.79,157.70 448.52,155.50C447.26,153.30 445.97,149.93 445.66,148.00C445.35,146.07 445.47,142.70 445.92,140.50C446.38,138.30 447.92,132.13 449.34,126.80C450.76,121.46 453.03,114.91 454.38,112.23C455.74,109.56 457.56,106.78 458.45,106.04C459.33,105.31 460.33,105.00 460.68,105.35C461.03,105.70 461.64,107.90 462.05,110.24C462.45,112.58 463.28,116.94 463.90,119.93C464.51,122.91 466.15,127.83 467.53,130.85C469.14,134.37 470.40,136.00 471.01,135.39C471.54,134.86 472.64,130.62 473.45,125.96C474.26,121.31 475.80,114.99 476.85,111.91C477.91,108.84 479.46,105.01 480.29,103.41C481.12,101.81 482.69,99.69 483.77,98.70C485.68,96.98 485.78,96.98 486.50,98.71C486.92,99.69 487.48,106.46 487.76,113.75C488.03,121.04 488.59,127.00 488.99,127.00C489.39,127.00 491.87,122.96 494.49,118.01C497.12,113.07 500.74,107.33 502.53,105.26C504.33,103.19 506.03,101.72 506.31,102.00C506.60,102.28 507.56,107.00 508.45,112.50C509.34,118.00 510.30,123.55 510.58,124.84C510.97,126.67 511.37,126.93 512.44,126.05C513.18,125.44 515.30,121.57 517.14,117.47C518.99,113.36 520.78,110.00 521.13,110.00C521.47,110.00 522.24,111.24 522.84,112.75C523.43,114.26 524.59,118.16 525.40,121.41C526.22,124.66 527.40,127.63 528.03,128.02C528.65,128.40 529.41,131.45 529.71,134.78C530.20,140.10 529.90,141.61 527.24,147.17C525.58,150.65 522.83,155.07 521.12,157.00C518.02,160.50 518.02,160.50 516.11,158.26C514.97,156.93 513.93,153.66 513.52,150.20C513.15,146.99 512.45,143.73 511.96,142.94C511.23,141.75 510.82,141.85 509.55,143.50C508.70,144.60 506.85,149.32 505.43,154.00C504.00,158.68 502.30,164.07 501.63,165.99C500.97,167.92 499.76,169.61 498.96,169.77C497.85,169.98 497.08,167.70 495.75,160.28C494.78,154.90 493.72,148.81 493.38,146.75C493.02,144.49 492.22,143.00 491.38,143.00C490.61,143.00 488.48,145.36 486.64,148.25C484.81,151.14 481.39,157.21 479.04,161.75C476.70,166.29 474.44,170.00 474.04,170.00zM440.59,167.00C439.26,167.00 435.93,165.22 433.18,163.05C430.43,160.87 427.47,158.07 426.59,156.83C425.72,155.58 425.00,153.08 425.00,151.28C425.00,148.98 425.47,148.00 426.55,148.00C427.40,148.00 429.36,148.65 430.90,149.45C432.44,150.25 435.18,152.58 436.98,154.63C438.78,156.68 440.87,159.84 441.63,161.65C442.38,163.45 443.00,165.40 443.00,165.97C443.00,166.54 441.92,167.00 440.59,167.00zM351.17,162.78C350.63,162.96 349.87,161.20 349.48,158.87C349.08,156.54 346.54,148.33 343.83,140.62C341.12,132.91 337.15,119.60 335.01,111.05C332.87,102.50 330.57,92.58 329.90,89.00C329.23,85.42 328.64,77.55 328.59,71.50C328.51,61.66 328.76,59.97 331.00,55.50C333.41,50.68 333.65,50.51 337.50,50.67C339.70,50.77 344.58,52.23 348.35,53.93C352.12,55.62 359.08,59.53 363.81,62.62C368.54,65.70 375.81,70.81 379.96,73.97C384.11,77.14 394.14,86.20 402.26,94.11C410.37,102.03 417.01,109.20 417.01,110.07C417.00,111.03 414.78,112.55 411.25,114.01C408.09,115.32 401.45,119.14 396.50,122.49C391.55,125.85 385.36,129.83 382.75,131.34C380.14,132.85 378.00,134.52 378.00,135.04C378.00,135.57 379.77,136.00 381.94,136.00C384.11,136.00 386.13,136.39 386.42,136.88C386.72,137.36 385.29,138.90 383.23,140.30C381.18,141.71 377.93,143.51 376.00,144.31C374.07,145.11 370.26,146.62 367.53,147.66C363.66,149.12 361.41,150.97 357.35,156.00C354.49,159.55 351.70,162.60 351.17,162.78zM369.67,118.00C382.44,118.00 383.41,117.86 385.53,115.75C386.77,114.51 388.84,112.72 390.14,111.77C392.36,110.14 392.39,109.95 390.75,108.66C389.79,107.90 389.00,106.49 389.00,105.52C389.00,104.56 387.34,101.46 385.30,98.63C383.27,95.81 378.95,90.47 375.72,86.77C372.48,83.07 367.13,78.01 363.82,75.52C360.51,73.03 357.08,71.00 356.20,71.00C355.07,71.00 355.52,71.94 357.80,74.30C359.56,76.11 361.00,77.86 361.00,78.18C361.00,78.50 358.86,79.30 356.25,79.95C353.64,80.60 350.49,81.79 349.25,82.59C348.01,83.39 347.00,84.44 347.00,84.92C347.00,85.39 347.65,86.03 348.43,86.34C349.22,86.64 353.61,87.39 358.18,88.01C362.76,88.63 366.89,89.52 367.36,89.98C367.83,90.44 366.05,91.77 363.41,92.94C360.77,94.10 357.12,96.19 355.31,97.58C353.49,98.97 352.00,100.78 352.00,101.62C352.00,102.58 352.64,102.96 353.75,102.65C354.71,102.39 357.14,101.90 359.15,101.56C361.16,101.22 364.70,101.37 367.02,101.89C369.34,102.42 371.69,103.29 372.23,103.83C372.88,104.48 370.46,106.62 365.15,110.09C360.71,112.99 356.85,115.95 356.57,116.68C356.16,117.73 358.80,118.00 369.67,118.00zM595.50,96.86C598.25,96.93 602.19,96.52 604.25,95.95C606.31,95.38 609.23,93.83 610.75,92.52C612.70,90.83 613.19,89.82 612.44,89.06C611.86,88.47 607.76,87.45 603.34,86.81C595.31,85.64 595.31,85.64 586.61,89.94C581.83,92.31 578.14,94.48 578.42,94.75C578.70,95.03 581.53,95.59 584.71,96.00C587.90,96.40 592.75,96.79 595.50,96.86zM596.48,79.00C604.02,79.00 605.15,78.74 607.92,76.41C609.62,74.99 611.00,73.20 611.00,72.44C611.00,71.67 609.03,70.49 606.50,69.75C601.99,68.43 601.99,68.43 605.00,66.66C606.65,65.69 608.00,64.51 608.00,64.05C608.00,63.59 606.41,63.57 604.47,64.01C602.53,64.44 600.28,65.35 599.47,66.02C598.66,66.70 598.00,67.79 598.00,68.46C598.00,69.13 596.98,70.15 595.72,70.72C594.47,71.29 591.99,72.98 590.22,74.47C588.45,75.96 587.25,77.59 587.56,78.09C587.87,78.59 591.88,79.00 596.48,79.00z" />

</svg>