<?xml version="1.0" encoding="UTF-8" standalone="no"?>
<!-- Uploaded to: SVG Repo, www.svgrepo.com, Generator: SVG Repo Mixer Tools -->

<svg
   height="40"
   width="40"
   version="1.1"
   id="_x32_"
   viewBox="0 0 25.6 25.6"
   xml:space="preserve"
   xmlns="http://www.w3.org/2000/svg"
   xmlns:svg="http://www.w3.org/2000/svg"><defs
   id="defs7" />
<style
   type="text/css"
   id="style1">
	.st0{fill:#000000;}
</style>

<g
   id="layer1"><path
     style="fill:#ffffff;stroke:#f0e68c;stroke-width:0.0132147;stroke-opacity:0.025"
     d="M 4.6828029,23.067552 C 3.7387419,22.977724 2.9465719,22.307996 2.5526771,21.266677 2.3868608,20.828318 2.3317561,20.49855 2.3323772,19.948323 c 0.001,-0.88412 0.177671,-1.44367 0.7377248,-2.336495 C 3.3288742,17.199299 3.7831661,16.380106 4.1280681,15.704072 4.443612,15.085579 5.0309499,13.869725 5.054828,13.785573 5.069397,13.734183 5.052728,13.719743 4.9138858,13.663526 3.9767626,13.284052 3.1441612,12.568724 2.7218958,11.780279 1.9101399,10.264586 2.0617537,8.6861746 3.1585584,7.2343134 3.4276041,6.8781734 3.8390197,6.452683 4.1449505,6.2141787 4.3663513,6.0415707 4.389249,6.0136714 4.5914425,5.6700953 5.2543061,4.543734 5.8201064,3.9816876 6.3690597,3.9042762 6.6841695,3.85984 7.0571149,3.9732296 7.4422754,4.2305987 7.7032047,4.4049489 8.095579,4.7440796 8.3548098,5.0193022 l 0.210768,0.2237707 0.5385476,0.00136 0.538547,0.00136 0.2239092,-0.2299188 C 10.304176,4.5665304 10.79949,4.1791701 11.120893,4.0349392 c 0.237094,-0.1064027 0.35975,-0.1344762 0.589286,-0.1349073 0.197685,-3.646e-4 0.243795,0.00916 0.421748,0.086933 0.109887,0.048046 0.27866,0.1504617 0.375051,0.227618 0.332952,0.2664988 0.773933,0.8425694 1.137087,1.4854147 0.16638,0.294522 0.194367,0.3287005 0.406592,0.4965272 0.765873,0.6056457 1.383373,1.4251115 1.694907,2.249258 0.300852,0.7958826 0.349444,1.5354962 0.152034,2.3140292 -0.337967,1.332836 -1.156745,2.262904 -2.524188,2.867288 -0.18675,0.08253 -0.343014,0.152797 -0.347252,0.156138 -0.0043,0.0034 0.153281,0.312449 0.350042,0.686931 0.481522,0.91645 1.334754,2.429785 1.721822,3.053904 0.297256,0.479306 0.507428,0.871079 0.550577,1.02631 0.01042,0.03772 0.02991,0.07452 0.04318,0.08178 0.03664,0.02003 0.233091,-0.344241 0.329554,-0.611106 0.145517,-0.402567 0.185188,-0.637376 0.18462,-1.092778 -6.31e-4,-0.527796 -0.05962,-0.784146 -0.306852,-1.334295 -0.413166,-0.919351 -0.553402,-1.466166 -0.553444,-2.158024 -2.6e-5,-0.441758 0.05396,-0.759112 0.191782,-1.12739 0.283837,-0.758452 0.850387,-1.375122 1.623944,-1.767612 0.281752,-0.142954 0.601721,-0.261793 0.836919,-0.310834 0.547148,-0.114091 1.120914,0.03431 1.526199,0.394717 0.553406,0.492137 0.643846,1.221513 0.22317,1.799816 l -0.119146,0.163789 0.05367,0.09306 c 0.02952,0.05117 0.04429,0.09775 0.03281,0.103493 -0.01156,0.0057 -0.204238,0.0638 -0.428355,0.129034 -0.224115,0.06524 -0.443259,0.134602 -0.486978,0.154144 -0.256801,0.114773 -0.206856,0.629319 0.134661,1.387395 0.295108,0.655039 0.402071,0.982315 0.511634,1.56545 0.06464,0.344041 0.07279,1.39015 0.01364,1.739944 -0.225761,1.333245 -0.836182,2.505779 -1.743563,3.349144 -0.636376,0.591476 -1.352189,0.981897 -2.152894,1.174238 -0.139114,0.03341 -0.330716,0.07156 -0.425795,0.08476 -0.154441,0.02145 -0.188902,0.03775 -0.323177,0.152994 -0.191945,0.164723 -0.515015,0.353965 -0.720165,0.421855 -0.439089,0.145307 -0.07474,0.134853 -4.8398516,0.138967 -2.4034573,0.002 -4.460535,-0.0049 -4.5712824,-0.01545 z m 8.9400381,-0.733798 c 0.258836,-0.05965 0.470644,-0.173883 0.68295,-0.36839 0.106664,-0.09773 0.205558,-0.195018 0.219766,-0.216216 0.01843,-0.02752 0.110211,-0.04681 0.320908,-0.06743 0.576276,-0.05642 1.054668,-0.21132 1.553546,-0.503026 1.494792,-0.874034 2.444878,-2.773557 2.29818,-4.594789 -0.05409,-0.671313 -0.17276,-1.119031 -0.476611,-1.797799 -0.388919,-0.868809 -0.473643,-1.359991 -0.310073,-1.797553 0.107684,-0.288043 0.347385,-0.499801 0.70375,-0.621694 0.242496,-0.08295 0.394439,-0.201087 0.50085,-0.389442 0.307892,-0.544974 -0.206331,-1.161821 -0.886866,-1.063854 -0.393672,0.05667 -0.932723,0.34165 -1.306135,0.690514 -0.555639,0.519112 -0.811758,1.167391 -0.774117,1.959408 0.0265,0.557561 0.16234,1.043008 0.49839,1.781101 0.296791,0.651854 0.377718,1.045878 0.355613,1.731399 -0.01978,0.613335 -0.1487,1.102815 -0.431952,1.640103 -0.322527,0.611767 -0.899805,1.17326 -1.393309,1.355219 l -0.104311,0.03845 0.01648,-0.156874 c 0.01934,-0.183176 -0.02883,-0.590783 -0.103478,-0.875352 -0.08786,-0.335226 -0.21362,-0.604029 -0.494485,-1.057024 -0.415869,-0.670732 -1.06044,-1.795981 -1.522675,-2.658181 -0.532017,-0.992363 -0.97987,-1.859816 -1.003878,-1.944424 -0.01792,-0.06317 -0.01127,-0.06741 0.187715,-0.119712 1.466949,-0.385625 2.405626,-1.140608 2.832482,-2.278176 0.160105,-0.426652 0.199327,-0.618991 0.217006,-1.063933 0.01326,-0.3332484 0.0064,-0.4460399 -0.04206,-0.6959766 C 14.999384,8.4295168 14.533441,7.654956 13.765651,6.9413342 13.63732,6.8220569 13.460237,6.6741978 13.372137,6.6127594 13.245144,6.5241995 13.188402,6.459846 13.098306,6.3022016 12.714925,5.6313798 12.331383,5.077398 12.077207,4.8273463 11.912738,4.6655492 11.755144,4.5893574 11.628439,4.6103811 c -0.241617,0.04009 -0.789608,0.4728669 -1.331776,1.05177 L 10.034775,5.941785 9.1034597,5.9403121 8.1721447,5.9388393 7.996029,5.7440725 C 7.32321,4.999992 6.7474638,4.5668915 6.488303,4.6098962 6.2173675,4.6548551 5.7570658,5.2075958 5.244661,6.1032965 5.090641,6.372529 5.0031025,6.4965912 4.9296624,6.5497315 4.7220384,6.6999597 4.3784546,7.0046621 4.1777804,7.2165191 3.5495618,7.8797451 3.1712726,8.5886035 3.0408017,9.3470476 c -0.042841,0.2490441 -0.016425,0.9732754 0.044445,1.2179584 0.073075,0.293795 0.2295603,0.68638 0.3817788,0.957797 0.4336018,0.773145 1.2656229,1.374293 2.3585651,1.704098 0.1468359,0.04431 0.2703626,0.08264 0.2745053,0.08516 0.036109,0.02206 -0.5904544,1.388266 -1.1169524,2.435482 -0.3522349,0.700604 -0.924809,1.73926 -1.2285326,2.22857 -0.3874818,0.624249 -0.5303653,0.985982 -0.6015506,1.52292 -0.040258,0.303704 -0.01885,0.872462 0.04335,1.15085 0.2001642,0.896027 0.740222,1.543832 1.4067276,1.68738 0.1071005,0.02306 1.1765163,0.03077 4.4975048,0.03238 3.8268843,0.0018 4.3770963,-0.0025 4.5221983,-0.03594 z"
     id="path8" /><path
     style="fill:#ffffff;stroke:#f0e68c;stroke-width:0.0132147;stroke-opacity:0.025"
     d="m 11.134821,6.3851791 c -0.239835,-0.044454 -0.362798,-0.078024 -0.357958,-0.097727 0.01427,-0.058069 0.496398,-0.6053655 0.507454,-0.5760293 0.0062,0.016345 0.0847,0.1910219 0.174553,0.3882009 0.190783,0.4186812 0.226131,0.3875327 -0.324049,0.2855647 z"
     id="path9" /><path
     style="fill:#ffffff;stroke:#f0e68c;stroke-width:0.0132147;stroke-opacity:0.025"
     d="M 5.5123397,6.4146195 C 5.6197774,6.1558943 5.827301,5.7127839 5.8411059,5.7126277 5.8778632,5.712211 6.347574,6.2902304 6.3249446,6.30803 6.3044138,6.3241952 5.5843349,6.4581864 5.5183593,6.4581325 c -0.013243,-1.08e-5 -0.015952,-0.019596 -0.00602,-0.04352 z"
     id="path10" /><path
     style="fill:#ffffff;stroke:#f0e68c;stroke-width:0.0132147;stroke-opacity:0.025"
     d="M 6.1887979,9.3927771 C 5.8985857,9.3302879 5.6685101,9.0807194 5.66906,8.8290117 5.6695717,8.5923628 5.8791338,8.3491598 6.1404115,8.2819774 6.3905089,8.217658 6.6467756,8.2828359 6.8077746,8.4517475 6.9197743,8.5692322 6.9616145,8.673652 6.9616145,8.8356772 c 0,0.2610924 -0.176019,0.4683693 -0.4617646,0.5437726 -0.1498881,0.039551 -0.1827294,0.040952 -0.311052,0.013291 z"
     id="path11" /><path
     style="fill:#ffffff;stroke:#f0e68c;stroke-width:0.0132147;stroke-opacity:0.025"
     d="M 10.657079,9.3927771 C 10.230541,9.300941 10.019696,8.9134855 10.211237,8.5735088 c 0.237021,-0.4206965 0.894734,-0.424145 1.140344,-0.00593 0.198127,0.337322 -0.01133,0.7366068 -0.431336,0.8222624 -0.137928,0.028127 -0.145981,0.028217 -0.263166,0.00287 z"
     id="path12" /><path
     style="fill:#ffffff;stroke:#f0e68c;stroke-width:0.0132147;stroke-opacity:0.025"
     d="m 10.516779,10.613812 c -0.0098,-0.04639 -0.01072,-0.09069 -0.0019,-0.09843 0.0088,-0.0077 0.613428,-0.05586 1.343703,-0.106924 0.988501,-0.0691 1.333045,-0.0855 1.348416,-0.06416 0.01135,0.01581 0.02084,0.05812 0.02108,0.09413 5.38e-4,0.07835 0.112566,0.06498 -1.432792,0.170669 -0.595068,0.04068 -1.122131,0.07738 -1.171251,0.08151 -0.08162,0.0068 -0.09085,2.58e-4 -0.107197,-0.0768 z"
     id="path13" /><path
     style="fill:#ffffff;stroke:#f0e68c;stroke-width:0.0132147;stroke-opacity:0.025"
     d="m 11.837381,11.552665 c -0.664622,-0.0654 -1.211566,-0.119874 -1.215428,-0.121095 -0.01807,-0.0057 -0.0033,-0.118059 0.01976,-0.1503 0.02242,-0.03134 0.203209,-0.01967 1.335062,0.08627 1.053051,0.09855 1.306259,0.129142 1.294452,0.156353 -0.0081,0.01863 -0.01468,0.06089 -0.01468,0.09394 0,0.07774 0.06251,0.08061 -1.419171,-0.06518 z"
     id="path14" /><path
     style="fill:#ffffff;stroke:#f0e68c;stroke-width:0.0132147;stroke-opacity:0.025"
     d="M 7.1865087,12.06387 C 6.8957193,12.0152 6.7955317,11.899417 6.9363893,11.774825 c 0.052836,-0.04674 0.075866,-0.05002 0.2177947,-0.03107 0.087293,0.01167 0.2851711,0.02096 0.4397353,0.02067 0.2354833,-4.4e-4 0.3001127,-0.0093 0.39883,-0.0557 0.2456603,-0.115078 0.3465598,-0.322682 0.3445825,-0.708991 L 8.3360549,10.745837 8.1283606,10.584275 C 8.0141292,10.495403 7.9064928,10.39367 7.8891699,10.358177 c -0.045093,-0.09239 -0.00657,-0.193582 0.094898,-0.249294 0.079696,-0.04375 0.1341768,-0.04747 0.6029769,-0.04113 l 0.515361,0.007 0.067767,0.06974 c 0.1241985,0.127831 0.097289,0.195823 -0.1748519,0.441803 l -0.2426149,0.219295 0.013167,0.261895 c 0.011443,0.227388 0.024015,0.280658 0.095508,0.4043 0.1569754,0.271488 0.4622183,0.355983 1.0124839,0.280269 0.2174031,-0.02991 0.2391211,-0.02895 0.2912861,0.01275 0.07113,0.05692 0.07261,0.165854 0.003,0.221559 -0.07868,0.06297 -0.4825751,0.120395 -0.7362437,0.104661 -0.300961,-0.01866 -0.5082277,-0.0937 -0.6865588,-0.248534 -0.080619,-0.07 -0.1520118,-0.142972 -0.1586577,-0.162155 -0.00794,-0.02297 -0.073996,0.02057 -0.1933119,0.127454 -0.1382235,0.123825 -0.2212395,0.175517 -0.3498415,0.217867 -0.2136895,0.07035 -0.5700313,0.08623 -0.8570476,0.0382 z"
     id="path15" /><path
     style="fill:#ffffff;stroke:#f0e68c;stroke-width:0.0132147;stroke-opacity:0.025"
     d="m 5.2895213,10.605031 c -0.710991,-0.0504 -1.3217372,-0.09248 -1.357214,-0.09349 -0.058974,-0.0017 -0.062869,-0.0099 -0.045449,-0.09505 0.010477,-0.05126 0.020841,-0.09534 0.02302,-0.09794 0.00987,-0.01186 2.6573935,0.18207 2.6727912,0.195688 0.00955,0.0084 0.013337,0.05295 0.00849,0.0989 l -0.00885,0.08356 z"
     id="path16" /><path
     style="fill:#ffffff;stroke:#f0e68c;stroke-width:0.0132147;stroke-opacity:0.025"
     d="m 3.8422476,11.583682 v -0.09426 l 1.3208132,-0.123861 1.3208123,-0.123879 v 0.09338 c 0,0.0766 -0.011348,0.09559 -0.063233,0.105702 -0.072071,0.01401 -2.4540216,0.237565 -2.5292166,0.237337 -0.038161,-1.24e-4 -0.04918,-0.02127 -0.04918,-0.09442 z"
     id="path17" /><rect
     style="fill:#808080;fill-opacity:0.0222672;stroke:#fbfbfb;stroke-width:0.48576;stroke-dasharray:none;stroke-dashoffset:0.061056;stroke-opacity:0.991903"
     id="rect1"
     width="25.169468"
     height="25.202587"
     x="0.29805946"
     y="0.26494184" /></g></svg>
