<?xml version="1.0" encoding="UTF-8" standalone="no"?>
<!-- Uploaded to: SVG Repo, www.svgrepo.com, Generator: SVG Repo Mixer Tools -->

<svg
   height="40"
   width="40"
   version="1.1"
   id="_x32_"
   viewBox="0 0 25.6 25.6"
   xml:space="preserve"
   xmlns="http://www.w3.org/2000/svg"
   xmlns:svg="http://www.w3.org/2000/svg"><defs
   id="defs7" />
<style
   type="text/css"
   id="style1">
	.st0{fill:#000000;}
</style>

<g
   id="layer1"><path
     style="fill:#ffffff;stroke:#f0e68c;stroke-width:0.00716375;stroke-opacity:0.025"
     d="M 3.5111193,23.077537 C 3.0128055,23.027525 2.5946659,22.654652 2.3867522,22.074895 2.2992276,21.830837 2.2701411,21.647238 2.2704689,21.340897 c 5.295e-4,-0.492236 0.093782,-0.803767 0.3894012,-1.30085 0.1365905,-0.229677 0.3763843,-0.685765 0.5584376,-1.062149 0.1665569,-0.344348 0.4765778,-1.021278 0.4891816,-1.06813 0.00769,-0.02861 -0.00111,-0.03665 -0.074395,-0.06795 C 3.1384425,17.630545 2.6989616,17.232284 2.4760727,16.793315 2.0475949,15.949448 2.1276228,15.070663 2.706561,14.262335 2.8485743,14.064053 3.0657362,13.82716 3.2272189,13.694372 c 0.1168644,-0.0961 0.1289507,-0.111633 0.2356767,-0.30292 0.3498864,-0.627105 0.6485388,-0.940026 0.9382987,-0.983125 0.1663278,-0.02474 0.3631836,0.03839 0.566487,0.181681 0.1377291,0.09707 0.3448402,0.285882 0.4816728,0.439113 l 0.1112519,0.124585 0.2842674,7.58e-4 0.284267,7.57e-4 0.1181884,-0.128008 c 0.23098,-0.250174 0.4924271,-0.465838 0.6620769,-0.546139 0.1251478,-0.05924 0.1898903,-0.07487 0.311049,-0.07511 0.1043463,-2.03e-4 0.1286848,0.0051 0.2226155,0.0484 0.058003,0.02675 0.1470884,0.08377 0.1979673,0.126727 0.1757455,0.148374 0.4085135,0.469103 0.600201,0.827009 0.087822,0.163976 0.1025947,0.183005 0.2146156,0.276443 0.4042589,0.337195 0.7302009,0.793435 0.8946409,1.252281 0.158802,0.44311 0.184451,0.854892 0.08025,1.288343 -0.178393,0.74206 -0.610577,1.259878 -1.3323694,1.596371 -0.098574,0.04595 -0.1810569,0.08507 -0.1832937,0.08693 -0.00227,0.0019 0.080908,0.173957 0.1847665,0.382451 0.2541669,0.510236 0.7045376,1.35279 0.9088476,1.70027 0.156904,0.266855 0.267841,0.484976 0.290617,0.571401 0.0055,0.021 0.01579,0.04149 0.02279,0.04553 0.01934,0.01115 0.123035,-0.191657 0.173952,-0.340235 0.07681,-0.22413 0.09775,-0.354861 0.09745,-0.608407 -3.33e-4,-0.293852 -0.03147,-0.436576 -0.161969,-0.742873 -0.218086,-0.511851 -0.292108,-0.816292 -0.29213,-1.201486 -1.4e-5,-0.24595 0.02848,-0.422638 0.10123,-0.627678 0.149821,-0.42227 0.448869,-0.765603 0.857184,-0.984123 0.14872,-0.07959 0.317613,-0.145754 0.44176,-0.173058 0.288807,-0.06352 0.591664,0.0191 0.80559,0.21976 0.29211,0.273999 0.339848,0.680081 0.117798,1.002053 l -0.06289,0.09119 0.02833,0.05181 c 0.01558,0.02849 0.02338,0.05442 0.01732,0.05762 -0.0061,0.0032 -0.107805,0.03552 -0.226103,0.07184 -0.118297,0.03632 -0.23397,0.07494 -0.257047,0.08582 -0.13555,0.0639 -0.109187,0.350375 0.07108,0.772436 0.15577,0.364695 0.212229,0.546907 0.270061,0.871569 0.03412,0.191546 0.03842,0.77397 0.0072,0.968719 -0.119166,0.742288 -0.441371,1.3951 -0.920324,1.864646 -0.335905,0.329306 -0.71374,0.546674 -1.136385,0.65376 -0.07343,0.0186 -0.174565,0.03984 -0.224752,0.04719 -0.08152,0.01194 -0.09971,0.02102 -0.170586,0.08518 -0.101316,0.09171 -0.2718457,0.197071 -0.3801323,0.234869 -0.231769,0.0809 -0.039448,0.07508 -2.5546707,0.07737 -1.2686426,0.0011 -2.354452,-0.0027 -2.412909,-0.0086 z m 4.7189164,-0.408544 c 0.136624,-0.03321 0.2484248,-0.09681 0.3604884,-0.205102 0.056302,-0.05441 0.1085019,-0.108577 0.1160014,-0.120379 0.00973,-0.01532 0.058174,-0.02606 0.1693885,-0.03754 0.304182,-0.03141 0.556697,-0.117653 0.820025,-0.280061 0.789012,-0.486621 1.290506,-1.544186 1.213073,-2.558162 -0.02855,-0.373756 -0.09119,-0.623024 -0.251575,-1.00093 -0.205287,-0.483712 -0.250008,-0.757179 -0.163669,-1.000793 0.05684,-0.160369 0.183364,-0.278266 0.371468,-0.34613 0.127999,-0.04618 0.208201,-0.111956 0.264369,-0.216823 0.162518,-0.303416 -0.10891,-0.646847 -0.468124,-0.592304 -0.207796,0.03155 -0.492329,0.190215 -0.689431,0.384446 -0.293289,0.289017 -0.428479,0.649948 -0.408611,1.090906 0.01399,0.310424 0.08569,0.580698 0.263071,0.991633 0.156658,0.362922 0.199375,0.582296 0.187707,0.963962 -0.01044,0.341476 -0.07849,0.613995 -0.228002,0.913132 -0.170243,0.340603 -0.474954,0.653216 -0.735445,0.754522 l -0.05506,0.02141 0.0087,-0.08734 C 9.01462,21.241456 8.98919,21.01452 8.94979,20.856085 8.903416,20.669447 8.837033,20.51979 8.6887806,20.267584 8.4692682,19.894152 8.1290372,19.267666 7.8850507,18.787634 7.6042305,18.235133 7.3678356,17.752176 7.3551631,17.70507 c -0.00946,-0.03517 -0.00595,-0.03753 0.099084,-0.06665 0.7743153,-0.214698 1.2697869,-0.635037 1.4950989,-1.268381 0.08451,-0.23754 0.105213,-0.344625 0.114545,-0.592348 0.007,-0.185537 0.0034,-0.248334 -0.0222,-0.387487 C 8.956631,14.927768 8.7106873,14.496529 8.3054162,14.099218 8.237678,14.03281 8.1442065,13.950489 8.0977036,13.916283 8.0306714,13.866977 8.0007207,13.831148 7.9531643,13.743379 7.7508007,13.369897 7.5483512,13.061466 7.4141868,12.922249 7.3273736,12.832168 7.2441887,12.789748 7.1773087,12.801453 7.0497734,12.823773 6.7605214,13.064723 6.4743431,13.387029 L 6.3361082,13.542716 5.844522,13.541896 5.352936,13.541076 5.259975,13.432639 C 4.9048337,13.01837 4.6009314,12.77724 4.4641358,12.801183 4.321125,12.826214 4.078159,13.133954 3.8076909,13.632638 c -0.081298,0.149896 -0.1275044,0.218968 -0.1662691,0.248554 -0.1095924,0.08364 -0.2909499,0.253284 -0.3968739,0.371236 -0.3315994,0.369253 -0.5312758,0.763912 -0.6001437,1.186178 -0.022613,0.138656 -0.00867,0.541874 0.02346,0.678102 0.038572,0.163571 0.1211713,0.382144 0.2015184,0.533256 0.2288727,0.430451 0.6680473,0.765142 1.2449467,0.948762 0.077506,0.02467 0.1427084,0.04601 0.1448951,0.04741 0.01906,0.01228 -0.3116659,0.772921 -0.589573,1.355962 -0.1859239,0.390063 -0.4881518,0.968338 -0.6484695,1.240763 -0.2045287,0.347552 -0.2799484,0.548948 -0.3175229,0.84789 -0.02125,0.169088 -0.00995,0.485746 0.022882,0.640739 0.1056548,0.498866 0.3907193,0.859533 0.7425281,0.939454 0.056532,0.01284 0.6210132,0.01713 2.3739662,0.01803 2.0199853,10e-4 2.3104093,-0.0014 2.3870002,-0.02001 z"
     id="path8" /><path
     style="fill:#ffffff;stroke:#f0e68c;stroke-width:0.00716375;stroke-opacity:0.025"
     d="m 6.9167573,13.789577 c -0.1265947,-0.02475 -0.1914996,-0.04344 -0.1889447,-0.05441 0.00753,-0.03233 0.262019,-0.337039 0.2678548,-0.320706 0.00326,0.0091 0.04471,0.106352 0.092136,0.216132 0.1007031,0.233102 0.1193612,0.21576 -0.1710464,0.158989 z"
     id="path9" /><path
     style="fill:#ffffff;stroke:#f0e68c;stroke-width:0.00716375;stroke-opacity:0.025"
     d="m 3.9489826,13.805968 c 0.05671,-0.144046 0.1662494,-0.390749 0.1735362,-0.390836 0.019402,-2.32e-4 0.2673345,0.321582 0.2553898,0.331492 -0.010837,0.009 -0.390924,0.0836 -0.4257486,0.08357 -0.00699,-6e-6 -0.00842,-0.01091 -0.00318,-0.02423 z"
     id="path10" /><path
     style="fill:#ffffff;stroke:#f0e68c;stroke-width:0.00716375;stroke-opacity:0.025"
     d="M 4.3060448,15.464066 C 4.152859,15.429275 4.0314157,15.290327 4.031706,15.150188 c 2.701e-4,-0.131755 0.1108855,-0.267159 0.2487985,-0.304563 0.1320116,-0.03581 0.2672796,4.78e-4 0.3522614,0.09452 0.059118,0.06541 0.081203,0.123546 0.081203,0.213754 0,0.145364 -0.09291,0.260766 -0.2437382,0.302747 -0.079117,0.02202 -0.096452,0.0228 -0.1641859,0.0074 z"
     id="path11" /><path
     style="fill:#ffffff;stroke:#f0e68c;stroke-width:0.00716375;stroke-opacity:0.025"
     d="m 6.6645856,15.464066 c -0.2251441,-0.05113 -0.336437,-0.266847 -0.2353335,-0.45613 0.1251091,-0.234224 0.4722767,-0.236144 0.6019201,-0.0033 0.1045794,0.187805 -0.00598,0.410108 -0.2276767,0.457797 -0.072804,0.01566 -0.077055,0.01571 -0.1389099,0.0016 z"
     id="path12" /><path
     style="fill:#ffffff;stroke:#f0e68c;stroke-width:0.00716375;stroke-opacity:0.025"
     d="m 6.5905296,16.143881 c -0.00519,-0.02583 -0.00566,-0.05049 -0.00102,-0.0548 0.00462,-0.0043 0.3237924,-0.0311 0.709261,-0.05953 0.5217715,-0.03847 0.7036359,-0.0476 0.7117493,-0.03572 0.00599,0.0088 0.011002,0.03236 0.011127,0.05241 2.844e-4,0.04362 0.059417,0.03618 -0.7562856,0.09502 -0.3141012,0.02265 -0.5923066,0.04308 -0.6182339,0.04538 -0.043083,0.0038 -0.047955,1.44e-4 -0.056583,-0.04276 z"
     id="path13" /><path
     style="fill:#ffffff;stroke:#f0e68c;stroke-width:0.00716375;stroke-opacity:0.025"
     d="M 7.2875971,16.66659 C 6.9367826,16.63018 6.6480832,16.59985 6.6460445,16.59917 c -0.00954,-0.0032 -0.00173,-0.06573 0.010433,-0.08368 0.011833,-0.01745 0.1072617,-0.01095 0.7047,0.04803 0.5558431,0.05487 0.6894965,0.0719 0.6832642,0.08705 -0.00429,0.01037 -0.00775,0.0339 -0.00775,0.0523 0,0.04328 0.032993,0.04488 -0.7490963,-0.03629 z"
     id="path14" /><path
     style="fill:#ffffff;stroke:#f0e68c;stroke-width:0.00716375;stroke-opacity:0.025"
     d="m 4.8326772,16.951205 c -0.1534905,-0.0271 -0.2063736,-0.09156 -0.1320232,-0.160927 0.027889,-0.02602 0.040045,-0.02785 0.1149609,-0.0173 0.046077,0.0065 0.1505249,0.01167 0.2321102,0.01151 0.1242977,-2.45e-4 0.1584117,-0.0052 0.2105187,-0.03101 0.1296695,-0.06407 0.1829284,-0.179654 0.1818847,-0.394733 l -6.74e-4,-0.141359 -0.1096295,-0.08995 c -0.060296,-0.04948 -0.1171109,-0.10612 -0.1262546,-0.125881 -0.023802,-0.05144 -0.00347,-0.107777 0.050091,-0.138795 0.042067,-0.02436 0.070824,-0.02643 0.3182758,-0.0229 l 0.2720285,0.0039 0.03577,0.03883 c 0.065557,0.07117 0.051353,0.109025 -0.092294,0.245975 l -0.128062,0.122093 0.00695,0.145811 c 0.00604,0.126599 0.012676,0.156257 0.050413,0.225095 0.082858,0.151152 0.2439776,0.198195 0.5344302,0.156041 0.1147538,-0.01665 0.1262178,-0.01612 0.1537525,0.0071 0.037547,0.03169 0.038327,0.09234 0.00161,0.123354 -0.041528,0.03506 -0.2547227,0.06703 -0.3886193,0.05827 -0.1588595,-0.01039 -0.2682633,-0.05217 -0.3623937,-0.138372 -0.042554,-0.03897 -0.080238,-0.0796 -0.083746,-0.09028 -0.00419,-0.01279 -0.039058,0.01145 -0.1020379,0.07096 -0.07296,0.06894 -0.1167792,0.09772 -0.1846606,0.121298 -0.112794,0.03917 -0.3008857,0.04801 -0.4523846,0.02127 z"
     id="path15" /><path
     style="fill:#ffffff;stroke:#f0e68c;stroke-width:0.00716375;stroke-opacity:0.025"
     d="m 3.83137,16.138992 c -0.37529,-0.02806 -0.6976667,-0.05149 -0.7163928,-0.05205 -0.031129,-9.46e-4 -0.033185,-0.0055 -0.02399,-0.05292 0.00553,-0.02854 0.011001,-0.05308 0.012151,-0.05453 0.00521,-0.0066 1.4026805,0.101368 1.410808,0.10895 0.00504,0.0047 0.00704,0.02948 0.00448,0.05506 l -0.00467,0.04652 z"
     id="path16" /><path
     style="fill:#ffffff;stroke:#f0e68c;stroke-width:0.00716375;stroke-opacity:0.025"
     d="m 3.06744,16.683859 v -0.05248 l 0.697179,-0.06896 0.6971785,-0.06897 v 0.05199 c 0,0.04265 -0.00599,0.05322 -0.033377,0.05885 -0.038042,0.0078 -1.2953325,0.132265 -1.3350235,0.132138 -0.020143,-6.9e-5 -0.025959,-0.01184 -0.025959,-0.05257 z"
     id="path17" /><rect
     style="fill:#808080;fill-opacity:0.0222672;stroke:#fbfbfb;stroke-width:0.48576;stroke-dasharray:none;stroke-dashoffset:0.061056;stroke-opacity:0.99190301"
     id="rect1"
     width="25.169468"
     height="25.202587"
     x="0.19870634"
     y="0.099353172" /></g></svg>
