<?xml version="1.0" encoding="UTF-8" standalone="no"?>
<!-- Uploaded to: SVG Repo, www.svgrepo.com, Transformed by: SVG Repo Mixer Tools -->

<svg
   width="45"
   height="45"
   viewBox="0 0 90 90"
   aria-hidden="true"
   role="img"
   class="iconify iconify--noto"
   preserveAspectRatio="xMidYMid"
   fill="#f3f1f1"
   stroke="#f3f1f1"
   version="1.1"
   id="svg56"
   sodipodi:docname="body.svg"
   inkscape:version="1.4 (86a8ad7, 2024-10-11)"
   xml:space="preserve"
   xmlns:inkscape="http://www.inkscape.org/namespaces/inkscape"
   xmlns:sodipodi="http://sodipodi.sourceforge.net/DTD/sodipodi-0.dtd"
   xmlns="http://www.w3.org/2000/svg"
   xmlns:svg="http://www.w3.org/2000/svg"><defs
     id="defs56" /><sodipodi:namedview
     id="namedview56"
     pagecolor="#ffffff"
     bordercolor="#111111"
     borderopacity="1"
     inkscape:showpageshadow="0"
     inkscape:pageopacity="0"
     inkscape:pagecheckerboard="1"
     inkscape:deskcolor="#d1d1d1"
     inkscape:zoom="12.078125"
     inkscape:cx="28.853816"
     inkscape:cy="26.701164"
     inkscape:window-width="1920"
     inkscape:window-height="1017"
     inkscape:window-x="-8"
     inkscape:window-y="-8"
     inkscape:window-maximized="1"
     inkscape:current-layer="svg56" /><g
     id="SVGRepo_bgCarrier"
     stroke-width="0" /><g
     id="SVGRepo_tracerCarrier"
     stroke-linecap="round"
     stroke-linejoin="round" /><g
     style="fill:#000000"
     id="g56"
     transform="matrix(0.16403664,0,0,0.17487025,1.610631,0.04010533)"><g
       id="SVGRepo_bgCarrier-0"
       stroke-width="0" /><g
       id="SVGRepo_tracerCarrier-9"
       stroke-linecap="round"
       stroke-linejoin="round" /><g
       id="SVGRepo_iconCarrier"> <g
   id="g8"> <path
   style="fill:#f0c419"
   d="m 370.697,255.881 v 0 h -35.31 V 158.778 H 176.49 v 97.103 h -35.31 v 2.781 c 0,9.446 -0.865,18.873 -2.578,28.16 l -41.56,198.577 79.448,26.483 36.14,-159.011 c 4.679,-20.586 22.978,-35.196 44.085,-35.196 v 0 c 20.392,0 38.259,13.647 43.617,33.315 l 43.882,160.892 79.448,-26.483 -49.293,-195.964 c -2.437,-11.017 -3.672,-22.272 -3.672,-33.554"
   id="path1" /> <path
   style="fill:#ad19b8"
   d="m 375.749,29.273 c -3.363,-3.363 -7.053,-6.374 -11.017,-8.986 v 0 C 357.758,15.635 350.008,12.201 341.824,10.4 279.625,-3.292 232.035,-3.521 170.331,10.047 c -8.501,1.863 -16.516,5.544 -23.702,10.461 -3.628,2.472 -7.009,5.27 -10.108,8.377 l -101.27,94.579 45.409,44.076 60.522,-52.904 v 141.241 h 35.31 v -97.103 h 158.897 v 97.103 h 35.31 V 114.636 l 61.793,52.966 44.138,-44.138 z"
   id="path2" /> <g
   id="g6"> <path
   style="fill:#f29c1f"
   d="m 202.972,185.26 c -4.873,0 -8.828,-3.955 -8.828,-8.828 v -17.655 c 0,-4.873 3.955,-8.828 8.828,-8.828 4.873,0 8.828,3.955 8.828,8.828 v 17.655 c 0,4.874 -3.955,8.828 -8.828,8.828"
   id="path3" /> <path
   style="fill:#f29c1f"
   d="m 308.903,185.26 c -4.873,0 -8.828,-3.955 -8.828,-8.828 v -17.655 c 0,-4.873 3.955,-8.828 8.828,-8.828 4.873,0 8.828,3.955 8.828,8.828 v 17.655 c 0,4.874 -3.955,8.828 -8.828,8.828"
   id="path4" /> <path
   style="fill:#f29c1f"
   d="m 291.248,2.08 v 156.698 h 35.31 V 7.377 C 314.394,5.055 302.653,3.281 291.248,2.08"
   id="path5" /> <path
   style="fill:#f29c1f"
   d="m 185.317,7.091 v 151.684 h 35.31 V 1.901 c -11.422,1.156 -23.154,2.886 -35.31,5.19"
   id="path6" /> </g> <path
   style="fill:#3b97d3"
   d="m 220.628,1.943 v 30.95 c 10.002,7.009 22.166,11.123 35.31,11.123 13.144,0 25.309,-4.122 35.31,-11.123 V 2.137 c -23.922,-2.515 -46.777,-2.586 -70.62,-0.194"
   id="path7" /> <path
   style="fill:#f29c1f"
   d="m 282.421,220.571 h -52.966 c -4.873,0 -8.828,-3.955 -8.828,-8.828 0,-4.873 3.955,-8.828 8.828,-8.828 h 52.966 c 4.873,0 8.828,3.955 8.828,8.828 -0.001,4.873 -3.956,8.828 -8.828,8.828"
   id="path8" /> </g> </g></g></svg>
