<?xml version="1.0" encoding="UTF-8" standalone="no"?>
<!-- Uploaded to: SVG Repo, www.svgrepo.com, Transformed by: SVG Repo Mixer Tools -->

<svg
   width="45"
   height="45"
   viewBox="0 0 90 90"
   aria-hidden="true"
   role="img"
   class="iconify iconify--noto"
   preserveAspectRatio="xMidYMid"
   fill="#f3f1f1"
   stroke="#f3f1f1"
   version="1.1"
   id="svg56"
   sodipodi:docname="controknobs.svg"
   inkscape:version="1.4 (86a8ad7, 2024-10-11)"
   xmlns:inkscape="http://www.inkscape.org/namespaces/inkscape"
   xmlns:sodipodi="http://sodipodi.sourceforge.net/DTD/sodipodi-0.dtd"
   xmlns="http://www.w3.org/2000/svg"
   xmlns:svg="http://www.w3.org/2000/svg">
  <defs
     id="defs56" />
  <sodipodi:namedview
     id="namedview56"
     pagecolor="#ffffff"
     bordercolor="#111111"
     borderopacity="1"
     inkscape:showpageshadow="0"
     inkscape:pageopacity="0"
     inkscape:pagecheckerboard="1"
     inkscape:deskcolor="#d1d1d1"
     inkscape:zoom="12.078125"
     inkscape:cx="28.853816"
     inkscape:cy="26.701164"
     inkscape:window-width="1920"
     inkscape:window-height="1017"
     inkscape:window-x="-8"
     inkscape:window-y="-8"
     inkscape:window-maximized="1"
     inkscape:current-layer="svg56" />
  <g
     id="SVGRepo_bgCarrier"
     stroke-width="0" />
  <g
     id="SVGRepo_tracerCarrier"
     stroke-linecap="round"
     stroke-linejoin="round" />
  <ellipse
     cx="23.594851"
     cy="65.404572"
     fill="#757575"
     opacity="0.7"
     id="circle1"
     rx="13.875269"
     ry="13.771729"
     style="stroke-width:0.734506" />
  <ellipse
     cx="23.594851"
     cy="65.404572"
     fill="#ff6b1a"
     id="circle2"
     rx="11.722464"
     ry="11.634988"
     style="stroke-width:0.734506" />
  <path
     d="m 35.096136,63.143437 c -0.08847,-0.431739 -0.199061,-0.848842 -0.331768,-1.258628 l -9.024085,1.778178 c -0.847852,0.168304 -1.400798,0.987876 -1.231228,1.8294 0.16957,0.841525 0.995304,1.390345 1.843155,1.22204 l 8.950359,-1.763542 c -0.02949,-0.592726 -0.0811,-1.200087 -0.206433,-1.807448 z"
     fill="#ffffff"
     id="path2"
     style="stroke-width:0.734506" />
  <g
     opacity="0.7"
     fill="#212121"
     id="g13"
     transform="matrix(0.73726189,0,0,0.73176027,-2.0618633,-1.5441711)">
    <circle
       cx="18.209999"
       cy="107.73"
       r="1.76"
       id="circle3" />
    <circle
       cx="12.43"
       cy="98.25"
       r="1.76"
       id="circle4" />
    <circle
       cx="11.61"
       cy="87.540001"
       r="1.76"
       id="circle5" />
    <circle
       cx="15.73"
       cy="77.440002"
       r="1.76"
       id="circle6" />
    <circle
       cx="24.299999"
       cy="70.129997"
       r="1.76"
       id="circle7" />
    <circle
       cx="34.799999"
       cy="67.660004"
       r="1.76"
       id="circle8" />
    <circle
       cx="45.310001"
       cy="70.129997"
       r="1.76"
       id="circle9" />
    <circle
       cx="53.869999"
       cy="77.440002"
       r="1.76"
       id="circle10" />
    <circle
       cx="58"
       cy="87.540001"
       r="1.76"
       id="circle11" />
    <circle
       cx="57.169998"
       cy="98.25"
       r="1.76"
       id="circle12" />
    <circle
       cx="51.400002"
       cy="107.73"
       r="1.76"
       id="circle13" />
  </g>
  <g
     id="g14"
     transform="matrix(0.73726189,0,0,0.73176027,-2.0618633,-1.5441711)">
    <path
       d="m 22.42,89.25 c 1.05,-4.51 4.39,-8.47 8.68,-10.22 0.56,-0.23 1.43,-0.2 1.69,0.5 0.31,0.84 0.16,1.41 -0.79,1.95 -2.81,1.61 -5.11,5.07 -5.96,8.6 a 1.855,1.855 0 0 1 -2.33,1.34 C 22.79,91.13 22.2,90.19 22.42,89.25 Z"
       fill="#1fe605"
       id="path13" />
  </g>
  <g
     id="g28"
     transform="matrix(0.73726189,0,0,0.73176027,-2.0618633,-1.5441711)">
    <circle
       cx="34.799999"
       cy="37.23"
       r="18.82"
       fill="#757575"
       opacity="0.7"
       id="circle14" />
    <circle
       cx="34.799999"
       cy="37.23"
       r="15.9"
       fill="#ff6b1a"
       id="circle15" />
    <path
       d="m 46.52,26.48 c -0.41,-0.44 -0.84,-0.85 -1.28,-1.24 l -9.19,8.45 c -0.87,0.8 -0.92,2.14 -0.13,3.01 0.8,0.87 2.14,0.92 3.01,0.13 l 9.12,-8.37 C 47.59,27.77 47.09,27.1 46.52,26.48 Z"
       fill="#ffffff"
       id="path15" />
    <g
       opacity="0.7"
       fill="#212121"
       id="g26">
      <circle
         cx="18.209999"
         cy="53.470001"
         r="1.76"
         id="circle16" />
      <circle
         cx="12.43"
         cy="43.990002"
         r="1.76"
         id="circle17" />
      <circle
         cx="11.61"
         cy="33.279999"
         r="1.76"
         id="circle18" />
      <circle
         cx="15.73"
         cy="23.18"
         r="1.76"
         id="circle19" />
      <circle
         cx="24.299999"
         cy="15.87"
         r="1.76"
         id="circle20" />
      <circle
         cx="34.799999"
         cy="13.4"
         r="1.76"
         id="circle21" />
      <circle
         cx="45.310001"
         cy="15.87"
         r="1.76"
         id="circle22" />
      <circle
         cx="53.869999"
         cy="23.18"
         r="1.76"
         id="circle23" />
      <circle
         cx="58"
         cy="33.279999"
         r="1.76"
         id="circle24" />
      <circle
         cx="57.169998"
         cy="43.990002"
         r="1.76"
         id="circle25" />
      <circle
         cx="51.400002"
         cy="53.470001"
         r="1.76"
         id="circle26" />
    </g>
    <g
       id="g27">
      <path
         d="m 22.42,34.96 c 1.05,-4.51 4.39,-8.47 8.68,-10.22 0.56,-0.23 1.43,-0.2 1.69,0.5 0.31,0.84 0.16,1.41 -0.79,1.95 -2.81,1.61 -5.11,5.07 -5.96,8.6 a 1.855,1.855 0 0 1 -2.33,1.34 C 22.79,36.85 22.2,35.9 22.42,34.96 Z"
         fill="#1fe605"
         id="path26" />
    </g>
  </g>
  <g
     id="g42"
     transform="matrix(0.73726189,0,0,0.73176027,-2.0618633,-1.5441711)">
    <circle
       cx="93.199997"
       cy="91.489998"
       r="18.82"
       fill="#757575"
       opacity="0.7"
       id="circle28" />
    <circle
       cx="93.199997"
       cy="91.489998"
       r="15.9"
       fill="#ff6b1a"
       id="circle29" />
    <path
       d="m 105.99,82.05 c -0.36,-0.48 -0.74,-0.94 -1.14,-1.37 L 94.81,88.1 c -0.95,0.7 -1.15,2.03 -0.45,2.98 0.7,0.95 2.03,1.15 2.98,0.45 l 9.95,-7.35 c -0.37,-0.74 -0.8,-1.45 -1.3,-2.13 z"
       fill="#ffffff"
       id="path29" />
    <g
       opacity="0.7"
       fill="#212121"
       id="g40">
      <circle
         cx="76.599998"
         cy="107.73"
         r="1.76"
         id="circle30" />
      <circle
         cx="70.830002"
         cy="98.25"
         r="1.76"
         id="circle31" />
      <circle
         cx="70"
         cy="87.540001"
         r="1.76"
         id="circle32" />
      <circle
         cx="74.129997"
         cy="77.440002"
         r="1.76"
         id="circle33" />
      <circle
         cx="82.690002"
         cy="70.129997"
         r="1.76"
         id="circle34" />
      <circle
         cx="93.199997"
         cy="67.660004"
         r="1.76"
         id="circle35" />
      <circle
         cx="103.7"
         cy="70.129997"
         r="1.76"
         id="circle36" />
      <circle
         cx="112.27"
         cy="77.440002"
         r="1.76"
         id="circle37" />
      <circle
         cx="116.39"
         cy="87.540001"
         r="1.76"
         id="circle38" />
      <circle
         cx="115.57"
         cy="98.25"
         r="1.76"
         id="circle39" />
      <circle
         cx="109.79"
         cy="107.73"
         r="1.76"
         id="circle40" />
    </g>
    <g
       id="g41">
      <path
         d="m 80.7,89.25 c 1.05,-4.51 4.39,-8.47 8.68,-10.22 0.56,-0.23 1.43,-0.2 1.69,0.5 0.31,0.84 0.16,1.41 -0.79,1.95 -2.81,1.61 -5.11,5.07 -5.96,8.6 a 1.855,1.855 0 0 1 -2.33,1.34 C 81.07,91.13 80.48,90.19 80.7,89.25 Z"
         fill="#1fe605"
         id="path40" />
    </g>
  </g>
  <g
     id="g56"
     transform="matrix(0.73726189,0,0,0.73176027,-2.0618633,-1.5441711)">
    <circle
       cx="93.199997"
       cy="37.23"
       r="18.82"
       fill="#757575"
       opacity="0.7"
       id="circle42" />
    <circle
       cx="93.199997"
       cy="37.23"
       r="15.9"
       fill="#ff6b1a"
       id="circle43" />
    <path
       d="m 80.53,27.62 c -0.36,0.48 -0.69,0.98 -0.99,1.48 l 9.95,7.54 c 0.94,0.71 2.27,0.53 2.98,-0.41 0.71,-0.94 0.53,-2.27 -0.41,-2.98 L 82.2,25.77 c -0.59,0.57 -1.16,1.18 -1.67,1.85 z"
       fill="#ffffff"
       id="path43" />
    <g
       opacity="0.7"
       fill="#212121"
       id="g54">
      <circle
         cx="76.599998"
         cy="53.470001"
         r="1.76"
         id="circle44" />
      <circle
         cx="70.830002"
         cy="43.990002"
         r="1.76"
         id="circle45" />
      <circle
         cx="70"
         cy="33.279999"
         r="1.76"
         id="circle46" />
      <circle
         cx="74.129997"
         cy="23.18"
         r="1.76"
         id="circle47" />
      <circle
         cx="82.690002"
         cy="15.87"
         r="1.76"
         id="circle48" />
      <circle
         cx="93.199997"
         cy="13.4"
         r="1.76"
         id="circle49" />
      <circle
         cx="103.7"
         cy="15.87"
         r="1.76"
         id="circle50" />
      <circle
         cx="112.27"
         cy="23.18"
         r="1.76"
         id="circle51" />
      <circle
         cx="116.39"
         cy="33.279999"
         r="1.76"
         id="circle52" />
      <circle
         cx="115.57"
         cy="43.990002"
         r="1.76"
         id="circle53" />
      <circle
         cx="109.79"
         cy="53.470001"
         r="1.76"
         id="circle54" />
    </g>
    <g
       id="g55">
      <path
         d="m 82.8,45.35 c -2.02,-3.2 -2.34,-5.34 -2.21,-8.48 0.04,-0.85 0.43,-2.28 1.69,-2.07 1.14,0.19 1.02,1.21 1.11,1.91 0.37,2.7 1.01,4.17 2.55,6.65 0.56,0.9 0.24,2.08 -0.69,2.6 -0.84,0.45 -1.93,0.21 -2.45,-0.61 z"
         fill="#1fe605"
         id="path54" />
    </g>
  </g>
</svg>
