<?xml version="1.0" encoding="UTF-8" standalone="no"?>
<svg
   shape-rendering="geometricPrecision"
   text-rendering="geometricPrecision"
   image-rendering="optimizeQuality"
   fill-rule="evenodd"
   clip-rule="evenodd"
   viewBox="0 0 45 45"
   version="1.1"
   id="svg1"
   sodipodi:docname="events.svg"
   xml:space="preserve"
   width="45"
   height="45"
   inkscape:version="1.4 (86a8ad7, 2024-10-11)"
   xmlns:inkscape="http://www.inkscape.org/namespaces/inkscape"
   xmlns:sodipodi="http://sodipodi.sourceforge.net/DTD/sodipodi-0.dtd"
   xmlns="http://www.w3.org/2000/svg"
   xmlns:svg="http://www.w3.org/2000/svg"><defs
     id="defs1" /><sodipodi:namedview
     id="namedview1"
     pagecolor="#ffffff"
     bordercolor="#111111"
     borderopacity="1"
     inkscape:showpageshadow="0"
     inkscape:pageopacity="0"
     inkscape:pagecheckerboard="1"
     inkscape:deskcolor="#d1d1d1"
     inkscape:zoom="1"
     inkscape:cx="44.5"
     inkscape:cy="31.5"
     inkscape:window-width="1920"
     inkscape:window-height="1017"
     inkscape:window-x="-8"
     inkscape:window-y="-8"
     inkscape:window-maximized="1"
     inkscape:current-layer="svg1" /><g
     style="fill:#ffd700"
     id="g1"
     transform="matrix(0.03213853,0,0,0.02497118,5.9158503,25.289049)"><path
       d="m 370,-80 -16,-128 q -13,-5 -24.5,-12 -11.5,-7 -22.5,-15 l -119,50 -110,-190 103,-78 q -1,-7 -1,-13.5 v -27 q 0,-6.5 1,-13.5 l -103,-78 110,-190 119,50 q 11,-8 23,-15 12,-7 24,-12 l 16,-128 h 220 l 16,128 q 13,5 24.5,12 11.5,7 22.5,15 l 119,-50 110,190 -103,78 q 1,7 1,13.5 v 27 q 0,6.5 -2,13.5 l 103,78 -110,190 -118,-50 q -11,8 -23,15 -12,7 -24,12 l -16,128 z m 70,-80 h 79 l 14,-106 q 31,-8 57.5,-23.5 Q 617,-305 639,-327 l 99,41 39,-68 -86,-65 q 5,-14 7,-29.5 2,-15.5 2,-31.5 0,-16 -2,-31.5 -2,-15.5 -7,-29.5 l 86,-65 -39,-68 -99,42 Q 617,-655 590.5,-670.5 564,-686 533,-694 l -13,-106 h -79 l -14,106 q -31,8 -57.5,23.5 Q 343,-655 321,-633 l -99,-41 -39,68 86,64 q -5,15 -7,30 -2,15 -2,32 0,16 2,31 2,15 7,30 l -86,65 39,68 99,-42 q 22,23 48.5,38.5 26.5,15.5 57.5,23.5 z m 42,-180 q 58,0 99,-41 41,-41 41,-99 0,-58 -41,-99 -41,-41 -99,-41 -59,0 -99.5,41 -40.5,41 -40.5,99 0,58 40.5,99 40.5,41 99.5,41 z m -2,-140 z"
       id="path1"
       style="fill:#ffd700" /></g><rect
     style="fill:#ffffff;fill-opacity:0.979434;stroke:#f0e68c;stroke-width:0.580866;stroke-opacity:0.025"
     id="rect1"
     width="4.6646695"
     height="15.692518"
     x="18.829462"
     y="23.343523" /><rect
     style="fill:#ffffff;fill-opacity:0.979434;stroke:#f0e68c;stroke-width:0.506388;stroke-opacity:0.025"
     id="rect2"
     width="24.323729"
     height="3.028764"
     x="9.2127008"
     y="28.60084" /><rect
     style="fill:#ffffff;fill-opacity:0.979434;stroke:#f0e68c;stroke-width:0.566582;stroke-opacity:0.025"
     id="rect3"
     width="3.6170394"
     height="7.9352126"
     x="29.903126"
     y="30.941807" /><rect
     style="fill:#ffffff;fill-opacity:0.979434;stroke:#f0e68c;stroke-width:0.615455;stroke-opacity:0.025"
     id="rect4"
     width="4.4126616"
     height="9.8759356"
     x="8.6362677"
     y="28.814226" /><ellipse
     style="fill:#ffd700;fill-opacity:0.979434;stroke:#f0e68c;stroke-width:0.566582;stroke-opacity:0.025"
     id="path4"
     cx="31.906528"
     cy="41.687408"
     rx="2.4468207"
     ry="1.9838033" /><ellipse
     style="fill:#ffd700;fill-opacity:0.979434;stroke:#f0e68c;stroke-width:0.566582;stroke-opacity:0.025"
     id="path4-2"
     cx="21.210493"
     cy="42.221878"
     rx="2.4468207"
     ry="1.9838033" /><ellipse
     style="fill:#ffd700;fill-opacity:0.979434;stroke:#f0e68c;stroke-width:0.566582;stroke-opacity:0.025"
     id="path4-5"
     cx="10.375486"
     cy="41.718987"
     rx="2.4468207"
     ry="1.9838033" /></svg>
