<?xml version="1.0" encoding="UTF-8" standalone="no"?>
<!-- Uploaded to: SVG Repo, www.svgrepo.com, Transformed by: SVG Repo Mixer Tools -->

<svg
   fill="#f70202"
   width="100px"
   height="100px"
   viewBox="-51.2 -51.2 614.40 614.40"
   stroke="#f70202"
   transform="rotate(270)"
   version="1.1"
   id="svg1"
   sodipodi:docname="fd.svg"
   xml:space="preserve"
   inkscape:version="1.4 (86a8ad7, 2024-10-11)"
   xmlns:inkscape="http://www.inkscape.org/namespaces/inkscape"
   xmlns:sodipodi="http://sodipodi.sourceforge.net/DTD/sodipodi-0.dtd"
   xmlns:xlink="http://www.w3.org/1999/xlink"
   xmlns="http://www.w3.org/2000/svg"
   xmlns:svg="http://www.w3.org/2000/svg"><defs
     id="defs1"><linearGradient
       id="linearGradient13"
       inkscape:collect="always"><stop
         style="stop-color:#97e5dc;stop-opacity:1;"
         offset="0"
         id="stop14" /><stop
         style="stop-color:#a797e5;stop-opacity:0;"
         offset="1"
         id="stop15" /></linearGradient><linearGradient
       id="swatch9"
       inkscape:swatch="solid"><stop
         style="stop-color:#a797e5;stop-opacity:0.025;"
         offset="0"
         id="stop9" /></linearGradient><linearGradient
       id="swatch7"><stop
         style="stop-color:#fe4d4d;stop-opacity:1;"
         offset="0"
         id="stop7" /></linearGradient><radialGradient
       inkscape:collect="always"
       xlink:href="#linearGradient13"
       id="radialGradient15-1"
       cx="265.216"
       cy="259.07202"
       fx="265.216"
       fy="259.07202"
       r="298.60321"
       gradientUnits="userSpaceOnUse" /><filter
       inkscape:collect="always"
       style="color-interpolation-filters:sRGB"
       id="filter9-2"
       x="-0.012192725"
       y="-0.012192725"
       width="1.0243854"
       height="1.0243854"><feGaussianBlur
         inkscape:collect="always"
         stdDeviation="1.4283253"
         id="feGaussianBlur9-7" /></filter><radialGradient
       inkscape:collect="always"
       xlink:href="#linearGradient13"
       id="radialGradient15-3"
       cx="265.216"
       cy="259.07202"
       fx="265.216"
       fy="259.07202"
       r="298.60321"
       gradientUnits="userSpaceOnUse"
       gradientTransform="matrix(1.1149169,0,0,1.0773758,-23.698913,118.85927)" /><filter
       inkscape:collect="always"
       style="color-interpolation-filters:sRGB"
       id="filter9-1"
       x="-0.012192725"
       y="-0.012192725"
       width="1.0243854"
       height="1.0243854"><feGaussianBlur
         inkscape:collect="always"
         stdDeviation="1.4283253"
         id="feGaussianBlur9-6" /></filter></defs><sodipodi:namedview
     id="namedview1"
     pagecolor="#ffffff"
     bordercolor="#111111"
     borderopacity="1"
     inkscape:showpageshadow="0"
     inkscape:pageopacity="0"
     inkscape:pagecheckerboard="1"
     inkscape:deskcolor="#d1d1d1"
     showgrid="false"
     inkscape:zoom="1"
     inkscape:cx="50.5"
     inkscape:cy="50.5"
     inkscape:window-width="1920"
     inkscape:window-height="1017"
     inkscape:window-x="-8"
     inkscape:window-y="-8"
     inkscape:window-maximized="1"
     inkscape:current-layer="layer3" /><g
     inkscape:groupmode="layer"
     id="layer1"
     inkscape:label="Layer 1"><circle
       style="fill:#c0c0c0;fill-opacity:1;stroke:url(#radialGradient15-1);stroke-width:7.36051;stroke-dasharray:none;stroke-opacity:0.025;filter:url(#filter9-2)"
       id="path8-1"
       cx="259.69119"
       cy="253.54724"
       r="291.49496" /></g><g
     inkscape:groupmode="layer"
     id="layer2"
     inkscape:label="Layer 2"><path
       id="path5"
       style="fill:#ffffff;fill-opacity:1;stroke:#f0e68c;stroke-width:0.397412;stroke-opacity:0.025"
       d="m 281.1323,212.47076 c -0.07,0.70408 -0.1201,10.74557 -0.12,27.576 1e-4,24.48062 0.1048,34.37663 0.228,21.996 0.1233,-12.38064 0.1234,-32.40802 0,-44.508 -0.039,-3.78125 -0.076,-5.38404 -0.108,-5.064 z" /><path
       style="fill:#ffffff;fill-opacity:1;stroke:#f0e68c;stroke-width:0.281013;stroke-opacity:0.025"
       d="m 235.0396,289.8039 c -0.045,-75.47427 0.1324,-129.22155 0.4266,-129.40335 0.2767,-0.17105 0.6561,0.0877 0.843,0.57483 0.187,0.48716 0.3399,57.63191 0.3399,126.98829 0,92.9 0.168,126.47129 0.6381,127.50311 0.3511,0.77033 0.9912,1.53606 1.4227,1.70163 0.4315,0.16559 10.0668,0.32398 21.4119,0.35199 20.5523,0.051 20.631,0.0467 21.6204,-1.17542 0.9427,-1.16413 0.9943,-7.67469 1.0184,-128.32255 0.02,-97.84078 0.1813,-127.46091 0.7025,-128.68057 0.5307,-1.2415 0.665,26.3714 0.6206,127.60077 -0.043,98.36356 -0.2155,129.48187 -0.7223,130.4289 l -0.6657,1.24378 h -22.7104 c -22.4468,0 -22.7201,-0.0135 -23.5386,-1.18238 l -0.8282,-1.18239 -0.2512,1.3229 c -0.1382,0.72758 -0.2857,-56.76869 -0.3277,-127.76951 z"
       id="path6" /><path
       style="fill:#ffffff;fill-opacity:1;stroke:#f0e68c;stroke-width:0.281013;stroke-opacity:0.025"
       d="m 240.59,418.19629 c -1.6965,-0.11606 -3.4884,-0.57656 -3.982,-1.02329 -0.8121,-0.73498 -0.9244,-9.00096 -1.1802,-86.93956 -0.1555,-47.37005 -0.1215,-104.9693 0.076,-127.99832 0.1971,-23.02904 0.4441,-35.29526 0.5488,-27.25828 0.1048,8.03697 0.3452,65.47246 0.5341,127.63442 0.2877,94.5968 0.4694,113.17321 1.1151,113.95085 0.6924,0.83411 2.9411,0.92912 21.9907,0.92912 19.05,0 21.2982,-0.095 21.9907,-0.92915 0.6463,-0.77855 0.8293,-21.23614 1.1286,-126.20438 0.1965,-68.90136 0.5278,-125.44564 0.7361,-125.65394 0.5546,-0.55462 0.094,251.7663 -0.4621,252.92797 -0.4362,0.91175 -1.8918,0.97596 -19.9408,0.87958 -10.7087,-0.0571 -20.8583,-0.19894 -22.5548,-0.315 z"
       id="path7" /></g><g
     inkscape:groupmode="layer"
     id="layer3"
     inkscape:label="Layer 3"><circle
       style="fill:#ff0000;fill-opacity:1;stroke:url(#radialGradient15-3);stroke-width:7.36051;stroke-dasharray:none;stroke-opacity:0.025;filter:url(#filter9-1)"
       id="path8-5"
       cx="265.83517"
       cy="388.71521"
       r="291.49496"
       transform="matrix(0.89692785,0,0,0.92818121,21.25621,-110.32294)" /><path
       style="fill:#ffffff;fill-opacity:1;stroke:#f0e68c;stroke-width:0.397412;stroke-opacity:0.025"
       d="M 238.5139,287.77863 V 160.25011 l -1.9871,-2.14408 c -1.0929,-1.17924 -1.9871,-2.44952 -1.9871,-2.82283 0,-0.37331 -1.2853,-0.67877 -2.8563,-0.67877 -2.1878,0 -2.9535,0.37202 -3.272,1.58965 -0.23,0.87981 -1.0841,1.58965 -1.9126,1.58965 -1.0804,0 -1.5231,0.60826 -1.591,2.18577 l -0.094,2.18577 -0.502,-2.32834 c -0.4783,-2.21776 -0.5682,-2.26225 -1.8931,-0.93676 -0.765,0.76537 -1.3909,1.90254 -1.3909,2.52705 0,0.62451 -0.5012,1.13547 -1.1137,1.13547 -1.0523,0 -3.1293,2.74663 -6.2132,8.2164 -0.7511,1.33224 -1.9135,2.72887 -2.5832,3.10362 -0.6696,0.37472 -1.2175,1.37892 -1.2175,2.2315 0,0.85259 -0.3321,1.55016 -0.738,1.55016 -1.378,0 -3.2361,2.49015 -3.2361,4.3369 0,1.08439 -0.8153,2.37307 -1.9871,3.14084 -1.0928,0.71609 -1.987,1.80614 -1.987,2.42234 0,0.61618 -0.7154,1.34739 -1.5897,1.62488 -0.8743,0.27753 -1.5896,0.94746 -1.5896,1.4888 0,0.54135 -0.8942,2.19624 -1.9871,3.67757 -1.0929,1.48132 -1.9871,3.33916 -1.9871,4.12855 0,0.78938 -0.5273,1.43523 -1.1718,1.43523 -0.6445,0 -1.7043,1.02967 -2.3551,2.28816 -0.6508,1.25848 -1.7132,2.49153 -2.361,2.74011 -0.6478,0.24858 -1.41,1.68969 -1.6938,3.20246 -0.3307,1.76291 -1.0599,2.89275 -2.0309,3.14667 -0.8332,0.21786 -1.5149,0.92501 -1.5149,1.57139 0,0.64639 -0.8942,1.76113 -1.9871,2.47721 -1.0929,0.71609 -1.987,1.67527 -1.987,2.1315 0,0.45626 -0.8942,2.00187 -1.9871,3.43472 -1.0929,1.43284 -1.9871,3.17324 -1.9871,3.86753 0,0.69431 -0.7153,1.4894 -1.5896,1.76689 -0.8743,0.27753 -1.5897,1.01931 -1.5897,1.64848 0,0.62916 -0.8765,1.90609 -1.9479,2.83761 -1.0713,0.93154 -2.1648,2.68116 -2.4299,3.88805 -0.2728,1.24232 -1.1519,2.36955 -2.0262,2.59818 -0.8754,0.22893 -1.5442,1.08775 -1.5442,1.98285 0,0.86847 -0.5266,1.78111 -1.1703,2.0281 -0.6436,0.24699 -1.8061,1.64938 -2.5832,3.11641 -2.5,4.71971 -5.1266,8.52698 -5.8826,8.52698 -0.4048,0 -1.076,0.89418 -1.4915,1.98706 -0.4155,1.09289 -1.1402,1.98706 -1.6105,1.98706 -0.4703,0 -1.3727,1.23895 -2.0054,2.75322 -0.6327,1.51428 -1.8663,3.13638 -2.7414,3.60468 -0.875,0.4683 -1.6018,1.4648 -1.6151,2.21444 -0.023,1.26999 -0.079,1.26807 -0.8343,-0.0283 -0.4456,-0.76502 -1.5455,-1.39094 -2.4443,-1.39094 -0.8988,0 -2.6968,-0.89418 -3.9956,-1.98706 -1.2988,-1.09289 -3.1728,-1.98707 -4.1644,-1.98707 -0.9916,0 -2.4319,-0.69507 -3.2007,-1.5446 -0.7688,-0.84953 -2.4702,-1.78012 -3.7809,-2.06799 -1.3106,-0.28784 -3.0619,-1.20232 -3.8917,-2.03211 -0.8298,-0.8298 -2.1718,-1.50872 -2.9823,-1.50872 -0.8104,0 -2.4384,-0.89418 -3.6176,-1.98707 -1.1793,-1.09289 -3.0073,-1.98706 -4.0623,-1.98706 -1.1025,0 -2.2786,-0.67367 -2.766,-1.58427 -0.5316,-0.99341 -2.0243,-1.77239 -4.0021,-2.08865 -2.913,-0.46584 -3.1542,-0.69874 -3.1542,-3.04613 0,-1.68353 0.6709,-3.17208 1.9871,-4.40851 1.0929,-1.02671 1.987,-2.33266 1.987,-2.90211 0,-0.56949 0.8942,-1.62125 1.9871,-2.33734 1.0929,-0.71609 1.9871,-1.66691 1.9871,-2.11295 0,-0.44606 0.8047,-1.63745 1.7883,-2.64758 4.7584,-4.88676 5.3651,-5.61804 5.3651,-6.46704 0,-0.50159 0.7153,-1.13905 1.5896,-1.41655 0.8743,-0.27753 1.5897,-0.8803 1.5897,-1.33957 0,-0.45927 1.073,-2.05715 2.3845,-3.55082 1.3114,-1.49367 2.3844,-3.06701 2.3844,-3.4963 0,-0.42928 1.6096,-2.32274 3.5768,-4.20764 1.9671,-1.8849 3.5767,-3.65098 3.5767,-3.92463 0,-0.27365 0.8047,-1.36342 1.7883,-2.42173 4.5459,-4.89124 6.1599,-7.00547 6.1599,-8.06914 0,-0.63279 0.7154,-1.53338 1.5897,-2.00129 0.8743,-0.46793 1.5896,-1.55351 1.5896,-2.41244 0,-1.05509 0.5398,-1.56169 1.6641,-1.56169 0.9824,0 1.8304,-0.63603 2.0701,-1.55264 0.2233,-0.85395 1.2628,-2.11404 2.31,-2.80021 1.0473,-0.68617 1.9041,-1.6898 1.9041,-2.2303 0,-0.54049 0.7153,-1.42946 1.5896,-1.97547 0.8743,-0.54602 1.5897,-1.52005 1.5897,-2.16452 0,-1.13353 2.8283,-4.73815 5.835,-7.43661 0.805,-0.72242 1.7797,-2.11823 2.1661,-3.10183 0.3864,-0.9836 1.2412,-1.78836 1.8994,-1.78836 0.6582,0 1.4212,-0.89417 1.6955,-1.98706 0.2742,-1.09289 1.0076,-1.98707 1.6297,-1.98707 0.6221,0 1.359,-0.62592 1.6376,-1.39094 0.5305,-1.45656 3.8196,-5.77448 6.5724,-8.62801 0.8878,-0.92032 1.6142,-2.23749 1.6142,-2.92704 0,-0.68956 0.6971,-1.47497 1.549,-1.74537 0.852,-0.27039 1.7644,-1.17038 2.0277,-1.99997 0.2634,-0.82958 1.1758,-1.72957 2.0277,-1.99997 0.852,-0.27039 1.549,-0.90203 1.549,-1.40364 0,-0.5016 0.7235,-1.63994 1.6076,-2.52962 3.1779,-3.1977 6.3407,-7.82557 6.3407,-9.27774 0,-0.8142 0.5453,-1.48036 1.2119,-1.48036 0.6666,0 1.5519,-0.89418 1.9674,-1.98706 0.4155,-1.09289 1.3097,-1.98706 1.9871,-1.98706 0.6773,0 1.5715,-0.89418 1.987,-1.98707 0.4155,-1.09288 1.2768,-1.98706 1.9139,-1.98706 0.637,0 1.4095,-0.80476 1.7166,-1.78836 0.307,-0.98359 1.4041,-2.64189 2.438,-3.6851 1.0339,-1.0432 1.8798,-2.37255 1.8798,-2.9541 0,-0.58153 1.2906,-2.28238 2.868,-3.77963 1.5774,-1.49725 3.2763,-3.13628 3.7754,-3.64227 0.4991,-0.50602 1.7122,-1.68225 2.6958,-2.61392 0.9836,-0.93166 1.7883,-2.03887 1.7883,-2.46047 0,-0.4216 0.7433,-1.51954 1.6518,-2.43985 2.7112,-2.74662 6.2965,-7.78211 6.2965,-8.84332 0,-0.5446 0.7153,-1.17731 1.5896,-1.40594 0.9135,-0.23888 1.5897,-1.08416 1.5897,-1.98707 0,-0.90159 0.6759,-1.7481 1.5856,-1.98601 0.8721,-0.22807 1.8183,-1.02084 2.1026,-1.76172 0.2843,-0.74088 1.2697,-2.1602 2.1898,-3.15404 1.6301,-1.7608 3.2742,-3.76889 7.2697,-8.87918 1.0747,-1.37456 1.954,-2.90352 1.954,-3.39768 0,-0.49416 0.8942,-1.23842 1.987,-1.65394 1.1614,-0.44151 1.9871,-1.38572 1.9871,-2.2721 0,-0.86626 0.707,-1.7015 1.6486,-1.94775 0.9068,-0.2371 1.8427,-1.17302 2.0798,-2.07977 0.2371,-0.90675 0.9371,-1.64864 1.5556,-1.64864 0.6185,0 1.3445,-0.62592 1.6135,-1.39094 0.5864,-1.66814 4.2623,-5.76249 5.1736,-5.76249 0.3554,0 0.6461,0.58491 0.6461,1.29981 0,0.71489 0.8048,2.10094 1.7884,3.08011 0.9836,0.97918 2.6825,3.10633 3.7754,4.72703 1.0929,1.62069 2.9706,4.00252 4.1728,5.29296 1.2022,1.29043 2.1858,2.66748 2.1858,3.0601 0,0.3926 0.7153,0.9409 1.5896,1.21839 0.8743,0.27747 1.5897,1.00869 1.5897,1.6249 0,0.61619 0.8942,1.70623 1.987,2.42232 1.0929,0.71609 1.9871,1.78476 1.9871,2.37484 0,0.59007 0.7154,1.45569 1.5897,1.92361 0.8743,0.46793 1.5896,1.39093 1.5896,2.05116 0,0.66022 0.8858,2.08622 1.9685,3.1689 1.0827,1.08267 2.3471,2.67593 2.8099,3.54058 0.4627,0.86465 1.3265,1.57209 1.9194,1.57209 0.593,0 1.3026,0.89418 1.5769,1.98706 0.2742,1.09289 1.0372,1.98707 1.6954,1.98707 0.6583,0 1.5182,0.84539 1.9111,1.87866 0.3928,1.03326 1.2781,2.09505 1.9674,2.35953 0.6892,0.2645 1.2531,1.11416 1.2531,1.88818 0,0.77402 0.8676,2.30535 1.9279,3.40295 4.2608,4.41041 5.8131,6.2702 6.3063,7.55552 0.2843,0.74088 1.2304,1.53365 2.1025,1.76172 0.9098,0.23789 1.5857,1.08442 1.5857,1.98601 0,0.87974 0.67,1.74658 1.5223,1.96946 0.8373,0.21897 1.7383,1.25848 2.0022,2.31006 0.264,1.05158 0.8235,1.91197 1.2434,1.91197 0.42,0 1.4934,1.43069 2.3855,3.1793 0.8921,1.74861 1.9812,3.1793 2.4203,3.1793 0.4391,0 1.1383,0.89418 1.5538,1.98707 0.4155,1.09288 1.3121,1.98706 1.9924,1.98706 0.6802,0 1.4672,0.62592 1.7488,1.39094 0.4814,1.30798 1.1725,2.14021 5.598,6.74107 0.9836,1.02257 1.7884,2.23137 1.7884,2.68624 0,0.4549 0.8942,1.66706 1.9871,2.69378 1.0928,1.02671 1.987,2.27641 1.987,2.7771 0,0.50068 0.8048,1.66606 1.7884,2.5897 0.9836,0.92364 3.0371,3.13417 4.5634,4.91228 1.5263,1.77813 3.2253,3.23295 3.7754,3.23295 0.5502,0 1.0004,0.48427 1.0004,1.07618 0,0.59191 0.8941,2.04101 1.987,3.22025 1.0929,1.17924 1.9871,2.65391 1.9871,3.27704 0,0.62313 0.8942,1.71885 1.9871,2.43494 1.0928,0.71608 1.987,1.77706 1.987,2.35773 0,0.58067 0.6586,1.52312 1.4635,2.09436 0.805,0.5712 1.8906,1.84336 2.4125,2.82695 0.5219,0.9836 1.4728,1.78836 2.1132,1.78836 0.6403,0 1.1642,0.4345 1.1642,0.96558 0,0.53108 0.7235,1.6935 1.6076,2.58318 2.8052,2.82273 6.3407,7.75866 6.3407,8.85235 0,0.58024 0.7153,1.43783 1.5897,1.90574 0.8743,0.46793 1.5896,1.38354 1.5896,2.0347 0,0.65118 0.8942,1.52392 1.9871,1.93943 1.0929,0.41552 1.987,1.2597 1.987,1.87598 0,0.61628 0.8942,1.70639 1.9871,2.42247 1.0929,0.71609 1.9871,1.80613 1.9871,2.42233 0,0.61619 0.6797,1.3361 1.5106,1.59981 0.8308,0.2637 1.7148,1.29298 1.9644,2.2873 0.5057,2.01489 2.3422,4.38203 7.6954,9.91887 1.9907,2.05907 3.8573,4.3633 4.1479,5.12053 0.2905,0.75722 1.076,1.37677 1.7455,1.37677 0.6694,0 1.2171,0.53889 1.2171,1.19749 0,0.65863 0.8653,1.94986 1.9229,2.86941 1.0576,0.91955 2.1348,2.51638 2.3939,3.54852 0.259,1.03213 1.1821,2.25718 2.0512,2.72234 0.8692,0.46516 1.5803,1.37731 1.5803,2.02704 0,0.64972 0.8942,1.58873 1.9871,2.08668 1.0928,0.49797 1.987,1.28246 1.987,1.74337 0,0.46092 0.6984,1.56591 1.552,2.4556 4.0845,4.25703 4.8066,5.33594 4.8066,7.18138 0,1.72049 -0.3539,1.98706 -2.6385,1.98706 -1.8239,0 -3.1721,0.61354 -4.3663,1.98706 -1.1183,1.2861 -2.5609,1.98707 -4.0895,1.98707 -1.4997,0 -2.6543,0.5465 -3.163,1.49715 -0.4407,0.82343 -2.0709,1.73533 -3.6226,2.02643 -1.5517,0.2911 -3.2569,1.2269 -3.7894,2.07957 -0.6077,0.97308 -1.8587,1.55481 -3.3602,1.56245 -2.7597,0.0141 -3.898,0.63826 -4.5901,2.51725 -0.2941,0.79848 -1.5516,1.43889 -3.1213,1.58965 -1.8179,0.17462 -2.8708,0.80411 -3.4134,2.04082 -0.6092,1.38862 -1.4386,1.78836 -3.7104,1.78836 -1.6092,0 -3.4866,0.21522 -4.172,0.47825 -0.8421,0.32317 -1.4878,-0.15711 -1.9911,-1.48101 -0.4097,-1.07757 -1.4877,-2.15345 -2.3955,-2.39087 -1.0177,-0.2661 -1.6507,-1.0793 -1.6507,-2.12066 0,-0.92895 -0.558,-1.90313 -1.24,-2.16485 -0.682,-0.26173 -1.7828,-1.83241 -2.4462,-3.49042 -0.6635,-1.65803 -1.715,-3.2098 -2.3367,-3.4484 -0.6218,-0.23857 -1.1305,-1.19385 -1.1305,-2.1228 0,-0.94492 -0.6174,-1.85046 -1.4014,-2.05548 -1.3763,-0.35991 -3.1869,-2.78824 -5.957,-7.98902 -0.7685,-1.44278 -1.7707,-2.62325 -2.2271,-2.62325 -0.4564,0 -1.204,-1.07301 -1.6612,-2.38447 -0.4571,-1.31147 -1.305,-2.38448 -1.884,-2.38448 -0.5791,0 -1.4566,-1.22324 -1.95,-2.71831 -0.4934,-1.49507 -1.4526,-3.17931 -2.1315,-3.74276 -0.6789,-0.56346 -1.5459,-1.8439 -1.9267,-2.84546 -0.3808,-1.00157 -1.2378,-1.82103 -1.9043,-1.82103 -0.6665,0 -1.2119,-0.55277 -1.2119,-1.22836 0,-0.6756 -0.8905,-2.1189 -1.979,-3.20732 -1.0884,-1.08842 -2.2025,-2.86996 -2.4759,-3.95897 -0.2733,-1.089 -1.1711,-2.34083 -1.9951,-2.78183 -0.8241,-0.44102 -1.4983,-1.31316 -1.4983,-1.93813 0,-0.62497 -0.6862,-1.50359 -1.525,-1.95249 -0.8388,-0.44888 -1.7613,-1.89173 -2.05,-3.20628 -0.2887,-1.31456 -1.1461,-2.83763 -1.9053,-3.38462 -0.7592,-0.547 -1.6269,-1.6544 -1.9282,-2.46092 -0.3013,-0.80653 -1.2613,-1.653 -2.1334,-1.88106 -0.873,-0.22831 -1.5856,-1.08437 -1.5856,-1.90487 0,-0.81962 -0.7245,-1.94033 -1.61,-2.49048 -0.8855,-0.55013 -1.9723,-2.34153 -2.4151,-3.98086 -0.4428,-1.63933 -1.2929,-2.9806 -1.889,-2.9806 -0.5961,0 -1.4579,-1.07301 -1.9151,-2.38447 -0.4572,-1.31146 -1.3145,-2.38448 -1.9051,-2.38448 -0.5906,0 -1.5266,-1.25185 -2.0799,-2.78189 -0.5532,-1.53003 -1.3055,-2.78189 -1.6715,-2.78189 -0.3662,0 -1.0507,-1.1045 -1.5213,-2.45445 -0.4706,-1.34995 -1.5786,-2.64352 -2.4622,-2.87459 -0.9288,-0.24287 -1.6066,-1.08306 -1.6066,-1.9915 0,-0.90291 -0.6763,-1.7482 -1.5897,-1.98706 -0.9037,-0.23636 -1.5896,-1.08416 -1.5896,-1.9649 0,-3.56775 -3.8816,-6.6764 -4.0369,-3.23306 -0.05,1.10793 -0.1551,1.14837 -0.5166,0.1987 -0.2496,-0.65573 -0.8473,-1.48772 -1.3282,-1.84886 -0.619,-0.46486 -0.5745,-0.77763 0.1524,-1.07084 0.7884,-0.31807 0.8119,-0.67297 0.1014,-1.52913 -1.1398,-1.37335 -3.4504,-1.43078 -5.7506,-0.14291 -1.6672,0.93341 -1.6256,0.99241 1.0457,1.48502 l 2.7819,0.51296 -2.9806,0.10464 c -2.7882,0.0979 -2.9873,0.27138 -3.0852,2.68781 l -0.1046,2.58318 -0.4915,-2.62417 c -0.4615,-2.46418 -0.5884,-2.55269 -2.0811,-1.4518 -1.835,1.3533 -1.638,-15.2554 -1.8561,156.48373 l -0.131,103.1286 H 259.5768 238.514 Z m -4.9637,-134.96256 c -0.4903,-1.48871 -3.3785,-1.63944 -4.5424,-0.23709 -0.8907,1.07326 -0.6447,1.2306 1.9241,1.2306 2.001,0 2.8406,-0.31857 2.6183,-0.99354 z"
       id="path4" /></g></svg>
