<!DOCTYPE svg PUBLIC "-//W3C//DTD SVG 1.1//EN" "http://www.w3.org/Graphics/SVG/1.1/DTD/svg11.dtd">
<!-- Uploaded to: SVG Repo, www.svgrepo.com, Transformed by: SVG Repo Mixer Tools -->
<svg fill="#f6f4f4" width="64px" height="64px" viewBox="0 0 512 512" xmlns="http://www.w3.org/2000/svg" transform="rotate(90)" stroke="#f6f4f4">
<g id="SVGRepo_bgCarrier" stroke-width="0"/>
<g id="SVGRepo_tracerCarrier" stroke-linecap="round" stroke-linejoin="round" stroke="#CCCCCC" stroke-width="18.432">
<title>ionicons-v5-a</title>
<path d="M464,256c0-114.87-93.13-208-208-208S48,141.13,48,256s93.13,208,208,208S464,370.87,464,256ZM240,336.09,303.58,272H154V240H303.58L240,175.91l22.71-22.54L364.54,256,262.7,358.63Z"/>
</g>
<g id="SVGRepo_iconCarrier">
<title>ionicons-v5-a</title>
<path d="M464,256c0-114.87-93.13-208-208-208S48,141.13,48,256s93.13,208,208,208S464,370.87,464,256ZM240,336.09,303.58,272H154V240H303.58L240,175.91l22.71-22.54L364.54,256,262.7,358.63Z"/>
</g>
</svg>