<svg xmlns="http://www.w3.org/2000/svg" xmlns:v="https://svgstorm.com"
viewBox = "0 0 100 116"
width="100"
height="116">
<g fill="#000000" fill-opacity="0.00" stroke="None">
<path d="
M 0.00 116.00 
L 60.00 116.00
C 61.15 112.81 71.84 112.68 73.00 116.00
L 74.00 116.00
C 73.81 112.97 82.18 112.77 82.00 116.00
L 83.00 116.00
C 82.54 110.28 83.61 100.29 83.00 95.00 C 82.39 89.71 85.09 78.08 81.00 78.00
C 76.99 79.47 74.49 80.78 70.00 81.00
C 67.47 81.41 65.45 81.35 63.00 81.00
C 60.29 80.91 58.46 80.57 56.00 80.00
C 54.81 79.73 53.82 79.26 53.00 79.00
C 44.36 77.59 36.69 72.70 28.00 71.00
C 26.95 70.80 25.61 70.13 25.00 70.00
C 23.01 69.56 18.99 69.56 17.00 70.00
C 16.44 70.12 14.99 70.80 14.00 71.00
C 11.32 71.55 8.36 72.46 6.00 74.00
C 5.15 74.56 5.16 74.63 4.00 75.00
C 1.39 75.83 3.09 75.53 3.00 74.00
C 1.58 64.17 2.56 48.56 3.00 39.00 C 3.44 29.44 -0.82 11.14 6.00 6.00
C 6.92 5.31 7.80 4.53 9.00 4.00
C 11.51 2.91 14.23 2.21 17.00 2.00
C 19.26 1.83 21.74 1.86 24.00 2.00
C 27.67 2.23 31.49 2.99 35.00 4.00
C 36.43 4.41 37.91 5.57 39.00 6.00
C 40.26 6.35 41.76 6.51 43.00 7.00
C 44.15 7.45 45.15 8.61 46.00 9.00
C 49.29 10.09 52.67 10.76 56.00 12.00
C 57.49 12.32 58.90 12.67 60.00 13.00
C 60.50 12.98 61.50 13.00 62.00 13.00
C 64.62 13.00 67.39 13.26 70.00 13.00
C 71.80 12.82 73.28 12.54 75.00 12.00
C 76.70 11.46 78.35 10.72 80.00 10.00
C 80.34 9.80 82.75 8.37 83.00 8.00
C 84.77 4.43 82.00 4.07 86.00 2.00
C 88.68 0.62 92.37 0.55 95.00 2.00
C 95.23 2.04 96.88 2.88 97.00 3.00
C 101.13 7.23 96.85 17.74 98.00 24.00 C 99.15 30.26 97.59 39.04 98.00 46.00 C 98.41 52.96 97.98 61.77 98.00 69.00 C 98.02 76.23 98.41 83.67 98.00 91.00 C 97.59 98.33 99.05 106.69 98.00 114.00
C 98.42 113.82 99.50 114.00 100.00 114.00
L 100.00 0.00
L 0.00 0.00
L 0.00 116.00 Z"/>
</g>
<g fill="#81C07F" fill-opacity="0.39" stroke="None">
<path d="
M 86.00 2.00 
C 88.11 1.29 91.75 2.00 94.00 2.00
C 94.50 2.00 95.00 2.00 95.00 2.00
C 92.37 0.55 88.68 0.62 86.00 2.00 Z"/>
</g>
<g fill="#048104" fill-opacity="0.99" stroke="None">
<path d="
M 9.00 4.00 
C 8.50 4.31 6.35 5.70 6.00 6.00
C 0.47 10.71 5.51 21.25 4.00 28.00 C 2.49 34.75 5.39 44.86 4.00 52.00 C 2.61 59.14 5.31 69.08 6.00 74.00
C 8.36 72.46 11.32 71.55 14.00 71.00
C 14.86 70.68 15.80 70.30 17.00 70.00
C 20.04 69.25 22.02 69.26 25.00 70.00
C 26.23 70.31 27.11 70.68 28.00 71.00
C 36.69 72.70 44.36 77.59 53.00 79.00
C 54.52 79.25 54.92 79.56 56.00 80.00
C 58.46 80.57 60.29 80.91 63.00 81.00
C 65.31 81.08 67.70 81.11 70.00 81.00
C 74.49 80.78 76.99 79.47 81.00 78.00
C 81.81 77.70 82.29 74.98 84.00 76.00
C 84.65 88.92 82.69 102.53 85.00 115.00
C 86.72 113.56 90.29 113.40 91.00 116.00
L 94.00 116.00
C 97.58 107.98 95.95 98.16 96.00 89.00 C 96.05 79.84 96.49 68.05 96.00 59.00 C 95.51 49.95 97.42 38.37 96.00 30.00 C 94.58 21.63 100.10 7.96 94.00 2.00
C 91.75 2.00 88.11 1.29 86.00 2.00
C 82.00 4.07 84.77 4.43 83.00 8.00
C 82.12 9.77 81.55 9.33 80.00 10.00
C 78.35 10.72 76.70 11.46 75.00 12.00
C 73.29 12.81 72.49 14.40 70.00 14.00
C 67.03 14.27 64.29 13.97 62.00 13.00
C 61.50 13.00 60.50 12.98 60.00 13.00
C 58.02 13.06 57.37 12.51 56.00 12.00
C 52.67 10.76 49.29 10.09 46.00 9.00
C 44.45 8.48 44.14 7.63 43.00 7.00
C 41.76 6.51 40.26 6.35 39.00 6.00
C 37.14 5.48 36.34 4.57 35.00 4.00
C 31.49 2.99 27.67 2.23 24.00 2.00
C 22.43 2.05 18.49 2.03 17.00 2.00
C 14.23 2.21 11.51 2.91 9.00 4.00 Z"/>
</g>
<g fill="#52A852" fill-opacity="0.73" stroke="None">
<path d="
M 24.00 2.00 
C 21.74 1.86 19.26 1.83 17.00 2.00
C 18.49 2.03 22.43 2.05 24.00 2.00 Z"/>
</g>
<g fill="#1F941F" fill-opacity="0.97" stroke="None">
<path d="
M 94.00 116.00 
L 96.00 116.00
C 96.17 115.67 96.69 115.21 97.00 115.00
C 98.93 106.30 96.39 95.92 97.00 87.00 C 97.61 78.08 97.30 67.87 97.00 59.00 C 96.70 50.13 98.42 39.51 97.00 31.00 C 95.58 22.49 100.49 10.61 97.00 3.00
C 96.88 2.88 95.23 2.04 95.00 2.00
C 95.00 2.00 94.50 2.00 94.00 2.00
C 100.10 7.96 94.58 21.63 96.00 30.00 C 97.42 38.37 95.51 49.95 96.00 59.00 C 96.49 68.05 96.05 79.84 96.00 89.00 C 95.95 98.16 97.58 107.98 94.00 116.00 Z"/>
</g>
<g fill="#7DB97D" fill-opacity="0.33" stroke="None">
<path d="
M 97.00 115.00 
C 97.31 114.79 97.95 114.35 98.00 114.00
C 99.05 106.69 97.59 98.33 98.00 91.00 C 98.41 83.67 98.02 76.23 98.00 69.00 C 97.98 61.77 98.41 52.96 98.00 46.00 C 97.59 39.04 99.15 30.26 98.00 24.00 C 96.85 17.74 101.13 7.23 97.00 3.00
C 100.49 10.61 95.58 22.49 97.00 31.00 C 98.42 39.51 96.70 50.13 97.00 59.00 C 97.30 67.87 97.61 78.08 97.00 87.00 C 96.39 95.92 98.93 106.30 97.00 115.00 Z"/>
</g>
<g fill="#A5D1A4" fill-opacity="0.25" stroke="None">
<path d="
M 6.00 6.00 
C 6.35 5.70 8.50 4.31 9.00 4.00
C 7.80 4.53 6.92 5.31 6.00 6.00 Z"/>
</g>
<g fill="#B5DBB4" fill-opacity="0.21" stroke="None">
<path d="
M 39.00 6.00 
C 37.91 5.57 36.43 4.41 35.00 4.00
C 36.34 4.57 37.14 5.48 39.00 6.00 Z"/>
</g>
<g fill="#439F42" fill-opacity="0.81" stroke="None">
<path d="
M 3.00 74.00 
C 3.05 74.35 3.98 74.80 4.00 75.00
C 5.16 74.63 5.15 74.56 6.00 74.00
C 5.31 69.08 2.61 59.14 4.00 52.00 C 5.39 44.86 2.49 34.75 4.00 28.00 C 5.51 21.25 0.47 10.71 6.00 6.00
C -0.82 11.14 3.44 29.44 3.00 39.00 C 2.56 48.56 1.58 64.17 3.00 74.00 Z"/>
</g>
<g fill="#A3D2A2" fill-opacity="0.27" stroke="None">
<path d="
M 46.00 9.00 
C 45.15 8.61 44.15 7.45 43.00 7.00
C 44.14 7.63 44.45 8.48 46.00 9.00 Z"/>
</g>
<g fill="#9FD09E" fill-opacity="0.26" stroke="None">
<path d="
M 80.00 10.00 
C 81.55 9.33 82.12 9.77 83.00 8.00
C 82.75 8.37 80.34 9.80 80.00 10.00 Z"/>
</g>
<g fill="#9BD099" fill-opacity="0.22" stroke="None">
<path d="
M 60.00 13.00 
C 58.90 12.67 57.49 12.32 56.00 12.00
C 57.37 12.51 58.02 13.06 60.00 13.00 Z"/>
</g>
<g fill="#65AF64" fill-opacity="0.42" stroke="None">
<path d="
M 70.00 13.00 
C 69.89 13.03 70.00 14.00 70.00 14.00
C 72.49 14.40 73.29 12.81 75.00 12.00
C 73.28 12.54 71.80 12.82 70.00 13.00 Z"/>
</g>
<g fill="#56A655" fill-opacity="0.20" stroke="None">
<path d="
M 70.00 14.00 
C 70.00 14.00 69.89 13.03 70.00 13.00
C 67.39 13.26 64.62 13.00 62.00 13.00
C 64.29 13.97 67.03 14.27 70.00 14.00 Z"/>
</g>
<g fill="#2C932C" fill-opacity="0.60" stroke="None">
<path d="
M 17.00 70.00 
C 18.99 69.56 23.01 69.56 25.00 70.00
C 22.02 69.26 20.04 69.25 17.00 70.00 Z"/>
</g>
<g fill="#B8DEB7" fill-opacity="0.11" stroke="None">
<path d="
M 14.00 71.00 
C 14.99 70.80 16.44 70.12 17.00 70.00
C 15.80 70.30 14.86 70.68 14.00 71.00 Z"/>
</g>
<g fill="#A2D1A1" fill-opacity="0.15" stroke="None">
<path d="
M 28.00 71.00 
C 27.11 70.68 26.23 70.31 25.00 70.00
C 25.61 70.13 26.95 70.80 28.00 71.00 Z"/>
</g>
<g fill="#BAD1BA" fill-opacity="0.08" stroke="None">
<path d="
M 4.00 75.00 
C 3.98 74.80 3.05 74.35 3.00 74.00
C 3.09 75.53 1.39 75.83 4.00 75.00 Z"/>
</g>
<g fill="#489548" fill-opacity="0.40" stroke="None">
<path d="
M 81.00 78.00 
C 85.09 78.08 82.39 89.71 83.00 95.00 C 83.61 100.29 82.54 110.28 83.00 116.00
L 91.00 116.00
C 90.29 113.40 86.72 113.56 85.00 115.00
C 82.69 102.53 84.65 88.92 84.00 76.00
C 82.29 74.98 81.81 77.70 81.00 78.00 Z"/>
</g>
<g fill="#99CB97" fill-opacity="0.27" stroke="None">
<path d="
M 56.00 80.00 
C 54.92 79.56 54.52 79.25 53.00 79.00
C 53.82 79.26 54.81 79.73 56.00 80.00 Z"/>
</g>
<g fill="#B7D9B6" fill-opacity="0.20" stroke="None">
<path d="
M 70.00 81.00 
C 67.70 81.11 65.31 81.08 63.00 81.00
C 65.45 81.35 67.47 81.41 70.00 81.00 Z"/>
</g>
<g fill="#CBCBCB" fill-opacity="0.14" stroke="None">
<path d="
M 60.00 116.00 
L 73.00 116.00
C 71.84 112.68 61.15 112.81 60.00 116.00 Z"/>
</g>
<g fill="#C4C6C7" fill-opacity="0.14" stroke="None">
<path d="
M 74.00 116.00 
L 82.00 116.00
C 82.18 112.77 73.81 112.97 74.00 116.00 Z"/>
</g>
<g fill="#C4CCD6" fill-opacity="0.17" stroke="None">
<path d="
M 97.00 115.00 
C 96.69 115.21 96.17 115.67 96.00 116.00
L 100.00 116.00
L 100.00 114.00
C 99.50 114.00 98.42 113.82 98.00 114.00
C 97.95 114.35 97.31 114.79 97.00 115.00 Z"/>
</g>
</svg>