<?xml version="1.0" encoding="UTF-8" standalone="no"?>
<!-- Svg Vector Icons : http://www.onlinewebfonts.com/icon -->

<svg
   version="1.1"
   x="0px"
   y="0px"
   viewBox="0 0 40 40.000001"
   enable-background="new 0 0 256 256"
   xml:space="preserve"
   id="svg4"
   sodipodi:docname="iconsx.svg"
   width="40"
   height="40"
   inkscape:version="1.4 (86a8ad7, 2024-10-11)"
   xmlns:inkscape="http://www.inkscape.org/namespaces/inkscape"
   xmlns:sodipodi="http://sodipodi.sourceforge.net/DTD/sodipodi-0.dtd"
   xmlns="http://www.w3.org/2000/svg"
   xmlns:svg="http://www.w3.org/2000/svg"><defs
   id="defs4" /><sodipodi:namedview
   id="namedview4"
   pagecolor="#ffffff"
   bordercolor="#111111"
   borderopacity="1"
   inkscape:showpageshadow="0"
   inkscape:pageopacity="0"
   inkscape:pagecheckerboard="1"
   inkscape:deskcolor="#d1d1d1"
   inkscape:zoom="3.0195312"
   inkscape:cx="128"
   inkscape:cy="128"
   inkscape:window-width="1920"
   inkscape:window-height="1017"
   inkscape:window-x="-8"
   inkscape:window-y="-8"
   inkscape:window-maximized="1"
   inkscape:current-layer="svg4" />
<metadata
   id="metadata1"> Svg Vector Icons : http://www.onlinewebfonts.com/icon </metadata>
<g
   id="g4"
   style="fill:#ffffff"
   transform="matrix(0.15381411,0,0,0.15778204,0.84478042,0.17129658)"><g
     id="g3"
     style="fill:#ffffff"><path
       fill="#000000"
       d="m 220.8,200 v 13.8 H 147.5 V 193.7 H 134.9 V 244 h 12.6 v -20.1 h 73.3 v 13.8 L 246,218.8 Z"
       id="path1"
       style="fill:#ffffff" /><path
       fill="#000000"
       d="M 108.5,213.8 H 35.2 V 200 L 10,218.9 35.2,237.8 V 224 h 73.3 v 20 h 12.6 v -50.3 h -12.6 z"
       id="path2"
       style="fill:#ffffff" /><path
       fill="#000000"
       d="M 141.2,112.2 116.7,143 c -4.1,5.2 -5.6,9.2 -4.6,12.3 2,3.1 6.1,4.6 12.2,4.6 h 3.1 v 12.3 H 26.5 V 160 h 3.1 c 9.2,0 18.9,-6.2 29.1,-18.5 L 109.2,79.8 81.5,52 C 66.3,34.6 51,25.3 35.7,24.3 V 12 h 73.4 v 12.3 c -8.1,0 -13.8,1.5 -16.8,4.6 -2,4.1 -0.5,8.7 4.6,13.9 l 21.4,23.1 24.5,-29.3 c 3.1,-4.1 3.6,-7.2 1.5,-9.2 -2,-2 -6.1,-3.1 -12.2,-3.1 V 12 h 96.4 v 12.3 c -12.2,0 -22.9,7.2 -32.1,21.6 l -44.4,54 39.8,41.6 c 12.2,12.3 23.5,18.5 33.6,18.5 v 12.3 H 155 V 160 c 9.2,0 14.3,-2 15.3,-6.2 1,-4.1 -2,-10.3 -9.2,-18.5 z"
       id="path3"
       style="fill:#ffffff" /></g></g>
</svg>
