<?xml version="1.0" encoding="UTF-8" standalone="no"?>
<!-- Svg Vector Icons : http://www.onlinewebfonts.com/icon -->

<svg
   version="1.1"
   x="0px"
   y="0px"
   viewBox="0 0 40 40.000001"
   enable-background="new 0 0 256 256"
   xml:space="preserve"
   id="svg4"
   sodipodi:docname="iconsy.svg"
   width="40"
   height="40"
   inkscape:version="1.4 (86a8ad7, 2024-10-11)"
   xmlns:inkscape="http://www.inkscape.org/namespaces/inkscape"
   xmlns:sodipodi="http://sodipodi.sourceforge.net/DTD/sodipodi-0.dtd"
   xmlns="http://www.w3.org/2000/svg"
   xmlns:svg="http://www.w3.org/2000/svg"><defs
   id="defs4" /><sodipodi:namedview
   id="namedview4"
   pagecolor="#ffffff"
   bordercolor="#111111"
   borderopacity="1"
   inkscape:showpageshadow="0"
   inkscape:pageopacity="0"
   inkscape:pagecheckerboard="1"
   inkscape:deskcolor="#d1d1d1"
   inkscape:zoom="3.0195312"
   inkscape:cx="128"
   inkscape:cy="128"
   inkscape:window-width="1920"
   inkscape:window-height="1017"
   inkscape:window-x="-8"
   inkscape:window-y="-8"
   inkscape:window-maximized="1"
   inkscape:current-layer="svg4" />
<metadata
   id="metadata1"> Svg Vector Icons : http://www.onlinewebfonts.com/icon </metadata>
<g
   id="g4"
   style="fill:#ffffff"
   transform="matrix(-7.3757535e-4,0.15381235,-0.15778022,-7.5659459e-4,39.526915,0.78666532)"><g
     id="g3"
     style="fill:#ffffff"><path
       fill="#000000"
       d="m 220.8,200 v 13.8 H 147.5 V 193.7 H 134.9 V 244 h 12.6 v -20.1 h 73.3 v 13.8 L 246,218.8 Z"
       id="path1"
       style="fill:#ffffff" /><path
       fill="#000000"
       d="M 108.5,213.8 H 35.2 V 200 L 10,218.9 35.2,237.8 V 224 h 73.3 v 20 h 12.6 v -50.3 h -12.6 z"
       id="path2"
       style="fill:#ffffff" /><path
       id="path3"
       style="fill:#ffffff"
       d="m 35.69951,15.947556 c 0.169986,-0.100874 0.550168,-0.290245 0.683855,-0.37456 -0.186919,0.01974 -0.265128,0.01496 -0.482334,0.03939 -0.05165,0.0058 -0.128855,0.0553 -0.190102,0.07516 z m 46.758724,37.016756 0.306269,0.308038 c 0.04245,-0.05973 0.07039,-0.126751 0.113367,-0.186212 -0.140023,-0.03961 -0.279573,-0.08221 -0.419636,-0.121826 z m 1.098899,58.187458 c 0.766134,0.001 1.532228,-5.8e-4 2.298365,0.002 -0.572236,-0.24872 -1.139895,-0.50952 -1.730434,-0.70988 l -0.18931,0.23608 z M 119.26458,64.762524 c 0.12573,0.1599 0.23751,0.330255 0.35797,0.493477 0.68983,-0.08606 1.37337,-0.191735 2.05552,-0.319078 -0.67392,-0.215639 -1.34733,-0.433309 -2.02217,-0.646622 z m 25.51629,-27.216408 c 1.45493,0.133565 2.91012,0.259608 4.36975,0.326178 1.15422,0.05264 2.31232,0.08258 3.46711,0.10758 -1.27082,-0.13902 -2.53512,-0.308121 -3.77381,-0.502267 -1.35413,0.02948 -2.70884,0.04146 -4.06305,0.06851 z m 55.44272,0.570199 c 0.31407,0.384626 0.59944,0.810255 0.90751,1.208878 0.34609,-0.428243 0.6851,-0.857585 1.03501,-1.267473 -0.29426,0.0041 -0.60315,-0.01392 -0.88885,0.0042 -0.35059,0.02199 -0.70298,0.03444 -1.05367,0.05444 z m 1.91593,-26.115781 c 0.67976,0.06605 1.17101,0.117479 2.01999,0.200996 0.29528,-0.06383 0.58852,-0.134915 0.87517,-0.202151 z" /></g></g>
<path
   fill="#000000"
   d="M 28.445869,4.2641016 V 7.1578883 L 31.141253,7.5285211 31.447279,8.4123325 24.467531,19.887692 21.042392,8.1842561 21.40727,7.4429917 23.855478,7.14363 V 4.2641016 H 10.943532 v 2.8082582 l 2.930788,0.4419019 4.896417,17.4910113 -1.282956,8.225191 -0.612052,0.969347 -3.001409,0.299355 v 2.965065 H 27.645493 V 34.570445 L 24.714706,34.114284 24.290976,33.515567 25.821107,24.035923 36.03767,7.656818 38.733053,6.9868235 V 4.2641016 Z"
   id="path1-9"
   style="stroke-width:0.129533;fill:#ffffff" /></svg>
