<?xml version="1.0" encoding="UTF-8" standalone="no"?>
<!-- Svg Vector Icons : http://www.onlinewebfonts.com/icon -->

<svg
   version="1.1"
   x="0px"
   y="0px"
   viewBox="0 0 40 40.000001"
   enable-background="new 0 0 256 256"
   xml:space="preserve"
   id="svg4"
   sodipodi:docname="iconsx.svg"
   width="40"
   height="40"
   inkscape:version="1.4 (86a8ad7, 2024-10-11)"
   xmlns:inkscape="http://www.inkscape.org/namespaces/inkscape"
   xmlns:sodipodi="http://sodipodi.sourceforge.net/DTD/sodipodi-0.dtd"
   xmlns="http://www.w3.org/2000/svg"
   xmlns:svg="http://www.w3.org/2000/svg"><defs
   id="defs4" /><sodipodi:namedview
   id="namedview4"
   pagecolor="#ffffff"
   bordercolor="#111111"
   borderopacity="1"
   inkscape:showpageshadow="0"
   inkscape:pageopacity="0"
   inkscape:pagecheckerboard="1"
   inkscape:deskcolor="#d1d1d1"
   inkscape:zoom="3.0195312"
   inkscape:cx="112.10349"
   inkscape:cy="-14.40621"
   inkscape:window-width="1920"
   inkscape:window-height="1017"
   inkscape:window-x="-8"
   inkscape:window-y="-8"
   inkscape:window-maximized="1"
   inkscape:current-layer="svg4" />
<metadata
   id="metadata1"> Svg Vector Icons : http://www.onlinewebfonts.com/icon </metadata>
<path
   fill="#000000"
   d="m 34.806936,25.644052 v 4.085447 H 23.532362 v -5.950543 h -1.938058 v 14.891158 h 1.938058 v -5.950543 h 11.274574 v 4.085447 l 3.876115,-5.595285 z"
   id="path1"
   style="fill:#ffffff;stroke-width:0.213391" /><path
   fill="#000000"
   d="M 17.533611,29.331823 H 6.2590371 v -4.267167 l -3.8761156,5.844162 3.8761156,5.844164 V 32.485816 H 17.533611 v 6.184298 h 1.938058 V 23.116602 h -1.938058 z"
   id="path2"
   style="fill:#ffffff;stroke-width:0.218086" /><path
   fill="#000000"
   d="m 22.03263,14.686007 -2.523254,2.759821 c -0.422257,0.465944 -0.576741,0.824363 -0.473752,1.102136 0.20598,0.277775 0.628238,0.412182 1.256476,0.412182 h 0.319269 v 1.102136 H 10.21969 v -1.093175 h 0.319269 c 0.947507,0 1.946509,-0.55555 2.997005,-1.657686 l 5.200989,-5.528602 -2.85282,-2.4910056 C 14.318688,7.732694 12.742942,6.8993715 11.167197,6.8097669 V 5.7076307 h 7.559457 v 1.1021362 c -0.834218,0 -1.42126,0.1344068 -1.73023,0.412181 -0.205979,0.3673787 -0.0515,0.7795598 0.473754,1.2455035 l 2.203983,2.0698656 2.523252,-2.6254139 C 22.516682,7.5445243 22.568177,7.2667502 22.351897,7.0875411 22.145918,6.908332 21.72366,6.8097669 21.095422,6.8097669 V 5.7076307 h 9.928224 v 1.1021362 c -1.256476,0 -2.358468,0.6451529 -3.305975,1.9354586 l -4.572751,4.8386455 4.098998,3.72755 c 1.256476,1.102136 2.420262,1.657686 3.46046,1.657686 v 1.102135 h -7.250489 v -1.102135 c 0.947508,0 1.472756,-0.17921 1.575746,-0.55555 0.10299,-0.367378 -0.20598,-0.922927 -0.947507,-1.657684 z"
   id="path3"
   style="fill:#ffffff;stroke-width:0.0960634" />
</svg>
