<?xml version="1.0" encoding="UTF-8" standalone="no"?>
<svg
   height="24px"
   viewBox="0 -960 960 960"
   width="24px"
   fill="#FFFFFF"
   version="1.1"
   id="svg1"
   sodipodi:docname="increase.svg"
   xml:space="preserve"
   inkscape:version="1.4 (86a8ad7, 2024-10-11)"
   xmlns:inkscape="http://www.inkscape.org/namespaces/inkscape"
   xmlns:sodipodi="http://sodipodi.sourceforge.net/DTD/sodipodi-0.dtd"
   xmlns="http://www.w3.org/2000/svg"
   xmlns:svg="http://www.w3.org/2000/svg"><defs
     id="defs1" /><sodipodi:namedview
     id="namedview1"
     pagecolor="#ffffff"
     bordercolor="#111111"
     borderopacity="1"
     inkscape:showpageshadow="0"
     inkscape:pageopacity="0"
     inkscape:pagecheckerboard="1"
     inkscape:deskcolor="#d1d1d1"
     inkscape:zoom="32.208333"
     inkscape:cx="12"
     inkscape:cy="12"
     inkscape:window-width="1920"
     inkscape:window-height="1017"
     inkscape:window-x="-8"
     inkscape:window-y="-8"
     inkscape:window-maximized="1"
     inkscape:current-layer="svg1" /><g
     style="fill:#ffffff"
     id="g1"
     transform="translate(-228.51229,-22.354463)"><path
       d="m 400,-80 v -280 h -80 v -240 q 0,-33 23.5,-56.5 Q 367,-680 400,-680 h 160 q 33,0 56.5,23.5 23.5,23.5 23.5,56.5 v 240 h -80 v 280 z m 80,-640 q -33,0 -56.5,-23.5 Q 400,-767 400,-800 q 0,-33 23.5,-56.5 23.5,-23.5 56.5,-23.5 33,0 56.5,23.5 23.5,23.5 23.5,56.5 0,33 -23.5,56.5 Q 513,-720 480,-720 Z"
       id="path1-1" /></g><g
     style="fill:#ffffff"
     id="g2"
     transform="matrix(0.64738496,0,0,0.77379412,342.50231,-104.85308)"><path
       d="M 440,-440 H 200 v -80 h 240 v -240 h 80 v 240 h 240 v 80 H 520 v 240 h -80 z"
       id="path1" /></g></svg>
