<?xml version="1.0" encoding="UTF-8" standalone="no"?>
<svg
   width="100"
   height="100"
   viewBox="0 0 100 100"
   version="1.1"
   id="svg14"
   sodipodi:docname="ltbee.svg"
   inkscape:version="1.4 (86a8ad7, 2024-10-11)"
   xmlns:inkscape="http://www.inkscape.org/namespaces/inkscape"
   xmlns:sodipodi="http://sodipodi.sourceforge.net/DTD/sodipodi-0.dtd"
   xmlns="http://www.w3.org/2000/svg"
   xmlns:svg="http://www.w3.org/2000/svg">
  <sodipodi:namedview
     id="namedview1"
     pagecolor="#ffffff"
     bordercolor="#111111"
     borderopacity="1"
     inkscape:showpageshadow="0"
     inkscape:pageopacity="0"
     inkscape:pagecheckerboard="1"
     inkscape:deskcolor="#d1d1d1"
     inkscape:zoom="7.73"
     inkscape:cx="50"
     inkscape:cy="47.67141"
     inkscape:window-width="1920"
     inkscape:window-height="1017"
     inkscape:window-x="-8"
     inkscape:window-y="-8"
     inkscape:window-maximized="1"
     inkscape:current-layer="svg14" />
  <defs
     id="defs14" />
  <path
     fill-rule="evenodd"
     fill="#ffffff"
     fill-opacity="1"
     d="m 70.896534,50.435559 c 0.37213,2.20076 0.554048,4.438137 0.554048,6.6726 0,6.574575 -1.597065,13.37577 -5.048662,18.891396 -2.716074,4.34078 -6.62634,7.878418 -11.434945,9.136546 L 51.196122,100.05897 47.42513,85.136101 C 42.616527,83.877973 38.7064,80.340335 35.990191,75.999555 32.538169,70.483929 30.941669,63.682734 30.941669,57.108159 c 0,-2.234463 0.181358,-4.47184 0.553483,-6.6726 -0.5964,0.132527 -1.194606,0.256436 -1.793639,0.371267 -1.21385,0.23238 -2.46023,0.439111 -3.690833,0.539365 -0.464193,0.03795 -0.934201,0.05851 -1.399914,0.04196 C 14.614364,51.035225 7.566616,44.399995 4.7198566,34.500321 3.9872258,31.952389 3.5642893,29.245505 3.5276036,26.580862 c -0.030748,-2.226869 0.2100156,-4.664393 0.9701928,-6.754305 1.0290318,-2.829316 3.115059,-5.05734 6.1682346,-4.567623 0.951643,0.152778 1.956168,0.499227 2.863371,0.835903 1.268399,0.471071 2.521702,1.0112 3.757979,1.569661 3.165864,1.430568 6.290757,3.020531 9.367327,4.653535 3.336423,1.771305 6.672018,3.619884 9.940472,5.562614 -0.01497,-0.285629 -0.02203,-0.571962 -0.02203,-0.858795 0,-4.119696 1.532816,-8.037908 4.28267,-10.950622 0.849472,-0.899686 1.800422,-1.685706 2.828485,-2.338747 -0.426952,-1.502531 -1.200973,-2.874452 -2.258524,-3.9944559 -1.696316,-1.7963784 -3.971593,-2.794401 -6.370498,-2.794401 -1.545277,0 -2.798858,-1.32794 -2.798858,-2.9640298 0,-1.6365818 1.253581,-2.9645218 2.798858,-2.9645218 3.885622,0 7.581441,1.6219213 10.32852,4.5311057 1.639417,1.7363928 2.861435,3.8518263 3.570255,6.1702808 0.741072,-0.120775 1.49059,-0.181162 2.242048,-0.181162 0.751321,0 1.500838,0.06039 2.241637,0.181162 0.709093,-2.3184545 1.931111,-4.433888 3.570669,-6.1702808 2.74694,-2.9091844 6.442754,-4.5311057 10.328511,-4.5311057 1.545142,0 2.798731,1.32794 2.798731,2.9645218 0,1.6360898 -1.253589,2.9640298 -2.798731,2.9640298 -2.399317,0 -4.674314,0.9980226 -6.370904,2.794401 -1.057134,1.1200039 -1.831573,2.4919249 -2.258248,3.9944559 1.028064,0.653041 1.979013,1.439061 2.828211,2.338747 2.750126,2.912275 4.282944,6.830926 4.282944,10.950622 0,0.286833 -0.0074,0.573166 -0.02188,0.858795 3.268315,-1.94273 6.604036,-3.791309 9.940322,-5.562614 3.076713,-1.633004 6.201469,-3.222967 9.367462,-4.653535 1.23615,-0.558461 2.489309,-1.09859 3.757704,-1.569661 0.907338,-0.336676 1.911737,-0.683125 2.863373,-0.835903 3.053175,-0.489717 5.139205,1.738307 6.168506,4.567623 0.760179,2.089912 1.000792,4.527436 0.969932,6.754305 -0.03642,2.664643 -0.459626,5.371527 -1.192265,7.919459 -2.846617,9.899674 -9.894365,16.534904 -19.890773,16.887838 -0.465715,0.01653 -0.935584,-0.0049 -1.400324,-0.04196 -1.230047,-0.100255 -2.476848,-0.306986 -3.690414,-0.539367 -0.598892,-0.11483 -1.197237,-0.238738 -1.794062,-0.371267"
     id="path1"
     style="stroke-width:0.0364727" />
  <path
     fill-rule="evenodd"
     fill="#ffcb05"
     fill-opacity="1"
     d="m 51.196122,31.553279 c 9.640195,0 17.455316,11.441093 17.455316,25.55488 0,13.361369 -7.004551,24.325991 -15.930667,25.456854 l -0.70037,2.771509 -0.824279,3.262444 -0.824413,-3.262444 -0.700236,-2.771509 C 40.744945,81.43415 33.740388,70.469528 33.740388,57.108159 c 0,-14.113787 7.815128,-25.55488 17.455734,-25.55488"
     id="path2"
     style="stroke-width:0.0364727" />
  <path
     fill-rule="nonzero"
     fill="#000000"
     fill-opacity="1"
     d="m 51.196122,30.465812 c 5.168694,0 9.82418,3.032377 13.172935,7.93515 3.280481,4.802195 5.309483,11.417624 5.309483,18.707197 0,6.868373 -1.801536,13.137344 -4.753793,17.854663 -2.886213,4.612193 -6.877601,7.755684 -11.387865,8.573976 L 51.196122,92.7997 48.855227,83.536798 C 44.344961,82.718506 40.35371,79.575015 37.466938,74.962822 34.515103,70.245503 32.71371,63.976532 32.71371,57.108159 c 0,-7.289573 2.028989,-13.905002 5.308932,-18.707197 3.349163,-4.902773 8.004788,-7.93515 13.17348,-7.93515 z m 11.512613,9.209399 c -2.968869,-4.346365 -7.04111,-7.034602 -11.512613,-7.034602 -4.471917,0 -8.544155,2.688237 -11.512606,7.034602 -3.037669,4.446806 -4.916033,10.609173 -4.916033,17.432948 0,6.435561 1.670703,12.281955 4.408511,16.656934 2.705135,4.323209 6.445946,7.19284 10.615506,7.721258 l 0.690822,0.08736 0.7138,2.824481 0.713801,-2.824481 0.690266,-0.08736 c 4.169982,-0.528418 7.910513,-3.398049 10.616058,-7.721258 2.737806,-4.374979 4.408384,-10.221373 4.408384,-16.656934 0,-6.823775 -1.878657,-12.986142 -4.915896,-17.432948"
     id="path3"
     style="stroke-width:0.0364727" />
  <path
     fill-rule="evenodd"
     fill="rgb(0%, 0%, 0%)"
     fill-opacity="1"
     d="m 51.196122,13.428991 c 7.08845,0 12.834859,6.085847 12.834859,13.592998 0,7.507337 -5.746409,13.593184 -12.834859,13.593184 -7.088588,0 -12.834994,-6.085847 -12.834994,-13.593184 0,-7.507151 5.746406,-13.592998 12.834994,-13.592998"
     id="path4"
     style="fill:#ffd700;stroke:#a7a7a7;stroke-width:0.0364727;stroke-dasharray:none;stroke-opacity:0.677378" />
  <path
     fill-rule="nonzero"
     fill="#000000"
     fill-opacity="1"
     d="m 51.196122,13.412135 c 3.548654,0 6.761317,1.523046 9.086985,3.986104 2.325668,2.463047 3.763789,5.865528 3.763789,9.62375 0,3.75832 -1.438121,7.160889 -3.763789,9.623937 -2.325668,2.462871 -5.538331,3.986416 -9.086985,3.986416 -3.548792,0 -6.761452,-1.523545 -9.087118,-3.986416 -2.325533,-2.463048 -3.764071,-5.865617 -3.764071,-9.623937 0,-3.758222 1.438538,-7.160703 3.764071,-9.62375 2.325666,-2.463058 5.538326,-3.986104 9.087118,-3.986104 z m 9.064002,4.010463 c -2.319714,-2.457059 -5.524206,-3.976311 -9.064002,-3.976311 -3.539931,0 -6.744426,1.519252 -9.064418,3.976311 -2.319575,2.45657 -3.754236,5.85051 -3.754236,9.599391 0,3.748939 1.434661,7.14283 3.754236,9.59989 2.319992,2.456611 5.524487,3.975999 9.064418,3.975999 3.539796,0 6.744288,-1.519388 9.064002,-3.975999 2.319858,-2.45706 3.754511,-5.850951 3.754511,-9.59989 0,-3.748881 -1.434653,-7.142821 -3.754511,-9.599391"
     id="path5"
     style="stroke-width:0.0364727" />
  <path
     fill-rule="nonzero"
     fill="#000000"
     fill-opacity="1"
     d="m 66.587976,45.046874 c -4.556501,2.264857 -9.808531,3.55744 -15.391854,3.55744 -5.583462,0 -10.835352,-1.292583 -15.391995,-3.55744 0.641119,-1.749577 1.417218,-3.376331 2.307948,-4.852175 3.860836,1.892836 8.322928,2.972389 13.084047,2.972389 4.761121,0 9.223073,-1.079553 13.084048,-2.972389 0.890592,1.475844 1.666683,3.102598 2.307806,4.852175"
     id="path6"
     style="stroke-width:0.0364727" />
  <path
     fill-rule="nonzero"
     fill="#000000"
     fill-opacity="1"
     d="m 68.642583,57.888054 c -5.001035,2.950573 -11.003006,4.671996 -17.446461,4.671996 -6.443592,0 -12.445421,-1.721423 -17.446873,-4.671996 -0.0053,-0.259382 -0.0089,-0.519038 -0.0089,-0.779895 0,-1.836254 0.133596,-3.626596 0.384866,-5.353154 4.618386,3.352549 10.56567,5.367407 17.070869,5.367407 6.505059,0 12.452482,-2.014858 17.070719,-5.367407 0.251277,1.726558 0.384591,3.5169 0.384591,5.353154 0,0.260857 -0.0035,0.520513 -0.0089,0.779895"
     id="path7"
     style="stroke-width:0.0364727" />
  <path
     fill-rule="nonzero"
     fill="#000000"
     fill-opacity="1"
     d="m 64.29997,73.988846 c -3.99416,1.621881 -8.432851,2.526351 -13.103848,2.526351 -4.671134,0 -9.109826,-0.90447 -13.103982,-2.526351 -1.360598,-2.261903 -2.451374,-4.878315 -3.201308,-7.742938 4.501682,3.03045 10.153807,4.832101 16.30529,4.832101 6.151482,0 11.803466,-1.801651 16.305295,-4.832101 -0.749933,2.864623 -1.841265,5.481035 -3.201447,7.742938"
     id="path8"
     style="stroke-width:0.0364727" />
  <path
     fill-rule="evenodd"
     fill="#ffcb05"
     fill-opacity="1"
     d="m 92.143746,18.189394 c 6.862797,-1.101231 6.292145,29.50777 -14.4535,30.239974 -4.150881,0.146478 -22.084228,-4.273914 -21.767749,-8.627929 0.09179,-1.261649 1.367654,-2.669914 3.04473,-4.000484 5.668322,-4.496913 28.0819,-16.793982 33.176519,-17.611561"
     id="path9"
     style="stroke-width:0.0364727" />
  <path
     fill-rule="nonzero"
     fill="rgb(0%, 0%, 0%)"
     fill-opacity="1"
     d="m 91.99133,17.114851 c 1.935811,-0.310429 3.393458,1.032928 4.249442,3.38629 0.581181,1.598589 0.884228,3.70696 0.851968,6.052418 -0.03198,2.30576 -0.385552,4.861156 -1.115691,7.40001 -2.199415,7.649081 -7.793392,15.189719 -18.254543,15.559011 -0.349155,0.01203 -0.754911,0 -1.205412,-0.03757 -2.795108,-0.227821 -8.034685,-1.35752 -12.579288,-2.935869 -4.839479,-1.680824 -8.960862,-3.978943 -9.041298,-6.539925 -0.0035,-0.107768 -0.0023,-0.200881 0.0031,-0.278566 0.06368,-0.878271 0.493681,-1.74989 1.168442,-2.59442 0.590034,-0.738681 1.386069,-1.47835 2.285243,-2.191507 3.044731,-2.415854 10.800194,-7.022314 18.17798,-10.938774 6.606548,-3.507167 12.956822,-6.479556 15.459979,-6.881121 z m 2.340202,4.16775 c -0.493395,-1.356504 -1.200695,-2.152218 -2.035086,-2.018213 -2.293272,0.367912 -8.4161,3.252783 -14.850691,6.668844 -7.283789,3.866312 -14.909658,8.389951 -17.865099,10.734373 -0.777485,0.617148 -1.458059,1.246858 -1.94814,1.860161 -0.405493,0.507592 -0.659534,0.971071 -0.687218,1.354313 l -0.0035,0.04911 c 0.04514,1.426324 3.529271,3.11918 7.629769,4.543577 4.395351,1.526588 9.430171,2.616549 12.098065,2.833875 0.407299,0.03306 0.741084,0.04617 0.988888,0.03757 9.359564,-0.330327 14.378601,-7.126238 16.361221,-14.021309 0.672677,-2.338835 0.998425,-4.685046 1.027373,-6.796812 0.02878,-2.072302 -0.225671,-3.898577 -0.715475,-5.245425"
     id="path10"
     style="fill:#000000;stroke-width:0.0364727" />
  <path
     fill-rule="evenodd"
     fill="#ffcb05"
     fill-opacity="1"
     d="M 10.248218,18.189394 C 3.3855629,17.088163 3.9563535,47.697164 24.701861,48.429368 28.852732,48.575846 46.78581,44.155454 46.469748,39.801439 46.377827,38.53979 45.101955,37.131525 43.425018,35.800955 37.756556,31.304042 15.342979,19.006973 10.248218,18.189394"
     id="path11"
     style="stroke-width:0.0364727" />
  <path
     fill-rule="nonzero"
     fill="#000000"
     fill-opacity="1"
     d="m 56.555448,16.485405 c 0,0.600566 -0.459625,1.087329 -1.026678,1.087329 -0.567057,0 -1.026818,-0.486763 -1.026818,-1.087329 0,-3.753889 1.43688,-7.151759 3.759225,-9.611906 2.322899,-2.4599676 5.53169,-3.9815407 9.075762,-3.9815407 0.56706,0 1.026685,0.4872113 1.026685,1.087777 0,0.6005206 -0.459625,1.0872839 -1.026685,1.0872839 -2.97744,0 -5.672748,1.2781015 -7.623656,3.3444128 -1.951049,2.065819 -3.157835,4.920651 -3.157835,8.073973"
     id="path12"
     style="stroke-width:0.0364727" />
  <path
     fill-rule="nonzero"
     fill="#000000"
     fill-opacity="1"
     d="m 47.890154,16.485405 c 0,0.600566 -0.459623,1.087329 -1.026678,1.087329 -0.567053,0 -1.027092,-0.486763 -1.027092,-1.087329 0,-3.153322 -1.206374,-6.007707 -3.157419,-8.073973 C 40.727916,6.3451207 38.032611,5.0670192 35.0553,5.0670192 c -0.567054,0 -1.026817,-0.4867633 -1.026817,-1.0872839 0,-0.6005657 0.459763,-1.087777 1.026817,-1.087777 3.544085,0 6.75287,1.5215731 9.075633,3.9815407 2.322481,2.460147 3.759221,5.858017 3.759221,9.611906"
     id="path13"
     style="stroke-width:0.0364727" />
  <path
     fill-rule="nonzero"
     fill="rgb(0%, 0%, 0%)"
     fill-opacity="1"
     d="m 10.095795,19.264388 c -0.8345216,-0.134005 -1.5418169,0.661709 -2.0352204,2.018213 -0.4896642,1.346848 -0.7442586,3.173133 -0.7156019,5.245435 0.02909,2.111766 0.3548223,4.457977 1.027369,6.796812 1.9826123,6.895061 7.0016473,13.690983 16.3614983,14.021299 0.247669,0.0088 0.581177,-0.0049 0.988747,-0.03757 2.668031,-0.217326 7.702712,-1.307286 12.098071,-2.833865 4.100479,-1.424396 7.584758,-3.117253 7.629336,-4.543576 l -0.0031,-0.04911 C 45.419339,39.498789 45.165157,39.035318 44.759802,38.527727 44.269586,37.914414 43.589146,37.284714 42.81125,36.667565 39.856087,34.323135 32.230349,29.799495 24.946142,25.933192 18.511552,22.517123 12.38914,19.632251 10.095869,19.264349 Z m -3.9444606,1.236753 c 0.8561189,-2.353362 2.3136232,-3.696719 4.2493066,-3.38629 2.503286,0.401564 8.853294,3.373954 15.460248,6.88112 7.37765,3.91646 15.133245,8.52292 18.177841,10.938776 0.899174,0.713157 1.695208,1.452824 2.285243,2.191505 0.6749,0.84453 1.104757,1.716149 1.16858,2.59442 0.0057,0.07767 0.0067,0.170798 0.0031,0.278566 -0.08043,2.560983 -4.201955,4.859102 -9.041296,6.539925 -4.5446,1.578349 -9.784172,2.708049 -12.579431,2.935871 -0.450486,0.03669 -0.856257,0.0496 -1.205405,0.03757 C 14.208245,49.143307 8.6145412,41.60267 6.4148536,33.953588 5.6848532,31.414735 5.3311376,28.859338 5.2992979,26.553578 5.2668916,24.208121 5.5699491,22.099749 6.1512618,20.50116"
     id="path14"
     style="fill:#000000;stroke-width:0.0364727" />
  <g
     id="g2"
     transform="matrix(0,-0.9659353,-0.99594591,0,67.121253,60.272054)"
     style="fill:#ffffff">
    <path
       d="m 17,46.3 9.1,-9.7 v 6.1 h 7.3 c 5.3,0 9.7,-5.1 9.7,-11.2 0,-6.2 -4.8,-11.3 -10.8,-11.3 H 23.1 V 12 h 9.2 C 42.7,12 51,20.7 51,31.4 51,41.9 43,50.8 33.5,50.8 H 26.2 V 56 Z"
       fill="#ffffff"
       id="path1-6"
       style="fill:#ffffff" />
  </g>
</svg>
