<svg xmlns="http://www.w3.org/2000/svg" xmlns:v="https://svgstorm.com"
viewBox = "0 0 143 145"
width="143"
height="145">
<g fill="None" fill-opacity="0.0" stroke="#000000" stroke-opacity="0.00" stroke-width="0.3"><path d="
M 0.00 145.00 
L 143.00 145.00
L 143.00 0.00
L 0.00 0.00
L 0.00 145.00
M 138.00 11.00 
C 139.49 15.52 138.78 24.16 135.00 26.00
C 134.24 26.37 133.35 27.60 132.00 27.00
C 128.41 32.91 133.95 44.06 132.00 51.00 C 130.05 57.94 133.60 67.75 132.00 75.00 C 130.40 82.25 134.33 91.93 132.00 99.00
C 131.60 100.22 130.17 101.61 129.00 102.00
C 117.87 105.67 103.43 99.25 92.00 102.00
C 92.93 103.14 93.08 104.55 93.00 106.00
C 93.20 106.66 93.71 108.04 94.00 109.00
C 97.61 116.32 100.61 125.98 102.00 134.00
C 102.32 134.97 102.96 135.49 103.00 137.00
C 103.21 138.30 102.84 139.69 103.00 141.00
C 93.72 141.96 94.57 129.11 92.00 123.00
C 84.62 123.51 75.17 122.32 68.00 123.00 C 60.83 123.68 51.02 119.68 49.00 128.00
C 48.68 129.25 48.34 130.08 48.00 131.00
C 47.53 133.27 46.83 135.81 46.00 138.00
C 45.52 139.27 45.76 140.58 44.00 141.00
C 43.38 141.15 41.61 141.18 41.00 141.00
C 37.78 140.07 39.71 137.47 40.00 136.00
C 40.07 134.26 40.62 133.56 41.00 132.00
C 41.29 130.82 41.73 129.83 42.00 129.00
C 42.41 126.63 42.93 125.17 44.00 123.00
C 44.30 122.00 44.78 120.71 45.00 120.00
C 46.01 113.79 49.08 108.26 50.00 102.00
C 37.42 101.35 24.14 103.31 12.00 101.00
C 6.46 97.04 11.13 84.95 10.00 78.00 C 8.87 71.05 10.40 60.75 10.00 53.00 C 9.60 45.25 10.00 34.98 10.00 27.00
C 8.72 27.87 7.69 26.43 7.00 26.00
C 5.95 25.35 5.60 25.05 5.00 24.00
C 3.20 20.85 3.46 14.11 5.00 11.00
C 5.94 9.10 5.03 9.98 7.00 9.00
C 18.31 3.38 35.83 9.61 49.00 8.00 C 62.17 6.39 78.34 8.14 92.00 8.00 C 105.66 7.86 121.29 6.76 135.00 8.00
C 136.17 8.16 137.67 10.00 138.00 11.00 Z"/>
</g>
<g fill="None" fill-opacity="0.0" stroke="#373738" stroke-opacity="1.00" stroke-width="0.3"><path d="
M 7.00 9.00 
C 20.22 5.45 35.23 10.72 49.00 9.00 C 62.77 7.28 77.98 10.12 92.00 9.00 C 106.02 7.88 120.94 10.27 135.00 9.00
C 134.75 8.73 135.00 8.00 135.00 8.00
C 121.29 6.76 105.66 7.86 92.00 8.00 C 78.34 8.14 62.17 6.39 49.00 8.00 C 35.83 9.61 18.31 3.38 7.00 9.00 Z"/>
</g>
<g fill="None" fill-opacity="0.0" stroke="#8B8B8D" stroke-opacity="1.00" stroke-width="0.3"><path d="
M 135.00 9.00 
C 135.54 9.60 137.70 10.39 138.00 11.00
C 137.67 10.00 136.17 8.16 135.00 8.00
C 135.00 8.00 134.75 8.73 135.00 9.00 Z"/>
</g>
<g fill="None" fill-opacity="0.0" stroke="#000000" stroke-opacity="1.00" stroke-width="0.3"><path d="
M 5.00 11.00 
C 4.27 13.71 4.14 21.34 5.00 24.00
C 5.60 25.05 5.95 25.35 7.00 26.00
C 7.50 26.12 9.67 25.65 10.00 26.00
C 14.80 30.62 9.00 43.40 11.00 50.00 C 13.00 56.60 8.93 69.37 11.00 76.00 C 13.07 82.63 7.03 96.03 12.00 101.00
C 24.14 103.31 37.42 101.35 50.00 102.00
C 49.08 108.26 46.01 113.79 45.00 120.00
C 44.74 121.62 44.58 121.81 44.00 123.00
C 42.93 125.17 42.41 126.63 42.00 129.00
C 41.74 130.52 41.46 130.90 41.00 132.00
C 40.62 133.56 40.07 134.26 40.00 136.00
C 39.96 137.04 39.75 140.44 41.00 141.00
C 41.61 141.18 43.38 141.15 44.00 141.00
C 44.21 140.92 45.92 138.16 46.00 138.00
C 46.83 135.81 47.53 133.27 48.00 131.00
C 48.30 129.53 48.53 129.08 49.00 128.00
C 51.02 119.68 60.83 123.68 68.00 123.00 C 75.17 122.32 84.62 123.51 92.00 123.00
C 94.57 129.11 93.72 141.96 103.00 141.00
C 102.84 139.69 103.21 138.30 103.00 137.00
C 102.93 136.55 102.16 134.93 102.00 134.00
C 100.61 125.98 97.61 116.32 94.00 109.00
C 93.46 107.91 93.23 107.51 93.00 106.00
C 93.08 104.55 92.93 103.14 92.00 102.00
C 103.43 99.25 117.87 105.67 129.00 102.00
C 128.94 102.03 132.06 98.85 132.00 99.00
C 134.33 91.93 130.40 82.25 132.00 75.00 C 133.60 67.75 130.05 57.94 132.00 51.00 C 133.95 44.06 128.41 32.91 132.00 27.00
C 132.81 25.66 133.66 26.39 135.00 26.00
C 138.78 24.16 139.49 15.52 138.00 11.00
C 137.70 10.39 135.54 9.60 135.00 9.00
C 120.94 10.27 106.02 7.88 92.00 9.00 C 77.98 10.12 62.77 7.28 49.00 9.00 C 35.23 10.72 20.22 5.45 7.00 9.00
C 5.03 9.98 5.94 9.10 5.00 11.00
M 132.00 15.00 
C 132.29 15.57 132.29 19.43 132.00 20.00
C 130.01 23.87 118.04 20.02 113.00 21.00 C 107.96 21.98 97.99 20.63 92.00 21.00 C 86.01 21.37 77.28 21.01 71.00 21.00 C 64.72 20.99 57.21 21.44 51.00 21.00 C 44.79 20.56 35.75 22.09 30.00 21.00 C 24.25 19.91 13.78 23.93 10.00 20.00
C 9.50 18.14 10.38 15.90 10.00 14.00
C 50.50 14.67 92.32 12.67 132.00 15.00
M 126.00 27.00 
C 128.67 30.82 124.79 39.15 126.00 44.00 C 127.21 48.85 125.44 55.66 126.00 61.00 C 126.56 66.34 125.72 72.38 126.00 78.00 C 126.28 83.62 125.79 90.28 126.00 96.00
C 89.67 96.00 53.33 96.00 17.00 96.00
C 13.52 93.56 16.77 83.52 16.00 79.00 C 15.23 74.48 16.04 66.00 16.00 61.00 C 15.96 56.00 15.33 47.81 16.00 43.00 C 16.67 38.19 13.71 29.16 17.00 26.00
C 24.13 25.36 31.88 26.20 39.00 26.00 C 46.12 25.80 54.03 25.88 61.00 26.00 C 67.97 26.12 76.42 25.49 83.00 26.00 C 89.58 26.51 99.32 24.76 105.00 26.00 C 110.68 27.24 123.01 22.73 126.00 27.00
M 85.00 102.00 
C 85.90 107.11 89.06 111.60 89.00 117.00
C 77.00 117.00 65.00 117.00 53.00 117.00
C 55.97 112.47 53.49 102.24 61.01 102.01 C 68.53 101.78 77.36 102.16 85.00 102.00 Z"/>
</g>
<g fill="None" fill-opacity="0.0" stroke="#565657" stroke-opacity="1.00" stroke-width="0.3"><path d="
M 5.00 24.00 
C 4.14 21.34 4.27 13.71 5.00 11.00
C 3.46 14.11 3.20 20.85 5.00 24.00 Z"/>
</g>
<g fill="None" fill-opacity="0.0" stroke="#AEAEB0" stroke-opacity="1.00" stroke-width="0.3"><path d="
M 10.00 20.00 
C 10.24 20.25 11.00 20.00 11.00 20.00
C 10.71 18.38 11.22 16.63 11.00 15.00
C 51.33 15.00 91.67 15.00 132.00 15.00
C 92.32 12.67 50.50 14.67 10.00 14.00
C 10.38 15.90 9.50 18.14 10.00 20.00 Z"/>
</g>
<g fill="None" fill-opacity="0.0" stroke="#000000" stroke-opacity="0.00" stroke-width="0.3"><path d="
M 11.00 20.00 
C 51.33 20.00 91.67 20.00 132.00 20.00
C 132.29 19.43 132.29 15.57 132.00 15.00
C 91.67 15.00 51.33 15.00 11.00 15.00
C 11.22 16.63 10.71 18.38 11.00 20.00 Z"/>
</g>
<g fill="None" fill-opacity="0.0" stroke="#4F4F4F" stroke-opacity="1.00" stroke-width="0.3"><path d="
M 132.00 20.00 
C 91.67 20.00 51.33 20.00 11.00 20.00
C 11.00 20.00 10.24 20.25 10.00 20.00
C 13.78 23.93 24.25 19.91 30.00 21.00 C 35.75 22.09 44.79 20.56 51.00 21.00 C 57.21 21.44 64.72 20.99 71.00 21.00 C 77.28 21.01 86.01 21.37 92.00 21.00 C 97.99 20.63 107.96 21.98 113.00 21.00 C 118.04 20.02 130.01 23.87 132.00 20.00 Z"/>
</g>
<g fill="None" fill-opacity="0.0" stroke="#A2A2A4" stroke-opacity="1.00" stroke-width="0.3"><path d="
M 10.00 27.00 
C 10.00 26.50 10.00 26.00 10.00 26.00
C 9.67 25.65 7.50 26.12 7.00 26.00
C 7.69 26.43 8.72 27.87 10.00 27.00 Z"/>
</g>
<g fill="None" fill-opacity="0.0" stroke="#666667" stroke-opacity="1.00" stroke-width="0.3"><path d="
M 10.00 27.00 
C 10.00 34.98 9.60 45.25 10.00 53.00 C 10.40 60.75 8.87 71.05 10.00 78.00 C 11.13 84.95 6.46 97.04 12.00 101.00
C 7.03 96.03 13.07 82.63 11.00 76.00 C 8.93 69.37 13.00 56.60 11.00 50.00 C 9.00 43.40 14.80 30.62 10.00 26.00
C 10.00 26.00 10.00 26.50 10.00 27.00 Z"/>
</g>
<g fill="None" fill-opacity="0.0" stroke="#747475" stroke-opacity="1.00" stroke-width="0.3"><path d="
M 17.00 96.00 
C 17.00 73.00 17.00 50.00 17.00 27.00
C 17.00 26.50 17.00 26.00 17.00 26.00
C 13.71 29.16 16.67 38.19 16.00 43.00 C 15.33 47.81 15.96 56.00 16.00 61.00 C 16.04 66.00 15.23 74.48 16.00 79.00 C 16.77 83.52 13.52 93.56 17.00 96.00 Z"/>
</g>
<g fill="None" fill-opacity="0.0" stroke="#979798" stroke-opacity="1.00" stroke-width="0.3"><path d="
M 17.00 27.00 
C 53.04 30.26 89.89 24.56 126.00 27.00
C 123.01 22.73 110.68 27.24 105.00 26.00 C 99.32 24.76 89.58 26.51 83.00 26.00 C 76.42 25.49 67.97 26.12 61.00 26.00 C 54.03 25.88 46.12 25.80 39.00 26.00 C 31.88 26.20 24.13 25.36 17.00 26.00
C 17.00 26.00 17.00 26.50 17.00 27.00 Z"/>
</g>
<g fill="None" fill-opacity="0.0" stroke="#9C9C9E" stroke-opacity="1.00" stroke-width="0.3"><path d="
M 132.00 27.00 
C 133.35 27.60 134.24 26.37 135.00 26.00
C 133.66 26.39 132.81 25.66 132.00 27.00 Z"/>
</g>
<g fill="None" fill-opacity="0.0" stroke="#000000" stroke-opacity="0.00" stroke-width="0.3"><path d="
M 17.00 96.00 
C 53.33 96.00 89.67 96.00 126.00 96.00
C 125.79 90.28 126.28 83.62 126.00 78.00 C 125.72 72.38 126.56 66.34 126.00 61.00 C 125.44 55.66 127.21 48.85 126.00 44.00 C 124.79 39.15 128.67 30.82 126.00 27.00
C 89.89 24.56 53.04 30.26 17.00 27.00
C 17.00 50.00 17.00 73.00 17.00 96.00
M 82.00 46.00 
C 86.03 49.44 91.21 53.49 94.00 58.00
C 94.20 58.32 94.76 58.74 95.00 59.00
C 98.18 62.40 83.04 77.30 79.00 79.00
C 77.62 79.58 77.43 79.85 76.00 79.00
C 74.56 78.15 73.41 76.92 74.00 75.00
C 75.87 70.52 81.98 68.36 84.00 64.00
C 79.35 61.37 71.44 65.31 66.00 64.00 C 60.56 62.69 52.66 64.98 47.00 64.00
C 45.78 55.06 55.60 58.41 62.00 58.00 C 68.40 57.59 77.37 58.31 84.00 58.00
C 82.58 55.16 68.91 45.56 76.00 43.00
C 79.24 41.83 80.26 44.51 82.00 46.00 Z"/>
</g>
<g fill="None" fill-opacity="0.0" stroke="#838384" stroke-opacity="1.00" stroke-width="0.3"><path d="
M 84.00 58.00 
C 86.35 56.67 69.92 46.65 76.00 43.00
C 68.91 45.56 82.58 55.16 84.00 58.00 Z"/>
</g>
<g fill="None" fill-opacity="0.0" stroke="#000000" stroke-opacity="1.00" stroke-width="0.3"><path d="
M 84.00 58.00 
C 77.37 58.31 68.40 57.59 62.00 58.00 C 55.60 58.41 45.78 55.06 47.00 64.00
C 52.66 64.98 60.56 62.69 66.00 64.00 C 71.44 65.31 79.35 61.37 84.00 64.00
C 85.30 64.74 76.17 73.33 75.00 75.00
C 75.29 76.32 74.92 77.92 76.00 79.00
C 77.43 79.85 77.62 79.58 79.00 79.00
C 82.07 77.31 84.83 72.01 87.75 69.75 C 90.68 67.50 96.07 62.99 95.00 59.00
C 94.76 58.74 94.20 58.32 94.00 58.00
C 89.52 54.51 85.92 49.92 82.00 46.00
C 80.26 44.51 79.24 41.83 76.00 43.00
C 69.92 46.65 86.35 56.67 84.00 58.00 Z"/>
</g>
<g fill="None" fill-opacity="0.0" stroke="#BABABB" stroke-opacity="1.00" stroke-width="0.3"><path d="
M 94.00 58.00 
C 91.21 53.49 86.03 49.44 82.00 46.00
C 85.92 49.92 89.52 54.51 94.00 58.00 Z"/>
</g>
<g fill="None" fill-opacity="0.0" stroke="#9B9B9D" stroke-opacity="1.00" stroke-width="0.3"><path d="
M 79.00 79.00 
C 83.04 77.30 98.18 62.40 95.00 59.00
C 96.07 62.99 90.68 67.50 87.75 69.75 C 84.83 72.01 82.07 77.31 79.00 79.00 Z"/>
</g>
<g fill="None" fill-opacity="0.0" stroke="#B4B4B6" stroke-opacity="1.00" stroke-width="0.3"><path d="
M 74.00 75.00 
C 74.04 74.86 75.00 75.00 75.00 75.00
C 76.17 73.33 85.30 64.74 84.00 64.00
C 81.98 68.36 75.87 70.52 74.00 75.00 Z"/>
</g>
<g fill="None" fill-opacity="0.0" stroke="#5C5C5D" stroke-opacity="1.00" stroke-width="0.3"><path d="
M 76.00 79.00 
C 74.92 77.92 75.29 76.32 75.00 75.00
C 75.00 75.00 74.04 74.86 74.00 75.00
C 73.41 76.92 74.56 78.15 76.00 79.00 Z"/>
</g>
<g fill="None" fill-opacity="0.0" stroke="#828283" stroke-opacity="1.00" stroke-width="0.3"><path d="
M 129.00 102.00 
C 130.17 101.61 131.60 100.22 132.00 99.00
C 132.06 98.85 128.94 102.03 129.00 102.00 Z"/>
</g>
<g fill="None" fill-opacity="0.0" stroke="#000000" stroke-opacity="0.00" stroke-width="0.3"><path d="
M 85.00 102.00 
C 77.36 102.16 68.53 101.78 61.01 102.01 C 53.49 102.24 55.97 112.47 53.00 117.00
C 65.00 117.00 77.00 117.00 89.00 117.00
C 89.06 111.60 85.90 107.11 85.00 102.00 Z"/>
</g>
<g fill="None" fill-opacity="0.0" stroke="#89898B" stroke-opacity="1.00" stroke-width="0.3"><path d="
M 94.00 109.00 
C 93.71 108.04 93.20 106.66 93.00 106.00
C 93.23 107.51 93.46 107.91 94.00 109.00 Z"/>
</g>
<g fill="None" fill-opacity="0.0" stroke="#7E7E80" stroke-opacity="1.00" stroke-width="0.3"><path d="
M 44.00 123.00 
C 44.58 121.81 44.74 121.62 45.00 120.00
C 44.78 120.71 44.30 122.00 44.00 123.00 Z"/>
</g>
<g fill="None" fill-opacity="0.0" stroke="#9B9B9C" stroke-opacity="1.00" stroke-width="0.3"><path d="
M 48.00 131.00 
C 48.34 130.08 48.68 129.25 49.00 128.00
C 48.53 129.08 48.30 129.53 48.00 131.00 Z"/>
</g>
<g fill="None" fill-opacity="0.0" stroke="#8F8F90" stroke-opacity="1.00" stroke-width="0.3"><path d="
M 41.00 132.00 
C 41.46 130.90 41.74 130.52 42.00 129.00
C 41.73 129.83 41.29 130.82 41.00 132.00 Z"/>
</g>
<g fill="None" fill-opacity="0.0" stroke="#868687" stroke-opacity="1.00" stroke-width="0.3"><path d="
M 103.00 137.00 
C 102.96 135.49 102.32 134.97 102.00 134.00
C 102.16 134.93 102.93 136.55 103.00 137.00 Z"/>
</g>
<g fill="None" fill-opacity="0.0" stroke="#757576" stroke-opacity="1.00" stroke-width="0.3"><path d="
M 41.00 141.00 
C 39.75 140.44 39.96 137.04 40.00 136.00
C 39.71 137.47 37.78 140.07 41.00 141.00 Z"/>
</g>
<g fill="None" fill-opacity="0.0" stroke="#ADADAF" stroke-opacity="1.00" stroke-width="0.3"><path d="
M 44.00 141.00 
C 45.76 140.58 45.52 139.27 46.00 138.00
C 45.92 138.16 44.21 140.92 44.00 141.00 Z"/>
</g>
<g fill="#000000" fill-opacity="0.00" stroke="None">
<path d="
M 0.00 145.00 
L 143.00 145.00
L 143.00 0.00
L 0.00 0.00
L 0.00 145.00
M 138.00 11.00 
C 139.49 15.52 138.78 24.16 135.00 26.00
C 134.24 26.37 133.35 27.60 132.00 27.00
C 128.41 32.91 133.95 44.06 132.00 51.00 C 130.05 57.94 133.60 67.75 132.00 75.00 C 130.40 82.25 134.33 91.93 132.00 99.00
C 131.60 100.22 130.17 101.61 129.00 102.00
C 117.87 105.67 103.43 99.25 92.00 102.00
C 92.93 103.14 93.08 104.55 93.00 106.00
C 93.20 106.66 93.71 108.04 94.00 109.00
C 97.61 116.32 100.61 125.98 102.00 134.00
C 102.32 134.97 102.96 135.49 103.00 137.00
C 103.21 138.30 102.84 139.69 103.00 141.00
C 93.72 141.96 94.57 129.11 92.00 123.00
C 84.62 123.51 75.17 122.32 68.00 123.00 C 60.83 123.68 51.02 119.68 49.00 128.00
C 48.68 129.25 48.34 130.08 48.00 131.00
C 47.53 133.27 46.83 135.81 46.00 138.00
C 45.52 139.27 45.76 140.58 44.00 141.00
C 43.38 141.15 41.61 141.18 41.00 141.00
C 37.78 140.07 39.71 137.47 40.00 136.00
C 40.07 134.26 40.62 133.56 41.00 132.00
C 41.29 130.82 41.73 129.83 42.00 129.00
C 42.41 126.63 42.93 125.17 44.00 123.00
C 44.30 122.00 44.78 120.71 45.00 120.00
C 46.01 113.79 49.08 108.26 50.00 102.00
C 37.42 101.35 24.14 103.31 12.00 101.00
C 6.46 97.04 11.13 84.95 10.00 78.00 C 8.87 71.05 10.40 60.75 10.00 53.00 C 9.60 45.25 10.00 34.98 10.00 27.00
C 8.72 27.87 7.69 26.43 7.00 26.00
C 5.95 25.35 5.60 25.05 5.00 24.00
C 3.20 20.85 3.46 14.11 5.00 11.00
C 5.94 9.10 5.03 9.98 7.00 9.00
C 18.31 3.38 35.83 9.61 49.00 8.00 C 62.17 6.39 78.34 8.14 92.00 8.00 C 105.66 7.86 121.29 6.76 135.00 8.00
C 136.17 8.16 137.67 10.00 138.00 11.00 Z"/>
</g>
<g fill="#373738" fill-opacity="1.00" stroke="None">
<path d="
M 7.00 9.00 
C 20.22 5.45 35.23 10.72 49.00 9.00 C 62.77 7.28 77.98 10.12 92.00 9.00 C 106.02 7.88 120.94 10.27 135.00 9.00
C 134.75 8.73 135.00 8.00 135.00 8.00
C 121.29 6.76 105.66 7.86 92.00 8.00 C 78.34 8.14 62.17 6.39 49.00 8.00 C 35.83 9.61 18.31 3.38 7.00 9.00 Z"/>
</g>
<g fill="#8B8B8D" fill-opacity="1.00" stroke="None">
<path d="
M 135.00 9.00 
C 135.54 9.60 137.70 10.39 138.00 11.00
C 137.67 10.00 136.17 8.16 135.00 8.00
C 135.00 8.00 134.75 8.73 135.00 9.00 Z"/>
</g>
<g fill="#000000" fill-opacity="1.00" stroke="None">
<path d="
M 5.00 11.00 
C 4.27 13.71 4.14 21.34 5.00 24.00
C 5.60 25.05 5.95 25.35 7.00 26.00
C 7.50 26.12 9.67 25.65 10.00 26.00
C 14.80 30.62 9.00 43.40 11.00 50.00 C 13.00 56.60 8.93 69.37 11.00 76.00 C 13.07 82.63 7.03 96.03 12.00 101.00
C 24.14 103.31 37.42 101.35 50.00 102.00
C 49.08 108.26 46.01 113.79 45.00 120.00
C 44.74 121.62 44.58 121.81 44.00 123.00
C 42.93 125.17 42.41 126.63 42.00 129.00
C 41.74 130.52 41.46 130.90 41.00 132.00
C 40.62 133.56 40.07 134.26 40.00 136.00
C 39.96 137.04 39.75 140.44 41.00 141.00
C 41.61 141.18 43.38 141.15 44.00 141.00
C 44.21 140.92 45.92 138.16 46.00 138.00
C 46.83 135.81 47.53 133.27 48.00 131.00
C 48.30 129.53 48.53 129.08 49.00 128.00
C 51.02 119.68 60.83 123.68 68.00 123.00 C 75.17 122.32 84.62 123.51 92.00 123.00
C 94.57 129.11 93.72 141.96 103.00 141.00
C 102.84 139.69 103.21 138.30 103.00 137.00
C 102.93 136.55 102.16 134.93 102.00 134.00
C 100.61 125.98 97.61 116.32 94.00 109.00
C 93.46 107.91 93.23 107.51 93.00 106.00
C 93.08 104.55 92.93 103.14 92.00 102.00
C 103.43 99.25 117.87 105.67 129.00 102.00
C 128.94 102.03 132.06 98.85 132.00 99.00
C 134.33 91.93 130.40 82.25 132.00 75.00 C 133.60 67.75 130.05 57.94 132.00 51.00 C 133.95 44.06 128.41 32.91 132.00 27.00
C 132.81 25.66 133.66 26.39 135.00 26.00
C 138.78 24.16 139.49 15.52 138.00 11.00
C 137.70 10.39 135.54 9.60 135.00 9.00
C 120.94 10.27 106.02 7.88 92.00 9.00 C 77.98 10.12 62.77 7.28 49.00 9.00 C 35.23 10.72 20.22 5.45 7.00 9.00
C 5.03 9.98 5.94 9.10 5.00 11.00
M 132.00 15.00 
C 132.29 15.57 132.29 19.43 132.00 20.00
C 130.01 23.87 118.04 20.02 113.00 21.00 C 107.96 21.98 97.99 20.63 92.00 21.00 C 86.01 21.37 77.28 21.01 71.00 21.00 C 64.72 20.99 57.21 21.44 51.00 21.00 C 44.79 20.56 35.75 22.09 30.00 21.00 C 24.25 19.91 13.78 23.93 10.00 20.00
C 9.50 18.14 10.38 15.90 10.00 14.00
C 50.50 14.67 92.32 12.67 132.00 15.00
M 126.00 27.00 
C 128.67 30.82 124.79 39.15 126.00 44.00 C 127.21 48.85 125.44 55.66 126.00 61.00 C 126.56 66.34 125.72 72.38 126.00 78.00 C 126.28 83.62 125.79 90.28 126.00 96.00
C 89.67 96.00 53.33 96.00 17.00 96.00
C 13.52 93.56 16.77 83.52 16.00 79.00 C 15.23 74.48 16.04 66.00 16.00 61.00 C 15.96 56.00 15.33 47.81 16.00 43.00 C 16.67 38.19 13.71 29.16 17.00 26.00
C 24.13 25.36 31.88 26.20 39.00 26.00 C 46.12 25.80 54.03 25.88 61.00 26.00 C 67.97 26.12 76.42 25.49 83.00 26.00 C 89.58 26.51 99.32 24.76 105.00 26.00 C 110.68 27.24 123.01 22.73 126.00 27.00
M 85.00 102.00 
C 85.90 107.11 89.06 111.60 89.00 117.00
C 77.00 117.00 65.00 117.00 53.00 117.00
C 55.97 112.47 53.49 102.24 61.01 102.01 C 68.53 101.78 77.36 102.16 85.00 102.00 Z"/>
</g>
<g fill="#565657" fill-opacity="1.00" stroke="None">
<path d="
M 5.00 24.00 
C 4.14 21.34 4.27 13.71 5.00 11.00
C 3.46 14.11 3.20 20.85 5.00 24.00 Z"/>
</g>
<g fill="#AEAEB0" fill-opacity="1.00" stroke="None">
<path d="
M 10.00 20.00 
C 10.24 20.25 11.00 20.00 11.00 20.00
C 10.71 18.38 11.22 16.63 11.00 15.00
C 51.33 15.00 91.67 15.00 132.00 15.00
C 92.32 12.67 50.50 14.67 10.00 14.00
C 10.38 15.90 9.50 18.14 10.00 20.00 Z"/>
</g>
<g fill="#000000" fill-opacity="0.00" stroke="None">
<path d="
M 11.00 20.00 
C 51.33 20.00 91.67 20.00 132.00 20.00
C 132.29 19.43 132.29 15.57 132.00 15.00
C 91.67 15.00 51.33 15.00 11.00 15.00
C 11.22 16.63 10.71 18.38 11.00 20.00 Z"/>
</g>
<g fill="#4F4F4F" fill-opacity="1.00" stroke="None">
<path d="
M 132.00 20.00 
C 91.67 20.00 51.33 20.00 11.00 20.00
C 11.00 20.00 10.24 20.25 10.00 20.00
C 13.78 23.93 24.25 19.91 30.00 21.00 C 35.75 22.09 44.79 20.56 51.00 21.00 C 57.21 21.44 64.72 20.99 71.00 21.00 C 77.28 21.01 86.01 21.37 92.00 21.00 C 97.99 20.63 107.96 21.98 113.00 21.00 C 118.04 20.02 130.01 23.87 132.00 20.00 Z"/>
</g>
<g fill="#A2A2A4" fill-opacity="1.00" stroke="None">
<path d="
M 10.00 27.00 
C 10.00 26.50 10.00 26.00 10.00 26.00
C 9.67 25.65 7.50 26.12 7.00 26.00
C 7.69 26.43 8.72 27.87 10.00 27.00 Z"/>
</g>
<g fill="#666667" fill-opacity="1.00" stroke="None">
<path d="
M 10.00 27.00 
C 10.00 34.98 9.60 45.25 10.00 53.00 C 10.40 60.75 8.87 71.05 10.00 78.00 C 11.13 84.95 6.46 97.04 12.00 101.00
C 7.03 96.03 13.07 82.63 11.00 76.00 C 8.93 69.37 13.00 56.60 11.00 50.00 C 9.00 43.40 14.80 30.62 10.00 26.00
C 10.00 26.00 10.00 26.50 10.00 27.00 Z"/>
</g>
<g fill="#747475" fill-opacity="1.00" stroke="None">
<path d="
M 17.00 96.00 
C 17.00 73.00 17.00 50.00 17.00 27.00
C 17.00 26.50 17.00 26.00 17.00 26.00
C 13.71 29.16 16.67 38.19 16.00 43.00 C 15.33 47.81 15.96 56.00 16.00 61.00 C 16.04 66.00 15.23 74.48 16.00 79.00 C 16.77 83.52 13.52 93.56 17.00 96.00 Z"/>
</g>
<g fill="#979798" fill-opacity="1.00" stroke="None">
<path d="
M 17.00 27.00 
C 53.04 30.26 89.89 24.56 126.00 27.00
C 123.01 22.73 110.68 27.24 105.00 26.00 C 99.32 24.76 89.58 26.51 83.00 26.00 C 76.42 25.49 67.97 26.12 61.00 26.00 C 54.03 25.88 46.12 25.80 39.00 26.00 C 31.88 26.20 24.13 25.36 17.00 26.00
C 17.00 26.00 17.00 26.50 17.00 27.00 Z"/>
</g>
<g fill="#9C9C9E" fill-opacity="1.00" stroke="None">
<path d="
M 132.00 27.00 
C 133.35 27.60 134.24 26.37 135.00 26.00
C 133.66 26.39 132.81 25.66 132.00 27.00 Z"/>
</g>
<g fill="#000000" fill-opacity="0.00" stroke="None">
<path d="
M 17.00 96.00 
C 53.33 96.00 89.67 96.00 126.00 96.00
C 125.79 90.28 126.28 83.62 126.00 78.00 C 125.72 72.38 126.56 66.34 126.00 61.00 C 125.44 55.66 127.21 48.85 126.00 44.00 C 124.79 39.15 128.67 30.82 126.00 27.00
C 89.89 24.56 53.04 30.26 17.00 27.00
C 17.00 50.00 17.00 73.00 17.00 96.00
M 82.00 46.00 
C 86.03 49.44 91.21 53.49 94.00 58.00
C 94.20 58.32 94.76 58.74 95.00 59.00
C 98.18 62.40 83.04 77.30 79.00 79.00
C 77.62 79.58 77.43 79.85 76.00 79.00
C 74.56 78.15 73.41 76.92 74.00 75.00
C 75.87 70.52 81.98 68.36 84.00 64.00
C 79.35 61.37 71.44 65.31 66.00 64.00 C 60.56 62.69 52.66 64.98 47.00 64.00
C 45.78 55.06 55.60 58.41 62.00 58.00 C 68.40 57.59 77.37 58.31 84.00 58.00
C 82.58 55.16 68.91 45.56 76.00 43.00
C 79.24 41.83 80.26 44.51 82.00 46.00 Z"/>
</g>
<g fill="#838384" fill-opacity="1.00" stroke="None">
<path d="
M 84.00 58.00 
C 86.35 56.67 69.92 46.65 76.00 43.00
C 68.91 45.56 82.58 55.16 84.00 58.00 Z"/>
</g>
<g fill="#000000" fill-opacity="1.00" stroke="None">
<path d="
M 84.00 58.00 
C 77.37 58.31 68.40 57.59 62.00 58.00 C 55.60 58.41 45.78 55.06 47.00 64.00
C 52.66 64.98 60.56 62.69 66.00 64.00 C 71.44 65.31 79.35 61.37 84.00 64.00
C 85.30 64.74 76.17 73.33 75.00 75.00
C 75.29 76.32 74.92 77.92 76.00 79.00
C 77.43 79.85 77.62 79.58 79.00 79.00
C 82.07 77.31 84.83 72.01 87.75 69.75 C 90.68 67.50 96.07 62.99 95.00 59.00
C 94.76 58.74 94.20 58.32 94.00 58.00
C 89.52 54.51 85.92 49.92 82.00 46.00
C 80.26 44.51 79.24 41.83 76.00 43.00
C 69.92 46.65 86.35 56.67 84.00 58.00 Z"/>
</g>
<g fill="#BABABB" fill-opacity="1.00" stroke="None">
<path d="
M 94.00 58.00 
C 91.21 53.49 86.03 49.44 82.00 46.00
C 85.92 49.92 89.52 54.51 94.00 58.00 Z"/>
</g>
<g fill="#9B9B9D" fill-opacity="1.00" stroke="None">
<path d="
M 79.00 79.00 
C 83.04 77.30 98.18 62.40 95.00 59.00
C 96.07 62.99 90.68 67.50 87.75 69.75 C 84.83 72.01 82.07 77.31 79.00 79.00 Z"/>
</g>
<g fill="#B4B4B6" fill-opacity="1.00" stroke="None">
<path d="
M 74.00 75.00 
C 74.04 74.86 75.00 75.00 75.00 75.00
C 76.17 73.33 85.30 64.74 84.00 64.00
C 81.98 68.36 75.87 70.52 74.00 75.00 Z"/>
</g>
<g fill="#5C5C5D" fill-opacity="1.00" stroke="None">
<path d="
M 76.00 79.00 
C 74.92 77.92 75.29 76.32 75.00 75.00
C 75.00 75.00 74.04 74.86 74.00 75.00
C 73.41 76.92 74.56 78.15 76.00 79.00 Z"/>
</g>
<g fill="#828283" fill-opacity="1.00" stroke="None">
<path d="
M 129.00 102.00 
C 130.17 101.61 131.60 100.22 132.00 99.00
C 132.06 98.85 128.94 102.03 129.00 102.00 Z"/>
</g>
<g fill="#000000" fill-opacity="0.00" stroke="None">
<path d="
M 85.00 102.00 
C 77.36 102.16 68.53 101.78 61.01 102.01 C 53.49 102.24 55.97 112.47 53.00 117.00
C 65.00 117.00 77.00 117.00 89.00 117.00
C 89.06 111.60 85.90 107.11 85.00 102.00 Z"/>
</g>
<g fill="#89898B" fill-opacity="1.00" stroke="None">
<path d="
M 94.00 109.00 
C 93.71 108.04 93.20 106.66 93.00 106.00
C 93.23 107.51 93.46 107.91 94.00 109.00 Z"/>
</g>
<g fill="#7E7E80" fill-opacity="1.00" stroke="None">
<path d="
M 44.00 123.00 
C 44.58 121.81 44.74 121.62 45.00 120.00
C 44.78 120.71 44.30 122.00 44.00 123.00 Z"/>
</g>
<g fill="#9B9B9C" fill-opacity="1.00" stroke="None">
<path d="
M 48.00 131.00 
C 48.34 130.08 48.68 129.25 49.00 128.00
C 48.53 129.08 48.30 129.53 48.00 131.00 Z"/>
</g>
<g fill="#8F8F90" fill-opacity="1.00" stroke="None">
<path d="
M 41.00 132.00 
C 41.46 130.90 41.74 130.52 42.00 129.00
C 41.73 129.83 41.29 130.82 41.00 132.00 Z"/>
</g>
<g fill="#868687" fill-opacity="1.00" stroke="None">
<path d="
M 103.00 137.00 
C 102.96 135.49 102.32 134.97 102.00 134.00
C 102.16 134.93 102.93 136.55 103.00 137.00 Z"/>
</g>
<g fill="#757576" fill-opacity="1.00" stroke="None">
<path d="
M 41.00 141.00 
C 39.75 140.44 39.96 137.04 40.00 136.00
C 39.71 137.47 37.78 140.07 41.00 141.00 Z"/>
</g>
<g fill="#ADADAF" fill-opacity="1.00" stroke="None">
<path d="
M 44.00 141.00 
C 45.76 140.58 45.52 139.27 46.00 138.00
C 45.92 138.16 44.21 140.92 44.00 141.00 Z"/>
</g>
</svg>