<svg xmlns="http://www.w3.org/2000/svg" xmlns:v="https://svgstorm.com"
viewBox = "0 0 355 361"
width="355"
height="361">
<g fill="#000000" fill-opacity="0.00" stroke="None">
<path d="
M 0.00 361.00 
L 355.00 361.00
L 355.00 191.00
C 353.99 191.55 353.56 192.98 353.00 194.00
C 352.08 195.69 351.03 196.64 350.00 198.00
C 348.98 199.65 348.09 201.47 347.00 203.00
C 345.34 205.33 339.84 208.74 339.00 211.00
C 335.93 219.32 340.32 230.00 339.00 239.00 C 337.68 248.00 339.58 258.70 339.00 268.00 C 338.42 277.30 339.23 287.65 339.00 297.00 C 338.77 306.35 339.86 315.76 337.00 324.00
C 336.00 328.53 333.60 333.29 331.00 337.00
C 328.64 340.37 325.23 343.60 322.00 346.00
C 317.26 349.53 310.92 352.53 305.00 353.00
C 284.55 356.95 261.48 353.14 240.00 354.00 C 218.52 354.86 195.56 354.20 174.00 354.00 C 152.44 353.80 129.35 355.39 108.00 354.00 C 86.65 352.61 63.05 357.97 43.00 353.00
C 37.56 351.65 31.79 349.87 27.00 347.00
C 24.13 345.28 20.93 342.57 19.00 340.00
C 10.57 328.78 8.06 317.96 9.00 303.00 C 9.94 288.04 8.03 271.27 9.00 256.00 C 9.97 240.73 7.36 224.32 9.00 209.00 C 10.64 193.68 5.67 176.02 9.00 161.00
C 10.33 154.98 18.97 152.01 21.75 146.75 C 24.54 141.50 34.09 138.17 36.00 133.00
C 39.18 122.36 34.94 108.14 36.00 97.00 C 37.06 85.86 37.29 76.52 43.00 67.00
C 45.57 62.71 50.77 58.26 55.00 56.00
C 59.45 53.62 64.12 52.13 69.00 51.00
C 83.20 47.70 109.15 54.71 121.75 47.75 C 134.34 40.78 138.29 27.64 150.00 20.00
C 155.46 16.44 161.61 14.49 168.00 13.00
C 172.07 12.05 176.01 12.19 180.00 13.00
C 186.39 13.56 192.73 16.57 198.00 20.00
C 209.69 27.62 213.69 40.97 226.25 47.75 C 238.80 54.53 264.87 48.12 279.00 51.00
C 285.02 51.53 291.11 54.61 296.00 58.00
C 299.32 60.30 302.72 63.75 305.00 67.00
C 309.23 73.04 311.49 80.48 312.00 88.00
C 312.66 91.70 313.58 96.61 313.00 101.00
C 315.27 103.39 322.09 102.49 324.68 105.32 C 327.26 108.15 332.00 109.04 335.00 111.00
C 340.57 114.63 345.43 119.52 349.00 125.00
C 350.82 127.80 352.14 131.88 355.00 134.00
L 355.00 0.00
L 0.00 0.00
L 0.00 361.00 Z"/>
</g>
<g fill="#ABABAB" fill-opacity="1.00" stroke="None">
<path d="
M 168.00 13.00 
C 171.73 12.58 176.26 12.67 180.00 13.00
C 176.01 12.19 172.07 12.05 168.00 13.00 Z"/>
</g>
<g fill="#000000" fill-opacity="1.00" stroke="None">
<path d="
M 150.00 20.00 
C 142.14 26.02 139.26 31.23 131.75 38.75 C 124.24 46.28 118.98 51.91 107.00 51.00 C 95.02 50.09 80.93 49.67 69.00 51.00
C 64.12 52.13 59.45 53.62 55.00 56.00
C 51.62 58.29 45.43 63.56 43.00 67.00
C 37.29 76.52 37.06 85.86 36.00 97.00 C 34.94 108.14 39.18 122.36 36.00 133.00
C 34.29 138.71 25.54 141.56 22.75 146.75 C 19.96 151.94 10.67 155.50 9.00 161.00
C 5.67 176.02 10.64 193.68 9.00 209.00 C 7.36 224.32 9.97 240.73 9.00 256.00 C 8.03 271.27 9.94 288.04 9.00 303.00 C 8.06 317.96 10.57 328.78 19.00 340.00
C 20.84 341.96 24.84 345.47 27.00 347.00
C 31.79 349.87 37.56 351.65 43.00 353.00
C 71.50 356.53 101.22 351.84 130.00 353.00 C 158.78 354.16 188.09 353.45 217.00 353.00 C 245.91 352.55 276.14 355.29 305.00 353.00
C 310.92 352.53 317.26 349.53 322.00 346.00
C 324.74 343.61 328.74 339.75 331.00 337.00
C 333.60 333.29 336.00 328.53 337.00 324.00
C 339.61 312.24 336.91 299.14 338.00 287.00 C 339.09 274.86 336.28 260.90 338.00 249.00 C 339.72 237.10 334.13 221.41 339.00 211.00
C 340.60 207.57 344.75 205.68 347.00 203.00
C 348.09 201.47 348.98 199.65 350.00 198.00
C 350.93 196.50 352.12 195.27 353.00 194.00
C 353.56 192.98 353.99 191.55 355.00 191.00
L 355.00 134.00
C 352.14 131.88 350.82 127.80 349.00 125.00
C 345.75 120.76 339.19 114.21 335.00 111.00
C 332.00 109.04 327.26 108.15 324.68 105.32 C 322.09 102.49 315.27 103.39 313.00 101.00
C 310.60 98.48 312.24 91.53 312.00 88.00
C 311.49 80.48 309.23 73.04 305.00 67.00
C 302.78 64.30 298.66 60.16 296.00 58.00
C 291.11 54.61 285.02 51.53 279.00 51.00
C 267.13 49.96 253.94 49.83 242.00 51.00 C 230.06 52.17 224.23 46.83 216.75 39.25 C 209.27 31.66 205.86 26.02 198.00 20.00
C 192.73 16.57 186.39 13.56 180.00 13.00
C 176.26 12.67 171.73 12.58 168.00 13.00
C 161.61 14.49 155.46 16.44 150.00 20.00
M 178.00 20.00 
C 183.97 20.32 188.03 22.02 193.00 25.00
C 203.12 31.07 211.69 42.38 219.00 51.00
C 189.00 51.00 159.00 51.00 129.00 51.00
C 135.82 41.49 145.62 32.18 155.00 25.00
C 159.88 22.61 164.71 21.00 170.00 20.00
C 172.92 19.45 175.17 19.54 178.00 20.00
M 305.00 87.00 
C 305.69 89.86 307.67 97.41 305.00 100.00
C 304.74 100.25 304.00 100.00 304.00 100.00
C 299.72 100.00 295.26 99.63 291.00 100.00
C 282.88 100.71 274.24 103.29 267.00 107.00
C 265.73 107.81 264.45 109.10 263.00 110.00
C 261.35 111.02 259.53 111.91 258.00 113.00
C 255.01 115.51 250.35 119.99 248.00 123.00
C 245.04 127.45 241.78 132.04 240.00 137.00
C 239.51 138.35 238.42 139.92 238.00 141.00
C 236.81 145.39 235.36 150.42 235.00 155.00
C 234.60 160.09 234.55 165.92 235.00 171.00
C 235.77 179.72 239.35 187.28 243.00 195.00
C 243.78 196.32 245.19 197.39 246.00 199.00
C 246.32 199.63 246.65 200.42 247.00 201.00
C 251.71 206.05 259.39 210.44 263.00 216.00
C 263.44 216.16 264.00 216.00 264.00 216.00
C 264.23 216.04 265.88 216.88 266.00 217.00
C 268.20 219.25 261.05 224.19 259.25 226.25 C 257.45 228.30 251.38 234.25 249.75 235.75 C 248.12 237.26 240.70 245.60 240.00 245.00
C 236.67 245.77 231.72 235.67 228.25 233.75 C 224.78 231.83 220.42 225.18 216.75 222.25 C 213.08 219.31 209.01 214.10 205.25 210.75 C 201.48 207.40 197.16 202.39 193.00 200.00
C 185.34 196.54 175.51 194.42 167.00 196.00
C 165.44 196.43 162.85 197.42 161.00 198.00
C 159.13 198.79 156.81 199.18 155.00 200.00
C 137.19 210.24 125.08 232.06 109.00 245.00
C 86.08 225.24 64.55 201.72 43.00 180.00
C 39.09 171.64 42.90 159.75 42.00 150.00 C 41.10 140.25 42.06 127.99 42.00 118.00 C 41.94 108.01 40.81 96.11 43.00 87.00
C 44.36 81.33 45.69 75.97 49.00 71.00
C 50.88 68.17 54.08 64.66 57.00 63.00
C 82.21 48.65 115.82 60.07 145.00 57.00 C 174.18 53.93 210.56 59.49 240.00 57.00 C 269.44 54.51 297.40 55.34 305.00 87.00
M 333.00 119.00 
C 355.25 138.20 361.14 169.57 344.25 194.25 C 327.36 218.93 294.78 225.72 270.00 211.00
C 259.99 205.06 253.52 198.23 248.00 188.00
C 235.94 165.66 241.30 135.35 261.75 118.75 C 282.21 102.16 313.37 102.06 333.00 119.00
M 36.00 144.00 
C 37.52 146.69 36.00 154.81 36.00 158.00 C 36.00 161.19 37.52 169.31 36.00 172.00
C 35.12 173.55 30.44 167.70 28.75 166.25 C 27.06 164.79 23.24 160.16 21.00 159.00
C 24.07 153.55 31.43 145.99 36.00 144.00
M 103.00 250.00 
C 100.69 255.55 93.45 258.98 89.75 263.75 C 86.06 268.52 80.38 272.77 76.25 277.25 C 72.11 281.73 67.09 286.57 62.75 290.75 C 58.42 294.93 53.67 300.58 49.25 304.25 C 44.83 307.92 40.21 315.14 35.75 317.75 C 31.29 320.36 26.73 331.16 22.00 331.00
C 17.34 330.85 16.16 320.82 16.00 316.00 C 15.84 311.18 16.05 300.07 16.00 294.00 C 15.95 287.93 15.97 279.70 16.00 273.00 C 16.03 266.30 15.89 257.96 16.00 251.00 C 16.11 244.04 15.72 235.96 16.00 229.00 C 16.28 222.04 15.33 214.81 16.00 208.00 C 16.67 201.19 14.58 192.45 16.00 186.00 C 17.42 179.55 12.88 169.51 16.00 164.00
C 16.53 163.07 25.74 171.91 28.25 174.75 C 30.76 177.60 37.36 183.67 40.75 187.25 C 44.15 190.83 49.48 195.83 53.25 199.75 C 57.02 203.68 61.88 208.14 65.75 212.25 C 69.62 216.36 74.47 220.50 78.25 224.75 C 82.03 229.01 87.32 232.79 90.75 237.25 C 94.18 241.71 100.86 244.88 103.00 250.00
M 195.00 210.00 
C 218.95 227.10 235.79 253.56 258.25 272.75 C 280.71 291.94 299.51 316.88 322.00 336.00
C 319.83 339.21 316.63 342.06 313.00 343.00
C 309.26 344.67 306.37 345.76 302.00 346.00
C 292.25 347.58 281.55 346.95 271.00 347.00 C 260.45 347.05 249.68 347.01 239.00 347.00 C 228.32 346.99 216.70 347.06 206.00 347.00 C 195.30 346.94 184.63 347.16 174.00 347.00 C 163.37 346.84 152.53 347.37 142.00 347.00 C 131.47 346.63 119.24 347.80 109.00 347.00 C 98.76 346.20 86.50 348.83 77.00 347.00 C 67.50 345.17 52.30 351.40 45.00 346.00
C 44.50 346.00 44.00 346.00 44.00 346.00
C 41.04 345.51 37.83 345.55 36.00 343.00
C 35.55 342.85 35.00 343.00 35.00 343.00
C 32.96 342.55 26.00 338.81 26.00 336.00
C 26.00 330.89 37.01 326.48 39.75 321.75 C 42.49 317.03 49.95 312.44 53.75 307.75 C 57.55 303.06 63.47 298.42 67.75 293.75 C 72.03 289.09 77.25 284.40 81.75 279.75 C 86.26 275.11 91.13 270.36 95.75 265.75 C 100.37 261.14 105.05 256.29 109.75 251.75 C 114.45 247.22 118.95 242.13 123.75 237.75 C 128.56 233.38 132.75 227.77 137.75 223.75 C 142.75 219.74 146.32 212.78 152.00 210.00
C 152.40 209.80 153.00 210.00 153.00 210.00
C 160.55 207.28 165.13 202.38 174.00 203.00 C 182.87 203.62 187.88 204.91 195.00 210.00
M 331.00 317.00 
C 330.78 321.00 330.25 324.62 328.00 328.00
C 327.39 328.91 326.88 329.84 327.00 331.00
C 298.75 305.91 271.88 277.05 245.00 250.00
C 244.80 249.60 245.00 249.00 245.00 249.00
C 247.76 243.37 255.12 238.94 259.25 234.25 C 263.38 229.56 269.90 221.58 275.00 222.00
C 279.42 222.37 283.67 224.04 288.00 225.00
C 294.26 225.64 301.73 225.55 308.00 225.00
C 315.65 224.33 322.07 220.59 329.00 218.00
C 329.81 217.70 330.28 214.99 332.00 216.00
C 331.33 249.50 333.33 284.32 331.00 317.00 Z"/>
</g>
<g fill="#86570A" fill-opacity="1.00" stroke="None">
<path d="
M 170.00 20.00 
C 172.59 19.80 175.41 19.86 178.00 20.00
C 175.17 19.54 172.92 19.45 170.00 20.00 Z"/>
</g>
<g fill="#3C3C3C" fill-opacity="1.00" stroke="None">
<path d="
M 69.00 51.00 
C 80.93 49.67 95.02 50.09 107.00 51.00 C 118.98 51.91 124.24 46.28 131.75 38.75 C 139.26 31.23 142.14 26.02 150.00 20.00
C 138.29 27.64 134.34 40.78 121.75 47.75 C 109.15 54.71 83.20 47.70 69.00 51.00 Z"/>
</g>
<g fill="#000000" fill-opacity="0.01" stroke="None">
<path d="
M 155.00 25.00 
C 145.99 31.06 137.91 42.08 131.00 50.00
C 159.67 50.00 188.33 50.00 217.00 50.00
C 211.12 40.47 200.55 33.13 193.00 25.00
C 188.03 22.02 183.97 20.32 178.00 20.00
C 175.41 19.86 172.59 19.80 170.00 20.00
C 164.71 21.00 159.88 22.61 155.00 25.00 Z"/>
</g>
<g fill="#3A3A3A" fill-opacity="1.00" stroke="None">
<path d="
M 279.00 51.00 
C 264.87 48.12 238.80 54.53 226.25 47.75 C 213.69 40.97 209.69 27.62 198.00 20.00
C 205.86 26.02 209.27 31.66 216.75 39.25 C 224.23 46.83 230.06 52.17 242.00 51.00 C 253.94 49.83 267.13 49.96 279.00 51.00 Z"/>
</g>
<g fill="#392303" fill-opacity="1.00" stroke="None">
<path d="
M 193.00 25.00 
C 200.55 33.13 211.12 40.47 217.00 50.00
C 188.33 50.00 159.67 50.00 131.00 50.00
C 137.91 42.08 145.99 31.06 155.00 25.00
C 145.62 32.18 135.82 41.49 129.00 51.00
C 159.00 51.00 189.00 51.00 219.00 51.00
C 211.69 42.38 203.12 31.07 193.00 25.00 Z"/>
</g>
<g fill="#7B7B7B" fill-opacity="1.00" stroke="None">
<path d="
M 43.00 67.00 
C 45.43 63.56 51.62 58.29 55.00 56.00
C 50.77 58.26 45.57 62.71 43.00 67.00 Z"/>
</g>
<g fill="#000000" fill-opacity="0.00" stroke="None">
<path d="
M 57.00 63.00 
C 54.86 64.44 50.57 68.99 49.00 71.00
C 45.69 75.97 44.36 81.33 43.00 87.00
C 41.84 96.87 42.97 108.09 43.00 118.00 C 43.03 127.91 41.75 139.35 43.00 149.00 C 44.25 158.65 39.70 171.05 43.00 180.00
C 45.19 185.92 55.45 190.14 59.25 195.75 C 63.05 201.36 70.54 206.67 75.25 211.75 C 79.96 216.83 86.70 221.56 91.25 227.75 C 95.80 233.94 102.82 237.67 107.00 244.00
C 125.11 230.65 136.06 211.63 155.00 200.00
C 156.81 199.18 159.13 198.79 161.00 198.00
C 162.97 197.17 164.58 196.45 167.00 196.00
C 175.51 194.42 185.34 196.54 193.00 200.00
C 200.45 203.37 207.10 212.16 212.90 217.10 C 218.70 222.04 218.60 221.52 221.92 226.08 C 225.24 230.65 228.93 231.59 231.25 235.75 C 233.57 239.91 239.96 241.41 241.00 243.00
C 246.71 236.88 252.53 232.22 258.00 226.00
C 259.98 223.75 266.45 218.93 264.00 216.00
C 264.00 216.00 263.44 216.16 263.00 216.00
C 257.13 213.88 250.14 206.15 247.00 201.00
C 246.65 200.42 246.32 199.63 246.00 199.00
C 244.82 197.57 243.86 196.82 243.00 195.00
C 239.35 187.28 235.77 179.72 235.00 171.00
C 233.95 165.87 234.02 160.06 235.00 155.00
C 235.36 150.42 236.81 145.39 238.00 141.00
C 238.46 139.30 239.34 138.33 240.00 137.00
C 241.78 132.04 245.04 127.45 248.00 123.00
C 250.44 119.33 254.48 115.52 258.00 113.00
C 259.53 111.91 261.35 111.02 263.00 110.00
C 264.42 108.92 265.26 107.89 267.00 107.00
C 274.24 103.29 282.88 100.71 291.00 100.00
C 294.39 99.31 300.74 97.59 304.00 100.00
C 304.00 100.00 304.74 100.25 305.00 100.00
C 305.36 95.97 305.47 91.02 305.00 87.00
C 297.40 55.34 269.44 54.51 240.00 57.00 C 210.56 59.49 174.18 53.93 145.00 57.00 C 115.82 60.07 82.21 48.65 57.00 63.00 Z"/>
</g>
<g fill="#737373" fill-opacity="1.00" stroke="None">
<path d="
M 305.00 67.00 
C 302.72 63.75 299.32 60.30 296.00 58.00
C 298.66 60.16 302.78 64.30 305.00 67.00 Z"/>
</g>
<g fill="#A5A19B" fill-opacity="1.00" stroke="None">
<path d="
M 49.00 71.00 
C 50.57 68.99 54.86 64.44 57.00 63.00
C 54.08 64.66 50.88 68.17 49.00 71.00 Z"/>
</g>
<g fill="#3C3A37" fill-opacity="1.00" stroke="None">
<path d="
M 43.00 180.00 
C 39.70 171.05 44.25 158.65 43.00 149.00 C 41.75 139.35 43.03 127.91 43.00 118.00 C 42.97 108.09 41.84 96.87 43.00 87.00
C 40.81 96.11 41.94 108.01 42.00 118.00 C 42.06 127.99 41.10 140.25 42.00 150.00 C 42.90 159.75 39.09 171.64 43.00 180.00 Z"/>
</g>
<g fill="#4A4845" fill-opacity="1.00" stroke="None">
<path d="
M 305.00 100.00 
C 307.67 97.41 305.69 89.86 305.00 87.00
C 305.47 91.02 305.36 95.97 305.00 100.00 Z"/>
</g>
<g fill="#C1C1C1" fill-opacity="1.00" stroke="None">
<path d="
M 313.00 101.00 
C 313.58 96.61 312.66 91.70 312.00 88.00
C 312.24 91.53 310.60 98.48 313.00 101.00 Z"/>
</g>
<g fill="#898681" fill-opacity="1.00" stroke="None">
<path d="
M 291.00 100.00 
C 295.26 99.63 299.72 100.00 304.00 100.00
C 300.74 97.59 294.39 99.31 291.00 100.00 Z"/>
</g>
<g fill="#31CA03" fill-opacity="1.00" stroke="None">
<path d="
M 248.00 188.00 
C 253.50 191.08 261.01 178.15 260.00 174.00
C 256.32 158.87 265.28 156.41 274.25 145.25 C 283.22 134.09 301.87 136.87 299.00 154.00
C 303.33 154.00 307.67 154.00 312.00 154.00
C 309.60 143.34 314.45 126.32 328.00 131.00
C 331.51 130.39 333.78 125.63 337.00 124.00
C 336.19 121.96 333.73 121.03 333.00 119.00
C 313.37 102.06 282.21 102.16 261.75 118.75 C 241.30 135.35 235.94 165.66 248.00 188.00 Z"/>
</g>
<g fill="#898681" fill-opacity="1.00" stroke="None">
<path d="
M 263.00 110.00 
C 264.45 109.10 265.73 107.81 267.00 107.00
C 265.26 107.89 264.42 108.92 263.00 110.00 Z"/>
</g>
<g fill="#767676" fill-opacity="1.00" stroke="None">
<path d="
M 349.00 125.00 
C 345.43 119.52 340.57 114.63 335.00 111.00
C 339.19 114.21 345.75 120.76 349.00 125.00 Z"/>
</g>
<g fill="#9B9791" fill-opacity="1.00" stroke="None">
<path d="
M 248.00 123.00 
C 250.35 119.99 255.01 115.51 258.00 113.00
C 254.48 115.52 250.44 119.33 248.00 123.00 Z"/>
</g>
<g fill="#0E990D" fill-opacity="1.00" stroke="None">
<path d="
M 328.00 131.00 
C 341.35 134.92 338.36 155.98 337.00 169.00 C 335.64 182.02 308.76 179.46 299.00 179.00
C 301.15 188.22 293.54 197.05 284.00 195.00
C 284.95 195.68 286.34 195.88 287.00 197.00
C 280.75 200.76 277.17 209.55 270.00 211.00
C 294.78 225.72 327.36 218.93 344.25 194.25 C 361.14 169.57 355.25 138.20 333.00 119.00
C 333.73 121.03 336.19 121.96 337.00 124.00
C 333.78 125.63 331.51 130.39 328.00 131.00 Z"/>
</g>
<g fill="#000000" fill-opacity="1.00" stroke="None">
<path d="
M 260.00 174.00 
C 265.45 182.10 276.47 189.61 284.00 195.00
C 293.54 197.05 301.15 188.22 299.00 179.00
C 308.76 179.46 335.64 182.02 337.00 169.00 C 338.36 155.98 341.35 134.92 328.00 131.00
C 314.45 126.32 309.60 143.34 312.00 154.00
C 307.67 154.00 303.33 154.00 299.00 154.00
C 301.87 136.87 283.22 134.09 274.25 145.25 C 265.28 156.41 256.32 158.87 260.00 174.00
M 330.00 142.00 
C 332.10 148.05 332.20 161.03 330.00 167.00
C 327.02 175.08 317.48 171.41 310.00 172.00 C 302.52 172.59 292.69 171.56 285.00 172.00
C 298.29 178.41 288.35 193.59 280.75 184.25 C 273.16 174.90 265.12 174.06 266.00 163.00
C 267.44 159.77 272.16 156.10 274.75 153.75 C 277.34 151.41 280.67 145.88 284.00 145.00
C 289.53 143.54 293.46 147.46 292.00 153.00
C 291.23 155.92 286.81 158.02 285.00 160.00
C 295.43 162.32 307.82 160.34 319.00 161.00
C 319.38 154.75 318.35 147.36 319.33 141.33 C 320.31 135.30 330.30 135.95 330.00 142.00 Z"/>
</g>
<g fill="#A9A9A9" fill-opacity="1.00" stroke="None">
<path d="
M 9.00 161.00 
C 10.67 155.50 19.96 151.94 22.75 146.75 C 25.54 141.56 34.29 138.71 36.00 133.00
C 34.09 138.17 24.54 141.50 21.75 146.75 C 18.97 152.01 10.33 154.98 9.00 161.00 Z"/>
</g>
<g fill="#8E8A84" fill-opacity="1.00" stroke="None">
<path d="
M 238.00 141.00 
C 238.42 139.92 239.51 138.35 240.00 137.00
C 239.34 138.33 238.46 139.30 238.00 141.00 Z"/>
</g>
<g fill="#FCFCFC" fill-opacity="1.00" stroke="None">
<path d="
M 285.00 160.00 
C 285.50 156.91 291.20 155.39 292.00 153.00
C 293.46 147.46 289.53 143.54 284.00 145.00
C 281.42 145.86 277.52 152.17 275.25 154.25 C 272.97 156.33 267.36 160.47 266.00 163.00
C 265.12 174.06 273.16 174.90 280.75 184.25 C 288.35 193.59 298.29 178.41 285.00 172.00
C 292.69 171.56 302.52 172.59 310.00 172.00 C 317.48 171.41 327.02 175.08 330.00 167.00
C 331.40 160.68 331.29 148.34 330.00 142.00
C 330.30 135.95 320.31 135.30 319.33 141.33 C 318.35 147.36 319.38 154.75 319.00 161.00
C 307.82 160.34 295.43 162.32 285.00 160.00 Z"/>
</g>
<g fill="#6F6F6F" fill-opacity="1.00" stroke="None">
<path d="
M 330.00 167.00 
C 332.20 161.03 332.10 148.05 330.00 142.00
C 331.29 148.34 331.40 160.68 330.00 167.00 Z"/>
</g>
<g fill="#743801" fill-opacity="1.00" stroke="None">
<path d="
M 36.00 172.00 
C 30.85 168.31 27.10 162.64 22.00 159.00
C 24.84 153.14 31.22 148.51 36.00 144.00
C 31.43 145.99 24.07 153.55 21.00 159.00
C 23.24 160.16 27.06 164.79 28.75 166.25 C 30.44 167.70 35.12 173.55 36.00 172.00 Z"/>
</g>
<g fill="#000000" fill-opacity="0.00" stroke="None">
<path d="
M 36.00 172.00 
C 37.52 169.31 36.00 161.19 36.00 158.00 C 36.00 154.81 37.52 146.69 36.00 144.00
C 31.22 148.51 24.84 153.14 22.00 159.00
C 27.10 162.64 30.85 168.31 36.00 172.00 Z"/>
</g>
<g fill="#777877" fill-opacity="1.00" stroke="None">
<path d="
M 266.00 163.00 
C 267.36 160.47 272.97 156.33 275.25 154.25 C 277.52 152.17 281.42 145.86 284.00 145.00
C 280.67 145.88 277.34 151.41 274.75 153.75 C 272.16 156.10 267.44 159.77 266.00 163.00 Z"/>
</g>
<g fill="#7B7B7B" fill-opacity="1.00" stroke="None">
<path d="
M 285.00 160.00 
C 286.81 158.02 291.23 155.92 292.00 153.00
C 291.20 155.39 285.50 156.91 285.00 160.00 Z"/>
</g>
<g fill="#9D968E" fill-opacity="1.00" stroke="None">
<path d="
M 235.00 171.00 
C 234.55 165.92 234.60 160.09 235.00 155.00
C 234.02 160.06 233.95 165.87 235.00 171.00 Z"/>
</g>
<g fill="#AD812A" fill-opacity="1.00" stroke="None">
<path d="
M 16.00 164.00 
C 29.86 178.49 46.09 191.52 59.25 206.75 C 72.41 221.98 90.72 233.87 102.00 250.00
C 102.16 249.77 103.00 250.00 103.00 250.00
C 100.86 244.88 94.18 241.71 90.75 237.25 C 87.32 232.79 82.03 229.01 78.25 224.75 C 74.47 220.50 69.62 216.36 65.75 212.25 C 61.88 208.14 57.02 203.68 53.25 199.75 C 49.48 195.83 44.15 190.83 40.75 187.25 C 37.36 183.67 30.76 177.60 28.25 174.75 C 25.74 171.91 16.53 163.07 16.00 164.00 Z"/>
</g>
<g fill="#000000" fill-opacity="0.00" stroke="None">
<path d="
M 22.00 331.00 
C 33.94 316.52 49.59 305.07 61.75 290.75 C 73.92 276.43 91.29 265.32 102.00 250.00
C 90.72 233.87 72.41 221.98 59.25 206.75 C 46.09 191.52 29.86 178.49 16.00 164.00
C 12.88 169.51 17.42 179.55 16.00 186.00 C 14.58 192.45 16.67 201.19 16.00 208.00 C 15.33 214.81 16.28 222.04 16.00 229.00 C 15.72 235.96 16.11 244.04 16.00 251.00 C 15.89 257.96 16.03 266.30 16.00 273.00 C 15.97 279.70 15.95 287.93 16.00 294.00 C 16.05 300.07 15.84 311.18 16.00 316.00 C 16.16 320.82 17.34 330.85 22.00 331.00 Z"/>
</g>
<g fill="#20B307" fill-opacity="1.00" stroke="None">
<path d="
M 248.00 188.00 
C 253.52 198.23 259.99 205.06 270.00 211.00
C 277.17 209.55 280.75 200.76 287.00 197.00
C 286.34 195.88 284.95 195.68 284.00 195.00
C 276.47 189.61 265.45 182.10 260.00 174.00
C 261.01 178.15 253.50 191.08 248.00 188.00 Z"/>
</g>
<g fill="#8D8071" fill-opacity="1.00" stroke="None">
<path d="
M 155.00 200.00 
C 136.06 211.63 125.11 230.65 107.00 244.00
C 102.82 237.67 95.80 233.94 91.25 227.75 C 86.70 221.56 79.96 216.83 75.25 211.75 C 70.54 206.67 63.05 201.36 59.25 195.75 C 55.45 190.14 45.19 185.92 43.00 180.00
C 64.55 201.72 86.08 225.24 109.00 245.00
C 125.08 232.06 137.19 210.24 155.00 200.00 Z"/>
</g>
<g fill="#848484" fill-opacity="1.00" stroke="None">
<path d="
M 350.00 198.00 
C 351.03 196.64 352.08 195.69 353.00 194.00
C 352.12 195.27 350.93 196.50 350.00 198.00 Z"/>
</g>
<g fill="#978C7F" fill-opacity="1.00" stroke="None">
<path d="
M 246.00 199.00 
C 245.19 197.39 243.78 196.32 243.00 195.00
C 243.86 196.82 244.82 197.57 246.00 199.00 Z"/>
</g>
<g fill="#9D9285" fill-opacity="1.00" stroke="None">
<path d="
M 161.00 198.00 
C 162.85 197.42 165.44 196.43 167.00 196.00
C 164.58 196.45 162.97 197.17 161.00 198.00 Z"/>
</g>
<g fill="#9F907E" fill-opacity="1.00" stroke="None">
<path d="
M 240.00 245.00 
C 240.07 245.06 240.98 243.02 241.00 243.00
C 239.96 241.41 233.57 239.91 231.25 235.75 C 228.93 231.59 225.24 230.65 221.92 226.08 C 218.60 221.52 218.70 222.04 212.90 217.10 C 207.10 212.16 200.45 203.37 193.00 200.00
C 197.16 202.39 201.48 207.40 205.25 210.75 C 209.01 214.10 213.08 219.31 216.75 222.25 C 220.42 225.18 224.78 231.83 228.25 233.75 C 231.72 235.67 236.67 245.77 240.00 245.00 Z"/>
</g>
<g fill="#8C8072" fill-opacity="1.00" stroke="None">
<path d="
M 263.00 216.00 
C 259.39 210.44 251.71 206.05 247.00 201.00
C 250.14 206.15 257.13 213.88 263.00 216.00 Z"/>
</g>
<g fill="#000000" fill-opacity="0.00" stroke="None">
<path d="
M 153.00 210.00 
C 148.69 220.31 135.03 226.12 128.25 235.25 C 121.47 244.37 110.41 251.99 102.75 260.75 C 95.09 269.51 85.81 277.13 77.75 285.75 C 69.69 294.37 60.46 302.64 52.25 311.25 C 44.03 319.86 34.73 328.07 27.00 337.00
C 29.55 339.25 32.71 340.79 35.00 343.00
C 35.00 343.00 35.55 342.85 36.00 343.00
C 38.65 343.85 41.96 344.34 44.00 346.00
C 44.00 346.00 44.50 346.00 45.00 346.00
C 87.73 346.00 130.24 346.88 173.00 346.00 C 215.76 345.12 259.27 348.32 302.00 346.00
C 306.37 345.76 309.26 344.67 313.00 343.00
C 315.72 341.49 318.18 338.65 321.00 337.00
C 279.67 294.17 236.29 252.79 195.00 210.00
C 187.88 204.91 182.87 203.62 174.00 203.00 C 165.13 202.38 160.55 207.28 153.00 210.00 Z"/>
</g>
<g fill="#B3B3B3" fill-opacity="1.00" stroke="None">
<path d="
M 339.00 211.00 
C 339.84 208.74 345.34 205.33 347.00 203.00
C 344.75 205.68 340.60 207.57 339.00 211.00 Z"/>
</g>
<g fill="#1D1703" fill-opacity="1.00" stroke="None">
<path d="
M 26.00 336.00 
C 40.01 322.26 54.77 308.59 68.25 294.25 C 81.73 279.91 97.35 267.01 110.25 252.25 C 123.15 237.49 140.85 225.95 152.00 210.00
C 146.32 212.78 142.75 219.74 137.75 223.75 C 132.75 227.77 128.56 233.38 123.75 237.75 C 118.95 242.13 114.45 247.22 109.75 251.75 C 105.05 256.29 100.37 261.14 95.75 265.75 C 91.13 270.36 86.26 275.11 81.75 279.75 C 77.25 284.40 72.03 289.09 67.75 293.75 C 63.47 298.42 57.55 303.06 53.75 307.75 C 49.95 312.44 42.49 317.03 39.75 321.75 C 37.01 326.48 26.00 330.89 26.00 336.00 Z"/>
</g>
<g fill="#BA9214" fill-opacity="1.00" stroke="None">
<path d="
M 26.00 336.00 
C 26.00 338.81 32.96 342.55 35.00 343.00
C 32.71 340.79 29.55 339.25 27.00 337.00
C 34.73 328.07 44.03 319.86 52.25 311.25 C 60.46 302.64 69.69 294.37 77.75 285.75 C 85.81 277.13 95.09 269.51 102.75 260.75 C 110.41 251.99 121.47 244.37 128.25 235.25 C 135.03 226.12 148.69 220.31 153.00 210.00
C 153.00 210.00 152.40 209.80 152.00 210.00
C 140.85 225.95 123.15 237.49 110.25 252.25 C 97.35 267.01 81.73 279.91 68.25 294.25 C 54.77 308.59 40.01 322.26 26.00 336.00 Z"/>
</g>
<g fill="#A37F11" fill-opacity="1.00" stroke="None">
<path d="
M 313.00 343.00 
C 316.63 342.06 319.83 339.21 322.00 336.00
C 299.51 316.88 280.71 291.94 258.25 272.75 C 235.79 253.56 218.95 227.10 195.00 210.00
C 236.29 252.79 279.67 294.17 321.00 337.00
C 318.18 338.65 315.72 341.49 313.00 343.00 Z"/>
</g>
<g fill="#707070" fill-opacity="1.00" stroke="None">
<path d="
M 337.00 324.00 
C 339.86 315.76 338.77 306.35 339.00 297.00 C 339.23 287.65 338.42 277.30 339.00 268.00 C 339.58 258.70 337.68 248.00 339.00 239.00 C 340.32 230.00 335.93 219.32 339.00 211.00
C 334.13 221.41 339.72 237.10 338.00 249.00 C 336.28 260.90 339.09 274.86 338.00 287.00 C 336.91 299.14 339.61 312.24 337.00 324.00 Z"/>
</g>
<g fill="#CAB8A0" fill-opacity="1.00" stroke="None">
<path d="
M 258.00 226.00 
C 259.67 224.38 266.94 219.79 266.00 217.00
C 265.88 216.88 264.23 216.04 264.00 216.00
C 266.45 218.93 259.98 223.75 258.00 226.00 Z"/>
</g>
<g fill="#846220" fill-opacity="1.00" stroke="None">
<path d="
M 329.00 218.00 
C 332.96 218.06 330.59 232.48 331.00 239.00 C 331.41 245.52 330.89 257.34 331.00 265.00 C 331.11 272.66 331.13 282.87 331.00 291.00 C 330.87 299.13 331.45 308.75 331.00 317.00
C 333.33 284.32 331.33 249.50 332.00 216.00
C 330.28 214.99 329.81 217.70 329.00 218.00 Z"/>
</g>
<g fill="#413A32" fill-opacity="1.00" stroke="None">
<path d="
M 258.00 226.00 
C 252.53 232.22 246.71 236.88 241.00 243.00
C 240.98 243.02 240.07 245.06 240.00 245.00
C 240.70 245.60 248.12 237.26 249.75 235.75 C 251.38 234.25 257.45 228.30 259.25 226.25 C 261.05 224.19 268.20 219.25 266.00 217.00
C 266.94 219.79 259.67 224.38 258.00 226.00 Z"/>
</g>
<g fill="#000000" fill-opacity="0.00" stroke="None">
<path d="
M 329.00 218.00 
C 322.07 220.59 315.65 224.33 308.00 225.00
C 301.88 226.25 294.06 226.34 288.00 225.00
C 283.67 224.04 279.42 222.37 275.00 222.00
C 267.57 222.68 256.79 237.39 252.00 243.00
C 250.05 245.29 247.69 247.58 246.00 250.00
C 256.72 265.37 273.69 275.10 285.70 289.30 C 297.71 303.50 313.13 315.48 325.00 330.00
C 326.25 329.70 326.71 328.17 328.00 328.00
C 330.25 324.62 330.78 321.00 331.00 317.00
C 331.45 308.75 330.87 299.13 331.00 291.00 C 331.13 282.87 331.11 272.66 331.00 265.00 C 330.89 257.34 331.41 245.52 331.00 239.00 C 330.59 232.48 332.96 218.06 329.00 218.00 Z"/>
</g>
<g fill="#583C10" fill-opacity="1.00" stroke="None">
<path d="
M 245.00 249.00 
C 247.36 247.35 250.02 244.98 252.00 243.00
C 256.79 237.39 267.57 222.68 275.00 222.00
C 269.90 221.58 263.38 229.56 259.25 234.25 C 255.12 238.94 247.76 243.37 245.00 249.00 Z"/>
</g>
<g fill="#5D4617" fill-opacity="1.00" stroke="None">
<path d="
M 308.00 225.00 
C 301.73 225.55 294.26 225.64 288.00 225.00
C 294.06 226.34 301.88 226.25 308.00 225.00 Z"/>
</g>
<g fill="#E49323" fill-opacity="1.00" stroke="None">
<path d="
M 245.00 249.00 
C 245.00 249.00 244.80 249.60 245.00 250.00
C 245.25 250.25 246.00 250.00 246.00 250.00
C 247.69 247.58 250.05 245.29 252.00 243.00
C 250.02 244.98 247.36 247.35 245.00 249.00 Z"/>
</g>
<g fill="#774B11" fill-opacity="1.00" stroke="None">
<path d="
M 22.00 331.00 
C 26.73 331.16 31.29 320.36 35.75 317.75 C 40.21 315.14 44.83 307.92 49.25 304.25 C 53.67 300.58 58.42 294.93 62.75 290.75 C 67.09 286.57 72.11 281.73 76.25 277.25 C 80.38 272.77 86.06 268.52 89.75 263.75 C 93.45 258.98 100.69 255.55 103.00 250.00
C 103.00 250.00 102.16 249.77 102.00 250.00
C 91.29 265.32 73.92 276.43 61.75 290.75 C 49.59 305.07 33.94 316.52 22.00 331.00 Z"/>
</g>
<g fill="#A66918" fill-opacity="1.00" stroke="None">
<path d="
M 328.00 328.00 
C 326.71 328.17 326.25 329.70 325.00 330.00
C 313.13 315.48 297.71 303.50 285.70 289.30 C 273.69 275.10 256.72 265.37 246.00 250.00
C 246.00 250.00 245.25 250.25 245.00 250.00
C 271.88 277.05 298.75 305.91 327.00 331.00
C 326.88 329.84 327.39 328.91 328.00 328.00 Z"/>
</g>
<g fill="#767676" fill-opacity="1.00" stroke="None">
<path d="
M 322.00 346.00 
C 325.23 343.60 328.64 340.37 331.00 337.00
C 328.74 339.75 324.74 343.61 322.00 346.00 Z"/>
</g>
<g fill="#888888" fill-opacity="1.00" stroke="None">
<path d="
M 27.00 347.00 
C 24.84 345.47 20.84 341.96 19.00 340.00
C 20.93 342.57 24.13 345.28 27.00 347.00 Z"/>
</g>
<g fill="#A06B00" fill-opacity="1.00" stroke="None">
<path d="
M 44.00 346.00 
C 41.96 344.34 38.65 343.85 36.00 343.00
C 37.83 345.55 41.04 345.51 44.00 346.00 Z"/>
</g>
<g fill="#885A00" fill-opacity="1.00" stroke="None">
<path d="
M 302.00 346.00 
C 259.27 348.32 215.76 345.12 173.00 346.00 C 130.24 346.88 87.73 346.00 45.00 346.00
C 52.30 351.40 67.50 345.17 77.00 347.00 C 86.50 348.83 98.76 346.20 109.00 347.00 C 119.24 347.80 131.47 346.63 142.00 347.00 C 152.53 347.37 163.37 346.84 174.00 347.00 C 184.63 347.16 195.30 346.94 206.00 347.00 C 216.70 347.06 228.32 346.99 239.00 347.00 C 249.68 347.01 260.45 347.05 271.00 347.00 C 281.55 346.95 292.25 347.58 302.00 346.00 Z"/>
</g>
<g fill="#808080" fill-opacity="1.00" stroke="None">
<path d="
M 305.00 353.00 
C 276.14 355.29 245.91 352.55 217.00 353.00 C 188.09 353.45 158.78 354.16 130.00 353.00 C 101.22 351.84 71.50 356.53 43.00 353.00
C 63.05 357.97 86.65 352.61 108.00 354.00 C 129.35 355.39 152.44 353.80 174.00 354.00 C 195.56 354.20 218.52 354.86 240.00 354.00 C 261.48 353.14 284.55 356.95 305.00 353.00 Z"/>
</g>
</svg>