<svg xmlns="http://www.w3.org/2000/svg" xmlns:v="https://svgstorm.com"
viewBox = "0 0 100 66"
width="100"
height="66">
<g fill="#000000" fill-opacity="0.00" stroke="None">
<path d="
M 0.00 66.00 
L 100.00 66.00
L 100.00 0.00
L 0.00 0.00
L 0.00 66.00
M 54.00 8.00 
C 58.87 9.46 65.18 6.41 70.00 8.00
C 71.22 8.40 72.61 9.83 73.00 11.00
C 74.44 15.36 72.42 21.42 73.00 26.00
C 73.63 28.10 76.38 28.94 77.00 31.00
C 79.59 39.66 74.30 44.78 77.00 54.00 C 79.70 63.22 72.13 66.78 64.00 65.00 C 55.87 63.22 48.26 66.55 41.00 65.00 C 33.74 63.45 23.43 68.63 20.00 62.00
C 17.13 56.45 17.40 36.55 20.00 31.00
C 20.70 29.50 23.59 28.10 24.00 27.00
C 25.07 23.43 20.65 4.71 29.00 8.00 C 37.36 11.30 43.71 2.78 50.00 4.00
C 51.92 4.37 52.71 7.52 54.00 8.00
M 16.00 26.00 
C 12.62 28.49 6.50 23.87 5.00 21.00
C 8.76 19.20 12.96 24.07 16.00 26.00
M 91.00 20.00 
C 91.36 24.89 84.98 25.47 82.00 28.00
C 79.45 23.24 88.14 22.04 91.00 20.00
M 13.00 32.00 
C 13.25 32.26 13.00 33.00 13.00 33.00
C 11.27 34.79 3.68 34.74 2.00 33.00
C 1.75 32.74 2.00 32.00 2.00 32.00
C 3.73 30.21 11.32 30.26 13.00 32.00
M 95.00 31.00 
C 95.66 35.74 83.19 35.66 83.00 31.00
C 87.00 31.00 91.00 31.00 95.00 31.00
M 16.00 37.00 
C 15.80 40.79 8.33 45.39 5.00 43.00
C 7.80 40.14 12.03 37.74 16.00 37.00
M 91.00 44.00 
C 87.17 43.46 81.08 41.42 81.00 37.00
C 84.52 38.38 90.28 39.51 91.00 44.00 Z"/>
</g>
<g fill="#3F626F" fill-opacity="0.73" stroke="None">
<path d="
M 24.00 27.00 
C 23.46 28.81 20.47 29.74 20.00 31.00
C 18.55 34.94 19.92 41.67 20.00 46.00 C 20.08 50.33 18.61 57.87 20.00 62.00
C 23.43 68.63 33.74 63.45 41.00 65.00 C 48.26 66.55 55.87 63.22 64.00 65.00 C 72.13 66.78 79.70 63.22 77.00 54.00 C 74.30 44.78 79.59 39.66 77.00 31.00
C 76.18 28.78 73.25 27.95 73.00 26.00
C 72.42 21.42 74.44 15.36 73.00 11.00
C 73.03 11.06 69.85 7.94 70.00 8.00
C 65.18 6.41 58.87 9.46 54.00 8.00
C 52.35 7.51 51.09 4.29 50.00 4.00
C 43.71 2.78 37.36 11.30 29.00 8.00 C 20.65 4.71 25.07 23.43 24.00 27.00
M 51.00 8.00 
C 52.26 8.28 45.30 10.72 46.00 8.00
C 46.67 5.40 50.35 5.47 51.00 8.00
M 70.00 11.00 
C 73.17 14.17 71.97 34.23 69.00 37.00
C 67.99 37.94 64.46 39.09 63.00 40.00
C 61.58 41.09 60.78 42.13 59.00 43.00
C 54.68 45.10 54.38 43.27 50.00 43.00
C 47.86 42.87 46.86 43.63 45.00 44.00
C 41.31 44.74 39.37 43.82 36.00 42.00
C 34.30 41.08 33.36 40.04 32.00 39.00
C 30.06 37.80 26.77 36.33 26.00 34.00
C 24.15 28.39 26.00 18.96 26.00 13.00
C 26.00 12.50 26.00 12.00 26.00 12.00
C 27.20 7.99 42.65 9.69 47.00 10.00 C 51.35 10.31 66.81 7.81 70.00 11.00
M 23.00 34.00 
C 21.19 33.26 21.22 32.54 22.00 31.00
C 22.61 29.79 23.45 28.72 25.00 29.00
C 25.01 30.60 25.64 36.81 23.00 34.00
M 72.00 29.00 
C 78.94 32.62 69.52 37.94 72.00 29.00
M 27.00 39.00 
C 28.41 39.71 28.81 40.05 30.00 41.00
C 32.00 42.17 37.85 44.48 39.00 46.00
C 40.76 45.09 38.25 47.83 38.00 48.00
C 33.65 51.97 26.65 53.39 22.00 57.00
C 22.00 50.00 22.00 43.00 22.00 36.00
C 23.67 37.11 25.13 38.30 27.00 39.00
M 74.00 57.00 
C 71.98 57.22 68.74 53.43 66.75 52.25 C 64.77 51.07 59.81 49.39 58.00 48.00
C 55.71 46.24 56.50 47.20 58.00 46.00
C 59.63 44.21 71.81 36.62 74.00 37.00
C 75.74 37.30 75.67 56.82 74.00 57.00
M 59.00 51.00 
C 60.41 51.71 60.81 52.05 62.00 53.00
C 65.01 54.76 70.68 56.86 73.00 59.00
C 78.30 63.90 65.28 63.60 61.00 63.00 C 56.72 62.40 45.19 64.04 41.00 63.00 C 36.81 61.96 23.78 65.63 22.00 62.00
C 20.85 59.64 31.39 55.76 33.70 53.70 C 36.01 51.64 42.82 48.08 46.08 46.08 C 49.35 44.08 55.85 48.89 59.00 51.00 Z"/>
</g>
<g fill="#8598A2" fill-opacity="0.17" stroke="None">
<path d="
M 54.00 8.00 
C 52.71 7.52 51.92 4.37 50.00 4.00
C 51.09 4.29 52.35 7.51 54.00 8.00 Z"/>
</g>
<g fill="#F3F5F5" fill-opacity="1.00" stroke="None">
<path d="
M 46.00 8.00 
C 47.24 7.73 49.76 7.73 51.00 8.00
C 50.35 5.47 46.67 5.40 46.00 8.00 Z"/>
</g>
<g fill="#8AA0A9" fill-opacity="1.00" stroke="None">
<path d="
M 51.00 8.00 
C 49.76 7.73 47.24 7.73 46.00 8.00
C 45.30 10.72 52.26 8.28 51.00 8.00 Z"/>
</g>
<g fill="#7D939C" fill-opacity="0.24" stroke="None">
<path d="
M 73.00 11.00 
C 72.61 9.83 71.22 8.40 70.00 8.00
C 69.85 7.94 73.03 11.06 73.00 11.00 Z"/>
</g>
<g fill="#53677A" fill-opacity="0.05" stroke="None">
<path d="
M 26.00 12.00 
C 31.10 7.89 40.52 12.32 47.00 11.00 C 53.48 9.68 63.23 11.99 70.00 11.00
C 66.81 7.81 51.35 10.31 47.00 10.00 C 42.65 9.69 27.20 7.99 26.00 12.00 Z"/>
</g>
<g fill="#000000" fill-opacity="0.00" stroke="None">
<path d="
M 26.00 12.00 
C 26.00 12.00 26.00 12.50 26.00 13.00
C 29.90 18.27 24.78 28.93 26.00 34.00
C 26.77 36.33 30.06 37.80 32.00 39.00
C 33.47 39.91 34.76 41.17 36.00 42.00
C 39.37 43.82 41.31 44.74 45.00 44.00
C 47.52 43.34 46.96 42.36 50.00 43.00
C 54.38 43.27 54.68 45.10 59.00 43.00
C 60.24 42.24 61.59 40.87 63.00 40.00
C 64.46 39.09 67.99 37.94 69.00 37.00
C 73.78 30.76 67.49 18.14 70.00 11.00
C 63.23 11.99 53.48 9.68 47.00 11.00 C 40.52 12.32 31.10 7.89 26.00 12.00
M 57.00 31.00 
C 56.26 32.60 54.54 34.29 53.00 35.00
C 43.85 39.23 35.64 29.77 40.00 21.00
C 40.69 19.60 41.71 18.72 43.00 18.00
C 51.38 13.30 61.26 21.78 57.00 31.00 Z"/>
</g>
<g fill="#6E8B99" fill-opacity="0.52" stroke="None">
<path d="
M 69.00 37.00 
C 71.97 34.23 73.17 14.17 70.00 11.00
C 67.49 18.14 73.78 30.76 69.00 37.00 Z"/>
</g>
<g fill="#FFFFFF" fill-opacity="0.01" stroke="None">
<path d="
M 26.00 34.00 
C 24.78 28.93 29.90 18.27 26.00 13.00
C 26.00 18.96 24.15 28.39 26.00 34.00 Z"/>
</g>
<g fill="#35AEBE" fill-opacity="0.89" stroke="None">
<path d="
M 43.00 18.00 
C 42.63 18.26 40.18 20.71 40.00 21.00
C 35.64 29.77 43.85 39.23 53.00 35.00
C 53.39 34.78 56.82 31.32 57.00 31.00
C 61.26 21.78 51.38 13.30 43.00 18.00
M 43.00 27.00 
C 44.03 24.63 45.67 27.83 47.00 28.00
C 48.26 26.07 50.00 24.09 52.00 23.00
C 56.56 21.19 48.32 29.24 47.00 31.00
C 45.43 30.04 43.75 28.68 43.00 27.00 Z"/>
</g>
<g fill="#E2F0EB" fill-opacity="0.06" stroke="None">
<path d="
M 40.00 21.00 
C 40.18 20.71 42.63 18.26 43.00 18.00
C 41.71 18.72 40.69 19.60 40.00 21.00 Z"/>
</g>
<g fill="#77CBD6" fill-opacity="0.53" stroke="None">
<path d="
M 16.00 26.00 
C 12.96 24.07 8.76 19.20 5.00 21.00
C 6.50 23.87 12.62 28.49 16.00 26.00 Z"/>
</g>
<g fill="#79CCD7" fill-opacity="0.56" stroke="None">
<path d="
M 91.00 20.00 
C 88.14 22.04 79.45 23.24 82.00 28.00
C 84.98 25.47 91.36 24.89 91.00 20.00 Z"/>
</g>
<g fill="#A4DBE1" fill-opacity="1.00" stroke="None">
<path d="
M 52.00 23.00 
C 51.73 23.21 48.84 28.94 47.00 30.00
C 45.34 29.46 44.67 27.44 43.00 27.00
C 43.75 28.68 45.43 30.04 47.00 31.00
C 48.32 29.24 56.56 21.19 52.00 23.00 Z"/>
</g>
<g fill="#E3F3F5" fill-opacity="1.00" stroke="None">
<path d="
M 43.00 27.00 
C 44.67 27.44 45.34 29.46 47.00 30.00
C 48.84 28.94 51.73 23.21 52.00 23.00
C 50.00 24.09 48.26 26.07 47.00 28.00
C 45.67 27.83 44.03 24.63 43.00 27.00 Z"/>
</g>
<g fill="#6F838C" fill-opacity="0.24" stroke="None">
<path d="
M 77.00 31.00 
C 76.38 28.94 73.63 28.10 73.00 26.00
C 73.25 27.95 76.18 28.78 77.00 31.00 Z"/>
</g>
<g fill="#436570" fill-opacity="0.53" stroke="None">
<path d="
M 20.00 31.00 
C 20.47 29.74 23.46 28.81 24.00 27.00
C 23.59 28.10 20.70 29.50 20.00 31.00 Z"/>
</g>
<g fill="#829AA3" fill-opacity="1.00" stroke="None">
<path d="
M 22.00 31.00 
C 23.91 28.37 25.11 33.61 23.00 34.00
C 25.64 36.81 25.01 30.60 25.00 29.00
C 23.45 28.72 22.61 29.79 22.00 31.00 Z"/>
</g>
<g fill="#DAE0E2" fill-opacity="1.00" stroke="None">
<path d="
M 72.00 29.00 
C 69.52 37.94 78.94 32.62 72.00 29.00 Z"/>
</g>
<g fill="#EDF0F1" fill-opacity="1.00" stroke="None">
<path d="
M 22.00 31.00 
C 21.22 32.54 21.19 33.26 23.00 34.00
C 25.11 33.61 23.91 28.37 22.00 31.00 Z"/>
</g>
<g fill="#3FAFBD" fill-opacity="0.36" stroke="None">
<path d="
M 2.00 32.00 
C 5.47 31.69 9.53 31.69 13.00 32.00
C 11.32 30.26 3.73 30.21 2.00 32.00 Z"/>
</g>
<g fill="#A4B9C2" fill-opacity="0.22" stroke="None">
<path d="
M 20.00 62.00 
C 18.61 57.87 20.08 50.33 20.00 46.00 C 19.92 41.67 18.55 34.94 20.00 31.00
C 17.40 36.55 17.13 56.45 20.00 62.00 Z"/>
</g>
<g fill="#C9E6EB" fill-opacity="0.11" stroke="None">
<path d="
M 53.00 35.00 
C 54.54 34.29 56.26 32.60 57.00 31.00
C 56.82 31.32 53.39 34.78 53.00 35.00 Z"/>
</g>
<g fill="#73C1CD" fill-opacity="0.28" stroke="None">
<path d="
M 95.00 31.00 
C 91.00 31.00 87.00 31.00 83.00 31.00
C 83.19 35.66 95.66 35.74 95.00 31.00
M 94.00 32.00 
C 91.57 34.13 87.18 32.47 84.00 33.00
C 86.43 30.87 90.82 32.53 94.00 32.00 Z"/>
</g>
<g fill="#3EC5D6" fill-opacity="0.95" stroke="None">
<path d="
M 2.00 33.00 
C 5.47 33.31 9.53 33.31 13.00 33.00
C 13.00 33.00 13.25 32.26 13.00 32.00
C 9.53 31.69 5.47 31.69 2.00 32.00
C 2.00 32.00 1.75 32.74 2.00 33.00 Z"/>
</g>
<g fill="#38C4D6" fill-opacity="1.00" stroke="None">
<path d="
M 94.00 32.00 
C 90.82 32.53 86.43 30.87 84.00 33.00
C 87.18 32.47 91.57 34.13 94.00 32.00 Z"/>
</g>
<g fill="#8CCDDF" fill-opacity="0.25" stroke="None">
<path d="
M 13.00 33.00 
C 9.53 33.31 5.47 33.31 2.00 33.00
C 3.68 34.74 11.27 34.79 13.00 33.00 Z"/>
</g>
<g fill="#000000" fill-opacity="0.00" stroke="None">
<path d="
M 38.00 48.00 
C 38.30 47.73 38.78 46.12 39.00 46.00
C 37.85 44.48 32.00 42.17 30.00 41.00
C 28.87 40.34 27.93 39.62 27.00 39.00
C 25.13 38.30 23.67 37.11 22.00 36.00
C 22.00 43.00 22.00 50.00 22.00 57.00
C 26.65 53.39 33.65 51.97 38.00 48.00 Z"/>
</g>
<g fill="#E6EEEE" fill-opacity="0.11" stroke="None">
<path d="
M 74.00 37.00 
C 72.75 40.81 72.75 53.19 74.00 57.00
C 75.67 56.82 75.74 37.30 74.00 37.00 Z"/>
</g>
<g fill="#80CED8" fill-opacity="0.51" stroke="None">
<path d="
M 16.00 37.00 
C 12.03 37.74 7.80 40.14 5.00 43.00
C 8.33 45.39 15.80 40.79 16.00 37.00 Z"/>
</g>
<g fill="#000000" fill-opacity="0.00" stroke="None">
<path d="
M 58.00 46.00 
C 57.75 46.27 57.77 47.86 58.00 48.00
C 59.81 49.39 64.77 51.07 66.75 52.25 C 68.74 53.43 71.98 57.22 74.00 57.00
C 72.75 53.19 72.75 40.81 74.00 37.00
C 71.81 36.62 59.63 44.21 58.00 46.00 Z"/>
</g>
<g fill="#77CCD7" fill-opacity="0.56" stroke="None">
<path d="
M 91.00 44.00 
C 90.28 39.51 84.52 38.38 81.00 37.00
C 81.08 41.42 87.17 43.46 91.00 44.00 Z"/>
</g>
<g fill="#AEBAC2" fill-opacity="0.24" stroke="None">
<path d="
M 30.00 41.00 
C 28.81 40.05 28.41 39.71 27.00 39.00
C 27.93 39.62 28.87 40.34 30.00 41.00 Z"/>
</g>
<g fill="#9CADB2" fill-opacity="0.23" stroke="None">
<path d="
M 36.00 42.00 
C 34.76 41.17 33.47 39.91 32.00 39.00
C 33.36 40.04 34.30 41.08 36.00 42.00 Z"/>
</g>
<g fill="#A0B0B6" fill-opacity="0.27" stroke="None">
<path d="
M 59.00 43.00 
C 60.78 42.13 61.58 41.09 63.00 40.00
C 61.59 40.87 60.24 42.24 59.00 43.00 Z"/>
</g>
<g fill="#8699A1" fill-opacity="0.26" stroke="None">
<path d="
M 45.00 44.00 
C 46.86 43.63 47.86 42.87 50.00 43.00
C 46.96 42.36 47.52 43.34 45.00 44.00 Z"/>
</g>
<g fill="#000000" fill-opacity="0.00" stroke="None">
<path d="
M 22.00 62.00 
C 39.33 62.00 56.67 62.00 74.00 62.00
C 74.53 60.72 73.03 60.14 73.00 59.00
C 70.68 56.86 65.01 54.76 62.00 53.00
C 60.87 52.34 59.93 51.62 59.00 51.00
C 55.85 48.89 49.35 44.08 46.08 46.08 C 42.82 48.08 36.01 51.64 33.70 53.70 C 31.39 55.76 20.85 59.64 22.00 62.00 Z"/>
</g>
<g fill="#8B9CA0" fill-opacity="0.29" stroke="None">
<path d="
M 38.00 48.00 
C 38.25 47.83 40.76 45.09 39.00 46.00
C 38.78 46.12 38.30 47.73 38.00 48.00 Z"/>
</g>
<g fill="#95A6AF" fill-opacity="0.34" stroke="None">
<path d="
M 58.00 48.00 
C 57.77 47.86 57.75 46.27 58.00 46.00
C 56.50 47.20 55.71 46.24 58.00 48.00 Z"/>
</g>
<g fill="#B5C0C5" fill-opacity="0.22" stroke="None">
<path d="
M 62.00 53.00 
C 60.81 52.05 60.41 51.71 59.00 51.00
C 59.93 51.62 60.87 52.34 62.00 53.00 Z"/>
</g>
<g fill="#7F9BA1" fill-opacity="0.32" stroke="None">
<path d="
M 22.00 62.00 
C 23.78 65.63 36.81 61.96 41.00 63.00 C 45.19 64.04 56.72 62.40 61.00 63.00 C 65.28 63.60 78.30 63.90 73.00 59.00
C 73.03 60.14 74.53 60.72 74.00 62.00
C 56.67 62.00 39.33 62.00 22.00 62.00 Z"/>
</g>
</svg>