<svg xmlns="http://www.w3.org/2000/svg" xmlns:v="https://svgstorm.com"
viewBox = "0 0 355 361"
width="355"
height="361">
<g fill="#FEFEFE" fill-opacity="1.00" stroke="None">
<path d="
M 0.00 361.00 
L 355.00 361.00
L 355.00 191.00
C 352.67 198.88 342.44 203.64 339.00 211.00
C 335.82 221.62 340.36 234.87 339.00 246.00 C 337.64 257.13 339.45 269.71 339.00 281.00 C 338.55 292.29 339.27 304.45 338.00 315.00
C 337.62 334.04 322.19 351.69 303.00 353.00
C 276.04 357.83 246.11 353.12 218.00 354.00 C 189.89 354.88 159.17 354.94 131.00 354.00 C 102.83 353.06 72.01 357.84 45.00 353.00
C 30.77 352.03 16.26 342.35 11.69 327.31 C 7.13 312.26 8.63 288.19 9.00 271.00 C 9.37 253.81 7.31 228.89 9.00 212.00 C 10.69 195.11 3.36 169.55 12.25 156.25 C 21.14 142.94 38.60 139.34 36.00 121.00 C 33.40 102.66 34.47 83.40 42.75 68.75 C 51.04 54.11 66.58 49.08 83.00 50.00 C 99.42 50.92 120.28 52.32 130.75 38.75 C 141.23 25.19 149.54 18.49 164.68 13.68 C 179.81 8.86 196.90 16.92 207.25 28.75 C 217.60 40.58 227.93 52.48 245.00 50.00 C 262.07 47.52 281.98 48.98 295.75 58.25 C 309.51 67.52 313.87 84.80 312.00 101.00
C 330.22 104.98 346.54 118.46 355.00 135.00
L 355.00 0.00
L 0.00 0.00
L 0.00 361.00 Z"/>
</g>
<g fill="#000000" fill-opacity="1.00" stroke="None">
<path d="
M 45.00 353.00 
C 87.55 355.90 131.34 353.00 174.00 353.00 C 216.66 353.00 260.45 355.90 303.00 353.00
C 322.19 351.69 337.62 334.04 338.00 315.00
C 338.23 303.61 337.42 291.29 338.00 280.00 C 338.58 268.71 336.68 255.93 338.00 245.00 C 339.32 234.07 334.59 220.43 339.00 211.00
C 342.44 203.64 352.67 198.88 355.00 191.00
L 355.00 135.00
C 346.54 118.46 330.22 104.98 312.00 101.00
C 313.87 84.80 309.51 67.52 295.75 58.25 C 281.98 48.98 262.07 47.52 245.00 50.00 C 227.93 52.48 217.60 40.58 207.25 28.75 C 196.90 16.92 179.81 8.86 164.68 13.68 C 149.54 18.49 141.23 25.19 130.75 38.75 C 120.28 52.32 99.42 50.92 83.00 50.00 C 66.58 49.08 51.04 54.11 42.75 68.75 C 34.47 83.40 33.40 102.66 36.00 121.00 C 38.60 139.34 21.14 142.94 12.25 156.25 C 3.36 169.55 10.69 195.11 9.00 212.00 C 7.31 228.89 9.37 253.81 9.00 271.00 C 8.63 288.19 7.13 312.26 11.69 327.31 C 16.26 342.35 30.77 352.03 45.00 353.00
M 178.00 20.00 
C 183.09 21.13 188.29 22.70 193.00 25.00
C 203.45 30.11 211.43 43.10 219.00 51.00
C 189.00 51.00 159.00 51.00 129.00 51.00
C 135.82 41.49 145.62 32.18 155.00 25.00
C 159.70 22.70 164.86 21.14 170.00 20.00
C 173.01 19.33 175.04 19.34 178.00 20.00
M 305.00 87.00 
C 305.69 89.86 307.67 97.41 305.00 100.00
C 304.74 100.25 304.00 100.00 304.00 100.00
C 299.67 100.00 295.33 99.91 291.00 100.00
C 282.32 100.17 274.48 102.86 267.00 107.00
C 265.65 107.92 264.58 109.09 263.00 110.00
C 261.39 110.93 259.60 111.74 258.00 113.00
C 254.77 115.99 250.94 119.82 248.00 123.00
C 244.48 127.46 241.89 131.75 240.00 137.00
C 239.45 138.54 238.65 139.73 238.00 141.00
C 236.27 145.63 235.27 149.94 235.00 155.00
C 234.72 160.20 234.65 165.81 235.00 171.00
C 235.58 179.48 238.56 187.83 243.00 195.00
C 244.08 196.42 245.11 197.25 246.00 199.00
C 246.32 199.63 246.65 200.42 247.00 201.00
C 251.71 206.05 259.39 210.44 263.00 216.00
C 263.44 216.16 264.00 216.00 264.00 216.00
C 269.14 218.21 259.88 224.18 258.00 226.00
C 253.16 231.50 247.37 239.19 241.00 243.00
C 236.52 245.68 230.73 235.26 225.75 231.25 C 220.78 227.23 214.91 219.89 209.75 215.25 C 204.59 210.60 198.74 203.48 193.00 200.00
C 184.80 196.08 176.03 194.32 167.00 196.00
C 165.34 196.46 163.00 197.46 161.00 198.00
C 158.95 198.55 156.97 199.06 155.00 200.00
C 137.37 210.69 124.95 231.73 109.00 245.00
C 86.08 225.24 64.55 201.72 43.00 180.00
C 39.09 171.64 42.90 159.75 42.00 150.00 C 41.10 140.25 42.06 127.99 42.00 118.00 C 41.94 108.01 40.81 96.11 43.00 87.00
C 44.27 81.69 45.89 75.67 49.00 71.00
C 50.88 68.17 54.08 64.66 57.00 63.00
C 82.23 48.64 116.04 60.06 145.00 57.00 C 173.96 53.94 210.94 59.44 240.00 57.00 C 269.06 54.56 297.55 55.99 305.00 87.00
M 333.00 119.00 
C 355.25 138.20 361.13 169.59 344.25 194.25 C 327.36 218.90 294.76 225.70 270.00 211.00
C 259.99 205.06 253.52 198.23 248.00 188.00
C 235.94 165.66 241.30 135.35 261.75 118.75 C 282.21 102.16 313.37 102.06 333.00 119.00
M 36.00 144.00 
C 37.52 146.69 36.00 154.81 36.00 158.00 C 36.00 161.19 37.52 169.31 36.00 172.00
C 35.12 173.55 30.44 167.70 28.75 166.25 C 27.06 164.79 23.24 160.16 21.00 159.00
C 24.07 153.55 31.43 145.99 36.00 144.00
M 103.00 250.00 
C 98.40 261.03 83.41 267.47 76.25 277.25 C 69.09 287.02 57.34 294.90 49.25 304.25 C 41.16 313.59 30.67 322.31 22.00 331.00
C 18.16 325.23 16.30 320.54 16.01 312.99 C 15.71 305.45 16.08 295.91 16.00 288.00 C 15.92 280.09 15.92 271.00 16.00 263.00 C 16.08 255.00 15.69 246.98 16.00 239.00 C 16.31 231.02 15.28 221.85 16.00 214.00 C 16.72 206.15 14.40 196.38 16.00 189.00 C 17.60 181.62 12.44 170.29 16.00 164.00
C 16.53 163.07 25.74 171.91 28.25 174.75 C 30.76 177.60 37.36 183.67 40.75 187.25 C 44.15 190.83 49.48 195.83 53.25 199.75 C 57.02 203.68 61.88 208.14 65.75 212.25 C 69.62 216.36 74.47 220.50 78.25 224.75 C 82.03 229.01 87.32 232.79 90.75 237.25 C 94.18 241.71 100.86 244.88 103.00 250.00
M 195.00 210.00 
C 211.25 220.81 222.30 239.05 237.25 251.75 C 252.19 264.46 264.67 280.42 279.25 293.75 C 293.83 307.08 307.17 323.02 322.00 336.00
C 319.83 339.21 316.63 342.06 313.00 343.00
C 309.52 344.25 305.62 345.06 302.00 346.00
C 292.44 348.48 281.47 346.55 271.00 347.00 C 260.53 347.45 249.65 346.83 239.00 347.00 C 228.35 347.17 216.69 346.98 206.00 347.00 C 195.31 347.02 184.62 347.13 174.00 347.00 C 163.38 346.87 152.53 347.36 142.00 347.00 C 131.47 346.64 119.24 347.79 109.00 347.00 C 98.76 346.21 86.50 348.82 77.00 347.00 C 67.50 345.18 52.30 351.40 45.00 346.00
C 44.50 346.00 44.00 346.00 44.00 346.00
C 41.04 345.51 37.83 345.55 36.00 343.00
C 35.55 342.85 35.00 343.00 35.00 343.00
C 32.96 342.55 26.00 338.81 26.00 336.00
C 26.00 330.89 37.01 326.48 39.75 321.75 C 42.49 317.03 49.95 312.44 53.75 307.75 C 57.55 303.06 63.47 298.42 67.75 293.75 C 72.03 289.09 77.25 284.40 81.75 279.75 C 86.26 275.11 91.13 270.36 95.75 265.75 C 100.37 261.14 105.05 256.29 109.75 251.75 C 114.45 247.22 118.95 242.13 123.75 237.75 C 128.56 233.38 132.75 227.77 137.75 223.75 C 142.75 219.74 146.32 212.78 152.00 210.00
C 152.40 209.80 153.00 210.00 153.00 210.00
C 159.81 207.54 166.05 201.97 174.00 203.00 C 181.95 204.04 188.33 205.56 195.00 210.00
M 331.00 317.00 
C 330.24 320.16 329.56 325.19 328.00 328.00
C 327.47 328.96 326.82 329.80 327.00 331.00
C 298.75 305.91 271.88 277.05 245.00 250.00
C 244.80 249.60 245.00 249.00 245.00 249.00
C 247.67 243.55 255.19 238.68 259.25 234.25 C 263.31 229.82 270.00 221.07 275.00 222.00
C 279.52 222.84 283.12 224.74 288.00 225.00
C 294.50 225.35 301.51 225.44 308.00 225.00
C 315.95 224.46 321.98 221.10 329.00 218.00
C 329.85 217.63 330.26 215.05 332.00 216.00
C 331.33 249.50 333.33 284.32 331.00 317.00 Z"/>
</g>
<g fill="#86570A" fill-opacity="1.00" stroke="None">
<path d="
M 170.00 20.00 
C 172.48 19.75 175.52 19.75 178.00 20.00
C 175.04 19.34 173.01 19.33 170.00 20.00 Z"/>
</g>
<g fill="#000000" fill-opacity="0.00" stroke="None">
<path d="
M 155.00 25.00 
C 145.99 31.06 137.91 42.08 131.00 50.00
C 159.67 50.00 188.33 50.00 217.00 50.00
C 211.12 40.47 200.55 33.13 193.00 25.00
C 188.29 22.70 183.09 21.13 178.00 20.00
C 175.52 19.75 172.48 19.75 170.00 20.00
C 164.86 21.14 159.70 22.70 155.00 25.00 Z"/>
</g>
<g fill="#392303" fill-opacity="1.00" stroke="None">
<path d="
M 193.00 25.00 
C 200.55 33.13 211.12 40.47 217.00 50.00
C 188.33 50.00 159.67 50.00 131.00 50.00
C 137.91 42.08 145.99 31.06 155.00 25.00
C 145.62 32.18 135.82 41.49 129.00 51.00
C 159.00 51.00 189.00 51.00 219.00 51.00
C 211.43 43.10 203.45 30.11 193.00 25.00 Z"/>
</g>
<g fill="#000000" fill-opacity="0.00" stroke="None">
<path d="
M 57.00 63.00 
C 54.86 64.44 50.57 68.99 49.00 71.00
C 45.89 75.67 44.27 81.69 43.00 87.00
C 41.84 96.87 42.97 108.09 43.00 118.00 C 43.03 127.91 41.75 139.35 43.00 149.00 C 44.25 158.65 39.70 171.05 43.00 180.00
C 45.19 185.92 55.45 190.14 59.25 195.75 C 63.05 201.36 70.54 206.67 75.25 211.75 C 79.96 216.83 86.70 221.56 91.25 227.75 C 95.80 233.94 102.82 237.67 107.00 244.00
C 125.11 230.65 136.06 211.63 155.00 200.00
C 156.97 199.06 158.95 198.55 161.00 198.00
C 162.94 197.28 164.63 196.44 167.00 196.00
C 176.03 194.32 184.80 196.08 193.00 200.00
C 199.23 202.98 204.58 210.08 209.75 214.25 C 214.92 218.42 220.68 225.74 225.25 229.75 C 229.82 233.77 236.24 244.51 241.00 243.00
C 247.37 239.19 253.16 231.50 258.00 226.00
C 259.98 223.75 266.45 218.93 264.00 216.00
C 264.00 216.00 263.44 216.16 263.00 216.00
C 257.13 213.88 250.14 206.15 247.00 201.00
C 246.65 200.42 246.32 199.63 246.00 199.00
C 244.86 197.61 244.00 196.62 243.00 195.00
C 238.56 187.83 235.58 179.48 235.00 171.00
C 234.07 165.83 234.17 160.10 235.00 155.00
C 235.27 149.94 236.27 145.63 238.00 141.00
C 238.56 139.51 239.38 138.24 240.00 137.00
C 241.89 131.75 244.48 127.46 248.00 123.00
C 250.89 119.34 254.39 115.85 258.00 113.00
C 259.60 111.74 261.39 110.93 263.00 110.00
C 264.38 109.01 265.35 107.91 267.00 107.00
C 274.48 102.86 282.32 100.17 291.00 100.00
C 294.49 99.58 300.59 97.48 304.00 100.00
C 304.00 100.00 304.74 100.25 305.00 100.00
C 305.36 95.97 305.47 91.02 305.00 87.00
C 297.55 55.99 269.06 54.56 240.00 57.00 C 210.94 59.44 173.96 53.94 145.00 57.00 C 116.04 60.06 82.23 48.64 57.00 63.00 Z"/>
</g>
<g fill="#A5A19B" fill-opacity="1.00" stroke="None">
<path d="
M 49.00 71.00 
C 50.57 68.99 54.86 64.44 57.00 63.00
C 54.08 64.66 50.88 68.17 49.00 71.00 Z"/>
</g>
<g fill="#3C3A37" fill-opacity="1.00" stroke="None">
<path d="
M 43.00 180.00 
C 39.70 171.05 44.25 158.65 43.00 149.00 C 41.75 139.35 43.03 127.91 43.00 118.00 C 42.97 108.09 41.84 96.87 43.00 87.00
C 40.81 96.11 41.94 108.01 42.00 118.00 C 42.06 127.99 41.10 140.25 42.00 150.00 C 42.90 159.75 39.09 171.64 43.00 180.00 Z"/>
</g>
<g fill="#4A4845" fill-opacity="1.00" stroke="None">
<path d="
M 305.00 100.00 
C 307.67 97.41 305.69 89.86 305.00 87.00
C 305.47 91.02 305.36 95.97 305.00 100.00 Z"/>
</g>
<g fill="#898681" fill-opacity="1.00" stroke="None">
<path d="
M 291.00 100.00 
C 295.33 99.91 299.67 100.00 304.00 100.00
C 300.59 97.48 294.49 99.58 291.00 100.00 Z"/>
</g>
<g fill="#31CA03" fill-opacity="1.00" stroke="None">
<path d="
M 248.00 188.00 
C 253.50 191.08 261.01 178.15 260.00 174.00
C 256.32 158.87 265.28 156.41 274.25 145.25 C 283.22 134.09 301.87 136.87 299.00 154.00
C 303.33 154.00 307.67 154.00 312.00 154.00
C 309.60 143.34 314.45 126.32 328.00 131.00
C 331.51 130.39 333.78 125.63 337.00 124.00
C 336.19 121.96 333.73 121.03 333.00 119.00
C 313.37 102.06 282.21 102.16 261.75 118.75 C 241.30 135.35 235.94 165.66 248.00 188.00 Z"/>
</g>
<g fill="#898681" fill-opacity="1.00" stroke="None">
<path d="
M 263.00 110.00 
C 264.58 109.09 265.65 107.92 267.00 107.00
C 265.35 107.91 264.38 109.01 263.00 110.00 Z"/>
</g>
<g fill="#9B9791" fill-opacity="1.00" stroke="None">
<path d="
M 248.00 123.00 
C 250.94 119.82 254.77 115.99 258.00 113.00
C 254.39 115.85 250.89 119.34 248.00 123.00 Z"/>
</g>
<g fill="#0E990D" fill-opacity="1.00" stroke="None">
<path d="
M 328.00 131.00 
C 341.35 134.92 338.36 155.98 337.00 169.00 C 335.64 182.02 308.76 179.46 299.00 179.00
C 301.15 188.22 293.54 197.05 284.00 195.00
C 284.95 195.68 286.34 195.88 287.00 197.00
C 280.75 200.76 277.17 209.55 270.00 211.00
C 294.76 225.70 327.36 218.90 344.25 194.25 C 361.13 169.59 355.25 138.20 333.00 119.00
C 333.73 121.03 336.19 121.96 337.00 124.00
C 333.78 125.63 331.51 130.39 328.00 131.00 Z"/>
</g>
<g fill="#000000" fill-opacity="1.00" stroke="None">
<path d="
M 260.00 174.00 
C 265.45 182.10 276.47 189.61 284.00 195.00
C 293.54 197.05 301.15 188.22 299.00 179.00
C 308.76 179.46 335.64 182.02 337.00 169.00 C 338.36 155.98 341.35 134.92 328.00 131.00
C 314.45 126.32 309.60 143.34 312.00 154.00
C 307.67 154.00 303.33 154.00 299.00 154.00
C 301.87 136.87 283.22 134.09 274.25 145.25 C 265.28 156.41 256.32 158.87 260.00 174.00
M 330.00 142.00 
C 332.10 148.05 332.20 161.03 330.00 167.00
C 327.02 175.08 317.48 171.41 310.00 172.00 C 302.52 172.59 292.69 171.56 285.00 172.00
C 298.29 178.41 288.35 193.59 280.75 184.25 C 273.16 174.90 265.12 174.06 266.00 163.00
C 267.44 159.77 272.16 156.10 274.75 153.75 C 277.34 151.41 280.67 145.88 284.00 145.00
C 289.53 143.54 293.46 147.46 292.00 153.00
C 291.23 155.92 286.81 158.02 285.00 160.00
C 295.43 162.32 307.82 160.34 319.00 161.00
C 319.38 154.75 318.35 147.36 319.33 141.33 C 320.31 135.30 330.30 135.95 330.00 142.00 Z"/>
</g>
<g fill="#8E8A84" fill-opacity="1.00" stroke="None">
<path d="
M 238.00 141.00 
C 238.65 139.73 239.45 138.54 240.00 137.00
C 239.38 138.24 238.56 139.51 238.00 141.00 Z"/>
</g>
<g fill="#FCFCFC" fill-opacity="1.00" stroke="None">
<path d="
M 285.00 160.00 
C 285.50 156.91 291.20 155.39 292.00 153.00
C 293.46 147.46 289.53 143.54 284.00 145.00
C 281.42 145.86 277.52 152.17 275.25 154.25 C 272.97 156.33 267.36 160.47 266.00 163.00
C 265.12 174.06 273.16 174.90 280.75 184.25 C 288.35 193.59 298.29 178.41 285.00 172.00
C 292.69 171.56 302.52 172.59 310.00 172.00 C 317.48 171.41 327.02 175.08 330.00 167.00
C 331.40 160.68 331.29 148.34 330.00 142.00
C 330.30 135.95 320.31 135.30 319.33 141.33 C 318.35 147.36 319.38 154.75 319.00 161.00
C 307.82 160.34 295.43 162.32 285.00 160.00 Z"/>
</g>
<g fill="#6F6F6F" fill-opacity="1.00" stroke="None">
<path d="
M 330.00 167.00 
C 332.20 161.03 332.10 148.05 330.00 142.00
C 331.29 148.34 331.40 160.68 330.00 167.00 Z"/>
</g>
<g fill="#743801" fill-opacity="1.00" stroke="None">
<path d="
M 36.00 172.00 
C 30.85 168.31 27.10 162.64 22.00 159.00
C 24.84 153.14 31.22 148.51 36.00 144.00
C 31.43 145.99 24.07 153.55 21.00 159.00
C 23.24 160.16 27.06 164.79 28.75 166.25 C 30.44 167.70 35.12 173.55 36.00 172.00 Z"/>
</g>
<g fill="#000000" fill-opacity="0.00" stroke="None">
<path d="
M 36.00 172.00 
C 37.52 169.31 36.00 161.19 36.00 158.00 C 36.00 154.81 37.52 146.69 36.00 144.00
C 31.22 148.51 24.84 153.14 22.00 159.00
C 27.10 162.64 30.85 168.31 36.00 172.00 Z"/>
</g>
<g fill="#777877" fill-opacity="1.00" stroke="None">
<path d="
M 266.00 163.00 
C 267.36 160.47 272.97 156.33 275.25 154.25 C 277.52 152.17 281.42 145.86 284.00 145.00
C 280.67 145.88 277.34 151.41 274.75 153.75 C 272.16 156.10 267.44 159.77 266.00 163.00 Z"/>
</g>
<g fill="#7B7B7B" fill-opacity="1.00" stroke="None">
<path d="
M 285.00 160.00 
C 286.81 158.02 291.23 155.92 292.00 153.00
C 291.20 155.39 285.50 156.91 285.00 160.00 Z"/>
</g>
<g fill="#9D968E" fill-opacity="1.00" stroke="None">
<path d="
M 235.00 171.00 
C 234.65 165.81 234.72 160.20 235.00 155.00
C 234.17 160.10 234.07 165.83 235.00 171.00 Z"/>
</g>
<g fill="#AD812A" fill-opacity="1.00" stroke="None">
<path d="
M 16.00 164.00 
C 29.86 178.49 46.09 191.52 59.25 206.75 C 72.41 221.98 90.72 233.87 102.00 250.00
C 102.16 249.77 103.00 250.00 103.00 250.00
C 100.86 244.88 94.18 241.71 90.75 237.25 C 87.32 232.79 82.03 229.01 78.25 224.75 C 74.47 220.50 69.62 216.36 65.75 212.25 C 61.88 208.14 57.02 203.68 53.25 199.75 C 49.48 195.83 44.15 190.83 40.75 187.25 C 37.36 183.67 30.76 177.60 28.25 174.75 C 25.74 171.91 16.53 163.07 16.00 164.00 Z"/>
</g>
<g fill="#000000" fill-opacity="0.00" stroke="None">
<path d="
M 22.00 331.00 
C 33.94 316.52 49.59 305.07 61.75 290.75 C 73.92 276.43 91.29 265.32 102.00 250.00
C 90.72 233.87 72.41 221.98 59.25 206.75 C 46.09 191.52 29.86 178.49 16.00 164.00
C 12.44 170.29 17.60 181.62 16.00 189.00 C 14.40 196.38 16.72 206.15 16.00 214.00 C 15.28 221.85 16.31 231.02 16.00 239.00 C 15.69 246.98 16.08 255.00 16.00 263.00 C 15.92 271.00 15.92 280.09 16.00 288.00 C 16.08 295.91 15.71 305.45 16.01 312.99 C 16.30 320.54 18.16 325.23 22.00 331.00 Z"/>
</g>
<g fill="#20B307" fill-opacity="1.00" stroke="None">
<path d="
M 248.00 188.00 
C 253.52 198.23 259.99 205.06 270.00 211.00
C 277.17 209.55 280.75 200.76 287.00 197.00
C 286.34 195.88 284.95 195.68 284.00 195.00
C 276.47 189.61 265.45 182.10 260.00 174.00
C 261.01 178.15 253.50 191.08 248.00 188.00 Z"/>
</g>
<g fill="#8D8071" fill-opacity="1.00" stroke="None">
<path d="
M 155.00 200.00 
C 136.06 211.63 125.11 230.65 107.00 244.00
C 102.82 237.67 95.80 233.94 91.25 227.75 C 86.70 221.56 79.96 216.83 75.25 211.75 C 70.54 206.67 63.05 201.36 59.25 195.75 C 55.45 190.14 45.19 185.92 43.00 180.00
C 64.55 201.72 86.08 225.24 109.00 245.00
C 124.95 231.73 137.37 210.69 155.00 200.00 Z"/>
</g>
<g fill="#978C7F" fill-opacity="1.00" stroke="None">
<path d="
M 246.00 199.00 
C 245.11 197.25 244.08 196.42 243.00 195.00
C 244.00 196.62 244.86 197.61 246.00 199.00 Z"/>
</g>
<g fill="#9D9285" fill-opacity="1.00" stroke="None">
<path d="
M 161.00 198.00 
C 163.00 197.46 165.34 196.46 167.00 196.00
C 164.63 196.44 162.94 197.28 161.00 198.00 Z"/>
</g>
<g fill="#9F907E" fill-opacity="1.00" stroke="None">
<path d="
M 241.00 243.00 
C 236.24 244.51 229.82 233.77 225.25 229.75 C 220.68 225.74 214.92 218.42 209.75 214.25 C 204.58 210.08 199.23 202.98 193.00 200.00
C 198.74 203.48 204.59 210.60 209.75 215.25 C 214.91 219.89 220.78 227.23 225.75 231.25 C 230.73 235.26 236.52 245.68 241.00 243.00 Z"/>
</g>
<g fill="#8C8072" fill-opacity="1.00" stroke="None">
<path d="
M 263.00 216.00 
C 259.39 210.44 251.71 206.05 247.00 201.00
C 250.14 206.15 257.13 213.88 263.00 216.00 Z"/>
</g>
<g fill="#000000" fill-opacity="0.00" stroke="None">
<path d="
M 153.00 210.00 
C 148.69 220.31 135.03 226.12 128.25 235.25 C 121.47 244.37 110.41 251.99 102.75 260.75 C 95.09 269.51 85.81 277.13 77.75 285.75 C 69.69 294.37 60.46 302.64 52.25 311.25 C 44.03 319.86 34.73 328.07 27.00 337.00
C 29.55 339.25 32.71 340.79 35.00 343.00
C 35.00 343.00 35.55 342.85 36.00 343.00
C 38.65 343.85 41.96 344.34 44.00 346.00
C 44.00 346.00 44.50 346.00 45.00 346.00
C 73.39 346.00 101.60 346.63 130.00 346.00 C 158.40 345.37 187.65 347.64 216.00 346.00 C 244.35 344.36 273.90 349.75 302.00 346.00
C 305.62 345.06 309.52 344.25 313.00 343.00
C 315.77 341.73 318.14 338.47 321.00 337.00
C 279.67 294.17 236.29 252.79 195.00 210.00
C 188.33 205.56 181.95 204.04 174.00 203.00 C 166.05 201.97 159.81 207.54 153.00 210.00 Z"/>
</g>
<g fill="#1D1703" fill-opacity="1.00" stroke="None">
<path d="
M 26.00 336.00 
C 40.01 322.26 54.77 308.59 68.25 294.25 C 81.73 279.91 97.35 267.01 110.25 252.25 C 123.15 237.49 140.85 225.95 152.00 210.00
C 146.32 212.78 142.75 219.74 137.75 223.75 C 132.75 227.77 128.56 233.38 123.75 237.75 C 118.95 242.13 114.45 247.22 109.75 251.75 C 105.05 256.29 100.37 261.14 95.75 265.75 C 91.13 270.36 86.26 275.11 81.75 279.75 C 77.25 284.40 72.03 289.09 67.75 293.75 C 63.47 298.42 57.55 303.06 53.75 307.75 C 49.95 312.44 42.49 317.03 39.75 321.75 C 37.01 326.48 26.00 330.89 26.00 336.00 Z"/>
</g>
<g fill="#BA9214" fill-opacity="1.00" stroke="None">
<path d="
M 26.00 336.00 
C 26.00 338.81 32.96 342.55 35.00 343.00
C 32.71 340.79 29.55 339.25 27.00 337.00
C 34.73 328.07 44.03 319.86 52.25 311.25 C 60.46 302.64 69.69 294.37 77.75 285.75 C 85.81 277.13 95.09 269.51 102.75 260.75 C 110.41 251.99 121.47 244.37 128.25 235.25 C 135.03 226.12 148.69 220.31 153.00 210.00
C 153.00 210.00 152.40 209.80 152.00 210.00
C 140.85 225.95 123.15 237.49 110.25 252.25 C 97.35 267.01 81.73 279.91 68.25 294.25 C 54.77 308.59 40.01 322.26 26.00 336.00 Z"/>
</g>
<g fill="#A37F11" fill-opacity="1.00" stroke="None">
<path d="
M 313.00 343.00 
C 316.63 342.06 319.83 339.21 322.00 336.00
C 307.17 323.02 293.83 307.08 279.25 293.75 C 264.67 280.42 252.19 264.46 237.25 251.75 C 222.30 239.05 211.25 220.81 195.00 210.00
C 236.29 252.79 279.67 294.17 321.00 337.00
C 318.14 338.47 315.77 341.73 313.00 343.00 Z"/>
</g>
<g fill="#6D6D6D" fill-opacity="1.00" stroke="None">
<path d="
M 338.00 315.00 
C 339.27 304.45 338.55 292.29 339.00 281.00 C 339.45 269.71 337.64 257.13 339.00 246.00 C 340.36 234.87 335.82 221.62 339.00 211.00
C 334.59 220.43 339.32 234.07 338.00 245.00 C 336.68 255.93 338.58 268.71 338.00 280.00 C 337.42 291.29 338.23 303.61 338.00 315.00 Z"/>
</g>
<g fill="#CAB8A0" fill-opacity="1.00" stroke="None">
<path d="
M 258.00 226.00 
C 259.88 224.18 269.14 218.21 264.00 216.00
C 266.45 218.93 259.98 223.75 258.00 226.00 Z"/>
</g>
<g fill="#846220" fill-opacity="1.00" stroke="None">
<path d="
M 329.00 218.00 
C 332.75 217.85 330.72 232.58 331.00 239.00 C 331.28 245.42 331.03 257.40 331.00 265.00 C 330.97 272.60 331.37 282.93 331.00 291.00 C 330.63 299.07 331.96 308.86 331.00 317.00
C 333.33 284.32 331.33 249.50 332.00 216.00
C 330.26 215.05 329.85 217.63 329.00 218.00 Z"/>
</g>
<g fill="#000000" fill-opacity="0.00" stroke="None">
<path d="
M 329.00 218.00 
C 321.98 221.10 315.95 224.46 308.00 225.00
C 301.71 226.13 294.22 226.01 288.00 225.00
C 283.12 224.74 279.52 222.84 275.00 222.00
C 268.02 222.07 256.43 237.82 252.00 243.00
C 250.05 245.29 247.69 247.58 246.00 250.00
C 256.72 265.37 273.69 275.10 285.70 289.30 C 297.71 303.50 313.13 315.48 325.00 330.00
C 326.25 329.70 326.71 328.17 328.00 328.00
C 329.56 325.19 330.24 320.16 331.00 317.00
C 331.96 308.86 330.63 299.07 331.00 291.00 C 331.37 282.93 330.97 272.60 331.00 265.00 C 331.03 257.40 331.28 245.42 331.00 239.00 C 330.72 232.58 332.75 217.85 329.00 218.00 Z"/>
</g>
<g fill="#583C10" fill-opacity="1.00" stroke="None">
<path d="
M 245.00 249.00 
C 247.36 247.35 250.02 244.98 252.00 243.00
C 256.43 237.82 268.02 222.07 275.00 222.00
C 270.00 221.07 263.31 229.82 259.25 234.25 C 255.19 238.68 247.67 243.55 245.00 249.00 Z"/>
</g>
<g fill="#5D4617" fill-opacity="1.00" stroke="None">
<path d="
M 308.00 225.00 
C 301.51 225.44 294.50 225.35 288.00 225.00
C 294.22 226.01 301.71 226.13 308.00 225.00 Z"/>
</g>
<g fill="#E49323" fill-opacity="1.00" stroke="None">
<path d="
M 245.00 249.00 
C 245.00 249.00 244.80 249.60 245.00 250.00
C 245.25 250.25 246.00 250.00 246.00 250.00
C 247.69 247.58 250.05 245.29 252.00 243.00
C 250.02 244.98 247.36 247.35 245.00 249.00 Z"/>
</g>
<g fill="#774B11" fill-opacity="1.00" stroke="None">
<path d="
M 22.00 331.00 
C 30.67 322.31 41.16 313.59 49.25 304.25 C 57.34 294.90 69.09 287.02 76.25 277.25 C 83.41 267.47 98.40 261.03 103.00 250.00
C 103.00 250.00 102.16 249.77 102.00 250.00
C 91.29 265.32 73.92 276.43 61.75 290.75 C 49.59 305.07 33.94 316.52 22.00 331.00 Z"/>
</g>
<g fill="#A66918" fill-opacity="1.00" stroke="None">
<path d="
M 328.00 328.00 
C 326.71 328.17 326.25 329.70 325.00 330.00
C 313.13 315.48 297.71 303.50 285.70 289.30 C 273.69 275.10 256.72 265.37 246.00 250.00
C 246.00 250.00 245.25 250.25 245.00 250.00
C 271.88 277.05 298.75 305.91 327.00 331.00
C 326.82 329.80 327.47 328.96 328.00 328.00 Z"/>
</g>
<g fill="#A06B00" fill-opacity="1.00" stroke="None">
<path d="
M 44.00 346.00 
C 41.96 344.34 38.65 343.85 36.00 343.00
C 37.83 345.55 41.04 345.51 44.00 346.00 Z"/>
</g>
<g fill="#885A00" fill-opacity="1.00" stroke="None">
<path d="
M 302.00 346.00 
C 273.90 349.75 244.35 344.36 216.00 346.00 C 187.65 347.64 158.40 345.37 130.00 346.00 C 101.60 346.63 73.39 346.00 45.00 346.00
C 52.30 351.40 67.50 345.18 77.00 347.00 C 86.50 348.82 98.76 346.21 109.00 347.00 C 119.24 347.79 131.47 346.64 142.00 347.00 C 152.53 347.36 163.38 346.87 174.00 347.00 C 184.62 347.13 195.31 347.02 206.00 347.00 C 216.69 346.98 228.35 347.17 239.00 347.00 C 249.65 346.83 260.53 347.45 271.00 347.00 C 281.47 346.55 292.44 348.48 302.00 346.00 Z"/>
</g>
<g fill="#808080" fill-opacity="1.00" stroke="None">
<path d="
M 303.00 353.00 
C 260.45 355.90 216.66 353.00 174.00 353.00 C 131.34 353.00 87.55 355.90 45.00 353.00
C 72.01 357.84 102.83 353.06 131.00 354.00 C 159.17 354.94 189.89 354.88 218.00 354.00 C 246.11 353.12 276.04 357.83 303.00 353.00 Z"/>
</g>
</svg>