<svg xmlns="http://www.w3.org/2000/svg" xmlns:v="https://svgstorm.com"
viewBox = "0 0 96 77"
width="96"
height="77">
<g fill="None" fill-opacity="0.0" stroke="#000000" stroke-opacity="0.00" stroke-width="0.3"><path d="
M 0.00 77.00 
L 96.00 77.00
L 96.00 0.00
L 0.00 0.00
L 0.00 77.00
M 22.00 13.00 
C 23.15 13.57 24.23 12.95 24.00 15.00
C 27.35 16.25 25.14 18.96 23.00 20.00
C 22.84 20.45 23.00 21.00 23.00 21.00
C 23.12 21.26 23.89 21.65 24.00 22.00
C 24.03 22.12 23.08 23.86 23.00 24.00
C 23.09 24.19 24.50 24.01 25.00 24.00
C 26.54 23.97 28.65 24.05 29.00 26.00
C 29.17 26.43 29.00 27.50 29.00 28.00
C 31.01 32.73 30.43 41.30 29.00 46.00
C 27.86 50.21 27.00 53.13 27.00 58.00
C 27.29 61.00 29.89 68.22 27.00 71.00
C 21.66 72.27 21.17 69.21 21.00 65.00
C 20.76 63.87 20.34 61.53 20.00 60.00
C 19.99 60.25 19.05 62.11 19.00 63.00
C 18.95 64.00 19.05 65.00 19.00 66.00
C 18.91 67.78 18.80 67.77 18.00 69.00
C 16.95 70.60 15.86 71.92 13.00 71.00
C 10.18 68.29 12.00 57.05 12.00 53.00
C 12.00 51.67 12.00 50.33 12.00 49.00
C 10.61 44.26 5.60 33.95 10.00 28.00
C 10.00 27.50 10.00 27.00 10.00 27.00
C 10.42 22.73 14.97 25.39 16.00 22.00
C 15.75 21.74 16.00 21.00 16.00 21.00
C 14.07 17.79 12.82 18.03 15.00 15.00
C 16.16 13.39 14.98 14.00 17.00 13.00
C 19.17 11.93 19.87 11.95 22.00 13.00
M 6.00 18.00 
C 6.65 18.85 2.86 20.97 3.00 18.00
C 3.12 15.45 5.87 15.34 6.00 18.00
M 46.00 18.00 
C 46.50 18.00 47.00 18.00 47.00 18.00
C 48.06 18.82 48.40 20.65 50.00 21.00
C 48.84 22.28 48.39 24.14 47.00 25.00
C 46.89 25.48 47.00 26.00 47.00 26.00
C 47.00 26.50 47.09 27.52 47.00 28.00
C 47.11 28.21 48.50 27.97 49.00 28.00
C 50.89 28.11 50.94 28.76 52.00 30.00
C 52.16 30.27 52.95 30.65 53.00 31.00
C 53.74 36.15 53.47 42.82 53.00 48.00
C 49.95 50.98 51.00 56.04 51.00 60.00
C 51.00 63.16 52.20 69.89 50.00 72.00
C 49.84 72.23 48.47 72.11 48.00 72.00
C 46.95 71.76 45.15 70.06 45.00 69.00
C 44.57 68.29 45.00 65.85 45.00 65.00
C 45.00 63.00 45.00 61.00 45.00 59.00
C 45.00 58.50 45.00 57.50 45.00 57.00
C 44.66 56.77 44.00 57.00 44.00 57.00
C 44.00 57.50 44.00 58.00 44.00 58.00
C 44.20 59.71 43.27 59.99 43.00 61.00
C 42.80 61.10 42.97 62.50 43.00 63.00
C 43.14 65.39 43.17 67.26 42.00 69.00
C 41.18 70.22 39.84 71.85 38.00 71.00
C 34.83 69.53 37.52 56.20 38.00 54.00
C 38.00 53.17 38.24 51.79 38.00 51.00
C 36.43 48.33 29.79 25.01 41.00 28.00
C 40.57 27.32 40.27 26.75 40.00 26.00
C 39.40 24.29 39.68 22.33 38.00 21.00
C 39.88 20.76 39.46 18.45 41.00 18.00
C 41.31 17.76 42.00 18.00 42.00 18.00
C 43.36 16.68 44.66 16.70 46.00 18.00
M 5.00 21.00 
C 5.97 25.12 2.36 22.76 5.00 21.00
M 5.00 25.00 
C 5.97 29.12 2.36 26.76 5.00 25.00
M 73.00 39.00 
C 73.57 45.29 72.00 51.09 71.00 56.00
C 70.50 58.44 71.00 61.51 71.00 64.00
C 71.25 66.56 73.60 71.50 71.00 74.00
C 69.97 74.47 67.38 74.23 67.00 73.00
C 65.60 73.05 66.01 69.79 66.00 69.00
C 65.98 68.00 66.00 67.00 66.00 66.00
C 66.00 64.67 66.00 63.33 66.00 62.00
C 66.00 61.50 66.00 61.00 66.00 61.00
C 65.75 60.75 65.00 61.00 65.00 61.00
C 65.06 62.93 64.40 63.70 64.00 65.00
C 64.03 65.50 64.00 66.50 64.00 67.00
C 64.93 69.07 65.31 69.93 64.00 72.00
C 63.17 73.31 62.58 75.01 60.00 74.00
C 57.12 71.23 59.34 62.01 60.00 59.00
C 60.00 58.17 60.24 56.79 60.00 56.00
C 58.11 52.24 53.87 43.48 58.00 39.00
C 58.24 38.74 58.74 38.21 59.00 38.00
C 59.03 36.41 62.20 36.34 62.00 33.00
C 61.97 32.50 62.00 32.00 62.00 32.00
C 59.98 30.92 60.02 30.05 62.00 29.00
C 62.22 28.62 62.00 28.00 62.00 28.00
C 66.96 22.90 72.55 31.91 68.00 36.00
C 70.16 35.47 72.24 37.11 73.00 39.00
M 5.00 29.00 
C 5.97 33.12 2.36 30.76 5.00 29.00
M 5.00 33.00 
C 5.97 37.12 2.36 34.76 5.00 33.00
M 5.00 37.00 
C 5.97 41.12 2.36 38.76 5.00 37.00
M 88.00 42.00 
C 87.82 42.42 88.00 43.00 88.00 43.00
C 88.23 43.59 89.51 44.56 90.00 45.00
C 91.81 46.61 91.64 45.83 92.00 49.00
C 92.26 51.27 92.00 53.72 92.00 56.00
C 92.00 56.93 92.17 58.09 92.00 59.00
C 91.56 61.36 91.10 63.38 91.00 66.00
C 90.89 69.00 91.09 72.00 91.00 75.00
C 90.00 74.89 88.27 75.47 88.00 74.00
C 87.75 73.76 87.13 73.27 87.00 73.00
C 85.73 73.02 86.04 72.45 86.00 70.00
C 85.98 69.00 86.00 68.00 86.00 67.00
C 85.75 67.25 85.00 67.00 85.00 67.00
C 85.25 67.25 84.97 68.50 85.00 69.00
C 85.08 70.59 85.59 73.19 84.00 74.00
C 83.60 74.20 83.00 74.00 83.00 74.00
C 78.29 77.75 80.71 64.32 81.00 63.00
C 81.00 62.07 81.17 60.91 81.00 60.00
C 79.92 57.50 78.60 56.66 79.00 53.00
C 79.05 52.51 79.00 52.00 79.00 52.00
C 78.65 48.75 78.88 47.05 81.00 45.00
C 81.27 44.74 82.74 43.07 83.00 43.00
C 83.53 41.17 81.27 40.54 81.00 39.00
C 83.19 38.75 84.01 35.93 87.00 37.00
C 90.14 37.62 89.84 40.49 88.00 42.00
M 5.00 41.00 
C 5.97 45.12 2.36 42.76 5.00 41.00
M 5.00 45.00 
C 5.97 49.12 2.36 46.76 5.00 45.00
M 5.00 49.00 
C 5.97 53.12 2.36 50.76 5.00 49.00
M 5.00 53.00 
C 5.97 57.12 2.36 54.76 5.00 53.00
M 5.00 57.00 
C 5.97 61.12 2.36 58.76 5.00 57.00
M 5.00 61.00 
C 6.57 63.32 7.25 65.18 5.00 68.00
C 1.41 66.24 1.90 62.58 5.00 61.00 Z"/>
</g>
<g fill="None" fill-opacity="0.0" stroke="#A5A5A5" stroke-opacity="0.61" stroke-width="0.3"><path d="
M 17.00 13.00 
C 17.70 12.72 21.33 12.67 22.00 13.00
C 19.87 11.95 19.17 11.93 17.00 13.00 Z"/>
</g>
<g fill="None" fill-opacity="0.0" stroke="#676868" stroke-opacity="0.78" stroke-width="0.3"><path d="
M 15.00 15.00 
C 13.95 17.62 15.43 16.15 16.00 18.00
C 15.86 16.98 15.16 13.75 17.00 13.00
C 14.98 14.00 16.16 13.39 15.00 15.00 Z"/>
</g>
<g fill="None" fill-opacity="0.0" stroke="#080B09" stroke-opacity="0.99" stroke-width="0.3"><path d="
M 16.00 18.00 
C 16.13 18.95 16.00 20.04 16.00 21.00
C 16.00 21.00 15.75 21.74 16.00 22.00
C 16.74 22.77 17.77 22.72 18.00 24.00
C 19.13 24.68 21.39 24.44 22.00 24.00
C 20.92 24.79 22.87 21.18 23.00 21.00
C 23.00 21.00 22.84 20.45 23.00 20.00
C 23.56 18.39 24.79 17.03 24.00 16.00
C 22.74 15.82 22.89 13.43 22.00 13.00
C 21.33 12.67 17.70 12.72 17.00 13.00
C 15.16 13.75 15.86 16.98 16.00 18.00 Z"/>
</g>
<g fill="None" fill-opacity="0.0" stroke="#767877" stroke-opacity="0.84" stroke-width="0.3"><path d="
M 24.00 16.00 
C 23.76 15.68 24.00 15.00 24.00 15.00
C 24.23 12.95 23.15 13.57 22.00 13.00
C 22.89 13.43 22.74 15.82 24.00 16.00 Z"/>
</g>
<g fill="None" fill-opacity="0.0" stroke="#898C8C" stroke-opacity="0.54" stroke-width="0.3"><path d="
M 16.00 21.00 
C 16.00 20.04 16.13 18.95 16.00 18.00
C 15.43 16.15 13.95 17.62 15.00 15.00
C 12.82 18.03 14.07 17.79 16.00 21.00 Z"/>
</g>
<g fill="None" fill-opacity="0.0" stroke="#959796" stroke-opacity="0.65" stroke-width="0.3"><path d="
M 24.00 16.00 
C 24.79 17.03 23.56 18.39 23.00 20.00
C 25.14 18.96 27.35 16.25 24.00 15.00
C 24.00 15.00 23.76 15.68 24.00 16.00 Z"/>
</g>
<g fill="None" fill-opacity="0.0" stroke="#FFFFFF" stroke-opacity="0.25" stroke-width="0.3"><path d="
M 3.00 18.00 
C 3.64 17.16 5.36 17.16 6.00 18.00
C 5.87 15.34 3.12 15.45 3.00 18.00 Z"/>
</g>
<g fill="None" fill-opacity="0.0" stroke="#FFFFFF" stroke-opacity="0.62" stroke-width="0.3"><path d="
M 3.00 18.00 
C 2.86 20.97 6.65 18.85 6.00 18.00
C 5.36 17.16 3.64 17.16 3.00 18.00 Z"/>
</g>
<g fill="None" fill-opacity="0.0" stroke="#A2A2A2" stroke-opacity="0.82" stroke-width="0.3"><path d="
M 42.00 18.00 
C 43.33 18.00 44.67 18.00 46.00 18.00
C 44.66 16.70 43.36 16.68 42.00 18.00 Z"/>
</g>
<g fill="None" fill-opacity="0.0" stroke="#787979" stroke-opacity="0.69" stroke-width="0.3"><path d="
M 40.00 26.00 
C 40.78 27.35 42.06 26.83 42.00 29.00
C 41.99 29.50 42.00 30.00 42.00 30.00
C 43.16 30.13 44.85 30.20 46.00 30.00
C 46.36 29.80 46.93 28.38 47.00 28.00
C 47.09 27.52 47.00 26.50 47.00 26.00
C 43.81 30.23 41.68 26.01 41.00 23.00
C 39.98 20.51 38.89 22.55 41.00 20.00
C 41.10 19.52 40.77 18.16 41.00 18.00
C 39.46 18.45 39.88 20.76 38.00 21.00
C 39.68 22.33 39.40 24.29 40.00 26.00 Z"/>
</g>
<g fill="None" fill-opacity="0.0" stroke="#060706" stroke-opacity="1.00" stroke-width="0.3"><path d="
M 41.00 20.00 
C 40.64 21.79 40.58 21.14 41.00 23.00
C 41.68 26.01 43.81 30.23 47.00 26.00
C 47.00 26.00 46.89 25.48 47.00 25.00
C 47.51 22.76 47.79 20.28 47.00 18.00
C 47.00 18.00 46.50 18.00 46.00 18.00
C 44.67 18.00 43.33 18.00 42.00 18.00
C 42.00 18.00 41.31 17.76 41.00 18.00
C 40.77 18.16 41.10 19.52 41.00 20.00 Z"/>
</g>
<g fill="None" fill-opacity="0.0" stroke="#828483" stroke-opacity="0.67" stroke-width="0.3"><path d="
M 47.00 25.00 
C 48.39 24.14 48.84 22.28 50.00 21.00
C 48.40 20.65 48.06 18.82 47.00 18.00
C 47.79 20.28 47.51 22.76 47.00 25.00 Z"/>
</g>
<g fill="None" fill-opacity="0.0" stroke="#5C5D5D" stroke-opacity="1.00" stroke-width="0.3"><path d="
M 41.00 23.00 
C 40.58 21.14 40.64 21.79 41.00 20.00
C 38.89 22.55 39.98 20.51 41.00 23.00 Z"/>
</g>
<g fill="None" fill-opacity="0.0" stroke="#FFFFFF" stroke-opacity="1.00" stroke-width="0.3"><path d="
M 5.00 21.00 
C 2.36 22.76 5.97 25.12 5.00 21.00 Z"/>
</g>
<g fill="None" fill-opacity="0.0" stroke="#737474" stroke-opacity="0.66" stroke-width="0.3"><path d="
M 22.00 24.00 
C 21.87 24.09 24.05 21.46 24.00 22.00
C 23.89 21.65 23.12 21.26 23.00 21.00
C 22.87 21.18 20.92 24.79 22.00 24.00 Z"/>
</g>
<g fill="None" fill-opacity="0.0" stroke="#676868" stroke-opacity="0.65" stroke-width="0.3"><path d="
M 10.00 27.00 
C 10.25 26.75 11.00 27.00 11.00 27.00
C 13.06 24.44 15.22 25.39 18.00 26.00
C 18.12 25.53 18.09 24.48 18.00 24.00
C 17.77 22.72 16.74 22.77 16.00 22.00
C 14.97 25.39 10.42 22.73 10.00 27.00 Z"/>
</g>
<g fill="None" fill-opacity="0.0" stroke="#9A9A9A" stroke-opacity="0.46" stroke-width="0.3"><path d="
M 22.00 24.00 
C 21.39 24.44 19.13 24.68 18.00 24.00
C 18.09 24.48 18.12 25.53 18.00 26.00
C 18.02 25.91 20.78 26.00 21.00 26.00
C 21.50 26.00 22.00 26.00 22.00 26.00
C 22.46 25.77 22.78 24.39 23.00 24.00
C 23.08 23.86 24.03 22.12 24.00 22.00
C 24.05 21.46 21.87 24.09 22.00 24.00 Z"/>
</g>
<g fill="None" fill-opacity="0.0" stroke="#4E4F4F" stroke-opacity="1.00" stroke-width="0.3"><path d="
M 22.00 26.00 
C 23.17 25.57 23.63 25.01 25.00 25.00
C 24.75 24.75 25.00 24.00 25.00 24.00
C 24.50 24.01 23.09 24.19 23.00 24.00
C 22.78 24.39 22.46 25.77 22.00 26.00 Z"/>
</g>
<g fill="None" fill-opacity="0.0" stroke="#8F9290" stroke-opacity="0.48" stroke-width="0.3"><path d="
M 25.00 25.00 
C 25.50 25.00 26.00 25.00 26.00 25.00
C 26.50 25.00 28.78 25.44 29.00 26.00
C 28.65 24.05 26.54 23.97 25.00 24.00
C 25.00 24.00 24.75 24.75 25.00 25.00 Z"/>
</g>
<g fill="None" fill-opacity="0.0" stroke="#FFFFFF" stroke-opacity="1.00" stroke-width="0.3"><path d="
M 5.00 25.00 
C 2.36 26.76 5.97 29.12 5.00 25.00 Z"/>
</g>
<g fill="None" fill-opacity="0.0" stroke="#301AFB" stroke-opacity="1.00" stroke-width="0.3"><path d="
M 11.00 27.00 
C 11.93 28.37 10.15 29.34 10.00 30.00
C 10.00 34.28 9.63 38.74 10.00 43.00
C 10.08 43.37 10.78 45.30 11.00 46.00
C 11.23 46.29 11.89 46.74 12.00 47.00
C 13.51 48.44 12.94 50.89 13.00 53.00
C 13.16 58.66 13.00 64.34 13.00 70.00
C 14.07 69.93 17.41 70.32 18.00 69.00
C 18.29 68.36 18.00 66.71 18.00 66.00
C 18.00 65.00 18.00 64.00 18.00 63.00
C 18.00 59.94 17.97 57.41 19.00 55.00
C 19.00 54.50 19.25 53.26 19.00 53.00
C 18.84 52.84 18.91 50.25 19.00 50.00
C 20.24 46.75 21.06 52.04 21.00 53.00
C 20.97 53.50 21.19 54.92 21.00 55.00
C 20.85 55.07 21.00 57.75 21.00 58.00
C 21.00 58.50 21.00 59.50 21.00 60.00
C 22.71 64.01 20.12 70.74 27.00 70.00
C 27.00 68.33 27.00 66.67 27.00 65.00
C 26.14 56.93 27.30 51.31 29.00 44.00
C 29.00 39.33 29.00 34.67 29.00 30.00
C 28.67 28.47 27.48 25.97 26.00 25.00
C 26.00 25.00 25.50 25.00 25.00 25.00
C 23.63 25.01 23.17 25.57 22.00 26.00
C 22.00 26.00 21.50 26.00 21.00 26.00
C 19.40 27.63 19.37 26.30 18.00 26.00
C 15.22 25.39 13.06 24.44 11.00 27.00 Z"/>
</g>
<g fill="None" fill-opacity="0.0" stroke="#474848" stroke-opacity="1.00" stroke-width="0.3"><path d="
M 29.00 30.00 
C 29.00 29.50 29.00 28.50 29.00 28.00
C 29.00 27.50 29.17 26.43 29.00 26.00
C 28.78 25.44 26.50 25.00 26.00 25.00
C 27.48 25.97 28.67 28.47 29.00 30.00 Z"/>
</g>
<g fill="None" fill-opacity="0.0" stroke="#363636" stroke-opacity="1.00" stroke-width="0.3"><path d="
M 21.00 26.00 
C 20.78 26.00 18.02 25.91 18.00 26.00
C 19.37 26.30 19.40 27.63 21.00 26.00 Z"/>
</g>
<g fill="None" fill-opacity="0.0" stroke="#929292" stroke-opacity="0.25" stroke-width="0.3"><path d="
M 41.00 28.00 
C 41.20 28.31 41.88 28.74 42.00 29.00
C 42.06 26.83 40.78 27.35 40.00 26.00
C 40.27 26.75 40.57 27.32 41.00 28.00 Z"/>
</g>
<g fill="None" fill-opacity="0.0" stroke="#3B3D3C" stroke-opacity="0.99" stroke-width="0.3"><path d="
M 10.00 28.00 
C 10.00 28.50 10.00 29.50 10.00 30.00
C 10.15 29.34 11.93 28.37 11.00 27.00
C 11.00 27.00 10.25 26.75 10.00 27.00
C 10.00 27.00 10.00 27.50 10.00 28.00 Z"/>
</g>
<g fill="None" fill-opacity="0.0" stroke="#787979" stroke-opacity="0.64" stroke-width="0.3"><path d="
M 62.00 28.00 
C 62.25 27.75 63.00 28.00 63.00 28.00
C 69.49 26.95 68.88 31.62 67.00 36.00
C 65.07 36.49 62.63 35.26 63.00 33.00
C 62.99 32.92 62.00 33.00 62.00 33.00
C 62.20 36.34 59.03 36.41 59.00 38.00
C 60.78 36.58 70.73 37.43 72.00 39.00
C 72.20 39.24 73.00 39.00 73.00 39.00
C 72.24 37.11 70.16 35.47 68.00 36.00
C 72.55 31.91 66.96 22.90 62.00 28.00 Z"/>
</g>
<g fill="None" fill-opacity="0.0" stroke="#808281" stroke-opacity="0.43" stroke-width="0.3"><path d="
M 12.00 49.00 
C 12.00 48.50 12.18 47.42 12.00 47.00
C 11.89 46.74 11.23 46.29 11.00 46.00
C 10.13 44.91 10.14 44.59 10.00 43.00
C 9.63 38.74 10.00 34.28 10.00 30.00
C 10.00 29.50 10.00 28.50 10.00 28.00
C 5.60 33.95 10.61 44.26 12.00 49.00 Z"/>
</g>
<g fill="None" fill-opacity="0.0" stroke="#7F807F" stroke-opacity="0.79" stroke-width="0.3"><path d="
M 29.00 30.00 
C 29.00 34.67 29.00 39.33 29.00 44.00
C 29.00 44.50 29.13 45.53 29.00 46.00
C 30.43 41.30 31.01 32.73 29.00 28.00
C 29.00 28.50 29.00 29.50 29.00 30.00 Z"/>
</g>
<g fill="None" fill-opacity="0.0" stroke="#636464" stroke-opacity="0.85" stroke-width="0.3"><path d="
M 38.00 51.00 
C 36.02 44.57 31.87 28.91 42.00 30.00
C 42.00 30.00 41.99 29.50 42.00 29.00
C 41.88 28.74 41.20 28.31 41.00 28.00
C 29.79 25.01 36.43 48.33 38.00 51.00 Z"/>
</g>
<g fill="None" fill-opacity="0.0" stroke="#434444" stroke-opacity="1.00" stroke-width="0.3"><path d="
M 46.00 30.00 
C 47.14 29.80 47.65 29.01 49.00 29.00
C 48.75 28.75 49.00 28.00 49.00 28.00
C 48.50 27.97 47.11 28.21 47.00 28.00
C 46.93 28.38 46.36 29.80 46.00 30.00 Z"/>
</g>
<g fill="None" fill-opacity="0.0" stroke="#898C8B" stroke-opacity="0.68" stroke-width="0.3"><path d="
M 49.00 29.00 
C 49.50 29.00 50.00 29.00 50.00 29.00
C 50.13 29.02 51.99 29.99 52.00 30.00
C 50.94 28.76 50.89 28.11 49.00 28.00
C 49.00 28.00 48.75 28.75 49.00 29.00 Z"/>
</g>
<g fill="None" fill-opacity="0.0" stroke="#4C4E4E" stroke-opacity="1.00" stroke-width="0.3"><path d="
M 62.00 29.00 
C 61.26 30.28 61.23 30.67 62.00 32.00
C 62.00 32.00 61.97 32.50 62.00 33.00
C 62.00 33.00 62.99 32.92 63.00 33.00
C 62.49 30.92 62.47 30.16 63.00 28.00
C 63.00 28.00 62.25 27.75 62.00 28.00
C 62.00 28.00 62.22 28.62 62.00 29.00 Z"/>
</g>
<g fill="None" fill-opacity="0.0" stroke="#030504" stroke-opacity="1.00" stroke-width="0.3"><path d="
M 63.00 33.00 
C 62.63 35.26 65.07 36.49 67.00 36.00
C 68.88 31.62 69.49 26.95 63.00 28.00
C 62.47 30.16 62.49 30.92 63.00 33.00 Z"/>
</g>
<g fill="None" fill-opacity="0.0" stroke="#FFFFFF" stroke-opacity="1.00" stroke-width="0.3"><path d="
M 5.00 29.00 
C 2.36 30.76 5.97 33.12 5.00 29.00 Z"/>
</g>
<g fill="None" fill-opacity="0.0" stroke="#FADF1B" stroke-opacity="1.00" stroke-width="0.3"><path d="
M 38.00 51.00 
C 38.24 51.79 38.00 53.17 38.00 54.00
C 38.00 59.67 38.00 65.33 38.00 71.00
C 39.84 71.85 41.18 70.22 42.00 69.00
C 42.74 67.47 42.40 64.49 43.00 63.00
C 42.97 62.50 42.80 61.10 43.00 61.00
C 43.16 60.92 43.00 58.26 43.00 58.00
C 43.00 57.01 42.95 55.99 43.00 55.00
C 43.03 54.40 44.08 49.35 45.00 52.00
C 45.45 53.30 45.00 55.61 45.00 57.00
C 45.00 57.50 45.00 58.50 45.00 59.00
C 45.76 60.89 45.99 62.55 46.00 65.00
C 46.01 66.15 45.67 67.91 46.00 69.00
C 46.26 69.12 46.68 69.80 47.00 70.00
C 47.93 70.58 49.22 70.51 50.00 71.00
C 50.00 67.33 50.00 63.67 50.00 60.00
C 50.00 56.77 48.71 49.78 52.00 48.00
C 51.52 42.64 51.52 36.36 52.00 31.00
C 50.78 30.81 50.65 29.63 50.00 29.00
C 50.00 29.00 49.50 29.00 49.00 29.00
C 47.65 29.01 47.14 29.80 46.00 30.00
C 44.85 30.20 43.16 30.13 42.00 30.00
C 31.87 28.91 36.02 44.57 38.00 51.00 Z"/>
</g>
<g fill="None" fill-opacity="0.0" stroke="#494A4A" stroke-opacity="0.70" stroke-width="0.3"><path d="
M 52.00 31.00 
C 52.49 31.07 53.00 31.00 53.00 31.00
C 52.95 30.65 52.16 30.27 52.00 30.00
C 51.99 29.99 50.13 29.02 50.00 29.00
C 50.65 29.63 50.78 30.81 52.00 31.00 Z"/>
</g>
<g fill="None" fill-opacity="0.0" stroke="#898B8B" stroke-opacity="0.40" stroke-width="0.3"><path d="
M 62.00 32.00 
C 61.23 30.67 61.26 30.28 62.00 29.00
C 60.02 30.05 59.98 30.92 62.00 32.00 Z"/>
</g>
<g fill="None" fill-opacity="0.0" stroke="#7A7A7A" stroke-opacity="0.96" stroke-width="0.3"><path d="
M 52.00 48.00 
C 52.39 47.79 53.00 48.00 53.00 48.00
C 53.47 42.82 53.74 36.15 53.00 31.00
C 53.00 31.00 52.49 31.07 52.00 31.00
C 51.52 36.36 51.52 42.64 52.00 48.00 Z"/>
</g>
<g fill="None" fill-opacity="0.0" stroke="#FFFFFF" stroke-opacity="1.00" stroke-width="0.3"><path d="
M 5.00 33.00 
C 2.36 34.76 5.97 37.12 5.00 33.00 Z"/>
</g>
<g fill="None" fill-opacity="0.0" stroke="#FFFFFF" stroke-opacity="1.00" stroke-width="0.3"><path d="
M 5.00 37.00 
C 2.36 38.76 5.97 41.12 5.00 37.00 Z"/>
</g>
<g fill="None" fill-opacity="0.0" stroke="#60C447" stroke-opacity="1.00" stroke-width="0.3"><path d="
M 59.00 38.00 
C 58.74 38.21 58.24 38.74 58.00 39.00
C 56.69 44.89 58.45 50.96 60.00 56.00
C 60.24 56.79 60.00 58.17 60.00 59.00
C 60.00 63.67 60.00 68.33 60.00 73.00
C 60.99 72.79 63.33 73.12 64.00 72.00
C 64.54 71.09 64.00 68.10 64.00 67.00
C 64.00 66.50 64.03 65.50 64.00 65.00
C 63.85 62.50 64.38 60.85 65.00 59.00
C 65.09 58.01 64.93 56.99 65.00 56.00
C 66.75 56.83 65.66 59.44 66.00 61.00
C 66.00 61.00 66.00 61.50 66.00 62.00
C 67.16 63.14 66.97 64.28 67.00 66.00
C 67.02 67.00 67.00 68.00 67.00 69.00
C 67.00 70.00 67.00 71.00 67.00 72.00
C 68.30 72.29 69.62 72.70 71.00 73.00
C 71.00 70.67 71.00 68.33 71.00 66.00
C 70.68 62.66 70.31 59.39 71.00 56.00
C 72.13 50.46 71.48 44.80 72.00 39.00
C 70.73 37.43 60.78 36.58 59.00 38.00 Z"/>
</g>
<g fill="None" fill-opacity="0.0" stroke="#161817" stroke-opacity="0.97" stroke-width="0.3"><path d="
M 83.00 43.00 
C 84.45 42.58 86.08 44.89 88.00 43.00
C 88.00 43.00 87.82 42.42 88.00 42.00
C 88.54 40.75 88.87 37.66 87.00 37.00
C 84.01 35.93 83.19 38.75 81.00 39.00
C 81.27 40.54 83.53 41.17 83.00 43.00 Z"/>
</g>
<g fill="None" fill-opacity="0.0" stroke="#737473" stroke-opacity="0.52" stroke-width="0.3"><path d="
M 88.00 42.00 
C 89.84 40.49 90.14 37.62 87.00 37.00
C 88.87 37.66 88.54 40.75 88.00 42.00 Z"/>
</g>
<g fill="None" fill-opacity="0.0" stroke="#7C7F7F" stroke-opacity="0.53" stroke-width="0.3"><path d="
M 60.00 56.00 
C 58.45 50.96 56.69 44.89 58.00 39.00
C 53.87 43.48 58.11 52.24 60.00 56.00 Z"/>
</g>
<g fill="None" fill-opacity="0.0" stroke="#555656" stroke-opacity="0.91" stroke-width="0.3"><path d="
M 71.00 56.00 
C 72.00 51.09 73.57 45.29 73.00 39.00
C 73.00 39.00 72.20 39.24 72.00 39.00
C 71.48 44.80 72.13 50.46 71.00 56.00 Z"/>
</g>
<g fill="None" fill-opacity="0.0" stroke="#FFFFFF" stroke-opacity="1.00" stroke-width="0.3"><path d="
M 5.00 41.00 
C 2.36 42.76 5.97 45.12 5.00 41.00 Z"/>
</g>
<g fill="None" fill-opacity="0.0" stroke="#313332" stroke-opacity="1.00" stroke-width="0.3"><path d="
M 11.00 46.00 
C 10.78 45.30 10.08 43.37 10.00 43.00
C 10.14 44.59 10.13 44.91 11.00 46.00 Z"/>
</g>
<g fill="None" fill-opacity="0.0" stroke="#7E7E7E" stroke-opacity="0.68" stroke-width="0.3"><path d="
M 81.00 45.00 
C 84.23 45.83 86.73 45.78 90.00 45.00
C 89.51 44.56 88.23 43.59 88.00 43.00
C 86.08 44.89 84.45 42.58 83.00 43.00
C 82.74 43.07 81.27 44.74 81.00 45.00 Z"/>
</g>
<g fill="None" fill-opacity="0.0" stroke="#373939" stroke-opacity="0.92" stroke-width="0.3"><path d="
M 27.00 65.00 
C 27.00 62.67 27.00 60.33 27.00 58.00
C 27.00 53.13 27.86 50.21 29.00 46.00
C 29.13 45.53 29.00 44.50 29.00 44.00
C 27.30 51.31 26.14 56.93 27.00 65.00 Z"/>
</g>
<g fill="None" fill-opacity="0.0" stroke="#FFFFFF" stroke-opacity="1.00" stroke-width="0.3"><path d="
M 5.00 45.00 
C 2.36 46.76 5.97 49.12 5.00 45.00 Z"/>
</g>
<g fill="None" fill-opacity="0.0" stroke="#3A3C3C" stroke-opacity="0.96" stroke-width="0.3"><path d="
M 79.00 52.00 
C 79.97 49.95 79.85 47.28 81.00 45.00
C 78.88 47.05 78.65 48.75 79.00 52.00 Z"/>
</g>
<g fill="None" fill-opacity="0.0" stroke="#E60F0C" stroke-opacity="1.00" stroke-width="0.3"><path d="
M 79.00 52.00 
C 79.00 52.00 79.05 52.51 79.00 53.00
C 79.86 54.81 80.58 57.76 81.00 60.00
C 81.17 60.91 81.00 62.07 81.00 63.00
C 81.00 65.99 79.51 73.49 83.00 74.00
C 83.00 74.00 83.60 74.20 84.00 74.00
C 84.08 71.80 84.42 70.63 85.00 69.00
C 84.97 68.50 85.25 67.25 85.00 67.00
C 84.90 66.90 84.90 64.10 85.00 64.00
C 84.95 62.15 87.46 63.93 87.00 66.00
C 87.43 66.71 87.00 69.15 87.00 70.00
C 87.00 70.68 86.71 72.40 87.00 73.00
C 87.13 73.27 87.75 73.76 88.00 74.00
C 91.18 74.21 90.00 68.18 90.00 66.00
C 90.00 64.09 89.69 61.88 90.00 60.00
C 90.22 58.69 91.79 56.91 92.00 56.00
C 92.00 53.72 92.26 51.27 92.00 49.00
C 91.78 48.01 90.23 46.35 90.00 45.00
C 86.73 45.78 84.23 45.83 81.00 45.00
C 79.85 47.28 79.97 49.95 79.00 52.00 Z"/>
</g>
<g fill="None" fill-opacity="0.0" stroke="#4F5150" stroke-opacity="0.85" stroke-width="0.3"><path d="
M 92.00 49.00 
C 91.64 45.83 91.81 46.61 90.00 45.00
C 90.23 46.35 91.78 48.01 92.00 49.00 Z"/>
</g>
<g fill="None" fill-opacity="0.0" stroke="#353535" stroke-opacity="0.22" stroke-width="0.3"><path d="
M 12.00 49.00 
C 12.00 50.33 12.00 51.67 12.00 53.00
C 12.13 53.22 13.00 53.00 13.00 53.00
C 12.94 50.89 13.51 48.44 12.00 47.00
C 12.18 47.42 12.00 48.50 12.00 49.00 Z"/>
</g>
<g fill="None" fill-opacity="0.0" stroke="#4E514F" stroke-opacity="0.60" stroke-width="0.3"><path d="
M 50.00 60.00 
C 50.00 59.96 51.00 60.00 51.00 60.00
C 51.00 56.04 49.95 50.98 53.00 48.00
C 53.00 48.00 52.39 47.79 52.00 48.00
C 48.71 49.78 50.00 56.77 50.00 60.00 Z"/>
</g>
<g fill="None" fill-opacity="0.0" stroke="#FFFFFF" stroke-opacity="1.00" stroke-width="0.3"><path d="
M 5.00 49.00 
C 2.36 50.76 5.97 53.12 5.00 49.00 Z"/>
</g>
<g fill="None" fill-opacity="0.0" stroke="#5B5B5B" stroke-opacity="1.00" stroke-width="0.3"><path d="
M 19.00 50.00 
C 19.41 50.56 20.85 52.42 21.00 53.00
C 21.06 52.04 20.24 46.75 19.00 50.00 Z"/>
</g>
<g fill="None" fill-opacity="0.0" stroke="#8C8C8C" stroke-opacity="0.98" stroke-width="0.3"><path d="
M 19.00 53.00 
C 19.11 53.39 20.92 54.69 21.00 55.00
C 21.19 54.92 20.97 53.50 21.00 53.00
C 20.85 52.42 19.41 50.56 19.00 50.00
C 18.91 50.25 18.84 52.84 19.00 53.00 Z"/>
</g>
<g fill="None" fill-opacity="0.0" stroke="#494949" stroke-opacity="0.97" stroke-width="0.3"><path d="
M 43.00 55.00 
C 43.27 54.75 44.00 55.00 44.00 55.00
C 44.01 54.00 43.60 52.27 45.00 52.00
C 44.08 49.35 43.03 54.40 43.00 55.00 Z"/>
</g>
<g fill="None" fill-opacity="0.0" stroke="#979797" stroke-opacity="0.84" stroke-width="0.3"><path d="
M 44.00 55.00 
C 44.00 55.50 44.00 56.50 44.00 57.00
C 44.00 57.00 44.66 56.77 45.00 57.00
C 45.00 55.61 45.45 53.30 45.00 52.00
C 43.60 52.27 44.01 54.00 44.00 55.00 Z"/>
</g>
<g fill="None" fill-opacity="0.0" stroke="#FFFFFF" stroke-opacity="1.00" stroke-width="0.3"><path d="
M 5.00 53.00 
C 2.36 54.76 5.97 57.12 5.00 53.00 Z"/>
</g>
<g fill="None" fill-opacity="0.0" stroke="#959696" stroke-opacity="0.97" stroke-width="0.3"><path d="
M 13.00 71.00 
C 12.85 70.95 13.00 70.00 13.00 70.00
C 13.00 64.34 13.16 58.66 13.00 53.00
C 13.00 53.00 12.13 53.22 12.00 53.00
C 12.00 57.05 10.18 68.29 13.00 71.00 Z"/>
</g>
<g fill="None" fill-opacity="0.0" stroke="#4A4A4A" stroke-opacity="0.26" stroke-width="0.3"><path d="
M 19.00 55.00 
C 19.00 55.50 18.96 56.50 19.00 57.00
C 18.99 57.01 21.03 58.14 21.00 58.00
C 21.00 57.75 20.85 55.07 21.00 55.00
C 20.92 54.69 19.11 53.39 19.00 53.00
C 19.25 53.26 19.00 54.50 19.00 55.00 Z"/>
</g>
<g fill="None" fill-opacity="0.0" stroke="#434544" stroke-opacity="0.99" stroke-width="0.3"><path d="
M 81.00 60.00 
C 80.58 57.76 79.86 54.81 79.00 53.00
C 78.60 56.66 79.92 57.50 81.00 60.00 Z"/>
</g>
<g fill="None" fill-opacity="0.0" stroke="#969696" stroke-opacity="0.78" stroke-width="0.3"><path d="
M 38.00 71.00 
C 38.00 65.33 38.00 59.67 38.00 54.00
C 37.52 56.20 34.83 69.53 38.00 71.00 Z"/>
</g>
<g fill="None" fill-opacity="0.0" stroke="#333333" stroke-opacity="0.78" stroke-width="0.3"><path d="
M 18.00 63.00 
C 18.27 62.75 19.00 63.00 19.00 63.00
C 19.05 62.11 19.99 60.25 20.00 60.00
C 19.74 58.86 19.10 58.31 19.00 57.00
C 18.96 56.50 19.00 55.50 19.00 55.00
C 17.97 57.41 18.00 59.94 18.00 63.00 Z"/>
</g>
<g fill="None" fill-opacity="0.0" stroke="#606060" stroke-opacity="0.76" stroke-width="0.3"><path d="
M 43.00 58.00 
C 43.27 57.75 44.00 58.00 44.00 58.00
C 44.00 58.00 44.00 57.50 44.00 57.00
C 44.00 56.50 44.00 55.50 44.00 55.00
C 44.00 55.00 43.27 54.75 43.00 55.00
C 42.95 55.99 43.00 57.01 43.00 58.00 Z"/>
</g>
<g fill="None" fill-opacity="0.0" stroke="#888888" stroke-opacity="0.81" stroke-width="0.3"><path d="
M 65.00 59.00 
C 64.96 59.50 64.98 60.50 65.00 61.00
C 65.00 61.00 65.75 60.75 66.00 61.00
C 65.66 59.44 66.75 56.83 65.00 56.00
C 64.93 56.99 65.09 58.01 65.00 59.00 Z"/>
</g>
<g fill="None" fill-opacity="0.0" stroke="#2E302F" stroke-opacity="1.00" stroke-width="0.3"><path d="
M 71.00 66.00 
C 71.00 65.50 71.00 64.50 71.00 64.00
C 71.00 61.51 70.50 58.44 71.00 56.00
C 70.31 59.39 70.68 62.66 71.00 66.00 Z"/>
</g>
<g fill="None" fill-opacity="0.0" stroke="#464747" stroke-opacity="1.00" stroke-width="0.3"><path d="
M 90.00 60.00 
C 90.22 59.61 91.87 59.27 92.00 59.00
C 92.17 58.09 92.00 56.93 92.00 56.00
C 91.79 56.91 90.22 58.69 90.00 60.00 Z"/>
</g>
<g fill="None" fill-opacity="0.0" stroke="#FFFFFF" stroke-opacity="1.00" stroke-width="0.3"><path d="
M 5.00 57.00 
C 2.36 58.76 5.97 61.12 5.00 57.00 Z"/>
</g>
<g fill="None" fill-opacity="0.0" stroke="#838383" stroke-opacity="0.30" stroke-width="0.3"><path d="
M 20.00 60.00 
C 20.34 61.53 20.76 63.87 21.00 65.00
C 20.93 63.34 21.00 61.66 21.00 60.00
C 21.00 59.50 21.00 58.50 21.00 58.00
C 21.03 58.14 18.99 57.01 19.00 57.00
C 19.10 58.31 19.74 58.86 20.00 60.00 Z"/>
</g>
<g fill="None" fill-opacity="0.0" stroke="#A4A6A5" stroke-opacity="0.79" stroke-width="0.3"><path d="
M 27.00 65.00 
C 27.00 66.67 27.00 68.33 27.00 70.00
C 27.00 70.50 27.00 71.00 27.00 71.00
C 29.89 68.22 27.29 61.00 27.00 58.00
C 27.00 60.33 27.00 62.67 27.00 65.00 Z"/>
</g>
<g fill="None" fill-opacity="0.0" stroke="#949494" stroke-opacity="0.65" stroke-width="0.3"><path d="
M 43.00 61.00 
C 43.27 59.99 44.20 59.71 44.00 58.00
C 44.00 58.00 43.27 57.75 43.00 58.00
C 43.00 58.26 43.16 60.92 43.00 61.00 Z"/>
</g>
<g fill="None" fill-opacity="0.0" stroke="#434343" stroke-opacity="1.00" stroke-width="0.3"><path d="
M 45.00 65.00 
C 45.13 64.78 46.00 65.00 46.00 65.00
C 45.99 62.55 45.76 60.89 45.00 59.00
C 45.00 61.00 45.00 63.00 45.00 65.00 Z"/>
</g>
<g fill="None" fill-opacity="0.0" stroke="#8F8F8F" stroke-opacity="0.47" stroke-width="0.3"><path d="
M 60.00 74.00 
C 59.83 73.93 60.00 73.00 60.00 73.00
C 60.00 68.33 60.00 63.67 60.00 59.00
C 59.34 62.01 57.12 71.23 60.00 74.00 Z"/>
</g>
<g fill="None" fill-opacity="0.0" stroke="#414141" stroke-opacity="0.96" stroke-width="0.3"><path d="
M 64.00 65.00 
C 64.40 63.70 65.06 62.93 65.00 61.00
C 64.98 60.50 64.96 59.50 65.00 59.00
C 64.38 60.85 63.85 62.50 64.00 65.00 Z"/>
</g>
<g fill="None" fill-opacity="0.0" stroke="#4D4F4E" stroke-opacity="0.33" stroke-width="0.3"><path d="
M 90.00 60.00 
C 89.69 61.88 90.00 64.09 90.00 66.00
C 90.02 66.10 91.00 66.00 91.00 66.00
C 91.10 63.38 91.56 61.36 92.00 59.00
C 91.87 59.27 90.22 59.61 90.00 60.00 Z"/>
</g>
<g fill="None" fill-opacity="0.0" stroke="#545454" stroke-opacity="0.90" stroke-width="0.3"><path d="
M 21.00 65.00 
C 21.17 69.21 21.66 72.27 27.00 71.00
C 27.00 71.00 27.00 70.50 27.00 70.00
C 20.12 70.74 22.71 64.01 21.00 60.00
C 21.00 61.66 20.93 63.34 21.00 65.00 Z"/>
</g>
<g fill="None" fill-opacity="0.0" stroke="#6A6D6C" stroke-opacity="0.93" stroke-width="0.3"><path d="
M 50.00 71.00 
C 50.00 71.50 50.00 72.00 50.00 72.00
C 52.20 69.89 51.00 63.16 51.00 60.00
C 51.00 60.00 50.00 59.96 50.00 60.00
C 50.00 63.67 50.00 67.33 50.00 71.00 Z"/>
</g>
<g fill="None" fill-opacity="0.0" stroke="#FFFFFF" stroke-opacity="0.47" stroke-width="0.3"><path d="
M 5.00 61.00 
C 1.90 62.58 1.41 66.24 5.00 68.00
C 7.25 65.18 6.57 63.32 5.00 61.00 Z"/>
</g>
<g fill="None" fill-opacity="0.0" stroke="#404040" stroke-opacity="1.00" stroke-width="0.3"><path d="
M 66.00 66.00 
C 66.27 65.75 67.00 66.00 67.00 66.00
C 66.97 64.28 67.16 63.14 66.00 62.00
C 66.00 63.33 66.00 64.67 66.00 66.00 Z"/>
</g>
<g fill="None" fill-opacity="0.0" stroke="#626464" stroke-opacity="0.73" stroke-width="0.3"><path d="
M 18.00 66.00 
C 18.27 65.75 19.00 66.00 19.00 66.00
C 19.05 65.00 18.95 64.00 19.00 63.00
C 19.00 63.00 18.27 62.75 18.00 63.00
C 18.00 64.00 18.00 65.00 18.00 66.00 Z"/>
</g>
<g fill="None" fill-opacity="0.0" stroke="#464848" stroke-opacity="1.00" stroke-width="0.3"><path d="
M 42.00 69.00 
C 43.17 67.26 43.14 65.39 43.00 63.00
C 42.40 64.49 42.74 67.47 42.00 69.00 Z"/>
</g>
<g fill="None" fill-opacity="0.0" stroke="#5E605F" stroke-opacity="0.15" stroke-width="0.3"><path d="
M 83.00 74.00 
C 79.51 73.49 81.00 65.99 81.00 63.00
C 80.71 64.32 78.29 77.75 83.00 74.00 Z"/>
</g>
<g fill="None" fill-opacity="0.0" stroke="#393939" stroke-opacity="0.79" stroke-width="0.3"><path d="
M 85.00 64.00 
C 85.69 63.31 86.00 65.94 86.00 66.00
C 86.25 65.75 87.00 66.00 87.00 66.00
C 87.46 63.93 84.95 62.15 85.00 64.00 Z"/>
</g>
<g fill="None" fill-opacity="0.0" stroke="#9DA09E" stroke-opacity="0.46" stroke-width="0.3"><path d="
M 71.00 66.00 
C 71.00 68.33 71.00 70.67 71.00 73.00
C 71.00 73.50 71.00 74.00 71.00 74.00
C 73.60 71.50 71.25 66.56 71.00 64.00
C 71.00 64.50 71.00 65.50 71.00 66.00 Z"/>
</g>
<g fill="None" fill-opacity="0.0" stroke="#686868" stroke-opacity="0.15" stroke-width="0.3"><path d="
M 85.00 67.00 
C 85.00 67.00 85.75 67.25 86.00 67.00
C 86.00 66.50 86.00 66.00 86.00 66.00
C 86.00 65.94 85.69 63.31 85.00 64.00
C 84.90 64.10 84.90 66.90 85.00 67.00 Z"/>
</g>
<g fill="None" fill-opacity="0.0" stroke="#5B5D5D" stroke-opacity="0.74" stroke-width="0.3"><path d="
M 45.00 69.00 
C 45.13 69.22 46.00 69.00 46.00 69.00
C 45.67 67.91 46.01 66.15 46.00 65.00
C 46.00 65.00 45.13 64.78 45.00 65.00
C 45.00 65.85 44.57 68.29 45.00 69.00 Z"/>
</g>
<g fill="None" fill-opacity="0.0" stroke="#959797" stroke-opacity="0.60" stroke-width="0.3"><path d="
M 18.00 69.00 
C 18.80 67.77 18.91 67.78 19.00 66.00
C 19.00 66.00 18.27 65.75 18.00 66.00
C 18.00 66.71 18.29 68.36 18.00 69.00 Z"/>
</g>
<g fill="None" fill-opacity="0.0" stroke="#6D6D6D" stroke-opacity="0.97" stroke-width="0.3"><path d="
M 66.00 69.00 
C 66.27 69.25 67.00 69.00 67.00 69.00
C 67.00 68.00 67.02 67.00 67.00 66.00
C 67.00 66.00 66.27 65.75 66.00 66.00
C 66.00 67.00 65.98 68.00 66.00 69.00 Z"/>
</g>
<g fill="None" fill-opacity="0.0" stroke="#757575" stroke-opacity="1.00" stroke-width="0.3"><path d="
M 86.00 67.00 
C 86.00 68.00 85.98 69.00 86.00 70.00
C 86.27 70.25 87.00 70.00 87.00 70.00
C 87.00 69.15 87.43 66.71 87.00 66.00
C 87.00 66.00 86.25 65.75 86.00 66.00
C 86.00 66.00 86.00 66.50 86.00 67.00 Z"/>
</g>
<g fill="None" fill-opacity="0.0" stroke="#737675" stroke-opacity="0.80" stroke-width="0.3"><path d="
M 88.00 74.00 
C 88.27 75.47 90.00 74.89 91.00 75.00
C 91.09 72.00 90.89 69.00 91.00 66.00
C 91.00 66.00 90.02 66.10 90.00 66.00
C 90.00 68.18 91.18 74.21 88.00 74.00 Z"/>
</g>
<g fill="None" fill-opacity="0.0" stroke="#727373" stroke-opacity="0.50" stroke-width="0.3"><path d="
M 64.00 72.00 
C 65.31 69.93 64.93 69.07 64.00 67.00
C 64.00 68.10 64.54 71.09 64.00 72.00 Z"/>
</g>
<g fill="None" fill-opacity="0.0" stroke="#4A4C4B" stroke-opacity="0.74" stroke-width="0.3"><path d="
M 13.00 70.00 
C 13.00 70.00 12.85 70.95 13.00 71.00
C 15.86 71.92 16.95 70.60 18.00 69.00
C 17.41 70.32 14.07 69.93 13.00 70.00 Z"/>
</g>
<g fill="None" fill-opacity="0.0" stroke="#848585" stroke-opacity="0.49" stroke-width="0.3"><path d="
M 48.00 72.00 
C 47.52 71.81 47.28 70.30 47.00 70.00
C 46.68 69.80 46.26 69.12 46.00 69.00
C 46.00 69.00 45.13 69.22 45.00 69.00
C 45.15 70.06 46.95 71.76 48.00 72.00 Z"/>
</g>
<g fill="None" fill-opacity="0.0" stroke="#6C6D6C" stroke-opacity="0.50" stroke-width="0.3"><path d="
M 67.00 73.00 
C 66.86 72.54 67.00 72.00 67.00 72.00
C 67.00 71.00 67.00 70.00 67.00 69.00
C 67.00 69.00 66.27 69.25 66.00 69.00
C 66.01 69.79 65.60 73.05 67.00 73.00 Z"/>
</g>
<g fill="None" fill-opacity="0.0" stroke="#535554" stroke-opacity="0.89" stroke-width="0.3"><path d="
M 84.00 74.00 
C 85.59 73.19 85.08 70.59 85.00 69.00
C 84.42 70.63 84.08 71.80 84.00 74.00 Z"/>
</g>
<g fill="None" fill-opacity="0.0" stroke="#383A39" stroke-opacity="0.54" stroke-width="0.3"><path d="
M 48.00 72.00 
C 48.47 72.11 49.84 72.23 50.00 72.00
C 50.00 72.00 50.00 71.50 50.00 71.00
C 49.22 70.51 47.93 70.58 47.00 70.00
C 47.28 70.30 47.52 71.81 48.00 72.00 Z"/>
</g>
<g fill="None" fill-opacity="0.0" stroke="#616161" stroke-opacity="0.21" stroke-width="0.3"><path d="
M 87.00 73.00 
C 86.71 72.40 87.00 70.68 87.00 70.00
C 87.00 70.00 86.27 70.25 86.00 70.00
C 86.04 72.45 85.73 73.02 87.00 73.00 Z"/>
</g>
<g fill="None" fill-opacity="0.0" stroke="#525453" stroke-opacity="0.75" stroke-width="0.3"><path d="
M 60.00 73.00 
C 60.00 73.00 59.83 73.93 60.00 74.00
C 62.58 75.01 63.17 73.31 64.00 72.00
C 63.33 73.12 60.99 72.79 60.00 73.00 Z"/>
</g>
<g fill="None" fill-opacity="0.0" stroke="#4F5151" stroke-opacity="0.82" stroke-width="0.3"><path d="
M 67.00 73.00 
C 67.38 74.23 69.97 74.47 71.00 74.00
C 71.00 74.00 71.00 73.50 71.00 73.00
C 69.62 72.70 68.30 72.29 67.00 72.00
C 67.00 72.00 66.86 72.54 67.00 73.00 Z"/>
</g>
<g fill="#000000" fill-opacity="0.00" stroke="None">
<path d="
M 0.00 77.00 
L 96.00 77.00
L 96.00 0.00
L 0.00 0.00
L 0.00 77.00
M 22.00 13.00 
C 23.15 13.57 24.23 12.95 24.00 15.00
C 27.35 16.25 25.14 18.96 23.00 20.00
C 22.84 20.45 23.00 21.00 23.00 21.00
C 23.12 21.26 23.89 21.65 24.00 22.00
C 24.03 22.12 23.08 23.86 23.00 24.00
C 23.09 24.19 24.50 24.01 25.00 24.00
C 26.54 23.97 28.65 24.05 29.00 26.00
C 29.17 26.43 29.00 27.50 29.00 28.00
C 31.01 32.73 30.43 41.30 29.00 46.00
C 27.86 50.21 27.00 53.13 27.00 58.00
C 27.29 61.00 29.89 68.22 27.00 71.00
C 21.66 72.27 21.17 69.21 21.00 65.00
C 20.76 63.87 20.34 61.53 20.00 60.00
C 19.99 60.25 19.05 62.11 19.00 63.00
C 18.95 64.00 19.05 65.00 19.00 66.00
C 18.91 67.78 18.80 67.77 18.00 69.00
C 16.95 70.60 15.86 71.92 13.00 71.00
C 10.18 68.29 12.00 57.05 12.00 53.00
C 12.00 51.67 12.00 50.33 12.00 49.00
C 10.61 44.26 5.60 33.95 10.00 28.00
C 10.00 27.50 10.00 27.00 10.00 27.00
C 10.42 22.73 14.97 25.39 16.00 22.00
C 15.75 21.74 16.00 21.00 16.00 21.00
C 14.07 17.79 12.82 18.03 15.00 15.00
C 16.16 13.39 14.98 14.00 17.00 13.00
C 19.17 11.93 19.87 11.95 22.00 13.00
M 6.00 18.00 
C 6.65 18.85 2.86 20.97 3.00 18.00
C 3.12 15.45 5.87 15.34 6.00 18.00
M 46.00 18.00 
C 46.50 18.00 47.00 18.00 47.00 18.00
C 48.06 18.82 48.40 20.65 50.00 21.00
C 48.84 22.28 48.39 24.14 47.00 25.00
C 46.89 25.48 47.00 26.00 47.00 26.00
C 47.00 26.50 47.09 27.52 47.00 28.00
C 47.11 28.21 48.50 27.97 49.00 28.00
C 50.89 28.11 50.94 28.76 52.00 30.00
C 52.16 30.27 52.95 30.65 53.00 31.00
C 53.74 36.15 53.47 42.82 53.00 48.00
C 49.95 50.98 51.00 56.04 51.00 60.00
C 51.00 63.16 52.20 69.89 50.00 72.00
C 49.84 72.23 48.47 72.11 48.00 72.00
C 46.95 71.76 45.15 70.06 45.00 69.00
C 44.57 68.29 45.00 65.85 45.00 65.00
C 45.00 63.00 45.00 61.00 45.00 59.00
C 45.00 58.50 45.00 57.50 45.00 57.00
C 44.66 56.77 44.00 57.00 44.00 57.00
C 44.00 57.50 44.00 58.00 44.00 58.00
C 44.20 59.71 43.27 59.99 43.00 61.00
C 42.80 61.10 42.97 62.50 43.00 63.00
C 43.14 65.39 43.17 67.26 42.00 69.00
C 41.18 70.22 39.84 71.85 38.00 71.00
C 34.83 69.53 37.52 56.20 38.00 54.00
C 38.00 53.17 38.24 51.79 38.00 51.00
C 36.43 48.33 29.79 25.01 41.00 28.00
C 40.57 27.32 40.27 26.75 40.00 26.00
C 39.40 24.29 39.68 22.33 38.00 21.00
C 39.88 20.76 39.46 18.45 41.00 18.00
C 41.31 17.76 42.00 18.00 42.00 18.00
C 43.36 16.68 44.66 16.70 46.00 18.00
M 5.00 21.00 
C 5.97 25.12 2.36 22.76 5.00 21.00
M 5.00 25.00 
C 5.97 29.12 2.36 26.76 5.00 25.00
M 73.00 39.00 
C 73.57 45.29 72.00 51.09 71.00 56.00
C 70.50 58.44 71.00 61.51 71.00 64.00
C 71.25 66.56 73.60 71.50 71.00 74.00
C 69.97 74.47 67.38 74.23 67.00 73.00
C 65.60 73.05 66.01 69.79 66.00 69.00
C 65.98 68.00 66.00 67.00 66.00 66.00
C 66.00 64.67 66.00 63.33 66.00 62.00
C 66.00 61.50 66.00 61.00 66.00 61.00
C 65.75 60.75 65.00 61.00 65.00 61.00
C 65.06 62.93 64.40 63.70 64.00 65.00
C 64.03 65.50 64.00 66.50 64.00 67.00
C 64.93 69.07 65.31 69.93 64.00 72.00
C 63.17 73.31 62.58 75.01 60.00 74.00
C 57.12 71.23 59.34 62.01 60.00 59.00
C 60.00 58.17 60.24 56.79 60.00 56.00
C 58.11 52.24 53.87 43.48 58.00 39.00
C 58.24 38.74 58.74 38.21 59.00 38.00
C 59.03 36.41 62.20 36.34 62.00 33.00
C 61.97 32.50 62.00 32.00 62.00 32.00
C 59.98 30.92 60.02 30.05 62.00 29.00
C 62.22 28.62 62.00 28.00 62.00 28.00
C 66.96 22.90 72.55 31.91 68.00 36.00
C 70.16 35.47 72.24 37.11 73.00 39.00
M 5.00 29.00 
C 5.97 33.12 2.36 30.76 5.00 29.00
M 5.00 33.00 
C 5.97 37.12 2.36 34.76 5.00 33.00
M 5.00 37.00 
C 5.97 41.12 2.36 38.76 5.00 37.00
M 88.00 42.00 
C 87.82 42.42 88.00 43.00 88.00 43.00
C 88.23 43.59 89.51 44.56 90.00 45.00
C 91.81 46.61 91.64 45.83 92.00 49.00
C 92.26 51.27 92.00 53.72 92.00 56.00
C 92.00 56.93 92.17 58.09 92.00 59.00
C 91.56 61.36 91.10 63.38 91.00 66.00
C 90.89 69.00 91.09 72.00 91.00 75.00
C 90.00 74.89 88.27 75.47 88.00 74.00
C 87.75 73.76 87.13 73.27 87.00 73.00
C 85.73 73.02 86.04 72.45 86.00 70.00
C 85.98 69.00 86.00 68.00 86.00 67.00
C 85.75 67.25 85.00 67.00 85.00 67.00
C 85.25 67.25 84.97 68.50 85.00 69.00
C 85.08 70.59 85.59 73.19 84.00 74.00
C 83.60 74.20 83.00 74.00 83.00 74.00
C 78.29 77.75 80.71 64.32 81.00 63.00
C 81.00 62.07 81.17 60.91 81.00 60.00
C 79.92 57.50 78.60 56.66 79.00 53.00
C 79.05 52.51 79.00 52.00 79.00 52.00
C 78.65 48.75 78.88 47.05 81.00 45.00
C 81.27 44.74 82.74 43.07 83.00 43.00
C 83.53 41.17 81.27 40.54 81.00 39.00
C 83.19 38.75 84.01 35.93 87.00 37.00
C 90.14 37.62 89.84 40.49 88.00 42.00
M 5.00 41.00 
C 5.97 45.12 2.36 42.76 5.00 41.00
M 5.00 45.00 
C 5.97 49.12 2.36 46.76 5.00 45.00
M 5.00 49.00 
C 5.97 53.12 2.36 50.76 5.00 49.00
M 5.00 53.00 
C 5.97 57.12 2.36 54.76 5.00 53.00
M 5.00 57.00 
C 5.97 61.12 2.36 58.76 5.00 57.00
M 5.00 61.00 
C 6.57 63.32 7.25 65.18 5.00 68.00
C 1.41 66.24 1.90 62.58 5.00 61.00 Z"/>
</g>
<g fill="#A5A5A5" fill-opacity="0.61" stroke="None">
<path d="
M 17.00 13.00 
C 17.70 12.72 21.33 12.67 22.00 13.00
C 19.87 11.95 19.17 11.93 17.00 13.00 Z"/>
</g>
<g fill="#676868" fill-opacity="0.78" stroke="None">
<path d="
M 15.00 15.00 
C 13.95 17.62 15.43 16.15 16.00 18.00
C 15.86 16.98 15.16 13.75 17.00 13.00
C 14.98 14.00 16.16 13.39 15.00 15.00 Z"/>
</g>
<g fill="#080B09" fill-opacity="0.99" stroke="None">
<path d="
M 16.00 18.00 
C 16.13 18.95 16.00 20.04 16.00 21.00
C 16.00 21.00 15.75 21.74 16.00 22.00
C 16.74 22.77 17.77 22.72 18.00 24.00
C 19.13 24.68 21.39 24.44 22.00 24.00
C 20.92 24.79 22.87 21.18 23.00 21.00
C 23.00 21.00 22.84 20.45 23.00 20.00
C 23.56 18.39 24.79 17.03 24.00 16.00
C 22.74 15.82 22.89 13.43 22.00 13.00
C 21.33 12.67 17.70 12.72 17.00 13.00
C 15.16 13.75 15.86 16.98 16.00 18.00 Z"/>
</g>
<g fill="#767877" fill-opacity="0.84" stroke="None">
<path d="
M 24.00 16.00 
C 23.76 15.68 24.00 15.00 24.00 15.00
C 24.23 12.95 23.15 13.57 22.00 13.00
C 22.89 13.43 22.74 15.82 24.00 16.00 Z"/>
</g>
<g fill="#898C8C" fill-opacity="0.54" stroke="None">
<path d="
M 16.00 21.00 
C 16.00 20.04 16.13 18.95 16.00 18.00
C 15.43 16.15 13.95 17.62 15.00 15.00
C 12.82 18.03 14.07 17.79 16.00 21.00 Z"/>
</g>
<g fill="#959796" fill-opacity="0.65" stroke="None">
<path d="
M 24.00 16.00 
C 24.79 17.03 23.56 18.39 23.00 20.00
C 25.14 18.96 27.35 16.25 24.00 15.00
C 24.00 15.00 23.76 15.68 24.00 16.00 Z"/>
</g>
<g fill="#FFFFFF" fill-opacity="0.25" stroke="None">
<path d="
M 3.00 18.00 
C 3.64 17.16 5.36 17.16 6.00 18.00
C 5.87 15.34 3.12 15.45 3.00 18.00 Z"/>
</g>
<g fill="#FFFFFF" fill-opacity="0.62" stroke="None">
<path d="
M 3.00 18.00 
C 2.86 20.97 6.65 18.85 6.00 18.00
C 5.36 17.16 3.64 17.16 3.00 18.00 Z"/>
</g>
<g fill="#A2A2A2" fill-opacity="0.82" stroke="None">
<path d="
M 42.00 18.00 
C 43.33 18.00 44.67 18.00 46.00 18.00
C 44.66 16.70 43.36 16.68 42.00 18.00 Z"/>
</g>
<g fill="#787979" fill-opacity="0.69" stroke="None">
<path d="
M 40.00 26.00 
C 40.78 27.35 42.06 26.83 42.00 29.00
C 41.99 29.50 42.00 30.00 42.00 30.00
C 43.16 30.13 44.85 30.20 46.00 30.00
C 46.36 29.80 46.93 28.38 47.00 28.00
C 47.09 27.52 47.00 26.50 47.00 26.00
C 43.81 30.23 41.68 26.01 41.00 23.00
C 39.98 20.51 38.89 22.55 41.00 20.00
C 41.10 19.52 40.77 18.16 41.00 18.00
C 39.46 18.45 39.88 20.76 38.00 21.00
C 39.68 22.33 39.40 24.29 40.00 26.00 Z"/>
</g>
<g fill="#060706" fill-opacity="1.00" stroke="None">
<path d="
M 41.00 20.00 
C 40.64 21.79 40.58 21.14 41.00 23.00
C 41.68 26.01 43.81 30.23 47.00 26.00
C 47.00 26.00 46.89 25.48 47.00 25.00
C 47.51 22.76 47.79 20.28 47.00 18.00
C 47.00 18.00 46.50 18.00 46.00 18.00
C 44.67 18.00 43.33 18.00 42.00 18.00
C 42.00 18.00 41.31 17.76 41.00 18.00
C 40.77 18.16 41.10 19.52 41.00 20.00 Z"/>
</g>
<g fill="#828483" fill-opacity="0.67" stroke="None">
<path d="
M 47.00 25.00 
C 48.39 24.14 48.84 22.28 50.00 21.00
C 48.40 20.65 48.06 18.82 47.00 18.00
C 47.79 20.28 47.51 22.76 47.00 25.00 Z"/>
</g>
<g fill="#5C5D5D" fill-opacity="1.00" stroke="None">
<path d="
M 41.00 23.00 
C 40.58 21.14 40.64 21.79 41.00 20.00
C 38.89 22.55 39.98 20.51 41.00 23.00 Z"/>
</g>
<g fill="#FFFFFF" fill-opacity="1.00" stroke="None">
<path d="
M 5.00 21.00 
C 2.36 22.76 5.97 25.12 5.00 21.00 Z"/>
</g>
<g fill="#737474" fill-opacity="0.66" stroke="None">
<path d="
M 22.00 24.00 
C 21.87 24.09 24.05 21.46 24.00 22.00
C 23.89 21.65 23.12 21.26 23.00 21.00
C 22.87 21.18 20.92 24.79 22.00 24.00 Z"/>
</g>
<g fill="#676868" fill-opacity="0.65" stroke="None">
<path d="
M 10.00 27.00 
C 10.25 26.75 11.00 27.00 11.00 27.00
C 13.06 24.44 15.22 25.39 18.00 26.00
C 18.12 25.53 18.09 24.48 18.00 24.00
C 17.77 22.72 16.74 22.77 16.00 22.00
C 14.97 25.39 10.42 22.73 10.00 27.00 Z"/>
</g>
<g fill="#9A9A9A" fill-opacity="0.46" stroke="None">
<path d="
M 22.00 24.00 
C 21.39 24.44 19.13 24.68 18.00 24.00
C 18.09 24.48 18.12 25.53 18.00 26.00
C 18.02 25.91 20.78 26.00 21.00 26.00
C 21.50 26.00 22.00 26.00 22.00 26.00
C 22.46 25.77 22.78 24.39 23.00 24.00
C 23.08 23.86 24.03 22.12 24.00 22.00
C 24.05 21.46 21.87 24.09 22.00 24.00 Z"/>
</g>
<g fill="#4E4F4F" fill-opacity="1.00" stroke="None">
<path d="
M 22.00 26.00 
C 23.17 25.57 23.63 25.01 25.00 25.00
C 24.75 24.75 25.00 24.00 25.00 24.00
C 24.50 24.01 23.09 24.19 23.00 24.00
C 22.78 24.39 22.46 25.77 22.00 26.00 Z"/>
</g>
<g fill="#8F9290" fill-opacity="0.48" stroke="None">
<path d="
M 25.00 25.00 
C 25.50 25.00 26.00 25.00 26.00 25.00
C 26.50 25.00 28.78 25.44 29.00 26.00
C 28.65 24.05 26.54 23.97 25.00 24.00
C 25.00 24.00 24.75 24.75 25.00 25.00 Z"/>
</g>
<g fill="#FFFFFF" fill-opacity="1.00" stroke="None">
<path d="
M 5.00 25.00 
C 2.36 26.76 5.97 29.12 5.00 25.00 Z"/>
</g>
<g fill="#301AFB" fill-opacity="1.00" stroke="None">
<path d="
M 11.00 27.00 
C 11.93 28.37 10.15 29.34 10.00 30.00
C 10.00 34.28 9.63 38.74 10.00 43.00
C 10.08 43.37 10.78 45.30 11.00 46.00
C 11.23 46.29 11.89 46.74 12.00 47.00
C 13.51 48.44 12.94 50.89 13.00 53.00
C 13.16 58.66 13.00 64.34 13.00 70.00
C 14.07 69.93 17.41 70.32 18.00 69.00
C 18.29 68.36 18.00 66.71 18.00 66.00
C 18.00 65.00 18.00 64.00 18.00 63.00
C 18.00 59.94 17.97 57.41 19.00 55.00
C 19.00 54.50 19.25 53.26 19.00 53.00
C 18.84 52.84 18.91 50.25 19.00 50.00
C 20.24 46.75 21.06 52.04 21.00 53.00
C 20.97 53.50 21.19 54.92 21.00 55.00
C 20.85 55.07 21.00 57.75 21.00 58.00
C 21.00 58.50 21.00 59.50 21.00 60.00
C 22.71 64.01 20.12 70.74 27.00 70.00
C 27.00 68.33 27.00 66.67 27.00 65.00
C 26.14 56.93 27.30 51.31 29.00 44.00
C 29.00 39.33 29.00 34.67 29.00 30.00
C 28.67 28.47 27.48 25.97 26.00 25.00
C 26.00 25.00 25.50 25.00 25.00 25.00
C 23.63 25.01 23.17 25.57 22.00 26.00
C 22.00 26.00 21.50 26.00 21.00 26.00
C 19.40 27.63 19.37 26.30 18.00 26.00
C 15.22 25.39 13.06 24.44 11.00 27.00 Z"/>
</g>
<g fill="#474848" fill-opacity="1.00" stroke="None">
<path d="
M 29.00 30.00 
C 29.00 29.50 29.00 28.50 29.00 28.00
C 29.00 27.50 29.17 26.43 29.00 26.00
C 28.78 25.44 26.50 25.00 26.00 25.00
C 27.48 25.97 28.67 28.47 29.00 30.00 Z"/>
</g>
<g fill="#363636" fill-opacity="1.00" stroke="None">
<path d="
M 21.00 26.00 
C 20.78 26.00 18.02 25.91 18.00 26.00
C 19.37 26.30 19.40 27.63 21.00 26.00 Z"/>
</g>
<g fill="#929292" fill-opacity="0.25" stroke="None">
<path d="
M 41.00 28.00 
C 41.20 28.31 41.88 28.74 42.00 29.00
C 42.06 26.83 40.78 27.35 40.00 26.00
C 40.27 26.75 40.57 27.32 41.00 28.00 Z"/>
</g>
<g fill="#3B3D3C" fill-opacity="0.99" stroke="None">
<path d="
M 10.00 28.00 
C 10.00 28.50 10.00 29.50 10.00 30.00
C 10.15 29.34 11.93 28.37 11.00 27.00
C 11.00 27.00 10.25 26.75 10.00 27.00
C 10.00 27.00 10.00 27.50 10.00 28.00 Z"/>
</g>
<g fill="#787979" fill-opacity="0.64" stroke="None">
<path d="
M 62.00 28.00 
C 62.25 27.75 63.00 28.00 63.00 28.00
C 69.49 26.95 68.88 31.62 67.00 36.00
C 65.07 36.49 62.63 35.26 63.00 33.00
C 62.99 32.92 62.00 33.00 62.00 33.00
C 62.20 36.34 59.03 36.41 59.00 38.00
C 60.78 36.58 70.73 37.43 72.00 39.00
C 72.20 39.24 73.00 39.00 73.00 39.00
C 72.24 37.11 70.16 35.47 68.00 36.00
C 72.55 31.91 66.96 22.90 62.00 28.00 Z"/>
</g>
<g fill="#808281" fill-opacity="0.43" stroke="None">
<path d="
M 12.00 49.00 
C 12.00 48.50 12.18 47.42 12.00 47.00
C 11.89 46.74 11.23 46.29 11.00 46.00
C 10.13 44.91 10.14 44.59 10.00 43.00
C 9.63 38.74 10.00 34.28 10.00 30.00
C 10.00 29.50 10.00 28.50 10.00 28.00
C 5.60 33.95 10.61 44.26 12.00 49.00 Z"/>
</g>
<g fill="#7F807F" fill-opacity="0.79" stroke="None">
<path d="
M 29.00 30.00 
C 29.00 34.67 29.00 39.33 29.00 44.00
C 29.00 44.50 29.13 45.53 29.00 46.00
C 30.43 41.30 31.01 32.73 29.00 28.00
C 29.00 28.50 29.00 29.50 29.00 30.00 Z"/>
</g>
<g fill="#636464" fill-opacity="0.85" stroke="None">
<path d="
M 38.00 51.00 
C 36.02 44.57 31.87 28.91 42.00 30.00
C 42.00 30.00 41.99 29.50 42.00 29.00
C 41.88 28.74 41.20 28.31 41.00 28.00
C 29.79 25.01 36.43 48.33 38.00 51.00 Z"/>
</g>
<g fill="#434444" fill-opacity="1.00" stroke="None">
<path d="
M 46.00 30.00 
C 47.14 29.80 47.65 29.01 49.00 29.00
C 48.75 28.75 49.00 28.00 49.00 28.00
C 48.50 27.97 47.11 28.21 47.00 28.00
C 46.93 28.38 46.36 29.80 46.00 30.00 Z"/>
</g>
<g fill="#898C8B" fill-opacity="0.68" stroke="None">
<path d="
M 49.00 29.00 
C 49.50 29.00 50.00 29.00 50.00 29.00
C 50.13 29.02 51.99 29.99 52.00 30.00
C 50.94 28.76 50.89 28.11 49.00 28.00
C 49.00 28.00 48.75 28.75 49.00 29.00 Z"/>
</g>
<g fill="#4C4E4E" fill-opacity="1.00" stroke="None">
<path d="
M 62.00 29.00 
C 61.26 30.28 61.23 30.67 62.00 32.00
C 62.00 32.00 61.97 32.50 62.00 33.00
C 62.00 33.00 62.99 32.92 63.00 33.00
C 62.49 30.92 62.47 30.16 63.00 28.00
C 63.00 28.00 62.25 27.75 62.00 28.00
C 62.00 28.00 62.22 28.62 62.00 29.00 Z"/>
</g>
<g fill="#030504" fill-opacity="1.00" stroke="None">
<path d="
M 63.00 33.00 
C 62.63 35.26 65.07 36.49 67.00 36.00
C 68.88 31.62 69.49 26.95 63.00 28.00
C 62.47 30.16 62.49 30.92 63.00 33.00 Z"/>
</g>
<g fill="#FFFFFF" fill-opacity="1.00" stroke="None">
<path d="
M 5.00 29.00 
C 2.36 30.76 5.97 33.12 5.00 29.00 Z"/>
</g>
<g fill="#FADF1B" fill-opacity="1.00" stroke="None">
<path d="
M 38.00 51.00 
C 38.24 51.79 38.00 53.17 38.00 54.00
C 38.00 59.67 38.00 65.33 38.00 71.00
C 39.84 71.85 41.18 70.22 42.00 69.00
C 42.74 67.47 42.40 64.49 43.00 63.00
C 42.97 62.50 42.80 61.10 43.00 61.00
C 43.16 60.92 43.00 58.26 43.00 58.00
C 43.00 57.01 42.95 55.99 43.00 55.00
C 43.03 54.40 44.08 49.35 45.00 52.00
C 45.45 53.30 45.00 55.61 45.00 57.00
C 45.00 57.50 45.00 58.50 45.00 59.00
C 45.76 60.89 45.99 62.55 46.00 65.00
C 46.01 66.15 45.67 67.91 46.00 69.00
C 46.26 69.12 46.68 69.80 47.00 70.00
C 47.93 70.58 49.22 70.51 50.00 71.00
C 50.00 67.33 50.00 63.67 50.00 60.00
C 50.00 56.77 48.71 49.78 52.00 48.00
C 51.52 42.64 51.52 36.36 52.00 31.00
C 50.78 30.81 50.65 29.63 50.00 29.00
C 50.00 29.00 49.50 29.00 49.00 29.00
C 47.65 29.01 47.14 29.80 46.00 30.00
C 44.85 30.20 43.16 30.13 42.00 30.00
C 31.87 28.91 36.02 44.57 38.00 51.00 Z"/>
</g>
<g fill="#494A4A" fill-opacity="0.70" stroke="None">
<path d="
M 52.00 31.00 
C 52.49 31.07 53.00 31.00 53.00 31.00
C 52.95 30.65 52.16 30.27 52.00 30.00
C 51.99 29.99 50.13 29.02 50.00 29.00
C 50.65 29.63 50.78 30.81 52.00 31.00 Z"/>
</g>
<g fill="#898B8B" fill-opacity="0.40" stroke="None">
<path d="
M 62.00 32.00 
C 61.23 30.67 61.26 30.28 62.00 29.00
C 60.02 30.05 59.98 30.92 62.00 32.00 Z"/>
</g>
<g fill="#7A7A7A" fill-opacity="0.96" stroke="None">
<path d="
M 52.00 48.00 
C 52.39 47.79 53.00 48.00 53.00 48.00
C 53.47 42.82 53.74 36.15 53.00 31.00
C 53.00 31.00 52.49 31.07 52.00 31.00
C 51.52 36.36 51.52 42.64 52.00 48.00 Z"/>
</g>
<g fill="#FFFFFF" fill-opacity="1.00" stroke="None">
<path d="
M 5.00 33.00 
C 2.36 34.76 5.97 37.12 5.00 33.00 Z"/>
</g>
<g fill="#FFFFFF" fill-opacity="1.00" stroke="None">
<path d="
M 5.00 37.00 
C 2.36 38.76 5.97 41.12 5.00 37.00 Z"/>
</g>
<g fill="#60C447" fill-opacity="1.00" stroke="None">
<path d="
M 59.00 38.00 
C 58.74 38.21 58.24 38.74 58.00 39.00
C 56.69 44.89 58.45 50.96 60.00 56.00
C 60.24 56.79 60.00 58.17 60.00 59.00
C 60.00 63.67 60.00 68.33 60.00 73.00
C 60.99 72.79 63.33 73.12 64.00 72.00
C 64.54 71.09 64.00 68.10 64.00 67.00
C 64.00 66.50 64.03 65.50 64.00 65.00
C 63.85 62.50 64.38 60.85 65.00 59.00
C 65.09 58.01 64.93 56.99 65.00 56.00
C 66.75 56.83 65.66 59.44 66.00 61.00
C 66.00 61.00 66.00 61.50 66.00 62.00
C 67.16 63.14 66.97 64.28 67.00 66.00
C 67.02 67.00 67.00 68.00 67.00 69.00
C 67.00 70.00 67.00 71.00 67.00 72.00
C 68.30 72.29 69.62 72.70 71.00 73.00
C 71.00 70.67 71.00 68.33 71.00 66.00
C 70.68 62.66 70.31 59.39 71.00 56.00
C 72.13 50.46 71.48 44.80 72.00 39.00
C 70.73 37.43 60.78 36.58 59.00 38.00 Z"/>
</g>
<g fill="#161817" fill-opacity="0.97" stroke="None">
<path d="
M 83.00 43.00 
C 84.45 42.58 86.08 44.89 88.00 43.00
C 88.00 43.00 87.82 42.42 88.00 42.00
C 88.54 40.75 88.87 37.66 87.00 37.00
C 84.01 35.93 83.19 38.75 81.00 39.00
C 81.27 40.54 83.53 41.17 83.00 43.00 Z"/>
</g>
<g fill="#737473" fill-opacity="0.52" stroke="None">
<path d="
M 88.00 42.00 
C 89.84 40.49 90.14 37.62 87.00 37.00
C 88.87 37.66 88.54 40.75 88.00 42.00 Z"/>
</g>
<g fill="#7C7F7F" fill-opacity="0.53" stroke="None">
<path d="
M 60.00 56.00 
C 58.45 50.96 56.69 44.89 58.00 39.00
C 53.87 43.48 58.11 52.24 60.00 56.00 Z"/>
</g>
<g fill="#555656" fill-opacity="0.91" stroke="None">
<path d="
M 71.00 56.00 
C 72.00 51.09 73.57 45.29 73.00 39.00
C 73.00 39.00 72.20 39.24 72.00 39.00
C 71.48 44.80 72.13 50.46 71.00 56.00 Z"/>
</g>
<g fill="#FFFFFF" fill-opacity="1.00" stroke="None">
<path d="
M 5.00 41.00 
C 2.36 42.76 5.97 45.12 5.00 41.00 Z"/>
</g>
<g fill="#313332" fill-opacity="1.00" stroke="None">
<path d="
M 11.00 46.00 
C 10.78 45.30 10.08 43.37 10.00 43.00
C 10.14 44.59 10.13 44.91 11.00 46.00 Z"/>
</g>
<g fill="#7E7E7E" fill-opacity="0.68" stroke="None">
<path d="
M 81.00 45.00 
C 84.23 45.83 86.73 45.78 90.00 45.00
C 89.51 44.56 88.23 43.59 88.00 43.00
C 86.08 44.89 84.45 42.58 83.00 43.00
C 82.74 43.07 81.27 44.74 81.00 45.00 Z"/>
</g>
<g fill="#373939" fill-opacity="0.92" stroke="None">
<path d="
M 27.00 65.00 
C 27.00 62.67 27.00 60.33 27.00 58.00
C 27.00 53.13 27.86 50.21 29.00 46.00
C 29.13 45.53 29.00 44.50 29.00 44.00
C 27.30 51.31 26.14 56.93 27.00 65.00 Z"/>
</g>
<g fill="#FFFFFF" fill-opacity="1.00" stroke="None">
<path d="
M 5.00 45.00 
C 2.36 46.76 5.97 49.12 5.00 45.00 Z"/>
</g>
<g fill="#3A3C3C" fill-opacity="0.96" stroke="None">
<path d="
M 79.00 52.00 
C 79.97 49.95 79.85 47.28 81.00 45.00
C 78.88 47.05 78.65 48.75 79.00 52.00 Z"/>
</g>
<g fill="#E60F0C" fill-opacity="1.00" stroke="None">
<path d="
M 79.00 52.00 
C 79.00 52.00 79.05 52.51 79.00 53.00
C 79.86 54.81 80.58 57.76 81.00 60.00
C 81.17 60.91 81.00 62.07 81.00 63.00
C 81.00 65.99 79.51 73.49 83.00 74.00
C 83.00 74.00 83.60 74.20 84.00 74.00
C 84.08 71.80 84.42 70.63 85.00 69.00
C 84.97 68.50 85.25 67.25 85.00 67.00
C 84.90 66.90 84.90 64.10 85.00 64.00
C 84.95 62.15 87.46 63.93 87.00 66.00
C 87.43 66.71 87.00 69.15 87.00 70.00
C 87.00 70.68 86.71 72.40 87.00 73.00
C 87.13 73.27 87.75 73.76 88.00 74.00
C 91.18 74.21 90.00 68.18 90.00 66.00
C 90.00 64.09 89.69 61.88 90.00 60.00
C 90.22 58.69 91.79 56.91 92.00 56.00
C 92.00 53.72 92.26 51.27 92.00 49.00
C 91.78 48.01 90.23 46.35 90.00 45.00
C 86.73 45.78 84.23 45.83 81.00 45.00
C 79.85 47.28 79.97 49.95 79.00 52.00 Z"/>
</g>
<g fill="#4F5150" fill-opacity="0.85" stroke="None">
<path d="
M 92.00 49.00 
C 91.64 45.83 91.81 46.61 90.00 45.00
C 90.23 46.35 91.78 48.01 92.00 49.00 Z"/>
</g>
<g fill="#353535" fill-opacity="0.22" stroke="None">
<path d="
M 12.00 49.00 
C 12.00 50.33 12.00 51.67 12.00 53.00
C 12.13 53.22 13.00 53.00 13.00 53.00
C 12.94 50.89 13.51 48.44 12.00 47.00
C 12.18 47.42 12.00 48.50 12.00 49.00 Z"/>
</g>
<g fill="#4E514F" fill-opacity="0.60" stroke="None">
<path d="
M 50.00 60.00 
C 50.00 59.96 51.00 60.00 51.00 60.00
C 51.00 56.04 49.95 50.98 53.00 48.00
C 53.00 48.00 52.39 47.79 52.00 48.00
C 48.71 49.78 50.00 56.77 50.00 60.00 Z"/>
</g>
<g fill="#FFFFFF" fill-opacity="1.00" stroke="None">
<path d="
M 5.00 49.00 
C 2.36 50.76 5.97 53.12 5.00 49.00 Z"/>
</g>
<g fill="#5B5B5B" fill-opacity="1.00" stroke="None">
<path d="
M 19.00 50.00 
C 19.41 50.56 20.85 52.42 21.00 53.00
C 21.06 52.04 20.24 46.75 19.00 50.00 Z"/>
</g>
<g fill="#8C8C8C" fill-opacity="0.98" stroke="None">
<path d="
M 19.00 53.00 
C 19.11 53.39 20.92 54.69 21.00 55.00
C 21.19 54.92 20.97 53.50 21.00 53.00
C 20.85 52.42 19.41 50.56 19.00 50.00
C 18.91 50.25 18.84 52.84 19.00 53.00 Z"/>
</g>
<g fill="#494949" fill-opacity="0.97" stroke="None">
<path d="
M 43.00 55.00 
C 43.27 54.75 44.00 55.00 44.00 55.00
C 44.01 54.00 43.60 52.27 45.00 52.00
C 44.08 49.35 43.03 54.40 43.00 55.00 Z"/>
</g>
<g fill="#979797" fill-opacity="0.84" stroke="None">
<path d="
M 44.00 55.00 
C 44.00 55.50 44.00 56.50 44.00 57.00
C 44.00 57.00 44.66 56.77 45.00 57.00
C 45.00 55.61 45.45 53.30 45.00 52.00
C 43.60 52.27 44.01 54.00 44.00 55.00 Z"/>
</g>
<g fill="#FFFFFF" fill-opacity="1.00" stroke="None">
<path d="
M 5.00 53.00 
C 2.36 54.76 5.97 57.12 5.00 53.00 Z"/>
</g>
<g fill="#959696" fill-opacity="0.97" stroke="None">
<path d="
M 13.00 71.00 
C 12.85 70.95 13.00 70.00 13.00 70.00
C 13.00 64.34 13.16 58.66 13.00 53.00
C 13.00 53.00 12.13 53.22 12.00 53.00
C 12.00 57.05 10.18 68.29 13.00 71.00 Z"/>
</g>
<g fill="#4A4A4A" fill-opacity="0.26" stroke="None">
<path d="
M 19.00 55.00 
C 19.00 55.50 18.96 56.50 19.00 57.00
C 18.99 57.01 21.03 58.14 21.00 58.00
C 21.00 57.75 20.85 55.07 21.00 55.00
C 20.92 54.69 19.11 53.39 19.00 53.00
C 19.25 53.26 19.00 54.50 19.00 55.00 Z"/>
</g>
<g fill="#434544" fill-opacity="0.99" stroke="None">
<path d="
M 81.00 60.00 
C 80.58 57.76 79.86 54.81 79.00 53.00
C 78.60 56.66 79.92 57.50 81.00 60.00 Z"/>
</g>
<g fill="#969696" fill-opacity="0.78" stroke="None">
<path d="
M 38.00 71.00 
C 38.00 65.33 38.00 59.67 38.00 54.00
C 37.52 56.20 34.83 69.53 38.00 71.00 Z"/>
</g>
<g fill="#333333" fill-opacity="0.78" stroke="None">
<path d="
M 18.00 63.00 
C 18.27 62.75 19.00 63.00 19.00 63.00
C 19.05 62.11 19.99 60.25 20.00 60.00
C 19.74 58.86 19.10 58.31 19.00 57.00
C 18.96 56.50 19.00 55.50 19.00 55.00
C 17.97 57.41 18.00 59.94 18.00 63.00 Z"/>
</g>
<g fill="#606060" fill-opacity="0.76" stroke="None">
<path d="
M 43.00 58.00 
C 43.27 57.75 44.00 58.00 44.00 58.00
C 44.00 58.00 44.00 57.50 44.00 57.00
C 44.00 56.50 44.00 55.50 44.00 55.00
C 44.00 55.00 43.27 54.75 43.00 55.00
C 42.95 55.99 43.00 57.01 43.00 58.00 Z"/>
</g>
<g fill="#888888" fill-opacity="0.81" stroke="None">
<path d="
M 65.00 59.00 
C 64.96 59.50 64.98 60.50 65.00 61.00
C 65.00 61.00 65.75 60.75 66.00 61.00
C 65.66 59.44 66.75 56.83 65.00 56.00
C 64.93 56.99 65.09 58.01 65.00 59.00 Z"/>
</g>
<g fill="#2E302F" fill-opacity="1.00" stroke="None">
<path d="
M 71.00 66.00 
C 71.00 65.50 71.00 64.50 71.00 64.00
C 71.00 61.51 70.50 58.44 71.00 56.00
C 70.31 59.39 70.68 62.66 71.00 66.00 Z"/>
</g>
<g fill="#464747" fill-opacity="1.00" stroke="None">
<path d="
M 90.00 60.00 
C 90.22 59.61 91.87 59.27 92.00 59.00
C 92.17 58.09 92.00 56.93 92.00 56.00
C 91.79 56.91 90.22 58.69 90.00 60.00 Z"/>
</g>
<g fill="#FFFFFF" fill-opacity="1.00" stroke="None">
<path d="
M 5.00 57.00 
C 2.36 58.76 5.97 61.12 5.00 57.00 Z"/>
</g>
<g fill="#838383" fill-opacity="0.30" stroke="None">
<path d="
M 20.00 60.00 
C 20.34 61.53 20.76 63.87 21.00 65.00
C 20.93 63.34 21.00 61.66 21.00 60.00
C 21.00 59.50 21.00 58.50 21.00 58.00
C 21.03 58.14 18.99 57.01 19.00 57.00
C 19.10 58.31 19.74 58.86 20.00 60.00 Z"/>
</g>
<g fill="#A4A6A5" fill-opacity="0.79" stroke="None">
<path d="
M 27.00 65.00 
C 27.00 66.67 27.00 68.33 27.00 70.00
C 27.00 70.50 27.00 71.00 27.00 71.00
C 29.89 68.22 27.29 61.00 27.00 58.00
C 27.00 60.33 27.00 62.67 27.00 65.00 Z"/>
</g>
<g fill="#949494" fill-opacity="0.65" stroke="None">
<path d="
M 43.00 61.00 
C 43.27 59.99 44.20 59.71 44.00 58.00
C 44.00 58.00 43.27 57.75 43.00 58.00
C 43.00 58.26 43.16 60.92 43.00 61.00 Z"/>
</g>
<g fill="#434343" fill-opacity="1.00" stroke="None">
<path d="
M 45.00 65.00 
C 45.13 64.78 46.00 65.00 46.00 65.00
C 45.99 62.55 45.76 60.89 45.00 59.00
C 45.00 61.00 45.00 63.00 45.00 65.00 Z"/>
</g>
<g fill="#8F8F8F" fill-opacity="0.47" stroke="None">
<path d="
M 60.00 74.00 
C 59.83 73.93 60.00 73.00 60.00 73.00
C 60.00 68.33 60.00 63.67 60.00 59.00
C 59.34 62.01 57.12 71.23 60.00 74.00 Z"/>
</g>
<g fill="#414141" fill-opacity="0.96" stroke="None">
<path d="
M 64.00 65.00 
C 64.40 63.70 65.06 62.93 65.00 61.00
C 64.98 60.50 64.96 59.50 65.00 59.00
C 64.38 60.85 63.85 62.50 64.00 65.00 Z"/>
</g>
<g fill="#4D4F4E" fill-opacity="0.33" stroke="None">
<path d="
M 90.00 60.00 
C 89.69 61.88 90.00 64.09 90.00 66.00
C 90.02 66.10 91.00 66.00 91.00 66.00
C 91.10 63.38 91.56 61.36 92.00 59.00
C 91.87 59.27 90.22 59.61 90.00 60.00 Z"/>
</g>
<g fill="#545454" fill-opacity="0.90" stroke="None">
<path d="
M 21.00 65.00 
C 21.17 69.21 21.66 72.27 27.00 71.00
C 27.00 71.00 27.00 70.50 27.00 70.00
C 20.12 70.74 22.71 64.01 21.00 60.00
C 21.00 61.66 20.93 63.34 21.00 65.00 Z"/>
</g>
<g fill="#6A6D6C" fill-opacity="0.93" stroke="None">
<path d="
M 50.00 71.00 
C 50.00 71.50 50.00 72.00 50.00 72.00
C 52.20 69.89 51.00 63.16 51.00 60.00
C 51.00 60.00 50.00 59.96 50.00 60.00
C 50.00 63.67 50.00 67.33 50.00 71.00 Z"/>
</g>
<g fill="#FFFFFF" fill-opacity="0.47" stroke="None">
<path d="
M 5.00 61.00 
C 1.90 62.58 1.41 66.24 5.00 68.00
C 7.25 65.18 6.57 63.32 5.00 61.00 Z"/>
</g>
<g fill="#404040" fill-opacity="1.00" stroke="None">
<path d="
M 66.00 66.00 
C 66.27 65.75 67.00 66.00 67.00 66.00
C 66.97 64.28 67.16 63.14 66.00 62.00
C 66.00 63.33 66.00 64.67 66.00 66.00 Z"/>
</g>
<g fill="#626464" fill-opacity="0.73" stroke="None">
<path d="
M 18.00 66.00 
C 18.27 65.75 19.00 66.00 19.00 66.00
C 19.05 65.00 18.95 64.00 19.00 63.00
C 19.00 63.00 18.27 62.75 18.00 63.00
C 18.00 64.00 18.00 65.00 18.00 66.00 Z"/>
</g>
<g fill="#464848" fill-opacity="1.00" stroke="None">
<path d="
M 42.00 69.00 
C 43.17 67.26 43.14 65.39 43.00 63.00
C 42.40 64.49 42.74 67.47 42.00 69.00 Z"/>
</g>
<g fill="#5E605F" fill-opacity="0.15" stroke="None">
<path d="
M 83.00 74.00 
C 79.51 73.49 81.00 65.99 81.00 63.00
C 80.71 64.32 78.29 77.75 83.00 74.00 Z"/>
</g>
<g fill="#393939" fill-opacity="0.79" stroke="None">
<path d="
M 85.00 64.00 
C 85.69 63.31 86.00 65.94 86.00 66.00
C 86.25 65.75 87.00 66.00 87.00 66.00
C 87.46 63.93 84.95 62.15 85.00 64.00 Z"/>
</g>
<g fill="#9DA09E" fill-opacity="0.46" stroke="None">
<path d="
M 71.00 66.00 
C 71.00 68.33 71.00 70.67 71.00 73.00
C 71.00 73.50 71.00 74.00 71.00 74.00
C 73.60 71.50 71.25 66.56 71.00 64.00
C 71.00 64.50 71.00 65.50 71.00 66.00 Z"/>
</g>
<g fill="#686868" fill-opacity="0.15" stroke="None">
<path d="
M 85.00 67.00 
C 85.00 67.00 85.75 67.25 86.00 67.00
C 86.00 66.50 86.00 66.00 86.00 66.00
C 86.00 65.94 85.69 63.31 85.00 64.00
C 84.90 64.10 84.90 66.90 85.00 67.00 Z"/>
</g>
<g fill="#5B5D5D" fill-opacity="0.74" stroke="None">
<path d="
M 45.00 69.00 
C 45.13 69.22 46.00 69.00 46.00 69.00
C 45.67 67.91 46.01 66.15 46.00 65.00
C 46.00 65.00 45.13 64.78 45.00 65.00
C 45.00 65.85 44.57 68.29 45.00 69.00 Z"/>
</g>
<g fill="#959797" fill-opacity="0.60" stroke="None">
<path d="
M 18.00 69.00 
C 18.80 67.77 18.91 67.78 19.00 66.00
C 19.00 66.00 18.27 65.75 18.00 66.00
C 18.00 66.71 18.29 68.36 18.00 69.00 Z"/>
</g>
<g fill="#6D6D6D" fill-opacity="0.97" stroke="None">
<path d="
M 66.00 69.00 
C 66.27 69.25 67.00 69.00 67.00 69.00
C 67.00 68.00 67.02 67.00 67.00 66.00
C 67.00 66.00 66.27 65.75 66.00 66.00
C 66.00 67.00 65.98 68.00 66.00 69.00 Z"/>
</g>
<g fill="#757575" fill-opacity="1.00" stroke="None">
<path d="
M 86.00 67.00 
C 86.00 68.00 85.98 69.00 86.00 70.00
C 86.27 70.25 87.00 70.00 87.00 70.00
C 87.00 69.15 87.43 66.71 87.00 66.00
C 87.00 66.00 86.25 65.75 86.00 66.00
C 86.00 66.00 86.00 66.50 86.00 67.00 Z"/>
</g>
<g fill="#737675" fill-opacity="0.80" stroke="None">
<path d="
M 88.00 74.00 
C 88.27 75.47 90.00 74.89 91.00 75.00
C 91.09 72.00 90.89 69.00 91.00 66.00
C 91.00 66.00 90.02 66.10 90.00 66.00
C 90.00 68.18 91.18 74.21 88.00 74.00 Z"/>
</g>
<g fill="#727373" fill-opacity="0.50" stroke="None">
<path d="
M 64.00 72.00 
C 65.31 69.93 64.93 69.07 64.00 67.00
C 64.00 68.10 64.54 71.09 64.00 72.00 Z"/>
</g>
<g fill="#4A4C4B" fill-opacity="0.74" stroke="None">
<path d="
M 13.00 70.00 
C 13.00 70.00 12.85 70.95 13.00 71.00
C 15.86 71.92 16.95 70.60 18.00 69.00
C 17.41 70.32 14.07 69.93 13.00 70.00 Z"/>
</g>
<g fill="#848585" fill-opacity="0.49" stroke="None">
<path d="
M 48.00 72.00 
C 47.52 71.81 47.28 70.30 47.00 70.00
C 46.68 69.80 46.26 69.12 46.00 69.00
C 46.00 69.00 45.13 69.22 45.00 69.00
C 45.15 70.06 46.95 71.76 48.00 72.00 Z"/>
</g>
<g fill="#6C6D6C" fill-opacity="0.50" stroke="None">
<path d="
M 67.00 73.00 
C 66.86 72.54 67.00 72.00 67.00 72.00
C 67.00 71.00 67.00 70.00 67.00 69.00
C 67.00 69.00 66.27 69.25 66.00 69.00
C 66.01 69.79 65.60 73.05 67.00 73.00 Z"/>
</g>
<g fill="#535554" fill-opacity="0.89" stroke="None">
<path d="
M 84.00 74.00 
C 85.59 73.19 85.08 70.59 85.00 69.00
C 84.42 70.63 84.08 71.80 84.00 74.00 Z"/>
</g>
<g fill="#383A39" fill-opacity="0.54" stroke="None">
<path d="
M 48.00 72.00 
C 48.47 72.11 49.84 72.23 50.00 72.00
C 50.00 72.00 50.00 71.50 50.00 71.00
C 49.22 70.51 47.93 70.58 47.00 70.00
C 47.28 70.30 47.52 71.81 48.00 72.00 Z"/>
</g>
<g fill="#616161" fill-opacity="0.21" stroke="None">
<path d="
M 87.00 73.00 
C 86.71 72.40 87.00 70.68 87.00 70.00
C 87.00 70.00 86.27 70.25 86.00 70.00
C 86.04 72.45 85.73 73.02 87.00 73.00 Z"/>
</g>
<g fill="#525453" fill-opacity="0.75" stroke="None">
<path d="
M 60.00 73.00 
C 60.00 73.00 59.83 73.93 60.00 74.00
C 62.58 75.01 63.17 73.31 64.00 72.00
C 63.33 73.12 60.99 72.79 60.00 73.00 Z"/>
</g>
<g fill="#4F5151" fill-opacity="0.82" stroke="None">
<path d="
M 67.00 73.00 
C 67.38 74.23 69.97 74.47 71.00 74.00
C 71.00 74.00 71.00 73.50 71.00 73.00
C 69.62 72.70 68.30 72.29 67.00 72.00
C 67.00 72.00 66.86 72.54 67.00 73.00 Z"/>
</g>
</svg>