<svg xmlns="http://www.w3.org/2000/svg" xmlns:v="https://svgstorm.com"
viewBox = "0 0 100 102"
width="100"
height="102">
<g fill="None" fill-opacity="0.0" stroke="#000000" stroke-opacity="0.00" stroke-width="0.3"><path d="
M 0.00 102.00 
L 100.00 102.00
L 100.00 0.00
L 0.00 0.00
L 0.00 102.00
M 80.00 16.00 
C 81.62 17.28 82.76 18.43 84.00 20.00
C 99.02 39.02 100.29 63.63 85.00 83.00
C 83.18 85.30 81.25 87.22 79.00 89.00
C 68.54 97.26 56.75 101.18 43.00 100.00
C 41.53 99.87 40.94 99.27 40.00 99.00
C 32.25 97.94 25.21 94.90 19.00 90.00
C 16.02 87.65 13.31 84.93 11.00 82.00
C -4.07 62.91 -2.85 34.54 15.25 17.25 C 33.34 -0.04 60.85 0.88 80.00 16.00 Z"/>
</g>
<g fill="None" fill-opacity="0.0" stroke="#17BAFE" stroke-opacity="0.97" stroke-width="0.3"><path d="
M 11.00 82.00 
C 13.35 84.55 16.50 87.69 19.00 90.00
C 25.21 94.90 32.25 97.94 40.00 99.00
C 41.21 99.17 42.29 99.84 43.00 100.00
C 56.75 101.18 68.54 97.26 79.00 89.00
C 80.86 87.28 83.32 84.81 85.00 83.00
C 100.29 63.63 99.02 39.02 84.00 20.00
C 82.90 18.81 81.14 17.05 80.00 16.00
C 60.85 0.88 33.34 -0.04 15.25 17.25 C -2.85 34.54 -4.07 62.91 11.00 82.00
M 31.00 30.00 
C 37.19 25.53 49.66 31.27 57.00 29.00
C 56.70 27.75 55.17 27.29 55.00 26.00
C 56.88 18.04 64.24 25.27 67.25 29.75 C 70.25 34.23 60.33 42.57 56.00 42.00
C 54.89 39.03 57.90 37.59 58.00 35.00
C 50.33 35.00 42.67 35.00 35.00 35.00
C 35.00 46.00 35.00 57.00 35.00 68.00
C 43.33 68.00 51.67 68.00 60.00 68.00
C 60.00 64.67 60.00 61.33 60.00 58.00
C 55.57 59.10 57.36 53.51 57.00 51.00
C 61.00 51.00 65.00 51.00 69.00 51.00
C 69.36 54.84 69.52 58.55 65.00 59.00
C 67.23 67.02 64.53 76.33 56.00 74.00 C 47.47 71.67 39.22 76.47 32.00 74.00 C 24.78 71.53 30.05 59.36 29.00 53.00 C 27.95 46.64 28.17 35.04 31.00 30.00 Z"/>
</g>
<g fill="None" fill-opacity="0.0" stroke="#FEFFF4" stroke-opacity="0.02" stroke-width="0.3"><path d="
M 84.00 20.00 
C 82.76 18.43 81.62 17.28 80.00 16.00
C 81.14 17.05 82.90 18.81 84.00 20.00 Z"/>
</g>
<g fill="None" fill-opacity="0.0" stroke="#FBFEFF" stroke-opacity="1.00" stroke-width="0.3"><path d="
M 55.00 26.00 
C 55.05 26.91 59.38 28.01 58.00 30.00
C 49.00 30.00 40.00 30.00 31.00 30.00
C 28.17 35.04 27.95 46.64 29.00 53.00 C 30.05 59.36 24.78 71.53 32.00 74.00 C 39.22 76.47 47.47 71.67 56.00 74.00 C 64.53 76.33 67.23 67.02 65.00 59.00
C 69.52 58.55 69.36 54.84 69.00 51.00
C 65.00 51.00 61.00 51.00 57.00 51.00
C 57.36 53.51 55.57 59.10 60.00 58.00
C 60.00 61.33 60.00 64.67 60.00 68.00
C 51.67 68.00 43.33 68.00 35.00 68.00
C 35.00 57.00 35.00 46.00 35.00 35.00
C 42.67 35.00 50.33 35.00 58.00 35.00
C 57.90 37.59 54.89 39.03 56.00 42.00
C 60.33 42.57 70.25 34.23 67.25 29.75 C 64.24 25.27 56.88 18.04 55.00 26.00 Z"/>
</g>
<g fill="None" fill-opacity="0.0" stroke="#B1E9FF" stroke-opacity="1.00" stroke-width="0.3"><path d="
M 31.00 30.00 
C 40.00 30.00 49.00 30.00 58.00 30.00
C 59.38 28.01 55.05 26.91 55.00 26.00
C 55.17 27.29 56.70 27.75 57.00 29.00
C 49.66 31.27 37.19 25.53 31.00 30.00 Z"/>
</g>
<g fill="None" fill-opacity="0.0" stroke="#85D7FB" stroke-opacity="0.24" stroke-width="0.3"><path d="
M 19.00 90.00 
C 16.50 87.69 13.35 84.55 11.00 82.00
C 13.31 84.93 16.02 87.65 19.00 90.00 Z"/>
</g>
<g fill="None" fill-opacity="0.0" stroke="#CFECFA" stroke-opacity="0.09" stroke-width="0.3"><path d="
M 79.00 89.00 
C 81.25 87.22 83.18 85.30 85.00 83.00
C 83.32 84.81 80.86 87.28 79.00 89.00 Z"/>
</g>
<g fill="None" fill-opacity="0.0" stroke="#B2EBF8" stroke-opacity="0.10" stroke-width="0.3"><path d="
M 43.00 100.00 
C 42.29 99.84 41.21 99.17 40.00 99.00
C 40.94 99.27 41.53 99.87 43.00 100.00 Z"/>
</g>
<g fill="#000000" fill-opacity="0.00" stroke="None">
<path d="
M 0.00 102.00 
L 100.00 102.00
L 100.00 0.00
L 0.00 0.00
L 0.00 102.00
M 80.00 16.00 
C 81.62 17.28 82.76 18.43 84.00 20.00
C 99.02 39.02 100.29 63.63 85.00 83.00
C 83.18 85.30 81.25 87.22 79.00 89.00
C 68.54 97.26 56.75 101.18 43.00 100.00
C 41.53 99.87 40.94 99.27 40.00 99.00
C 32.25 97.94 25.21 94.90 19.00 90.00
C 16.02 87.65 13.31 84.93 11.00 82.00
C -4.07 62.91 -2.85 34.54 15.25 17.25 C 33.34 -0.04 60.85 0.88 80.00 16.00 Z"/>
</g>
<g fill="#17BAFE" fill-opacity="0.97" stroke="None">
<path d="
M 11.00 82.00 
C 13.35 84.55 16.50 87.69 19.00 90.00
C 25.21 94.90 32.25 97.94 40.00 99.00
C 41.21 99.17 42.29 99.84 43.00 100.00
C 56.75 101.18 68.54 97.26 79.00 89.00
C 80.86 87.28 83.32 84.81 85.00 83.00
C 100.29 63.63 99.02 39.02 84.00 20.00
C 82.90 18.81 81.14 17.05 80.00 16.00
C 60.85 0.88 33.34 -0.04 15.25 17.25 C -2.85 34.54 -4.07 62.91 11.00 82.00
M 31.00 30.00 
C 37.19 25.53 49.66 31.27 57.00 29.00
C 56.70 27.75 55.17 27.29 55.00 26.00
C 56.88 18.04 64.24 25.27 67.25 29.75 C 70.25 34.23 60.33 42.57 56.00 42.00
C 54.89 39.03 57.90 37.59 58.00 35.00
C 50.33 35.00 42.67 35.00 35.00 35.00
C 35.00 46.00 35.00 57.00 35.00 68.00
C 43.33 68.00 51.67 68.00 60.00 68.00
C 60.00 64.67 60.00 61.33 60.00 58.00
C 55.57 59.10 57.36 53.51 57.00 51.00
C 61.00 51.00 65.00 51.00 69.00 51.00
C 69.36 54.84 69.52 58.55 65.00 59.00
C 67.23 67.02 64.53 76.33 56.00 74.00 C 47.47 71.67 39.22 76.47 32.00 74.00 C 24.78 71.53 30.05 59.36 29.00 53.00 C 27.95 46.64 28.17 35.04 31.00 30.00 Z"/>
</g>
<g fill="#FEFFF4" fill-opacity="0.02" stroke="None">
<path d="
M 84.00 20.00 
C 82.76 18.43 81.62 17.28 80.00 16.00
C 81.14 17.05 82.90 18.81 84.00 20.00 Z"/>
</g>
<g fill="#FBFEFF" fill-opacity="1.00" stroke="None">
<path d="
M 55.00 26.00 
C 55.05 26.91 59.38 28.01 58.00 30.00
C 49.00 30.00 40.00 30.00 31.00 30.00
C 28.17 35.04 27.95 46.64 29.00 53.00 C 30.05 59.36 24.78 71.53 32.00 74.00 C 39.22 76.47 47.47 71.67 56.00 74.00 C 64.53 76.33 67.23 67.02 65.00 59.00
C 69.52 58.55 69.36 54.84 69.00 51.00
C 65.00 51.00 61.00 51.00 57.00 51.00
C 57.36 53.51 55.57 59.10 60.00 58.00
C 60.00 61.33 60.00 64.67 60.00 68.00
C 51.67 68.00 43.33 68.00 35.00 68.00
C 35.00 57.00 35.00 46.00 35.00 35.00
C 42.67 35.00 50.33 35.00 58.00 35.00
C 57.90 37.59 54.89 39.03 56.00 42.00
C 60.33 42.57 70.25 34.23 67.25 29.75 C 64.24 25.27 56.88 18.04 55.00 26.00 Z"/>
</g>
<g fill="#B1E9FF" fill-opacity="1.00" stroke="None">
<path d="
M 31.00 30.00 
C 40.00 30.00 49.00 30.00 58.00 30.00
C 59.38 28.01 55.05 26.91 55.00 26.00
C 55.17 27.29 56.70 27.75 57.00 29.00
C 49.66 31.27 37.19 25.53 31.00 30.00 Z"/>
</g>
<g fill="#85D7FB" fill-opacity="0.24" stroke="None">
<path d="
M 19.00 90.00 
C 16.50 87.69 13.35 84.55 11.00 82.00
C 13.31 84.93 16.02 87.65 19.00 90.00 Z"/>
</g>
<g fill="#CFECFA" fill-opacity="0.09" stroke="None">
<path d="
M 79.00 89.00 
C 81.25 87.22 83.18 85.30 85.00 83.00
C 83.32 84.81 80.86 87.28 79.00 89.00 Z"/>
</g>
<g fill="#B2EBF8" fill-opacity="0.10" stroke="None">
<path d="
M 43.00 100.00 
C 42.29 99.84 41.21 99.17 40.00 99.00
C 40.94 99.27 41.53 99.87 43.00 100.00 Z"/>
</g>
</svg>