<svg xmlns="http://www.w3.org/2000/svg" xmlns:v="https://svgstorm.com"
viewBox = "0 0 100 102"
width="100"
height="102">
<g fill="None" fill-opacity="0.0" stroke="#000000" stroke-opacity="0.00" stroke-width="0.3"><path d="
M 0.00 102.00 
L 100.00 102.00
L 100.00 0.00
L 0.00 0.00
L 0.00 102.00
M 80.00 16.00 
C 81.62 17.28 82.76 18.43 84.00 20.00
C 99.02 39.02 100.29 63.63 85.00 83.00
C 83.18 85.30 81.25 87.22 79.00 89.00
C 68.54 97.26 56.75 101.18 43.00 100.00
C 41.53 99.87 40.94 99.27 40.00 99.00
C 4.21 94.11 -10.66 49.44 11.00 22.00
C 13.33 19.04 16.02 16.22 19.00 14.00
C 37.87 -0.03 61.96 1.76 80.00 16.00 Z"/>
</g>
<g fill="None" fill-opacity="0.0" stroke="#ACACAC" stroke-opacity="0.97" stroke-width="0.3"><path d="
M 19.00 14.00 
C 16.46 16.21 13.25 19.56 11.00 22.00
C -10.66 49.44 4.21 94.11 40.00 99.00
C 41.21 99.17 42.29 99.84 43.00 100.00
C 56.75 101.18 68.54 97.26 79.00 89.00
C 80.86 87.28 83.32 84.81 85.00 83.00
C 100.29 63.63 99.02 39.02 84.00 20.00
C 82.90 18.81 81.14 17.05 80.00 16.00
C 61.96 1.76 37.87 -0.03 19.00 14.00
M 58.00 35.00 
C 50.33 35.00 42.67 35.00 35.00 35.00
C 35.00 46.00 35.00 57.00 35.00 68.00
C 43.33 68.00 51.67 68.00 60.00 68.00
C 60.00 65.00 60.00 62.00 60.00 59.00
C 55.23 59.99 57.55 53.70 57.00 51.00
C 61.00 51.00 65.00 51.00 69.00 51.00
C 69.36 54.84 69.52 58.55 65.00 59.00
C 67.74 66.77 63.88 76.66 56.00 74.00 C 48.12 71.34 37.06 77.15 31.00 74.00 C 24.94 70.85 29.64 56.35 29.00 51.00 C 28.36 45.65 26.16 31.45 32.08 29.08 C 38.00 26.72 50.48 30.68 57.00 29.00
C 49.08 16.61 70.01 25.55 68.97 33.03 C 67.94 40.50 48.06 47.67 58.00 35.00 Z"/>
</g>
<g fill="None" fill-opacity="0.0" stroke="#E2E2E2" stroke-opacity="0.11" stroke-width="0.3"><path d="
M 11.00 22.00 
C 13.25 19.56 16.46 16.21 19.00 14.00
C 16.02 16.22 13.33 19.04 11.00 22.00 Z"/>
</g>
<g fill="None" fill-opacity="0.0" stroke="#FEFEFE" stroke-opacity="0.02" stroke-width="0.3"><path d="
M 84.00 20.00 
C 82.76 18.43 81.62 17.28 80.00 16.00
C 81.14 17.05 82.90 18.81 84.00 20.00 Z"/>
</g>
<g fill="None" fill-opacity="0.0" stroke="#FBFBFB" stroke-opacity="1.00" stroke-width="0.3"><path d="
M 58.00 35.00 
C 48.06 47.67 67.94 40.50 68.97 33.03 C 70.01 25.55 49.08 16.61 57.00 29.00
C 50.48 30.68 38.00 26.72 32.08 29.08 C 26.16 31.45 28.36 45.65 29.00 51.00 C 29.64 56.35 24.94 70.85 31.00 74.00 C 37.06 77.15 48.12 71.34 56.00 74.00 C 63.88 76.66 67.74 66.77 65.00 59.00
C 69.52 58.55 69.36 54.84 69.00 51.00
C 65.00 51.00 61.00 51.00 57.00 51.00
C 57.55 53.70 55.23 59.99 60.00 59.00
C 60.00 62.00 60.00 65.00 60.00 68.00
C 51.67 68.00 43.33 68.00 35.00 68.00
C 35.00 57.00 35.00 46.00 35.00 35.00
C 42.67 35.00 50.33 35.00 58.00 35.00 Z"/>
</g>
<g fill="None" fill-opacity="0.0" stroke="#E6E6E6" stroke-opacity="0.09" stroke-width="0.3"><path d="
M 79.00 89.00 
C 81.25 87.22 83.18 85.30 85.00 83.00
C 83.32 84.81 80.86 87.28 79.00 89.00 Z"/>
</g>
<g fill="None" fill-opacity="0.0" stroke="#DFDFDF" stroke-opacity="0.10" stroke-width="0.3"><path d="
M 43.00 100.00 
C 42.29 99.84 41.21 99.17 40.00 99.00
C 40.94 99.27 41.53 99.87 43.00 100.00 Z"/>
</g>
<g fill="#000000" fill-opacity="0.00" stroke="None">
<path d="
M 0.00 102.00 
L 100.00 102.00
L 100.00 0.00
L 0.00 0.00
L 0.00 102.00
M 80.00 16.00 
C 81.62 17.28 82.76 18.43 84.00 20.00
C 99.02 39.02 100.29 63.63 85.00 83.00
C 83.18 85.30 81.25 87.22 79.00 89.00
C 68.54 97.26 56.75 101.18 43.00 100.00
C 41.53 99.87 40.94 99.27 40.00 99.00
C 4.21 94.11 -10.66 49.44 11.00 22.00
C 13.33 19.04 16.02 16.22 19.00 14.00
C 37.87 -0.03 61.96 1.76 80.00 16.00 Z"/>
</g>
<g fill="#ACACAC" fill-opacity="0.97" stroke="None">
<path d="
M 19.00 14.00 
C 16.46 16.21 13.25 19.56 11.00 22.00
C -10.66 49.44 4.21 94.11 40.00 99.00
C 41.21 99.17 42.29 99.84 43.00 100.00
C 56.75 101.18 68.54 97.26 79.00 89.00
C 80.86 87.28 83.32 84.81 85.00 83.00
C 100.29 63.63 99.02 39.02 84.00 20.00
C 82.90 18.81 81.14 17.05 80.00 16.00
C 61.96 1.76 37.87 -0.03 19.00 14.00
M 58.00 35.00 
C 50.33 35.00 42.67 35.00 35.00 35.00
C 35.00 46.00 35.00 57.00 35.00 68.00
C 43.33 68.00 51.67 68.00 60.00 68.00
C 60.00 65.00 60.00 62.00 60.00 59.00
C 55.23 59.99 57.55 53.70 57.00 51.00
C 61.00 51.00 65.00 51.00 69.00 51.00
C 69.36 54.84 69.52 58.55 65.00 59.00
C 67.74 66.77 63.88 76.66 56.00 74.00 C 48.12 71.34 37.06 77.15 31.00 74.00 C 24.94 70.85 29.64 56.35 29.00 51.00 C 28.36 45.65 26.16 31.45 32.08 29.08 C 38.00 26.72 50.48 30.68 57.00 29.00
C 49.08 16.61 70.01 25.55 68.97 33.03 C 67.94 40.50 48.06 47.67 58.00 35.00 Z"/>
</g>
<g fill="#E2E2E2" fill-opacity="0.11" stroke="None">
<path d="
M 11.00 22.00 
C 13.25 19.56 16.46 16.21 19.00 14.00
C 16.02 16.22 13.33 19.04 11.00 22.00 Z"/>
</g>
<g fill="#FEFEFE" fill-opacity="0.02" stroke="None">
<path d="
M 84.00 20.00 
C 82.76 18.43 81.62 17.28 80.00 16.00
C 81.14 17.05 82.90 18.81 84.00 20.00 Z"/>
</g>
<g fill="#FBFBFB" fill-opacity="1.00" stroke="None">
<path d="
M 58.00 35.00 
C 48.06 47.67 67.94 40.50 68.97 33.03 C 70.01 25.55 49.08 16.61 57.00 29.00
C 50.48 30.68 38.00 26.72 32.08 29.08 C 26.16 31.45 28.36 45.65 29.00 51.00 C 29.64 56.35 24.94 70.85 31.00 74.00 C 37.06 77.15 48.12 71.34 56.00 74.00 C 63.88 76.66 67.74 66.77 65.00 59.00
C 69.52 58.55 69.36 54.84 69.00 51.00
C 65.00 51.00 61.00 51.00 57.00 51.00
C 57.55 53.70 55.23 59.99 60.00 59.00
C 60.00 62.00 60.00 65.00 60.00 68.00
C 51.67 68.00 43.33 68.00 35.00 68.00
C 35.00 57.00 35.00 46.00 35.00 35.00
C 42.67 35.00 50.33 35.00 58.00 35.00 Z"/>
</g>
<g fill="#E6E6E6" fill-opacity="0.09" stroke="None">
<path d="
M 79.00 89.00 
C 81.25 87.22 83.18 85.30 85.00 83.00
C 83.32 84.81 80.86 87.28 79.00 89.00 Z"/>
</g>
<g fill="#DFDFDF" fill-opacity="0.10" stroke="None">
<path d="
M 43.00 100.00 
C 42.29 99.84 41.21 99.17 40.00 99.00
C 40.94 99.27 41.53 99.87 43.00 100.00 Z"/>
</g>
</svg>