<svg xmlns="http://www.w3.org/2000/svg" xmlns:v="https://svgstorm.com"
viewBox = "0 0 101 77"
width="101"
height="77">
<g fill="None" fill-opacity="0.0" stroke="#000000" stroke-opacity="0.00" stroke-width="0.3"><path d="
M 0.00 77.00 
L 101.00 77.00
L 101.00 0.00
L 0.00 0.00
L 0.00 77.00
M 84.00 13.00 
C 85.98 13.98 84.78 13.29 86.00 15.00
C 88.17 18.02 86.96 17.75 85.00 21.00
C 85.00 21.50 85.00 22.00 85.00 22.00
C 85.00 22.50 85.09 23.52 85.00 24.00
C 85.46 24.14 86.50 24.00 87.00 24.00
C 88.94 23.99 90.78 24.69 91.00 27.00
C 91.25 27.25 91.00 28.00 91.00 28.00
C 95.43 33.99 90.38 44.30 89.00 49.00
C 89.00 50.33 89.00 51.67 89.00 53.00
C 89.00 57.10 90.80 68.30 88.00 71.00
C 85.08 71.94 84.14 70.73 83.00 69.00
C 82.10 67.64 82.09 66.88 82.00 65.00
C 81.92 63.34 82.00 61.66 82.00 60.00
C 81.39 61.19 80.29 63.79 80.00 65.00
C 79.83 69.19 79.35 72.27 74.00 71.00
C 71.11 68.22 73.72 60.87 74.00 58.00
C 74.00 53.11 73.15 50.26 72.00 46.00
C 70.81 42.09 69.33 31.61 72.00 28.00
C 72.00 27.50 72.00 27.00 72.00 27.00
C 71.89 24.49 73.84 23.89 76.00 24.00
C 76.16 23.77 77.57 23.83 78.00 24.00
C 77.72 23.49 76.92 22.63 77.00 22.00
C 77.04 21.65 77.88 21.26 78.00 21.00
C 77.76 20.67 78.00 20.00 78.00 20.00
C 75.77 18.92 73.70 16.24 77.00 15.00
C 76.77 12.95 77.72 13.63 79.00 13.00
C 81.17 11.93 81.87 11.95 84.00 13.00
M 97.00 16.00 
C 97.13 18.95 99.88 21.03 100.00 24.00
C 97.33 22.85 94.71 22.97 92.00 24.00
C 93.05 21.28 93.80 16.61 97.00 16.00
M 59.00 18.00 
C 59.50 18.00 60.00 18.00 60.00 18.00
C 61.06 18.82 61.40 20.65 63.00 21.00
C 61.99 22.59 60.47 23.85 61.00 26.00
C 60.85 26.41 60.25 27.71 60.00 28.00
C 71.19 25.01 64.57 48.33 63.00 51.00
C 62.76 51.79 63.00 53.17 63.00 54.00
C 63.74 57.37 66.02 68.09 63.00 71.00
C 61.65 72.30 59.69 72.15 59.00 70.00
C 58.77 69.65 59.00 69.00 59.00 69.00
C 57.71 67.48 57.87 65.16 58.00 63.00
C 58.03 62.50 58.00 61.50 58.00 61.00
C 57.76 60.09 56.82 59.54 57.00 58.00
C 57.06 57.51 57.00 57.00 57.00 57.00
C 56.75 56.75 56.00 57.00 56.00 57.00
C 56.00 57.50 56.00 58.50 56.00 59.00
C 56.00 60.99 56.11 63.02 56.00 65.00
C 55.85 67.62 56.02 72.09 53.00 71.00
C 52.56 70.84 51.46 70.87 51.00 71.00
C 49.29 71.49 50.00 62.64 50.00 60.00
C 50.00 56.03 51.04 50.97 48.00 48.00
C 47.53 42.82 47.26 36.15 48.00 31.00
C 48.05 30.65 48.69 30.20 49.00 30.00
C 50.10 28.71 50.07 28.11 52.00 28.00
C 52.50 27.97 53.57 27.83 54.00 28.00
C 54.24 27.82 54.00 26.50 54.00 26.00
C 54.00 25.50 54.00 25.00 54.00 25.00
C 53.10 24.08 52.48 22.42 51.00 22.00
C 52.16 20.72 52.61 18.86 54.00 18.00
C 54.31 17.76 55.00 18.00 55.00 18.00
C 56.36 16.68 57.66 16.70 59.00 18.00
M 97.00 24.00 
C 99.06 33.37 91.29 27.12 97.00 24.00
M 39.00 28.00 
C 39.25 28.25 39.00 29.00 39.00 29.00
C 41.02 30.08 40.98 30.95 39.00 32.00
C 38.78 32.38 39.00 33.00 39.00 33.00
C 38.81 36.31 41.97 36.35 42.00 38.00
C 42.26 38.21 42.76 38.74 43.00 39.00
C 47.16 43.51 42.86 52.30 41.00 56.00
C 40.76 56.79 41.00 58.17 41.00 59.00
C 41.69 62.12 43.87 71.24 41.00 74.00
C 38.34 75.04 37.93 73.44 37.00 72.00
C 36.28 70.88 36.12 70.61 36.00 69.00
C 35.91 67.68 36.00 66.32 36.00 65.00
C 36.00 63.67 36.00 62.33 36.00 61.00
C 35.66 61.23 35.00 61.00 35.00 61.00
C 35.02 61.50 35.00 62.00 35.00 62.00
C 35.00 63.33 35.00 64.67 35.00 66.00
C 35.00 67.00 35.02 68.00 35.00 69.00
C 34.99 69.84 35.57 73.06 34.00 73.00
C 33.66 74.09 30.96 74.43 30.00 74.00
C 27.41 71.51 29.76 66.44 30.00 64.00
C 30.00 61.51 30.50 58.44 30.00 56.00
C 28.99 51.05 27.43 45.29 28.00 39.00
C 28.36 36.95 31.17 35.60 33.00 36.00
C 29.13 31.26 33.12 23.80 39.00 28.00
M 97.00 32.00 
C 99.06 41.37 91.29 35.12 97.00 32.00
M 18.00 43.00 
C 18.36 42.99 19.68 44.69 20.00 45.00
C 22.11 47.05 22.35 48.79 22.00 52.00
C 21.95 52.49 22.00 53.00 22.00 53.00
C 22.40 56.69 21.07 57.51 20.00 60.00
C 19.83 60.91 20.00 62.07 20.00 63.00
C 20.32 64.45 22.71 77.75 18.00 74.00
C 17.69 73.76 17.00 74.00 17.00 74.00
C 15.53 73.25 15.92 70.49 16.00 69.00
C 16.03 68.50 15.97 67.50 16.00 67.00
C 15.86 67.65 15.16 68.87 15.00 70.00
C 14.63 72.60 14.40 72.64 14.00 73.00
C 13.34 73.60 12.15 75.76 11.00 74.00
C 10.40 75.83 10.05 67.34 10.00 66.00
C 9.90 63.33 9.45 61.41 9.00 59.00
C 8.83 58.09 9.00 56.93 9.00 56.00
C 9.00 53.72 8.74 51.27 9.00 49.00
C 9.35 45.94 8.72 46.46 11.00 45.00
C 11.33 44.79 12.72 44.22 13.00 44.00
C 12.75 43.74 13.00 43.00 13.00 43.00
C 13.00 42.50 13.00 42.00 13.00 42.00
C 11.17 40.50 10.90 37.61 14.00 37.00
C 17.19 36.37 17.47 38.43 20.00 39.00
C 19.45 40.46 17.60 41.18 18.00 43.00
M 97.00 40.00 
C 99.06 49.37 91.29 43.12 97.00 40.00
M 97.00 48.00 
C 99.06 57.37 91.29 51.12 97.00 48.00
M 97.00 56.00 
C 99.06 65.37 91.29 59.12 97.00 56.00
M 98.00 71.00 
C 92.63 72.79 93.72 66.02 96.00 64.00
C 97.50 65.68 98.19 68.50 98.00 71.00 Z"/>
</g>
<g fill="None" fill-opacity="0.0" stroke="#A6A6A6" stroke-opacity="0.61" stroke-width="0.3"><path d="
M 79.00 13.00 
C 79.67 12.67 83.30 12.72 84.00 13.00
C 81.87 11.95 81.17 11.93 79.00 13.00 Z"/>
</g>
<g fill="None" fill-opacity="0.0" stroke="#777977" stroke-opacity="0.84" stroke-width="0.3"><path d="
M 77.00 15.00 
C 77.06 15.49 77.00 16.00 77.00 16.00
C 78.26 15.82 78.11 13.43 79.00 13.00
C 77.72 13.63 76.77 12.95 77.00 15.00 Z"/>
</g>
<g fill="None" fill-opacity="0.0" stroke="#080B09" stroke-opacity="0.99" stroke-width="0.3"><path d="
M 77.00 16.00 
C 76.31 16.91 77.47 18.49 78.00 20.00
C 78.00 20.00 77.76 20.67 78.00 21.00
C 78.18 21.25 80.19 24.87 79.00 24.00
C 79.51 24.37 81.96 24.62 83.00 24.00
C 83.22 22.77 84.36 22.67 85.00 22.00
C 85.00 22.00 85.00 21.50 85.00 21.00
C 85.00 20.04 84.87 18.95 85.00 18.00
C 85.14 16.98 85.84 13.75 84.00 13.00
C 83.30 12.72 79.67 12.67 79.00 13.00
C 78.11 13.43 78.26 15.82 77.00 16.00 Z"/>
</g>
<g fill="None" fill-opacity="0.0" stroke="#696969" stroke-opacity="0.78" stroke-width="0.3"><path d="
M 85.00 18.00 
C 85.58 16.13 87.04 17.62 86.00 15.00
C 84.78 13.29 85.98 13.98 84.00 13.00
C 85.84 13.75 85.14 16.98 85.00 18.00 Z"/>
</g>
<g fill="None" fill-opacity="0.0" stroke="#969897" stroke-opacity="0.65" stroke-width="0.3"><path d="
M 78.00 20.00 
C 77.47 18.49 76.31 16.91 77.00 16.00
C 77.00 16.00 77.06 15.49 77.00 15.00
C 73.70 16.24 75.77 18.92 78.00 20.00 Z"/>
</g>
<g fill="None" fill-opacity="0.0" stroke="#8A8C8C" stroke-opacity="0.54" stroke-width="0.3"><path d="
M 85.00 18.00 
C 84.87 18.95 85.00 20.04 85.00 21.00
C 86.96 17.75 88.17 18.02 86.00 15.00
C 87.04 17.62 85.58 16.13 85.00 18.00 Z"/>
</g>
<g fill="None" fill-opacity="0.0" stroke="#FFFFFF" stroke-opacity="0.67" stroke-width="0.3"><path d="
M 97.00 16.00 
C 93.80 16.61 93.05 21.28 92.00 24.00
C 94.71 22.97 97.33 22.85 100.00 24.00
C 99.88 21.03 97.13 18.95 97.00 16.00 Z"/>
</g>
<g fill="None" fill-opacity="0.0" stroke="#A4A4A4" stroke-opacity="0.82" stroke-width="0.3"><path d="
M 55.00 18.00 
C 56.33 18.00 57.67 18.00 59.00 18.00
C 57.66 16.70 56.36 16.68 55.00 18.00 Z"/>
</g>
<g fill="None" fill-opacity="0.0" stroke="#838584" stroke-opacity="0.67" stroke-width="0.3"><path d="
M 54.00 25.00 
C 53.49 22.76 53.21 20.27 54.00 18.00
C 52.61 18.86 52.16 20.72 51.00 22.00
C 52.48 22.42 53.10 24.08 54.00 25.00 Z"/>
</g>
<g fill="None" fill-opacity="0.0" stroke="#060706" stroke-opacity="1.00" stroke-width="0.3"><path d="
M 54.00 25.00 
C 54.00 25.00 54.00 25.50 54.00 26.00
C 57.19 30.23 59.32 26.01 60.00 23.00
C 60.41 21.20 60.38 21.86 60.00 20.00
C 59.90 19.52 60.23 18.16 60.00 18.00
C 60.00 18.00 59.50 18.00 59.00 18.00
C 57.67 18.00 56.33 18.00 55.00 18.00
C 55.00 18.00 54.31 17.76 54.00 18.00
C 53.21 20.27 53.49 22.76 54.00 25.00 Z"/>
</g>
<g fill="None" fill-opacity="0.0" stroke="#797A79" stroke-opacity="0.69" stroke-width="0.3"><path d="
M 60.00 20.00 
C 62.15 22.60 61.00 20.56 60.00 23.00
C 59.32 26.01 57.19 30.23 54.00 26.00
C 54.00 26.50 54.24 27.82 54.00 28.00
C 54.07 27.95 55.04 30.02 55.00 30.00
C 56.15 30.20 57.84 30.13 59.00 30.00
C 59.22 29.87 59.00 29.00 59.00 29.00
C 58.94 26.90 60.26 27.27 61.00 26.00
C 60.47 23.85 61.99 22.59 63.00 21.00
C 61.40 20.65 61.06 18.82 60.00 18.00
C 60.23 18.16 59.90 19.52 60.00 20.00 Z"/>
</g>
<g fill="None" fill-opacity="0.0" stroke="#5C5D5D" stroke-opacity="1.00" stroke-width="0.3"><path d="
M 60.00 23.00 
C 61.00 20.56 62.15 22.60 60.00 20.00
C 60.38 21.86 60.41 21.20 60.00 23.00 Z"/>
</g>
<g fill="None" fill-opacity="0.0" stroke="#737474" stroke-opacity="0.66" stroke-width="0.3"><path d="
M 77.00 22.00 
C 76.96 21.56 79.19 24.14 79.00 24.00
C 80.19 24.87 78.18 21.25 78.00 21.00
C 77.88 21.26 77.04 21.65 77.00 22.00 Z"/>
</g>
<g fill="None" fill-opacity="0.0" stroke="#9B9B9B" stroke-opacity="0.46" stroke-width="0.3"><path d="
M 78.00 24.00 
C 78.11 24.20 78.93 25.97 79.00 26.00
C 79.44 26.16 80.00 26.00 80.00 26.00
C 80.34 26.00 82.82 26.23 83.00 26.00
C 82.77 25.84 82.91 24.48 83.00 24.00
C 81.96 24.62 79.51 24.37 79.00 24.00
C 79.19 24.14 76.96 21.56 77.00 22.00
C 76.92 22.63 77.72 23.49 78.00 24.00 Z"/>
</g>
<g fill="None" fill-opacity="0.0" stroke="#767676" stroke-opacity="0.58" stroke-width="0.3"><path d="
M 83.00 24.00 
C 82.91 24.48 82.77 25.84 83.00 26.00
C 83.25 25.75 84.00 26.00 84.00 26.00
C 84.35 25.82 84.93 24.37 85.00 24.00
C 85.09 23.52 85.00 22.50 85.00 22.00
C 84.36 22.67 83.22 22.77 83.00 24.00 Z"/>
</g>
<g fill="None" fill-opacity="0.0" stroke="#7A7C7B" stroke-opacity="0.70" stroke-width="0.3"><path d="
M 72.00 27.00 
C 72.25 26.75 73.00 27.00 73.00 27.00
C 73.80 26.40 75.16 25.69 76.00 25.00
C 76.25 24.80 76.00 24.00 76.00 24.00
C 73.84 23.89 71.89 24.49 72.00 27.00 Z"/>
</g>
<g fill="None" fill-opacity="0.0" stroke="#4E4F4F" stroke-opacity="1.00" stroke-width="0.3"><path d="
M 76.00 25.00 
C 76.50 25.31 78.30 25.74 79.00 26.00
C 78.93 25.97 78.11 24.20 78.00 24.00
C 77.57 23.83 76.16 23.77 76.00 24.00
C 76.00 24.00 76.25 24.80 76.00 25.00 Z"/>
</g>
<g fill="None" fill-opacity="0.0" stroke="#484848" stroke-opacity="1.00" stroke-width="0.3"><path d="
M 84.00 26.00 
C 84.71 25.74 86.47 25.33 87.00 25.00
C 86.75 24.80 87.00 24.00 87.00 24.00
C 86.50 24.00 85.46 24.14 85.00 24.00
C 84.93 24.37 84.35 25.82 84.00 26.00 Z"/>
</g>
<g fill="None" fill-opacity="0.0" stroke="#6E7070" stroke-opacity="0.56" stroke-width="0.3"><path d="
M 87.00 25.00 
C 87.93 25.77 89.13 26.35 90.00 27.00
C 90.32 27.24 91.00 27.00 91.00 27.00
C 90.78 24.69 88.94 23.99 87.00 24.00
C 87.00 24.00 86.75 24.80 87.00 25.00 Z"/>
</g>
<g fill="None" fill-opacity="0.0" stroke="#FFFFFF" stroke-opacity="1.00" stroke-width="0.3"><path d="
M 97.00 24.00 
C 91.29 27.12 99.06 33.37 97.00 24.00 Z"/>
</g>
<g fill="None" fill-opacity="0.0" stroke="#301AFB" stroke-opacity="1.00" stroke-width="0.3"><path d="
M 73.00 27.00 
C 73.93 28.37 72.15 29.34 72.00 30.00
C 72.00 34.67 72.00 39.33 72.00 44.00
C 73.71 51.35 74.85 57.00 74.00 65.00
C 74.00 66.67 74.00 68.33 74.00 70.00
C 81.61 70.82 77.26 63.70 80.00 60.00
C 80.00 59.50 80.00 59.00 80.00 59.00
C 80.00 57.67 80.00 56.33 80.00 55.00
C 80.00 54.50 80.03 53.50 80.00 53.00
C 79.94 51.99 80.76 46.78 82.00 50.00
C 82.27 50.71 82.00 52.23 82.00 53.00
C 82.00 53.50 82.00 54.50 82.00 55.00
C 82.37 56.23 82.91 57.25 83.00 59.00
C 83.11 60.99 83.00 63.01 83.00 65.00
C 83.00 65.95 82.59 68.16 83.00 69.00
C 83.70 70.40 86.81 69.93 88.00 70.00
C 88.00 64.34 87.84 58.66 88.00 53.00
C 88.06 50.79 87.42 48.51 89.00 47.00
C 89.11 46.74 89.77 46.29 90.00 46.00
C 90.22 45.32 90.92 43.37 91.00 43.00
C 91.37 38.74 91.00 34.28 91.00 30.00
C 90.88 29.45 89.20 28.18 90.00 27.00
C 89.13 26.35 87.93 25.77 87.00 25.00
C 86.47 25.33 84.71 25.74 84.00 26.00
C 84.00 26.00 83.25 25.75 83.00 26.00
C 81.80 27.22 81.17 27.19 80.00 26.00
C 80.00 26.00 79.44 26.16 79.00 26.00
C 78.30 25.74 76.50 25.31 76.00 25.00
C 75.16 25.69 73.80 26.40 73.00 27.00 Z"/>
</g>
<g fill="None" fill-opacity="0.0" stroke="#959595" stroke-opacity="0.25" stroke-width="0.3"><path d="
M 59.00 29.00 
C 59.12 28.74 59.77 28.28 60.00 28.00
C 60.25 27.71 60.85 26.41 61.00 26.00
C 60.26 27.27 58.94 26.90 59.00 29.00 Z"/>
</g>
<g fill="None" fill-opacity="0.0" stroke="#363636" stroke-opacity="1.00" stroke-width="0.3"><path d="
M 83.00 26.00 
C 82.82 26.23 80.34 26.00 80.00 26.00
C 81.17 27.19 81.80 27.22 83.00 26.00 Z"/>
</g>
<g fill="None" fill-opacity="0.0" stroke="#7A7B7A" stroke-opacity="0.64" stroke-width="0.3"><path d="
M 28.00 39.00 
C 28.00 38.96 29.00 39.00 29.00 39.00
C 30.26 37.44 40.20 36.57 42.00 38.00
C 41.97 36.35 38.81 36.31 39.00 33.00
C 38.75 33.25 38.00 33.00 38.00 33.00
C 37.64 35.16 36.54 36.51 34.00 36.00
C 32.02 32.14 31.58 26.35 38.00 28.00
C 38.49 28.08 39.00 28.00 39.00 28.00
C 33.12 23.80 29.13 31.26 33.00 36.00
C 31.17 35.60 28.36 36.95 28.00 39.00 Z"/>
</g>
<g fill="None" fill-opacity="0.0" stroke="#323434" stroke-opacity="1.00" stroke-width="0.3"><path d="
M 72.00 28.00 
C 72.00 28.50 72.00 29.50 72.00 30.00
C 72.15 29.34 73.93 28.37 73.00 27.00
C 73.00 27.00 72.25 26.75 72.00 27.00
C 72.00 27.00 72.00 27.50 72.00 28.00 Z"/>
</g>
<g fill="None" fill-opacity="0.0" stroke="#3B3D3D" stroke-opacity="0.99" stroke-width="0.3"><path d="
M 91.00 30.00 
C 91.00 29.50 91.00 28.50 91.00 28.00
C 91.00 28.00 91.25 27.25 91.00 27.00
C 91.00 27.00 90.32 27.24 90.00 27.00
C 89.20 28.18 90.88 29.45 91.00 30.00 Z"/>
</g>
<g fill="None" fill-opacity="0.0" stroke="#030504" stroke-opacity="1.00" stroke-width="0.3"><path d="
M 38.00 33.00 
C 38.51 30.92 38.53 30.16 38.00 28.00
C 31.58 26.35 32.02 32.14 34.00 36.00
C 36.54 36.51 37.64 35.16 38.00 33.00 Z"/>
</g>
<g fill="None" fill-opacity="0.0" stroke="#4C4E4E" stroke-opacity="1.00" stroke-width="0.3"><path d="
M 38.00 33.00 
C 38.00 33.00 38.75 33.25 39.00 33.00
C 39.00 33.00 38.78 32.38 39.00 32.00
C 39.74 30.72 39.77 30.33 39.00 29.00
C 39.00 29.00 39.25 28.25 39.00 28.00
C 39.00 28.00 38.49 28.08 38.00 28.00
C 38.53 30.16 38.51 30.92 38.00 33.00 Z"/>
</g>
<g fill="None" fill-opacity="0.0" stroke="#8B8D8D" stroke-opacity="0.68" stroke-width="0.3"><path d="
M 49.00 30.00 
C 49.63 29.60 50.26 29.14 51.00 29.00
C 51.48 28.91 52.00 29.00 52.00 29.00
C 52.25 28.75 52.00 28.00 52.00 28.00
C 50.07 28.11 50.10 28.71 49.00 30.00 Z"/>
</g>
<g fill="None" fill-opacity="0.0" stroke="#434444" stroke-opacity="1.00" stroke-width="0.3"><path d="
M 52.00 29.00 
C 53.36 29.01 53.76 29.78 55.00 30.00
C 55.04 30.02 54.07 27.95 54.00 28.00
C 53.57 27.83 52.50 27.97 52.00 28.00
C 52.00 28.00 52.25 28.75 52.00 29.00 Z"/>
</g>
<g fill="None" fill-opacity="0.0" stroke="#636564" stroke-opacity="0.85" stroke-width="0.3"><path d="
M 59.00 29.00 
C 59.00 29.00 59.22 29.87 59.00 30.00
C 69.13 28.91 64.96 44.61 63.00 51.00
C 64.57 48.33 71.19 25.01 60.00 28.00
C 59.77 28.28 59.12 28.74 59.00 29.00 Z"/>
</g>
<g fill="None" fill-opacity="0.0" stroke="#818181" stroke-opacity="0.79" stroke-width="0.3"><path d="
M 72.00 46.00 
C 71.87 45.53 72.00 44.50 72.00 44.00
C 72.00 39.33 72.00 34.67 72.00 30.00
C 72.00 29.50 72.00 28.50 72.00 28.00
C 69.33 31.61 70.81 42.09 72.00 46.00 Z"/>
</g>
<g fill="None" fill-opacity="0.0" stroke="#828483" stroke-opacity="0.43" stroke-width="0.3"><path d="
M 91.00 30.00 
C 91.00 34.28 91.37 38.74 91.00 43.00
C 90.85 44.75 90.96 44.79 90.00 46.00
C 89.77 46.29 89.11 46.74 89.00 47.00
C 88.82 47.42 89.00 48.50 89.00 49.00
C 90.38 44.30 95.43 33.99 91.00 28.00
C 91.00 28.50 91.00 29.50 91.00 30.00 Z"/>
</g>
<g fill="None" fill-opacity="0.0" stroke="#8B8E8D" stroke-opacity="0.40" stroke-width="0.3"><path d="
M 39.00 32.00 
C 40.98 30.95 41.02 30.08 39.00 29.00
C 39.77 30.33 39.74 30.72 39.00 32.00 Z"/>
</g>
<g fill="None" fill-opacity="0.0" stroke="#4C4D4D" stroke-opacity="0.70" stroke-width="0.3"><path d="
M 49.00 30.00 
C 48.69 30.20 48.05 30.65 48.00 31.00
C 48.00 30.96 49.00 31.00 49.00 31.00
C 50.22 30.81 50.35 29.63 51.00 29.00
C 50.26 29.14 49.63 29.60 49.00 30.00 Z"/>
</g>
<g fill="None" fill-opacity="0.0" stroke="#FADF1B" stroke-opacity="1.00" stroke-width="0.3"><path d="
M 49.00 31.00 
C 49.48 36.36 49.48 42.64 49.00 48.00
C 52.28 49.77 51.00 56.82 51.00 60.00
C 51.00 62.81 49.88 68.47 51.00 71.00
C 51.46 70.87 52.56 70.84 53.00 71.00
C 55.24 70.26 55.21 67.12 55.00 65.00
C 54.44 62.67 55.33 60.66 56.00 59.00
C 56.00 58.50 56.00 57.50 56.00 57.00
C 56.00 55.61 55.55 53.30 56.00 52.00
C 56.88 49.47 57.97 54.38 58.00 55.00
C 58.26 55.24 58.00 57.61 58.00 58.00
C 58.00 59.00 58.00 60.00 58.00 61.00
C 58.00 61.50 58.03 62.50 58.00 63.00
C 58.72 64.79 59.26 66.60 59.00 69.00
C 59.00 69.00 58.77 69.65 59.00 70.00
C 59.78 71.17 61.84 70.88 63.00 71.00
C 63.00 65.33 63.00 59.67 63.00 54.00
C 63.00 53.17 62.76 51.79 63.00 51.00
C 64.96 44.61 69.13 28.91 59.00 30.00
C 57.84 30.13 56.15 30.20 55.00 30.00
C 53.76 29.78 53.36 29.01 52.00 29.00
C 52.00 29.00 51.48 28.91 51.00 29.00
C 50.35 29.63 50.22 30.81 49.00 31.00 Z"/>
</g>
<g fill="None" fill-opacity="0.0" stroke="#7A7A7A" stroke-opacity="0.96" stroke-width="0.3"><path d="
M 48.00 48.00 
C 48.00 48.04 49.00 48.00 49.00 48.00
C 49.48 42.64 49.48 36.36 49.00 31.00
C 49.00 31.00 48.00 30.96 48.00 31.00
C 47.26 36.15 47.53 42.82 48.00 48.00 Z"/>
</g>
<g fill="None" fill-opacity="0.0" stroke="#FFFFFF" stroke-opacity="1.00" stroke-width="0.3"><path d="
M 97.00 32.00 
C 91.29 35.12 99.06 41.37 97.00 32.00 Z"/>
</g>
<g fill="None" fill-opacity="0.0" stroke="#787979" stroke-opacity="0.52" stroke-width="0.3"><path d="
M 13.00 42.00 
C 12.46 40.75 12.13 37.66 14.00 37.00
C 10.90 37.61 11.17 40.50 13.00 42.00 Z"/>
</g>
<g fill="None" fill-opacity="0.0" stroke="#161817" stroke-opacity="0.97" stroke-width="0.3"><path d="
M 13.00 42.00 
C 13.00 42.00 13.00 42.50 13.00 43.00
C 13.56 43.84 16.13 44.39 17.00 44.00
C 16.95 43.70 17.81 43.27 18.00 43.00
C 17.60 41.18 19.45 40.46 20.00 39.00
C 17.47 38.43 17.19 36.37 14.00 37.00
C 12.13 37.66 12.46 40.75 13.00 42.00 Z"/>
</g>
<g fill="None" fill-opacity="0.0" stroke="#60C447" stroke-opacity="1.00" stroke-width="0.3"><path d="
M 29.00 39.00 
C 29.53 44.82 28.86 50.42 30.00 56.00
C 30.70 59.44 30.31 62.73 30.00 66.00
C 30.00 68.33 30.00 70.67 30.00 73.00
C 31.41 72.69 32.63 72.31 34.00 72.00
C 34.00 71.00 34.00 70.00 34.00 69.00
C 34.00 68.00 33.98 67.00 34.00 66.00
C 34.03 64.15 33.74 63.23 35.00 62.00
C 35.00 62.00 35.02 61.50 35.00 61.00
C 34.92 59.34 35.06 57.66 35.00 56.00
C 36.39 56.26 35.78 58.05 36.00 59.00
C 36.63 60.86 36.99 62.57 37.00 65.00
C 37.01 66.33 37.00 67.67 37.00 69.00
C 37.00 69.72 36.71 71.35 37.00 72.00
C 37.55 73.24 40.04 72.79 41.00 73.00
C 41.00 68.33 41.00 63.67 41.00 59.00
C 41.00 58.17 40.76 56.79 41.00 56.00
C 42.55 50.96 44.30 44.88 43.00 39.00
C 42.76 38.74 42.26 38.21 42.00 38.00
C 40.20 36.57 30.26 37.44 29.00 39.00 Z"/>
</g>
<g fill="None" fill-opacity="0.0" stroke="#565757" stroke-opacity="0.91" stroke-width="0.3"><path d="
M 30.00 56.00 
C 28.86 50.42 29.53 44.82 29.00 39.00
C 29.00 39.00 28.00 38.96 28.00 39.00
C 27.43 45.29 28.99 51.05 30.00 56.00 Z"/>
</g>
<g fill="None" fill-opacity="0.0" stroke="#7E8181" stroke-opacity="0.53" stroke-width="0.3"><path d="
M 41.00 56.00 
C 42.86 52.30 47.16 43.51 43.00 39.00
C 44.30 44.88 42.55 50.96 41.00 56.00 Z"/>
</g>
<g fill="None" fill-opacity="0.0" stroke="#FFFFFF" stroke-opacity="1.00" stroke-width="0.3"><path d="
M 97.00 40.00 
C 91.29 43.12 99.06 49.37 97.00 40.00 Z"/>
</g>
<g fill="None" fill-opacity="0.0" stroke="#7B7B7B" stroke-opacity="0.49" stroke-width="0.3"><path d="
M 13.00 44.00 
C 13.55 44.58 14.47 45.49 15.00 46.00
C 15.39 46.21 16.00 46.00 16.00 46.00
C 16.26 45.87 17.05 44.31 17.00 44.00
C 16.13 44.39 13.56 43.84 13.00 43.00
C 13.00 43.00 12.75 43.74 13.00 44.00 Z"/>
</g>
<g fill="None" fill-opacity="0.0" stroke="#868686" stroke-opacity="0.79" stroke-width="0.3"><path d="
M 17.00 44.00 
C 17.05 44.31 16.26 45.87 16.00 46.00
C 17.05 45.45 18.71 44.42 20.00 45.00
C 19.68 44.69 18.36 42.99 18.00 43.00
C 17.81 43.27 16.95 43.70 17.00 44.00 Z"/>
</g>
<g fill="None" fill-opacity="0.0" stroke="#313332" stroke-opacity="1.00" stroke-width="0.3"><path d="
M 90.00 46.00 
C 90.96 44.79 90.85 44.75 91.00 43.00
C 90.92 43.37 90.22 45.32 90.00 46.00 Z"/>
</g>
<g fill="None" fill-opacity="0.0" stroke="#7D807F" stroke-opacity="0.77" stroke-width="0.3"><path d="
M 11.00 45.00 
C 10.89 44.40 14.72 45.85 15.00 46.00
C 14.47 45.49 13.55 44.58 13.00 44.00
C 12.72 44.22 11.33 44.79 11.00 45.00 Z"/>
</g>
<g fill="None" fill-opacity="0.0" stroke="#373939" stroke-opacity="0.92" stroke-width="0.3"><path d="
M 72.00 46.00 
C 73.15 50.26 74.00 53.11 74.00 58.00
C 74.00 60.33 74.00 62.67 74.00 65.00
C 74.85 57.00 73.71 51.35 72.00 44.00
C 72.00 44.50 71.87 45.53 72.00 46.00 Z"/>
</g>
<g fill="None" fill-opacity="0.0" stroke="#505251" stroke-opacity="0.85" stroke-width="0.3"><path d="
M 9.00 49.00 
C 9.03 48.88 10.66 45.15 11.00 45.00
C 8.72 46.46 9.35 45.94 9.00 49.00 Z"/>
</g>
<g fill="None" fill-opacity="0.0" stroke="#E60C0A" stroke-opacity="1.00" stroke-width="0.3"><path d="
M 9.00 49.00 
C 8.74 51.27 9.00 53.72 9.00 56.00
C 9.22 56.99 10.77 58.65 11.00 60.00
C 11.31 61.88 11.00 64.09 11.00 66.00
C 11.00 67.67 10.12 72.65 11.00 74.00
C 12.15 75.76 13.34 73.60 14.00 73.00
C 14.21 72.18 14.02 70.85 14.00 70.00
C 13.91 66.83 13.95 63.88 15.00 61.00
C 16.87 62.14 15.61 65.13 16.00 67.00
C 15.97 67.50 16.03 68.50 16.00 69.00
C 16.57 70.59 16.93 71.87 17.00 74.00
C 17.00 74.00 17.69 73.76 18.00 74.00
C 21.42 73.50 20.00 65.98 20.00 63.00
C 20.00 62.07 19.83 60.91 20.00 60.00
C 20.42 57.75 21.15 54.80 22.00 53.00
C 22.00 53.00 21.95 52.49 22.00 52.00
C 21.51 50.96 21.26 45.57 20.00 45.00
C 18.71 44.42 17.05 45.45 16.00 46.00
C 16.00 46.00 15.39 46.21 15.00 46.00
C 14.72 45.85 10.89 44.40 11.00 45.00
C 10.66 45.15 9.03 48.88 9.00 49.00 Z"/>
</g>
<g fill="None" fill-opacity="0.0" stroke="#3A3C3C" stroke-opacity="0.96" stroke-width="0.3"><path d="
M 22.00 52.00 
C 22.35 48.79 22.11 47.05 20.00 45.00
C 21.26 45.57 21.51 50.96 22.00 52.00 Z"/>
</g>
<g fill="None" fill-opacity="0.0" stroke="#373737" stroke-opacity="0.22" stroke-width="0.3"><path d="
M 88.00 53.00 
C 88.00 52.96 89.00 53.00 89.00 53.00
C 89.00 51.67 89.00 50.33 89.00 49.00
C 89.00 48.50 88.82 47.42 89.00 47.00
C 87.42 48.51 88.06 50.79 88.00 53.00 Z"/>
</g>
<g fill="None" fill-opacity="0.0" stroke="#505251" stroke-opacity="0.60" stroke-width="0.3"><path d="
M 50.00 60.00 
C 50.00 59.96 51.00 60.00 51.00 60.00
C 51.00 56.82 52.28 49.77 49.00 48.00
C 49.00 48.00 48.00 48.04 48.00 48.00
C 51.04 50.97 50.00 56.03 50.00 60.00 Z"/>
</g>
<g fill="None" fill-opacity="0.0" stroke="#FFFFFF" stroke-opacity="1.00" stroke-width="0.3"><path d="
M 97.00 48.00 
C 91.29 51.12 99.06 57.37 97.00 48.00 Z"/>
</g>
<g fill="None" fill-opacity="0.0" stroke="#5B5B5B" stroke-opacity="1.00" stroke-width="0.3"><path d="
M 80.00 53.00 
C 80.16 52.38 81.26 50.43 82.00 50.00
C 80.76 46.78 79.94 51.99 80.00 53.00 Z"/>
</g>
<g fill="None" fill-opacity="0.0" stroke="#8C8C8C" stroke-opacity="0.98" stroke-width="0.3"><path d="
M 80.00 53.00 
C 80.03 53.50 80.00 54.50 80.00 55.00
C 80.12 54.60 81.91 53.31 82.00 53.00
C 82.00 52.23 82.27 50.71 82.00 50.00
C 81.26 50.43 80.16 52.38 80.00 53.00 Z"/>
</g>
<g fill="None" fill-opacity="0.0" stroke="#494949" stroke-opacity="0.97" stroke-width="0.3"><path d="
M 56.00 52.00 
C 57.23 52.26 56.99 54.05 57.00 55.00
C 57.34 54.77 58.00 55.00 58.00 55.00
C 57.97 54.38 56.88 49.47 56.00 52.00 Z"/>
</g>
<g fill="None" fill-opacity="0.0" stroke="#989898" stroke-opacity="0.84" stroke-width="0.3"><path d="
M 56.00 57.00 
C 56.00 57.00 56.75 56.75 57.00 57.00
C 57.00 56.50 57.00 55.50 57.00 55.00
C 56.99 54.05 57.23 52.26 56.00 52.00
C 55.55 53.30 56.00 55.61 56.00 57.00 Z"/>
</g>
<g fill="None" fill-opacity="0.0" stroke="#434544" stroke-opacity="0.99" stroke-width="0.3"><path d="
M 20.00 60.00 
C 21.07 57.51 22.40 56.69 22.00 53.00
C 21.15 54.80 20.42 57.75 20.00 60.00 Z"/>
</g>
<g fill="None" fill-opacity="0.0" stroke="#505050" stroke-opacity="0.27" stroke-width="0.3"><path d="
M 80.00 55.00 
C 80.00 56.33 80.00 57.67 80.00 59.00
C 80.20 58.63 81.91 57.31 82.00 57.00
C 82.00 56.50 82.00 55.50 82.00 55.00
C 82.00 54.50 82.00 53.50 82.00 53.00
C 81.91 53.31 80.12 54.60 80.00 55.00 Z"/>
</g>
<g fill="None" fill-opacity="0.0" stroke="#959696" stroke-opacity="0.97" stroke-width="0.3"><path d="
M 88.00 70.00 
C 88.00 70.50 88.00 71.00 88.00 71.00
C 90.80 68.30 89.00 57.10 89.00 53.00
C 89.00 53.00 88.00 52.96 88.00 53.00
C 87.84 58.66 88.00 64.34 88.00 70.00 Z"/>
</g>
<g fill="None" fill-opacity="0.0" stroke="#979797" stroke-opacity="0.78" stroke-width="0.3"><path d="
M 63.00 71.00 
C 66.02 68.09 63.74 57.37 63.00 54.00
C 63.00 59.67 63.00 65.33 63.00 71.00 Z"/>
</g>
<g fill="None" fill-opacity="0.0" stroke="#606060" stroke-opacity="0.76" stroke-width="0.3"><path d="
M 57.00 57.00 
C 57.00 57.00 57.06 57.51 57.00 58.00
C 57.25 58.25 58.00 58.00 58.00 58.00
C 58.00 57.61 58.26 55.24 58.00 55.00
C 58.00 55.00 57.34 54.77 57.00 55.00
C 57.00 55.50 57.00 56.50 57.00 57.00 Z"/>
</g>
<g fill="None" fill-opacity="0.0" stroke="#353535" stroke-opacity="1.00" stroke-width="0.3"><path d="
M 82.00 57.00 
C 82.00 57.50 82.00 58.50 82.00 59.00
C 82.25 58.75 83.00 59.00 83.00 59.00
C 82.91 57.25 82.37 56.23 82.00 55.00
C 82.00 55.50 82.00 56.50 82.00 57.00 Z"/>
</g>
<g fill="None" fill-opacity="0.0" stroke="#464747" stroke-opacity="1.00" stroke-width="0.3"><path d="
M 9.00 59.00 
C 9.21 59.45 10.83 59.69 11.00 60.00
C 10.77 58.65 9.22 56.99 9.00 56.00
C 9.00 56.93 8.83 58.09 9.00 59.00 Z"/>
</g>
<g fill="None" fill-opacity="0.0" stroke="#2E302F" stroke-opacity="1.00" stroke-width="0.3"><path d="
M 30.00 64.00 
C 30.00 64.50 30.00 65.50 30.00 66.00
C 30.31 62.73 30.70 59.44 30.00 56.00
C 30.50 58.44 30.00 61.51 30.00 64.00 Z"/>
</g>
<g fill="None" fill-opacity="0.0" stroke="#898989" stroke-opacity="0.81" stroke-width="0.3"><path d="
M 35.00 61.00 
C 35.00 61.00 35.66 61.23 36.00 61.00
C 36.00 60.50 36.04 59.50 36.00 59.00
C 35.78 58.05 36.39 56.26 35.00 56.00
C 35.06 57.66 34.92 59.34 35.00 61.00 Z"/>
</g>
<g fill="None" fill-opacity="0.0" stroke="#FFFFFF" stroke-opacity="1.00" stroke-width="0.3"><path d="
M 97.00 56.00 
C 91.29 59.12 99.06 65.37 97.00 56.00 Z"/>
</g>
<g fill="None" fill-opacity="0.0" stroke="#858585" stroke-opacity="0.26" stroke-width="0.3"><path d="
M 80.00 59.00 
C 80.00 59.00 80.00 59.50 80.00 60.00
C 80.00 61.66 80.07 63.34 80.00 65.00
C 80.29 63.79 81.39 61.19 82.00 60.00
C 82.00 59.50 82.00 59.00 82.00 59.00
C 82.00 58.50 82.00 57.50 82.00 57.00
C 81.91 57.31 80.20 58.63 80.00 59.00 Z"/>
</g>
<g fill="None" fill-opacity="0.0" stroke="#969696" stroke-opacity="0.65" stroke-width="0.3"><path d="
M 58.00 61.00 
C 58.00 60.00 58.00 59.00 58.00 58.00
C 58.00 58.00 57.25 58.25 57.00 58.00
C 56.82 59.54 57.76 60.09 58.00 61.00 Z"/>
</g>
<g fill="None" fill-opacity="0.0" stroke="#A5A7A6" stroke-opacity="0.79" stroke-width="0.3"><path d="
M 74.00 71.00 
C 73.89 70.97 74.00 70.00 74.00 70.00
C 74.00 68.33 74.00 66.67 74.00 65.00
C 74.00 62.67 74.00 60.33 74.00 58.00
C 73.72 60.87 71.11 68.22 74.00 71.00 Z"/>
</g>
<g fill="None" fill-opacity="0.0" stroke="#505150" stroke-opacity="0.33" stroke-width="0.3"><path d="
M 10.00 66.00 
C 10.00 65.98 11.00 66.00 11.00 66.00
C 11.00 64.09 11.31 61.88 11.00 60.00
C 10.83 59.69 9.21 59.45 9.00 59.00
C 9.45 61.41 9.90 63.33 10.00 66.00 Z"/>
</g>
<g fill="None" fill-opacity="0.0" stroke="#424242" stroke-opacity="0.96" stroke-width="0.3"><path d="
M 36.00 61.00 
C 36.00 62.33 36.00 63.67 36.00 65.00
C 36.13 64.78 37.00 65.00 37.00 65.00
C 36.99 62.57 36.63 60.86 36.00 59.00
C 36.04 59.50 36.00 60.50 36.00 61.00 Z"/>
</g>
<g fill="None" fill-opacity="0.0" stroke="#919292" stroke-opacity="0.47" stroke-width="0.3"><path d="
M 41.00 73.00 
C 41.00 73.50 41.00 74.00 41.00 74.00
C 43.87 71.24 41.69 62.12 41.00 59.00
C 41.00 63.67 41.00 68.33 41.00 73.00 Z"/>
</g>
<g fill="None" fill-opacity="0.0" stroke="#434343" stroke-opacity="1.00" stroke-width="0.3"><path d="
M 55.00 65.00 
C 55.00 65.05 56.00 65.00 56.00 65.00
C 56.11 63.02 56.00 60.99 56.00 59.00
C 55.33 60.66 54.44 62.67 55.00 65.00 Z"/>
</g>
<g fill="None" fill-opacity="0.0" stroke="#3C3C3C" stroke-opacity="0.74" stroke-width="0.3"><path d="
M 82.00 60.00 
C 82.00 61.66 81.92 63.34 82.00 65.00
C 82.05 65.15 83.00 65.00 83.00 65.00
C 83.00 63.01 83.11 60.99 83.00 59.00
C 83.00 59.00 82.25 58.75 82.00 59.00
C 82.00 59.00 82.00 59.50 82.00 60.00 Z"/>
</g>
<g fill="None" fill-opacity="0.0" stroke="#6B6D6C" stroke-opacity="0.93" stroke-width="0.3"><path d="
M 51.00 71.00 
C 49.88 68.47 51.00 62.81 51.00 60.00
C 51.00 60.00 50.00 59.96 50.00 60.00
C 50.00 62.64 49.29 71.49 51.00 71.00 Z"/>
</g>
<g fill="None" fill-opacity="0.0" stroke="#545555" stroke-opacity="0.90" stroke-width="0.3"><path d="
M 74.00 70.00 
C 74.00 70.00 73.89 70.97 74.00 71.00
C 79.35 72.27 79.83 69.19 80.00 65.00
C 80.07 63.34 80.00 61.66 80.00 60.00
C 77.26 63.70 81.61 70.82 74.00 70.00 Z"/>
</g>
<g fill="None" fill-opacity="0.0" stroke="#666666" stroke-opacity="0.74" stroke-width="0.3"><path d="
M 14.00 70.00 
C 14.27 69.75 15.00 70.00 15.00 70.00
C 15.16 68.87 15.86 67.65 16.00 67.00
C 15.61 65.13 16.87 62.14 15.00 61.00
C 13.95 63.88 13.91 66.83 14.00 70.00 Z"/>
</g>
<g fill="None" fill-opacity="0.0" stroke="#404040" stroke-opacity="1.00" stroke-width="0.3"><path d="
M 34.00 66.00 
C 34.27 65.75 35.00 66.00 35.00 66.00
C 35.00 64.67 35.00 63.33 35.00 62.00
C 33.74 63.23 34.03 64.15 34.00 66.00 Z"/>
</g>
<g fill="None" fill-opacity="0.0" stroke="#676968" stroke-opacity="0.15" stroke-width="0.3"><path d="
M 18.00 74.00 
C 22.71 77.75 20.32 64.45 20.00 63.00
C 20.00 65.98 21.42 73.50 18.00 74.00 Z"/>
</g>
<g fill="None" fill-opacity="0.0" stroke="#464848" stroke-opacity="1.00" stroke-width="0.3"><path d="
M 59.00 69.00 
C 59.26 66.60 58.72 64.79 58.00 63.00
C 57.87 65.16 57.71 67.48 59.00 69.00 Z"/>
</g>
<g fill="None" fill-opacity="0.0" stroke="#9FA2A1" stroke-opacity="0.46" stroke-width="0.3"><path d="
M 30.00 74.00 
C 29.81 73.91 30.00 73.00 30.00 73.00
C 30.00 70.67 30.00 68.33 30.00 66.00
C 30.00 65.50 30.00 64.50 30.00 64.00
C 29.76 66.44 27.41 71.51 30.00 74.00 Z"/>
</g>
<g fill="None" fill-opacity="0.0" stroke="#FFFFFF" stroke-opacity="0.80" stroke-width="0.3"><path d="
M 98.00 71.00 
C 98.19 68.50 97.50 65.68 96.00 64.00
C 93.72 66.02 92.63 72.79 98.00 71.00 Z"/>
</g>
<g fill="None" fill-opacity="0.0" stroke="#3F3F3F" stroke-opacity="0.50" stroke-width="0.3"><path d="
M 36.00 69.00 
C 36.13 69.22 37.00 69.00 37.00 69.00
C 37.00 67.67 37.01 66.33 37.00 65.00
C 37.00 65.00 36.13 64.78 36.00 65.00
C 36.00 66.32 35.91 67.68 36.00 69.00 Z"/>
</g>
<g fill="None" fill-opacity="0.0" stroke="#676868" stroke-opacity="0.68" stroke-width="0.3"><path d="
M 53.00 71.00 
C 56.02 72.09 55.85 67.62 56.00 65.00
C 56.00 65.00 55.00 65.05 55.00 65.00
C 55.21 67.12 55.24 70.26 53.00 71.00 Z"/>
</g>
<g fill="None" fill-opacity="0.0" stroke="#8D9090" stroke-opacity="0.63" stroke-width="0.3"><path d="
M 83.00 69.00 
C 82.59 68.16 83.00 65.95 83.00 65.00
C 83.00 65.00 82.05 65.15 82.00 65.00
C 82.09 66.88 82.10 67.64 83.00 69.00 Z"/>
</g>
<g fill="None" fill-opacity="0.0" stroke="#7C7F7D" stroke-opacity="0.87" stroke-width="0.3"><path d="
M 11.00 74.00 
C 10.12 72.65 11.00 67.67 11.00 66.00
C 11.00 66.00 10.00 65.98 10.00 66.00
C 10.05 67.34 10.40 75.83 11.00 74.00 Z"/>
</g>
<g fill="None" fill-opacity="0.0" stroke="#6D6E6E" stroke-opacity="0.97" stroke-width="0.3"><path d="
M 34.00 69.00 
C 34.27 68.75 35.00 69.00 35.00 69.00
C 35.02 68.00 35.00 67.00 35.00 66.00
C 35.00 66.00 34.27 65.75 34.00 66.00
C 33.98 67.00 34.00 68.00 34.00 69.00 Z"/>
</g>
<g fill="None" fill-opacity="0.0" stroke="#535555" stroke-opacity="0.89" stroke-width="0.3"><path d="
M 17.00 74.00 
C 16.93 71.87 16.57 70.59 16.00 69.00
C 15.92 70.49 15.53 73.25 17.00 74.00 Z"/>
</g>
<g fill="None" fill-opacity="0.0" stroke="#6E6F6E" stroke-opacity="0.50" stroke-width="0.3"><path d="
M 34.00 72.00 
C 34.00 72.50 34.00 73.00 34.00 73.00
C 35.57 73.06 34.99 69.84 35.00 69.00
C 35.00 69.00 34.27 68.75 34.00 69.00
C 34.00 70.00 34.00 71.00 34.00 72.00 Z"/>
</g>
<g fill="None" fill-opacity="0.0" stroke="#898B8B" stroke-opacity="0.50" stroke-width="0.3"><path d="
M 37.00 72.00 
C 36.71 71.35 37.00 69.72 37.00 69.00
C 37.00 69.00 36.13 69.22 36.00 69.00
C 36.12 70.61 36.28 70.88 37.00 72.00 Z"/>
</g>
<g fill="None" fill-opacity="0.0" stroke="#4C4E4E" stroke-opacity="0.74" stroke-width="0.3"><path d="
M 88.00 71.00 
C 88.00 71.00 88.00 70.50 88.00 70.00
C 86.81 69.93 83.70 70.40 83.00 69.00
C 84.14 70.73 85.08 71.94 88.00 71.00 Z"/>
</g>
<g fill="None" fill-opacity="0.0" stroke="#656565" stroke-opacity="0.21" stroke-width="0.3"><path d="
M 14.00 73.00 
C 14.40 72.64 14.63 72.60 15.00 70.00
C 15.00 70.00 14.27 69.75 14.00 70.00
C 14.02 70.85 14.21 72.18 14.00 73.00 Z"/>
</g>
<g fill="None" fill-opacity="0.0" stroke="#5E5F5F" stroke-opacity="0.48" stroke-width="0.3"><path d="
M 63.00 71.00 
C 61.84 70.88 59.78 71.17 59.00 70.00
C 59.69 72.15 61.65 72.30 63.00 71.00 Z"/>
</g>
<g fill="None" fill-opacity="0.0" stroke="#515352" stroke-opacity="0.82" stroke-width="0.3"><path d="
M 30.00 73.00 
C 30.00 73.00 29.81 73.91 30.00 74.00
C 30.96 74.43 33.66 74.09 34.00 73.00
C 34.00 73.00 34.00 72.50 34.00 72.00
C 32.63 72.31 31.41 72.69 30.00 73.00 Z"/>
</g>
<g fill="None" fill-opacity="0.0" stroke="#545655" stroke-opacity="0.75" stroke-width="0.3"><path d="
M 41.00 74.00 
C 41.00 74.00 41.00 73.50 41.00 73.00
C 40.04 72.79 37.55 73.24 37.00 72.00
C 37.93 73.44 38.34 75.04 41.00 74.00 Z"/>
</g>
<g fill="#000000" fill-opacity="0.00" stroke="None">
<path d="
M 0.00 77.00 
L 101.00 77.00
L 101.00 0.00
L 0.00 0.00
L 0.00 77.00
M 84.00 13.00 
C 85.98 13.98 84.78 13.29 86.00 15.00
C 88.17 18.02 86.96 17.75 85.00 21.00
C 85.00 21.50 85.00 22.00 85.00 22.00
C 85.00 22.50 85.09 23.52 85.00 24.00
C 85.46 24.14 86.50 24.00 87.00 24.00
C 88.94 23.99 90.78 24.69 91.00 27.00
C 91.25 27.25 91.00 28.00 91.00 28.00
C 95.43 33.99 90.38 44.30 89.00 49.00
C 89.00 50.33 89.00 51.67 89.00 53.00
C 89.00 57.10 90.80 68.30 88.00 71.00
C 85.08 71.94 84.14 70.73 83.00 69.00
C 82.10 67.64 82.09 66.88 82.00 65.00
C 81.92 63.34 82.00 61.66 82.00 60.00
C 81.39 61.19 80.29 63.79 80.00 65.00
C 79.83 69.19 79.35 72.27 74.00 71.00
C 71.11 68.22 73.72 60.87 74.00 58.00
C 74.00 53.11 73.15 50.26 72.00 46.00
C 70.81 42.09 69.33 31.61 72.00 28.00
C 72.00 27.50 72.00 27.00 72.00 27.00
C 71.89 24.49 73.84 23.89 76.00 24.00
C 76.16 23.77 77.57 23.83 78.00 24.00
C 77.72 23.49 76.92 22.63 77.00 22.00
C 77.04 21.65 77.88 21.26 78.00 21.00
C 77.76 20.67 78.00 20.00 78.00 20.00
C 75.77 18.92 73.70 16.24 77.00 15.00
C 76.77 12.95 77.72 13.63 79.00 13.00
C 81.17 11.93 81.87 11.95 84.00 13.00
M 97.00 16.00 
C 97.13 18.95 99.88 21.03 100.00 24.00
C 97.33 22.85 94.71 22.97 92.00 24.00
C 93.05 21.28 93.80 16.61 97.00 16.00
M 59.00 18.00 
C 59.50 18.00 60.00 18.00 60.00 18.00
C 61.06 18.82 61.40 20.65 63.00 21.00
C 61.99 22.59 60.47 23.85 61.00 26.00
C 60.85 26.41 60.25 27.71 60.00 28.00
C 71.19 25.01 64.57 48.33 63.00 51.00
C 62.76 51.79 63.00 53.17 63.00 54.00
C 63.74 57.37 66.02 68.09 63.00 71.00
C 61.65 72.30 59.69 72.15 59.00 70.00
C 58.77 69.65 59.00 69.00 59.00 69.00
C 57.71 67.48 57.87 65.16 58.00 63.00
C 58.03 62.50 58.00 61.50 58.00 61.00
C 57.76 60.09 56.82 59.54 57.00 58.00
C 57.06 57.51 57.00 57.00 57.00 57.00
C 56.75 56.75 56.00 57.00 56.00 57.00
C 56.00 57.50 56.00 58.50 56.00 59.00
C 56.00 60.99 56.11 63.02 56.00 65.00
C 55.85 67.62 56.02 72.09 53.00 71.00
C 52.56 70.84 51.46 70.87 51.00 71.00
C 49.29 71.49 50.00 62.64 50.00 60.00
C 50.00 56.03 51.04 50.97 48.00 48.00
C 47.53 42.82 47.26 36.15 48.00 31.00
C 48.05 30.65 48.69 30.20 49.00 30.00
C 50.10 28.71 50.07 28.11 52.00 28.00
C 52.50 27.97 53.57 27.83 54.00 28.00
C 54.24 27.82 54.00 26.50 54.00 26.00
C 54.00 25.50 54.00 25.00 54.00 25.00
C 53.10 24.08 52.48 22.42 51.00 22.00
C 52.16 20.72 52.61 18.86 54.00 18.00
C 54.31 17.76 55.00 18.00 55.00 18.00
C 56.36 16.68 57.66 16.70 59.00 18.00
M 97.00 24.00 
C 99.06 33.37 91.29 27.12 97.00 24.00
M 39.00 28.00 
C 39.25 28.25 39.00 29.00 39.00 29.00
C 41.02 30.08 40.98 30.95 39.00 32.00
C 38.78 32.38 39.00 33.00 39.00 33.00
C 38.81 36.31 41.97 36.35 42.00 38.00
C 42.26 38.21 42.76 38.74 43.00 39.00
C 47.16 43.51 42.86 52.30 41.00 56.00
C 40.76 56.79 41.00 58.17 41.00 59.00
C 41.69 62.12 43.87 71.24 41.00 74.00
C 38.34 75.04 37.93 73.44 37.00 72.00
C 36.28 70.88 36.12 70.61 36.00 69.00
C 35.91 67.68 36.00 66.32 36.00 65.00
C 36.00 63.67 36.00 62.33 36.00 61.00
C 35.66 61.23 35.00 61.00 35.00 61.00
C 35.02 61.50 35.00 62.00 35.00 62.00
C 35.00 63.33 35.00 64.67 35.00 66.00
C 35.00 67.00 35.02 68.00 35.00 69.00
C 34.99 69.84 35.57 73.06 34.00 73.00
C 33.66 74.09 30.96 74.43 30.00 74.00
C 27.41 71.51 29.76 66.44 30.00 64.00
C 30.00 61.51 30.50 58.44 30.00 56.00
C 28.99 51.05 27.43 45.29 28.00 39.00
C 28.36 36.95 31.17 35.60 33.00 36.00
C 29.13 31.26 33.12 23.80 39.00 28.00
M 97.00 32.00 
C 99.06 41.37 91.29 35.12 97.00 32.00
M 18.00 43.00 
C 18.36 42.99 19.68 44.69 20.00 45.00
C 22.11 47.05 22.35 48.79 22.00 52.00
C 21.95 52.49 22.00 53.00 22.00 53.00
C 22.40 56.69 21.07 57.51 20.00 60.00
C 19.83 60.91 20.00 62.07 20.00 63.00
C 20.32 64.45 22.71 77.75 18.00 74.00
C 17.69 73.76 17.00 74.00 17.00 74.00
C 15.53 73.25 15.92 70.49 16.00 69.00
C 16.03 68.50 15.97 67.50 16.00 67.00
C 15.86 67.65 15.16 68.87 15.00 70.00
C 14.63 72.60 14.40 72.64 14.00 73.00
C 13.34 73.60 12.15 75.76 11.00 74.00
C 10.40 75.83 10.05 67.34 10.00 66.00
C 9.90 63.33 9.45 61.41 9.00 59.00
C 8.83 58.09 9.00 56.93 9.00 56.00
C 9.00 53.72 8.74 51.27 9.00 49.00
C 9.35 45.94 8.72 46.46 11.00 45.00
C 11.33 44.79 12.72 44.22 13.00 44.00
C 12.75 43.74 13.00 43.00 13.00 43.00
C 13.00 42.50 13.00 42.00 13.00 42.00
C 11.17 40.50 10.90 37.61 14.00 37.00
C 17.19 36.37 17.47 38.43 20.00 39.00
C 19.45 40.46 17.60 41.18 18.00 43.00
M 97.00 40.00 
C 99.06 49.37 91.29 43.12 97.00 40.00
M 97.00 48.00 
C 99.06 57.37 91.29 51.12 97.00 48.00
M 97.00 56.00 
C 99.06 65.37 91.29 59.12 97.00 56.00
M 98.00 71.00 
C 92.63 72.79 93.72 66.02 96.00 64.00
C 97.50 65.68 98.19 68.50 98.00 71.00 Z"/>
</g>
<g fill="#A6A6A6" fill-opacity="0.61" stroke="None">
<path d="
M 79.00 13.00 
C 79.67 12.67 83.30 12.72 84.00 13.00
C 81.87 11.95 81.17 11.93 79.00 13.00 Z"/>
</g>
<g fill="#777977" fill-opacity="0.84" stroke="None">
<path d="
M 77.00 15.00 
C 77.06 15.49 77.00 16.00 77.00 16.00
C 78.26 15.82 78.11 13.43 79.00 13.00
C 77.72 13.63 76.77 12.95 77.00 15.00 Z"/>
</g>
<g fill="#080B09" fill-opacity="0.99" stroke="None">
<path d="
M 77.00 16.00 
C 76.31 16.91 77.47 18.49 78.00 20.00
C 78.00 20.00 77.76 20.67 78.00 21.00
C 78.18 21.25 80.19 24.87 79.00 24.00
C 79.51 24.37 81.96 24.62 83.00 24.00
C 83.22 22.77 84.36 22.67 85.00 22.00
C 85.00 22.00 85.00 21.50 85.00 21.00
C 85.00 20.04 84.87 18.95 85.00 18.00
C 85.14 16.98 85.84 13.75 84.00 13.00
C 83.30 12.72 79.67 12.67 79.00 13.00
C 78.11 13.43 78.26 15.82 77.00 16.00 Z"/>
</g>
<g fill="#696969" fill-opacity="0.78" stroke="None">
<path d="
M 85.00 18.00 
C 85.58 16.13 87.04 17.62 86.00 15.00
C 84.78 13.29 85.98 13.98 84.00 13.00
C 85.84 13.75 85.14 16.98 85.00 18.00 Z"/>
</g>
<g fill="#969897" fill-opacity="0.65" stroke="None">
<path d="
M 78.00 20.00 
C 77.47 18.49 76.31 16.91 77.00 16.00
C 77.00 16.00 77.06 15.49 77.00 15.00
C 73.70 16.24 75.77 18.92 78.00 20.00 Z"/>
</g>
<g fill="#8A8C8C" fill-opacity="0.54" stroke="None">
<path d="
M 85.00 18.00 
C 84.87 18.95 85.00 20.04 85.00 21.00
C 86.96 17.75 88.17 18.02 86.00 15.00
C 87.04 17.62 85.58 16.13 85.00 18.00 Z"/>
</g>
<g fill="#FFFFFF" fill-opacity="0.67" stroke="None">
<path d="
M 97.00 16.00 
C 93.80 16.61 93.05 21.28 92.00 24.00
C 94.71 22.97 97.33 22.85 100.00 24.00
C 99.88 21.03 97.13 18.95 97.00 16.00 Z"/>
</g>
<g fill="#A4A4A4" fill-opacity="0.82" stroke="None">
<path d="
M 55.00 18.00 
C 56.33 18.00 57.67 18.00 59.00 18.00
C 57.66 16.70 56.36 16.68 55.00 18.00 Z"/>
</g>
<g fill="#838584" fill-opacity="0.67" stroke="None">
<path d="
M 54.00 25.00 
C 53.49 22.76 53.21 20.27 54.00 18.00
C 52.61 18.86 52.16 20.72 51.00 22.00
C 52.48 22.42 53.10 24.08 54.00 25.00 Z"/>
</g>
<g fill="#060706" fill-opacity="1.00" stroke="None">
<path d="
M 54.00 25.00 
C 54.00 25.00 54.00 25.50 54.00 26.00
C 57.19 30.23 59.32 26.01 60.00 23.00
C 60.41 21.20 60.38 21.86 60.00 20.00
C 59.90 19.52 60.23 18.16 60.00 18.00
C 60.00 18.00 59.50 18.00 59.00 18.00
C 57.67 18.00 56.33 18.00 55.00 18.00
C 55.00 18.00 54.31 17.76 54.00 18.00
C 53.21 20.27 53.49 22.76 54.00 25.00 Z"/>
</g>
<g fill="#797A79" fill-opacity="0.69" stroke="None">
<path d="
M 60.00 20.00 
C 62.15 22.60 61.00 20.56 60.00 23.00
C 59.32 26.01 57.19 30.23 54.00 26.00
C 54.00 26.50 54.24 27.82 54.00 28.00
C 54.07 27.95 55.04 30.02 55.00 30.00
C 56.15 30.20 57.84 30.13 59.00 30.00
C 59.22 29.87 59.00 29.00 59.00 29.00
C 58.94 26.90 60.26 27.27 61.00 26.00
C 60.47 23.85 61.99 22.59 63.00 21.00
C 61.40 20.65 61.06 18.82 60.00 18.00
C 60.23 18.16 59.90 19.52 60.00 20.00 Z"/>
</g>
<g fill="#5C5D5D" fill-opacity="1.00" stroke="None">
<path d="
M 60.00 23.00 
C 61.00 20.56 62.15 22.60 60.00 20.00
C 60.38 21.86 60.41 21.20 60.00 23.00 Z"/>
</g>
<g fill="#737474" fill-opacity="0.66" stroke="None">
<path d="
M 77.00 22.00 
C 76.96 21.56 79.19 24.14 79.00 24.00
C 80.19 24.87 78.18 21.25 78.00 21.00
C 77.88 21.26 77.04 21.65 77.00 22.00 Z"/>
</g>
<g fill="#9B9B9B" fill-opacity="0.46" stroke="None">
<path d="
M 78.00 24.00 
C 78.11 24.20 78.93 25.97 79.00 26.00
C 79.44 26.16 80.00 26.00 80.00 26.00
C 80.34 26.00 82.82 26.23 83.00 26.00
C 82.77 25.84 82.91 24.48 83.00 24.00
C 81.96 24.62 79.51 24.37 79.00 24.00
C 79.19 24.14 76.96 21.56 77.00 22.00
C 76.92 22.63 77.72 23.49 78.00 24.00 Z"/>
</g>
<g fill="#767676" fill-opacity="0.58" stroke="None">
<path d="
M 83.00 24.00 
C 82.91 24.48 82.77 25.84 83.00 26.00
C 83.25 25.75 84.00 26.00 84.00 26.00
C 84.35 25.82 84.93 24.37 85.00 24.00
C 85.09 23.52 85.00 22.50 85.00 22.00
C 84.36 22.67 83.22 22.77 83.00 24.00 Z"/>
</g>
<g fill="#7A7C7B" fill-opacity="0.70" stroke="None">
<path d="
M 72.00 27.00 
C 72.25 26.75 73.00 27.00 73.00 27.00
C 73.80 26.40 75.16 25.69 76.00 25.00
C 76.25 24.80 76.00 24.00 76.00 24.00
C 73.84 23.89 71.89 24.49 72.00 27.00 Z"/>
</g>
<g fill="#4E4F4F" fill-opacity="1.00" stroke="None">
<path d="
M 76.00 25.00 
C 76.50 25.31 78.30 25.74 79.00 26.00
C 78.93 25.97 78.11 24.20 78.00 24.00
C 77.57 23.83 76.16 23.77 76.00 24.00
C 76.00 24.00 76.25 24.80 76.00 25.00 Z"/>
</g>
<g fill="#484848" fill-opacity="1.00" stroke="None">
<path d="
M 84.00 26.00 
C 84.71 25.74 86.47 25.33 87.00 25.00
C 86.75 24.80 87.00 24.00 87.00 24.00
C 86.50 24.00 85.46 24.14 85.00 24.00
C 84.93 24.37 84.35 25.82 84.00 26.00 Z"/>
</g>
<g fill="#6E7070" fill-opacity="0.56" stroke="None">
<path d="
M 87.00 25.00 
C 87.93 25.77 89.13 26.35 90.00 27.00
C 90.32 27.24 91.00 27.00 91.00 27.00
C 90.78 24.69 88.94 23.99 87.00 24.00
C 87.00 24.00 86.75 24.80 87.00 25.00 Z"/>
</g>
<g fill="#FFFFFF" fill-opacity="1.00" stroke="None">
<path d="
M 97.00 24.00 
C 91.29 27.12 99.06 33.37 97.00 24.00 Z"/>
</g>
<g fill="#301AFB" fill-opacity="1.00" stroke="None">
<path d="
M 73.00 27.00 
C 73.93 28.37 72.15 29.34 72.00 30.00
C 72.00 34.67 72.00 39.33 72.00 44.00
C 73.71 51.35 74.85 57.00 74.00 65.00
C 74.00 66.67 74.00 68.33 74.00 70.00
C 81.61 70.82 77.26 63.70 80.00 60.00
C 80.00 59.50 80.00 59.00 80.00 59.00
C 80.00 57.67 80.00 56.33 80.00 55.00
C 80.00 54.50 80.03 53.50 80.00 53.00
C 79.94 51.99 80.76 46.78 82.00 50.00
C 82.27 50.71 82.00 52.23 82.00 53.00
C 82.00 53.50 82.00 54.50 82.00 55.00
C 82.37 56.23 82.91 57.25 83.00 59.00
C 83.11 60.99 83.00 63.01 83.00 65.00
C 83.00 65.95 82.59 68.16 83.00 69.00
C 83.70 70.40 86.81 69.93 88.00 70.00
C 88.00 64.34 87.84 58.66 88.00 53.00
C 88.06 50.79 87.42 48.51 89.00 47.00
C 89.11 46.74 89.77 46.29 90.00 46.00
C 90.22 45.32 90.92 43.37 91.00 43.00
C 91.37 38.74 91.00 34.28 91.00 30.00
C 90.88 29.45 89.20 28.18 90.00 27.00
C 89.13 26.35 87.93 25.77 87.00 25.00
C 86.47 25.33 84.71 25.74 84.00 26.00
C 84.00 26.00 83.25 25.75 83.00 26.00
C 81.80 27.22 81.17 27.19 80.00 26.00
C 80.00 26.00 79.44 26.16 79.00 26.00
C 78.30 25.74 76.50 25.31 76.00 25.00
C 75.16 25.69 73.80 26.40 73.00 27.00 Z"/>
</g>
<g fill="#959595" fill-opacity="0.25" stroke="None">
<path d="
M 59.00 29.00 
C 59.12 28.74 59.77 28.28 60.00 28.00
C 60.25 27.71 60.85 26.41 61.00 26.00
C 60.26 27.27 58.94 26.90 59.00 29.00 Z"/>
</g>
<g fill="#363636" fill-opacity="1.00" stroke="None">
<path d="
M 83.00 26.00 
C 82.82 26.23 80.34 26.00 80.00 26.00
C 81.17 27.19 81.80 27.22 83.00 26.00 Z"/>
</g>
<g fill="#7A7B7A" fill-opacity="0.64" stroke="None">
<path d="
M 28.00 39.00 
C 28.00 38.96 29.00 39.00 29.00 39.00
C 30.26 37.44 40.20 36.57 42.00 38.00
C 41.97 36.35 38.81 36.31 39.00 33.00
C 38.75 33.25 38.00 33.00 38.00 33.00
C 37.64 35.16 36.54 36.51 34.00 36.00
C 32.02 32.14 31.58 26.35 38.00 28.00
C 38.49 28.08 39.00 28.00 39.00 28.00
C 33.12 23.80 29.13 31.26 33.00 36.00
C 31.17 35.60 28.36 36.95 28.00 39.00 Z"/>
</g>
<g fill="#323434" fill-opacity="1.00" stroke="None">
<path d="
M 72.00 28.00 
C 72.00 28.50 72.00 29.50 72.00 30.00
C 72.15 29.34 73.93 28.37 73.00 27.00
C 73.00 27.00 72.25 26.75 72.00 27.00
C 72.00 27.00 72.00 27.50 72.00 28.00 Z"/>
</g>
<g fill="#3B3D3D" fill-opacity="0.99" stroke="None">
<path d="
M 91.00 30.00 
C 91.00 29.50 91.00 28.50 91.00 28.00
C 91.00 28.00 91.25 27.25 91.00 27.00
C 91.00 27.00 90.32 27.24 90.00 27.00
C 89.20 28.18 90.88 29.45 91.00 30.00 Z"/>
</g>
<g fill="#030504" fill-opacity="1.00" stroke="None">
<path d="
M 38.00 33.00 
C 38.51 30.92 38.53 30.16 38.00 28.00
C 31.58 26.35 32.02 32.14 34.00 36.00
C 36.54 36.51 37.64 35.16 38.00 33.00 Z"/>
</g>
<g fill="#4C4E4E" fill-opacity="1.00" stroke="None">
<path d="
M 38.00 33.00 
C 38.00 33.00 38.75 33.25 39.00 33.00
C 39.00 33.00 38.78 32.38 39.00 32.00
C 39.74 30.72 39.77 30.33 39.00 29.00
C 39.00 29.00 39.25 28.25 39.00 28.00
C 39.00 28.00 38.49 28.08 38.00 28.00
C 38.53 30.16 38.51 30.92 38.00 33.00 Z"/>
</g>
<g fill="#8B8D8D" fill-opacity="0.68" stroke="None">
<path d="
M 49.00 30.00 
C 49.63 29.60 50.26 29.14 51.00 29.00
C 51.48 28.91 52.00 29.00 52.00 29.00
C 52.25 28.75 52.00 28.00 52.00 28.00
C 50.07 28.11 50.10 28.71 49.00 30.00 Z"/>
</g>
<g fill="#434444" fill-opacity="1.00" stroke="None">
<path d="
M 52.00 29.00 
C 53.36 29.01 53.76 29.78 55.00 30.00
C 55.04 30.02 54.07 27.95 54.00 28.00
C 53.57 27.83 52.50 27.97 52.00 28.00
C 52.00 28.00 52.25 28.75 52.00 29.00 Z"/>
</g>
<g fill="#636564" fill-opacity="0.85" stroke="None">
<path d="
M 59.00 29.00 
C 59.00 29.00 59.22 29.87 59.00 30.00
C 69.13 28.91 64.96 44.61 63.00 51.00
C 64.57 48.33 71.19 25.01 60.00 28.00
C 59.77 28.28 59.12 28.74 59.00 29.00 Z"/>
</g>
<g fill="#818181" fill-opacity="0.79" stroke="None">
<path d="
M 72.00 46.00 
C 71.87 45.53 72.00 44.50 72.00 44.00
C 72.00 39.33 72.00 34.67 72.00 30.00
C 72.00 29.50 72.00 28.50 72.00 28.00
C 69.33 31.61 70.81 42.09 72.00 46.00 Z"/>
</g>
<g fill="#828483" fill-opacity="0.43" stroke="None">
<path d="
M 91.00 30.00 
C 91.00 34.28 91.37 38.74 91.00 43.00
C 90.85 44.75 90.96 44.79 90.00 46.00
C 89.77 46.29 89.11 46.74 89.00 47.00
C 88.82 47.42 89.00 48.50 89.00 49.00
C 90.38 44.30 95.43 33.99 91.00 28.00
C 91.00 28.50 91.00 29.50 91.00 30.00 Z"/>
</g>
<g fill="#8B8E8D" fill-opacity="0.40" stroke="None">
<path d="
M 39.00 32.00 
C 40.98 30.95 41.02 30.08 39.00 29.00
C 39.77 30.33 39.74 30.72 39.00 32.00 Z"/>
</g>
<g fill="#4C4D4D" fill-opacity="0.70" stroke="None">
<path d="
M 49.00 30.00 
C 48.69 30.20 48.05 30.65 48.00 31.00
C 48.00 30.96 49.00 31.00 49.00 31.00
C 50.22 30.81 50.35 29.63 51.00 29.00
C 50.26 29.14 49.63 29.60 49.00 30.00 Z"/>
</g>
<g fill="#FADF1B" fill-opacity="1.00" stroke="None">
<path d="
M 49.00 31.00 
C 49.48 36.36 49.48 42.64 49.00 48.00
C 52.28 49.77 51.00 56.82 51.00 60.00
C 51.00 62.81 49.88 68.47 51.00 71.00
C 51.46 70.87 52.56 70.84 53.00 71.00
C 55.24 70.26 55.21 67.12 55.00 65.00
C 54.44 62.67 55.33 60.66 56.00 59.00
C 56.00 58.50 56.00 57.50 56.00 57.00
C 56.00 55.61 55.55 53.30 56.00 52.00
C 56.88 49.47 57.97 54.38 58.00 55.00
C 58.26 55.24 58.00 57.61 58.00 58.00
C 58.00 59.00 58.00 60.00 58.00 61.00
C 58.00 61.50 58.03 62.50 58.00 63.00
C 58.72 64.79 59.26 66.60 59.00 69.00
C 59.00 69.00 58.77 69.65 59.00 70.00
C 59.78 71.17 61.84 70.88 63.00 71.00
C 63.00 65.33 63.00 59.67 63.00 54.00
C 63.00 53.17 62.76 51.79 63.00 51.00
C 64.96 44.61 69.13 28.91 59.00 30.00
C 57.84 30.13 56.15 30.20 55.00 30.00
C 53.76 29.78 53.36 29.01 52.00 29.00
C 52.00 29.00 51.48 28.91 51.00 29.00
C 50.35 29.63 50.22 30.81 49.00 31.00 Z"/>
</g>
<g fill="#7A7A7A" fill-opacity="0.96" stroke="None">
<path d="
M 48.00 48.00 
C 48.00 48.04 49.00 48.00 49.00 48.00
C 49.48 42.64 49.48 36.36 49.00 31.00
C 49.00 31.00 48.00 30.96 48.00 31.00
C 47.26 36.15 47.53 42.82 48.00 48.00 Z"/>
</g>
<g fill="#FFFFFF" fill-opacity="1.00" stroke="None">
<path d="
M 97.00 32.00 
C 91.29 35.12 99.06 41.37 97.00 32.00 Z"/>
</g>
<g fill="#787979" fill-opacity="0.52" stroke="None">
<path d="
M 13.00 42.00 
C 12.46 40.75 12.13 37.66 14.00 37.00
C 10.90 37.61 11.17 40.50 13.00 42.00 Z"/>
</g>
<g fill="#161817" fill-opacity="0.97" stroke="None">
<path d="
M 13.00 42.00 
C 13.00 42.00 13.00 42.50 13.00 43.00
C 13.56 43.84 16.13 44.39 17.00 44.00
C 16.95 43.70 17.81 43.27 18.00 43.00
C 17.60 41.18 19.45 40.46 20.00 39.00
C 17.47 38.43 17.19 36.37 14.00 37.00
C 12.13 37.66 12.46 40.75 13.00 42.00 Z"/>
</g>
<g fill="#60C447" fill-opacity="1.00" stroke="None">
<path d="
M 29.00 39.00 
C 29.53 44.82 28.86 50.42 30.00 56.00
C 30.70 59.44 30.31 62.73 30.00 66.00
C 30.00 68.33 30.00 70.67 30.00 73.00
C 31.41 72.69 32.63 72.31 34.00 72.00
C 34.00 71.00 34.00 70.00 34.00 69.00
C 34.00 68.00 33.98 67.00 34.00 66.00
C 34.03 64.15 33.74 63.23 35.00 62.00
C 35.00 62.00 35.02 61.50 35.00 61.00
C 34.92 59.34 35.06 57.66 35.00 56.00
C 36.39 56.26 35.78 58.05 36.00 59.00
C 36.63 60.86 36.99 62.57 37.00 65.00
C 37.01 66.33 37.00 67.67 37.00 69.00
C 37.00 69.72 36.71 71.35 37.00 72.00
C 37.55 73.24 40.04 72.79 41.00 73.00
C 41.00 68.33 41.00 63.67 41.00 59.00
C 41.00 58.17 40.76 56.79 41.00 56.00
C 42.55 50.96 44.30 44.88 43.00 39.00
C 42.76 38.74 42.26 38.21 42.00 38.00
C 40.20 36.57 30.26 37.44 29.00 39.00 Z"/>
</g>
<g fill="#565757" fill-opacity="0.91" stroke="None">
<path d="
M 30.00 56.00 
C 28.86 50.42 29.53 44.82 29.00 39.00
C 29.00 39.00 28.00 38.96 28.00 39.00
C 27.43 45.29 28.99 51.05 30.00 56.00 Z"/>
</g>
<g fill="#7E8181" fill-opacity="0.53" stroke="None">
<path d="
M 41.00 56.00 
C 42.86 52.30 47.16 43.51 43.00 39.00
C 44.30 44.88 42.55 50.96 41.00 56.00 Z"/>
</g>
<g fill="#FFFFFF" fill-opacity="1.00" stroke="None">
<path d="
M 97.00 40.00 
C 91.29 43.12 99.06 49.37 97.00 40.00 Z"/>
</g>
<g fill="#7B7B7B" fill-opacity="0.49" stroke="None">
<path d="
M 13.00 44.00 
C 13.55 44.58 14.47 45.49 15.00 46.00
C 15.39 46.21 16.00 46.00 16.00 46.00
C 16.26 45.87 17.05 44.31 17.00 44.00
C 16.13 44.39 13.56 43.84 13.00 43.00
C 13.00 43.00 12.75 43.74 13.00 44.00 Z"/>
</g>
<g fill="#868686" fill-opacity="0.79" stroke="None">
<path d="
M 17.00 44.00 
C 17.05 44.31 16.26 45.87 16.00 46.00
C 17.05 45.45 18.71 44.42 20.00 45.00
C 19.68 44.69 18.36 42.99 18.00 43.00
C 17.81 43.27 16.95 43.70 17.00 44.00 Z"/>
</g>
<g fill="#313332" fill-opacity="1.00" stroke="None">
<path d="
M 90.00 46.00 
C 90.96 44.79 90.85 44.75 91.00 43.00
C 90.92 43.37 90.22 45.32 90.00 46.00 Z"/>
</g>
<g fill="#7D807F" fill-opacity="0.77" stroke="None">
<path d="
M 11.00 45.00 
C 10.89 44.40 14.72 45.85 15.00 46.00
C 14.47 45.49 13.55 44.58 13.00 44.00
C 12.72 44.22 11.33 44.79 11.00 45.00 Z"/>
</g>
<g fill="#373939" fill-opacity="0.92" stroke="None">
<path d="
M 72.00 46.00 
C 73.15 50.26 74.00 53.11 74.00 58.00
C 74.00 60.33 74.00 62.67 74.00 65.00
C 74.85 57.00 73.71 51.35 72.00 44.00
C 72.00 44.50 71.87 45.53 72.00 46.00 Z"/>
</g>
<g fill="#505251" fill-opacity="0.85" stroke="None">
<path d="
M 9.00 49.00 
C 9.03 48.88 10.66 45.15 11.00 45.00
C 8.72 46.46 9.35 45.94 9.00 49.00 Z"/>
</g>
<g fill="#E60C0A" fill-opacity="1.00" stroke="None">
<path d="
M 9.00 49.00 
C 8.74 51.27 9.00 53.72 9.00 56.00
C 9.22 56.99 10.77 58.65 11.00 60.00
C 11.31 61.88 11.00 64.09 11.00 66.00
C 11.00 67.67 10.12 72.65 11.00 74.00
C 12.15 75.76 13.34 73.60 14.00 73.00
C 14.21 72.18 14.02 70.85 14.00 70.00
C 13.91 66.83 13.95 63.88 15.00 61.00
C 16.87 62.14 15.61 65.13 16.00 67.00
C 15.97 67.50 16.03 68.50 16.00 69.00
C 16.57 70.59 16.93 71.87 17.00 74.00
C 17.00 74.00 17.69 73.76 18.00 74.00
C 21.42 73.50 20.00 65.98 20.00 63.00
C 20.00 62.07 19.83 60.91 20.00 60.00
C 20.42 57.75 21.15 54.80 22.00 53.00
C 22.00 53.00 21.95 52.49 22.00 52.00
C 21.51 50.96 21.26 45.57 20.00 45.00
C 18.71 44.42 17.05 45.45 16.00 46.00
C 16.00 46.00 15.39 46.21 15.00 46.00
C 14.72 45.85 10.89 44.40 11.00 45.00
C 10.66 45.15 9.03 48.88 9.00 49.00 Z"/>
</g>
<g fill="#3A3C3C" fill-opacity="0.96" stroke="None">
<path d="
M 22.00 52.00 
C 22.35 48.79 22.11 47.05 20.00 45.00
C 21.26 45.57 21.51 50.96 22.00 52.00 Z"/>
</g>
<g fill="#373737" fill-opacity="0.22" stroke="None">
<path d="
M 88.00 53.00 
C 88.00 52.96 89.00 53.00 89.00 53.00
C 89.00 51.67 89.00 50.33 89.00 49.00
C 89.00 48.50 88.82 47.42 89.00 47.00
C 87.42 48.51 88.06 50.79 88.00 53.00 Z"/>
</g>
<g fill="#505251" fill-opacity="0.60" stroke="None">
<path d="
M 50.00 60.00 
C 50.00 59.96 51.00 60.00 51.00 60.00
C 51.00 56.82 52.28 49.77 49.00 48.00
C 49.00 48.00 48.00 48.04 48.00 48.00
C 51.04 50.97 50.00 56.03 50.00 60.00 Z"/>
</g>
<g fill="#FFFFFF" fill-opacity="1.00" stroke="None">
<path d="
M 97.00 48.00 
C 91.29 51.12 99.06 57.37 97.00 48.00 Z"/>
</g>
<g fill="#5B5B5B" fill-opacity="1.00" stroke="None">
<path d="
M 80.00 53.00 
C 80.16 52.38 81.26 50.43 82.00 50.00
C 80.76 46.78 79.94 51.99 80.00 53.00 Z"/>
</g>
<g fill="#8C8C8C" fill-opacity="0.98" stroke="None">
<path d="
M 80.00 53.00 
C 80.03 53.50 80.00 54.50 80.00 55.00
C 80.12 54.60 81.91 53.31 82.00 53.00
C 82.00 52.23 82.27 50.71 82.00 50.00
C 81.26 50.43 80.16 52.38 80.00 53.00 Z"/>
</g>
<g fill="#494949" fill-opacity="0.97" stroke="None">
<path d="
M 56.00 52.00 
C 57.23 52.26 56.99 54.05 57.00 55.00
C 57.34 54.77 58.00 55.00 58.00 55.00
C 57.97 54.38 56.88 49.47 56.00 52.00 Z"/>
</g>
<g fill="#989898" fill-opacity="0.84" stroke="None">
<path d="
M 56.00 57.00 
C 56.00 57.00 56.75 56.75 57.00 57.00
C 57.00 56.50 57.00 55.50 57.00 55.00
C 56.99 54.05 57.23 52.26 56.00 52.00
C 55.55 53.30 56.00 55.61 56.00 57.00 Z"/>
</g>
<g fill="#434544" fill-opacity="0.99" stroke="None">
<path d="
M 20.00 60.00 
C 21.07 57.51 22.40 56.69 22.00 53.00
C 21.15 54.80 20.42 57.75 20.00 60.00 Z"/>
</g>
<g fill="#505050" fill-opacity="0.27" stroke="None">
<path d="
M 80.00 55.00 
C 80.00 56.33 80.00 57.67 80.00 59.00
C 80.20 58.63 81.91 57.31 82.00 57.00
C 82.00 56.50 82.00 55.50 82.00 55.00
C 82.00 54.50 82.00 53.50 82.00 53.00
C 81.91 53.31 80.12 54.60 80.00 55.00 Z"/>
</g>
<g fill="#959696" fill-opacity="0.97" stroke="None">
<path d="
M 88.00 70.00 
C 88.00 70.50 88.00 71.00 88.00 71.00
C 90.80 68.30 89.00 57.10 89.00 53.00
C 89.00 53.00 88.00 52.96 88.00 53.00
C 87.84 58.66 88.00 64.34 88.00 70.00 Z"/>
</g>
<g fill="#979797" fill-opacity="0.78" stroke="None">
<path d="
M 63.00 71.00 
C 66.02 68.09 63.74 57.37 63.00 54.00
C 63.00 59.67 63.00 65.33 63.00 71.00 Z"/>
</g>
<g fill="#606060" fill-opacity="0.76" stroke="None">
<path d="
M 57.00 57.00 
C 57.00 57.00 57.06 57.51 57.00 58.00
C 57.25 58.25 58.00 58.00 58.00 58.00
C 58.00 57.61 58.26 55.24 58.00 55.00
C 58.00 55.00 57.34 54.77 57.00 55.00
C 57.00 55.50 57.00 56.50 57.00 57.00 Z"/>
</g>
<g fill="#353535" fill-opacity="1.00" stroke="None">
<path d="
M 82.00 57.00 
C 82.00 57.50 82.00 58.50 82.00 59.00
C 82.25 58.75 83.00 59.00 83.00 59.00
C 82.91 57.25 82.37 56.23 82.00 55.00
C 82.00 55.50 82.00 56.50 82.00 57.00 Z"/>
</g>
<g fill="#464747" fill-opacity="1.00" stroke="None">
<path d="
M 9.00 59.00 
C 9.21 59.45 10.83 59.69 11.00 60.00
C 10.77 58.65 9.22 56.99 9.00 56.00
C 9.00 56.93 8.83 58.09 9.00 59.00 Z"/>
</g>
<g fill="#2E302F" fill-opacity="1.00" stroke="None">
<path d="
M 30.00 64.00 
C 30.00 64.50 30.00 65.50 30.00 66.00
C 30.31 62.73 30.70 59.44 30.00 56.00
C 30.50 58.44 30.00 61.51 30.00 64.00 Z"/>
</g>
<g fill="#898989" fill-opacity="0.81" stroke="None">
<path d="
M 35.00 61.00 
C 35.00 61.00 35.66 61.23 36.00 61.00
C 36.00 60.50 36.04 59.50 36.00 59.00
C 35.78 58.05 36.39 56.26 35.00 56.00
C 35.06 57.66 34.92 59.34 35.00 61.00 Z"/>
</g>
<g fill="#FFFFFF" fill-opacity="1.00" stroke="None">
<path d="
M 97.00 56.00 
C 91.29 59.12 99.06 65.37 97.00 56.00 Z"/>
</g>
<g fill="#858585" fill-opacity="0.26" stroke="None">
<path d="
M 80.00 59.00 
C 80.00 59.00 80.00 59.50 80.00 60.00
C 80.00 61.66 80.07 63.34 80.00 65.00
C 80.29 63.79 81.39 61.19 82.00 60.00
C 82.00 59.50 82.00 59.00 82.00 59.00
C 82.00 58.50 82.00 57.50 82.00 57.00
C 81.91 57.31 80.20 58.63 80.00 59.00 Z"/>
</g>
<g fill="#969696" fill-opacity="0.65" stroke="None">
<path d="
M 58.00 61.00 
C 58.00 60.00 58.00 59.00 58.00 58.00
C 58.00 58.00 57.25 58.25 57.00 58.00
C 56.82 59.54 57.76 60.09 58.00 61.00 Z"/>
</g>
<g fill="#A5A7A6" fill-opacity="0.79" stroke="None">
<path d="
M 74.00 71.00 
C 73.89 70.97 74.00 70.00 74.00 70.00
C 74.00 68.33 74.00 66.67 74.00 65.00
C 74.00 62.67 74.00 60.33 74.00 58.00
C 73.72 60.87 71.11 68.22 74.00 71.00 Z"/>
</g>
<g fill="#505150" fill-opacity="0.33" stroke="None">
<path d="
M 10.00 66.00 
C 10.00 65.98 11.00 66.00 11.00 66.00
C 11.00 64.09 11.31 61.88 11.00 60.00
C 10.83 59.69 9.21 59.45 9.00 59.00
C 9.45 61.41 9.90 63.33 10.00 66.00 Z"/>
</g>
<g fill="#424242" fill-opacity="0.96" stroke="None">
<path d="
M 36.00 61.00 
C 36.00 62.33 36.00 63.67 36.00 65.00
C 36.13 64.78 37.00 65.00 37.00 65.00
C 36.99 62.57 36.63 60.86 36.00 59.00
C 36.04 59.50 36.00 60.50 36.00 61.00 Z"/>
</g>
<g fill="#919292" fill-opacity="0.47" stroke="None">
<path d="
M 41.00 73.00 
C 41.00 73.50 41.00 74.00 41.00 74.00
C 43.87 71.24 41.69 62.12 41.00 59.00
C 41.00 63.67 41.00 68.33 41.00 73.00 Z"/>
</g>
<g fill="#434343" fill-opacity="1.00" stroke="None">
<path d="
M 55.00 65.00 
C 55.00 65.05 56.00 65.00 56.00 65.00
C 56.11 63.02 56.00 60.99 56.00 59.00
C 55.33 60.66 54.44 62.67 55.00 65.00 Z"/>
</g>
<g fill="#3C3C3C" fill-opacity="0.74" stroke="None">
<path d="
M 82.00 60.00 
C 82.00 61.66 81.92 63.34 82.00 65.00
C 82.05 65.15 83.00 65.00 83.00 65.00
C 83.00 63.01 83.11 60.99 83.00 59.00
C 83.00 59.00 82.25 58.75 82.00 59.00
C 82.00 59.00 82.00 59.50 82.00 60.00 Z"/>
</g>
<g fill="#6B6D6C" fill-opacity="0.93" stroke="None">
<path d="
M 51.00 71.00 
C 49.88 68.47 51.00 62.81 51.00 60.00
C 51.00 60.00 50.00 59.96 50.00 60.00
C 50.00 62.64 49.29 71.49 51.00 71.00 Z"/>
</g>
<g fill="#545555" fill-opacity="0.90" stroke="None">
<path d="
M 74.00 70.00 
C 74.00 70.00 73.89 70.97 74.00 71.00
C 79.35 72.27 79.83 69.19 80.00 65.00
C 80.07 63.34 80.00 61.66 80.00 60.00
C 77.26 63.70 81.61 70.82 74.00 70.00 Z"/>
</g>
<g fill="#666666" fill-opacity="0.74" stroke="None">
<path d="
M 14.00 70.00 
C 14.27 69.75 15.00 70.00 15.00 70.00
C 15.16 68.87 15.86 67.65 16.00 67.00
C 15.61 65.13 16.87 62.14 15.00 61.00
C 13.95 63.88 13.91 66.83 14.00 70.00 Z"/>
</g>
<g fill="#404040" fill-opacity="1.00" stroke="None">
<path d="
M 34.00 66.00 
C 34.27 65.75 35.00 66.00 35.00 66.00
C 35.00 64.67 35.00 63.33 35.00 62.00
C 33.74 63.23 34.03 64.15 34.00 66.00 Z"/>
</g>
<g fill="#676968" fill-opacity="0.15" stroke="None">
<path d="
M 18.00 74.00 
C 22.71 77.75 20.32 64.45 20.00 63.00
C 20.00 65.98 21.42 73.50 18.00 74.00 Z"/>
</g>
<g fill="#464848" fill-opacity="1.00" stroke="None">
<path d="
M 59.00 69.00 
C 59.26 66.60 58.72 64.79 58.00 63.00
C 57.87 65.16 57.71 67.48 59.00 69.00 Z"/>
</g>
<g fill="#9FA2A1" fill-opacity="0.46" stroke="None">
<path d="
M 30.00 74.00 
C 29.81 73.91 30.00 73.00 30.00 73.00
C 30.00 70.67 30.00 68.33 30.00 66.00
C 30.00 65.50 30.00 64.50 30.00 64.00
C 29.76 66.44 27.41 71.51 30.00 74.00 Z"/>
</g>
<g fill="#FFFFFF" fill-opacity="0.80" stroke="None">
<path d="
M 98.00 71.00 
C 98.19 68.50 97.50 65.68 96.00 64.00
C 93.72 66.02 92.63 72.79 98.00 71.00 Z"/>
</g>
<g fill="#3F3F3F" fill-opacity="0.50" stroke="None">
<path d="
M 36.00 69.00 
C 36.13 69.22 37.00 69.00 37.00 69.00
C 37.00 67.67 37.01 66.33 37.00 65.00
C 37.00 65.00 36.13 64.78 36.00 65.00
C 36.00 66.32 35.91 67.68 36.00 69.00 Z"/>
</g>
<g fill="#676868" fill-opacity="0.68" stroke="None">
<path d="
M 53.00 71.00 
C 56.02 72.09 55.85 67.62 56.00 65.00
C 56.00 65.00 55.00 65.05 55.00 65.00
C 55.21 67.12 55.24 70.26 53.00 71.00 Z"/>
</g>
<g fill="#8D9090" fill-opacity="0.63" stroke="None">
<path d="
M 83.00 69.00 
C 82.59 68.16 83.00 65.95 83.00 65.00
C 83.00 65.00 82.05 65.15 82.00 65.00
C 82.09 66.88 82.10 67.64 83.00 69.00 Z"/>
</g>
<g fill="#7C7F7D" fill-opacity="0.87" stroke="None">
<path d="
M 11.00 74.00 
C 10.12 72.65 11.00 67.67 11.00 66.00
C 11.00 66.00 10.00 65.98 10.00 66.00
C 10.05 67.34 10.40 75.83 11.00 74.00 Z"/>
</g>
<g fill="#6D6E6E" fill-opacity="0.97" stroke="None">
<path d="
M 34.00 69.00 
C 34.27 68.75 35.00 69.00 35.00 69.00
C 35.02 68.00 35.00 67.00 35.00 66.00
C 35.00 66.00 34.27 65.75 34.00 66.00
C 33.98 67.00 34.00 68.00 34.00 69.00 Z"/>
</g>
<g fill="#535555" fill-opacity="0.89" stroke="None">
<path d="
M 17.00 74.00 
C 16.93 71.87 16.57 70.59 16.00 69.00
C 15.92 70.49 15.53 73.25 17.00 74.00 Z"/>
</g>
<g fill="#6E6F6E" fill-opacity="0.50" stroke="None">
<path d="
M 34.00 72.00 
C 34.00 72.50 34.00 73.00 34.00 73.00
C 35.57 73.06 34.99 69.84 35.00 69.00
C 35.00 69.00 34.27 68.75 34.00 69.00
C 34.00 70.00 34.00 71.00 34.00 72.00 Z"/>
</g>
<g fill="#898B8B" fill-opacity="0.50" stroke="None">
<path d="
M 37.00 72.00 
C 36.71 71.35 37.00 69.72 37.00 69.00
C 37.00 69.00 36.13 69.22 36.00 69.00
C 36.12 70.61 36.28 70.88 37.00 72.00 Z"/>
</g>
<g fill="#4C4E4E" fill-opacity="0.74" stroke="None">
<path d="
M 88.00 71.00 
C 88.00 71.00 88.00 70.50 88.00 70.00
C 86.81 69.93 83.70 70.40 83.00 69.00
C 84.14 70.73 85.08 71.94 88.00 71.00 Z"/>
</g>
<g fill="#656565" fill-opacity="0.21" stroke="None">
<path d="
M 14.00 73.00 
C 14.40 72.64 14.63 72.60 15.00 70.00
C 15.00 70.00 14.27 69.75 14.00 70.00
C 14.02 70.85 14.21 72.18 14.00 73.00 Z"/>
</g>
<g fill="#5E5F5F" fill-opacity="0.48" stroke="None">
<path d="
M 63.00 71.00 
C 61.84 70.88 59.78 71.17 59.00 70.00
C 59.69 72.15 61.65 72.30 63.00 71.00 Z"/>
</g>
<g fill="#515352" fill-opacity="0.82" stroke="None">
<path d="
M 30.00 73.00 
C 30.00 73.00 29.81 73.91 30.00 74.00
C 30.96 74.43 33.66 74.09 34.00 73.00
C 34.00 73.00 34.00 72.50 34.00 72.00
C 32.63 72.31 31.41 72.69 30.00 73.00 Z"/>
</g>
<g fill="#545655" fill-opacity="0.75" stroke="None">
<path d="
M 41.00 74.00 
C 41.00 74.00 41.00 73.50 41.00 73.00
C 40.04 72.79 37.55 73.24 37.00 72.00
C 37.93 73.44 38.34 75.04 41.00 74.00 Z"/>
</g>
</svg>