<svg xmlns="http://www.w3.org/2000/svg" xmlns:v="https://svgstorm.com"
viewBox = "0 0 100 72"
width="100"
height="72">
<g fill="None" fill-opacity="0.0" stroke="#000000" stroke-opacity="0.00" stroke-width="0.3"><path d="
M 0.00 72.00 
L 100.00 72.00
L 100.00 0.00
L 0.00 0.00
L 0.00 72.00
M 82.00 43.00 
C 82.33 47.99 83.33 54.29 83.00 60.00
C 82.89 61.87 83.30 62.73 82.00 64.00
C 82.00 64.50 82.00 65.00 82.00 65.00
C 84.22 66.22 87.14 66.14 90.00 66.00
C 84.59 71.83 73.92 68.33 65.00 69.00 C 56.08 69.67 45.28 68.65 36.00 69.00 C 26.72 69.35 16.37 68.74 7.00 69.00
C 7.16 65.04 11.49 65.88 8.00 62.00
C 11.95 59.22 16.70 62.46 13.00 66.00
C 21.45 66.48 13.59 59.57 14.00 56.00
C 18.00 55.00 20.66 53.81 25.00 57.00
C 24.90 60.58 20.15 61.03 22.00 66.00
C 24.00 66.00 26.00 66.00 28.00 66.00
C 27.78 63.52 29.19 58.12 28.00 56.00
C 27.33 55.20 25.88 54.55 25.00 54.00
C 20.42 51.13 23.60 49.18 28.00 51.00
C 25.79 43.46 38.20 43.43 36.00 51.00
C 36.00 50.99 37.00 51.00 37.00 51.00
C 42.72 46.42 42.62 57.22 36.00 55.00
C 36.00 58.67 36.00 62.33 36.00 66.00
C 38.67 66.00 41.33 66.00 44.00 66.00
C 43.53 60.81 42.65 57.55 44.00 52.00 C 45.35 46.45 39.16 47.11 38.00 44.00
C 33.88 44.13 35.10 38.90 37.09 39.08 C 39.07 39.27 44.61 39.76 45.00 40.00
C 43.65 35.67 45.03 29.95 51.00 32.00
C 54.29 33.13 56.45 36.89 54.00 40.00
C 53.76 40.31 54.00 41.00 54.00 41.00
C 56.35 40.83 59.59 38.14 62.00 39.00
C 69.87 41.93 56.15 44.54 55.25 47.25 C 54.36 49.97 55.33 62.38 55.00 66.00
C 58.67 66.00 62.33 66.00 66.00 66.00
C 66.00 54.00 66.00 42.00 66.00 30.00
C 60.90 28.99 44.26 23.64 53.00 18.00
C 54.08 16.24 66.41 22.92 70.00 23.00
C 65.85 18.22 61.25 10.16 70.08 6.08 C 78.92 2.01 86.95 15.19 80.00 22.00
C 87.06 20.91 93.11 15.87 98.00 19.00
C 96.42 21.03 98.18 22.74 97.00 25.00
C 92.09 23.21 88.26 30.46 82.00 30.00
C 82.95 34.86 82.28 37.97 82.00 43.00
M 6.00 66.00 
C 4.43 71.64 -0.66 65.13 6.00 66.00
M 96.00 67.00 
C 90.99 69.34 90.21 64.05 96.00 67.00 Z"/>
</g>
<g fill="None" fill-opacity="0.0" stroke="#0B0D0D" stroke-opacity="0.77" stroke-width="0.3"><path d="
M 53.00 18.00 
C 52.78 18.36 53.18 19.58 53.00 20.00
C 54.82 20.97 57.91 21.12 60.00 22.00
C 70.71 26.52 77.32 26.19 88.00 22.00
C 90.21 21.13 94.15 18.81 96.00 21.00
C 94.60 23.39 91.56 24.40 89.00 25.00
C 85.28 26.37 83.16 28.12 80.00 29.00
C 80.00 40.67 80.00 52.33 80.00 64.00
C 80.28 63.99 81.74 64.86 82.00 65.00
C 82.00 65.00 82.00 64.50 82.00 64.00
C 82.00 62.67 82.00 61.33 82.00 60.00
C 82.00 54.34 81.81 48.65 82.00 43.00
C 82.28 37.97 82.95 34.86 82.00 30.00
C 88.26 30.46 92.09 23.21 97.00 25.00
C 98.18 22.74 96.42 21.03 98.00 19.00
C 93.11 15.87 87.06 20.91 80.00 22.00
C 86.95 15.19 78.92 2.01 70.08 6.08 C 61.25 10.16 65.85 18.22 70.00 23.00
C 66.41 22.92 54.08 16.24 53.00 18.00
M 77.00 8.00 
C 76.93 13.19 70.93 11.16 68.00 13.00
C 68.41 8.70 73.22 7.24 77.00 8.00
M 80.00 10.00 
C 80.60 10.60 79.87 12.21 78.74 11.19 C 77.61 10.16 79.54 9.54 80.00 10.00
M 76.00 21.00 
C 75.42 21.98 72.22 22.87 72.00 21.00
C 69.35 21.07 68.27 18.21 68.00 16.00
C 71.79 17.19 72.92 11.90 77.08 12.08 C 81.23 12.25 81.01 21.89 76.00 21.00
M 76.00 23.00 
C 73.06 25.68 70.90 22.01 76.00 23.00 Z"/>
</g>
<g fill="None" fill-opacity="0.0" stroke="#646464" stroke-opacity="1.00" stroke-width="0.3"><path d="
M 77.00 8.00 
C 73.22 7.24 68.41 8.70 68.00 13.00
C 70.93 11.16 76.93 13.19 77.00 8.00 Z"/>
</g>
<g fill="None" fill-opacity="0.0" stroke="#3E3F3E" stroke-opacity="1.00" stroke-width="0.3"><path d="
M 80.00 10.00 
C 79.54 9.54 77.61 10.16 78.74 11.19 C 79.87 12.21 80.60 10.60 80.00 10.00 Z"/>
</g>
<g fill="None" fill-opacity="0.0" stroke="#CFB496" stroke-opacity="1.00" stroke-width="0.3"><path d="
M 72.00 21.00 
C 72.34 20.99 72.73 20.13 73.00 20.00
C 72.53 19.34 70.85 19.23 71.00 18.00
C 72.59 19.62 78.55 16.87 76.00 20.00
C 75.78 20.36 76.00 21.00 76.00 21.00
C 81.01 21.89 81.23 12.25 77.08 12.08 C 72.92 11.90 71.79 17.19 68.00 16.00
C 68.27 18.21 69.35 21.07 72.00 21.00 Z"/>
</g>
<g fill="None" fill-opacity="0.0" stroke="#030709" stroke-opacity="0.70" stroke-width="0.3"><path d="
M 55.00 66.00 
C 54.50 66.00 54.00 66.00 54.00 66.00
C 52.64 67.32 51.34 67.30 50.00 66.00
C 49.50 66.00 49.00 66.00 49.00 66.00
C 47.64 67.32 46.34 67.30 45.00 66.00
C 44.50 66.00 44.00 66.00 44.00 66.00
C 41.33 66.00 38.67 66.00 36.00 66.00
C 35.00 66.00 34.00 66.00 33.00 66.00
C 31.67 66.00 30.33 66.00 29.00 66.00
C 28.50 66.00 28.00 66.00 28.00 66.00
C 26.00 66.00 24.00 66.00 22.00 66.00
C 20.15 61.03 24.90 60.58 25.00 57.00
C 20.66 53.81 18.00 55.00 14.00 56.00
C 13.59 59.57 21.45 66.48 13.00 66.00
C 16.70 62.46 11.95 59.22 8.00 62.00
C 11.49 65.88 7.16 65.04 7.00 69.00
C 16.37 68.74 26.72 69.35 36.00 69.00 C 45.28 68.65 56.08 69.67 65.00 69.00 C 73.92 68.33 84.59 71.83 90.00 66.00
C 87.14 66.14 84.22 66.22 82.00 65.00
C 81.74 64.86 80.28 63.99 80.00 64.00
C 79.67 64.01 78.00 65.89 77.00 65.00
C 77.00 62.33 77.00 59.67 77.00 57.00
C 76.84 56.27 76.11 55.26 76.00 54.00
C 75.77 51.35 76.17 48.65 76.00 46.00
C 69.46 45.43 72.82 54.10 72.00 58.00
C 71.87 59.53 71.32 60.00 71.00 61.00
C 70.62 62.21 71.29 63.76 71.00 65.00
C 70.00 64.89 68.27 65.47 68.00 64.00
C 65.40 59.49 69.79 50.99 68.00 46.00 C 66.21 41.01 70.62 32.36 67.00 28.00
C 65.45 26.66 61.05 25.76 59.00 25.00
C 56.10 23.93 51.57 23.30 53.00 20.00
C 53.18 19.58 52.78 18.36 53.00 18.00
C 44.26 23.64 60.90 28.99 66.00 30.00
C 66.00 42.00 66.00 54.00 66.00 66.00
C 62.33 66.00 58.67 66.00 55.00 66.00
M 74.00 66.00 
C 71.70 64.04 73.61 60.45 74.00 58.00
C 75.81 59.83 75.23 63.80 74.00 66.00 Z"/>
</g>
<g fill="None" fill-opacity="0.0" stroke="#0E0906" stroke-opacity="1.00" stroke-width="0.3"><path d="
M 73.00 20.00 
C 73.20 19.90 75.87 19.86 76.00 20.00
C 78.55 16.87 72.59 19.62 71.00 18.00
C 70.85 19.23 72.53 19.34 73.00 20.00 Z"/>
</g>
<g fill="None" fill-opacity="0.0" stroke="#DBC1A2" stroke-opacity="0.92" stroke-width="0.3"><path d="
M 59.00 25.00 
C 58.57 23.69 59.90 23.16 60.00 22.00
C 57.91 21.12 54.82 20.97 53.00 20.00
C 51.57 23.30 56.10 23.93 59.00 25.00 Z"/>
</g>
<g fill="None" fill-opacity="0.0" stroke="#917E6C" stroke-opacity="1.00" stroke-width="0.3"><path d="
M 72.00 21.00 
C 72.22 22.87 75.42 21.98 76.00 21.00
C 76.00 21.00 75.78 20.36 76.00 20.00
C 75.87 19.86 73.20 19.90 73.00 20.00
C 72.73 20.13 72.34 20.99 72.00 21.00 Z"/>
</g>
<g fill="None" fill-opacity="0.0" stroke="#E1C7A7" stroke-opacity="0.91" stroke-width="0.3"><path d="
M 88.00 22.00 
C 88.42 22.89 89.36 23.89 89.00 25.00
C 91.56 24.40 94.60 23.39 96.00 21.00
C 94.15 18.81 90.21 21.13 88.00 22.00 Z"/>
</g>
<g fill="None" fill-opacity="0.0" stroke="#000000" stroke-opacity="0.00" stroke-width="0.3"><path d="
M 59.00 25.00 
C 61.05 25.76 65.45 26.66 67.00 28.00
C 71.14 31.57 68.60 39.48 69.00 45.00 C 69.40 50.52 69.53 59.14 68.00 64.00
C 68.27 65.47 70.00 64.89 71.00 65.00
C 71.29 63.76 70.62 62.21 71.00 61.00
C 71.19 59.86 71.85 58.67 72.00 58.00
C 72.82 54.10 69.46 45.43 76.00 46.00
C 76.17 48.65 75.77 51.35 76.00 54.00
C 76.16 54.73 76.89 55.74 77.00 57.00
C 77.00 59.67 77.00 62.33 77.00 65.00
C 78.00 65.89 79.67 64.01 80.00 64.00
C 80.00 52.33 80.00 40.67 80.00 29.00
C 83.16 28.12 85.28 26.37 89.00 25.00
C 89.36 23.89 88.42 22.89 88.00 22.00
C 77.32 26.19 70.71 26.52 60.00 22.00
C 59.90 23.16 58.57 23.69 59.00 25.00 Z"/>
</g>
<g fill="None" fill-opacity="0.0" stroke="#46413B" stroke-opacity="1.00" stroke-width="0.3"><path d="
M 76.00 23.00 
C 70.90 22.01 73.06 25.68 76.00 23.00 Z"/>
</g>
<g fill="None" fill-opacity="0.0" stroke="#464F58" stroke-opacity="0.04" stroke-width="0.3"><path d="
M 68.00 64.00 
C 69.53 59.14 69.40 50.52 69.00 45.00 C 68.60 39.48 71.14 31.57 67.00 28.00
C 70.62 32.36 66.21 41.01 68.00 46.00 C 69.79 50.99 65.40 59.49 68.00 64.00 Z"/>
</g>
<g fill="None" fill-opacity="0.0" stroke="#5B8E9E" stroke-opacity="0.66" stroke-width="0.3"><path d="
M 45.00 40.00 
C 45.30 40.97 48.01 42.14 46.00 44.00
C 51.69 43.30 55.78 43.15 61.00 41.00
C 60.56 41.18 65.52 40.26 62.00 39.00
C 59.59 38.14 56.35 40.83 54.00 41.00
C 52.01 42.56 52.16 41.00 54.00 40.00
C 55.02 39.24 51.85 40.04 52.00 40.00
C 49.23 40.79 48.97 41.31 47.00 39.00
C 46.20 38.06 45.98 35.73 47.00 35.00
C 48.55 33.90 49.36 35.18 50.00 35.00
C 51.25 34.65 49.72 32.92 51.00 32.00
C 45.03 29.95 43.65 35.67 45.00 40.00 Z"/>
</g>
<g fill="None" fill-opacity="0.0" stroke="#5C8A9D" stroke-opacity="0.53" stroke-width="0.3"><path d="
M 50.00 35.00 
C 49.08 35.25 47.90 34.70 47.00 35.00
C 45.98 35.73 46.20 38.06 47.00 39.00
C 49.94 35.96 49.38 39.29 52.00 40.00
C 51.85 40.04 55.02 39.24 54.00 40.00
C 56.45 36.89 54.29 33.13 51.00 32.00
C 49.72 32.92 51.25 34.65 50.00 35.00 Z"/>
</g>
<g fill="None" fill-opacity="0.0" stroke="#000000" stroke-opacity="0.00" stroke-width="0.3"><path d="
M 47.00 35.00 
C 47.90 34.70 49.08 35.25 50.00 35.00
C 49.36 35.18 48.55 33.90 47.00 35.00 Z"/>
</g>
<g fill="None" fill-opacity="0.0" stroke="#000000" stroke-opacity="0.00" stroke-width="0.3"><path d="
M 47.00 39.00 
C 48.97 41.31 49.23 40.79 52.00 40.00
C 49.38 39.29 49.94 35.96 47.00 39.00 Z"/>
</g>
<g fill="None" fill-opacity="0.0" stroke="#527B89" stroke-opacity="0.50" stroke-width="0.3"><path d="
M 38.00 44.00 
C 37.99 43.97 38.73 43.19 39.00 43.00
C 41.26 41.37 41.73 43.59 42.00 44.00
C 42.72 44.42 42.72 45.20 44.00 45.00
C 44.26 44.96 45.24 44.09 46.00 44.00
C 48.01 42.14 45.30 40.97 45.00 40.00
C 44.61 39.76 39.07 39.27 37.09 39.08 C 35.10 38.90 33.88 44.13 38.00 44.00 Z"/>
</g>
<g fill="None" fill-opacity="0.0" stroke="#59889A" stroke-opacity="0.45" stroke-width="0.3"><path d="
M 61.00 41.00 
C 59.15 42.21 56.71 43.53 55.00 45.00
C 55.71 46.35 54.58 47.49 54.00 45.00
C 49.95 46.21 52.00 61.36 52.00 65.00
C 52.00 65.50 52.00 66.00 52.00 66.00
C 52.50 66.00 53.50 66.00 54.00 66.00
C 54.00 66.00 54.50 66.00 55.00 66.00
C 55.33 62.38 54.36 49.97 55.25 47.25 C 56.15 44.54 69.87 41.93 62.00 39.00
C 65.52 40.26 60.56 41.18 61.00 41.00 Z"/>
</g>
<g fill="None" fill-opacity="0.0" stroke="#5A8291" stroke-opacity="0.23" stroke-width="0.3"><path d="
M 54.00 41.00 
C 54.00 41.00 53.76 40.31 54.00 40.00
C 52.16 41.00 52.01 42.56 54.00 41.00 Z"/>
</g>
<g fill="None" fill-opacity="0.0" stroke="#000000" stroke-opacity="0.00" stroke-width="0.3"><path d="
M 46.00 44.00 
C 45.24 44.09 44.26 44.96 44.00 45.00
C 47.98 46.56 46.00 60.47 46.00 65.00
C 46.56 64.17 46.60 64.10 47.00 63.00
C 47.93 60.44 48.33 57.88 48.00 55.00
C 54.00 54.13 48.82 62.85 52.00 65.00
C 52.00 61.36 49.95 46.21 54.00 45.00
C 54.46 44.86 55.00 45.00 55.00 45.00
C 56.71 43.53 59.15 42.21 61.00 41.00
C 55.78 43.15 51.69 43.30 46.00 44.00 Z"/>
</g>
<g fill="None" fill-opacity="0.0" stroke="#000000" stroke-opacity="0.00" stroke-width="0.3"><path d="
M 39.00 43.00 
C 39.81 42.64 41.35 43.62 42.00 44.00
C 41.73 43.59 41.26 41.37 39.00 43.00 Z"/>
</g>
<g fill="None" fill-opacity="0.0" stroke="#52879B" stroke-opacity="0.64" stroke-width="0.3"><path d="
M 38.00 44.00 
C 39.16 47.11 45.35 46.45 44.00 52.00 C 42.65 57.55 43.53 60.81 44.00 66.00
C 44.00 66.00 44.50 66.00 45.00 66.00
C 45.50 66.00 46.00 66.00 46.00 66.00
C 46.25 65.75 46.00 65.00 46.00 65.00
C 46.00 60.47 47.98 46.56 44.00 45.00
C 42.72 45.20 42.72 44.42 42.00 44.00
C 41.35 43.62 39.81 42.64 39.00 43.00
C 38.73 43.19 37.99 43.97 38.00 44.00 Z"/>
</g>
<g fill="None" fill-opacity="0.0" stroke="#008080" stroke-opacity="0.01" stroke-width="0.3"><path d="
M 82.00 60.00 
C 82.13 59.78 83.00 60.00 83.00 60.00
C 83.33 54.29 82.33 47.99 82.00 43.00
C 81.81 48.65 82.00 54.34 82.00 60.00 Z"/>
</g>
<g fill="None" fill-opacity="0.0" stroke="#4A7A8B" stroke-opacity="0.53" stroke-width="0.3"><path d="
M 25.00 54.00 
C 24.23 53.64 29.77 54.99 30.00 55.00
C 31.24 55.07 32.45 52.82 34.00 55.00
C 35.30 56.83 33.16 60.80 33.00 62.00
C 33.00 62.54 32.64 65.71 33.00 66.00
C 34.00 66.00 35.00 66.00 36.00 66.00
C 36.00 62.33 36.00 58.67 36.00 55.00
C 42.62 57.22 42.72 46.42 37.00 51.00
C 37.58 52.89 34.73 53.72 36.00 51.00
C 38.20 43.43 25.79 43.46 28.00 51.00
C 23.60 49.18 20.42 51.13 25.00 54.00
M 34.00 49.00 
C 32.48 52.88 29.70 48.93 34.00 49.00 Z"/>
</g>
<g fill="None" fill-opacity="0.0" stroke="#5B8FA1" stroke-opacity="0.79" stroke-width="0.3"><path d="
M 55.00 45.00 
C 55.00 45.00 54.46 44.86 54.00 45.00
C 54.58 47.49 55.71 46.35 55.00 45.00 Z"/>
</g>
<g fill="None" fill-opacity="0.0" stroke="#000000" stroke-opacity="0.00" stroke-width="0.3"><path d="
M 34.00 49.00 
C 29.70 48.93 32.48 52.88 34.00 49.00 Z"/>
</g>
<g fill="None" fill-opacity="0.0" stroke="#48808F" stroke-opacity="0.72" stroke-width="0.3"><path d="
M 37.00 51.00 
C 37.00 51.00 36.00 50.99 36.00 51.00
C 34.73 53.72 37.58 52.89 37.00 51.00 Z"/>
</g>
<g fill="None" fill-opacity="0.0" stroke="#46798B" stroke-opacity="0.70" stroke-width="0.3"><path d="
M 25.00 54.00 
C 25.88 54.55 27.33 55.20 28.00 56.00
C 29.72 58.04 29.26 63.15 29.00 66.00
C 30.33 66.00 31.67 66.00 33.00 66.00
C 32.64 65.71 33.00 62.54 33.00 62.00
C 33.00 61.50 33.03 60.50 33.00 60.00
C 30.81 60.65 31.53 61.52 30.00 63.00
C 30.00 60.33 30.00 57.67 30.00 55.00
C 29.77 54.99 24.23 53.64 25.00 54.00 Z"/>
</g>
<g fill="None" fill-opacity="0.0" stroke="#000000" stroke-opacity="0.00" stroke-width="0.3"><path d="
M 30.00 55.00 
C 30.00 57.67 30.00 60.33 30.00 63.00
C 31.53 61.52 30.81 60.65 33.00 60.00
C 32.92 58.45 32.39 55.76 34.00 55.00
C 32.45 52.82 31.24 55.07 30.00 55.00 Z"/>
</g>
<g fill="None" fill-opacity="0.0" stroke="#48525D" stroke-opacity="0.05" stroke-width="0.3"><path d="
M 77.00 57.00 
C 76.89 55.74 76.16 54.73 76.00 54.00
C 76.11 55.26 76.84 56.27 77.00 57.00 Z"/>
</g>
<g fill="None" fill-opacity="0.0" stroke="#567E90" stroke-opacity="0.12" stroke-width="0.3"><path d="
M 33.00 60.00 
C 33.03 60.50 33.00 61.50 33.00 62.00
C 33.16 60.80 35.30 56.83 34.00 55.00
C 32.39 55.76 32.92 58.45 33.00 60.00 Z"/>
</g>
<g fill="None" fill-opacity="0.0" stroke="#528A9D" stroke-opacity="0.65" stroke-width="0.3"><path d="
M 47.00 63.00 
C 47.00 63.02 47.87 65.58 48.00 66.00
C 48.50 66.00 49.00 66.00 49.00 66.00
C 49.00 66.00 49.50 66.00 50.00 66.00
C 50.50 66.00 51.50 66.00 52.00 66.00
C 52.00 66.00 52.00 65.50 52.00 65.00
C 48.82 62.85 54.00 54.13 48.00 55.00
C 48.33 57.88 47.93 60.44 47.00 63.00 Z"/>
</g>
<g fill="None" fill-opacity="0.0" stroke="#4A8094" stroke-opacity="0.36" stroke-width="0.3"><path d="
M 28.00 66.00 
C 28.00 66.00 28.50 66.00 29.00 66.00
C 29.26 63.15 29.72 58.04 28.00 56.00
C 29.19 58.12 27.78 63.52 28.00 66.00 Z"/>
</g>
<g fill="None" fill-opacity="0.0" stroke="#5B7076" stroke-opacity="0.05" stroke-width="0.3"><path d="
M 71.00 61.00 
C 71.32 60.00 71.87 59.53 72.00 58.00
C 71.85 58.67 71.19 59.86 71.00 61.00 Z"/>
</g>
<g fill="None" fill-opacity="0.0" stroke="#0F151A" stroke-opacity="0.42" stroke-width="0.3"><path d="
M 74.00 66.00 
C 75.23 63.80 75.81 59.83 74.00 58.00
C 73.61 60.45 71.70 64.04 74.00 66.00 Z"/>
</g>
<g fill="None" fill-opacity="0.0" stroke="#225160" stroke-opacity="0.01" stroke-width="0.3"><path d="
M 82.00 64.00 
C 83.30 62.73 82.89 61.87 83.00 60.00
C 83.00 60.00 82.13 59.78 82.00 60.00
C 82.00 61.33 82.00 62.67 82.00 64.00 Z"/>
</g>
<g fill="None" fill-opacity="0.0" stroke="#6499B4" stroke-opacity="0.11" stroke-width="0.3"><path d="
M 46.00 65.00 
C 46.00 65.00 46.25 65.75 46.00 66.00
C 46.50 66.00 47.50 66.00 48.00 66.00
C 47.87 65.58 47.00 63.02 47.00 63.00
C 46.60 64.10 46.56 64.17 46.00 65.00 Z"/>
</g>
<g fill="None" fill-opacity="0.0" stroke="#091D21" stroke-opacity="0.51" stroke-width="0.3"><path d="
M 6.00 66.00 
C -0.66 65.13 4.43 71.64 6.00 66.00 Z"/>
</g>
<g fill="None" fill-opacity="0.0" stroke="#172930" stroke-opacity="0.96" stroke-width="0.3"><path d="
M 49.00 66.00 
C 49.00 66.00 48.50 66.00 48.00 66.00
C 47.50 66.00 46.50 66.00 46.00 66.00
C 46.00 66.00 45.50 66.00 45.00 66.00
C 46.34 67.30 47.64 67.32 49.00 66.00 Z"/>
</g>
<g fill="None" fill-opacity="0.0" stroke="#18272E" stroke-opacity="0.95" stroke-width="0.3"><path d="
M 54.00 66.00 
C 53.50 66.00 52.50 66.00 52.00 66.00
C 51.50 66.00 50.50 66.00 50.00 66.00
C 51.34 67.30 52.64 67.32 54.00 66.00 Z"/>
</g>
<g fill="None" fill-opacity="0.0" stroke="#050C0F" stroke-opacity="0.53" stroke-width="0.3"><path d="
M 96.00 67.00 
C 90.21 64.05 90.99 69.34 96.00 67.00 Z"/>
</g>
<g fill="#000000" fill-opacity="0.00" stroke="None">
<path d="
M 0.00 72.00 
L 100.00 72.00
L 100.00 0.00
L 0.00 0.00
L 0.00 72.00
M 82.00 43.00 
C 82.33 47.99 83.33 54.29 83.00 60.00
C 82.89 61.87 83.30 62.73 82.00 64.00
C 82.00 64.50 82.00 65.00 82.00 65.00
C 84.22 66.22 87.14 66.14 90.00 66.00
C 84.59 71.83 73.92 68.33 65.00 69.00 C 56.08 69.67 45.28 68.65 36.00 69.00 C 26.72 69.35 16.37 68.74 7.00 69.00
C 7.16 65.04 11.49 65.88 8.00 62.00
C 11.95 59.22 16.70 62.46 13.00 66.00
C 21.45 66.48 13.59 59.57 14.00 56.00
C 18.00 55.00 20.66 53.81 25.00 57.00
C 24.90 60.58 20.15 61.03 22.00 66.00
C 24.00 66.00 26.00 66.00 28.00 66.00
C 27.78 63.52 29.19 58.12 28.00 56.00
C 27.33 55.20 25.88 54.55 25.00 54.00
C 20.42 51.13 23.60 49.18 28.00 51.00
C 25.79 43.46 38.20 43.43 36.00 51.00
C 36.00 50.99 37.00 51.00 37.00 51.00
C 42.72 46.42 42.62 57.22 36.00 55.00
C 36.00 58.67 36.00 62.33 36.00 66.00
C 38.67 66.00 41.33 66.00 44.00 66.00
C 43.53 60.81 42.65 57.55 44.00 52.00 C 45.35 46.45 39.16 47.11 38.00 44.00
C 33.88 44.13 35.10 38.90 37.09 39.08 C 39.07 39.27 44.61 39.76 45.00 40.00
C 43.65 35.67 45.03 29.95 51.00 32.00
C 54.29 33.13 56.45 36.89 54.00 40.00
C 53.76 40.31 54.00 41.00 54.00 41.00
C 56.35 40.83 59.59 38.14 62.00 39.00
C 69.87 41.93 56.15 44.54 55.25 47.25 C 54.36 49.97 55.33 62.38 55.00 66.00
C 58.67 66.00 62.33 66.00 66.00 66.00
C 66.00 54.00 66.00 42.00 66.00 30.00
C 60.90 28.99 44.26 23.64 53.00 18.00
C 54.08 16.24 66.41 22.92 70.00 23.00
C 65.85 18.22 61.25 10.16 70.08 6.08 C 78.92 2.01 86.95 15.19 80.00 22.00
C 87.06 20.91 93.11 15.87 98.00 19.00
C 96.42 21.03 98.18 22.74 97.00 25.00
C 92.09 23.21 88.26 30.46 82.00 30.00
C 82.95 34.86 82.28 37.97 82.00 43.00
M 6.00 66.00 
C 4.43 71.64 -0.66 65.13 6.00 66.00
M 96.00 67.00 
C 90.99 69.34 90.21 64.05 96.00 67.00 Z"/>
</g>
<g fill="#0B0D0D" fill-opacity="0.77" stroke="None">
<path d="
M 53.00 18.00 
C 52.78 18.36 53.18 19.58 53.00 20.00
C 54.82 20.97 57.91 21.12 60.00 22.00
C 70.71 26.52 77.32 26.19 88.00 22.00
C 90.21 21.13 94.15 18.81 96.00 21.00
C 94.60 23.39 91.56 24.40 89.00 25.00
C 85.28 26.37 83.16 28.12 80.00 29.00
C 80.00 40.67 80.00 52.33 80.00 64.00
C 80.28 63.99 81.74 64.86 82.00 65.00
C 82.00 65.00 82.00 64.50 82.00 64.00
C 82.00 62.67 82.00 61.33 82.00 60.00
C 82.00 54.34 81.81 48.65 82.00 43.00
C 82.28 37.97 82.95 34.86 82.00 30.00
C 88.26 30.46 92.09 23.21 97.00 25.00
C 98.18 22.74 96.42 21.03 98.00 19.00
C 93.11 15.87 87.06 20.91 80.00 22.00
C 86.95 15.19 78.92 2.01 70.08 6.08 C 61.25 10.16 65.85 18.22 70.00 23.00
C 66.41 22.92 54.08 16.24 53.00 18.00
M 77.00 8.00 
C 76.93 13.19 70.93 11.16 68.00 13.00
C 68.41 8.70 73.22 7.24 77.00 8.00
M 80.00 10.00 
C 80.60 10.60 79.87 12.21 78.74 11.19 C 77.61 10.16 79.54 9.54 80.00 10.00
M 76.00 21.00 
C 75.42 21.98 72.22 22.87 72.00 21.00
C 69.35 21.07 68.27 18.21 68.00 16.00
C 71.79 17.19 72.92 11.90 77.08 12.08 C 81.23 12.25 81.01 21.89 76.00 21.00
M 76.00 23.00 
C 73.06 25.68 70.90 22.01 76.00 23.00 Z"/>
</g>
<g fill="#646464" fill-opacity="1.00" stroke="None">
<path d="
M 77.00 8.00 
C 73.22 7.24 68.41 8.70 68.00 13.00
C 70.93 11.16 76.93 13.19 77.00 8.00 Z"/>
</g>
<g fill="#3E3F3E" fill-opacity="1.00" stroke="None">
<path d="
M 80.00 10.00 
C 79.54 9.54 77.61 10.16 78.74 11.19 C 79.87 12.21 80.60 10.60 80.00 10.00 Z"/>
</g>
<g fill="#CFB496" fill-opacity="1.00" stroke="None">
<path d="
M 72.00 21.00 
C 72.34 20.99 72.73 20.13 73.00 20.00
C 72.53 19.34 70.85 19.23 71.00 18.00
C 72.59 19.62 78.55 16.87 76.00 20.00
C 75.78 20.36 76.00 21.00 76.00 21.00
C 81.01 21.89 81.23 12.25 77.08 12.08 C 72.92 11.90 71.79 17.19 68.00 16.00
C 68.27 18.21 69.35 21.07 72.00 21.00 Z"/>
</g>
<g fill="#030709" fill-opacity="0.70" stroke="None">
<path d="
M 55.00 66.00 
C 54.50 66.00 54.00 66.00 54.00 66.00
C 52.64 67.32 51.34 67.30 50.00 66.00
C 49.50 66.00 49.00 66.00 49.00 66.00
C 47.64 67.32 46.34 67.30 45.00 66.00
C 44.50 66.00 44.00 66.00 44.00 66.00
C 41.33 66.00 38.67 66.00 36.00 66.00
C 35.00 66.00 34.00 66.00 33.00 66.00
C 31.67 66.00 30.33 66.00 29.00 66.00
C 28.50 66.00 28.00 66.00 28.00 66.00
C 26.00 66.00 24.00 66.00 22.00 66.00
C 20.15 61.03 24.90 60.58 25.00 57.00
C 20.66 53.81 18.00 55.00 14.00 56.00
C 13.59 59.57 21.45 66.48 13.00 66.00
C 16.70 62.46 11.95 59.22 8.00 62.00
C 11.49 65.88 7.16 65.04 7.00 69.00
C 16.37 68.74 26.72 69.35 36.00 69.00 C 45.28 68.65 56.08 69.67 65.00 69.00 C 73.92 68.33 84.59 71.83 90.00 66.00
C 87.14 66.14 84.22 66.22 82.00 65.00
C 81.74 64.86 80.28 63.99 80.00 64.00
C 79.67 64.01 78.00 65.89 77.00 65.00
C 77.00 62.33 77.00 59.67 77.00 57.00
C 76.84 56.27 76.11 55.26 76.00 54.00
C 75.77 51.35 76.17 48.65 76.00 46.00
C 69.46 45.43 72.82 54.10 72.00 58.00
C 71.87 59.53 71.32 60.00 71.00 61.00
C 70.62 62.21 71.29 63.76 71.00 65.00
C 70.00 64.89 68.27 65.47 68.00 64.00
C 65.40 59.49 69.79 50.99 68.00 46.00 C 66.21 41.01 70.62 32.36 67.00 28.00
C 65.45 26.66 61.05 25.76 59.00 25.00
C 56.10 23.93 51.57 23.30 53.00 20.00
C 53.18 19.58 52.78 18.36 53.00 18.00
C 44.26 23.64 60.90 28.99 66.00 30.00
C 66.00 42.00 66.00 54.00 66.00 66.00
C 62.33 66.00 58.67 66.00 55.00 66.00
M 74.00 66.00 
C 71.70 64.04 73.61 60.45 74.00 58.00
C 75.81 59.83 75.23 63.80 74.00 66.00 Z"/>
</g>
<g fill="#0E0906" fill-opacity="1.00" stroke="None">
<path d="
M 73.00 20.00 
C 73.20 19.90 75.87 19.86 76.00 20.00
C 78.55 16.87 72.59 19.62 71.00 18.00
C 70.85 19.23 72.53 19.34 73.00 20.00 Z"/>
</g>
<g fill="#DBC1A2" fill-opacity="0.92" stroke="None">
<path d="
M 59.00 25.00 
C 58.57 23.69 59.90 23.16 60.00 22.00
C 57.91 21.12 54.82 20.97 53.00 20.00
C 51.57 23.30 56.10 23.93 59.00 25.00 Z"/>
</g>
<g fill="#917E6C" fill-opacity="1.00" stroke="None">
<path d="
M 72.00 21.00 
C 72.22 22.87 75.42 21.98 76.00 21.00
C 76.00 21.00 75.78 20.36 76.00 20.00
C 75.87 19.86 73.20 19.90 73.00 20.00
C 72.73 20.13 72.34 20.99 72.00 21.00 Z"/>
</g>
<g fill="#E1C7A7" fill-opacity="0.91" stroke="None">
<path d="
M 88.00 22.00 
C 88.42 22.89 89.36 23.89 89.00 25.00
C 91.56 24.40 94.60 23.39 96.00 21.00
C 94.15 18.81 90.21 21.13 88.00 22.00 Z"/>
</g>
<g fill="#000000" fill-opacity="0.00" stroke="None">
<path d="
M 59.00 25.00 
C 61.05 25.76 65.45 26.66 67.00 28.00
C 71.14 31.57 68.60 39.48 69.00 45.00 C 69.40 50.52 69.53 59.14 68.00 64.00
C 68.27 65.47 70.00 64.89 71.00 65.00
C 71.29 63.76 70.62 62.21 71.00 61.00
C 71.19 59.86 71.85 58.67 72.00 58.00
C 72.82 54.10 69.46 45.43 76.00 46.00
C 76.17 48.65 75.77 51.35 76.00 54.00
C 76.16 54.73 76.89 55.74 77.00 57.00
C 77.00 59.67 77.00 62.33 77.00 65.00
C 78.00 65.89 79.67 64.01 80.00 64.00
C 80.00 52.33 80.00 40.67 80.00 29.00
C 83.16 28.12 85.28 26.37 89.00 25.00
C 89.36 23.89 88.42 22.89 88.00 22.00
C 77.32 26.19 70.71 26.52 60.00 22.00
C 59.90 23.16 58.57 23.69 59.00 25.00 Z"/>
</g>
<g fill="#46413B" fill-opacity="1.00" stroke="None">
<path d="
M 76.00 23.00 
C 70.90 22.01 73.06 25.68 76.00 23.00 Z"/>
</g>
<g fill="#464F58" fill-opacity="0.04" stroke="None">
<path d="
M 68.00 64.00 
C 69.53 59.14 69.40 50.52 69.00 45.00 C 68.60 39.48 71.14 31.57 67.00 28.00
C 70.62 32.36 66.21 41.01 68.00 46.00 C 69.79 50.99 65.40 59.49 68.00 64.00 Z"/>
</g>
<g fill="#5B8E9E" fill-opacity="0.66" stroke="None">
<path d="
M 45.00 40.00 
C 45.30 40.97 48.01 42.14 46.00 44.00
C 51.69 43.30 55.78 43.15 61.00 41.00
C 60.56 41.18 65.52 40.26 62.00 39.00
C 59.59 38.14 56.35 40.83 54.00 41.00
C 52.01 42.56 52.16 41.00 54.00 40.00
C 55.02 39.24 51.85 40.04 52.00 40.00
C 49.23 40.79 48.97 41.31 47.00 39.00
C 46.20 38.06 45.98 35.73 47.00 35.00
C 48.55 33.90 49.36 35.18 50.00 35.00
C 51.25 34.65 49.72 32.92 51.00 32.00
C 45.03 29.95 43.65 35.67 45.00 40.00 Z"/>
</g>
<g fill="#5C8A9D" fill-opacity="0.53" stroke="None">
<path d="
M 50.00 35.00 
C 49.08 35.25 47.90 34.70 47.00 35.00
C 45.98 35.73 46.20 38.06 47.00 39.00
C 49.94 35.96 49.38 39.29 52.00 40.00
C 51.85 40.04 55.02 39.24 54.00 40.00
C 56.45 36.89 54.29 33.13 51.00 32.00
C 49.72 32.92 51.25 34.65 50.00 35.00 Z"/>
</g>
<g fill="#000000" fill-opacity="0.00" stroke="None">
<path d="
M 47.00 35.00 
C 47.90 34.70 49.08 35.25 50.00 35.00
C 49.36 35.18 48.55 33.90 47.00 35.00 Z"/>
</g>
<g fill="#000000" fill-opacity="0.00" stroke="None">
<path d="
M 47.00 39.00 
C 48.97 41.31 49.23 40.79 52.00 40.00
C 49.38 39.29 49.94 35.96 47.00 39.00 Z"/>
</g>
<g fill="#527B89" fill-opacity="0.50" stroke="None">
<path d="
M 38.00 44.00 
C 37.99 43.97 38.73 43.19 39.00 43.00
C 41.26 41.37 41.73 43.59 42.00 44.00
C 42.72 44.42 42.72 45.20 44.00 45.00
C 44.26 44.96 45.24 44.09 46.00 44.00
C 48.01 42.14 45.30 40.97 45.00 40.00
C 44.61 39.76 39.07 39.27 37.09 39.08 C 35.10 38.90 33.88 44.13 38.00 44.00 Z"/>
</g>
<g fill="#59889A" fill-opacity="0.45" stroke="None">
<path d="
M 61.00 41.00 
C 59.15 42.21 56.71 43.53 55.00 45.00
C 55.71 46.35 54.58 47.49 54.00 45.00
C 49.95 46.21 52.00 61.36 52.00 65.00
C 52.00 65.50 52.00 66.00 52.00 66.00
C 52.50 66.00 53.50 66.00 54.00 66.00
C 54.00 66.00 54.50 66.00 55.00 66.00
C 55.33 62.38 54.36 49.97 55.25 47.25 C 56.15 44.54 69.87 41.93 62.00 39.00
C 65.52 40.26 60.56 41.18 61.00 41.00 Z"/>
</g>
<g fill="#5A8291" fill-opacity="0.23" stroke="None">
<path d="
M 54.00 41.00 
C 54.00 41.00 53.76 40.31 54.00 40.00
C 52.16 41.00 52.01 42.56 54.00 41.00 Z"/>
</g>
<g fill="#000000" fill-opacity="0.00" stroke="None">
<path d="
M 46.00 44.00 
C 45.24 44.09 44.26 44.96 44.00 45.00
C 47.98 46.56 46.00 60.47 46.00 65.00
C 46.56 64.17 46.60 64.10 47.00 63.00
C 47.93 60.44 48.33 57.88 48.00 55.00
C 54.00 54.13 48.82 62.85 52.00 65.00
C 52.00 61.36 49.95 46.21 54.00 45.00
C 54.46 44.86 55.00 45.00 55.00 45.00
C 56.71 43.53 59.15 42.21 61.00 41.00
C 55.78 43.15 51.69 43.30 46.00 44.00 Z"/>
</g>
<g fill="#000000" fill-opacity="0.00" stroke="None">
<path d="
M 39.00 43.00 
C 39.81 42.64 41.35 43.62 42.00 44.00
C 41.73 43.59 41.26 41.37 39.00 43.00 Z"/>
</g>
<g fill="#52879B" fill-opacity="0.64" stroke="None">
<path d="
M 38.00 44.00 
C 39.16 47.11 45.35 46.45 44.00 52.00 C 42.65 57.55 43.53 60.81 44.00 66.00
C 44.00 66.00 44.50 66.00 45.00 66.00
C 45.50 66.00 46.00 66.00 46.00 66.00
C 46.25 65.75 46.00 65.00 46.00 65.00
C 46.00 60.47 47.98 46.56 44.00 45.00
C 42.72 45.20 42.72 44.42 42.00 44.00
C 41.35 43.62 39.81 42.64 39.00 43.00
C 38.73 43.19 37.99 43.97 38.00 44.00 Z"/>
</g>
<g fill="#008080" fill-opacity="0.01" stroke="None">
<path d="
M 82.00 60.00 
C 82.13 59.78 83.00 60.00 83.00 60.00
C 83.33 54.29 82.33 47.99 82.00 43.00
C 81.81 48.65 82.00 54.34 82.00 60.00 Z"/>
</g>
<g fill="#4A7A8B" fill-opacity="0.53" stroke="None">
<path d="
M 25.00 54.00 
C 24.23 53.64 29.77 54.99 30.00 55.00
C 31.24 55.07 32.45 52.82 34.00 55.00
C 35.30 56.83 33.16 60.80 33.00 62.00
C 33.00 62.54 32.64 65.71 33.00 66.00
C 34.00 66.00 35.00 66.00 36.00 66.00
C 36.00 62.33 36.00 58.67 36.00 55.00
C 42.62 57.22 42.72 46.42 37.00 51.00
C 37.58 52.89 34.73 53.72 36.00 51.00
C 38.20 43.43 25.79 43.46 28.00 51.00
C 23.60 49.18 20.42 51.13 25.00 54.00
M 34.00 49.00 
C 32.48 52.88 29.70 48.93 34.00 49.00 Z"/>
</g>
<g fill="#5B8FA1" fill-opacity="0.79" stroke="None">
<path d="
M 55.00 45.00 
C 55.00 45.00 54.46 44.86 54.00 45.00
C 54.58 47.49 55.71 46.35 55.00 45.00 Z"/>
</g>
<g fill="#000000" fill-opacity="0.00" stroke="None">
<path d="
M 34.00 49.00 
C 29.70 48.93 32.48 52.88 34.00 49.00 Z"/>
</g>
<g fill="#48808F" fill-opacity="0.72" stroke="None">
<path d="
M 37.00 51.00 
C 37.00 51.00 36.00 50.99 36.00 51.00
C 34.73 53.72 37.58 52.89 37.00 51.00 Z"/>
</g>
<g fill="#46798B" fill-opacity="0.70" stroke="None">
<path d="
M 25.00 54.00 
C 25.88 54.55 27.33 55.20 28.00 56.00
C 29.72 58.04 29.26 63.15 29.00 66.00
C 30.33 66.00 31.67 66.00 33.00 66.00
C 32.64 65.71 33.00 62.54 33.00 62.00
C 33.00 61.50 33.03 60.50 33.00 60.00
C 30.81 60.65 31.53 61.52 30.00 63.00
C 30.00 60.33 30.00 57.67 30.00 55.00
C 29.77 54.99 24.23 53.64 25.00 54.00 Z"/>
</g>
<g fill="#000000" fill-opacity="0.00" stroke="None">
<path d="
M 30.00 55.00 
C 30.00 57.67 30.00 60.33 30.00 63.00
C 31.53 61.52 30.81 60.65 33.00 60.00
C 32.92 58.45 32.39 55.76 34.00 55.00
C 32.45 52.82 31.24 55.07 30.00 55.00 Z"/>
</g>
<g fill="#48525D" fill-opacity="0.05" stroke="None">
<path d="
M 77.00 57.00 
C 76.89 55.74 76.16 54.73 76.00 54.00
C 76.11 55.26 76.84 56.27 77.00 57.00 Z"/>
</g>
<g fill="#567E90" fill-opacity="0.12" stroke="None">
<path d="
M 33.00 60.00 
C 33.03 60.50 33.00 61.50 33.00 62.00
C 33.16 60.80 35.30 56.83 34.00 55.00
C 32.39 55.76 32.92 58.45 33.00 60.00 Z"/>
</g>
<g fill="#528A9D" fill-opacity="0.65" stroke="None">
<path d="
M 47.00 63.00 
C 47.00 63.02 47.87 65.58 48.00 66.00
C 48.50 66.00 49.00 66.00 49.00 66.00
C 49.00 66.00 49.50 66.00 50.00 66.00
C 50.50 66.00 51.50 66.00 52.00 66.00
C 52.00 66.00 52.00 65.50 52.00 65.00
C 48.82 62.85 54.00 54.13 48.00 55.00
C 48.33 57.88 47.93 60.44 47.00 63.00 Z"/>
</g>
<g fill="#4A8094" fill-opacity="0.36" stroke="None">
<path d="
M 28.00 66.00 
C 28.00 66.00 28.50 66.00 29.00 66.00
C 29.26 63.15 29.72 58.04 28.00 56.00
C 29.19 58.12 27.78 63.52 28.00 66.00 Z"/>
</g>
<g fill="#5B7076" fill-opacity="0.05" stroke="None">
<path d="
M 71.00 61.00 
C 71.32 60.00 71.87 59.53 72.00 58.00
C 71.85 58.67 71.19 59.86 71.00 61.00 Z"/>
</g>
<g fill="#0F151A" fill-opacity="0.42" stroke="None">
<path d="
M 74.00 66.00 
C 75.23 63.80 75.81 59.83 74.00 58.00
C 73.61 60.45 71.70 64.04 74.00 66.00 Z"/>
</g>
<g fill="#225160" fill-opacity="0.01" stroke="None">
<path d="
M 82.00 64.00 
C 83.30 62.73 82.89 61.87 83.00 60.00
C 83.00 60.00 82.13 59.78 82.00 60.00
C 82.00 61.33 82.00 62.67 82.00 64.00 Z"/>
</g>
<g fill="#6499B4" fill-opacity="0.11" stroke="None">
<path d="
M 46.00 65.00 
C 46.00 65.00 46.25 65.75 46.00 66.00
C 46.50 66.00 47.50 66.00 48.00 66.00
C 47.87 65.58 47.00 63.02 47.00 63.00
C 46.60 64.10 46.56 64.17 46.00 65.00 Z"/>
</g>
<g fill="#091D21" fill-opacity="0.51" stroke="None">
<path d="
M 6.00 66.00 
C -0.66 65.13 4.43 71.64 6.00 66.00 Z"/>
</g>
<g fill="#172930" fill-opacity="0.96" stroke="None">
<path d="
M 49.00 66.00 
C 49.00 66.00 48.50 66.00 48.00 66.00
C 47.50 66.00 46.50 66.00 46.00 66.00
C 46.00 66.00 45.50 66.00 45.00 66.00
C 46.34 67.30 47.64 67.32 49.00 66.00 Z"/>
</g>
<g fill="#18272E" fill-opacity="0.95" stroke="None">
<path d="
M 54.00 66.00 
C 53.50 66.00 52.50 66.00 52.00 66.00
C 51.50 66.00 50.50 66.00 50.00 66.00
C 51.34 67.30 52.64 67.32 54.00 66.00 Z"/>
</g>
<g fill="#050C0F" fill-opacity="0.53" stroke="None">
<path d="
M 96.00 67.00 
C 90.21 64.05 90.99 69.34 96.00 67.00 Z"/>
</g>
</svg>