<?xml version="1.0" encoding="UTF-8" standalone="no" ?>
<!DOCTYPE svg PUBLIC "-//W3C//DTD SVG 1.1//EN" "http://www.w3.org/Graphics/SVG/1.1/DTD/svg11.dtd">
<svg xmlns="http://www.w3.org/2000/svg" xmlns:xlink="http://www.w3.org/1999/xlink" version="1.1" width="70" height="100" viewBox="0 0 70 100" xml:space="preserve">
<desc>Created with Fabric.js 3.6.6</desc>
<defs>
</defs>
<g transform="matrix(0.57 0 0 0.44 37.93 50.57)"  >
<g style=""   >
		<g transform="matrix(3.16 0 0 2.2 -6.61 35.88)"  >
<path style="stroke: none; stroke-width: 0.04; stroke-dasharray: none; stroke-linecap: butt; stroke-dashoffset: 0; stroke-linejoin: miter; stroke-miterlimit: 4; fill: rgb(255,203,5); fill-rule: evenodd; opacity: 1;"  transform=" translate(-51.39, -62.16)" d="m 51.390172 32.63024 c 9.679436 0 17.526369 11.844575 17.526369 26.456099 c 0 13.832572 -7.033063 25.183873 -15.995514 26.354617 l -0.703221 2.869249 l -0.827634 3.377497 l -0.827769 -3.377497 l -0.703087 -2.869249 C 40.896452 84.270212 33.863382 72.918911 33.863382 59.086339 c 0 -14.611524 7.846941 -26.456099 17.52679 -26.456099" stroke-linecap="round" />
</g>
		<g transform="matrix(3.16 0 0 2.2 -6.61 39.45)"  >
<path style="stroke: none; stroke-width: 0.04; stroke-dasharray: none; stroke-linecap: butt; stroke-dashoffset: 0; stroke-linejoin: miter; stroke-miterlimit: 4; fill: rgb(0,0,0); fill-rule: nonzero; opacity: 1;"  transform=" translate(-51.39, -63.77)" d="m 51.390172 31.504423 c 5.189733 0 9.86417 3.139317 13.226556 8.214991 c 3.293835 4.971549 5.331096 11.820278 5.331096 19.366925 c 0 7.110594 -1.808869 13.600646 -4.773144 18.484327 c -2.897961 4.774846 -6.905597 8.029196 -11.43422 8.876346 l -2.350288 9.589567 l -2.350424 -9.589567 c -4.528626 -0.84715 -8.536123 -4.1015 -11.434646 -8.876346 c -2.963851 -4.883681 -4.772577 -11.373733 -4.772577 -18.484327 c 0 -7.546647 2.037248 -14.395376 5.330543 -19.366925 c 3.362796 -5.075674 8.037372 -8.214991 13.227104 -8.214991 z m 11.559476 9.534178 c -2.980954 -4.499644 -7.069772 -7.282685 -11.559476 -7.282685 c -4.490121 0 -8.578935 2.783041 -11.559469 7.282685 c -3.050035 4.603627 -4.936045 10.983316 -4.936045 18.047738 c 0 6.662518 1.677504 12.715091 4.426457 17.244358 c 2.716146 4.475672 6.472184 7.446503 10.658717 7.993557 l 0.693634 0.09044 l 0.716706 2.92409 l 0.716706 -2.92409 l 0.693076 -0.09044 c 4.186956 -0.547054 7.942714 -3.517885 10.659272 -7.993557 c 2.74895 -4.529267 4.426329 -10.58184 4.426329 -17.244358 c 0 -7.064422 -1.886305 -13.444111 -4.935907 -18.047738" stroke-linecap="round" />
</g>
		<g transform="matrix(3.16 0 0 2.2 -6.61 -39.56)"  >
<path style="stroke: rgb(167,167,167); stroke-opacity: 0.68; stroke-width: 0.04; stroke-dasharray: none; stroke-linecap: butt; stroke-dashoffset: 0; stroke-linejoin: miter; stroke-miterlimit: 4; fill: rgb(255,215,0); fill-rule: evenodd; opacity: 1;"  transform=" translate(-51.39, -27.94)" d="m 51.390172 13.866781 c 7.117304 0 12.887104 6.30047 12.887104 14.072369 c 0 7.772091 -5.7698 14.072561 -12.887104 14.072561 c -7.117443 0 -12.88724 -6.30047 -12.88724 -14.072561 c 0 -7.771899 5.769797 -14.072369 12.88724 -14.072369" stroke-linecap="round" />
</g>
		<g transform="matrix(3.16 0 0 2.2 -6.59 -39.57)"  >
<path style="stroke: none; stroke-width: 0.04; stroke-dasharray: none; stroke-linecap: butt; stroke-dashoffset: 0; stroke-linejoin: miter; stroke-miterlimit: 4; fill: rgb(0,0,0); fill-rule: nonzero; opacity: 1;"  transform=" translate(-51.39, -27.94)" d="m 51.390172 13.84933 c 3.563099 0 6.788839 1.576758 9.123974 4.126678 c 2.335135 2.549909 3.77911 6.072382 3.77911 9.963142 c 0 3.890861 -1.443975 7.413425 -3.77911 9.963335 c -2.335135 2.549726 -5.560875 4.127001 -9.123974 4.127001 c -3.563238 0 -6.788975 -1.577275 -9.124108 -4.127001 c -2.335 -2.54991 -3.779393 -6.072474 -3.779393 -9.963335 c 0 -3.89076 1.444393 -7.413233 3.779393 -9.963142 c 2.335133 -2.54992 5.56087 -4.126678 9.124108 -4.126678 z m 9.100898 4.151896 c -2.329157 -2.54371 -5.546693 -4.116539 -9.100898 -4.116539 c -3.554341 0 -6.77188 1.572829 -9.101316 4.116539 c -2.329017 2.543204 -3.769518 6.056835 -3.769518 9.937924 c 0 3.881149 1.440501 7.394729 3.769518 9.93844 c 2.329436 2.543246 5.546975 4.116216 9.101316 4.116216 c 3.554205 0 6.771741 -1.57297 9.100898 -4.116216 c 2.329301 -2.543711 3.769794 -6.057291 3.769794 -9.93844 c 0 -3.881089 -1.440493 -7.39472 -3.769794 -9.937924" stroke-linecap="round" />
</g>
		<g transform="matrix(3.16 0 0 2.2 -6.59 0.11)"  >
<path style="stroke: none; stroke-width: 0.04; stroke-dasharray: none; stroke-linecap: butt; stroke-dashoffset: 0; stroke-linejoin: miter; stroke-miterlimit: 4; fill: rgb(0,0,0); fill-rule: nonzero; opacity: 1;"  transform=" translate(-51.39, -45.93)" d="m 66.84468 46.599701 c -4.575049 2.344729 -9.848458 3.682897 -15.454508 3.682897 c -5.60619 0 -10.879459 -1.338168 -15.45465 -3.682897 c 0.643729 -1.811278 1.422987 -3.495401 2.317343 -5.023292 c 3.876552 1.959589 8.356807 3.077213 13.137307 3.077213 c 4.780501 0 9.260616 -1.117624 13.137308 -3.077213 c 0.894217 1.527891 1.673467 3.212014 2.3172 5.023292" stroke-linecap="round" />
</g>
		<g transform="matrix(3.16 0 0 2.2 -6.61 29.23)"  >
<path style="stroke: none; stroke-width: 0.04; stroke-dasharray: none; stroke-linecap: butt; stroke-dashoffset: 0; stroke-linejoin: miter; stroke-miterlimit: 4; fill: rgb(0,0,0); fill-rule: nonzero; opacity: 1;"  transform=" translate(-51.39, -59.14)" d="m 68.90765 59.893738 c -5.021392 3.054628 -11.047795 4.836759 -17.517478 4.836759 c -6.469822 0 -12.496082 -1.782131 -17.517892 -4.836759 c -0.0053 -0.268529 -0.0089 -0.537342 -0.0089 -0.807399 c 0 -1.901011 0.13414 -3.754491 0.386433 -5.541938 c 4.637186 3.47078 10.608679 5.556694 17.140358 5.556694 c 6.531538 0 12.503171 -2.085914 17.140207 -5.556694 c 0.2523 1.787447 0.386156 3.640927 0.386156 5.541938 c 0 0.270057 -0.0035 0.53887 -0.0089 0.807399" stroke-linecap="round" />
</g>
		<g transform="matrix(3.16 0 0 2.2 -6.6 61.69)"  >
<path style="stroke: none; stroke-width: 0.04; stroke-dasharray: none; stroke-linecap: butt; stroke-dashoffset: 0; stroke-linejoin: miter; stroke-miterlimit: 4; fill: rgb(0,0,0); fill-rule: nonzero; opacity: 1;"  transform=" translate(-51.39, -73.86)" d="m 64.54736 76.562341 c -4.010418 1.679079 -8.467178 2.615446 -13.157188 2.615446 c -4.690149 0 -9.146909 -0.936367 -13.157323 -2.615446 c -1.366137 -2.341671 -2.461353 -5.050354 -3.21434 -8.016 c 4.520007 3.137322 10.19514 5.00251 16.371663 5.00251 c 6.176522 0 11.851513 -1.865188 16.371667 -5.00251 c -0.752986 2.965646 -1.84876 5.674329 -3.214479 8.016" stroke-linecap="round" />
</g>
		<g transform="matrix(3.16 0 0 2.2 25.83 -77.89)"  >
<path style="stroke: none; stroke-width: 0.04; stroke-dasharray: none; stroke-linecap: butt; stroke-dashoffset: 0; stroke-linejoin: miter; stroke-miterlimit: 4; fill: rgb(0,0,0); fill-rule: nonzero; opacity: 1;"  transform=" translate(-61.67, -10.56)" d="m 56.771313 17.030982 c 0 0.621746 -0.461496 1.125675 -1.030857 1.125675 c -0.569365 0 -1.030998 -0.503929 -1.030998 -1.125675 c 0 -3.886274 1.442729 -7.403973 3.774528 -9.9508796 c 2.332354 -2.5467209 5.554207 -4.1219539 9.112705 -4.1219539 c 0.569369 0 1.030865 0.5043934 1.030865 1.1261386 c 0 0.6216986 -0.461496 1.1256281 -1.030865 1.1256281 c -2.989559 0 -5.695839 1.3231751 -7.654688 3.462357 c -1.958991 2.1386718 -3.17069 5.0941828 -3.17069 8.3587098" stroke-linecap="round" />
</g>
		<g transform="matrix(3.16 0 0 2.2 -39.04 -77.89)"  >
<path style="stroke: none; stroke-width: 0.04; stroke-dasharray: none; stroke-linecap: butt; stroke-dashoffset: 0; stroke-linejoin: miter; stroke-miterlimit: 4; fill: rgb(0,0,0); fill-rule: nonzero; opacity: 1;"  transform=" translate(-41.11, -10.56)" d="m 48.070746 17.030982 c 0 0.621746 -0.461493 1.125675 -1.030857 1.125675 c -0.569361 0 -1.031273 -0.503929 -1.031273 -1.125675 c 0 -3.264527 -1.211284 -6.219575 -3.170271 -8.3587098 c -1.958991 -2.1391819 -4.665268 -3.462357 -7.654698 -3.462357 c -0.569362 0 -1.030997 -0.5039295 -1.030997 -1.1256281 c 0 -0.6217452 0.461635 -1.1261386 1.030997 -1.1261386 c 3.558511 0 6.780358 1.575233 9.112576 4.1219539 c 2.331935 2.5469066 3.774523 6.0646056 3.774523 9.9508796" stroke-linecap="round" />
</g>
		<g transform="matrix(0.77 -0.01 0.01 0.72 24.95 -72.69)"  >
<path style="stroke: rgb(0,0,0); stroke-width: 0; stroke-dasharray: none; stroke-linecap: butt; stroke-dashoffset: 0; stroke-linejoin: miter; stroke-miterlimit: 10; fill: rgb(255,0,36); fill-rule: evenodd; opacity: 1;" vector-effect="non-scaling-stroke"  transform=" translate(-51.48, -51.48)" d="m 0 102.96063 l 0 -57.915356 l 0 0 c 0 -24.87782 20.167458 -45.045277 45.045277 -45.045277 l 0 0 l 0 0 c 11.946751 0 23.404194 4.7458277 31.851818 13.193456 c 8.447632 8.447627 13.193459 19.905071 13.193459 31.851822 l 0 6.4350395 l 12.870079 0 l -25.740158 25.740158 l -25.740158 -25.740158 l 12.870079 0 l 0 -6.4350395 c 0 -10.661922 -8.643196 -19.305119 -19.305119 -19.305119 l 0 0 l 0 0 c -10.661922 0 -19.305119 8.643196 -19.305119 19.305119 l 0 57.915356 z" stroke-linecap="round" />
</g>
</g>
</g>
</svg>