<svg xmlns="http://www.w3.org/2000/svg" xmlns:v="https://svgstorm.com"
viewBox = "0 0 100 99"
width="100"
height="99">
<g fill="#000000" fill-opacity="0.00" stroke="None">
<path d="
M 0.00 99.00 
L 100.00 99.00
L 100.00 0.00
L 0.00 0.00
L 0.00 99.00
M 63.00 3.00 
C 63.50 3.00 64.00 3.00 64.00 3.00
C 72.72 3.00 85.70 0.52 94.00 3.00
C 95.39 3.42 97.60 5.66 98.00 7.00
C 100.16 14.21 98.06 25.39 98.00 33.00 C 97.94 40.61 100.33 51.70 98.00 59.00 C 95.67 66.30 92.35 49.10 94.00 43.00 C 95.65 36.90 92.76 23.74 94.00 17.00
C 80.95 24.32 68.16 31.89 55.00 39.00
C 46.41 43.25 38.76 34.15 30.75 30.25 C 22.75 26.35 14.88 21.39 7.00 17.00
C 8.32 34.35 4.35 54.24 9.00 70.00
C 11.49 71.23 21.20 70.67 24.00 70.00 C 26.80 69.33 37.22 72.30 31.00 75.00
C 25.06 77.58 14.95 75.20 8.00 75.00 C 1.05 74.80 1.40 63.01 2.00 57.00 C 2.60 50.99 1.21 39.86 2.00 33.00 C 2.79 26.14 0.49 15.94 2.00 9.00
C 2.42 7.06 2.79 7.28 4.00 6.00
C 6.10 3.77 6.09 3.88 9.00 3.00
C 15.82 0.93 28.51 1.20 36.00 2.00 C 43.49 2.80 57.31 -1.21 63.00 3.00
M 54.00 94.00 
C 53.13 93.24 51.39 92.65 52.00 91.00
C 51.21 89.27 52.71 88.03 53.00 87.00
C 53.29 82.49 56.81 78.31 57.00 74.00
C 57.08 72.21 56.47 70.68 56.00 69.00
C 55.04 65.59 53.79 62.47 53.00 59.00
C 52.44 56.56 51.74 55.53 53.00 53.00
C 53.41 51.59 54.89 50.66 56.00 50.00
C 57.07 49.37 57.39 48.94 59.00 49.00
C 65.35 48.36 75.43 58.35 81.23 59.77 C 87.03 61.19 102.67 68.60 98.67 75.67 C 94.67 82.74 83.71 83.91 77.77 87.77 C 71.83 91.64 59.71 98.99 54.00 94.00
M 50.00 60.00 
C 51.46 61.52 50.98 63.08 49.00 64.00
C 47.88 64.52 42.15 64.47 41.00 64.00
C 39.73 63.48 38.78 62.48 39.00 61.00
C 39.50 57.63 48.58 58.52 50.00 60.00
M 51.00 72.00 
C 51.44 74.34 50.72 74.35 49.00 75.00
C 46.24 76.04 39.98 75.27 37.00 75.00
C 34.86 74.52 34.54 72.16 36.00 71.00
C 36.16 70.77 37.00 71.00 37.00 71.00
C 38.87 69.62 50.31 68.33 51.00 72.00
M 51.00 83.00 
C 51.57 84.16 50.72 86.73 49.00 86.00
C 47.08 86.17 42.75 86.72 41.00 86.00
C 39.76 85.49 38.74 84.47 39.00 83.00
C 39.53 80.00 50.31 79.76 51.00 83.00 Z"/>
</g>
<g fill="#FDFDFD" fill-opacity="0.07" stroke="None">
<path d="
M 9.00 3.00 
C 25.90 0.14 45.83 3.00 63.00 3.00
C 57.31 -1.21 43.49 2.80 36.00 2.00 C 28.51 1.20 15.82 0.93 9.00 3.00 Z"/>
</g>
<g fill="#B0B0B0" fill-opacity="0.78" stroke="None">
<path d="
M 4.00 6.00 
C 3.55 6.65 2.15 8.54 2.00 9.00
C 0.49 15.94 2.79 26.14 2.00 33.00 C 1.21 39.86 2.60 50.99 2.00 57.00 C 1.40 63.01 1.05 74.80 8.00 75.00 C 14.95 75.20 25.06 77.58 31.00 75.00
C 35.42 72.21 25.72 70.23 23.00 71.00 C 20.28 71.77 11.14 71.54 9.00 70.00
C 4.35 54.24 8.32 34.35 7.00 17.00
C 14.88 21.39 22.75 26.35 30.75 30.25 C 38.76 34.15 46.41 43.25 55.00 39.00
C 52.54 39.45 48.06 39.70 47.00 37.00
C 50.24 38.89 55.65 37.21 56.00 33.00
C 46.68 38.14 40.44 29.33 31.77 25.23 C 23.10 21.13 15.79 15.53 7.00 12.00
C 6.24 9.81 8.30 8.68 9.00 7.00
C 13.81 3.43 22.83 7.10 29.00 6.00 C 35.17 4.90 43.62 6.83 50.00 6.00
C 47.90 3.92 43.85 5.50 41.00 5.00
C 47.59 2.05 57.48 5.96 64.00 3.00
C 64.00 3.00 63.50 3.00 63.00 3.00
C 45.83 3.00 25.90 0.14 9.00 3.00
C 6.09 3.88 6.10 3.77 4.00 6.00 Z"/>
</g>
<g fill="#898989" fill-opacity="0.82" stroke="None">
<path d="
M 9.00 7.00 
C 14.80 4.09 24.35 8.18 31.00 7.00 C 37.65 5.82 47.14 7.39 54.00 7.00 C 60.86 6.61 69.38 6.78 76.00 7.00 C 82.62 7.22 92.54 4.10 94.00 12.00
C 80.92 17.94 68.83 26.31 56.00 33.00
C 55.65 37.21 50.24 38.89 47.00 37.00
C 48.06 39.70 52.54 39.45 55.00 39.00
C 68.16 31.89 80.95 24.32 94.00 17.00
C 92.76 23.74 95.65 36.90 94.00 43.00 C 92.35 49.10 95.67 66.30 98.00 59.00 C 100.33 51.70 97.94 40.61 98.00 33.00 C 98.06 25.39 100.16 14.21 98.00 7.00
C 97.99 6.97 93.94 2.98 94.00 3.00
C 85.70 0.52 72.72 3.00 64.00 3.00
C 57.48 5.96 47.59 2.05 41.00 5.00
C 43.85 5.50 47.90 3.92 50.00 6.00
C 43.62 6.83 35.17 4.90 29.00 6.00 C 22.83 7.10 13.81 3.43 9.00 7.00 Z"/>
</g>
<g fill="#C5C5C5" fill-opacity="0.17" stroke="None">
<path d="
M 98.00 7.00 
C 97.60 5.66 95.39 3.42 94.00 3.00
C 93.94 2.98 97.99 6.97 98.00 7.00 Z"/>
</g>
<g fill="#E5E5E5" fill-opacity="0.08" stroke="None">
<path d="
M 2.00 9.00 
C 2.15 8.54 3.55 6.65 4.00 6.00
C 2.79 7.28 2.42 7.06 2.00 9.00 Z"/>
</g>
<g fill="#000000" fill-opacity="0.00" stroke="None">
<path d="
M 56.00 33.00 
C 68.83 26.31 80.92 17.94 94.00 12.00
C 92.54 4.10 82.62 7.22 76.00 7.00 C 69.38 6.78 60.86 6.61 54.00 7.00 C 47.14 7.39 37.65 5.82 31.00 7.00 C 24.35 8.18 14.80 4.09 9.00 7.00
C 8.30 8.68 6.24 9.81 7.00 12.00
C 15.79 15.53 23.10 21.13 31.77 25.23 C 40.44 29.33 46.68 38.14 56.00 33.00 Z"/>
</g>
<g fill="#DBDBDB" fill-opacity="0.25" stroke="None">
<path d="
M 56.00 50.00 
C 56.23 49.91 59.11 48.99 59.00 49.00
C 57.39 48.94 57.07 49.37 56.00 50.00 Z"/>
</g>
<g fill="#969696" fill-opacity="0.77" stroke="None">
<path d="
M 56.00 50.00 
C 54.89 50.66 53.41 51.59 53.00 53.00
C 52.56 54.53 52.83 57.41 53.00 59.00
C 53.79 62.47 55.04 65.59 56.00 69.00
C 57.02 71.67 57.57 71.25 57.00 74.00
C 56.81 78.31 53.29 82.49 53.00 87.00
C 52.92 88.25 52.84 89.76 53.00 91.00
C 53.14 92.09 53.38 93.06 54.00 94.00
C 59.71 98.99 71.83 91.64 77.77 87.77 C 83.71 83.91 94.67 82.74 98.67 75.67 C 102.67 68.60 87.03 61.19 81.23 59.77 C 75.43 58.35 65.35 48.36 59.00 49.00
C 59.11 48.99 56.23 49.91 56.00 50.00
M 61.00 76.00 
C 63.27 72.85 71.41 73.58 76.00 74.00
C 76.25 73.63 76.75 72.31 77.00 72.00
C 73.07 69.09 64.32 73.52 61.00 70.00
C 58.91 67.78 55.10 51.70 61.08 54.93 C 67.05 58.16 72.48 60.57 78.23 63.77 C 83.98 66.97 90.39 68.47 95.00 73.00
C 83.06 80.11 70.30 85.54 58.00 92.00
C 55.58 86.70 61.22 81.57 61.00 76.00 Z"/>
</g>
<g fill="#CFCFCF" fill-opacity="0.19" stroke="None">
<path d="
M 53.00 59.00 
C 52.83 57.41 52.56 54.53 53.00 53.00
C 51.74 55.53 52.44 56.56 53.00 59.00 Z"/>
</g>
<g fill="#000000" fill-opacity="0.00" stroke="None">
<path d="
M 61.00 70.00 
C 64.31 71.54 76.95 67.07 78.00 72.00
C 78.32 72.85 77.15 75.25 76.00 75.00
C 72.22 75.34 63.88 73.20 61.00 76.00
C 61.22 81.57 55.58 86.70 58.00 92.00
C 70.30 85.54 83.06 80.11 95.00 73.00
C 90.39 68.47 83.98 66.97 78.23 63.77 C 72.48 60.57 67.05 58.16 61.08 54.93 C 55.10 51.70 58.91 67.78 61.00 70.00 Z"/>
</g>
<g fill="#C5C5C5" fill-opacity="0.22" stroke="None">
<path d="
M 39.00 61.00 
C 39.51 59.56 48.93 59.28 50.00 60.00
C 48.58 58.52 39.50 57.63 39.00 61.00 Z"/>
</g>
<g fill="#9D9D9D" fill-opacity="0.86" stroke="None">
<path d="
M 39.00 61.00 
C 38.78 62.48 39.73 63.48 41.00 64.00
C 39.93 63.66 50.24 63.53 49.00 64.00
C 50.98 63.08 51.46 61.52 50.00 60.00
C 48.93 59.28 39.51 59.56 39.00 61.00 Z"/>
</g>
<g fill="#B6B6B6" fill-opacity="0.57" stroke="None">
<path d="
M 41.00 64.00 
C 42.15 64.47 47.88 64.52 49.00 64.00
C 50.24 63.53 39.93 63.66 41.00 64.00 Z"/>
</g>
<g fill="#CCCCCC" fill-opacity="0.23" stroke="None">
<path d="
M 57.00 74.00 
C 57.57 71.25 57.02 71.67 56.00 69.00
C 56.47 70.68 57.08 72.21 57.00 74.00 Z"/>
</g>
<g fill="#C8C8C8" fill-opacity="0.17" stroke="None">
<path d="
M 31.00 75.00 
C 37.22 72.30 26.80 69.33 24.00 70.00 C 21.20 70.67 11.49 71.23 9.00 70.00
C 11.14 71.54 20.28 71.77 23.00 71.00 C 25.72 70.23 35.42 72.21 31.00 75.00 Z"/>
</g>
<g fill="#C2C2C2" fill-opacity="0.17" stroke="None">
<path d="
M 37.00 71.00 
C 39.14 71.00 50.10 69.70 51.00 72.00
C 50.31 68.33 38.87 69.62 37.00 71.00 Z"/>
</g>
<g fill="#B9B9B9" fill-opacity="0.18" stroke="None">
<path d="
M 77.00 72.00 
C 77.32 72.24 78.00 72.00 78.00 72.00
C 76.95 67.07 64.31 71.54 61.00 70.00
C 64.32 73.52 73.07 69.09 77.00 72.00 Z"/>
</g>
<g fill="#D3D3D3" fill-opacity="0.10" stroke="None">
<path d="
M 37.00 75.00 
C 36.96 75.00 37.00 74.00 37.00 74.00
C 36.50 73.46 35.30 72.04 36.00 71.00
C 34.54 72.16 34.86 74.52 37.00 75.00 Z"/>
</g>
<g fill="#9C9C9C" fill-opacity="0.92" stroke="None">
<path d="
M 37.00 74.00 
C 40.06 73.72 47.17 75.52 49.00 75.00
C 50.72 74.35 51.44 74.34 51.00 72.00
C 50.10 69.70 39.14 71.00 37.00 71.00
C 37.00 71.00 36.16 70.77 36.00 71.00
C 35.30 72.04 36.50 73.46 37.00 74.00 Z"/>
</g>
<g fill="#989898" fill-opacity="0.38" stroke="None">
<path d="
M 76.00 74.00 
C 75.77 74.35 76.00 75.00 76.00 75.00
C 77.15 75.25 78.32 72.85 78.00 72.00
C 78.00 72.00 77.32 72.24 77.00 72.00
C 76.75 72.31 76.25 73.63 76.00 74.00 Z"/>
</g>
<g fill="#B3B3B3" fill-opacity="0.66" stroke="None">
<path d="
M 37.00 75.00 
C 39.98 75.27 46.24 76.04 49.00 75.00
C 47.17 75.52 40.06 73.72 37.00 74.00
C 37.00 74.00 36.96 75.00 37.00 75.00 Z"/>
</g>
<g fill="#ADADAD" fill-opacity="0.63" stroke="None">
<path d="
M 61.00 76.00 
C 63.88 73.20 72.22 75.34 76.00 75.00
C 76.00 75.00 75.77 74.35 76.00 74.00
C 71.41 73.58 63.27 72.85 61.00 76.00 Z"/>
</g>
<g fill="#C9C9C9" fill-opacity="0.15" stroke="None">
<path d="
M 39.00 83.00 
C 39.86 80.76 48.85 82.15 50.00 83.00
C 50.32 83.24 51.00 83.00 51.00 83.00
C 50.31 79.76 39.53 80.00 39.00 83.00 Z"/>
</g>
<g fill="#9A9A9A" fill-opacity="0.92" stroke="None">
<path d="
M 39.00 83.00 
C 38.74 84.47 39.76 85.49 41.00 86.00
C 41.66 86.21 47.22 84.84 49.00 85.00
C 49.25 84.63 49.75 83.31 50.00 83.00
C 48.85 82.15 39.86 80.76 39.00 83.00 Z"/>
</g>
<g fill="#B3B3B3" fill-opacity="0.32" stroke="None">
<path d="
M 49.00 85.00 
C 48.77 85.35 49.00 86.00 49.00 86.00
C 50.72 86.73 51.57 84.16 51.00 83.00
C 51.00 83.00 50.32 83.24 50.00 83.00
C 49.75 83.31 49.25 84.63 49.00 85.00 Z"/>
</g>
<g fill="#ADADAD" fill-opacity="0.75" stroke="None">
<path d="
M 41.00 86.00 
C 42.75 86.72 47.08 86.17 49.00 86.00
C 49.00 86.00 48.77 85.35 49.00 85.00
C 47.22 84.84 41.66 86.21 41.00 86.00 Z"/>
</g>
<g fill="#C0C0C0" fill-opacity="0.26" stroke="None">
<path d="
M 52.00 91.00 
C 52.06 90.84 53.00 91.00 53.00 91.00
C 52.84 89.76 52.92 88.25 53.00 87.00
C 52.71 88.03 51.21 89.27 52.00 91.00 Z"/>
</g>
<g fill="#D6D6D6" fill-opacity="0.05" stroke="None">
<path d="
M 54.00 94.00 
C 53.38 93.06 53.14 92.09 53.00 91.00
C 53.00 91.00 52.06 90.84 52.00 91.00
C 51.39 92.65 53.13 93.24 54.00 94.00 Z"/>
</g>
</svg>