<svg xmlns="http://www.w3.org/2000/svg" xmlns:v="https://svgstorm.com"
viewBox = "0 0 100 99"
width="100"
height="99">
<g fill="None" fill-opacity="0.0" stroke="#000000" stroke-opacity="0.00" stroke-width="0.3"><path d="
M 0.00 30.00 
C 7.17 7.01 35.64 -1.83 55.00 12.00
C 57.36 13.68 59.32 15.74 61.00 18.00
C 64.72 23.00 67.48 28.74 68.00 35.00
C 68.31 35.94 68.88 36.57 69.00 38.00
C 69.56 40.36 68.31 42.39 68.00 44.00
C 67.60 50.98 60.39 57.36 66.00 63.00
C 78.72 63.55 87.28 79.41 99.00 85.00
C 95.56 57.09 101.58 28.02 99.00 0.00
L 0.00 0.00
L 0.00 30.00 Z"/>
</g>
<g fill="None" fill-opacity="0.0" stroke="#F9DC1D" stroke-opacity="0.20" stroke-width="0.3"><path d="
M 99.00 85.00 
C 99.09 85.70 98.85 86.94 100.00 87.00
L 100.00 0.00
L 99.00 0.00
C 101.58 28.02 95.56 57.09 99.00 85.00 Z"/>
</g>
<g fill="None" fill-opacity="0.0" stroke="#EDD638" stroke-opacity="0.92" stroke-width="0.3"><path d="
M 0.00 30.00 
L 0.00 46.00
C 1.35 46.27 0.83 48.04 1.00 49.00
C 5.38 74.34 43.41 82.89 59.00 63.00
C 64.91 63.90 62.93 71.08 68.00 73.00
C 69.20 73.77 70.04 74.09 71.00 75.00
C 74.64 78.44 79.71 83.44 83.75 86.25 C 87.79 89.06 93.84 97.15 99.00 93.00
C 99.08 92.65 99.67 92.17 100.00 92.00
L 100.00 87.00
C 98.85 86.94 99.09 85.70 99.00 85.00
C 87.28 79.41 78.72 63.55 66.00 63.00
C 60.39 57.36 67.60 50.98 68.00 44.00
C 68.11 42.02 68.00 39.99 68.00 38.00
C 68.00 37.02 68.08 35.98 68.00 35.00
C 67.48 28.74 64.72 23.00 61.00 18.00
C 59.47 16.25 56.72 13.44 55.00 12.00
C 35.64 -1.83 7.17 7.01 0.00 30.00
M 4.00 44.00 
C 3.37 40.75 3.29 38.22 4.00 35.00
C 11.69 0.29 61.35 2.42 64.00 39.00 C 66.65 75.58 6.90 80.56 4.00 44.00 Z"/>
</g>
<g fill="None" fill-opacity="0.0" stroke="#F4F4F3" stroke-opacity="0.94" stroke-width="0.3"><path d="
M 4.00 35.00 
C 3.71 37.83 3.77 41.16 4.00 44.00
C 6.90 80.56 66.65 75.58 64.00 39.00 C 61.35 2.42 11.69 0.29 4.00 35.00
M 33.00 15.00 
C 33.97 14.97 35.03 14.92 36.00 15.00
C 66.08 17.51 65.20 63.86 34.00 64.00 C 2.80 64.13 1.25 16.08 33.00 15.00 Z"/>
</g>
<g fill="None" fill-opacity="0.0" stroke="#58699E" stroke-opacity="0.11" stroke-width="0.3"><path d="
M 61.00 18.00 
C 59.32 15.74 57.36 13.68 55.00 12.00
C 56.72 13.44 59.47 16.25 61.00 18.00 Z"/>
</g>
<g fill="None" fill-opacity="0.0" stroke="#000000" stroke-opacity="0.02" stroke-width="0.3"><path d="
M 36.00 15.00 
C 38.11 15.85 38.20 20.33 36.00 21.00
C 37.70 21.33 37.74 21.03 39.00 22.00
C 42.51 24.72 38.70 26.29 41.33 29.67 C 43.96 33.05 39.41 34.75 39.00 36.00
C 39.04 38.22 39.91 43.02 39.00 45.00
C 40.47 45.01 43.79 47.05 46.00 46.00
C 46.00 47.67 46.00 49.33 46.00 51.00
C 46.33 52.85 47.20 53.06 46.00 55.00
C 42.56 60.56 28.27 54.99 22.00 57.00
C 22.32 52.88 20.75 49.86 22.00 46.00
C 24.67 46.00 27.33 46.00 30.00 46.00
C 29.66 42.24 29.18 37.07 29.00 34.00
C 27.00 38.26 27.04 33.60 26.98 29.98 C 26.91 26.35 29.13 23.81 31.00 21.00
C 31.89 19.66 30.95 20.71 31.00 19.00
C 31.04 17.52 31.41 15.44 33.00 15.00
C 1.25 16.08 2.80 64.13 34.00 64.00 C 65.20 63.86 66.08 17.51 36.00 15.00 Z"/>
</g>
<g fill="None" fill-opacity="0.0" stroke="#E61A1A" stroke-opacity="0.75" stroke-width="0.3"><path d="
M 31.00 19.00 
C 30.42 19.49 35.82 20.97 36.00 21.00
C 38.20 20.33 38.11 15.85 36.00 15.00
C 35.03 14.92 33.97 14.97 33.00 15.00
C 31.41 15.44 31.04 17.52 31.00 19.00 Z"/>
</g>
<g fill="None" fill-opacity="0.0" stroke="#CA3B44" stroke-opacity="0.34" stroke-width="0.3"><path d="
M 31.00 21.00 
C 32.82 23.42 36.66 20.80 39.00 22.00
C 37.74 21.03 37.70 21.33 36.00 21.00
C 35.82 20.97 30.42 19.49 31.00 19.00
C 30.95 20.71 31.89 19.66 31.00 21.00 Z"/>
</g>
<g fill="None" fill-opacity="0.0" stroke="#E81E1C" stroke-opacity="0.88" stroke-width="0.3"><path d="
M 29.00 34.00 
C 28.86 31.60 28.70 29.04 30.00 27.00
C 32.28 32.42 30.37 39.82 31.00 46.00
C 32.81 46.00 35.26 46.44 37.00 46.00
C 33.84 42.64 39.37 31.11 37.00 27.00
C 40.73 28.15 38.16 33.99 39.00 36.00
C 39.41 34.75 43.96 33.05 41.33 29.67 C 38.70 26.29 42.51 24.72 39.00 22.00
C 36.66 20.80 32.82 23.42 31.00 21.00
C 29.13 23.81 26.91 26.35 26.98 29.98 C 27.04 33.60 27.00 38.26 29.00 34.00
M 34.00 45.00 
C 32.46 42.72 32.28 37.21 34.00 35.00
C 35.54 37.28 35.72 42.79 34.00 45.00 Z"/>
</g>
<g fill="None" fill-opacity="0.0" stroke="#DB3033" stroke-opacity="0.62" stroke-width="0.3"><path d="
M 29.00 34.00 
C 29.18 37.07 29.66 42.24 30.00 46.00
C 30.50 46.00 31.00 46.00 31.00 46.00
C 30.37 39.82 32.28 32.42 30.00 27.00
C 28.70 29.04 28.86 31.60 29.00 34.00 Z"/>
</g>
<g fill="None" fill-opacity="0.0" stroke="#DB0E10" stroke-opacity="0.55" stroke-width="0.3"><path d="
M 37.00 46.00 
C 37.79 45.80 38.12 44.99 39.00 45.00
C 39.91 43.02 39.04 38.22 39.00 36.00
C 38.16 33.99 40.73 28.15 37.00 27.00
C 39.37 31.11 33.84 42.64 37.00 46.00 Z"/>
</g>
<g fill="None" fill-opacity="0.0" stroke="#DCD49A" stroke-opacity="1.00" stroke-width="0.3"><path d="
M 4.00 44.00 
C 3.77 41.16 3.71 37.83 4.00 35.00
C 3.29 38.22 3.37 40.75 4.00 44.00 Z"/>
</g>
<g fill="None" fill-opacity="0.0" stroke="#E51010" stroke-opacity="0.28" stroke-width="0.3"><path d="
M 34.00 45.00 
C 35.72 42.79 35.54 37.28 34.00 35.00
C 32.28 37.21 32.46 42.72 34.00 45.00 Z"/>
</g>
<g fill="None" fill-opacity="0.0" stroke="#3A52D5" stroke-opacity="0.05" stroke-width="0.3"><path d="
M 68.00 38.00 
C 68.27 38.25 69.00 38.00 69.00 38.00
C 68.88 36.57 68.31 35.94 68.00 35.00
C 68.08 35.98 68.00 37.02 68.00 38.00 Z"/>
</g>
<g fill="None" fill-opacity="0.0" stroke="#7780A6" stroke-opacity="0.13" stroke-width="0.3"><path d="
M 68.00 44.00 
C 68.31 42.39 69.56 40.36 69.00 38.00
C 69.00 38.00 68.27 38.25 68.00 38.00
C 68.00 39.99 68.11 42.02 68.00 44.00 Z"/>
</g>
<g fill="None" fill-opacity="0.0" stroke="#040303" stroke-opacity="0.98" stroke-width="0.3"><path d="
M 37.00 46.00 
C 35.26 46.44 32.81 46.00 31.00 46.00
C 31.00 46.00 30.50 46.00 30.00 46.00
C 27.33 46.00 24.67 46.00 22.00 46.00
C 20.75 49.86 22.32 52.88 22.00 57.00
C 28.27 54.99 42.56 60.56 46.00 55.00
C 43.59 56.53 42.62 49.51 41.00 54.00
C 41.16 51.48 36.69 51.32 38.00 48.00
C 43.72 47.45 42.31 50.18 46.00 51.00
C 46.00 49.33 46.00 47.67 46.00 46.00
C 43.79 47.05 40.47 45.01 39.00 45.00
C 38.12 44.99 37.79 45.80 37.00 46.00
M 24.00 55.00 
C 23.01 52.50 21.37 49.42 24.00 48.00
C 25.47 49.33 25.71 53.74 24.00 55.00
M 31.00 48.00 
C 33.59 61.82 19.05 48.12 31.00 48.00
M 36.00 48.00 
C 38.77 49.54 36.74 56.48 33.32 54.66 C 29.90 52.84 32.68 46.16 36.00 48.00 Z"/>
</g>
<g fill="None" fill-opacity="0.0" stroke="#B7AB5E" stroke-opacity="0.43" stroke-width="0.3"><path d="
M 0.00 49.00 
C 0.50 49.00 1.00 49.00 1.00 49.00
C 0.83 48.04 1.35 46.27 0.00 46.00
L 0.00 49.00 Z"/>
</g>
<g fill="None" fill-opacity="0.0" stroke="#CFCFCF" stroke-opacity="1.00" stroke-width="0.3"><path d="
M 24.00 55.00 
C 25.71 53.74 25.47 49.33 24.00 48.00
C 21.37 49.42 23.01 52.50 24.00 55.00 Z"/>
</g>
<g fill="None" fill-opacity="0.0" stroke="#CFCFCF" stroke-opacity="1.00" stroke-width="0.3"><path d="
M 31.00 48.00 
C 19.05 48.12 33.59 61.82 31.00 48.00
M 29.00 49.00 
C 32.37 54.59 25.05 53.74 29.00 49.00 Z"/>
</g>
<g fill="None" fill-opacity="0.0" stroke="#DBDBDB" stroke-opacity="1.00" stroke-width="0.3"><path d="
M 36.00 48.00 
C 32.68 46.16 29.90 52.84 33.32 54.66 C 36.74 56.48 38.77 49.54 36.00 48.00
M 35.00 50.00 
C 35.90 51.22 35.68 54.93 34.00 53.00
C 32.84 51.67 32.84 51.30 34.00 50.00
C 34.37 48.73 34.63 49.50 35.00 50.00 Z"/>
</g>
<g fill="None" fill-opacity="0.0" stroke="#969696" stroke-opacity="0.98" stroke-width="0.3"><path d="
M 46.00 55.00 
C 47.20 53.06 46.33 52.85 46.00 51.00
C 42.31 50.18 43.72 47.45 38.00 48.00
C 36.69 51.32 41.16 51.48 41.00 54.00
C 42.62 49.51 43.59 56.53 46.00 55.00 Z"/>
</g>
<g fill="None" fill-opacity="0.0" stroke="#000000" stroke-opacity="0.00" stroke-width="0.3"><path d="
M 0.00 99.00 
L 99.00 99.00
C 99.33 97.08 98.56 94.90 99.00 93.00
C 93.84 97.15 87.79 89.06 83.75 86.25 C 79.71 83.44 74.64 78.44 71.00 75.00
C 70.07 74.33 68.97 73.85 68.00 73.00
C 62.93 71.08 64.91 63.90 59.00 63.00
C 43.41 82.89 5.38 74.34 1.00 49.00
C 1.00 49.00 0.50 49.00 0.00 49.00
L 0.00 99.00 Z"/>
</g>
<g fill="None" fill-opacity="0.0" stroke="#151515" stroke-opacity="1.00" stroke-width="0.3"><path d="
M 29.00 49.00 
C 25.05 53.74 32.37 54.59 29.00 49.00 Z"/>
</g>
<g fill="None" fill-opacity="0.0" stroke="#000000" stroke-opacity="1.00" stroke-width="0.3"><path d="
M 34.00 50.00 
C 33.73 50.92 34.22 52.06 34.00 53.00
C 35.06 52.83 35.24 50.82 35.00 50.00
C 34.63 49.50 34.37 48.73 34.00 50.00 Z"/>
</g>
<g fill="None" fill-opacity="0.0" stroke="#888888" stroke-opacity="1.00" stroke-width="0.3"><path d="
M 34.00 53.00 
C 34.22 52.06 33.73 50.92 34.00 50.00
C 32.84 51.30 32.84 51.67 34.00 53.00 Z"/>
</g>
<g fill="None" fill-opacity="0.0" stroke="#545454" stroke-opacity="1.00" stroke-width="0.3"><path d="
M 34.00 53.00 
C 35.68 54.93 35.90 51.22 35.00 50.00
C 35.24 50.82 35.06 52.83 34.00 53.00 Z"/>
</g>
<g fill="None" fill-opacity="0.0" stroke="#A99F6E" stroke-opacity="0.37" stroke-width="0.3"><path d="
M 71.00 75.00 
C 70.04 74.09 69.20 73.77 68.00 73.00
C 68.97 73.85 70.07 74.33 71.00 75.00 Z"/>
</g>
<g fill="None" fill-opacity="0.0" stroke="#FBE01A" stroke-opacity="0.19" stroke-width="0.3"><path d="
M 99.00 93.00 
C 98.56 94.90 99.33 97.08 99.00 99.00
L 100.00 99.00
L 100.00 92.00
C 99.67 92.17 99.08 92.65 99.00 93.00 Z"/>
</g>
<g fill="#000000" fill-opacity="0.00" stroke="None">
<path d="
M 0.00 30.00 
C 7.17 7.01 35.64 -1.83 55.00 12.00
C 57.36 13.68 59.32 15.74 61.00 18.00
C 64.72 23.00 67.48 28.74 68.00 35.00
C 68.31 35.94 68.88 36.57 69.00 38.00
C 69.56 40.36 68.31 42.39 68.00 44.00
C 67.60 50.98 60.39 57.36 66.00 63.00
C 78.72 63.55 87.28 79.41 99.00 85.00
C 95.56 57.09 101.58 28.02 99.00 0.00
L 0.00 0.00
L 0.00 30.00 Z"/>
</g>
<g fill="#F9DC1D" fill-opacity="0.20" stroke="None">
<path d="
M 99.00 85.00 
C 99.09 85.70 98.85 86.94 100.00 87.00
L 100.00 0.00
L 99.00 0.00
C 101.58 28.02 95.56 57.09 99.00 85.00 Z"/>
</g>
<g fill="#EDD638" fill-opacity="0.92" stroke="None">
<path d="
M 0.00 30.00 
L 0.00 46.00
C 1.35 46.27 0.83 48.04 1.00 49.00
C 5.38 74.34 43.41 82.89 59.00 63.00
C 64.91 63.90 62.93 71.08 68.00 73.00
C 69.20 73.77 70.04 74.09 71.00 75.00
C 74.64 78.44 79.71 83.44 83.75 86.25 C 87.79 89.06 93.84 97.15 99.00 93.00
C 99.08 92.65 99.67 92.17 100.00 92.00
L 100.00 87.00
C 98.85 86.94 99.09 85.70 99.00 85.00
C 87.28 79.41 78.72 63.55 66.00 63.00
C 60.39 57.36 67.60 50.98 68.00 44.00
C 68.11 42.02 68.00 39.99 68.00 38.00
C 68.00 37.02 68.08 35.98 68.00 35.00
C 67.48 28.74 64.72 23.00 61.00 18.00
C 59.47 16.25 56.72 13.44 55.00 12.00
C 35.64 -1.83 7.17 7.01 0.00 30.00
M 4.00 44.00 
C 3.37 40.75 3.29 38.22 4.00 35.00
C 11.69 0.29 61.35 2.42 64.00 39.00 C 66.65 75.58 6.90 80.56 4.00 44.00 Z"/>
</g>
<g fill="#F4F4F3" fill-opacity="0.94" stroke="None">
<path d="
M 4.00 35.00 
C 3.71 37.83 3.77 41.16 4.00 44.00
C 6.90 80.56 66.65 75.58 64.00 39.00 C 61.35 2.42 11.69 0.29 4.00 35.00
M 33.00 15.00 
C 33.97 14.97 35.03 14.92 36.00 15.00
C 66.08 17.51 65.20 63.86 34.00 64.00 C 2.80 64.13 1.25 16.08 33.00 15.00 Z"/>
</g>
<g fill="#58699E" fill-opacity="0.11" stroke="None">
<path d="
M 61.00 18.00 
C 59.32 15.74 57.36 13.68 55.00 12.00
C 56.72 13.44 59.47 16.25 61.00 18.00 Z"/>
</g>
<g fill="#000000" fill-opacity="0.02" stroke="None">
<path d="
M 36.00 15.00 
C 38.11 15.85 38.20 20.33 36.00 21.00
C 37.70 21.33 37.74 21.03 39.00 22.00
C 42.51 24.72 38.70 26.29 41.33 29.67 C 43.96 33.05 39.41 34.75 39.00 36.00
C 39.04 38.22 39.91 43.02 39.00 45.00
C 40.47 45.01 43.79 47.05 46.00 46.00
C 46.00 47.67 46.00 49.33 46.00 51.00
C 46.33 52.85 47.20 53.06 46.00 55.00
C 42.56 60.56 28.27 54.99 22.00 57.00
C 22.32 52.88 20.75 49.86 22.00 46.00
C 24.67 46.00 27.33 46.00 30.00 46.00
C 29.66 42.24 29.18 37.07 29.00 34.00
C 27.00 38.26 27.04 33.60 26.98 29.98 C 26.91 26.35 29.13 23.81 31.00 21.00
C 31.89 19.66 30.95 20.71 31.00 19.00
C 31.04 17.52 31.41 15.44 33.00 15.00
C 1.25 16.08 2.80 64.13 34.00 64.00 C 65.20 63.86 66.08 17.51 36.00 15.00 Z"/>
</g>
<g fill="#E61A1A" fill-opacity="0.75" stroke="None">
<path d="
M 31.00 19.00 
C 30.42 19.49 35.82 20.97 36.00 21.00
C 38.20 20.33 38.11 15.85 36.00 15.00
C 35.03 14.92 33.97 14.97 33.00 15.00
C 31.41 15.44 31.04 17.52 31.00 19.00 Z"/>
</g>
<g fill="#CA3B44" fill-opacity="0.34" stroke="None">
<path d="
M 31.00 21.00 
C 32.82 23.42 36.66 20.80 39.00 22.00
C 37.74 21.03 37.70 21.33 36.00 21.00
C 35.82 20.97 30.42 19.49 31.00 19.00
C 30.95 20.71 31.89 19.66 31.00 21.00 Z"/>
</g>
<g fill="#E81E1C" fill-opacity="0.88" stroke="None">
<path d="
M 29.00 34.00 
C 28.86 31.60 28.70 29.04 30.00 27.00
C 32.28 32.42 30.37 39.82 31.00 46.00
C 32.81 46.00 35.26 46.44 37.00 46.00
C 33.84 42.64 39.37 31.11 37.00 27.00
C 40.73 28.15 38.16 33.99 39.00 36.00
C 39.41 34.75 43.96 33.05 41.33 29.67 C 38.70 26.29 42.51 24.72 39.00 22.00
C 36.66 20.80 32.82 23.42 31.00 21.00
C 29.13 23.81 26.91 26.35 26.98 29.98 C 27.04 33.60 27.00 38.26 29.00 34.00
M 34.00 45.00 
C 32.46 42.72 32.28 37.21 34.00 35.00
C 35.54 37.28 35.72 42.79 34.00 45.00 Z"/>
</g>
<g fill="#DB3033" fill-opacity="0.62" stroke="None">
<path d="
M 29.00 34.00 
C 29.18 37.07 29.66 42.24 30.00 46.00
C 30.50 46.00 31.00 46.00 31.00 46.00
C 30.37 39.82 32.28 32.42 30.00 27.00
C 28.70 29.04 28.86 31.60 29.00 34.00 Z"/>
</g>
<g fill="#DB0E10" fill-opacity="0.55" stroke="None">
<path d="
M 37.00 46.00 
C 37.79 45.80 38.12 44.99 39.00 45.00
C 39.91 43.02 39.04 38.22 39.00 36.00
C 38.16 33.99 40.73 28.15 37.00 27.00
C 39.37 31.11 33.84 42.64 37.00 46.00 Z"/>
</g>
<g fill="#DCD49A" fill-opacity="1.00" stroke="None">
<path d="
M 4.00 44.00 
C 3.77 41.16 3.71 37.83 4.00 35.00
C 3.29 38.22 3.37 40.75 4.00 44.00 Z"/>
</g>
<g fill="#E51010" fill-opacity="0.28" stroke="None">
<path d="
M 34.00 45.00 
C 35.72 42.79 35.54 37.28 34.00 35.00
C 32.28 37.21 32.46 42.72 34.00 45.00 Z"/>
</g>
<g fill="#3A52D5" fill-opacity="0.05" stroke="None">
<path d="
M 68.00 38.00 
C 68.27 38.25 69.00 38.00 69.00 38.00
C 68.88 36.57 68.31 35.94 68.00 35.00
C 68.08 35.98 68.00 37.02 68.00 38.00 Z"/>
</g>
<g fill="#7780A6" fill-opacity="0.13" stroke="None">
<path d="
M 68.00 44.00 
C 68.31 42.39 69.56 40.36 69.00 38.00
C 69.00 38.00 68.27 38.25 68.00 38.00
C 68.00 39.99 68.11 42.02 68.00 44.00 Z"/>
</g>
<g fill="#040303" fill-opacity="0.98" stroke="None">
<path d="
M 37.00 46.00 
C 35.26 46.44 32.81 46.00 31.00 46.00
C 31.00 46.00 30.50 46.00 30.00 46.00
C 27.33 46.00 24.67 46.00 22.00 46.00
C 20.75 49.86 22.32 52.88 22.00 57.00
C 28.27 54.99 42.56 60.56 46.00 55.00
C 43.59 56.53 42.62 49.51 41.00 54.00
C 41.16 51.48 36.69 51.32 38.00 48.00
C 43.72 47.45 42.31 50.18 46.00 51.00
C 46.00 49.33 46.00 47.67 46.00 46.00
C 43.79 47.05 40.47 45.01 39.00 45.00
C 38.12 44.99 37.79 45.80 37.00 46.00
M 24.00 55.00 
C 23.01 52.50 21.37 49.42 24.00 48.00
C 25.47 49.33 25.71 53.74 24.00 55.00
M 31.00 48.00 
C 33.59 61.82 19.05 48.12 31.00 48.00
M 36.00 48.00 
C 38.77 49.54 36.74 56.48 33.32 54.66 C 29.90 52.84 32.68 46.16 36.00 48.00 Z"/>
</g>
<g fill="#B7AB5E" fill-opacity="0.43" stroke="None">
<path d="
M 0.00 49.00 
C 0.50 49.00 1.00 49.00 1.00 49.00
C 0.83 48.04 1.35 46.27 0.00 46.00
L 0.00 49.00 Z"/>
</g>
<g fill="#CFCFCF" fill-opacity="1.00" stroke="None">
<path d="
M 24.00 55.00 
C 25.71 53.74 25.47 49.33 24.00 48.00
C 21.37 49.42 23.01 52.50 24.00 55.00 Z"/>
</g>
<g fill="#CFCFCF" fill-opacity="1.00" stroke="None">
<path d="
M 31.00 48.00 
C 19.05 48.12 33.59 61.82 31.00 48.00
M 29.00 49.00 
C 32.37 54.59 25.05 53.74 29.00 49.00 Z"/>
</g>
<g fill="#DBDBDB" fill-opacity="1.00" stroke="None">
<path d="
M 36.00 48.00 
C 32.68 46.16 29.90 52.84 33.32 54.66 C 36.74 56.48 38.77 49.54 36.00 48.00
M 35.00 50.00 
C 35.90 51.22 35.68 54.93 34.00 53.00
C 32.84 51.67 32.84 51.30 34.00 50.00
C 34.37 48.73 34.63 49.50 35.00 50.00 Z"/>
</g>
<g fill="#969696" fill-opacity="0.98" stroke="None">
<path d="
M 46.00 55.00 
C 47.20 53.06 46.33 52.85 46.00 51.00
C 42.31 50.18 43.72 47.45 38.00 48.00
C 36.69 51.32 41.16 51.48 41.00 54.00
C 42.62 49.51 43.59 56.53 46.00 55.00 Z"/>
</g>
<g fill="#000000" fill-opacity="0.00" stroke="None">
<path d="
M 0.00 99.00 
L 99.00 99.00
C 99.33 97.08 98.56 94.90 99.00 93.00
C 93.84 97.15 87.79 89.06 83.75 86.25 C 79.71 83.44 74.64 78.44 71.00 75.00
C 70.07 74.33 68.97 73.85 68.00 73.00
C 62.93 71.08 64.91 63.90 59.00 63.00
C 43.41 82.89 5.38 74.34 1.00 49.00
C 1.00 49.00 0.50 49.00 0.00 49.00
L 0.00 99.00 Z"/>
</g>
<g fill="#151515" fill-opacity="1.00" stroke="None">
<path d="
M 29.00 49.00 
C 25.05 53.74 32.37 54.59 29.00 49.00 Z"/>
</g>
<g fill="#000000" fill-opacity="1.00" stroke="None">
<path d="
M 34.00 50.00 
C 33.73 50.92 34.22 52.06 34.00 53.00
C 35.06 52.83 35.24 50.82 35.00 50.00
C 34.63 49.50 34.37 48.73 34.00 50.00 Z"/>
</g>
<g fill="#888888" fill-opacity="1.00" stroke="None">
<path d="
M 34.00 53.00 
C 34.22 52.06 33.73 50.92 34.00 50.00
C 32.84 51.30 32.84 51.67 34.00 53.00 Z"/>
</g>
<g fill="#545454" fill-opacity="1.00" stroke="None">
<path d="
M 34.00 53.00 
C 35.68 54.93 35.90 51.22 35.00 50.00
C 35.24 50.82 35.06 52.83 34.00 53.00 Z"/>
</g>
<g fill="#A99F6E" fill-opacity="0.37" stroke="None">
<path d="
M 71.00 75.00 
C 70.04 74.09 69.20 73.77 68.00 73.00
C 68.97 73.85 70.07 74.33 71.00 75.00 Z"/>
</g>
<g fill="#FBE01A" fill-opacity="0.19" stroke="None">
<path d="
M 99.00 93.00 
C 98.56 94.90 99.33 97.08 99.00 99.00
L 100.00 99.00
L 100.00 92.00
C 99.67 92.17 99.08 92.65 99.00 93.00 Z"/>
</g>
</svg>