<svg xmlns="http://www.w3.org/2000/svg" xmlns:v="https://svgstorm.com"
viewBox = "0 0 100 99"
width="100"
height="99">
<g fill="None" fill-opacity="0.0" stroke="#000000" stroke-opacity="0.00" stroke-width="0.3"><path d="
M 0.00 29.00 
C 0.50 29.00 1.00 29.00 1.00 29.00
C 3.27 19.16 9.99 13.00 19.08 8.08 C 28.18 3.16 41.88 4.23 51.23 9.77 C 60.58 15.32 64.73 22.63 67.99 33.01 C 71.25 43.38 61.87 54.73 66.00 63.00
C 77.90 62.95 86.83 77.83 97.00 84.00
C 97.09 84.46 100.16 75.77 99.00 71.00 C 97.84 66.23 99.56 58.35 99.00 53.00 C 98.44 47.65 99.24 41.67 99.00 36.00 C 98.76 30.33 99.13 23.83 99.00 18.00 C 98.87 12.17 99.10 5.87 99.00 0.00
L 0.00 0.00
L 0.00 29.00 Z"/>
</g>
<g fill="None" fill-opacity="0.0" stroke="#8D9292" stroke-opacity="0.20" stroke-width="0.3"><path d="
M 97.00 84.00 
C 97.92 84.96 98.45 86.77 100.00 87.00
L 100.00 0.00
L 99.00 0.00
C 99.10 5.87 98.87 12.17 99.00 18.00 C 99.13 23.83 98.76 30.33 99.00 36.00 C 99.24 41.67 98.44 47.65 99.00 53.00 C 99.56 58.35 97.84 66.23 99.00 71.00 C 100.16 75.77 97.09 84.46 97.00 84.00 Z"/>
</g>
<g fill="None" fill-opacity="0.0" stroke="#919395" stroke-opacity="0.88" stroke-width="0.3"><path d="
M 1.00 29.00 
C 0.78 29.97 1.55 31.75 0.00 32.00
L 0.00 50.00
C 7.83 74.35 42.73 82.97 60.00 63.00
C 61.86 65.86 65.33 66.76 64.00 71.00
C 76.02 76.14 85.07 93.68 98.00 93.00
C 97.92 92.24 99.31 90.24 100.00 90.00
L 100.00 87.00
C 98.45 86.77 97.92 84.96 97.00 84.00
C 86.83 77.83 77.90 62.95 66.00 63.00
C 61.87 54.73 71.25 43.38 67.99 33.01 C 64.73 22.63 60.58 15.32 51.23 9.77 C 41.88 4.23 28.18 3.16 19.08 8.08 C 9.99 13.00 3.27 19.16 1.00 29.00
M 38.00 9.00 
C 60.16 12.60 71.42 38.97 58.25 57.25 C 45.07 75.53 17.32 73.57 6.70 53.30 C -3.92 33.04 14.27 5.15 38.00 9.00 Z"/>
</g>
<g fill="None" fill-opacity="0.0" stroke="#F3F3F3" stroke-opacity="0.95" stroke-width="0.3"><path d="
M 38.00 9.00 
C 14.27 5.15 -3.92 33.04 6.70 53.30 C 17.32 73.57 45.07 75.53 58.25 57.25 C 71.42 38.97 60.16 12.60 38.00 9.00
M 27.00 64.00 
C 26.65 63.95 26.20 63.31 26.00 63.00
C -3.34 52.53 10.68 5.99 41.02 15.98 C 71.37 25.96 58.36 68.52 27.00 64.00 Z"/>
</g>
<g fill="None" fill-opacity="0.0" stroke="#000000" stroke-opacity="0.01" stroke-width="0.3"><path d="
M 26.00 63.00 
C 25.60 62.36 25.16 61.75 25.00 61.00
C 23.70 54.87 26.99 46.04 26.00 41.00
C 26.24 41.14 23.73 39.56 24.00 40.00
C 23.38 44.00 21.34 46.57 19.00 42.00
C 17.92 39.89 17.60 36.75 18.00 34.00
C 14.77 34.24 16.71 31.89 18.00 31.00
C 19.12 30.23 19.65 30.50 21.00 30.00
C 22.76 29.34 24.33 27.77 26.00 27.00
C 27.08 26.51 27.45 26.14 29.00 26.00
C 24.79 24.05 28.30 18.30 32.08 18.08 C 35.85 17.85 41.35 23.55 36.00 26.00
C 37.98 26.11 38.56 26.34 40.00 27.00
C 42.24 28.03 41.56 28.76 43.00 30.00
C 45.99 31.28 46.98 31.69 50.00 30.00
C 48.82 31.95 47.02 33.58 47.00 36.00
C 52.19 34.30 50.16 44.91 46.00 41.00
C 46.62 45.01 43.22 45.56 41.00 43.00
C 42.25 41.83 41.34 39.67 40.00 39.00
C 40.00 39.50 40.00 40.00 40.00 40.00
C 40.00 45.12 42.22 56.51 40.00 61.00
C 37.66 65.73 33.73 62.29 33.00 59.00
C 32.02 54.58 34.55 48.62 32.00 45.00
C 29.55 50.04 36.74 64.04 27.00 63.00
C 27.07 63.49 27.00 64.00 27.00 64.00
C 58.36 68.52 71.37 25.96 41.02 15.98 C 10.68 5.99 -3.34 52.53 26.00 63.00 Z"/>
</g>
<g fill="None" fill-opacity="0.0" stroke="#F1F6FC" stroke-opacity="0.81" stroke-width="0.3"><path d="
M 29.00 26.00 
C 31.25 25.80 33.75 25.87 36.00 26.00
C 41.35 23.55 35.85 17.85 32.08 18.08 C 28.30 18.30 24.79 24.05 29.00 26.00 Z"/>
</g>
<g fill="None" fill-opacity="0.0" stroke="#AFCEED" stroke-opacity="0.21" stroke-width="0.3"><path d="
M 26.00 27.00 
C 29.29 26.27 36.76 26.11 40.00 27.00
C 38.56 26.34 37.98 26.11 36.00 26.00
C 33.75 25.87 31.25 25.80 29.00 26.00
C 27.45 26.14 27.08 26.51 26.00 27.00 Z"/>
</g>
<g fill="None" fill-opacity="0.0" stroke="#F2F5F7" stroke-opacity="0.89" stroke-width="0.3"><path d="
M 21.00 30.00 
C 19.55 33.56 23.40 39.90 19.00 42.00
C 21.34 46.57 23.38 44.00 24.00 40.00
C 24.66 35.75 24.63 26.73 30.25 30.76 C 35.86 34.78 29.94 43.22 26.00 41.00
C 26.99 46.04 23.70 54.87 25.00 61.00
C 25.39 61.86 26.80 61.69 27.00 63.00
C 36.74 64.04 29.55 50.04 32.00 45.00
C 34.06 40.77 32.98 58.84 33.00 59.00
C 33.73 62.29 37.66 65.73 40.00 61.00
C 40.58 59.62 38.17 54.84 39.00 52.00 C 39.83 49.16 38.56 44.07 39.00 41.00
C 35.19 43.46 28.42 36.47 33.33 31.33 C 38.24 26.19 40.00 33.95 40.00 39.00
C 41.34 39.67 42.25 41.83 41.00 43.00
C 43.22 45.56 46.62 45.01 46.00 41.00
C 45.91 40.40 45.23 39.58 45.00 39.00
C 42.48 37.58 44.70 40.55 44.00 37.00
C 43.56 35.40 44.62 35.09 42.00 34.00
C 40.54 32.85 40.94 30.46 43.00 30.00
C 41.56 28.76 42.24 28.03 40.00 27.00
C 36.76 26.11 29.29 26.27 26.00 27.00
C 24.33 27.77 22.76 29.34 21.00 30.00 Z"/>
</g>
<g fill="None" fill-opacity="0.0" stroke="#858586" stroke-opacity="0.17" stroke-width="0.3"><path d="
M 0.00 32.00 
C 1.55 31.75 0.78 29.97 1.00 29.00
C 1.00 29.00 0.50 29.00 0.00 29.00
L 0.00 32.00 Z"/>
</g>
<g fill="None" fill-opacity="0.0" stroke="#252425" stroke-opacity="0.98" stroke-width="0.3"><path d="
M 24.00 40.00 
C 23.73 39.56 26.24 41.14 26.00 41.00
C 29.94 43.22 35.86 34.78 30.25 30.76 C 24.63 26.73 24.66 35.75 24.00 40.00
M 29.00 31.00 
C 31.39 32.16 30.45 40.76 27.30 39.64 C 24.15 38.52 25.91 29.50 29.00 31.00 Z"/>
</g>
<g fill="None" fill-opacity="0.0" stroke="#121112" stroke-opacity="0.98" stroke-width="0.3"><path d="
M 39.00 41.00 
C 39.05 40.65 39.88 40.26 40.00 40.00
C 40.00 40.00 40.00 39.50 40.00 39.00
C 40.00 33.95 38.24 26.19 33.33 31.33 C 28.42 36.47 35.19 43.46 39.00 41.00
M 38.00 31.00 
C 40.57 32.50 38.79 41.55 35.32 39.66 C 31.85 37.77 34.64 29.05 38.00 31.00 Z"/>
</g>
<g fill="None" fill-opacity="0.0" stroke="#100E0F" stroke-opacity="0.82" stroke-width="0.3"><path d="
M 18.00 31.00 
C 18.06 30.52 18.98 32.86 19.00 33.00
C 19.36 35.96 18.73 39.03 19.00 42.00
C 23.40 39.90 19.55 33.56 21.00 30.00
C 19.65 30.50 19.12 30.23 18.00 31.00 Z"/>
</g>
<g fill="None" fill-opacity="0.0" stroke="#585858" stroke-opacity="1.00" stroke-width="0.3"><path d="
M 42.00 34.00 
C 42.43 34.18 43.00 34.00 43.00 34.00
C 42.50 32.56 42.13 32.50 43.00 31.00
C 43.22 30.62 43.00 30.00 43.00 30.00
C 40.94 30.46 40.54 32.85 42.00 34.00 Z"/>
</g>
<g fill="None" fill-opacity="0.0" stroke="#060407" stroke-opacity="0.58" stroke-width="0.3"><path d="
M 43.00 31.00 
C 43.86 31.84 44.69 33.28 43.00 34.00
C 43.00 34.00 42.43 34.18 42.00 34.00
C 44.62 35.09 43.56 35.40 44.00 37.00
C 44.03 37.09 44.85 38.63 45.00 39.00
C 45.23 39.58 45.91 40.40 46.00 41.00
C 50.16 44.91 52.19 34.30 47.00 36.00
C 47.02 33.58 48.82 31.95 50.00 30.00
C 46.98 31.69 45.99 31.28 43.00 30.00
C 43.00 30.00 43.22 30.62 43.00 31.00
M 48.00 40.00 
C 44.54 37.79 48.56 35.52 48.00 40.00 Z"/>
</g>
<g fill="None" fill-opacity="0.0" stroke="#010000" stroke-opacity="0.55" stroke-width="0.3"><path d="
M 18.00 34.00 
C 18.05 33.65 18.79 33.26 19.00 33.00
C 18.98 32.86 18.06 30.52 18.00 31.00
C 16.71 31.89 14.77 34.24 18.00 34.00 Z"/>
</g>
<g fill="None" fill-opacity="0.0" stroke="#F8F7F7" stroke-opacity="1.00" stroke-width="0.3"><path d="
M 29.00 31.00 
C 25.91 29.50 24.15 38.52 27.30 39.64 C 30.45 40.76 31.39 32.16 29.00 31.00 Z"/>
</g>
<g fill="None" fill-opacity="0.0" stroke="#DFDEDF" stroke-opacity="1.00" stroke-width="0.3"><path d="
M 38.00 31.00 
C 34.64 29.05 31.85 37.77 35.32 39.66 C 38.79 41.55 40.57 32.50 38.00 31.00 Z"/>
</g>
<g fill="None" fill-opacity="0.0" stroke="#EDEDEE" stroke-opacity="0.73" stroke-width="0.3"><path d="
M 43.00 34.00 
C 44.69 33.28 43.86 31.84 43.00 31.00
C 42.13 32.50 42.50 32.56 43.00 34.00 Z"/>
</g>
<g fill="None" fill-opacity="0.0" stroke="#2A2B03" stroke-opacity="0.05" stroke-width="0.3"><path d="
M 18.00 34.00 
C 17.60 36.75 17.92 39.89 19.00 42.00
C 18.73 39.03 19.36 35.96 19.00 33.00
C 18.79 33.26 18.05 33.65 18.00 34.00 Z"/>
</g>
<g fill="None" fill-opacity="0.0" stroke="#4E4E52" stroke-opacity="0.93" stroke-width="0.3"><path d="
M 45.00 39.00 
C 44.85 38.63 44.03 37.09 44.00 37.00
C 44.70 40.55 42.48 37.58 45.00 39.00 Z"/>
</g>
<g fill="None" fill-opacity="0.0" stroke="#000000" stroke-opacity="0.26" stroke-width="0.3"><path d="
M 48.00 40.00 
C 48.56 35.52 44.54 37.79 48.00 40.00 Z"/>
</g>
<g fill="None" fill-opacity="0.0" stroke="#D0E3F5" stroke-opacity="0.57" stroke-width="0.3"><path d="
M 39.00 41.00 
C 38.56 44.07 39.83 49.16 39.00 52.00 C 38.17 54.84 40.58 59.62 40.00 61.00
C 42.22 56.51 40.00 45.12 40.00 40.00
C 39.88 40.26 39.05 40.65 39.00 41.00 Z"/>
</g>
<g fill="None" fill-opacity="0.0" stroke="#BCD8F0" stroke-opacity="0.17" stroke-width="0.3"><path d="
M 32.00 45.00 
C 34.55 48.62 32.02 54.58 33.00 59.00
C 32.98 58.84 34.06 40.77 32.00 45.00 Z"/>
</g>
<g fill="None" fill-opacity="0.0" stroke="#000000" stroke-opacity="0.00" stroke-width="0.3"><path d="
M 0.00 99.00 
L 99.00 99.00
C 99.33 97.08 98.56 94.90 99.00 93.00
C 98.59 93.19 98.00 93.00 98.00 93.00
C 85.07 93.68 76.02 76.14 64.00 71.00
C 65.33 66.76 61.86 65.86 60.00 63.00
C 42.73 82.97 7.83 74.35 0.00 50.00
L 0.00 99.00 Z"/>
</g>
<g fill="None" fill-opacity="0.0" stroke="#ADC8E9" stroke-opacity="0.15" stroke-width="0.3"><path d="
M 26.00 63.00 
C 26.20 63.31 26.65 63.95 27.00 64.00
C 27.00 64.00 27.07 63.49 27.00 63.00
C 26.80 61.69 25.39 61.86 25.00 61.00
C 25.16 61.75 25.60 62.36 26.00 63.00 Z"/>
</g>
<g fill="None" fill-opacity="0.0" stroke="#8A8B8B" stroke-opacity="0.53" stroke-width="0.3"><path d="
M 98.00 93.00 
C 98.00 93.00 98.59 93.19 99.00 93.00
C 99.26 92.88 99.67 92.17 100.00 92.00
L 100.00 90.00
C 99.31 90.24 97.92 92.24 98.00 93.00 Z"/>
</g>
<g fill="None" fill-opacity="0.0" stroke="#8E9293" stroke-opacity="0.19" stroke-width="0.3"><path d="
M 99.00 93.00 
C 98.56 94.90 99.33 97.08 99.00 99.00
L 100.00 99.00
L 100.00 92.00
C 99.67 92.17 99.26 92.88 99.00 93.00 Z"/>
</g>
<g fill="#000000" fill-opacity="0.00" stroke="None">
<path d="
M 0.00 29.00 
C 0.50 29.00 1.00 29.00 1.00 29.00
C 3.27 19.16 9.99 13.00 19.08 8.08 C 28.18 3.16 41.88 4.23 51.23 9.77 C 60.58 15.32 64.73 22.63 67.99 33.01 C 71.25 43.38 61.87 54.73 66.00 63.00
C 77.90 62.95 86.83 77.83 97.00 84.00
C 97.09 84.46 100.16 75.77 99.00 71.00 C 97.84 66.23 99.56 58.35 99.00 53.00 C 98.44 47.65 99.24 41.67 99.00 36.00 C 98.76 30.33 99.13 23.83 99.00 18.00 C 98.87 12.17 99.10 5.87 99.00 0.00
L 0.00 0.00
L 0.00 29.00 Z"/>
</g>
<g fill="#8D9292" fill-opacity="0.20" stroke="None">
<path d="
M 97.00 84.00 
C 97.92 84.96 98.45 86.77 100.00 87.00
L 100.00 0.00
L 99.00 0.00
C 99.10 5.87 98.87 12.17 99.00 18.00 C 99.13 23.83 98.76 30.33 99.00 36.00 C 99.24 41.67 98.44 47.65 99.00 53.00 C 99.56 58.35 97.84 66.23 99.00 71.00 C 100.16 75.77 97.09 84.46 97.00 84.00 Z"/>
</g>
<g fill="#919395" fill-opacity="0.88" stroke="None">
<path d="
M 1.00 29.00 
C 0.78 29.97 1.55 31.75 0.00 32.00
L 0.00 50.00
C 7.83 74.35 42.73 82.97 60.00 63.00
C 61.86 65.86 65.33 66.76 64.00 71.00
C 76.02 76.14 85.07 93.68 98.00 93.00
C 97.92 92.24 99.31 90.24 100.00 90.00
L 100.00 87.00
C 98.45 86.77 97.92 84.96 97.00 84.00
C 86.83 77.83 77.90 62.95 66.00 63.00
C 61.87 54.73 71.25 43.38 67.99 33.01 C 64.73 22.63 60.58 15.32 51.23 9.77 C 41.88 4.23 28.18 3.16 19.08 8.08 C 9.99 13.00 3.27 19.16 1.00 29.00
M 38.00 9.00 
C 60.16 12.60 71.42 38.97 58.25 57.25 C 45.07 75.53 17.32 73.57 6.70 53.30 C -3.92 33.04 14.27 5.15 38.00 9.00 Z"/>
</g>
<g fill="#F3F3F3" fill-opacity="0.95" stroke="None">
<path d="
M 38.00 9.00 
C 14.27 5.15 -3.92 33.04 6.70 53.30 C 17.32 73.57 45.07 75.53 58.25 57.25 C 71.42 38.97 60.16 12.60 38.00 9.00
M 27.00 64.00 
C 26.65 63.95 26.20 63.31 26.00 63.00
C -3.34 52.53 10.68 5.99 41.02 15.98 C 71.37 25.96 58.36 68.52 27.00 64.00 Z"/>
</g>
<g fill="#000000" fill-opacity="0.01" stroke="None">
<path d="
M 26.00 63.00 
C 25.60 62.36 25.16 61.75 25.00 61.00
C 23.70 54.87 26.99 46.04 26.00 41.00
C 26.24 41.14 23.73 39.56 24.00 40.00
C 23.38 44.00 21.34 46.57 19.00 42.00
C 17.92 39.89 17.60 36.75 18.00 34.00
C 14.77 34.24 16.71 31.89 18.00 31.00
C 19.12 30.23 19.65 30.50 21.00 30.00
C 22.76 29.34 24.33 27.77 26.00 27.00
C 27.08 26.51 27.45 26.14 29.00 26.00
C 24.79 24.05 28.30 18.30 32.08 18.08 C 35.85 17.85 41.35 23.55 36.00 26.00
C 37.98 26.11 38.56 26.34 40.00 27.00
C 42.24 28.03 41.56 28.76 43.00 30.00
C 45.99 31.28 46.98 31.69 50.00 30.00
C 48.82 31.95 47.02 33.58 47.00 36.00
C 52.19 34.30 50.16 44.91 46.00 41.00
C 46.62 45.01 43.22 45.56 41.00 43.00
C 42.25 41.83 41.34 39.67 40.00 39.00
C 40.00 39.50 40.00 40.00 40.00 40.00
C 40.00 45.12 42.22 56.51 40.00 61.00
C 37.66 65.73 33.73 62.29 33.00 59.00
C 32.02 54.58 34.55 48.62 32.00 45.00
C 29.55 50.04 36.74 64.04 27.00 63.00
C 27.07 63.49 27.00 64.00 27.00 64.00
C 58.36 68.52 71.37 25.96 41.02 15.98 C 10.68 5.99 -3.34 52.53 26.00 63.00 Z"/>
</g>
<g fill="#F1F6FC" fill-opacity="0.81" stroke="None">
<path d="
M 29.00 26.00 
C 31.25 25.80 33.75 25.87 36.00 26.00
C 41.35 23.55 35.85 17.85 32.08 18.08 C 28.30 18.30 24.79 24.05 29.00 26.00 Z"/>
</g>
<g fill="#AFCEED" fill-opacity="0.21" stroke="None">
<path d="
M 26.00 27.00 
C 29.29 26.27 36.76 26.11 40.00 27.00
C 38.56 26.34 37.98 26.11 36.00 26.00
C 33.75 25.87 31.25 25.80 29.00 26.00
C 27.45 26.14 27.08 26.51 26.00 27.00 Z"/>
</g>
<g fill="#F2F5F7" fill-opacity="0.89" stroke="None">
<path d="
M 21.00 30.00 
C 19.55 33.56 23.40 39.90 19.00 42.00
C 21.34 46.57 23.38 44.00 24.00 40.00
C 24.66 35.75 24.63 26.73 30.25 30.76 C 35.86 34.78 29.94 43.22 26.00 41.00
C 26.99 46.04 23.70 54.87 25.00 61.00
C 25.39 61.86 26.80 61.69 27.00 63.00
C 36.74 64.04 29.55 50.04 32.00 45.00
C 34.06 40.77 32.98 58.84 33.00 59.00
C 33.73 62.29 37.66 65.73 40.00 61.00
C 40.58 59.62 38.17 54.84 39.00 52.00 C 39.83 49.16 38.56 44.07 39.00 41.00
C 35.19 43.46 28.42 36.47 33.33 31.33 C 38.24 26.19 40.00 33.95 40.00 39.00
C 41.34 39.67 42.25 41.83 41.00 43.00
C 43.22 45.56 46.62 45.01 46.00 41.00
C 45.91 40.40 45.23 39.58 45.00 39.00
C 42.48 37.58 44.70 40.55 44.00 37.00
C 43.56 35.40 44.62 35.09 42.00 34.00
C 40.54 32.85 40.94 30.46 43.00 30.00
C 41.56 28.76 42.24 28.03 40.00 27.00
C 36.76 26.11 29.29 26.27 26.00 27.00
C 24.33 27.77 22.76 29.34 21.00 30.00 Z"/>
</g>
<g fill="#858586" fill-opacity="0.17" stroke="None">
<path d="
M 0.00 32.00 
C 1.55 31.75 0.78 29.97 1.00 29.00
C 1.00 29.00 0.50 29.00 0.00 29.00
L 0.00 32.00 Z"/>
</g>
<g fill="#252425" fill-opacity="0.98" stroke="None">
<path d="
M 24.00 40.00 
C 23.73 39.56 26.24 41.14 26.00 41.00
C 29.94 43.22 35.86 34.78 30.25 30.76 C 24.63 26.73 24.66 35.75 24.00 40.00
M 29.00 31.00 
C 31.39 32.16 30.45 40.76 27.30 39.64 C 24.15 38.52 25.91 29.50 29.00 31.00 Z"/>
</g>
<g fill="#121112" fill-opacity="0.98" stroke="None">
<path d="
M 39.00 41.00 
C 39.05 40.65 39.88 40.26 40.00 40.00
C 40.00 40.00 40.00 39.50 40.00 39.00
C 40.00 33.95 38.24 26.19 33.33 31.33 C 28.42 36.47 35.19 43.46 39.00 41.00
M 38.00 31.00 
C 40.57 32.50 38.79 41.55 35.32 39.66 C 31.85 37.77 34.64 29.05 38.00 31.00 Z"/>
</g>
<g fill="#100E0F" fill-opacity="0.82" stroke="None">
<path d="
M 18.00 31.00 
C 18.06 30.52 18.98 32.86 19.00 33.00
C 19.36 35.96 18.73 39.03 19.00 42.00
C 23.40 39.90 19.55 33.56 21.00 30.00
C 19.65 30.50 19.12 30.23 18.00 31.00 Z"/>
</g>
<g fill="#585858" fill-opacity="1.00" stroke="None">
<path d="
M 42.00 34.00 
C 42.43 34.18 43.00 34.00 43.00 34.00
C 42.50 32.56 42.13 32.50 43.00 31.00
C 43.22 30.62 43.00 30.00 43.00 30.00
C 40.94 30.46 40.54 32.85 42.00 34.00 Z"/>
</g>
<g fill="#060407" fill-opacity="0.58" stroke="None">
<path d="
M 43.00 31.00 
C 43.86 31.84 44.69 33.28 43.00 34.00
C 43.00 34.00 42.43 34.18 42.00 34.00
C 44.62 35.09 43.56 35.40 44.00 37.00
C 44.03 37.09 44.85 38.63 45.00 39.00
C 45.23 39.58 45.91 40.40 46.00 41.00
C 50.16 44.91 52.19 34.30 47.00 36.00
C 47.02 33.58 48.82 31.95 50.00 30.00
C 46.98 31.69 45.99 31.28 43.00 30.00
C 43.00 30.00 43.22 30.62 43.00 31.00
M 48.00 40.00 
C 44.54 37.79 48.56 35.52 48.00 40.00 Z"/>
</g>
<g fill="#010000" fill-opacity="0.55" stroke="None">
<path d="
M 18.00 34.00 
C 18.05 33.65 18.79 33.26 19.00 33.00
C 18.98 32.86 18.06 30.52 18.00 31.00
C 16.71 31.89 14.77 34.24 18.00 34.00 Z"/>
</g>
<g fill="#F8F7F7" fill-opacity="1.00" stroke="None">
<path d="
M 29.00 31.00 
C 25.91 29.50 24.15 38.52 27.30 39.64 C 30.45 40.76 31.39 32.16 29.00 31.00 Z"/>
</g>
<g fill="#DFDEDF" fill-opacity="1.00" stroke="None">
<path d="
M 38.00 31.00 
C 34.64 29.05 31.85 37.77 35.32 39.66 C 38.79 41.55 40.57 32.50 38.00 31.00 Z"/>
</g>
<g fill="#EDEDEE" fill-opacity="0.73" stroke="None">
<path d="
M 43.00 34.00 
C 44.69 33.28 43.86 31.84 43.00 31.00
C 42.13 32.50 42.50 32.56 43.00 34.00 Z"/>
</g>
<g fill="#2A2B03" fill-opacity="0.05" stroke="None">
<path d="
M 18.00 34.00 
C 17.60 36.75 17.92 39.89 19.00 42.00
C 18.73 39.03 19.36 35.96 19.00 33.00
C 18.79 33.26 18.05 33.65 18.00 34.00 Z"/>
</g>
<g fill="#4E4E52" fill-opacity="0.93" stroke="None">
<path d="
M 45.00 39.00 
C 44.85 38.63 44.03 37.09 44.00 37.00
C 44.70 40.55 42.48 37.58 45.00 39.00 Z"/>
</g>
<g fill="#000000" fill-opacity="0.26" stroke="None">
<path d="
M 48.00 40.00 
C 48.56 35.52 44.54 37.79 48.00 40.00 Z"/>
</g>
<g fill="#D0E3F5" fill-opacity="0.57" stroke="None">
<path d="
M 39.00 41.00 
C 38.56 44.07 39.83 49.16 39.00 52.00 C 38.17 54.84 40.58 59.62 40.00 61.00
C 42.22 56.51 40.00 45.12 40.00 40.00
C 39.88 40.26 39.05 40.65 39.00 41.00 Z"/>
</g>
<g fill="#BCD8F0" fill-opacity="0.17" stroke="None">
<path d="
M 32.00 45.00 
C 34.55 48.62 32.02 54.58 33.00 59.00
C 32.98 58.84 34.06 40.77 32.00 45.00 Z"/>
</g>
<g fill="#000000" fill-opacity="0.00" stroke="None">
<path d="
M 0.00 99.00 
L 99.00 99.00
C 99.33 97.08 98.56 94.90 99.00 93.00
C 98.59 93.19 98.00 93.00 98.00 93.00
C 85.07 93.68 76.02 76.14 64.00 71.00
C 65.33 66.76 61.86 65.86 60.00 63.00
C 42.73 82.97 7.83 74.35 0.00 50.00
L 0.00 99.00 Z"/>
</g>
<g fill="#ADC8E9" fill-opacity="0.15" stroke="None">
<path d="
M 26.00 63.00 
C 26.20 63.31 26.65 63.95 27.00 64.00
C 27.00 64.00 27.07 63.49 27.00 63.00
C 26.80 61.69 25.39 61.86 25.00 61.00
C 25.16 61.75 25.60 62.36 26.00 63.00 Z"/>
</g>
<g fill="#8A8B8B" fill-opacity="0.53" stroke="None">
<path d="
M 98.00 93.00 
C 98.00 93.00 98.59 93.19 99.00 93.00
C 99.26 92.88 99.67 92.17 100.00 92.00
L 100.00 90.00
C 99.31 90.24 97.92 92.24 98.00 93.00 Z"/>
</g>
<g fill="#8E9293" fill-opacity="0.19" stroke="None">
<path d="
M 99.00 93.00 
C 98.56 94.90 99.33 97.08 99.00 99.00
L 100.00 99.00
L 100.00 92.00
C 99.67 92.17 99.26 92.88 99.00 93.00 Z"/>
</g>
</svg>