<svg xmlns="http://www.w3.org/2000/svg" xmlns:v="https://svgstorm.com"
viewBox = "0 0 100 100"
width="100"
height="100">
<g fill="None" fill-opacity="0.0" stroke="#000000" stroke-opacity="0.00" stroke-width="0.3"><path d="
M 0.00 100.00 
L 42.00 100.00
C 42.00 99.50 42.00 99.00 42.00 99.00
C 39.60 98.87 38.17 98.58 36.00 98.00
C 30.70 96.58 26.28 94.21 22.00 91.00
C 21.39 90.54 20.62 90.38 20.00 90.00
C 17.11 88.24 13.73 84.84 12.00 82.00
C 11.68 81.47 11.36 80.43 11.00 80.00
C 9.88 78.64 9.03 77.54 8.00 76.00
C 5.95 72.92 3.68 69.92 3.00 66.00
C 2.92 65.51 3.00 64.50 3.00 64.00
C 2.76 63.09 1.82 62.54 2.00 61.00
C 2.06 60.51 2.00 60.00 2.00 60.00
C 0.60 58.11 1.02 55.53 1.00 53.00
C 0.99 51.33 1.00 49.67 1.00 48.00
C 1.00 46.68 0.91 45.32 1.00 44.00
C 1.10 42.54 1.76 41.91 2.00 41.00
C 1.99 40.50 2.00 39.50 2.00 39.00
C 2.01 36.92 2.45 35.26 4.00 34.00
C 4.07 33.51 4.00 33.00 4.00 33.00
C 4.59 30.47 5.93 28.39 7.00 26.00
C 7.64 24.57 7.81 22.88 9.00 22.00
C 9.71 21.26 10.36 20.82 11.00 20.00
C 11.95 18.77 12.98 18.00 14.00 17.00
C 15.25 15.78 16.82 14.20 18.00 13.00
C 19.06 11.92 19.42 10.54 21.00 10.00
C 21.45 9.85 22.00 10.00 22.00 10.00
C 23.93 6.92 27.96 6.39 31.00 5.00
C 33.67 3.78 35.61 2.14 39.00 2.00
C 39.50 1.98 40.50 2.00 41.00 2.00
C 42.59 1.43 43.88 1.08 46.00 1.00
C 48.95 0.88 52.05 0.84 55.00 1.00
C 62.91 1.43 69.57 3.97 76.00 8.00
C 77.81 8.49 78.97 9.59 80.00 11.00
C 80.17 11.24 81.00 11.00 81.00 11.00
C 83.89 12.41 88.62 17.17 90.00 20.00
C 90.20 20.40 90.00 21.00 90.00 21.00
C 95.05 25.84 98.83 33.85 99.00 41.00
C 99.01 41.50 99.00 42.00 99.00 42.00
C 99.25 42.25 100.00 42.00 100.00 42.00
L 100.00 0.00
L 0.00 0.00
L 0.00 100.00 Z"/>
</g>
<g fill="None" fill-opacity="0.0" stroke="#E4A3A7" stroke-opacity="0.40" stroke-width="0.3"><path d="
M 41.00 2.00 
C 42.67 2.00 44.33 2.00 46.00 2.00
C 46.15 1.95 46.00 1.00 46.00 1.00
C 43.88 1.08 42.59 1.43 41.00 2.00 Z"/>
</g>
<g fill="None" fill-opacity="0.0" stroke="#DB707A" stroke-opacity="0.85" stroke-width="0.3"><path d="
M 46.00 2.00 
C 48.98 2.00 52.02 1.84 55.00 2.00
C 54.99 2.00 55.00 1.00 55.00 1.00
C 52.05 0.84 48.95 0.88 46.00 1.00
C 46.00 1.00 46.15 1.95 46.00 2.00 Z"/>
</g>
<g fill="None" fill-opacity="0.0" stroke="#E7A8AA" stroke-opacity="0.41" stroke-width="0.3"><path d="
M 55.00 2.00 
C 59.76 2.26 63.96 3.49 68.00 5.00
C 70.35 5.88 72.61 7.06 75.00 8.00
C 75.43 8.17 76.00 8.00 76.00 8.00
C 69.57 3.97 62.91 1.43 55.00 1.00
C 55.00 1.00 54.99 2.00 55.00 2.00 Z"/>
</g>
<g fill="None" fill-opacity="0.0" stroke="#F7C5C9" stroke-opacity="0.27" stroke-width="0.3"><path d="
M 31.00 5.00 
C 33.50 3.84 36.67 3.12 39.00 2.00
C 35.61 2.14 33.67 3.78 31.00 5.00 Z"/>
</g>
<g fill="None" fill-opacity="0.0" stroke="#E72D32" stroke-opacity="0.99" stroke-width="0.3"><path d="
M 31.00 5.00 
C 28.53 6.14 24.27 8.22 22.00 10.00
C 20.53 13.53 12.47 21.55 9.00 23.00
C 8.99 24.22 8.48 24.93 8.00 26.00
C 6.87 28.50 5.60 31.01 4.00 33.00
C 4.00 33.00 4.07 33.51 4.00 34.00
C 3.74 35.93 2.57 37.51 2.00 39.00
C 2.00 39.50 1.99 40.50 2.00 41.00
C 2.02 42.00 2.00 43.00 2.00 44.00
C 2.00 45.33 2.00 46.67 2.00 48.00
C 2.00 49.67 2.00 51.33 2.00 53.00
C 2.00 55.33 2.00 57.67 2.00 60.00
C 2.00 60.00 2.06 60.51 2.00 61.00
C 2.91 61.98 2.99 62.47 3.00 64.00
C 3.00 64.50 2.92 65.51 3.00 66.00
C 4.47 68.99 6.22 73.14 8.00 76.00
C 8.64 77.04 10.15 78.97 11.00 80.00
C 13.73 83.29 18.68 88.46 22.00 91.00
C 25.40 93.61 32.14 96.55 36.00 98.00
C 38.17 98.58 39.60 98.87 42.00 99.00
C 47.63 99.30 53.36 99.00 59.00 99.00
C 59.50 99.00 60.50 99.02 61.00 99.00
C 61.23 98.66 61.00 98.00 61.00 98.00
C 55.81 98.19 51.60 96.53 47.00 96.00
C 48.96 93.34 54.11 96.72 56.00 94.00
C 48.52 91.17 38.53 91.17 31.31 86.69 C 24.08 82.22 19.00 77.85 14.70 70.30 C 10.40 62.76 8.79 51.32 10.33 42.33 C 11.87 33.34 15.79 28.74 21.75 21.75 C 27.71 14.76 34.65 13.17 43.02 10.02 C 51.40 6.88 62.98 13.72 69.00 9.00
C 67.14 8.31 64.55 6.30 68.00 5.00
C 63.96 3.49 59.76 2.26 55.00 2.00
C 52.02 1.84 48.98 2.00 46.00 2.00
C 44.33 2.00 42.67 2.00 41.00 2.00
C 40.50 2.00 39.50 1.98 39.00 2.00
C 36.67 3.12 33.50 3.84 31.00 5.00 Z"/>
</g>
<g fill="None" fill-opacity="0.0" stroke="#EFBBB6" stroke-opacity="0.44" stroke-width="0.3"><path d="
M 22.00 10.00 
C 24.27 8.22 28.53 6.14 31.00 5.00
C 27.96 6.39 23.93 6.92 22.00 10.00 Z"/>
</g>
<g fill="None" fill-opacity="0.0" stroke="#C0292F" stroke-opacity="1.00" stroke-width="0.3"><path d="
M 61.00 98.00 
C 68.95 96.92 75.57 92.65 82.00 88.00
C 84.27 85.90 86.01 82.25 89.00 81.00
C 89.91 79.90 91.27 78.06 92.00 77.00
C 95.56 71.80 96.23 65.06 99.00 60.00
C 99.01 59.50 99.00 59.00 99.00 59.00
C 99.00 58.00 99.00 57.00 99.00 56.00
C 99.00 51.33 99.00 46.67 99.00 42.00
C 99.00 42.00 99.01 41.50 99.00 41.00
C 95.68 34.93 94.90 26.85 90.00 21.00
C 87.12 19.80 81.18 13.82 80.00 11.00
C 78.63 9.93 76.34 8.78 75.00 8.00
C 72.61 7.06 70.35 5.88 68.00 5.00
C 64.55 6.30 67.14 8.31 69.00 9.00
C 62.98 13.72 51.40 6.88 43.02 10.02 C 34.65 13.17 27.71 14.76 21.75 21.75 C 15.79 28.74 11.87 33.34 10.33 42.33 C 8.79 51.32 10.40 62.76 14.70 70.30 C 19.00 77.85 24.08 82.22 31.31 86.69 C 38.53 91.17 48.52 91.17 56.00 94.00
C 54.11 96.72 48.96 93.34 47.00 96.00
C 51.60 96.53 55.81 98.19 61.00 98.00
M 50.00 75.00 
C 42.09 73.06 40.73 59.23 31.00 62.00 C 21.27 64.77 17.31 44.83 24.00 40.00
C 27.06 37.79 31.40 40.08 35.00 39.00
C 39.80 36.76 45.31 24.82 51.00 26.00
C 56.45 27.13 53.64 37.42 54.00 42.00 C 54.36 46.58 54.20 55.94 54.00 61.00 C 53.80 66.06 56.39 76.57 50.00 75.00
M 69.00 47.00 
C 72.85 47.44 75.44 38.41 79.67 41.33 C 83.91 44.25 75.96 49.21 74.00 51.00
C 74.68 54.74 82.61 56.11 80.21 60.23 C 77.81 64.35 72.40 58.81 71.00 56.00
C 67.05 55.12 65.41 64.16 61.32 61.66 C 57.23 59.16 63.43 53.28 66.00 52.00
C 65.32 48.26 57.39 46.89 59.79 42.77 C 62.19 38.65 67.60 44.19 69.00 47.00 Z"/>
</g>
<g fill="None" fill-opacity="0.0" stroke="#E0979A" stroke-opacity="0.58" stroke-width="0.3"><path d="
M 80.00 11.00 
C 78.97 9.59 77.81 8.49 76.00 8.00
C 76.00 8.00 75.43 8.17 75.00 8.00
C 76.34 8.78 78.63 9.93 80.00 11.00 Z"/>
</g>
<g fill="None" fill-opacity="0.0" stroke="#EFF3F0" stroke-opacity="0.09" stroke-width="0.3"><path d="
M 18.00 13.00 
C 19.09 11.93 20.08 11.24 21.00 10.00
C 19.42 10.54 19.06 11.92 18.00 13.00 Z"/>
</g>
<g fill="None" fill-opacity="0.0" stroke="#E27E81" stroke-opacity="0.77" stroke-width="0.3"><path d="
M 18.00 13.00 
C 16.75 14.22 15.18 15.80 14.00 17.00
C 13.07 17.95 11.87 19.11 11.00 20.00
C 10.36 20.82 9.71 21.26 9.00 22.00
C 8.75 22.26 9.00 23.00 9.00 23.00
C 12.47 21.55 20.53 13.53 22.00 10.00
C 22.00 10.00 21.45 9.85 21.00 10.00
C 20.08 11.24 19.09 11.93 18.00 13.00 Z"/>
</g>
<g fill="None" fill-opacity="0.0" stroke="#CA7073" stroke-opacity="0.86" stroke-width="0.3"><path d="
M 90.00 21.00 
C 90.00 21.00 90.20 20.40 90.00 20.00
C 86.69 17.68 83.28 14.26 81.00 11.00
C 81.00 11.00 80.17 11.24 80.00 11.00
C 81.18 13.82 87.12 19.80 90.00 21.00 Z"/>
</g>
<g fill="None" fill-opacity="0.0" stroke="#E9D6D3" stroke-opacity="0.20" stroke-width="0.3"><path d="
M 90.00 20.00 
C 88.62 17.17 83.89 12.41 81.00 11.00
C 83.28 14.26 86.69 17.68 90.00 20.00 Z"/>
</g>
<g fill="None" fill-opacity="0.0" stroke="#E7B1AF" stroke-opacity="0.36" stroke-width="0.3"><path d="
M 14.00 17.00 
C 15.18 15.80 16.75 14.22 18.00 13.00
C 16.82 14.20 15.25 15.78 14.00 17.00 Z"/>
</g>
<g fill="None" fill-opacity="0.0" stroke="#F2DCDB" stroke-opacity="0.16" stroke-width="0.3"><path d="
M 11.00 20.00 
C 11.87 19.11 13.07 17.95 14.00 17.00
C 12.98 18.00 11.95 18.77 11.00 20.00 Z"/>
</g>
<g fill="None" fill-opacity="0.0" stroke="#E1B5B3" stroke-opacity="0.36" stroke-width="0.3"><path d="
M 99.00 41.00 
C 98.83 33.85 95.05 25.84 90.00 21.00
C 94.90 26.85 95.68 34.93 99.00 41.00 Z"/>
</g>
<g fill="None" fill-opacity="0.0" stroke="#EFDFDB" stroke-opacity="0.17" stroke-width="0.3"><path d="
M 7.00 26.00 
C 7.12 25.78 8.00 26.00 8.00 26.00
C 8.48 24.93 8.99 24.22 9.00 23.00
C 9.00 23.00 8.75 22.26 9.00 22.00
C 7.81 22.88 7.64 24.57 7.00 26.00 Z"/>
</g>
<g fill="None" fill-opacity="0.0" stroke="#F1B0B0" stroke-opacity="0.48" stroke-width="0.3"><path d="
M 4.00 33.00 
C 5.60 31.01 6.87 28.50 8.00 26.00
C 8.00 26.00 7.12 25.78 7.00 26.00
C 5.93 28.39 4.59 30.47 4.00 33.00 Z"/>
</g>
<g fill="None" fill-opacity="0.0" stroke="#FAFAFA" stroke-opacity="1.00" stroke-width="0.3"><path d="
M 35.00 39.00 
C 31.96 40.42 26.99 38.52 24.00 40.00
C 17.31 44.83 21.27 64.77 31.00 62.00 C 40.73 59.23 42.09 73.06 50.00 75.00
C 55.21 74.35 52.83 64.24 53.00 60.00 C 53.17 55.76 53.45 46.01 53.00 42.00 C 52.55 37.99 55.25 27.62 51.00 26.00
C 45.31 24.82 39.80 36.76 35.00 39.00 Z"/>
</g>
<g fill="None" fill-opacity="0.0" stroke="#A28784" stroke-opacity="1.00" stroke-width="0.3"><path d="
M 50.00 75.00 
C 56.39 76.57 53.80 66.06 54.00 61.00 C 54.20 55.94 54.36 46.58 54.00 42.00 C 53.64 37.42 56.45 27.13 51.00 26.00
C 55.25 27.62 52.55 37.99 53.00 42.00 C 53.45 46.01 53.17 55.76 53.00 60.00 C 52.83 64.24 55.21 74.35 50.00 75.00 Z"/>
</g>
<g fill="None" fill-opacity="0.0" stroke="#F5C4CA" stroke-opacity="0.22" stroke-width="0.3"><path d="
M 2.00 39.00 
C 2.57 37.51 3.74 35.93 4.00 34.00
C 2.45 35.26 2.01 36.92 2.00 39.00 Z"/>
</g>
<g fill="None" fill-opacity="0.0" stroke="#E19B9E" stroke-opacity="1.00" stroke-width="0.3"><path d="
M 24.00 40.00 
C 26.99 38.52 31.96 40.42 35.00 39.00
C 31.40 40.08 27.06 37.79 24.00 40.00 Z"/>
</g>
<g fill="None" fill-opacity="0.0" stroke="#F2C2C8" stroke-opacity="0.16" stroke-width="0.3"><path d="
M 1.00 44.00 
C 1.13 43.78 2.00 44.00 2.00 44.00
C 2.00 43.00 2.02 42.00 2.00 41.00
C 1.76 41.91 1.10 42.54 1.00 44.00 Z"/>
</g>
<g fill="None" fill-opacity="0.0" stroke="#F4F0F0" stroke-opacity="1.00" stroke-width="0.3"><path d="
M 69.00 47.00 
C 67.60 44.19 62.19 38.65 59.79 42.77 C 57.39 46.89 65.32 48.26 66.00 52.00
C 63.43 53.28 57.23 59.16 61.32 61.66 C 65.41 64.16 67.05 55.12 71.00 56.00
C 72.40 58.81 77.81 64.35 80.21 60.23 C 82.61 56.11 74.68 54.74 74.00 51.00
C 75.96 49.21 83.91 44.25 79.67 41.33 C 75.44 38.41 72.85 47.44 69.00 47.00 Z"/>
</g>
<g fill="None" fill-opacity="0.0" stroke="#D59095" stroke-opacity="0.47" stroke-width="0.3"><path d="
M 99.00 56.00 
C 99.27 55.75 100.00 56.00 100.00 56.00
L 100.00 42.00
C 100.00 42.00 99.25 42.25 99.00 42.00
C 99.00 46.67 99.00 51.33 99.00 56.00 Z"/>
</g>
<g fill="None" fill-opacity="0.0" stroke="#E27879" stroke-opacity="0.55" stroke-width="0.3"><path d="
M 1.00 48.00 
C 1.13 48.22 2.00 48.00 2.00 48.00
C 2.00 46.67 2.00 45.33 2.00 44.00
C 2.00 44.00 1.13 43.78 1.00 44.00
C 0.91 45.32 1.00 46.68 1.00 48.00 Z"/>
</g>
<g fill="None" fill-opacity="0.0" stroke="#E37B7C" stroke-opacity="0.84" stroke-width="0.3"><path d="
M 1.00 53.00 
C 1.05 53.15 2.00 53.00 2.00 53.00
C 2.00 51.33 2.00 49.67 2.00 48.00
C 2.00 48.00 1.13 48.22 1.00 48.00
C 1.00 49.67 0.99 51.33 1.00 53.00 Z"/>
</g>
<g fill="None" fill-opacity="0.0" stroke="#E89899" stroke-opacity="0.35" stroke-width="0.3"><path d="
M 2.00 60.00 
C 2.00 57.67 2.00 55.33 2.00 53.00
C 2.00 53.00 1.05 53.15 1.00 53.00
C 1.02 55.53 0.60 58.11 2.00 60.00 Z"/>
</g>
<g fill="None" fill-opacity="0.0" stroke="#F3BCC1" stroke-opacity="0.17" stroke-width="0.3"><path d="
M 99.00 59.00 
C 99.25 58.75 100.00 59.00 100.00 59.00
L 100.00 56.00
C 100.00 56.00 99.27 55.75 99.00 56.00
C 99.00 57.00 99.00 58.00 99.00 59.00 Z"/>
</g>
<g fill="None" fill-opacity="0.0" stroke="#000000" stroke-opacity="0.00" stroke-width="0.3"><path d="
M 99.00 60.00 
C 98.84 66.68 95.42 71.90 92.00 77.00
C 90.91 78.62 91.14 79.90 89.00 81.00
C 88.80 81.10 89.00 82.00 89.00 82.00
C 87.63 84.80 84.32 87.17 82.00 89.00
C 76.14 93.62 68.64 98.69 61.00 99.00
C 60.50 99.02 59.50 99.00 59.00 99.00
C 58.77 99.34 59.00 100.00 59.00 100.00
L 100.00 100.00
L 100.00 59.00
C 100.00 59.00 99.25 58.75 99.00 59.00
C 99.00 59.00 99.01 59.50 99.00 60.00 Z"/>
</g>
<g fill="None" fill-opacity="0.0" stroke="#E3B4B5" stroke-opacity="0.33" stroke-width="0.3"><path d="
M 92.00 77.00 
C 95.42 71.90 98.84 66.68 99.00 60.00
C 96.23 65.06 95.56 71.80 92.00 77.00 Z"/>
</g>
<g fill="None" fill-opacity="0.0" stroke="#EBB7B1" stroke-opacity="0.27" stroke-width="0.3"><path d="
M 3.00 64.00 
C 2.99 62.47 2.91 61.98 2.00 61.00
C 1.82 62.54 2.76 63.09 3.00 64.00 Z"/>
</g>
<g fill="None" fill-opacity="0.0" stroke="#F5D7D2" stroke-opacity="0.26" stroke-width="0.3"><path d="
M 8.00 76.00 
C 6.22 73.14 4.47 68.99 3.00 66.00
C 3.68 69.92 5.95 72.92 8.00 76.00 Z"/>
</g>
<g fill="None" fill-opacity="0.0" stroke="#EAA0A4" stroke-opacity="0.37" stroke-width="0.3"><path d="
M 11.00 80.00 
C 10.15 78.97 8.64 77.04 8.00 76.00
C 9.03 77.54 9.88 78.64 11.00 80.00 Z"/>
</g>
<g fill="None" fill-opacity="0.0" stroke="#DBA19E" stroke-opacity="0.51" stroke-width="0.3"><path d="
M 89.00 81.00 
C 91.14 79.90 90.91 78.62 92.00 77.00
C 91.27 78.06 89.91 79.90 89.00 81.00 Z"/>
</g>
<g fill="None" fill-opacity="0.0" stroke="#E27B7B" stroke-opacity="0.80" stroke-width="0.3"><path d="
M 12.00 82.00 
C 14.38 84.55 17.50 87.66 20.00 90.00
C 20.62 90.38 21.39 90.54 22.00 91.00
C 18.68 88.46 13.73 83.29 11.00 80.00
C 11.36 80.43 11.68 81.47 12.00 82.00 Z"/>
</g>
<g fill="None" fill-opacity="0.0" stroke="#CE6A74" stroke-opacity="0.84" stroke-width="0.3"><path d="
M 82.00 88.00 
C 84.52 86.24 86.53 83.73 89.00 82.00
C 89.00 82.00 88.80 81.10 89.00 81.00
C 86.01 82.25 84.27 85.90 82.00 88.00 Z"/>
</g>
<g fill="None" fill-opacity="0.0" stroke="#F1DDD7" stroke-opacity="0.20" stroke-width="0.3"><path d="
M 20.00 90.00 
C 17.50 87.66 14.38 84.55 12.00 82.00
C 13.73 84.84 17.11 88.24 20.00 90.00 Z"/>
</g>
<g fill="None" fill-opacity="0.0" stroke="#E4DAD9" stroke-opacity="0.13" stroke-width="0.3"><path d="
M 82.00 88.00 
C 81.77 88.16 82.00 89.00 82.00 89.00
C 84.32 87.17 87.63 84.80 89.00 82.00
C 86.53 83.73 84.52 86.24 82.00 88.00 Z"/>
</g>
<g fill="None" fill-opacity="0.0" stroke="#EAB0B0" stroke-opacity="0.38" stroke-width="0.3"><path d="
M 61.00 98.00 
C 61.00 98.00 61.23 98.66 61.00 99.00
C 68.64 98.69 76.14 93.62 82.00 89.00
C 82.00 89.00 81.77 88.16 82.00 88.00
C 75.57 92.65 68.95 96.92 61.00 98.00 Z"/>
</g>
<g fill="None" fill-opacity="0.0" stroke="#F2BEBB" stroke-opacity="0.39" stroke-width="0.3"><path d="
M 36.00 98.00 
C 32.14 96.55 25.40 93.61 22.00 91.00
C 26.28 94.21 30.70 96.58 36.00 98.00 Z"/>
</g>
<g fill="None" fill-opacity="0.0" stroke="#DD8E93" stroke-opacity="0.42" stroke-width="0.3"><path d="
M 42.00 100.00 
L 59.00 100.00
C 59.00 100.00 58.77 99.34 59.00 99.00
C 53.36 99.00 47.63 99.30 42.00 99.00
C 42.00 99.00 42.00 99.50 42.00 100.00 Z"/>
</g>
<g fill="#000000" fill-opacity="0.00" stroke="None">
<path d="
M 0.00 100.00 
L 42.00 100.00
C 42.00 99.50 42.00 99.00 42.00 99.00
C 39.60 98.87 38.17 98.58 36.00 98.00
C 30.70 96.58 26.28 94.21 22.00 91.00
C 21.39 90.54 20.62 90.38 20.00 90.00
C 17.11 88.24 13.73 84.84 12.00 82.00
C 11.68 81.47 11.36 80.43 11.00 80.00
C 9.88 78.64 9.03 77.54 8.00 76.00
C 5.95 72.92 3.68 69.92 3.00 66.00
C 2.92 65.51 3.00 64.50 3.00 64.00
C 2.76 63.09 1.82 62.54 2.00 61.00
C 2.06 60.51 2.00 60.00 2.00 60.00
C 0.60 58.11 1.02 55.53 1.00 53.00
C 0.99 51.33 1.00 49.67 1.00 48.00
C 1.00 46.68 0.91 45.32 1.00 44.00
C 1.10 42.54 1.76 41.91 2.00 41.00
C 1.99 40.50 2.00 39.50 2.00 39.00
C 2.01 36.92 2.45 35.26 4.00 34.00
C 4.07 33.51 4.00 33.00 4.00 33.00
C 4.59 30.47 5.93 28.39 7.00 26.00
C 7.64 24.57 7.81 22.88 9.00 22.00
C 9.71 21.26 10.36 20.82 11.00 20.00
C 11.95 18.77 12.98 18.00 14.00 17.00
C 15.25 15.78 16.82 14.20 18.00 13.00
C 19.06 11.92 19.42 10.54 21.00 10.00
C 21.45 9.85 22.00 10.00 22.00 10.00
C 23.93 6.92 27.96 6.39 31.00 5.00
C 33.67 3.78 35.61 2.14 39.00 2.00
C 39.50 1.98 40.50 2.00 41.00 2.00
C 42.59 1.43 43.88 1.08 46.00 1.00
C 48.95 0.88 52.05 0.84 55.00 1.00
C 62.91 1.43 69.57 3.97 76.00 8.00
C 77.81 8.49 78.97 9.59 80.00 11.00
C 80.17 11.24 81.00 11.00 81.00 11.00
C 83.89 12.41 88.62 17.17 90.00 20.00
C 90.20 20.40 90.00 21.00 90.00 21.00
C 95.05 25.84 98.83 33.85 99.00 41.00
C 99.01 41.50 99.00 42.00 99.00 42.00
C 99.25 42.25 100.00 42.00 100.00 42.00
L 100.00 0.00
L 0.00 0.00
L 0.00 100.00 Z"/>
</g>
<g fill="#E4A3A7" fill-opacity="0.40" stroke="None">
<path d="
M 41.00 2.00 
C 42.67 2.00 44.33 2.00 46.00 2.00
C 46.15 1.95 46.00 1.00 46.00 1.00
C 43.88 1.08 42.59 1.43 41.00 2.00 Z"/>
</g>
<g fill="#DB707A" fill-opacity="0.85" stroke="None">
<path d="
M 46.00 2.00 
C 48.98 2.00 52.02 1.84 55.00 2.00
C 54.99 2.00 55.00 1.00 55.00 1.00
C 52.05 0.84 48.95 0.88 46.00 1.00
C 46.00 1.00 46.15 1.95 46.00 2.00 Z"/>
</g>
<g fill="#E7A8AA" fill-opacity="0.41" stroke="None">
<path d="
M 55.00 2.00 
C 59.76 2.26 63.96 3.49 68.00 5.00
C 70.35 5.88 72.61 7.06 75.00 8.00
C 75.43 8.17 76.00 8.00 76.00 8.00
C 69.57 3.97 62.91 1.43 55.00 1.00
C 55.00 1.00 54.99 2.00 55.00 2.00 Z"/>
</g>
<g fill="#F7C5C9" fill-opacity="0.27" stroke="None">
<path d="
M 31.00 5.00 
C 33.50 3.84 36.67 3.12 39.00 2.00
C 35.61 2.14 33.67 3.78 31.00 5.00 Z"/>
</g>
<g fill="#E72D32" fill-opacity="0.99" stroke="None">
<path d="
M 31.00 5.00 
C 28.53 6.14 24.27 8.22 22.00 10.00
C 20.53 13.53 12.47 21.55 9.00 23.00
C 8.99 24.22 8.48 24.93 8.00 26.00
C 6.87 28.50 5.60 31.01 4.00 33.00
C 4.00 33.00 4.07 33.51 4.00 34.00
C 3.74 35.93 2.57 37.51 2.00 39.00
C 2.00 39.50 1.99 40.50 2.00 41.00
C 2.02 42.00 2.00 43.00 2.00 44.00
C 2.00 45.33 2.00 46.67 2.00 48.00
C 2.00 49.67 2.00 51.33 2.00 53.00
C 2.00 55.33 2.00 57.67 2.00 60.00
C 2.00 60.00 2.06 60.51 2.00 61.00
C 2.91 61.98 2.99 62.47 3.00 64.00
C 3.00 64.50 2.92 65.51 3.00 66.00
C 4.47 68.99 6.22 73.14 8.00 76.00
C 8.64 77.04 10.15 78.97 11.00 80.00
C 13.73 83.29 18.68 88.46 22.00 91.00
C 25.40 93.61 32.14 96.55 36.00 98.00
C 38.17 98.58 39.60 98.87 42.00 99.00
C 47.63 99.30 53.36 99.00 59.00 99.00
C 59.50 99.00 60.50 99.02 61.00 99.00
C 61.23 98.66 61.00 98.00 61.00 98.00
C 55.81 98.19 51.60 96.53 47.00 96.00
C 48.96 93.34 54.11 96.72 56.00 94.00
C 48.52 91.17 38.53 91.17 31.31 86.69 C 24.08 82.22 19.00 77.85 14.70 70.30 C 10.40 62.76 8.79 51.32 10.33 42.33 C 11.87 33.34 15.79 28.74 21.75 21.75 C 27.71 14.76 34.65 13.17 43.02 10.02 C 51.40 6.88 62.98 13.72 69.00 9.00
C 67.14 8.31 64.55 6.30 68.00 5.00
C 63.96 3.49 59.76 2.26 55.00 2.00
C 52.02 1.84 48.98 2.00 46.00 2.00
C 44.33 2.00 42.67 2.00 41.00 2.00
C 40.50 2.00 39.50 1.98 39.00 2.00
C 36.67 3.12 33.50 3.84 31.00 5.00 Z"/>
</g>
<g fill="#EFBBB6" fill-opacity="0.44" stroke="None">
<path d="
M 22.00 10.00 
C 24.27 8.22 28.53 6.14 31.00 5.00
C 27.96 6.39 23.93 6.92 22.00 10.00 Z"/>
</g>
<g fill="#C0292F" fill-opacity="1.00" stroke="None">
<path d="
M 61.00 98.00 
C 68.95 96.92 75.57 92.65 82.00 88.00
C 84.27 85.90 86.01 82.25 89.00 81.00
C 89.91 79.90 91.27 78.06 92.00 77.00
C 95.56 71.80 96.23 65.06 99.00 60.00
C 99.01 59.50 99.00 59.00 99.00 59.00
C 99.00 58.00 99.00 57.00 99.00 56.00
C 99.00 51.33 99.00 46.67 99.00 42.00
C 99.00 42.00 99.01 41.50 99.00 41.00
C 95.68 34.93 94.90 26.85 90.00 21.00
C 87.12 19.80 81.18 13.82 80.00 11.00
C 78.63 9.93 76.34 8.78 75.00 8.00
C 72.61 7.06 70.35 5.88 68.00 5.00
C 64.55 6.30 67.14 8.31 69.00 9.00
C 62.98 13.72 51.40 6.88 43.02 10.02 C 34.65 13.17 27.71 14.76 21.75 21.75 C 15.79 28.74 11.87 33.34 10.33 42.33 C 8.79 51.32 10.40 62.76 14.70 70.30 C 19.00 77.85 24.08 82.22 31.31 86.69 C 38.53 91.17 48.52 91.17 56.00 94.00
C 54.11 96.72 48.96 93.34 47.00 96.00
C 51.60 96.53 55.81 98.19 61.00 98.00
M 50.00 75.00 
C 42.09 73.06 40.73 59.23 31.00 62.00 C 21.27 64.77 17.31 44.83 24.00 40.00
C 27.06 37.79 31.40 40.08 35.00 39.00
C 39.80 36.76 45.31 24.82 51.00 26.00
C 56.45 27.13 53.64 37.42 54.00 42.00 C 54.36 46.58 54.20 55.94 54.00 61.00 C 53.80 66.06 56.39 76.57 50.00 75.00
M 69.00 47.00 
C 72.85 47.44 75.44 38.41 79.67 41.33 C 83.91 44.25 75.96 49.21 74.00 51.00
C 74.68 54.74 82.61 56.11 80.21 60.23 C 77.81 64.35 72.40 58.81 71.00 56.00
C 67.05 55.12 65.41 64.16 61.32 61.66 C 57.23 59.16 63.43 53.28 66.00 52.00
C 65.32 48.26 57.39 46.89 59.79 42.77 C 62.19 38.65 67.60 44.19 69.00 47.00 Z"/>
</g>
<g fill="#E0979A" fill-opacity="0.58" stroke="None">
<path d="
M 80.00 11.00 
C 78.97 9.59 77.81 8.49 76.00 8.00
C 76.00 8.00 75.43 8.17 75.00 8.00
C 76.34 8.78 78.63 9.93 80.00 11.00 Z"/>
</g>
<g fill="#EFF3F0" fill-opacity="0.09" stroke="None">
<path d="
M 18.00 13.00 
C 19.09 11.93 20.08 11.24 21.00 10.00
C 19.42 10.54 19.06 11.92 18.00 13.00 Z"/>
</g>
<g fill="#E27E81" fill-opacity="0.77" stroke="None">
<path d="
M 18.00 13.00 
C 16.75 14.22 15.18 15.80 14.00 17.00
C 13.07 17.95 11.87 19.11 11.00 20.00
C 10.36 20.82 9.71 21.26 9.00 22.00
C 8.75 22.26 9.00 23.00 9.00 23.00
C 12.47 21.55 20.53 13.53 22.00 10.00
C 22.00 10.00 21.45 9.85 21.00 10.00
C 20.08 11.24 19.09 11.93 18.00 13.00 Z"/>
</g>
<g fill="#CA7073" fill-opacity="0.86" stroke="None">
<path d="
M 90.00 21.00 
C 90.00 21.00 90.20 20.40 90.00 20.00
C 86.69 17.68 83.28 14.26 81.00 11.00
C 81.00 11.00 80.17 11.24 80.00 11.00
C 81.18 13.82 87.12 19.80 90.00 21.00 Z"/>
</g>
<g fill="#E9D6D3" fill-opacity="0.20" stroke="None">
<path d="
M 90.00 20.00 
C 88.62 17.17 83.89 12.41 81.00 11.00
C 83.28 14.26 86.69 17.68 90.00 20.00 Z"/>
</g>
<g fill="#E7B1AF" fill-opacity="0.36" stroke="None">
<path d="
M 14.00 17.00 
C 15.18 15.80 16.75 14.22 18.00 13.00
C 16.82 14.20 15.25 15.78 14.00 17.00 Z"/>
</g>
<g fill="#F2DCDB" fill-opacity="0.16" stroke="None">
<path d="
M 11.00 20.00 
C 11.87 19.11 13.07 17.95 14.00 17.00
C 12.98 18.00 11.95 18.77 11.00 20.00 Z"/>
</g>
<g fill="#E1B5B3" fill-opacity="0.36" stroke="None">
<path d="
M 99.00 41.00 
C 98.83 33.85 95.05 25.84 90.00 21.00
C 94.90 26.85 95.68 34.93 99.00 41.00 Z"/>
</g>
<g fill="#EFDFDB" fill-opacity="0.17" stroke="None">
<path d="
M 7.00 26.00 
C 7.12 25.78 8.00 26.00 8.00 26.00
C 8.48 24.93 8.99 24.22 9.00 23.00
C 9.00 23.00 8.75 22.26 9.00 22.00
C 7.81 22.88 7.64 24.57 7.00 26.00 Z"/>
</g>
<g fill="#F1B0B0" fill-opacity="0.48" stroke="None">
<path d="
M 4.00 33.00 
C 5.60 31.01 6.87 28.50 8.00 26.00
C 8.00 26.00 7.12 25.78 7.00 26.00
C 5.93 28.39 4.59 30.47 4.00 33.00 Z"/>
</g>
<g fill="#FAFAFA" fill-opacity="1.00" stroke="None">
<path d="
M 35.00 39.00 
C 31.96 40.42 26.99 38.52 24.00 40.00
C 17.31 44.83 21.27 64.77 31.00 62.00 C 40.73 59.23 42.09 73.06 50.00 75.00
C 55.21 74.35 52.83 64.24 53.00 60.00 C 53.17 55.76 53.45 46.01 53.00 42.00 C 52.55 37.99 55.25 27.62 51.00 26.00
C 45.31 24.82 39.80 36.76 35.00 39.00 Z"/>
</g>
<g fill="#A28784" fill-opacity="1.00" stroke="None">
<path d="
M 50.00 75.00 
C 56.39 76.57 53.80 66.06 54.00 61.00 C 54.20 55.94 54.36 46.58 54.00 42.00 C 53.64 37.42 56.45 27.13 51.00 26.00
C 55.25 27.62 52.55 37.99 53.00 42.00 C 53.45 46.01 53.17 55.76 53.00 60.00 C 52.83 64.24 55.21 74.35 50.00 75.00 Z"/>
</g>
<g fill="#F5C4CA" fill-opacity="0.22" stroke="None">
<path d="
M 2.00 39.00 
C 2.57 37.51 3.74 35.93 4.00 34.00
C 2.45 35.26 2.01 36.92 2.00 39.00 Z"/>
</g>
<g fill="#E19B9E" fill-opacity="1.00" stroke="None">
<path d="
M 24.00 40.00 
C 26.99 38.52 31.96 40.42 35.00 39.00
C 31.40 40.08 27.06 37.79 24.00 40.00 Z"/>
</g>
<g fill="#F2C2C8" fill-opacity="0.16" stroke="None">
<path d="
M 1.00 44.00 
C 1.13 43.78 2.00 44.00 2.00 44.00
C 2.00 43.00 2.02 42.00 2.00 41.00
C 1.76 41.91 1.10 42.54 1.00 44.00 Z"/>
</g>
<g fill="#F4F0F0" fill-opacity="1.00" stroke="None">
<path d="
M 69.00 47.00 
C 67.60 44.19 62.19 38.65 59.79 42.77 C 57.39 46.89 65.32 48.26 66.00 52.00
C 63.43 53.28 57.23 59.16 61.32 61.66 C 65.41 64.16 67.05 55.12 71.00 56.00
C 72.40 58.81 77.81 64.35 80.21 60.23 C 82.61 56.11 74.68 54.74 74.00 51.00
C 75.96 49.21 83.91 44.25 79.67 41.33 C 75.44 38.41 72.85 47.44 69.00 47.00 Z"/>
</g>
<g fill="#D59095" fill-opacity="0.47" stroke="None">
<path d="
M 99.00 56.00 
C 99.27 55.75 100.00 56.00 100.00 56.00
L 100.00 42.00
C 100.00 42.00 99.25 42.25 99.00 42.00
C 99.00 46.67 99.00 51.33 99.00 56.00 Z"/>
</g>
<g fill="#E27879" fill-opacity="0.55" stroke="None">
<path d="
M 1.00 48.00 
C 1.13 48.22 2.00 48.00 2.00 48.00
C 2.00 46.67 2.00 45.33 2.00 44.00
C 2.00 44.00 1.13 43.78 1.00 44.00
C 0.91 45.32 1.00 46.68 1.00 48.00 Z"/>
</g>
<g fill="#E37B7C" fill-opacity="0.84" stroke="None">
<path d="
M 1.00 53.00 
C 1.05 53.15 2.00 53.00 2.00 53.00
C 2.00 51.33 2.00 49.67 2.00 48.00
C 2.00 48.00 1.13 48.22 1.00 48.00
C 1.00 49.67 0.99 51.33 1.00 53.00 Z"/>
</g>
<g fill="#E89899" fill-opacity="0.35" stroke="None">
<path d="
M 2.00 60.00 
C 2.00 57.67 2.00 55.33 2.00 53.00
C 2.00 53.00 1.05 53.15 1.00 53.00
C 1.02 55.53 0.60 58.11 2.00 60.00 Z"/>
</g>
<g fill="#F3BCC1" fill-opacity="0.17" stroke="None">
<path d="
M 99.00 59.00 
C 99.25 58.75 100.00 59.00 100.00 59.00
L 100.00 56.00
C 100.00 56.00 99.27 55.75 99.00 56.00
C 99.00 57.00 99.00 58.00 99.00 59.00 Z"/>
</g>
<g fill="#000000" fill-opacity="0.00" stroke="None">
<path d="
M 99.00 60.00 
C 98.84 66.68 95.42 71.90 92.00 77.00
C 90.91 78.62 91.14 79.90 89.00 81.00
C 88.80 81.10 89.00 82.00 89.00 82.00
C 87.63 84.80 84.32 87.17 82.00 89.00
C 76.14 93.62 68.64 98.69 61.00 99.00
C 60.50 99.02 59.50 99.00 59.00 99.00
C 58.77 99.34 59.00 100.00 59.00 100.00
L 100.00 100.00
L 100.00 59.00
C 100.00 59.00 99.25 58.75 99.00 59.00
C 99.00 59.00 99.01 59.50 99.00 60.00 Z"/>
</g>
<g fill="#E3B4B5" fill-opacity="0.33" stroke="None">
<path d="
M 92.00 77.00 
C 95.42 71.90 98.84 66.68 99.00 60.00
C 96.23 65.06 95.56 71.80 92.00 77.00 Z"/>
</g>
<g fill="#EBB7B1" fill-opacity="0.27" stroke="None">
<path d="
M 3.00 64.00 
C 2.99 62.47 2.91 61.98 2.00 61.00
C 1.82 62.54 2.76 63.09 3.00 64.00 Z"/>
</g>
<g fill="#F5D7D2" fill-opacity="0.26" stroke="None">
<path d="
M 8.00 76.00 
C 6.22 73.14 4.47 68.99 3.00 66.00
C 3.68 69.92 5.95 72.92 8.00 76.00 Z"/>
</g>
<g fill="#EAA0A4" fill-opacity="0.37" stroke="None">
<path d="
M 11.00 80.00 
C 10.15 78.97 8.64 77.04 8.00 76.00
C 9.03 77.54 9.88 78.64 11.00 80.00 Z"/>
</g>
<g fill="#DBA19E" fill-opacity="0.51" stroke="None">
<path d="
M 89.00 81.00 
C 91.14 79.90 90.91 78.62 92.00 77.00
C 91.27 78.06 89.91 79.90 89.00 81.00 Z"/>
</g>
<g fill="#E27B7B" fill-opacity="0.80" stroke="None">
<path d="
M 12.00 82.00 
C 14.38 84.55 17.50 87.66 20.00 90.00
C 20.62 90.38 21.39 90.54 22.00 91.00
C 18.68 88.46 13.73 83.29 11.00 80.00
C 11.36 80.43 11.68 81.47 12.00 82.00 Z"/>
</g>
<g fill="#CE6A74" fill-opacity="0.84" stroke="None">
<path d="
M 82.00 88.00 
C 84.52 86.24 86.53 83.73 89.00 82.00
C 89.00 82.00 88.80 81.10 89.00 81.00
C 86.01 82.25 84.27 85.90 82.00 88.00 Z"/>
</g>
<g fill="#F1DDD7" fill-opacity="0.20" stroke="None">
<path d="
M 20.00 90.00 
C 17.50 87.66 14.38 84.55 12.00 82.00
C 13.73 84.84 17.11 88.24 20.00 90.00 Z"/>
</g>
<g fill="#E4DAD9" fill-opacity="0.13" stroke="None">
<path d="
M 82.00 88.00 
C 81.77 88.16 82.00 89.00 82.00 89.00
C 84.32 87.17 87.63 84.80 89.00 82.00
C 86.53 83.73 84.52 86.24 82.00 88.00 Z"/>
</g>
<g fill="#EAB0B0" fill-opacity="0.38" stroke="None">
<path d="
M 61.00 98.00 
C 61.00 98.00 61.23 98.66 61.00 99.00
C 68.64 98.69 76.14 93.62 82.00 89.00
C 82.00 89.00 81.77 88.16 82.00 88.00
C 75.57 92.65 68.95 96.92 61.00 98.00 Z"/>
</g>
<g fill="#F2BEBB" fill-opacity="0.39" stroke="None">
<path d="
M 36.00 98.00 
C 32.14 96.55 25.40 93.61 22.00 91.00
C 26.28 94.21 30.70 96.58 36.00 98.00 Z"/>
</g>
<g fill="#DD8E93" fill-opacity="0.42" stroke="None">
<path d="
M 42.00 100.00 
L 59.00 100.00
C 59.00 100.00 58.77 99.34 59.00 99.00
C 53.36 99.00 47.63 99.30 42.00 99.00
C 42.00 99.00 42.00 99.50 42.00 100.00 Z"/>
</g>
</svg>