<?xml version="1.0" encoding="UTF-8" standalone="no"?>
<svg
   width="100"
   height="100"
   viewBox="0 0 100 100"
   fill="none"
   version="1.1"
   id="svg2"
   sodipodi:docname="stop.svg"
   inkscape:version="1.4 (86a8ad7, 2024-10-11)"
   xmlns:inkscape="http://www.inkscape.org/namespaces/inkscape"
   xmlns:sodipodi="http://sodipodi.sourceforge.net/DTD/sodipodi-0.dtd"
   xmlns="http://www.w3.org/2000/svg"
   xmlns:svg="http://www.w3.org/2000/svg">
  <defs
     id="defs2" />
  <sodipodi:namedview
     id="namedview2"
     pagecolor="#ffffff"
     bordercolor="#111111"
     borderopacity="1"
     inkscape:showpageshadow="0"
     inkscape:pageopacity="0"
     inkscape:pagecheckerboard="1"
     inkscape:deskcolor="#d1d1d1"
     showgrid="false"
     inkscape:zoom="1"
     inkscape:cx="23.5"
     inkscape:cy="14.5"
     inkscape:window-width="1920"
     inkscape:window-height="1017"
     inkscape:window-x="-8"
     inkscape:window-y="-8"
     inkscape:window-maximized="1"
     inkscape:current-layer="svg2" />
  <path
     fill-rule="evenodd"
     clip-rule="evenodd"
     d="m 44.375,20.625 v 0.405412 C 43.6321,20.767975 42.832675,20.625 42,20.625 c -3.935138,0 -7.125,3.189862 -7.125,7.125 v 2.780412 C 34.1321,30.267975 33.332675,30.125 32.5,30.125 c -3.935138,0 -7.125,3.189862 -7.125,7.125 V 64.62235 C 25.375,78.361962 36.513037,89.5 50.25265,89.5 c 8.639062,0 16.659437,-4.481862 21.187137,-11.839375 L 85.0616,55.52515 c 1.545412,-2.511087 1.38795,-5.714013 -0.39615,-8.061463 -2.825538,-3.717825 -8.400613,-3.766749 -11.290988,-0.09927 L 68.125,54.024862 V 27.75 c 0,-3.935138 -3.189863,-7.125 -7.125,-7.125 -0.832675,0 -1.6321,0.142975 -2.375,0.405412 V 20.625 c 0,-3.935019 -3.189863,-7.125 -7.125,-7.125 -3.935138,0 -7.125,3.189981 -7.125,7.125 z m 9.5,0 c 0,-1.311713 -1.063288,-2.375 -2.375,-2.375 -1.311712,0 -2.375,1.063287 -2.375,2.375 v 28.5 h -4.75 V 27.75 c 0,-1.311713 -1.063288,-2.375 -2.375,-2.375 -1.311712,0 -2.375,1.063287 -2.375,2.375 v 26.125 h -4.75 V 37.25 c 0,-1.311712 -1.063288,-2.375 -2.375,-2.375 -1.311713,0 -2.375,1.063288 -2.375,2.375 v 27.37235 c 0,11.116188 9.011462,20.12765 20.12765,20.12765 6.989387,0 13.4786,-3.62615 17.1418,-9.57885 L 81.016262,53.035675 c 0.517275,-0.840275 0.46455,-1.912113 -0.132525,-2.697762 -0.945725,-1.244263 -2.811287,-1.26065 -3.778625,-0.03325 l -5.249462,6.66045 C 69.0655,60.50505 63.375,58.532137 63.375,54.024862 V 27.75 c 0,-1.311713 -1.063288,-2.375 -2.375,-2.375 -1.311713,0 -2.375,1.063287 -2.375,2.375 v 21.375 h -4.75 z"
     fill="currentColor"
     id="path1"
     style="stroke-width:2.375" />
  <path
     fill-rule="evenodd"
     clip-rule="evenodd"
     d="M 51.5,4 C 77.733537,4 99,25.266462 99,51.5 99,77.733537 77.733537,99 51.5,99 25.266462,99 4,77.733537 4,51.5 4,25.266462 25.266462,4 51.5,4 Z M 94.25,51.5 C 94.25,27.889887 75.110112,8.75 51.5,8.75 27.889887,8.75 8.75,27.889887 8.75,51.5 c 0,23.610112 19.139887,42.75 42.75,42.75 23.610112,0 42.75,-19.139888 42.75,-42.75 z"
     fill="currentColor"
     id="path2"
     style="stroke-width:2.375" />
  <path
     style="fill:#ffffff;stroke:#f0e68c;stroke-width:0.0737388;stroke-opacity:0.025"
     d="M 48.108021,98.824457 C 40.849008,98.089712 35.815706,96.674877 30.040177,93.745678 17.893787,87.585349 8.8494258,76.305277 5.568256,63.224451 4.4475493,58.756601 4.1700452,56.42964 4.1700452,51.5 c 0,-4.029351 0.1518457,-5.841491 0.7414632,-8.848642 C 8.2318244,25.717147 20.13783,12.066567 36.383572,6.567731 40.896252,5.0402852 45.183096,4.2786034 50.098966,4.130795 73.377158,3.4308764 93.577718,19.6456 98.088491,42.651358 c 0.592734,3.023043 0.742678,4.815569 0.740179,8.848642 -0.0024,4.024651 -0.157368,5.87622 -0.740179,8.848642 -2.070622,10.560554 -7.524883,20.026337 -15.527232,26.94727 -7.127252,6.164094 -15.571327,9.952426 -25.088427,11.255617 -1.61519,0.221183 -8.029316,0.408103 -9.364811,0.272928 z m 8.8318,-4.848378 C 66.175809,92.747003 74.448026,88.799351 81.050047,82.470245 87.527166,76.260876 91.732279,68.639287 93.455073,59.986668 94.111129,56.691679 94.253456,55.178766 94.253456,51.5 c 0,-3.678766 -0.142334,-5.191679 -0.798383,-8.486668 C 91.749572,34.447559 87.635765,26.929521 81.270979,20.746726 79.12519,18.662291 77.586026,17.419138 75.122555,15.780754 69.641507,12.135467 63.23726,9.7969938 56.366753,8.9321798 c -1.902506,-0.239475 -7.831,-0.239475 -9.733506,0 C 33.791501,10.548614 22.828404,17.280608 15.780755,27.877445 12.135467,33.358494 9.7969938,39.762741 8.9321799,46.633247 c -0.2394752,1.902506 -0.2394752,7.831 0,9.733506 1.3828141,10.985757 6.4909591,20.597444 14.6945991,27.649947 7.017909,6.033153 15.192103,9.361131 25.14489,10.237297 1.369845,0.120603 6.480128,-0.05329 8.168152,-0.277918 z"
     id="path3" />
  <path
     style="fill:#ffffff;stroke:#f0e68c;stroke-width:0.0737388;stroke-opacity:0.025"
     d="m 47.960542,89.311071 c -4.02087,-0.377121 -8.072192,-1.826292 -11.45173,-4.096324 -5.459561,-3.667178 -9.0514,-8.986701 -10.566339,-15.64877 l -0.385665,-1.69599 -0.04902,-15.618501 c -0.03475,-11.068954 -0.0012,-15.848684 0.115045,-16.408711 0.736436,-3.547398 4.428849,-6.154093 7.859593,-5.548559 0.500609,0.08835 1.026337,0.207599 1.168284,0.264974 0.236408,0.09555 0.258084,-0.03097 0.258084,-1.506624 0,-2.843794 0.511983,-4.455894 1.894288,-5.964613 0.931014,-1.016158 1.853529,-1.620956 3.119943,-2.045428 0.81115,-0.27188 1.174112,-0.309251 2.359638,-0.242955 0.770569,0.04308 1.583539,0.12388 1.806599,0.17955 0.400417,0.09992 0.405606,0.0921 0.409167,-0.616512 0.0085,-1.719303 0.696696,-3.273316 2.053953,-4.638938 2.172939,-2.186334 5.215811,-2.741388 7.929248,-1.446384 2.194296,1.047241 3.806277,3.332992 3.981148,5.64517 0.08688,1.148721 0.08714,1.149296 0.470222,1.053968 1.029954,-0.256293 3.002085,-0.258956 3.939099,-0.0052 1.645561,0.445434 3.586502,1.996363 4.328953,3.459102 0.86336,1.700944 0.809744,0.746534 0.89015,15.845178 l 0.07374,13.846531 2.910646,-3.69341 c 3.029493,-3.844221 3.597656,-4.405044 5.221544,-5.154085 0.698858,-0.322357 1.134806,-0.409849 2.28162,-0.457907 2.272152,-0.09521 3.679428,0.423426 5.255556,1.936902 2.113031,2.029036 2.775678,5.091551 1.663222,7.686804 -0.391121,0.912451 -14.474601,23.786392 -15.391522,24.998426 -1.223061,1.616703 -2.329386,2.797163 -3.710795,3.959458 -4.154625,3.495634 -8.830723,5.459673 -14.111599,5.927114 -1.87255,0.165751 -2.42431,0.163946 -4.323072,-0.01425 z m 5.688762,-4.791208 c 2.969153,-0.504664 6.184955,-1.865843 8.593363,-3.637389 1.529307,-1.124909 3.493558,-3.121508 4.464505,-4.538031 1.087753,-1.586932 14.46015,-23.350499 14.580543,-23.72982 0.375115,-1.181883 -0.155396,-2.537113 -1.184293,-3.025353 -0.654881,-0.310762 -1.911331,-0.258224 -2.462585,0.10298 -0.197173,0.1292 -1.674345,1.907072 -3.282574,3.950822 -1.608228,2.043754 -3.183526,3.903878 -3.500661,4.133609 -0.954788,0.691645 -1.729523,0.916163 -2.941687,0.852504 -1.748271,-0.09182 -3.170426,-0.989183 -3.984828,-2.514391 L 63.593144,55.481896 63.5194,41.32407 C 63.466034,31.077477 63.398655,27.064387 63.275478,26.797549 62.431274,24.968637 59.780984,24.821547 58.83477,26.55109 c -0.235292,0.430101 -0.259115,1.353359 -0.296358,11.491609 l -0.04049,11.023931 h -2.28227 -2.282271 V 34.609112 c 0,-15.812014 0.04593,-14.981379 -0.876384,-15.849078 -0.432506,-0.406897 -0.55538,-0.442432 -1.529807,-0.442432 -1.244642,0 -1.697421,0.248945 -2.163465,1.189512 -0.291723,0.588755 -0.297099,0.861524 -0.297099,15.079559 V 49.06663 h -2.28227 -2.282275 l -0.0405,-11.023931 -0.04049,-11.023933 -0.346685,-0.557626 c -0.961384,-1.54633 -3.37911,-1.48021 -4.212075,0.115187 -0.304787,0.58377 -0.308415,0.728458 -0.348638,13.899742 l -0.04067,13.309833 h -2.278712 -2.278723 l -0.04026,-8.764189 c -0.03974,-8.647627 -0.04439,-8.769724 -0.350641,-9.180468 -1.096434,-1.470571 -3.400313,-1.305393 -4.177225,0.299495 -0.302543,0.624967 -0.305413,0.766956 -0.305003,15.073996 2.75e-4,9.58626 0.05488,14.889424 0.162426,15.770388 0.962621,7.886311 6.192274,14.285672 13.737857,16.810582 0.846567,0.283281 2.096898,0.608511 2.778506,0.722736 1.740315,0.291643 5.216348,0.292356 6.928054,0.0014 z"
     id="path4" />
  <path
     style="fill:#ffffff;stroke:#f0e68c;stroke-width:0.0737388;stroke-opacity:0.025"
     d="M 47.223157,89.159318 C 43.548942,88.691958 39.560058,87.158917 36.385229,84.993996 31.154757,81.427323 27.687146,76.281897 26.070659,69.688693 l -0.45804,-1.86823 0.03943,-16.124008 0.03942,-16.12401 0.553076,-1.158333 c 0.719864,-1.507643 1.876188,-2.660392 3.448471,-3.43781 1.097048,-0.542438 1.204465,-0.565566 2.626765,-0.565566 0.815619,0 1.724883,0.05586 2.02059,0.124142 l 0.537645,0.124141 0.104598,-1.746385 c 0.05752,-0.960512 0.165371,-2.077921 0.239665,-2.483132 0.366142,-1.997272 1.940872,-4.002758 3.889627,-4.953599 l 1.032341,-0.503702 2.175292,0.0064 c 1.196408,0.0036 2.177337,-0.02969 2.179843,-0.07374 0.06139,-1.079965 0.370668,-2.41827 0.735499,-3.182704 0.538197,-1.127688 1.951006,-2.617059 3.032844,-3.197194 2.740142,-1.469401 5.902407,-0.972484 8.099031,1.272679 1.234565,1.261846 1.806288,2.513346 2.060934,4.51141 l 0.08465,0.664105 2.178039,-4.56e-4 2.178041,-4.56e-4 1.024898,0.51617 c 1.303274,0.656367 2.820315,2.127281 3.374856,3.27224 0.310268,0.640608 0.439123,1.198284 0.545212,2.359638 0.0764,0.836425 0.18677,7.28356 0.245245,14.326967 l 0.106334,12.806194 2.698183,-3.394848 c 2.961599,-3.726283 3.973037,-4.763224 5.281502,-5.414682 0.827017,-0.411759 0.961487,-0.432644 2.786162,-0.432754 1.855108,-1.11e-4 1.949808,0.01544 2.923779,0.476632 1.211519,0.573817 2.682384,1.976314 3.252434,3.101249 1.084183,2.139533 1.087211,4.476143 0.0083,6.341917 -1.66027,2.870907 -12.828254,21.012777 -14.410982,23.409969 -3.860216,5.846666 -10.120251,9.753159 -17.254369,10.767359 -1.645898,0.233986 -4.598366,0.258206 -6.22671,0.05109 z M 54.23295,84.46025 c 4.081452,-0.831749 7.354425,-2.599585 10.337763,-5.583756 1.974765,-1.975311 1.799212,-1.716664 8.014399,-11.80797 6.888937,-11.185245 8.768795,-14.331529 8.863042,-14.833906 0.129723,-0.691514 -0.184442,-1.646233 -0.741877,-2.254506 -0.469031,-0.511801 -0.545345,-0.540246 -1.591162,-0.593057 -1.060428,-0.05356 -1.117141,-0.03912 -1.636253,0.41668 -0.295764,0.259684 -1.437267,1.595691 -2.536674,2.968904 -4.304267,5.376247 -4.585814,5.625895 -6.440796,5.711077 -1.933844,0.0888 -3.281544,-0.574819 -4.27077,-2.102958 l -0.563739,-0.870858 -0.0209,-6.134316 c -0.0114,-3.373875 -0.06493,-9.518922 -0.118702,-13.655661 -0.09243,-7.11056 -0.09935,-6.787798 -0.126564,5.909691 -0.03242,15.138974 -0.09892,14.208874 1.111882,15.555568 0.930399,1.034828 1.893849,1.498875 3.283668,1.581589 2.450147,0.145825 2.949811,-0.223915 6.631714,-4.907133 1.594246,-2.027815 3.120067,-3.836256 3.390714,-4.018758 0.893653,-0.602611 2.338649,-0.327211 2.996757,0.571149 0.35896,0.49001 0.522583,1.251865 0.394822,1.838357 -0.142476,0.654044 -14.288088,23.579097 -15.395534,24.950741 -2.908931,3.602901 -6.955068,6.06323 -11.631864,7.072971 -0.927375,0.200236 -1.876302,0.259988 -4.083891,0.257198 -2.635678,-0.0033 -3.009308,-0.03724 -4.474593,-0.405949 C 37.961125,82.196982 32.396735,76.455757 30.584387,68.607374 30.286262,67.316355 30.276656,66.862882 30.232868,52.016171 l -0.04503,-15.263907 0.333277,-0.589909 c 0.882835,-1.562646 3.011063,-1.571481 3.959301,-0.01639 0.26187,0.429448 0.279843,0.436658 0.280359,0.11248 6.93e-4,-0.435366 -0.723878,-1.126296 -1.423155,-1.357077 -1.089115,-0.359442 -2.213993,0.0064 -2.917763,0.949166 -0.302616,0.405348 -0.304067,0.481617 -0.304067,15.992181 0,17.405164 -0.05842,16.327142 1.060272,19.562821 2.001857,5.790086 6.587725,10.305262 12.579598,12.385682 2.193094,0.761458 3.369263,0.936533 6.393885,0.951745 2.092781,0.01045 2.928646,-0.04733 4.083414,-0.28266 z M 39.661183,40.549806 c 0.03757,-12.377942 0.05985,-13.418712 0.296488,-13.851245 0.426695,-0.779935 1.093865,-1.154577 2.056094,-1.154577 1.016453,0 1.521765,0.3172 2.001759,1.256572 l 0.331823,0.649394 V 38.332026 49.2141 H 46.780725 49.2141 V 34.672999 c 0,-13.18211 0.02256,-14.58882 0.242293,-15.051695 0.764541,-1.611151 3.170145,-1.654321 4.045395,-0.0726 0.291844,0.527411 0.296258,0.529411 0.212159,0.09619 -0.04724,-0.243337 -0.32221,-0.664855 -0.611048,-0.936704 -0.517258,-0.486835 -0.542571,-0.493484 -1.681842,-0.441746 -1.043314,0.04738 -1.201014,0.095 -1.609013,0.48589 -0.248783,0.238348 -0.517906,0.66941 -0.598053,0.957916 -0.09139,0.328937 -0.146039,5.900535 -0.146537,14.940467 l -8.24e-4,14.41591 h -2.190076 -2.190075 l -0.09583,-1.34995 c -0.0527,-0.742475 -0.09583,-5.730162 -0.09583,-11.083752 v -9.7338 l -0.385776,-0.505777 c -0.588663,-0.771776 -1.182872,-1.069387 -2.136401,-1.070023 -0.910724,-6.08e-4 -1.552793,0.327856 -2.1098,1.079314 -0.306175,0.413057 -0.30918,0.518236 -0.395938,13.86287 -0.04807,7.395662 -0.09785,13.463248 -0.110604,13.483526 -0.01283,0.02019 -0.985474,0.03686 -2.161606,0.03686 -1.176132,0 -2.150556,-0.01662 -2.165388,-0.03686 -0.01473,-0.02019 -0.06709,-3.88603 -0.116114,-8.590556 l -0.08916,-8.553688 -0.03135,8.664294 -0.03135,8.664297 h 2.429619 2.429617 z m 18.960649,-2.212161 -0.03083,-10.876455 -0.09134,10.765847 c -0.05023,5.921217 -0.10272,10.782438 -0.11666,10.802718 -0.01401,0.02019 -1.020467,0.03686 -2.236756,0.03686 h -2.211434 l -0.03833,-14.41591 -0.03834,-14.415913 -0.03612,14.489652 -0.03614,14.489649 h 2.433375 2.433378 z m 4.489559,-11.969351 c -0.525661,-0.709933 -1.18744,-1.045525 -2.061754,-1.045525 -0.445431,0 -1.035326,0.10982 -1.322896,0.24628 -0.581934,0.276146 -1.072707,0.970026 -1.073538,1.517827 -4.55e-4,0.300561 0.05657,0.251263 0.331273,-0.28632 0.182495,-0.357167 0.506746,-0.776715 0.720539,-0.93233 0.564538,-0.410913 1.586746,-0.489148 2.254006,-0.17252 0.614131,0.291424 1.253442,1.129153 1.289031,1.689104 0.01686,0.266749 0.04085,0.229663 0.08485,-0.13167 0.04144,-0.34028 -0.03021,-0.626517 -0.221517,-0.884863 z"
     id="path5" />
</svg>
