<svg xmlns="http://www.w3.org/2000/svg" xmlns:v="https://svgstorm.com"
viewBox = "0 0 88 98"
width="88"
height="98">
<g fill="None" fill-opacity="0.0" stroke="#000000" stroke-opacity="0.00" stroke-width="0.3"><path d="
M 0.00 98.00 
L 88.00 98.00
L 88.00 0.00
L 0.00 0.00
L 0.00 98.00
M 47.00 11.00 
C 47.98 13.05 47.80 13.02 47.00 15.00
C 47.00 15.50 47.01 17.00 47.00 17.00
C 46.77 17.00 46.04 18.79 46.00 19.00
C 46.61 18.61 48.20 18.40 49.00 18.00
C 49.72 17.63 50.19 17.18 51.00 17.00
C 51.80 16.83 53.18 16.91 54.00 17.00
C 56.33 17.24 57.44 17.46 60.00 17.00
C 61.71 16.69 61.18 16.24 63.00 17.00
C 65.37 17.99 65.00 17.60 66.00 20.00
C 66.78 21.86 66.66 21.22 66.00 23.00
C 65.76 25.02 64.70 26.01 63.00 27.00
C 61.81 29.22 61.93 31.46 62.00 34.00
C 62.03 35.00 62.00 36.00 62.00 37.00
C 62.00 38.33 62.00 39.67 62.00 41.00
C 62.00 41.50 62.00 42.00 62.00 42.00
C 62.20 44.98 61.26 47.16 61.00 50.00
C 59.00 50.00 57.00 50.00 55.00 50.00
C 55.60 52.03 55.78 53.92 56.00 56.00
C 56.29 58.76 57.01 62.57 57.00 66.00
C 57.14 66.56 58.80 67.82 58.00 69.00
C 62.90 72.74 63.09 79.38 67.00 84.00
C 67.46 84.55 68.51 85.50 69.00 86.00
C 71.38 88.42 73.24 89.27 70.00 92.00
C 68.67 93.12 66.57 93.26 65.00 94.00
C 63.58 94.93 64.04 95.61 62.00 96.00
C 59.67 96.70 56.40 96.49 56.00 94.00
C 55.84 92.98 60.28 90.11 61.00 89.00
C 62.06 87.10 61.63 86.91 61.00 85.00
C 59.90 81.70 53.12 71.93 50.00 71.00
C 48.12 71.44 47.59 70.88 46.00 71.00
C 44.79 71.42 44.74 72.29 44.00 73.00
C 45.32 75.29 45.97 77.68 47.00 80.00
C 47.71 81.15 48.35 81.65 49.00 83.00
C 50.72 86.59 55.15 90.34 53.00 94.00
C 51.34 88.45 46.40 84.57 45.00 78.00
C 44.22 76.68 42.81 75.61 42.00 74.00
C 41.92 73.84 41.01 72.00 41.00 72.00
C 41.00 71.95 39.44 72.17 39.00 72.00
C 36.76 79.06 34.93 83.96 32.00 91.00
C 31.41 92.42 32.45 94.52 32.00 96.00
C 27.59 95.75 22.26 95.91 19.00 93.00
C 17.38 91.79 15.18 90.82 17.00 89.00
C 17.26 88.15 24.54 88.71 26.00 89.00
C 30.89 87.02 29.13 76.96 33.00 74.00
C 32.92 73.51 33.00 73.00 33.00 73.00
C 32.36 72.34 31.39 69.59 33.00 69.00
C 32.81 67.61 29.79 61.27 30.00 58.00 C 30.21 54.73 28.39 49.34 27.00 47.00
C 23.17 40.54 26.29 42.66 33.00 42.00
C 32.64 38.17 26.70 40.77 24.00 40.00
C 23.25 36.76 24.62 34.13 27.00 34.00
C 29.98 36.88 33.91 37.41 38.00 37.00
C 37.77 36.66 38.00 36.00 38.00 36.00
C 37.05 34.98 37.11 34.55 37.00 33.00
C 36.37 30.85 37.34 28.86 38.00 27.00
C 38.46 25.70 38.29 26.01 39.00 25.00
C 39.56 24.21 40.33 22.56 41.00 22.00
C 34.86 22.29 34.84 14.96 36.00 11.00
C 36.32 9.91 35.38 7.95 39.00 8.00
C 43.04 7.26 45.44 7.73 47.00 11.00
M 36.00 91.00 
C 39.18 89.04 36.63 93.28 38.00 95.00
C 35.97 95.64 35.94 93.31 36.00 92.00
C 34.69 90.72 34.99 88.91 35.00 87.00
C 38.22 86.56 35.87 89.46 36.00 91.00 Z"/>
</g>
<g fill="None" fill-opacity="0.0" stroke="#89898A" stroke-opacity="0.51" stroke-width="0.3"><path d="
M 36.00 11.00 
C 36.32 9.29 37.75 9.36 39.00 9.00
C 39.13 8.96 39.00 8.00 39.00 8.00
C 35.38 7.95 36.32 9.91 36.00 11.00 Z"/>
</g>
<g fill="None" fill-opacity="0.0" stroke="#747474" stroke-opacity="0.78" stroke-width="0.3"><path d="
M 39.00 9.00 
C 40.95 8.93 46.10 8.53 47.00 11.00
C 45.44 7.73 43.04 7.26 39.00 8.00
C 39.00 8.00 39.13 8.96 39.00 9.00 Z"/>
</g>
<g fill="None" fill-opacity="0.0" stroke="#38332F" stroke-opacity="0.99" stroke-width="0.3"><path d="
M 36.00 11.00 
C 38.66 9.49 44.34 20.32 47.00 17.00
C 47.01 17.00 47.00 15.50 47.00 15.00
C 47.00 13.92 47.37 12.01 47.00 11.00
C 46.10 8.53 40.95 8.93 39.00 9.00
C 37.75 9.36 36.32 9.29 36.00 11.00 Z"/>
</g>
<g fill="None" fill-opacity="0.0" stroke="#E3C1AB" stroke-opacity="0.93" stroke-width="0.3"><path d="
M 41.00 22.00 
C 41.70 21.41 44.01 20.64 45.00 20.00
C 45.35 19.77 46.00 20.00 46.00 20.00
C 45.80 19.60 46.00 19.00 46.00 19.00
C 46.04 18.79 46.77 17.00 47.00 17.00
C 44.34 20.32 38.66 9.49 36.00 11.00
C 34.84 14.96 34.86 22.29 41.00 22.00 Z"/>
</g>
<g fill="None" fill-opacity="0.0" stroke="#A7A7A8" stroke-opacity="0.71" stroke-width="0.3"><path d="
M 47.00 15.00 
C 47.80 13.02 47.98 13.05 47.00 11.00
C 47.37 12.01 47.00 13.92 47.00 15.00 Z"/>
</g>
<g fill="None" fill-opacity="0.0" stroke="#BEC5CB" stroke-opacity="0.29" stroke-width="0.3"><path d="
M 60.00 17.00 
C 60.57 16.83 62.42 16.84 63.00 17.00
C 61.18 16.24 61.71 16.69 60.00 17.00 Z"/>
</g>
<g fill="None" fill-opacity="0.0" stroke="#868B8E" stroke-opacity="0.76" stroke-width="0.3"><path d="
M 49.00 18.00 
C 48.59 18.41 48.10 19.43 48.00 20.00
C 48.62 19.54 50.64 17.13 51.00 17.00
C 50.19 17.18 49.72 17.63 49.00 18.00 Z"/>
</g>
<g fill="None" fill-opacity="0.0" stroke="#233848" stroke-opacity="0.98" stroke-width="0.3"><path d="
M 48.00 20.00 
C 47.91 20.48 48.00 21.00 48.00 21.00
C 47.49 22.65 45.22 21.65 44.00 22.00
C 43.48 22.52 42.58 22.65 42.00 23.00
C 41.21 23.73 38.42 26.25 38.00 27.00
C 37.34 28.86 36.37 30.85 37.00 33.00
C 37.20 33.68 38.08 33.75 38.00 35.00
C 38.74 34.63 40.00 37.00 40.00 37.00
C 40.89 36.74 41.05 35.85 41.00 35.00
C 40.97 34.50 41.00 34.00 41.00 34.00
C 34.90 31.22 43.48 21.17 48.01 23.01 C 52.53 24.85 51.95 37.01 48.00 39.00
C 47.60 39.20 47.00 39.00 47.00 39.00
C 46.49 40.59 47.15 40.77 46.00 42.00
C 45.75 42.27 46.00 43.00 46.00 43.00
C 49.06 44.25 48.53 47.38 51.00 49.00
C 51.99 49.65 52.77 49.99 54.00 50.00
C 54.50 50.00 55.00 50.00 55.00 50.00
C 57.00 50.00 59.00 50.00 61.00 50.00
C 61.26 47.16 62.20 44.98 62.00 42.00
C 60.87 42.02 59.44 40.15 58.00 41.00
C 57.22 37.69 58.54 36.15 61.00 35.00
C 57.34 34.26 57.88 30.33 58.00 27.00
C 59.28 26.47 59.86 27.97 61.00 28.00
C 61.29 28.00 62.74 27.15 63.00 27.00
C 64.70 26.01 65.76 25.02 66.00 23.00
C 66.09 22.26 66.20 20.72 66.00 20.00
C 65.85 19.48 63.50 17.14 63.00 17.00
C 62.42 16.84 60.57 16.83 60.00 17.00
C 55.50 18.30 55.78 23.35 59.00 26.00
C 55.29 25.39 53.46 20.58 54.00 17.00
C 53.18 16.91 51.80 16.83 51.00 17.00
C 50.64 17.13 48.62 19.54 48.00 20.00 Z"/>
</g>
<g fill="None" fill-opacity="0.0" stroke="#527992" stroke-opacity="0.92" stroke-width="0.3"><path d="
M 60.00 17.00 
C 57.44 17.46 56.33 17.24 54.00 17.00
C 53.46 20.58 55.29 25.39 59.00 26.00
C 55.78 23.35 55.50 18.30 60.00 17.00 Z"/>
</g>
<g fill="None" fill-opacity="0.0" stroke="#667375" stroke-opacity="0.58" stroke-width="0.3"><path d="
M 66.00 20.00 
C 65.00 17.60 65.37 17.99 63.00 17.00
C 63.50 17.14 65.85 19.48 66.00 20.00 Z"/>
</g>
<g fill="None" fill-opacity="0.0" stroke="#A8B5BC" stroke-opacity="0.17" stroke-width="0.3"><path d="
M 46.00 19.00 
C 46.00 19.00 45.80 19.60 46.00 20.00
C 46.30 20.05 47.71 21.31 48.00 21.00
C 48.00 21.00 47.91 20.48 48.00 20.00
C 48.10 19.43 48.59 18.41 49.00 18.00
C 48.20 18.40 46.61 18.61 46.00 19.00 Z"/>
</g>
<g fill="None" fill-opacity="0.0" stroke="#A3B2B9" stroke-opacity="0.87" stroke-width="0.3"><path d="
M 41.00 22.00 
C 40.33 22.56 39.56 24.21 39.00 25.00
C 39.76 24.21 41.10 23.55 42.00 23.00
C 42.58 22.65 43.48 22.52 44.00 22.00
C 44.26 21.74 44.81 20.09 45.00 20.00
C 44.01 20.64 41.70 21.41 41.00 22.00 Z"/>
</g>
<g fill="None" fill-opacity="0.0" stroke="#578BA8" stroke-opacity="1.00" stroke-width="0.3"><path d="
M 44.00 22.00 
C 45.22 21.65 47.49 22.65 48.00 21.00
C 47.71 21.31 46.30 20.05 46.00 20.00
C 46.00 20.00 45.35 19.77 45.00 20.00
C 44.81 20.09 44.26 21.74 44.00 22.00 Z"/>
</g>
<g fill="None" fill-opacity="0.0" stroke="#C7C7CA" stroke-opacity="0.67" stroke-width="0.3"><path d="
M 66.00 23.00 
C 66.66 21.22 66.78 21.86 66.00 20.00
C 66.20 20.72 66.09 22.26 66.00 23.00 Z"/>
</g>
<g fill="None" fill-opacity="0.0" stroke="#557384" stroke-opacity="0.71" stroke-width="0.3"><path d="
M 39.00 25.00 
C 38.29 26.01 38.46 25.70 38.00 27.00
C 38.42 26.25 41.21 23.73 42.00 23.00
C 41.10 23.55 39.76 24.21 39.00 25.00 Z"/>
</g>
<g fill="None" fill-opacity="0.0" stroke="#2E85BB" stroke-opacity="1.00" stroke-width="0.3"><path d="
M 41.00 34.00 
C 42.87 32.06 46.40 33.40 49.00 33.00
C 49.52 35.23 47.46 36.73 48.00 39.00
C 51.95 37.01 52.53 24.85 48.01 23.01 C 43.48 21.17 34.90 31.22 41.00 34.00 Z"/>
</g>
<g fill="None" fill-opacity="0.0" stroke="#3A8CB6" stroke-opacity="0.96" stroke-width="0.3"><path d="
M 62.00 42.00 
C 62.00 42.00 62.00 41.50 62.00 41.00
C 60.24 39.19 61.71 38.57 62.00 37.00
C 62.00 36.00 62.03 35.00 62.00 34.00
C 61.75 32.73 59.99 29.90 61.00 28.00
C 59.86 27.97 59.28 26.47 58.00 27.00
C 57.88 30.33 57.34 34.26 61.00 35.00
C 58.54 36.15 57.22 37.69 58.00 41.00
C 59.44 40.15 60.87 42.02 62.00 42.00 Z"/>
</g>
<g fill="None" fill-opacity="0.0" stroke="#97BED5" stroke-opacity="0.67" stroke-width="0.3"><path d="
M 61.00 28.00 
C 59.99 29.90 61.75 32.73 62.00 34.00
C 61.93 31.46 61.81 29.22 63.00 27.00
C 62.74 27.15 61.29 28.00 61.00 28.00 Z"/>
</g>
<g fill="None" fill-opacity="0.0" stroke="#9AA9B3" stroke-opacity="0.51" stroke-width="0.3"><path d="
M 38.00 36.00 
C 38.00 35.50 38.00 35.00 38.00 35.00
C 38.08 33.75 37.20 33.68 37.00 33.00
C 37.11 34.55 37.05 34.98 38.00 36.00 Z"/>
</g>
<g fill="None" fill-opacity="0.0" stroke="#B2C0C8" stroke-opacity="1.00" stroke-width="0.3"><path d="
M 41.00 34.00 
C 41.00 34.00 40.97 34.50 41.00 35.00
C 43.20 33.88 45.47 33.83 48.00 34.00
C 48.05 35.76 46.47 37.07 47.00 39.00
C 47.00 39.00 47.60 39.20 48.00 39.00
C 47.46 36.73 49.52 35.23 49.00 33.00
C 46.40 33.40 42.87 32.06 41.00 34.00 Z"/>
</g>
<g fill="None" fill-opacity="0.0" stroke="#E9C4AE" stroke-opacity="0.96" stroke-width="0.3"><path d="
M 27.00 47.00 
C 27.01 47.00 29.50 46.12 30.00 46.00
C 32.81 45.34 35.27 43.85 38.00 43.00
C 40.34 42.27 43.02 41.73 46.00 42.00
C 47.15 40.77 46.49 40.59 47.00 39.00
C 46.47 37.07 48.05 35.76 48.00 34.00
C 45.47 33.83 43.20 33.88 41.00 35.00
C 41.05 35.85 40.89 36.74 40.00 37.00
C 39.54 37.13 38.50 36.97 38.00 37.00
C 33.91 37.41 29.98 36.88 27.00 34.00
C 24.62 34.13 23.25 36.76 24.00 40.00
C 26.70 40.77 32.64 38.17 33.00 42.00
C 26.29 42.66 23.17 40.54 27.00 47.00 Z"/>
</g>
<g fill="None" fill-opacity="0.0" stroke="#4D7485" stroke-opacity="1.00" stroke-width="0.3"><path d="
M 38.00 36.00 
C 38.00 36.00 37.77 36.66 38.00 37.00
C 38.50 36.97 39.54 37.13 40.00 37.00
C 40.00 37.00 38.74 34.63 38.00 35.00
C 38.00 35.00 38.00 35.50 38.00 36.00 Z"/>
</g>
<g fill="None" fill-opacity="0.0" stroke="#7DB5C8" stroke-opacity="1.00" stroke-width="0.3"><path d="
M 62.00 41.00 
C 62.00 39.67 62.00 38.33 62.00 37.00
C 61.71 38.57 60.24 39.19 62.00 41.00 Z"/>
</g>
<g fill="None" fill-opacity="0.0" stroke="#A6C3CC" stroke-opacity="1.00" stroke-width="0.3"><path d="
M 38.00 43.00 
C 36.59 45.02 39.08 49.72 39.00 51.00
C 39.00 48.33 39.00 45.67 39.00 43.00
C 41.33 43.00 43.67 43.00 46.00 43.00
C 46.00 43.00 45.75 42.27 46.00 42.00
C 43.02 41.73 40.34 42.27 38.00 43.00 Z"/>
</g>
<g fill="None" fill-opacity="0.0" stroke="#000000" stroke-opacity="0.00" stroke-width="0.3"><path d="
M 30.00 46.00 
C 29.49 50.10 36.22 53.41 37.00 57.00
C 37.26 55.83 37.59 55.13 38.00 54.00
C 38.22 53.39 38.96 51.67 39.00 51.00
C 39.08 49.72 36.59 45.02 38.00 43.00
C 35.27 43.85 32.81 45.34 30.00 46.00 Z"/>
</g>
<g fill="None" fill-opacity="0.0" stroke="#3094C9" stroke-opacity="1.00" stroke-width="0.3"><path d="
M 39.00 51.00 
C 39.99 50.36 44.47 50.31 46.00 51.00 C 47.53 51.69 50.53 49.03 51.00 49.00
C 48.53 47.38 49.06 44.25 46.00 43.00
C 43.67 43.00 41.33 43.00 39.00 43.00
C 39.00 45.67 39.00 48.33 39.00 51.00 Z"/>
</g>
<g fill="None" fill-opacity="0.0" stroke="#A5A4A4" stroke-opacity="0.65" stroke-width="0.3"><path d="
M 27.00 47.00 
C 28.39 49.34 30.21 54.73 30.00 58.00 C 29.79 61.27 32.81 67.61 33.00 69.00
C 33.00 69.00 33.94 66.24 34.00 66.00
C 33.86 62.41 29.97 57.41 31.00 53.00
C 32.61 54.61 33.48 57.14 35.00 59.00
C 35.23 59.26 35.92 59.65 36.00 60.00
C 36.38 59.06 36.71 58.30 37.00 57.00
C 36.22 53.41 29.49 50.10 30.00 46.00
C 29.50 46.12 27.01 47.00 27.00 47.00 Z"/>
</g>
<g fill="None" fill-opacity="0.0" stroke="#546472" stroke-opacity="1.00" stroke-width="0.3"><path d="
M 39.00 51.00 
C 38.96 51.67 38.22 53.39 38.00 54.00
C 40.63 50.21 49.57 52.28 54.00 51.00
C 54.09 50.52 54.00 50.00 54.00 50.00
C 52.77 49.99 51.99 49.65 51.00 49.00
C 50.53 49.03 47.53 51.69 46.00 51.00 C 44.47 50.31 39.99 50.36 39.00 51.00 Z"/>
</g>
<g fill="None" fill-opacity="0.0" stroke="#726764" stroke-opacity="0.62" stroke-width="0.3"><path d="
M 54.00 51.00 
C 53.33 54.39 55.54 54.60 56.00 56.00
C 55.78 53.92 55.60 52.03 55.00 50.00
C 55.00 50.00 54.50 50.00 54.00 50.00
C 54.00 50.00 54.09 50.52 54.00 51.00 Z"/>
</g>
<g fill="None" fill-opacity="0.0" stroke="#5C4139" stroke-opacity="0.99" stroke-width="0.3"><path d="
M 38.00 54.00 
C 37.59 55.13 37.26 55.83 37.00 57.00
C 36.71 58.30 36.38 59.06 36.00 60.00
C 35.60 60.99 35.46 61.20 35.00 62.00
C 34.84 63.09 34.29 64.83 34.00 66.00
C 33.94 66.24 33.00 69.00 33.00 69.00
C 33.09 69.25 33.91 69.65 34.00 70.00
C 35.40 70.66 37.76 71.53 39.00 72.00
C 39.44 72.17 41.00 71.95 41.00 72.00
C 41.02 72.25 42.77 72.96 43.00 73.00
C 43.67 70.69 45.21 71.06 46.00 71.00
C 47.59 70.88 48.12 71.44 50.00 71.00
C 52.48 70.41 54.29 69.10 57.00 69.00
C 56.74 68.76 57.00 66.39 57.00 66.00
C 57.01 62.57 56.29 58.76 56.00 56.00
C 55.54 54.60 53.33 54.39 54.00 51.00
C 49.57 52.28 40.63 50.21 38.00 54.00 Z"/>
</g>
<g fill="None" fill-opacity="0.0" stroke="#000000" stroke-opacity="0.00" stroke-width="0.3"><path d="
M 34.00 66.00 
C 34.29 64.83 34.84 63.09 35.00 62.00
C 35.11 61.26 35.19 59.72 35.00 59.00
C 33.48 57.14 32.61 54.61 31.00 53.00
C 29.97 57.41 33.86 62.41 34.00 66.00 Z"/>
</g>
<g fill="None" fill-opacity="0.0" stroke="#AB9D98" stroke-opacity="1.00" stroke-width="0.3"><path d="
M 35.00 62.00 
C 35.46 61.20 35.60 60.99 36.00 60.00
C 35.92 59.65 35.23 59.26 35.00 59.00
C 35.19 59.72 35.11 61.26 35.00 62.00 Z"/>
</g>
<g fill="None" fill-opacity="0.0" stroke="#BCA6A3" stroke-opacity="0.58" stroke-width="0.3"><path d="
M 57.00 69.00 
C 57.50 68.98 58.00 69.00 58.00 69.00
C 58.80 67.82 57.14 66.56 57.00 66.00
C 57.00 66.39 56.74 68.76 57.00 69.00 Z"/>
</g>
<g fill="None" fill-opacity="0.0" stroke="#A69992" stroke-opacity="0.99" stroke-width="0.3"><path d="
M 33.00 73.00 
C 33.03 72.65 33.89 72.26 34.00 72.00
C 33.99 71.50 34.12 70.47 34.00 70.00
C 33.91 69.65 33.09 69.25 33.00 69.00
C 31.39 69.59 32.36 72.34 33.00 73.00 Z"/>
</g>
<g fill="None" fill-opacity="0.0" stroke="#F0C8B0" stroke-opacity="0.89" stroke-width="0.3"><path d="
M 50.00 71.00 
C 53.12 71.93 59.90 81.70 61.00 85.00
C 63.06 83.99 64.95 82.98 67.00 84.00
C 63.09 79.38 62.90 72.74 58.00 69.00
C 58.00 69.00 57.50 68.98 57.00 69.00
C 54.29 69.10 52.48 70.41 50.00 71.00 Z"/>
</g>
<g fill="None" fill-opacity="0.0" stroke="#E0C0AD" stroke-opacity="0.91" stroke-width="0.3"><path d="
M 34.00 72.00 
C 34.09 75.45 35.46 78.40 35.00 82.00
C 33.57 79.96 33.53 76.64 33.00 74.00
C 29.13 76.96 30.89 87.02 26.00 89.00
C 28.22 89.44 29.48 91.42 32.00 91.00
C 34.93 83.96 36.76 79.06 39.00 72.00
C 37.76 71.53 35.40 70.66 34.00 70.00
C 34.12 70.47 33.99 71.50 34.00 72.00 Z"/>
</g>
<g fill="None" fill-opacity="0.0" stroke="#968C8C" stroke-opacity="0.18" stroke-width="0.3"><path d="
M 43.00 73.00 
C 43.48 73.09 44.00 73.00 44.00 73.00
C 44.74 72.29 44.79 71.42 46.00 71.00
C 45.21 71.06 43.67 70.69 43.00 73.00 Z"/>
</g>
<g fill="None" fill-opacity="0.0" stroke="#725748" stroke-opacity="1.00" stroke-width="0.3"><path d="
M 33.00 73.00 
C 33.00 73.00 32.92 73.51 33.00 74.00
C 33.53 76.64 33.57 79.96 35.00 82.00
C 35.46 78.40 34.09 75.45 34.00 72.00
C 33.89 72.26 33.03 72.65 33.00 73.00 Z"/>
</g>
<g fill="None" fill-opacity="0.0" stroke="#656769" stroke-opacity="0.69" stroke-width="0.3"><path d="
M 42.00 74.00 
C 43.18 75.43 44.14 76.18 45.00 78.00
C 46.40 84.57 51.34 88.45 53.00 94.00
C 55.15 90.34 50.72 86.59 49.00 83.00
C 48.41 82.08 47.52 81.17 47.00 80.00
C 45.97 77.68 45.32 75.29 44.00 73.00
C 44.00 73.00 43.48 73.09 43.00 73.00
C 42.77 72.96 41.02 72.25 41.00 72.00
C 41.01 72.00 41.92 73.84 42.00 74.00 Z"/>
</g>
<g fill="None" fill-opacity="0.0" stroke="#AEAEB1" stroke-opacity="0.60" stroke-width="0.3"><path d="
M 45.00 78.00 
C 44.14 76.18 43.18 75.43 42.00 74.00
C 42.81 75.61 44.22 76.68 45.00 78.00 Z"/>
</g>
<g fill="None" fill-opacity="0.0" stroke="#B2B3B4" stroke-opacity="0.62" stroke-width="0.3"><path d="
M 49.00 83.00 
C 48.35 81.65 47.71 81.15 47.00 80.00
C 47.52 81.17 48.41 82.08 49.00 83.00 Z"/>
</g>
<g fill="None" fill-opacity="0.0" stroke="#B7A7A0" stroke-opacity="0.85" stroke-width="0.3"><path d="
M 61.00 85.00 
C 61.63 86.91 62.06 87.10 61.00 89.00
C 61.15 88.77 62.00 89.00 62.00 89.00
C 63.12 86.79 68.90 88.40 69.00 86.00
C 68.51 85.50 67.46 84.55 67.00 84.00
C 64.95 82.98 63.06 83.99 61.00 85.00 Z"/>
</g>
<g fill="None" fill-opacity="0.0" stroke="#5D4741" stroke-opacity="0.95" stroke-width="0.3"><path d="
M 62.00 89.00 
C 60.95 91.52 58.24 92.96 56.00 94.00
C 56.40 96.49 59.67 96.70 62.00 96.00
C 62.65 95.80 64.12 94.41 65.00 94.00
C 66.57 93.26 68.67 93.12 70.00 92.00
C 71.86 89.74 70.40 87.90 69.00 86.00
C 68.90 88.40 63.12 86.79 62.00 89.00 Z"/>
</g>
<g fill="None" fill-opacity="0.0" stroke="#A29793" stroke-opacity="0.67" stroke-width="0.3"><path d="
M 70.00 92.00 
C 73.24 89.27 71.38 88.42 69.00 86.00
C 70.40 87.90 71.86 89.74 70.00 92.00 Z"/>
</g>
<g fill="None" fill-opacity="0.0" stroke="#8D9193" stroke-opacity="0.58" stroke-width="0.3"><path d="
M 36.00 92.00 
C 35.90 91.52 36.00 91.00 36.00 91.00
C 35.87 89.46 38.22 86.56 35.00 87.00
C 34.99 88.91 34.69 90.72 36.00 92.00 Z"/>
</g>
<g fill="None" fill-opacity="0.0" stroke="#5F4944" stroke-opacity="0.93" stroke-width="0.3"><path d="
M 17.00 89.00 
C 16.66 90.10 18.29 92.31 19.00 93.00
C 22.26 95.91 27.59 95.75 32.00 96.00
C 32.45 94.52 31.41 92.42 32.00 91.00
C 29.48 91.42 28.22 89.44 26.00 89.00
C 24.54 88.71 17.26 88.15 17.00 89.00 Z"/>
</g>
<g fill="None" fill-opacity="0.0" stroke="#A59A97" stroke-opacity="0.80" stroke-width="0.3"><path d="
M 19.00 93.00 
C 18.29 92.31 16.66 90.10 17.00 89.00
C 15.18 90.82 17.38 91.79 19.00 93.00 Z"/>
</g>
<g fill="None" fill-opacity="0.0" stroke="#9E908D" stroke-opacity="0.60" stroke-width="0.3"><path d="
M 56.00 94.00 
C 58.24 92.96 60.95 91.52 62.00 89.00
C 62.00 89.00 61.15 88.77 61.00 89.00
C 60.28 90.11 55.84 92.98 56.00 94.00 Z"/>
</g>
<g fill="None" fill-opacity="0.0" stroke="#73777B" stroke-opacity="0.77" stroke-width="0.3"><path d="
M 36.00 91.00 
C 36.00 91.00 35.90 91.52 36.00 92.00
C 35.94 93.31 35.97 95.64 38.00 95.00
C 36.63 93.28 39.18 89.04 36.00 91.00 Z"/>
</g>
<g fill="None" fill-opacity="0.0" stroke="#86807E" stroke-opacity="0.40" stroke-width="0.3"><path d="
M 62.00 96.00 
C 64.04 95.61 63.58 94.93 65.00 94.00
C 64.12 94.41 62.65 95.80 62.00 96.00 Z"/>
</g>
<g fill="#000000" fill-opacity="0.00" stroke="None">
<path d="
M 0.00 98.00 
L 88.00 98.00
L 88.00 0.00
L 0.00 0.00
L 0.00 98.00
M 47.00 11.00 
C 47.98 13.05 47.80 13.02 47.00 15.00
C 47.00 15.50 47.01 17.00 47.00 17.00
C 46.77 17.00 46.04 18.79 46.00 19.00
C 46.61 18.61 48.20 18.40 49.00 18.00
C 49.72 17.63 50.19 17.18 51.00 17.00
C 51.80 16.83 53.18 16.91 54.00 17.00
C 56.33 17.24 57.44 17.46 60.00 17.00
C 61.71 16.69 61.18 16.24 63.00 17.00
C 65.37 17.99 65.00 17.60 66.00 20.00
C 66.78 21.86 66.66 21.22 66.00 23.00
C 65.76 25.02 64.70 26.01 63.00 27.00
C 61.81 29.22 61.93 31.46 62.00 34.00
C 62.03 35.00 62.00 36.00 62.00 37.00
C 62.00 38.33 62.00 39.67 62.00 41.00
C 62.00 41.50 62.00 42.00 62.00 42.00
C 62.20 44.98 61.26 47.16 61.00 50.00
C 59.00 50.00 57.00 50.00 55.00 50.00
C 55.60 52.03 55.78 53.92 56.00 56.00
C 56.29 58.76 57.01 62.57 57.00 66.00
C 57.14 66.56 58.80 67.82 58.00 69.00
C 62.90 72.74 63.09 79.38 67.00 84.00
C 67.46 84.55 68.51 85.50 69.00 86.00
C 71.38 88.42 73.24 89.27 70.00 92.00
C 68.67 93.12 66.57 93.26 65.00 94.00
C 63.58 94.93 64.04 95.61 62.00 96.00
C 59.67 96.70 56.40 96.49 56.00 94.00
C 55.84 92.98 60.28 90.11 61.00 89.00
C 62.06 87.10 61.63 86.91 61.00 85.00
C 59.90 81.70 53.12 71.93 50.00 71.00
C 48.12 71.44 47.59 70.88 46.00 71.00
C 44.79 71.42 44.74 72.29 44.00 73.00
C 45.32 75.29 45.97 77.68 47.00 80.00
C 47.71 81.15 48.35 81.65 49.00 83.00
C 50.72 86.59 55.15 90.34 53.00 94.00
C 51.34 88.45 46.40 84.57 45.00 78.00
C 44.22 76.68 42.81 75.61 42.00 74.00
C 41.92 73.84 41.01 72.00 41.00 72.00
C 41.00 71.95 39.44 72.17 39.00 72.00
C 36.76 79.06 34.93 83.96 32.00 91.00
C 31.41 92.42 32.45 94.52 32.00 96.00
C 27.59 95.75 22.26 95.91 19.00 93.00
C 17.38 91.79 15.18 90.82 17.00 89.00
C 17.26 88.15 24.54 88.71 26.00 89.00
C 30.89 87.02 29.13 76.96 33.00 74.00
C 32.92 73.51 33.00 73.00 33.00 73.00
C 32.36 72.34 31.39 69.59 33.00 69.00
C 32.81 67.61 29.79 61.27 30.00 58.00 C 30.21 54.73 28.39 49.34 27.00 47.00
C 23.17 40.54 26.29 42.66 33.00 42.00
C 32.64 38.17 26.70 40.77 24.00 40.00
C 23.25 36.76 24.62 34.13 27.00 34.00
C 29.98 36.88 33.91 37.41 38.00 37.00
C 37.77 36.66 38.00 36.00 38.00 36.00
C 37.05 34.98 37.11 34.55 37.00 33.00
C 36.37 30.85 37.34 28.86 38.00 27.00
C 38.46 25.70 38.29 26.01 39.00 25.00
C 39.56 24.21 40.33 22.56 41.00 22.00
C 34.86 22.29 34.84 14.96 36.00 11.00
C 36.32 9.91 35.38 7.95 39.00 8.00
C 43.04 7.26 45.44 7.73 47.00 11.00
M 36.00 91.00 
C 39.18 89.04 36.63 93.28 38.00 95.00
C 35.97 95.64 35.94 93.31 36.00 92.00
C 34.69 90.72 34.99 88.91 35.00 87.00
C 38.22 86.56 35.87 89.46 36.00 91.00 Z"/>
</g>
<g fill="#89898A" fill-opacity="0.51" stroke="None">
<path d="
M 36.00 11.00 
C 36.32 9.29 37.75 9.36 39.00 9.00
C 39.13 8.96 39.00 8.00 39.00 8.00
C 35.38 7.95 36.32 9.91 36.00 11.00 Z"/>
</g>
<g fill="#747474" fill-opacity="0.78" stroke="None">
<path d="
M 39.00 9.00 
C 40.95 8.93 46.10 8.53 47.00 11.00
C 45.44 7.73 43.04 7.26 39.00 8.00
C 39.00 8.00 39.13 8.96 39.00 9.00 Z"/>
</g>
<g fill="#38332F" fill-opacity="0.99" stroke="None">
<path d="
M 36.00 11.00 
C 38.66 9.49 44.34 20.32 47.00 17.00
C 47.01 17.00 47.00 15.50 47.00 15.00
C 47.00 13.92 47.37 12.01 47.00 11.00
C 46.10 8.53 40.95 8.93 39.00 9.00
C 37.75 9.36 36.32 9.29 36.00 11.00 Z"/>
</g>
<g fill="#E3C1AB" fill-opacity="0.93" stroke="None">
<path d="
M 41.00 22.00 
C 41.70 21.41 44.01 20.64 45.00 20.00
C 45.35 19.77 46.00 20.00 46.00 20.00
C 45.80 19.60 46.00 19.00 46.00 19.00
C 46.04 18.79 46.77 17.00 47.00 17.00
C 44.34 20.32 38.66 9.49 36.00 11.00
C 34.84 14.96 34.86 22.29 41.00 22.00 Z"/>
</g>
<g fill="#A7A7A8" fill-opacity="0.71" stroke="None">
<path d="
M 47.00 15.00 
C 47.80 13.02 47.98 13.05 47.00 11.00
C 47.37 12.01 47.00 13.92 47.00 15.00 Z"/>
</g>
<g fill="#BEC5CB" fill-opacity="0.29" stroke="None">
<path d="
M 60.00 17.00 
C 60.57 16.83 62.42 16.84 63.00 17.00
C 61.18 16.24 61.71 16.69 60.00 17.00 Z"/>
</g>
<g fill="#868B8E" fill-opacity="0.76" stroke="None">
<path d="
M 49.00 18.00 
C 48.59 18.41 48.10 19.43 48.00 20.00
C 48.62 19.54 50.64 17.13 51.00 17.00
C 50.19 17.18 49.72 17.63 49.00 18.00 Z"/>
</g>
<g fill="#233848" fill-opacity="0.98" stroke="None">
<path d="
M 48.00 20.00 
C 47.91 20.48 48.00 21.00 48.00 21.00
C 47.49 22.65 45.22 21.65 44.00 22.00
C 43.48 22.52 42.58 22.65 42.00 23.00
C 41.21 23.73 38.42 26.25 38.00 27.00
C 37.34 28.86 36.37 30.85 37.00 33.00
C 37.20 33.68 38.08 33.75 38.00 35.00
C 38.74 34.63 40.00 37.00 40.00 37.00
C 40.89 36.74 41.05 35.85 41.00 35.00
C 40.97 34.50 41.00 34.00 41.00 34.00
C 34.90 31.22 43.48 21.17 48.01 23.01 C 52.53 24.85 51.95 37.01 48.00 39.00
C 47.60 39.20 47.00 39.00 47.00 39.00
C 46.49 40.59 47.15 40.77 46.00 42.00
C 45.75 42.27 46.00 43.00 46.00 43.00
C 49.06 44.25 48.53 47.38 51.00 49.00
C 51.99 49.65 52.77 49.99 54.00 50.00
C 54.50 50.00 55.00 50.00 55.00 50.00
C 57.00 50.00 59.00 50.00 61.00 50.00
C 61.26 47.16 62.20 44.98 62.00 42.00
C 60.87 42.02 59.44 40.15 58.00 41.00
C 57.22 37.69 58.54 36.15 61.00 35.00
C 57.34 34.26 57.88 30.33 58.00 27.00
C 59.28 26.47 59.86 27.97 61.00 28.00
C 61.29 28.00 62.74 27.15 63.00 27.00
C 64.70 26.01 65.76 25.02 66.00 23.00
C 66.09 22.26 66.20 20.72 66.00 20.00
C 65.85 19.48 63.50 17.14 63.00 17.00
C 62.42 16.84 60.57 16.83 60.00 17.00
C 55.50 18.30 55.78 23.35 59.00 26.00
C 55.29 25.39 53.46 20.58 54.00 17.00
C 53.18 16.91 51.80 16.83 51.00 17.00
C 50.64 17.13 48.62 19.54 48.00 20.00 Z"/>
</g>
<g fill="#527992" fill-opacity="0.92" stroke="None">
<path d="
M 60.00 17.00 
C 57.44 17.46 56.33 17.24 54.00 17.00
C 53.46 20.58 55.29 25.39 59.00 26.00
C 55.78 23.35 55.50 18.30 60.00 17.00 Z"/>
</g>
<g fill="#667375" fill-opacity="0.58" stroke="None">
<path d="
M 66.00 20.00 
C 65.00 17.60 65.37 17.99 63.00 17.00
C 63.50 17.14 65.85 19.48 66.00 20.00 Z"/>
</g>
<g fill="#A8B5BC" fill-opacity="0.17" stroke="None">
<path d="
M 46.00 19.00 
C 46.00 19.00 45.80 19.60 46.00 20.00
C 46.30 20.05 47.71 21.31 48.00 21.00
C 48.00 21.00 47.91 20.48 48.00 20.00
C 48.10 19.43 48.59 18.41 49.00 18.00
C 48.20 18.40 46.61 18.61 46.00 19.00 Z"/>
</g>
<g fill="#A3B2B9" fill-opacity="0.87" stroke="None">
<path d="
M 41.00 22.00 
C 40.33 22.56 39.56 24.21 39.00 25.00
C 39.76 24.21 41.10 23.55 42.00 23.00
C 42.58 22.65 43.48 22.52 44.00 22.00
C 44.26 21.74 44.81 20.09 45.00 20.00
C 44.01 20.64 41.70 21.41 41.00 22.00 Z"/>
</g>
<g fill="#578BA8" fill-opacity="1.00" stroke="None">
<path d="
M 44.00 22.00 
C 45.22 21.65 47.49 22.65 48.00 21.00
C 47.71 21.31 46.30 20.05 46.00 20.00
C 46.00 20.00 45.35 19.77 45.00 20.00
C 44.81 20.09 44.26 21.74 44.00 22.00 Z"/>
</g>
<g fill="#C7C7CA" fill-opacity="0.67" stroke="None">
<path d="
M 66.00 23.00 
C 66.66 21.22 66.78 21.86 66.00 20.00
C 66.20 20.72 66.09 22.26 66.00 23.00 Z"/>
</g>
<g fill="#557384" fill-opacity="0.71" stroke="None">
<path d="
M 39.00 25.00 
C 38.29 26.01 38.46 25.70 38.00 27.00
C 38.42 26.25 41.21 23.73 42.00 23.00
C 41.10 23.55 39.76 24.21 39.00 25.00 Z"/>
</g>
<g fill="#2E85BB" fill-opacity="1.00" stroke="None">
<path d="
M 41.00 34.00 
C 42.87 32.06 46.40 33.40 49.00 33.00
C 49.52 35.23 47.46 36.73 48.00 39.00
C 51.95 37.01 52.53 24.85 48.01 23.01 C 43.48 21.17 34.90 31.22 41.00 34.00 Z"/>
</g>
<g fill="#3A8CB6" fill-opacity="0.96" stroke="None">
<path d="
M 62.00 42.00 
C 62.00 42.00 62.00 41.50 62.00 41.00
C 60.24 39.19 61.71 38.57 62.00 37.00
C 62.00 36.00 62.03 35.00 62.00 34.00
C 61.75 32.73 59.99 29.90 61.00 28.00
C 59.86 27.97 59.28 26.47 58.00 27.00
C 57.88 30.33 57.34 34.26 61.00 35.00
C 58.54 36.15 57.22 37.69 58.00 41.00
C 59.44 40.15 60.87 42.02 62.00 42.00 Z"/>
</g>
<g fill="#97BED5" fill-opacity="0.67" stroke="None">
<path d="
M 61.00 28.00 
C 59.99 29.90 61.75 32.73 62.00 34.00
C 61.93 31.46 61.81 29.22 63.00 27.00
C 62.74 27.15 61.29 28.00 61.00 28.00 Z"/>
</g>
<g fill="#9AA9B3" fill-opacity="0.51" stroke="None">
<path d="
M 38.00 36.00 
C 38.00 35.50 38.00 35.00 38.00 35.00
C 38.08 33.75 37.20 33.68 37.00 33.00
C 37.11 34.55 37.05 34.98 38.00 36.00 Z"/>
</g>
<g fill="#B2C0C8" fill-opacity="1.00" stroke="None">
<path d="
M 41.00 34.00 
C 41.00 34.00 40.97 34.50 41.00 35.00
C 43.20 33.88 45.47 33.83 48.00 34.00
C 48.05 35.76 46.47 37.07 47.00 39.00
C 47.00 39.00 47.60 39.20 48.00 39.00
C 47.46 36.73 49.52 35.23 49.00 33.00
C 46.40 33.40 42.87 32.06 41.00 34.00 Z"/>
</g>
<g fill="#E9C4AE" fill-opacity="0.96" stroke="None">
<path d="
M 27.00 47.00 
C 27.01 47.00 29.50 46.12 30.00 46.00
C 32.81 45.34 35.27 43.85 38.00 43.00
C 40.34 42.27 43.02 41.73 46.00 42.00
C 47.15 40.77 46.49 40.59 47.00 39.00
C 46.47 37.07 48.05 35.76 48.00 34.00
C 45.47 33.83 43.20 33.88 41.00 35.00
C 41.05 35.85 40.89 36.74 40.00 37.00
C 39.54 37.13 38.50 36.97 38.00 37.00
C 33.91 37.41 29.98 36.88 27.00 34.00
C 24.62 34.13 23.25 36.76 24.00 40.00
C 26.70 40.77 32.64 38.17 33.00 42.00
C 26.29 42.66 23.17 40.54 27.00 47.00 Z"/>
</g>
<g fill="#4D7485" fill-opacity="1.00" stroke="None">
<path d="
M 38.00 36.00 
C 38.00 36.00 37.77 36.66 38.00 37.00
C 38.50 36.97 39.54 37.13 40.00 37.00
C 40.00 37.00 38.74 34.63 38.00 35.00
C 38.00 35.00 38.00 35.50 38.00 36.00 Z"/>
</g>
<g fill="#7DB5C8" fill-opacity="1.00" stroke="None">
<path d="
M 62.00 41.00 
C 62.00 39.67 62.00 38.33 62.00 37.00
C 61.71 38.57 60.24 39.19 62.00 41.00 Z"/>
</g>
<g fill="#A6C3CC" fill-opacity="1.00" stroke="None">
<path d="
M 38.00 43.00 
C 36.59 45.02 39.08 49.72 39.00 51.00
C 39.00 48.33 39.00 45.67 39.00 43.00
C 41.33 43.00 43.67 43.00 46.00 43.00
C 46.00 43.00 45.75 42.27 46.00 42.00
C 43.02 41.73 40.34 42.27 38.00 43.00 Z"/>
</g>
<g fill="#000000" fill-opacity="0.00" stroke="None">
<path d="
M 30.00 46.00 
C 29.49 50.10 36.22 53.41 37.00 57.00
C 37.26 55.83 37.59 55.13 38.00 54.00
C 38.22 53.39 38.96 51.67 39.00 51.00
C 39.08 49.72 36.59 45.02 38.00 43.00
C 35.27 43.85 32.81 45.34 30.00 46.00 Z"/>
</g>
<g fill="#3094C9" fill-opacity="1.00" stroke="None">
<path d="
M 39.00 51.00 
C 39.99 50.36 44.47 50.31 46.00 51.00 C 47.53 51.69 50.53 49.03 51.00 49.00
C 48.53 47.38 49.06 44.25 46.00 43.00
C 43.67 43.00 41.33 43.00 39.00 43.00
C 39.00 45.67 39.00 48.33 39.00 51.00 Z"/>
</g>
<g fill="#A5A4A4" fill-opacity="0.65" stroke="None">
<path d="
M 27.00 47.00 
C 28.39 49.34 30.21 54.73 30.00 58.00 C 29.79 61.27 32.81 67.61 33.00 69.00
C 33.00 69.00 33.94 66.24 34.00 66.00
C 33.86 62.41 29.97 57.41 31.00 53.00
C 32.61 54.61 33.48 57.14 35.00 59.00
C 35.23 59.26 35.92 59.65 36.00 60.00
C 36.38 59.06 36.71 58.30 37.00 57.00
C 36.22 53.41 29.49 50.10 30.00 46.00
C 29.50 46.12 27.01 47.00 27.00 47.00 Z"/>
</g>
<g fill="#546472" fill-opacity="1.00" stroke="None">
<path d="
M 39.00 51.00 
C 38.96 51.67 38.22 53.39 38.00 54.00
C 40.63 50.21 49.57 52.28 54.00 51.00
C 54.09 50.52 54.00 50.00 54.00 50.00
C 52.77 49.99 51.99 49.65 51.00 49.00
C 50.53 49.03 47.53 51.69 46.00 51.00 C 44.47 50.31 39.99 50.36 39.00 51.00 Z"/>
</g>
<g fill="#726764" fill-opacity="0.62" stroke="None">
<path d="
M 54.00 51.00 
C 53.33 54.39 55.54 54.60 56.00 56.00
C 55.78 53.92 55.60 52.03 55.00 50.00
C 55.00 50.00 54.50 50.00 54.00 50.00
C 54.00 50.00 54.09 50.52 54.00 51.00 Z"/>
</g>
<g fill="#5C4139" fill-opacity="0.99" stroke="None">
<path d="
M 38.00 54.00 
C 37.59 55.13 37.26 55.83 37.00 57.00
C 36.71 58.30 36.38 59.06 36.00 60.00
C 35.60 60.99 35.46 61.20 35.00 62.00
C 34.84 63.09 34.29 64.83 34.00 66.00
C 33.94 66.24 33.00 69.00 33.00 69.00
C 33.09 69.25 33.91 69.65 34.00 70.00
C 35.40 70.66 37.76 71.53 39.00 72.00
C 39.44 72.17 41.00 71.95 41.00 72.00
C 41.02 72.25 42.77 72.96 43.00 73.00
C 43.67 70.69 45.21 71.06 46.00 71.00
C 47.59 70.88 48.12 71.44 50.00 71.00
C 52.48 70.41 54.29 69.10 57.00 69.00
C 56.74 68.76 57.00 66.39 57.00 66.00
C 57.01 62.57 56.29 58.76 56.00 56.00
C 55.54 54.60 53.33 54.39 54.00 51.00
C 49.57 52.28 40.63 50.21 38.00 54.00 Z"/>
</g>
<g fill="#000000" fill-opacity="0.00" stroke="None">
<path d="
M 34.00 66.00 
C 34.29 64.83 34.84 63.09 35.00 62.00
C 35.11 61.26 35.19 59.72 35.00 59.00
C 33.48 57.14 32.61 54.61 31.00 53.00
C 29.97 57.41 33.86 62.41 34.00 66.00 Z"/>
</g>
<g fill="#AB9D98" fill-opacity="1.00" stroke="None">
<path d="
M 35.00 62.00 
C 35.46 61.20 35.60 60.99 36.00 60.00
C 35.92 59.65 35.23 59.26 35.00 59.00
C 35.19 59.72 35.11 61.26 35.00 62.00 Z"/>
</g>
<g fill="#BCA6A3" fill-opacity="0.58" stroke="None">
<path d="
M 57.00 69.00 
C 57.50 68.98 58.00 69.00 58.00 69.00
C 58.80 67.82 57.14 66.56 57.00 66.00
C 57.00 66.39 56.74 68.76 57.00 69.00 Z"/>
</g>
<g fill="#A69992" fill-opacity="0.99" stroke="None">
<path d="
M 33.00 73.00 
C 33.03 72.65 33.89 72.26 34.00 72.00
C 33.99 71.50 34.12 70.47 34.00 70.00
C 33.91 69.65 33.09 69.25 33.00 69.00
C 31.39 69.59 32.36 72.34 33.00 73.00 Z"/>
</g>
<g fill="#F0C8B0" fill-opacity="0.89" stroke="None">
<path d="
M 50.00 71.00 
C 53.12 71.93 59.90 81.70 61.00 85.00
C 63.06 83.99 64.95 82.98 67.00 84.00
C 63.09 79.38 62.90 72.74 58.00 69.00
C 58.00 69.00 57.50 68.98 57.00 69.00
C 54.29 69.10 52.48 70.41 50.00 71.00 Z"/>
</g>
<g fill="#E0C0AD" fill-opacity="0.91" stroke="None">
<path d="
M 34.00 72.00 
C 34.09 75.45 35.46 78.40 35.00 82.00
C 33.57 79.96 33.53 76.64 33.00 74.00
C 29.13 76.96 30.89 87.02 26.00 89.00
C 28.22 89.44 29.48 91.42 32.00 91.00
C 34.93 83.96 36.76 79.06 39.00 72.00
C 37.76 71.53 35.40 70.66 34.00 70.00
C 34.12 70.47 33.99 71.50 34.00 72.00 Z"/>
</g>
<g fill="#968C8C" fill-opacity="0.18" stroke="None">
<path d="
M 43.00 73.00 
C 43.48 73.09 44.00 73.00 44.00 73.00
C 44.74 72.29 44.79 71.42 46.00 71.00
C 45.21 71.06 43.67 70.69 43.00 73.00 Z"/>
</g>
<g fill="#725748" fill-opacity="1.00" stroke="None">
<path d="
M 33.00 73.00 
C 33.00 73.00 32.92 73.51 33.00 74.00
C 33.53 76.64 33.57 79.96 35.00 82.00
C 35.46 78.40 34.09 75.45 34.00 72.00
C 33.89 72.26 33.03 72.65 33.00 73.00 Z"/>
</g>
<g fill="#656769" fill-opacity="0.69" stroke="None">
<path d="
M 42.00 74.00 
C 43.18 75.43 44.14 76.18 45.00 78.00
C 46.40 84.57 51.34 88.45 53.00 94.00
C 55.15 90.34 50.72 86.59 49.00 83.00
C 48.41 82.08 47.52 81.17 47.00 80.00
C 45.97 77.68 45.32 75.29 44.00 73.00
C 44.00 73.00 43.48 73.09 43.00 73.00
C 42.77 72.96 41.02 72.25 41.00 72.00
C 41.01 72.00 41.92 73.84 42.00 74.00 Z"/>
</g>
<g fill="#AEAEB1" fill-opacity="0.60" stroke="None">
<path d="
M 45.00 78.00 
C 44.14 76.18 43.18 75.43 42.00 74.00
C 42.81 75.61 44.22 76.68 45.00 78.00 Z"/>
</g>
<g fill="#B2B3B4" fill-opacity="0.62" stroke="None">
<path d="
M 49.00 83.00 
C 48.35 81.65 47.71 81.15 47.00 80.00
C 47.52 81.17 48.41 82.08 49.00 83.00 Z"/>
</g>
<g fill="#B7A7A0" fill-opacity="0.85" stroke="None">
<path d="
M 61.00 85.00 
C 61.63 86.91 62.06 87.10 61.00 89.00
C 61.15 88.77 62.00 89.00 62.00 89.00
C 63.12 86.79 68.90 88.40 69.00 86.00
C 68.51 85.50 67.46 84.55 67.00 84.00
C 64.95 82.98 63.06 83.99 61.00 85.00 Z"/>
</g>
<g fill="#5D4741" fill-opacity="0.95" stroke="None">
<path d="
M 62.00 89.00 
C 60.95 91.52 58.24 92.96 56.00 94.00
C 56.40 96.49 59.67 96.70 62.00 96.00
C 62.65 95.80 64.12 94.41 65.00 94.00
C 66.57 93.26 68.67 93.12 70.00 92.00
C 71.86 89.74 70.40 87.90 69.00 86.00
C 68.90 88.40 63.12 86.79 62.00 89.00 Z"/>
</g>
<g fill="#A29793" fill-opacity="0.67" stroke="None">
<path d="
M 70.00 92.00 
C 73.24 89.27 71.38 88.42 69.00 86.00
C 70.40 87.90 71.86 89.74 70.00 92.00 Z"/>
</g>
<g fill="#8D9193" fill-opacity="0.58" stroke="None">
<path d="
M 36.00 92.00 
C 35.90 91.52 36.00 91.00 36.00 91.00
C 35.87 89.46 38.22 86.56 35.00 87.00
C 34.99 88.91 34.69 90.72 36.00 92.00 Z"/>
</g>
<g fill="#5F4944" fill-opacity="0.93" stroke="None">
<path d="
M 17.00 89.00 
C 16.66 90.10 18.29 92.31 19.00 93.00
C 22.26 95.91 27.59 95.75 32.00 96.00
C 32.45 94.52 31.41 92.42 32.00 91.00
C 29.48 91.42 28.22 89.44 26.00 89.00
C 24.54 88.71 17.26 88.15 17.00 89.00 Z"/>
</g>
<g fill="#A59A97" fill-opacity="0.80" stroke="None">
<path d="
M 19.00 93.00 
C 18.29 92.31 16.66 90.10 17.00 89.00
C 15.18 90.82 17.38 91.79 19.00 93.00 Z"/>
</g>
<g fill="#9E908D" fill-opacity="0.60" stroke="None">
<path d="
M 56.00 94.00 
C 58.24 92.96 60.95 91.52 62.00 89.00
C 62.00 89.00 61.15 88.77 61.00 89.00
C 60.28 90.11 55.84 92.98 56.00 94.00 Z"/>
</g>
<g fill="#73777B" fill-opacity="0.77" stroke="None">
<path d="
M 36.00 91.00 
C 36.00 91.00 35.90 91.52 36.00 92.00
C 35.94 93.31 35.97 95.64 38.00 95.00
C 36.63 93.28 39.18 89.04 36.00 91.00 Z"/>
</g>
<g fill="#86807E" fill-opacity="0.40" stroke="None">
<path d="
M 62.00 96.00 
C 64.04 95.61 63.58 94.93 65.00 94.00
C 64.12 94.41 62.65 95.80 62.00 96.00 Z"/>
</g>
</svg>