<svg xmlns="http://www.w3.org/2000/svg" xmlns:v="https://svgstorm.com"
viewBox = "0 0 85 107"
width="85"
height="107">
<g fill="None" fill-opacity="0.0" stroke="#000000" stroke-opacity="0.01" stroke-width="0.3"><path d="
M 0.00 107.00 
L 85.00 107.00
L 85.00 0.00
L 0.00 0.00
L 0.00 107.00
M 26.00 23.00 
C 28.21 24.42 31.83 28.50 34.00 29.00
C 34.39 28.79 35.50 29.00 36.00 29.00
C 36.50 29.00 37.00 29.00 37.00 29.00
C 38.84 27.21 39.48 28.85 41.00 29.00
C 42.59 29.00 44.43 28.74 46.00 29.00
C 47.51 29.25 48.14 31.65 50.00 31.00
C 54.42 25.06 60.11 22.40 68.00 21.00
C 68.46 25.33 71.90 31.47 69.00 36.00
C 68.00 42.34 67.90 46.30 64.00 50.00
C 66.55 52.03 65.36 57.83 69.00 56.00
C 69.78 58.30 70.17 59.60 68.00 61.00
C 67.66 61.84 67.46 62.54 66.00 64.00
C 64.51 65.87 63.77 65.87 62.00 67.00
C 63.21 70.78 66.09 68.83 69.00 69.00
C 73.40 76.79 72.73 84.64 71.00 93.00
C 69.87 94.72 59.31 97.50 57.00 97.00
C 47.38 94.91 46.28 79.25 47.00 74.00
C 44.45 76.74 34.34 73.67 30.92 73.08 C 27.50 72.49 21.97 69.37 19.00 67.00
C 16.88 65.31 10.17 61.09 10.00 58.00
C 9.83 54.95 10.80 56.47 12.00 55.00
C 16.21 46.60 15.87 45.75 14.00 36.00
C 13.54 33.63 13.97 30.13 14.00 30.00
C 14.29 25.86 15.46 22.29 17.00 18.00
C 20.28 19.53 23.41 20.55 26.00 23.00 Z"/>
</g>
<g fill="None" fill-opacity="0.0" stroke="#8E8681" stroke-opacity="1.00" stroke-width="0.3"><path d="
M 14.00 30.00 
C 13.86 31.93 13.86 34.07 14.00 36.00
C 15.87 45.75 16.21 46.60 12.00 55.00
C 12.07 54.85 12.18 58.36 10.00 58.00
C 10.17 61.09 16.88 65.31 19.00 67.00
C 18.97 66.78 19.89 65.22 20.00 65.00
C 22.95 59.25 29.26 56.25 35.00 54.00
C 36.86 53.27 36.21 53.34 38.00 54.00
C 40.20 54.32 44.47 57.92 45.00 60.00
C 49.47 54.98 51.81 61.32 53.00 65.00
C 53.01 65.03 55.48 70.38 55.00 70.00
C 55.19 70.02 56.84 69.11 57.00 69.00
C 61.63 65.84 68.19 62.91 59.00 62.00
C 61.44 62.08 64.40 61.65 66.00 60.00
C 64.49 58.68 59.60 61.69 58.00 59.00
C 60.86 59.35 63.39 58.73 66.00 58.00
C 62.32 52.62 61.11 46.33 60.00 40.00
C 59.92 39.51 60.00 39.00 60.00 39.00
C 57.27 37.09 55.26 33.64 52.00 33.00
C 54.00 31.69 55.80 29.24 58.00 28.00
C 59.98 26.42 67.20 20.63 66.00 25.00
C 65.93 25.27 66.75 25.75 67.00 26.00
C 69.36 28.31 69.06 32.68 69.00 36.00
C 71.90 31.47 68.46 25.33 68.00 21.00
C 60.11 22.40 54.42 25.06 50.00 31.00
C 48.14 31.65 47.51 29.25 46.00 29.00
C 43.36 32.55 39.48 35.39 39.00 40.00
C 36.43 37.26 36.09 32.84 36.00 29.00
C 35.50 29.00 34.39 28.79 34.00 29.00
C 32.63 29.72 30.91 31.02 29.00 31.00
C 30.71 28.29 27.17 25.45 26.00 23.00
C 23.41 20.55 20.28 19.53 17.00 18.00
C 15.46 22.29 14.29 25.86 14.00 30.00
M 27.00 30.00 
C 26.48 31.65 26.11 31.69 25.00 33.00
C 23.75 34.48 22.29 35.71 21.00 37.00
C 20.28 37.85 19.36 39.74 18.00 40.00
C 18.69 41.66 18.42 42.10 18.00 44.00
C 16.61 43.26 16.35 39.68 18.00 39.00
C 17.22 37.52 17.17 36.68 17.00 35.00
C 16.34 32.23 16.35 30.72 17.00 28.00
C 17.54 25.74 17.53 22.41 20.00 22.00
C 22.43 21.60 27.21 29.33 27.00 30.00
M 29.00 36.00 
C 24.99 39.76 22.57 35.45 29.00 36.00
M 54.00 39.00 
C 49.11 40.52 48.78 34.65 54.00 39.00
M 30.00 45.00 
C 30.34 45.15 30.74 45.78 31.00 46.00
C 31.85 46.71 31.86 46.78 32.00 48.00
C 32.18 49.60 31.89 52.69 31.00 54.00
C 28.44 57.78 22.79 55.68 21.00 52.00
C 20.17 50.29 19.24 48.69 21.00 47.00
C 21.12 46.74 21.81 46.32 22.00 46.00
C 21.70 44.52 22.53 43.21 25.00 43.00
C 26.70 41.24 28.80 43.40 30.00 45.00
M 52.00 44.00 
C 54.03 44.03 56.24 46.18 57.00 48.00
C 58.75 49.51 57.44 50.81 57.00 52.00
C 55.82 55.18 54.25 56.05 52.00 56.00
C 50.67 55.97 49.33 55.97 48.00 56.00
C 45.23 56.06 43.00 54.21 44.00 50.00
C 44.01 47.29 50.37 40.39 52.00 44.00 Z"/>
</g>
<g fill="None" fill-opacity="0.0" stroke="#DEB49D" stroke-opacity="1.00" stroke-width="0.3"><path d="
M 17.00 28.00 
C 16.76 30.16 16.78 32.84 17.00 35.00
C 17.17 36.68 17.22 37.52 18.00 39.00
C 18.21 39.39 18.00 40.00 18.00 40.00
C 19.36 39.74 20.28 37.85 21.00 37.00
C 22.26 35.51 23.67 34.29 25.00 33.00
C 26.11 31.69 26.48 31.65 27.00 30.00
C 27.13 26.97 20.27 25.02 20.00 22.00
C 17.53 22.41 17.54 25.74 17.00 28.00 Z"/>
</g>
<g fill="None" fill-opacity="0.0" stroke="#382C27" stroke-opacity="1.00" stroke-width="0.3"><path d="
M 27.00 30.00 
C 27.21 29.33 22.43 21.60 20.00 22.00
C 20.27 25.02 27.13 26.97 27.00 30.00 Z"/>
</g>
<g fill="None" fill-opacity="0.0" stroke="#4D4D50" stroke-opacity="1.00" stroke-width="0.3"><path d="
M 34.00 29.00 
C 31.83 28.50 28.21 24.42 26.00 23.00
C 27.17 25.45 30.71 28.29 29.00 31.00
C 30.91 31.02 32.63 29.72 34.00 29.00 Z"/>
</g>
<g fill="None" fill-opacity="0.0" stroke="#7A6156" stroke-opacity="1.00" stroke-width="0.3"><path d="
M 58.00 28.00 
C 56.36 29.53 54.64 31.70 55.00 33.00
C 58.69 31.29 61.66 25.18 66.00 25.00
C 67.20 20.63 59.98 26.42 58.00 28.00 Z"/>
</g>
<g fill="None" fill-opacity="0.0" stroke="#D9AF98" stroke-opacity="1.00" stroke-width="0.3"><path d="
M 55.00 33.00 
C 55.66 35.39 58.93 36.81 60.00 39.00
C 60.00 39.00 59.92 39.51 60.00 40.00
C 61.26 41.57 62.03 44.01 64.00 45.00
C 65.94 38.95 67.72 32.77 67.00 26.00
C 66.75 25.75 65.93 25.27 66.00 25.00
C 61.66 25.18 58.69 31.29 55.00 33.00 Z"/>
</g>
<g fill="None" fill-opacity="0.0" stroke="#665F5E" stroke-opacity="1.00" stroke-width="0.3"><path d="
M 60.00 40.00 
C 61.11 46.33 62.32 52.62 66.00 58.00
C 63.39 58.73 60.86 59.35 58.00 59.00
C 59.60 61.69 64.49 58.68 66.00 60.00
C 64.40 61.65 61.44 62.08 59.00 62.00
C 68.19 62.91 61.63 65.84 57.00 69.00
C 59.04 68.86 59.47 68.62 62.00 67.00
C 63.77 65.87 64.51 65.87 66.00 64.00
C 66.74 63.07 67.37 61.96 68.00 61.00
C 70.17 59.60 69.78 58.30 69.00 56.00
C 65.36 57.83 66.55 52.03 64.00 50.00
C 67.90 46.30 68.00 42.34 69.00 36.00
C 69.06 32.68 69.36 28.31 67.00 26.00
C 67.72 32.77 65.94 38.95 64.00 45.00
C 62.03 44.01 61.26 41.57 60.00 40.00 Z"/>
</g>
<g fill="None" fill-opacity="0.0" stroke="#433E3C" stroke-opacity="1.00" stroke-width="0.3"><path d="
M 17.00 35.00 
C 16.78 32.84 16.76 30.16 17.00 28.00
C 16.35 30.72 16.34 32.23 17.00 35.00 Z"/>
</g>
<g fill="None" fill-opacity="0.0" stroke="#BFBEBD" stroke-opacity="1.00" stroke-width="0.3"><path d="
M 37.00 29.00 
C 38.33 29.00 39.67 29.00 41.00 29.00
C 39.48 28.85 38.84 27.21 37.00 29.00 Z"/>
</g>
<g fill="None" fill-opacity="0.0" stroke="#302926" stroke-opacity="1.00" stroke-width="0.3"><path d="
M 60.00 39.00 
C 58.93 36.81 55.66 35.39 55.00 33.00
C 54.64 31.70 56.36 29.53 58.00 28.00
C 55.80 29.24 54.00 31.69 52.00 33.00
C 55.26 33.64 57.27 37.09 60.00 39.00 Z"/>
</g>
<g fill="None" fill-opacity="0.0" stroke="#F1F0F0" stroke-opacity="1.00" stroke-width="0.3"><path d="
M 14.00 36.00 
C 13.86 34.07 13.86 31.93 14.00 30.00
C 13.97 30.13 13.54 33.63 14.00 36.00 Z"/>
</g>
<g fill="None" fill-opacity="0.0" stroke="#4A4C53" stroke-opacity="1.00" stroke-width="0.3"><path d="
M 46.00 29.00 
C 44.43 28.74 42.59 29.00 41.00 29.00
C 39.67 29.00 38.33 29.00 37.00 29.00
C 37.00 29.00 36.50 29.00 36.00 29.00
C 36.09 32.84 36.43 37.26 39.00 40.00
C 39.48 35.39 43.36 32.55 46.00 29.00 Z"/>
</g>
<g fill="None" fill-opacity="0.0" stroke="#27221E" stroke-opacity="1.00" stroke-width="0.3"><path d="
M 21.00 37.00 
C 22.29 35.71 23.75 34.48 25.00 33.00
C 23.67 34.29 22.26 35.51 21.00 37.00 Z"/>
</g>
<g fill="None" fill-opacity="0.0" stroke="#35322D" stroke-opacity="1.00" stroke-width="0.3"><path d="
M 29.00 36.00 
C 22.57 35.45 24.99 39.76 29.00 36.00 Z"/>
</g>
<g fill="None" fill-opacity="0.0" stroke="#2C2A2A" stroke-opacity="1.00" stroke-width="0.3"><path d="
M 54.00 39.00 
C 48.78 34.65 49.11 40.52 54.00 39.00 Z"/>
</g>
<g fill="None" fill-opacity="0.0" stroke="#302B29" stroke-opacity="1.00" stroke-width="0.3"><path d="
M 18.00 40.00 
C 18.00 40.00 18.21 39.39 18.00 39.00
C 16.35 39.68 16.61 43.26 18.00 44.00
C 18.42 42.10 18.69 41.66 18.00 40.00 Z"/>
</g>
<g fill="None" fill-opacity="0.0" stroke="#3E3B39" stroke-opacity="1.00" stroke-width="0.3"><path d="
M 25.00 43.00 
C 24.96 43.00 25.00 44.00 25.00 44.00
C 25.50 43.97 26.51 43.92 27.00 44.00
C 27.65 44.11 29.40 44.74 30.00 45.00
C 28.80 43.40 26.70 41.24 25.00 43.00 Z"/>
</g>
<g fill="None" fill-opacity="0.0" stroke="#000000" stroke-opacity="1.00" stroke-width="0.3"><path d="
M 22.00 46.00 
C 22.83 44.58 23.28 44.10 25.00 44.00
C 25.00 44.00 24.96 43.00 25.00 43.00
C 22.53 43.21 21.70 44.52 22.00 46.00 Z"/>
</g>
<g fill="None" fill-opacity="0.0" stroke="#4A4A43" stroke-opacity="1.00" stroke-width="0.3"><path d="
M 44.00 50.00 
C 44.03 49.89 45.00 50.00 45.00 50.00
C 45.50 50.00 46.00 50.00 46.00 50.00
C 46.50 50.00 47.00 50.00 47.00 50.00
C 47.25 49.75 47.00 49.00 47.00 49.00
C 46.06 48.03 46.02 46.25 48.00 46.00
C 49.01 45.30 49.90 45.56 51.00 45.00
C 51.27 44.86 51.67 43.99 52.00 44.00
C 50.37 40.39 44.01 47.29 44.00 50.00 Z"/>
</g>
<g fill="None" fill-opacity="0.0" stroke="#E3E4E0" stroke-opacity="1.00" stroke-width="0.3"><path d="
M 22.00 46.00 
C 21.81 46.32 21.12 46.74 21.00 47.00
C 20.62 47.84 20.77 51.09 21.00 52.00
C 22.79 55.68 28.44 57.78 31.00 54.00
C 27.80 57.32 20.60 52.58 23.00 48.00
C 22.72 48.98 28.04 45.85 27.00 46.00
C 25.60 45.45 25.06 44.07 27.00 44.00
C 26.51 43.92 25.50 43.97 25.00 44.00
C 23.28 44.10 22.83 44.58 22.00 46.00 Z"/>
</g>
<g fill="None" fill-opacity="0.0" stroke="#7E9543" stroke-opacity="1.00" stroke-width="0.3"><path d="
M 27.00 46.00 
C 27.64 46.25 31.08 46.97 31.00 46.00
C 30.74 45.78 30.34 45.15 30.00 45.00
C 29.40 44.74 27.65 44.11 27.00 44.00
C 25.06 44.07 25.60 45.45 27.00 46.00 Z"/>
</g>
<g fill="None" fill-opacity="0.0" stroke="#040403" stroke-opacity="1.00" stroke-width="0.3"><path d="
M 51.00 45.00 
C 53.24 45.72 54.91 45.32 56.00 48.00
C 56.07 48.18 57.00 48.00 57.00 48.00
C 56.24 46.18 54.03 44.03 52.00 44.00
C 51.67 43.99 51.27 44.86 51.00 45.00 Z"/>
</g>
<g fill="None" fill-opacity="0.0" stroke="#DDDDDB" stroke-opacity="1.00" stroke-width="0.3"><path d="
M 48.00 46.00 
C 54.81 44.38 58.25 54.52 52.00 56.00
C 54.25 56.05 55.82 55.18 57.00 52.00
C 57.17 50.19 56.35 49.57 56.00 48.00
C 54.91 45.32 53.24 45.72 51.00 45.00
C 49.90 45.56 49.01 45.30 48.00 46.00 Z"/>
</g>
<g fill="None" fill-opacity="0.0" stroke="#000000" stroke-opacity="1.00" stroke-width="0.3"><path d="
M 23.00 48.00 
C 22.24 50.68 26.89 54.69 30.00 53.00
C 30.56 51.40 30.50 48.97 32.00 48.00
C 31.86 46.78 31.85 46.71 31.00 46.00
C 31.08 46.97 27.64 46.25 27.00 46.00
C 28.04 45.85 22.72 48.98 23.00 48.00 Z"/>
</g>
<g fill="None" fill-opacity="0.0" stroke="#898F78" stroke-opacity="1.00" stroke-width="0.3"><path d="
M 47.00 49.00 
C 46.90 47.42 47.36 47.97 48.00 47.00
C 47.75 46.75 48.00 46.00 48.00 46.00
C 46.02 46.25 46.06 48.03 47.00 49.00 Z"/>
</g>
<g fill="None" fill-opacity="0.0" stroke="#8CB12D" stroke-opacity="1.00" stroke-width="0.3"><path d="
M 48.00 47.00 
C 48.50 46.95 49.00 47.00 49.00 47.00
C 57.78 46.70 52.58 59.74 46.00 53.00
C 46.00 53.50 46.00 54.00 46.00 54.00
C 46.14 54.92 47.19 55.78 48.00 56.00
C 49.33 55.97 50.67 55.97 52.00 56.00
C 58.25 54.52 54.81 44.38 48.00 46.00
C 48.00 46.00 47.75 46.75 48.00 47.00 Z"/>
</g>
<g fill="None" fill-opacity="0.0" stroke="#0B0908" stroke-opacity="1.00" stroke-width="0.3"><path d="
M 21.00 52.00 
C 20.77 51.09 20.62 47.84 21.00 47.00
C 19.24 48.69 20.17 50.29 21.00 52.00 Z"/>
</g>
<g fill="None" fill-opacity="0.0" stroke="#E3E2E1" stroke-opacity="1.00" stroke-width="0.3"><path d="
M 47.00 49.00 
C 47.00 49.00 47.25 49.75 47.00 50.00
C 48.68 49.89 50.71 48.75 49.00 47.00
C 49.00 47.00 48.50 46.95 48.00 47.00
C 47.36 47.97 46.90 47.42 47.00 49.00 Z"/>
</g>
<g fill="None" fill-opacity="0.0" stroke="#000000" stroke-opacity="1.00" stroke-width="0.3"><path d="
M 47.00 50.00 
C 47.00 50.00 46.50 50.00 46.00 50.00
C 46.26 50.24 46.00 52.61 46.00 53.00
C 52.58 59.74 57.78 46.70 49.00 47.00
C 50.71 48.75 48.68 49.89 47.00 50.00 Z"/>
</g>
<g fill="None" fill-opacity="0.0" stroke="#84A52B" stroke-opacity="1.00" stroke-width="0.3"><path d="
M 31.00 54.00 
C 31.89 52.69 32.18 49.60 32.00 48.00
C 30.50 48.97 30.56 51.40 30.00 53.00
C 26.89 54.69 22.24 50.68 23.00 48.00
C 20.60 52.58 27.80 57.32 31.00 54.00 Z"/>
</g>
<g fill="None" fill-opacity="0.0" stroke="#494544" stroke-opacity="1.00" stroke-width="0.3"><path d="
M 57.00 52.00 
C 57.44 50.81 58.75 49.51 57.00 48.00
C 57.00 48.00 56.07 48.18 56.00 48.00
C 56.35 49.57 57.17 50.19 57.00 52.00 Z"/>
</g>
<g fill="None" fill-opacity="0.0" stroke="#DEDDDC" stroke-opacity="1.00" stroke-width="0.3"><path d="
M 48.00 56.00 
C 47.19 55.78 46.14 54.92 46.00 54.00
C 45.18 52.59 45.22 51.87 45.00 50.00
C 45.00 50.00 44.03 49.89 44.00 50.00
C 43.00 54.21 45.23 56.06 48.00 56.00 Z"/>
</g>
<g fill="None" fill-opacity="0.0" stroke="#768748" stroke-opacity="1.00" stroke-width="0.3"><path d="
M 46.00 54.00 
C 46.00 54.00 46.00 53.50 46.00 53.00
C 46.00 52.61 46.26 50.24 46.00 50.00
C 46.00 50.00 45.50 50.00 45.00 50.00
C 45.22 51.87 45.18 52.59 46.00 54.00 Z"/>
</g>
<g fill="None" fill-opacity="0.0" stroke="#464240" stroke-opacity="1.00" stroke-width="0.3"><path d="
M 35.00 54.00 
C 35.79 53.85 37.20 53.88 38.00 54.00
C 36.21 53.34 36.86 53.27 35.00 54.00 Z"/>
</g>
<g fill="None" fill-opacity="0.0" stroke="#F6F6F6" stroke-opacity="1.00" stroke-width="0.3"><path d="
M 20.00 65.00 
C 21.67 64.44 29.58 68.84 32.02 69.98 C 34.46 71.11 45.51 69.00 47.00 70.00
C 46.54 67.63 46.51 63.16 43.00 64.00
C 43.55 62.54 45.40 61.82 45.00 60.00
C 44.47 57.92 40.20 54.32 38.00 54.00
C 37.20 53.88 35.79 53.85 35.00 54.00
C 29.26 56.25 22.95 59.25 20.00 65.00
M 40.00 57.00 
C 38.48 61.23 34.50 61.16 33.00 57.00
C 35.03 55.48 37.96 55.71 40.00 57.00
M 42.00 64.00 
C 43.42 65.55 39.63 66.99 38.00 67.00
C 37.91 67.10 35.09 67.10 35.00 67.00
C 34.58 67.21 32.75 65.51 33.00 65.00
C 32.67 63.49 35.27 63.18 36.00 63.00
C 35.99 63.00 41.55 63.50 42.00 64.00 Z"/>
</g>
<g fill="None" fill-opacity="0.0" stroke="#545251" stroke-opacity="1.00" stroke-width="0.3"><path d="
M 10.00 58.00 
C 12.18 58.36 12.07 54.85 12.00 55.00
C 10.80 56.47 9.83 54.95 10.00 58.00 Z"/>
</g>
<g fill="None" fill-opacity="0.0" stroke="#623D3B" stroke-opacity="1.00" stroke-width="0.3"><path d="
M 40.00 57.00 
C 37.96 55.71 35.03 55.48 33.00 57.00
C 34.50 61.16 38.48 61.23 40.00 57.00
M 39.00 57.00 
C 36.48 63.02 31.44 54.83 39.00 57.00 Z"/>
</g>
<g fill="None" fill-opacity="0.0" stroke="#E8797A" stroke-opacity="1.00" stroke-width="0.3"><path d="
M 39.00 57.00 
C 31.44 54.83 36.48 63.02 39.00 57.00 Z"/>
</g>
<g fill="None" fill-opacity="0.0" stroke="#080706" stroke-opacity="1.00" stroke-width="0.3"><path d="
M 45.00 60.00 
C 45.40 61.82 43.55 62.54 43.00 64.00
C 46.51 63.16 46.54 67.63 47.00 70.00
C 47.41 72.11 47.29 71.90 47.00 74.00
C 46.28 79.25 47.38 94.91 57.00 97.00
C 54.32 90.35 45.17 85.37 48.00 77.00
C 50.39 77.90 48.87 82.34 52.00 82.00
C 51.19 74.46 44.73 65.86 48.00 59.00
C 52.03 63.64 52.41 70.99 54.00 77.00
C 54.59 71.90 57.17 69.02 60.00 75.00
C 60.08 65.04 64.19 76.68 68.00 71.00
C 73.91 77.67 67.28 88.22 71.00 93.00
C 72.73 84.64 73.40 76.79 69.00 69.00
C 66.09 68.83 63.21 70.78 62.00 67.00
C 59.47 68.62 59.04 68.86 57.00 69.00
C 56.84 69.11 55.19 70.02 55.00 70.00
C 53.12 69.84 53.36 66.11 53.00 65.00
C 51.81 61.32 49.47 54.98 45.00 60.00 Z"/>
</g>
<g fill="None" fill-opacity="0.0" stroke="#F8C28F" stroke-opacity="1.00" stroke-width="0.3"><path d="
M 57.00 97.00 
C 59.31 97.50 69.87 94.72 71.00 93.00
C 67.28 88.22 73.91 77.67 68.00 71.00
C 64.19 76.68 60.08 65.04 60.00 75.00
C 57.17 69.02 54.59 71.90 54.00 77.00
C 52.41 70.99 52.03 63.64 48.00 59.00
C 44.73 65.86 51.19 74.46 52.00 82.00
C 48.87 82.34 50.39 77.90 48.00 77.00
C 45.17 85.37 54.32 90.35 57.00 97.00 Z"/>
</g>
<g fill="None" fill-opacity="0.0" stroke="#C5C3C1" stroke-opacity="1.00" stroke-width="0.3"><path d="
M 66.00 64.00 
C 67.46 62.54 67.66 61.84 68.00 61.00
C 67.37 61.96 66.74 63.07 66.00 64.00 Z"/>
</g>
<g fill="None" fill-opacity="0.0" stroke="#3D3330" stroke-opacity="1.00" stroke-width="0.3"><path d="
M 36.00 63.00 
C 36.93 62.88 38.89 65.22 39.00 66.00
C 40.04 65.74 41.55 64.94 42.00 64.00
C 41.55 63.50 35.99 63.00 36.00 63.00 Z"/>
</g>
<g fill="None" fill-opacity="0.0" stroke="#947976" stroke-opacity="1.00" stroke-width="0.3"><path d="
M 33.00 65.00 
C 33.10 64.80 34.00 65.00 34.00 65.00
C 34.24 64.87 35.86 63.02 36.00 63.00
C 35.27 63.18 32.67 63.49 33.00 65.00 Z"/>
</g>
<g fill="None" fill-opacity="0.0" stroke="#E0A09E" stroke-opacity="1.00" stroke-width="0.3"><path d="
M 34.00 65.00 
C 34.50 65.00 35.00 65.00 35.00 65.00
C 36.63 64.80 36.99 65.06 38.00 66.00
C 38.25 65.75 39.00 66.00 39.00 66.00
C 38.89 65.22 36.93 62.88 36.00 63.00
C 35.86 63.02 34.24 64.87 34.00 65.00 Z"/>
</g>
<g fill="None" fill-opacity="0.0" stroke="#B1ABA8" stroke-opacity="1.00" stroke-width="0.3"><path d="
M 39.00 66.00 
C 39.00 66.00 38.25 65.75 38.00 66.00
C 37.75 66.25 38.00 67.00 38.00 67.00
C 39.63 66.99 43.42 65.55 42.00 64.00
C 41.55 64.94 40.04 65.74 39.00 66.00 Z"/>
</g>
<g fill="None" fill-opacity="0.0" stroke="#C0B6B4" stroke-opacity="1.00" stroke-width="0.3"><path d="
M 19.00 67.00 
C 21.97 69.37 27.50 72.49 30.92 73.08 C 34.34 73.67 44.45 76.74 47.00 74.00
C 47.29 71.90 47.41 72.11 47.00 70.00
C 45.51 69.00 34.46 71.11 32.02 69.98 C 29.58 68.84 21.67 64.44 20.00 65.00
C 19.89 65.22 18.97 66.78 19.00 67.00 Z"/>
</g>
<g fill="None" fill-opacity="0.0" stroke="#B4B3B2" stroke-opacity="1.00" stroke-width="0.3"><path d="
M 35.00 67.00 
C 34.75 66.73 35.00 66.00 35.00 66.00
C 35.00 65.50 35.00 65.00 35.00 65.00
C 35.00 65.00 34.50 65.00 34.00 65.00
C 34.00 65.00 33.10 64.80 33.00 65.00
C 32.75 65.51 34.58 67.21 35.00 67.00 Z"/>
</g>
<g fill="None" fill-opacity="0.0" stroke="#FEFBF9" stroke-opacity="1.00" stroke-width="0.3"><path d="
M 35.00 66.00 
C 35.09 65.90 37.91 65.90 38.00 66.00
C 36.99 65.06 36.63 64.80 35.00 65.00
C 35.00 65.00 35.00 65.50 35.00 66.00 Z"/>
</g>
<g fill="None" fill-opacity="0.0" stroke="#D0C8C6" stroke-opacity="1.00" stroke-width="0.3"><path d="
M 55.00 70.00 
C 55.48 70.38 53.01 65.03 53.00 65.00
C 53.36 66.11 53.12 69.84 55.00 70.00 Z"/>
</g>
<g fill="None" fill-opacity="0.0" stroke="#4B4948" stroke-opacity="1.00" stroke-width="0.3"><path d="
M 35.00 67.00 
C 35.09 67.10 37.91 67.10 38.00 67.00
C 38.00 67.00 37.75 66.25 38.00 66.00
C 37.91 65.90 35.09 65.90 35.00 66.00
C 35.00 66.00 34.75 66.73 35.00 67.00 Z"/>
</g>
<g fill="#000000" fill-opacity="0.01" stroke="None">
<path d="
M 0.00 107.00 
L 85.00 107.00
L 85.00 0.00
L 0.00 0.00
L 0.00 107.00
M 26.00 23.00 
C 28.21 24.42 31.83 28.50 34.00 29.00
C 34.39 28.79 35.50 29.00 36.00 29.00
C 36.50 29.00 37.00 29.00 37.00 29.00
C 38.84 27.21 39.48 28.85 41.00 29.00
C 42.59 29.00 44.43 28.74 46.00 29.00
C 47.51 29.25 48.14 31.65 50.00 31.00
C 54.42 25.06 60.11 22.40 68.00 21.00
C 68.46 25.33 71.90 31.47 69.00 36.00
C 68.00 42.34 67.90 46.30 64.00 50.00
C 66.55 52.03 65.36 57.83 69.00 56.00
C 69.78 58.30 70.17 59.60 68.00 61.00
C 67.66 61.84 67.46 62.54 66.00 64.00
C 64.51 65.87 63.77 65.87 62.00 67.00
C 63.21 70.78 66.09 68.83 69.00 69.00
C 73.40 76.79 72.73 84.64 71.00 93.00
C 69.87 94.72 59.31 97.50 57.00 97.00
C 47.38 94.91 46.28 79.25 47.00 74.00
C 44.45 76.74 34.34 73.67 30.92 73.08 C 27.50 72.49 21.97 69.37 19.00 67.00
C 16.88 65.31 10.17 61.09 10.00 58.00
C 9.83 54.95 10.80 56.47 12.00 55.00
C 16.21 46.60 15.87 45.75 14.00 36.00
C 13.54 33.63 13.97 30.13 14.00 30.00
C 14.29 25.86 15.46 22.29 17.00 18.00
C 20.28 19.53 23.41 20.55 26.00 23.00 Z"/>
</g>
<g fill="#8E8681" fill-opacity="1.00" stroke="None">
<path d="
M 14.00 30.00 
C 13.86 31.93 13.86 34.07 14.00 36.00
C 15.87 45.75 16.21 46.60 12.00 55.00
C 12.07 54.85 12.18 58.36 10.00 58.00
C 10.17 61.09 16.88 65.31 19.00 67.00
C 18.97 66.78 19.89 65.22 20.00 65.00
C 22.95 59.25 29.26 56.25 35.00 54.00
C 36.86 53.27 36.21 53.34 38.00 54.00
C 40.20 54.32 44.47 57.92 45.00 60.00
C 49.47 54.98 51.81 61.32 53.00 65.00
C 53.01 65.03 55.48 70.38 55.00 70.00
C 55.19 70.02 56.84 69.11 57.00 69.00
C 61.63 65.84 68.19 62.91 59.00 62.00
C 61.44 62.08 64.40 61.65 66.00 60.00
C 64.49 58.68 59.60 61.69 58.00 59.00
C 60.86 59.35 63.39 58.73 66.00 58.00
C 62.32 52.62 61.11 46.33 60.00 40.00
C 59.92 39.51 60.00 39.00 60.00 39.00
C 57.27 37.09 55.26 33.64 52.00 33.00
C 54.00 31.69 55.80 29.24 58.00 28.00
C 59.98 26.42 67.20 20.63 66.00 25.00
C 65.93 25.27 66.75 25.75 67.00 26.00
C 69.36 28.31 69.06 32.68 69.00 36.00
C 71.90 31.47 68.46 25.33 68.00 21.00
C 60.11 22.40 54.42 25.06 50.00 31.00
C 48.14 31.65 47.51 29.25 46.00 29.00
C 43.36 32.55 39.48 35.39 39.00 40.00
C 36.43 37.26 36.09 32.84 36.00 29.00
C 35.50 29.00 34.39 28.79 34.00 29.00
C 32.63 29.72 30.91 31.02 29.00 31.00
C 30.71 28.29 27.17 25.45 26.00 23.00
C 23.41 20.55 20.28 19.53 17.00 18.00
C 15.46 22.29 14.29 25.86 14.00 30.00
M 27.00 30.00 
C 26.48 31.65 26.11 31.69 25.00 33.00
C 23.75 34.48 22.29 35.71 21.00 37.00
C 20.28 37.85 19.36 39.74 18.00 40.00
C 18.69 41.66 18.42 42.10 18.00 44.00
C 16.61 43.26 16.35 39.68 18.00 39.00
C 17.22 37.52 17.17 36.68 17.00 35.00
C 16.34 32.23 16.35 30.72 17.00 28.00
C 17.54 25.74 17.53 22.41 20.00 22.00
C 22.43 21.60 27.21 29.33 27.00 30.00
M 29.00 36.00 
C 24.99 39.76 22.57 35.45 29.00 36.00
M 54.00 39.00 
C 49.11 40.52 48.78 34.65 54.00 39.00
M 30.00 45.00 
C 30.34 45.15 30.74 45.78 31.00 46.00
C 31.85 46.71 31.86 46.78 32.00 48.00
C 32.18 49.60 31.89 52.69 31.00 54.00
C 28.44 57.78 22.79 55.68 21.00 52.00
C 20.17 50.29 19.24 48.69 21.00 47.00
C 21.12 46.74 21.81 46.32 22.00 46.00
C 21.70 44.52 22.53 43.21 25.00 43.00
C 26.70 41.24 28.80 43.40 30.00 45.00
M 52.00 44.00 
C 54.03 44.03 56.24 46.18 57.00 48.00
C 58.75 49.51 57.44 50.81 57.00 52.00
C 55.82 55.18 54.25 56.05 52.00 56.00
C 50.67 55.97 49.33 55.97 48.00 56.00
C 45.23 56.06 43.00 54.21 44.00 50.00
C 44.01 47.29 50.37 40.39 52.00 44.00 Z"/>
</g>
<g fill="#DEB49D" fill-opacity="1.00" stroke="None">
<path d="
M 17.00 28.00 
C 16.76 30.16 16.78 32.84 17.00 35.00
C 17.17 36.68 17.22 37.52 18.00 39.00
C 18.21 39.39 18.00 40.00 18.00 40.00
C 19.36 39.74 20.28 37.85 21.00 37.00
C 22.26 35.51 23.67 34.29 25.00 33.00
C 26.11 31.69 26.48 31.65 27.00 30.00
C 27.13 26.97 20.27 25.02 20.00 22.00
C 17.53 22.41 17.54 25.74 17.00 28.00 Z"/>
</g>
<g fill="#382C27" fill-opacity="1.00" stroke="None">
<path d="
M 27.00 30.00 
C 27.21 29.33 22.43 21.60 20.00 22.00
C 20.27 25.02 27.13 26.97 27.00 30.00 Z"/>
</g>
<g fill="#4D4D50" fill-opacity="1.00" stroke="None">
<path d="
M 34.00 29.00 
C 31.83 28.50 28.21 24.42 26.00 23.00
C 27.17 25.45 30.71 28.29 29.00 31.00
C 30.91 31.02 32.63 29.72 34.00 29.00 Z"/>
</g>
<g fill="#7A6156" fill-opacity="1.00" stroke="None">
<path d="
M 58.00 28.00 
C 56.36 29.53 54.64 31.70 55.00 33.00
C 58.69 31.29 61.66 25.18 66.00 25.00
C 67.20 20.63 59.98 26.42 58.00 28.00 Z"/>
</g>
<g fill="#D9AF98" fill-opacity="1.00" stroke="None">
<path d="
M 55.00 33.00 
C 55.66 35.39 58.93 36.81 60.00 39.00
C 60.00 39.00 59.92 39.51 60.00 40.00
C 61.26 41.57 62.03 44.01 64.00 45.00
C 65.94 38.95 67.72 32.77 67.00 26.00
C 66.75 25.75 65.93 25.27 66.00 25.00
C 61.66 25.18 58.69 31.29 55.00 33.00 Z"/>
</g>
<g fill="#665F5E" fill-opacity="1.00" stroke="None">
<path d="
M 60.00 40.00 
C 61.11 46.33 62.32 52.62 66.00 58.00
C 63.39 58.73 60.86 59.35 58.00 59.00
C 59.60 61.69 64.49 58.68 66.00 60.00
C 64.40 61.65 61.44 62.08 59.00 62.00
C 68.19 62.91 61.63 65.84 57.00 69.00
C 59.04 68.86 59.47 68.62 62.00 67.00
C 63.77 65.87 64.51 65.87 66.00 64.00
C 66.74 63.07 67.37 61.96 68.00 61.00
C 70.17 59.60 69.78 58.30 69.00 56.00
C 65.36 57.83 66.55 52.03 64.00 50.00
C 67.90 46.30 68.00 42.34 69.00 36.00
C 69.06 32.68 69.36 28.31 67.00 26.00
C 67.72 32.77 65.94 38.95 64.00 45.00
C 62.03 44.01 61.26 41.57 60.00 40.00 Z"/>
</g>
<g fill="#433E3C" fill-opacity="1.00" stroke="None">
<path d="
M 17.00 35.00 
C 16.78 32.84 16.76 30.16 17.00 28.00
C 16.35 30.72 16.34 32.23 17.00 35.00 Z"/>
</g>
<g fill="#BFBEBD" fill-opacity="1.00" stroke="None">
<path d="
M 37.00 29.00 
C 38.33 29.00 39.67 29.00 41.00 29.00
C 39.48 28.85 38.84 27.21 37.00 29.00 Z"/>
</g>
<g fill="#302926" fill-opacity="1.00" stroke="None">
<path d="
M 60.00 39.00 
C 58.93 36.81 55.66 35.39 55.00 33.00
C 54.64 31.70 56.36 29.53 58.00 28.00
C 55.80 29.24 54.00 31.69 52.00 33.00
C 55.26 33.64 57.27 37.09 60.00 39.00 Z"/>
</g>
<g fill="#F1F0F0" fill-opacity="1.00" stroke="None">
<path d="
M 14.00 36.00 
C 13.86 34.07 13.86 31.93 14.00 30.00
C 13.97 30.13 13.54 33.63 14.00 36.00 Z"/>
</g>
<g fill="#4A4C53" fill-opacity="1.00" stroke="None">
<path d="
M 46.00 29.00 
C 44.43 28.74 42.59 29.00 41.00 29.00
C 39.67 29.00 38.33 29.00 37.00 29.00
C 37.00 29.00 36.50 29.00 36.00 29.00
C 36.09 32.84 36.43 37.26 39.00 40.00
C 39.48 35.39 43.36 32.55 46.00 29.00 Z"/>
</g>
<g fill="#27221E" fill-opacity="1.00" stroke="None">
<path d="
M 21.00 37.00 
C 22.29 35.71 23.75 34.48 25.00 33.00
C 23.67 34.29 22.26 35.51 21.00 37.00 Z"/>
</g>
<g fill="#35322D" fill-opacity="1.00" stroke="None">
<path d="
M 29.00 36.00 
C 22.57 35.45 24.99 39.76 29.00 36.00 Z"/>
</g>
<g fill="#2C2A2A" fill-opacity="1.00" stroke="None">
<path d="
M 54.00 39.00 
C 48.78 34.65 49.11 40.52 54.00 39.00 Z"/>
</g>
<g fill="#302B29" fill-opacity="1.00" stroke="None">
<path d="
M 18.00 40.00 
C 18.00 40.00 18.21 39.39 18.00 39.00
C 16.35 39.68 16.61 43.26 18.00 44.00
C 18.42 42.10 18.69 41.66 18.00 40.00 Z"/>
</g>
<g fill="#3E3B39" fill-opacity="1.00" stroke="None">
<path d="
M 25.00 43.00 
C 24.96 43.00 25.00 44.00 25.00 44.00
C 25.50 43.97 26.51 43.92 27.00 44.00
C 27.65 44.11 29.40 44.74 30.00 45.00
C 28.80 43.40 26.70 41.24 25.00 43.00 Z"/>
</g>
<g fill="#000000" fill-opacity="1.00" stroke="None">
<path d="
M 22.00 46.00 
C 22.83 44.58 23.28 44.10 25.00 44.00
C 25.00 44.00 24.96 43.00 25.00 43.00
C 22.53 43.21 21.70 44.52 22.00 46.00 Z"/>
</g>
<g fill="#4A4A43" fill-opacity="1.00" stroke="None">
<path d="
M 44.00 50.00 
C 44.03 49.89 45.00 50.00 45.00 50.00
C 45.50 50.00 46.00 50.00 46.00 50.00
C 46.50 50.00 47.00 50.00 47.00 50.00
C 47.25 49.75 47.00 49.00 47.00 49.00
C 46.06 48.03 46.02 46.25 48.00 46.00
C 49.01 45.30 49.90 45.56 51.00 45.00
C 51.27 44.86 51.67 43.99 52.00 44.00
C 50.37 40.39 44.01 47.29 44.00 50.00 Z"/>
</g>
<g fill="#E3E4E0" fill-opacity="1.00" stroke="None">
<path d="
M 22.00 46.00 
C 21.81 46.32 21.12 46.74 21.00 47.00
C 20.62 47.84 20.77 51.09 21.00 52.00
C 22.79 55.68 28.44 57.78 31.00 54.00
C 27.80 57.32 20.60 52.58 23.00 48.00
C 22.72 48.98 28.04 45.85 27.00 46.00
C 25.60 45.45 25.06 44.07 27.00 44.00
C 26.51 43.92 25.50 43.97 25.00 44.00
C 23.28 44.10 22.83 44.58 22.00 46.00 Z"/>
</g>
<g fill="#7E9543" fill-opacity="1.00" stroke="None">
<path d="
M 27.00 46.00 
C 27.64 46.25 31.08 46.97 31.00 46.00
C 30.74 45.78 30.34 45.15 30.00 45.00
C 29.40 44.74 27.65 44.11 27.00 44.00
C 25.06 44.07 25.60 45.45 27.00 46.00 Z"/>
</g>
<g fill="#040403" fill-opacity="1.00" stroke="None">
<path d="
M 51.00 45.00 
C 53.24 45.72 54.91 45.32 56.00 48.00
C 56.07 48.18 57.00 48.00 57.00 48.00
C 56.24 46.18 54.03 44.03 52.00 44.00
C 51.67 43.99 51.27 44.86 51.00 45.00 Z"/>
</g>
<g fill="#DDDDDB" fill-opacity="1.00" stroke="None">
<path d="
M 48.00 46.00 
C 54.81 44.38 58.25 54.52 52.00 56.00
C 54.25 56.05 55.82 55.18 57.00 52.00
C 57.17 50.19 56.35 49.57 56.00 48.00
C 54.91 45.32 53.24 45.72 51.00 45.00
C 49.90 45.56 49.01 45.30 48.00 46.00 Z"/>
</g>
<g fill="#000000" fill-opacity="1.00" stroke="None">
<path d="
M 23.00 48.00 
C 22.24 50.68 26.89 54.69 30.00 53.00
C 30.56 51.40 30.50 48.97 32.00 48.00
C 31.86 46.78 31.85 46.71 31.00 46.00
C 31.08 46.97 27.64 46.25 27.00 46.00
C 28.04 45.85 22.72 48.98 23.00 48.00 Z"/>
</g>
<g fill="#898F78" fill-opacity="1.00" stroke="None">
<path d="
M 47.00 49.00 
C 46.90 47.42 47.36 47.97 48.00 47.00
C 47.75 46.75 48.00 46.00 48.00 46.00
C 46.02 46.25 46.06 48.03 47.00 49.00 Z"/>
</g>
<g fill="#8CB12D" fill-opacity="1.00" stroke="None">
<path d="
M 48.00 47.00 
C 48.50 46.95 49.00 47.00 49.00 47.00
C 57.78 46.70 52.58 59.74 46.00 53.00
C 46.00 53.50 46.00 54.00 46.00 54.00
C 46.14 54.92 47.19 55.78 48.00 56.00
C 49.33 55.97 50.67 55.97 52.00 56.00
C 58.25 54.52 54.81 44.38 48.00 46.00
C 48.00 46.00 47.75 46.75 48.00 47.00 Z"/>
</g>
<g fill="#0B0908" fill-opacity="1.00" stroke="None">
<path d="
M 21.00 52.00 
C 20.77 51.09 20.62 47.84 21.00 47.00
C 19.24 48.69 20.17 50.29 21.00 52.00 Z"/>
</g>
<g fill="#E3E2E1" fill-opacity="1.00" stroke="None">
<path d="
M 47.00 49.00 
C 47.00 49.00 47.25 49.75 47.00 50.00
C 48.68 49.89 50.71 48.75 49.00 47.00
C 49.00 47.00 48.50 46.95 48.00 47.00
C 47.36 47.97 46.90 47.42 47.00 49.00 Z"/>
</g>
<g fill="#000000" fill-opacity="1.00" stroke="None">
<path d="
M 47.00 50.00 
C 47.00 50.00 46.50 50.00 46.00 50.00
C 46.26 50.24 46.00 52.61 46.00 53.00
C 52.58 59.74 57.78 46.70 49.00 47.00
C 50.71 48.75 48.68 49.89 47.00 50.00 Z"/>
</g>
<g fill="#84A52B" fill-opacity="1.00" stroke="None">
<path d="
M 31.00 54.00 
C 31.89 52.69 32.18 49.60 32.00 48.00
C 30.50 48.97 30.56 51.40 30.00 53.00
C 26.89 54.69 22.24 50.68 23.00 48.00
C 20.60 52.58 27.80 57.32 31.00 54.00 Z"/>
</g>
<g fill="#494544" fill-opacity="1.00" stroke="None">
<path d="
M 57.00 52.00 
C 57.44 50.81 58.75 49.51 57.00 48.00
C 57.00 48.00 56.07 48.18 56.00 48.00
C 56.35 49.57 57.17 50.19 57.00 52.00 Z"/>
</g>
<g fill="#DEDDDC" fill-opacity="1.00" stroke="None">
<path d="
M 48.00 56.00 
C 47.19 55.78 46.14 54.92 46.00 54.00
C 45.18 52.59 45.22 51.87 45.00 50.00
C 45.00 50.00 44.03 49.89 44.00 50.00
C 43.00 54.21 45.23 56.06 48.00 56.00 Z"/>
</g>
<g fill="#768748" fill-opacity="1.00" stroke="None">
<path d="
M 46.00 54.00 
C 46.00 54.00 46.00 53.50 46.00 53.00
C 46.00 52.61 46.26 50.24 46.00 50.00
C 46.00 50.00 45.50 50.00 45.00 50.00
C 45.22 51.87 45.18 52.59 46.00 54.00 Z"/>
</g>
<g fill="#464240" fill-opacity="1.00" stroke="None">
<path d="
M 35.00 54.00 
C 35.79 53.85 37.20 53.88 38.00 54.00
C 36.21 53.34 36.86 53.27 35.00 54.00 Z"/>
</g>
<g fill="#F6F6F6" fill-opacity="1.00" stroke="None">
<path d="
M 20.00 65.00 
C 21.67 64.44 29.58 68.84 32.02 69.98 C 34.46 71.11 45.51 69.00 47.00 70.00
C 46.54 67.63 46.51 63.16 43.00 64.00
C 43.55 62.54 45.40 61.82 45.00 60.00
C 44.47 57.92 40.20 54.32 38.00 54.00
C 37.20 53.88 35.79 53.85 35.00 54.00
C 29.26 56.25 22.95 59.25 20.00 65.00
M 40.00 57.00 
C 38.48 61.23 34.50 61.16 33.00 57.00
C 35.03 55.48 37.96 55.71 40.00 57.00
M 42.00 64.00 
C 43.42 65.55 39.63 66.99 38.00 67.00
C 37.91 67.10 35.09 67.10 35.00 67.00
C 34.58 67.21 32.75 65.51 33.00 65.00
C 32.67 63.49 35.27 63.18 36.00 63.00
C 35.99 63.00 41.55 63.50 42.00 64.00 Z"/>
</g>
<g fill="#545251" fill-opacity="1.00" stroke="None">
<path d="
M 10.00 58.00 
C 12.18 58.36 12.07 54.85 12.00 55.00
C 10.80 56.47 9.83 54.95 10.00 58.00 Z"/>
</g>
<g fill="#623D3B" fill-opacity="1.00" stroke="None">
<path d="
M 40.00 57.00 
C 37.96 55.71 35.03 55.48 33.00 57.00
C 34.50 61.16 38.48 61.23 40.00 57.00
M 39.00 57.00 
C 36.48 63.02 31.44 54.83 39.00 57.00 Z"/>
</g>
<g fill="#E8797A" fill-opacity="1.00" stroke="None">
<path d="
M 39.00 57.00 
C 31.44 54.83 36.48 63.02 39.00 57.00 Z"/>
</g>
<g fill="#080706" fill-opacity="1.00" stroke="None">
<path d="
M 45.00 60.00 
C 45.40 61.82 43.55 62.54 43.00 64.00
C 46.51 63.16 46.54 67.63 47.00 70.00
C 47.41 72.11 47.29 71.90 47.00 74.00
C 46.28 79.25 47.38 94.91 57.00 97.00
C 54.32 90.35 45.17 85.37 48.00 77.00
C 50.39 77.90 48.87 82.34 52.00 82.00
C 51.19 74.46 44.73 65.86 48.00 59.00
C 52.03 63.64 52.41 70.99 54.00 77.00
C 54.59 71.90 57.17 69.02 60.00 75.00
C 60.08 65.04 64.19 76.68 68.00 71.00
C 73.91 77.67 67.28 88.22 71.00 93.00
C 72.73 84.64 73.40 76.79 69.00 69.00
C 66.09 68.83 63.21 70.78 62.00 67.00
C 59.47 68.62 59.04 68.86 57.00 69.00
C 56.84 69.11 55.19 70.02 55.00 70.00
C 53.12 69.84 53.36 66.11 53.00 65.00
C 51.81 61.32 49.47 54.98 45.00 60.00 Z"/>
</g>
<g fill="#F8C28F" fill-opacity="1.00" stroke="None">
<path d="
M 57.00 97.00 
C 59.31 97.50 69.87 94.72 71.00 93.00
C 67.28 88.22 73.91 77.67 68.00 71.00
C 64.19 76.68 60.08 65.04 60.00 75.00
C 57.17 69.02 54.59 71.90 54.00 77.00
C 52.41 70.99 52.03 63.64 48.00 59.00
C 44.73 65.86 51.19 74.46 52.00 82.00
C 48.87 82.34 50.39 77.90 48.00 77.00
C 45.17 85.37 54.32 90.35 57.00 97.00 Z"/>
</g>
<g fill="#C5C3C1" fill-opacity="1.00" stroke="None">
<path d="
M 66.00 64.00 
C 67.46 62.54 67.66 61.84 68.00 61.00
C 67.37 61.96 66.74 63.07 66.00 64.00 Z"/>
</g>
<g fill="#3D3330" fill-opacity="1.00" stroke="None">
<path d="
M 36.00 63.00 
C 36.93 62.88 38.89 65.22 39.00 66.00
C 40.04 65.74 41.55 64.94 42.00 64.00
C 41.55 63.50 35.99 63.00 36.00 63.00 Z"/>
</g>
<g fill="#947976" fill-opacity="1.00" stroke="None">
<path d="
M 33.00 65.00 
C 33.10 64.80 34.00 65.00 34.00 65.00
C 34.24 64.87 35.86 63.02 36.00 63.00
C 35.27 63.18 32.67 63.49 33.00 65.00 Z"/>
</g>
<g fill="#E0A09E" fill-opacity="1.00" stroke="None">
<path d="
M 34.00 65.00 
C 34.50 65.00 35.00 65.00 35.00 65.00
C 36.63 64.80 36.99 65.06 38.00 66.00
C 38.25 65.75 39.00 66.00 39.00 66.00
C 38.89 65.22 36.93 62.88 36.00 63.00
C 35.86 63.02 34.24 64.87 34.00 65.00 Z"/>
</g>
<g fill="#B1ABA8" fill-opacity="1.00" stroke="None">
<path d="
M 39.00 66.00 
C 39.00 66.00 38.25 65.75 38.00 66.00
C 37.75 66.25 38.00 67.00 38.00 67.00
C 39.63 66.99 43.42 65.55 42.00 64.00
C 41.55 64.94 40.04 65.74 39.00 66.00 Z"/>
</g>
<g fill="#C0B6B4" fill-opacity="1.00" stroke="None">
<path d="
M 19.00 67.00 
C 21.97 69.37 27.50 72.49 30.92 73.08 C 34.34 73.67 44.45 76.74 47.00 74.00
C 47.29 71.90 47.41 72.11 47.00 70.00
C 45.51 69.00 34.46 71.11 32.02 69.98 C 29.58 68.84 21.67 64.44 20.00 65.00
C 19.89 65.22 18.97 66.78 19.00 67.00 Z"/>
</g>
<g fill="#B4B3B2" fill-opacity="1.00" stroke="None">
<path d="
M 35.00 67.00 
C 34.75 66.73 35.00 66.00 35.00 66.00
C 35.00 65.50 35.00 65.00 35.00 65.00
C 35.00 65.00 34.50 65.00 34.00 65.00
C 34.00 65.00 33.10 64.80 33.00 65.00
C 32.75 65.51 34.58 67.21 35.00 67.00 Z"/>
</g>
<g fill="#FEFBF9" fill-opacity="1.00" stroke="None">
<path d="
M 35.00 66.00 
C 35.09 65.90 37.91 65.90 38.00 66.00
C 36.99 65.06 36.63 64.80 35.00 65.00
C 35.00 65.00 35.00 65.50 35.00 66.00 Z"/>
</g>
<g fill="#D0C8C6" fill-opacity="1.00" stroke="None">
<path d="
M 55.00 70.00 
C 55.48 70.38 53.01 65.03 53.00 65.00
C 53.36 66.11 53.12 69.84 55.00 70.00 Z"/>
</g>
<g fill="#4B4948" fill-opacity="1.00" stroke="None">
<path d="
M 35.00 67.00 
C 35.09 67.10 37.91 67.10 38.00 67.00
C 38.00 67.00 37.75 66.25 38.00 66.00
C 37.91 65.90 35.09 65.90 35.00 66.00
C 35.00 66.00 34.75 66.73 35.00 67.00 Z"/>
</g>
</svg>