<?xml version="1.0" encoding="UTF-8" standalone="no"?>
<svg
   viewBox="0 0 50 50"
   width="50"
   height="50"
   version="1.1"
   id="svg102"
   sodipodi:docname="whenprees.svg"
   inkscape:version="1.4 (86a8ad7, 2024-10-11)"
   xmlns:inkscape="http://www.inkscape.org/namespaces/inkscape"
   xmlns:sodipodi="http://sodipodi.sourceforge.net/DTD/sodipodi-0.dtd"
   xmlns="http://www.w3.org/2000/svg"
   xmlns:svg="http://www.w3.org/2000/svg">
  <defs
     id="defs102" />
  <sodipodi:namedview
     id="namedview102"
     pagecolor="#ffffff"
     bordercolor="#111111"
     borderopacity="1"
     inkscape:showpageshadow="0"
     inkscape:pageopacity="0"
     inkscape:pagecheckerboard="1"
     inkscape:deskcolor="#d1d1d1"
     inkscape:zoom="7.2242991"
     inkscape:cx="42.564683"
     inkscape:cy="33.152005"
     inkscape:window-width="1920"
     inkscape:window-height="1017"
     inkscape:window-x="-8"
     inkscape:window-y="-8"
     inkscape:window-maximized="1"
     inkscape:current-layer="svg102" />
  <g
     id="g103"
     transform="matrix(0.69171002,0,0,0.60910135,-3.7851272,-10.024179)">
    <g
       fill="None"
       fill-opacity="0"
       stroke="#000000"
       stroke-opacity="0.01"
       stroke-width="0.3"
       id="g1">
      <path
         d="M 0,107 H 85 V 0 H 0 V 107 M 26,23 c 2.21,1.42 5.83,5.5 8,6 0.39,-0.21 1.5,0 2,0 0.5,0 1,0 1,0 1.84,-1.79 2.48,-0.15 4,0 1.59,0 3.43,-0.26 5,0 1.51,0.25 2.14,2.65 4,2 4.42,-5.94 10.11,-8.6 18,-10 0.46,4.33 3.9,10.47 1,15 -1,6.34 -1.1,10.3 -5,14 2.55,2.03 1.36,7.83 5,6 0.78,2.3 1.17,3.6 -1,5 -0.34,0.84 -0.54,1.54 -2,3 -1.49,1.87 -2.23,1.87 -4,3 1.21,3.78 4.09,1.83 7,2 4.4,7.79 3.73,15.64 2,24 -1.13,1.72 -11.69,4.5 -14,4 C 47.38,94.91 46.28,79.25 47,74 44.45,76.74 34.34,73.67 30.92,73.08 27.5,72.49 21.97,69.37 19,67 c -2.12,-1.69 -8.83,-5.91 -9,-9 -0.17,-3.05 0.8,-1.53 2,-3 4.21,-8.4 3.87,-9.25 2,-19 -0.46,-2.37 -0.03,-5.87 0,-6 0.29,-4.14 1.46,-7.71 3,-12 3.28,1.53 6.41,2.55 9,5 z"
         id="path1" />
    </g>
    <g
       fill="None"
       fill-opacity="0"
       stroke="#8e8681"
       stroke-opacity="1"
       stroke-width="0.3"
       id="g2">
      <path
         d="m 14,30 c -0.14,1.93 -0.14,4.07 0,6 1.87,9.75 2.21,10.6 -2,19 0.07,-0.15 0.18,3.36 -2,3 0.17,3.09 6.88,7.31 9,9 -0.03,-0.22 0.89,-1.78 1,-2 2.95,-5.75 9.26,-8.75 15,-11 1.86,-0.73 1.21,-0.66 3,0 2.2,0.32 6.47,3.92 7,6 4.47,-5.02 6.81,1.32 8,5 0.01,0.03 2.48,5.38 2,5 0.19,0.02 1.84,-0.89 2,-1 4.63,-3.16 11.19,-6.09 2,-7 2.44,0.08 5.4,-0.35 7,-2 -1.51,-1.32 -6.4,1.69 -8,-1 2.86,0.35 5.39,-0.27 8,-1 -3.68,-5.38 -4.89,-11.67 -6,-18 -0.08,-0.49 0,-1 0,-1 -2.73,-1.91 -4.74,-5.36 -8,-6 2,-1.31 3.8,-3.76 6,-5 1.98,-1.58 9.2,-7.37 8,-3 -0.07,0.27 0.75,0.75 1,1 2.36,2.31 2.06,6.68 2,10 2.9,-4.53 -0.54,-10.67 -1,-15 -7.89,1.4 -13.58,4.06 -18,10 -1.86,0.65 -2.49,-1.75 -4,-2 -2.64,3.55 -6.52,6.39 -7,11 -2.57,-2.74 -2.91,-7.16 -3,-11 -0.5,0 -1.61,-0.21 -2,0 -1.37,0.72 -3.09,2.02 -5,2 1.71,-2.71 -1.83,-5.55 -3,-8 -2.59,-2.45 -5.72,-3.47 -9,-5 -1.54,4.29 -2.71,7.86 -3,12 m 13,0 c -0.52,1.65 -0.89,1.69 -2,3 -1.25,1.48 -2.71,2.71 -4,4 -0.72,0.85 -1.64,2.74 -3,3 0.69,1.66 0.42,2.1 0,4 -1.39,-0.74 -1.65,-4.32 0,-5 -0.78,-1.48 -0.83,-2.32 -1,-4 -0.66,-2.77 -0.65,-4.28 0,-7 0.54,-2.26 0.53,-5.59 3,-6 2.43,-0.4 7.21,7.33 7,8 m 2,6 c -4.01,3.76 -6.43,-0.55 0,0 m 25,3 c -4.89,1.52 -5.22,-4.35 0,0 m -24,6 c 0.34,0.15 0.74,0.78 1,1 0.85,0.71 0.86,0.78 1,2 0.18,1.6 -0.11,4.69 -1,6 -2.56,3.78 -8.21,1.68 -10,-2 -0.83,-1.71 -1.76,-3.31 0,-5 0.12,-0.26 0.81,-0.68 1,-1 -0.3,-1.48 0.53,-2.79 3,-3 1.7,-1.76 3.8,0.4 5,2 m 22,-1 c 2.03,0.03 4.24,2.18 5,4 1.75,1.51 0.44,2.81 0,4 -1.18,3.18 -2.75,4.05 -5,4 -1.33,-0.03 -2.67,-0.03 -4,0 -2.77,0.06 -5,-1.79 -4,-6 0.01,-2.71 6.37,-9.61 8,-6 z"
         id="path2" />
    </g>
    <g
       fill="None"
       fill-opacity="0"
       stroke="#deb49d"
       stroke-opacity="1"
       stroke-width="0.3"
       id="g3">
      <path
         d="m 17,28 c -0.24,2.16 -0.22,4.84 0,7 0.17,1.68 0.22,2.52 1,4 0.21,0.39 0,1 0,1 1.36,-0.26 2.28,-2.15 3,-3 1.26,-1.49 2.67,-2.71 4,-4 1.11,-1.31 1.48,-1.35 2,-3 0.13,-3.03 -6.73,-4.98 -7,-8 -2.47,0.41 -2.46,3.74 -3,6 z"
         id="path3" />
    </g>
    <g
       fill="None"
       fill-opacity="0"
       stroke="#382c27"
       stroke-opacity="1"
       stroke-width="0.3"
       id="g4">
      <path
         d="m 27,30 c 0.21,-0.67 -4.57,-8.4 -7,-8 0.27,3.02 7.13,4.97 7,8 z"
         id="path4" />
    </g>
    <g
       fill="None"
       fill-opacity="0"
       stroke="#4d4d50"
       stroke-opacity="1"
       stroke-width="0.3"
       id="g5">
      <path
         d="m 34,29 c -2.17,-0.5 -5.79,-4.58 -8,-6 1.17,2.45 4.71,5.29 3,8 1.91,0.02 3.63,-1.28 5,-2 z"
         id="path5" />
    </g>
    <g
       fill="None"
       fill-opacity="0"
       stroke="#7a6156"
       stroke-opacity="1"
       stroke-width="0.3"
       id="g6">
      <path
         d="m 58,28 c -1.64,1.53 -3.36,3.7 -3,5 3.69,-1.71 6.66,-7.82 11,-8 1.2,-4.37 -6.02,1.42 -8,3 z"
         id="path6" />
    </g>
    <g
       fill="None"
       fill-opacity="0"
       stroke="#d9af98"
       stroke-opacity="1"
       stroke-width="0.3"
       id="g7">
      <path
         d="m 55,33 c 0.66,2.39 3.93,3.81 5,6 0,0 -0.08,0.51 0,1 1.26,1.57 2.03,4.01 4,5 1.94,-6.05 3.72,-12.23 3,-19 -0.25,-0.25 -1.07,-0.73 -1,-1 -4.34,0.18 -7.31,6.29 -11,8 z"
         id="path7" />
    </g>
    <g
       fill="None"
       fill-opacity="0"
       stroke="#665f5e"
       stroke-opacity="1"
       stroke-width="0.3"
       id="g8">
      <path
         d="m 60,40 c 1.11,6.33 2.32,12.62 6,18 -2.61,0.73 -5.14,1.35 -8,1 1.6,2.69 6.49,-0.32 8,1 -1.6,1.65 -4.56,2.08 -7,2 9.19,0.91 2.63,3.84 -2,7 2.04,-0.14 2.47,-0.38 5,-2 1.77,-1.13 2.51,-1.13 4,-3 0.74,-0.93 1.37,-2.04 2,-3 2.17,-1.4 1.78,-2.7 1,-5 -3.64,1.83 -2.45,-3.97 -5,-6 3.9,-3.7 4,-7.66 5,-14 0.06,-3.32 0.36,-7.69 -2,-10 0.72,6.77 -1.06,12.95 -3,19 -1.97,-0.99 -2.74,-3.43 -4,-5 z"
         id="path8" />
    </g>
    <g
       fill="None"
       fill-opacity="0"
       stroke="#433e3c"
       stroke-opacity="1"
       stroke-width="0.3"
       id="g9">
      <path
         d="m 17,35 c -0.22,-2.16 -0.24,-4.84 0,-7 -0.65,2.72 -0.66,4.23 0,7 z"
         id="path9" />
    </g>
    <g
       fill="None"
       fill-opacity="0"
       stroke="#bfbebd"
       stroke-opacity="1"
       stroke-width="0.3"
       id="g10">
      <path
         d="m 37,29 c 1.33,0 2.67,0 4,0 -1.52,-0.15 -2.16,-1.79 -4,0 z"
         id="path10" />
    </g>
    <g
       fill="None"
       fill-opacity="0"
       stroke="#302926"
       stroke-opacity="1"
       stroke-width="0.3"
       id="g11">
      <path
         d="m 60,39 c -1.07,-2.19 -4.34,-3.61 -5,-6 -0.36,-1.3 1.36,-3.47 3,-5 -2.2,1.24 -4,3.69 -6,5 3.26,0.64 5.27,4.09 8,6 z"
         id="path11" />
    </g>
    <g
       fill="None"
       fill-opacity="0"
       stroke="#f1f0f0"
       stroke-opacity="1"
       stroke-width="0.3"
       id="g12">
      <path
         d="m 14,36 c -0.14,-1.93 -0.14,-4.07 0,-6 -0.03,0.13 -0.46,3.63 0,6 z"
         id="path12" />
    </g>
    <g
       fill="None"
       fill-opacity="0"
       stroke="#4a4c53"
       stroke-opacity="1"
       stroke-width="0.3"
       id="g13">
      <path
         d="m 46,29 c -1.57,-0.26 -3.41,0 -5,0 -1.33,0 -2.67,0 -4,0 0,0 -0.5,0 -1,0 0.09,3.84 0.43,8.26 3,11 0.48,-4.61 4.36,-7.45 7,-11 z"
         id="path13" />
    </g>
    <g
       fill="None"
       fill-opacity="0"
       stroke="#27221e"
       stroke-opacity="1"
       stroke-width="0.3"
       id="g14">
      <path
         d="m 21,37 c 1.29,-1.29 2.75,-2.52 4,-4 -1.33,1.29 -2.74,2.51 -4,4 z"
         id="path14" />
    </g>
    <g
       fill="None"
       fill-opacity="0"
       stroke="#35322d"
       stroke-opacity="1"
       stroke-width="0.3"
       id="g15">
      <path
         d="m 29,36 c -6.43,-0.55 -4.01,3.76 0,0 z"
         id="path15" />
    </g>
    <g
       fill="None"
       fill-opacity="0"
       stroke="#2c2a2a"
       stroke-opacity="1"
       stroke-width="0.3"
       id="g16">
      <path
         d="m 54,39 c -5.22,-4.35 -4.89,1.52 0,0 z"
         id="path16" />
    </g>
    <g
       fill="None"
       fill-opacity="0"
       stroke="#302b29"
       stroke-opacity="1"
       stroke-width="0.3"
       id="g17">
      <path
         d="m 18,40 c 0,0 0.21,-0.61 0,-1 -1.65,0.68 -1.39,4.26 0,5 0.42,-1.9 0.69,-2.34 0,-4 z"
         id="path17" />
    </g>
    <g
       fill="None"
       fill-opacity="0"
       stroke="#3e3b39"
       stroke-opacity="1"
       stroke-width="0.3"
       id="g18">
      <path
         d="m 25,43 c -0.04,0 0,1 0,1 0.5,-0.03 1.51,-0.08 2,0 0.65,0.11 2.4,0.74 3,1 -1.2,-1.6 -3.3,-3.76 -5,-2 z"
         id="path18" />
    </g>
    <g
       fill="None"
       fill-opacity="0"
       stroke="#000000"
       stroke-opacity="1"
       stroke-width="0.3"
       id="g19">
      <path
         d="m 22,46 c 0.83,-1.42 1.28,-1.9 3,-2 0,0 -0.04,-1 0,-1 -2.47,0.21 -3.3,1.52 -3,3 z"
         id="path19" />
    </g>
    <g
       fill="None"
       fill-opacity="0"
       stroke="#4a4a43"
       stroke-opacity="1"
       stroke-width="0.3"
       id="g20">
      <path
         d="m 44,50 c 0.03,-0.11 1,0 1,0 0.5,0 1,0 1,0 0.5,0 1,0 1,0 0.25,-0.25 0,-1 0,-1 -0.94,-0.97 -0.98,-2.75 1,-3 1.01,-0.7 1.9,-0.44 3,-1 0.27,-0.14 0.67,-1.01 1,-1 -1.63,-3.61 -7.99,3.29 -8,6 z"
         id="path20" />
    </g>
    <g
       fill="None"
       fill-opacity="0"
       stroke="#e3e4e0"
       stroke-opacity="1"
       stroke-width="0.3"
       id="g21">
      <path
         d="m 22,46 c -0.19,0.32 -0.88,0.74 -1,1 -0.38,0.84 -0.23,4.09 0,5 1.79,3.68 7.44,5.78 10,2 -3.2,3.32 -10.4,-1.42 -8,-6 -0.28,0.98 5.04,-2.15 4,-2 -1.4,-0.55 -1.94,-1.93 0,-2 -0.49,-0.08 -1.5,-0.03 -2,0 -1.72,0.1 -2.17,0.58 -3,2 z"
         id="path21" />
    </g>
    <g
       fill="None"
       fill-opacity="0"
       stroke="#7e9543"
       stroke-opacity="1"
       stroke-width="0.3"
       id="g22">
      <path
         d="m 27,46 c 0.64,0.25 4.08,0.97 4,0 -0.26,-0.22 -0.66,-0.85 -1,-1 -0.6,-0.26 -2.35,-0.89 -3,-1 -1.94,0.07 -1.4,1.45 0,2 z"
         id="path22" />
    </g>
    <g
       fill="None"
       fill-opacity="0"
       stroke="#040403"
       stroke-opacity="1"
       stroke-width="0.3"
       id="g23">
      <path
         d="m 51,45 c 2.24,0.72 3.91,0.32 5,3 0.07,0.18 1,0 1,0 -0.76,-1.82 -2.97,-3.97 -5,-4 -0.33,-0.01 -0.73,0.86 -1,1 z"
         id="path23" />
    </g>
    <g
       fill="None"
       fill-opacity="0"
       stroke="#dddddb"
       stroke-opacity="1"
       stroke-width="0.3"
       id="g24">
      <path
         d="m 48,46 c 6.81,-1.62 10.25,8.52 4,10 2.25,0.05 3.82,-0.82 5,-4 0.17,-1.81 -0.65,-2.43 -1,-4 -1.09,-2.68 -2.76,-2.28 -5,-3 -1.1,0.56 -1.99,0.3 -3,1 z"
         id="path24" />
    </g>
    <g
       fill="None"
       fill-opacity="0"
       stroke="#000000"
       stroke-opacity="1"
       stroke-width="0.3"
       id="g25">
      <path
         d="m 23,48 c -0.76,2.68 3.89,6.69 7,5 0.56,-1.6 0.5,-4.03 2,-5 -0.14,-1.22 -0.15,-1.29 -1,-2 0.08,0.97 -3.36,0.25 -4,0 1.04,-0.15 -4.28,2.98 -4,2 z"
         id="path25" />
    </g>
    <g
       fill="None"
       fill-opacity="0"
       stroke="#898f78"
       stroke-opacity="1"
       stroke-width="0.3"
       id="g26">
      <path
         d="m 47,49 c -0.1,-1.58 0.36,-1.03 1,-2 -0.25,-0.25 0,-1 0,-1 -1.98,0.25 -1.94,2.03 -1,3 z"
         id="path26" />
    </g>
    <g
       fill="None"
       fill-opacity="0"
       stroke="#8cb12d"
       stroke-opacity="1"
       stroke-width="0.3"
       id="g27">
      <path
         d="m 48,47 c 0.5,-0.05 1,0 1,0 8.78,-0.3 3.58,12.74 -3,6 0,0.5 0,1 0,1 0.14,0.92 1.19,1.78 2,2 1.33,-0.03 2.67,-0.03 4,0 6.25,-1.48 2.81,-11.62 -4,-10 0,0 -0.25,0.75 0,1 z"
         id="path27" />
    </g>
    <g
       fill="None"
       fill-opacity="0"
       stroke="#0b0908"
       stroke-opacity="1"
       stroke-width="0.3"
       id="g28">
      <path
         d="m 21,52 c -0.23,-0.91 -0.38,-4.16 0,-5 -1.76,1.69 -0.83,3.29 0,5 z"
         id="path28" />
    </g>
    <g
       fill="None"
       fill-opacity="0"
       stroke="#e3e2e1"
       stroke-opacity="1"
       stroke-width="0.3"
       id="g29">
      <path
         d="m 47,49 c 0,0 0.25,0.75 0,1 1.68,-0.11 3.71,-1.25 2,-3 0,0 -0.5,-0.05 -1,0 -0.64,0.97 -1.1,0.42 -1,2 z"
         id="path29" />
    </g>
    <g
       fill="None"
       fill-opacity="0"
       stroke="#000000"
       stroke-opacity="1"
       stroke-width="0.3"
       id="g30">
      <path
         d="m 47,50 c 0,0 -0.5,0 -1,0 0.26,0.24 0,2.61 0,3 6.58,6.74 11.78,-6.3 3,-6 1.71,1.75 -0.32,2.89 -2,3 z"
         id="path30" />
    </g>
    <g
       fill="None"
       fill-opacity="0"
       stroke="#84a52b"
       stroke-opacity="1"
       stroke-width="0.3"
       id="g31">
      <path
         d="m 31,54 c 0.89,-1.31 1.18,-4.4 1,-6 -1.5,0.97 -1.44,3.4 -2,5 -3.11,1.69 -7.76,-2.32 -7,-5 -2.4,4.58 4.8,9.32 8,6 z"
         id="path31" />
    </g>
    <g
       fill="None"
       fill-opacity="0"
       stroke="#494544"
       stroke-opacity="1"
       stroke-width="0.3"
       id="g32">
      <path
         d="m 57,52 c 0.44,-1.19 1.75,-2.49 0,-4 0,0 -0.93,0.18 -1,0 0.35,1.57 1.17,2.19 1,4 z"
         id="path32" />
    </g>
    <g
       fill="None"
       fill-opacity="0"
       stroke="#dedddc"
       stroke-opacity="1"
       stroke-width="0.3"
       id="g33">
      <path
         d="m 48,56 c -0.81,-0.22 -1.86,-1.08 -2,-2 -0.82,-1.41 -0.78,-2.13 -1,-4 0,0 -0.97,-0.11 -1,0 -1,4.21 1.23,6.06 4,6 z"
         id="path33" />
    </g>
    <g
       fill="None"
       fill-opacity="0"
       stroke="#768748"
       stroke-opacity="1"
       stroke-width="0.3"
       id="g34">
      <path
         d="m 46,54 c 0,0 0,-0.5 0,-1 0,-0.39 0.26,-2.76 0,-3 0,0 -0.5,0 -1,0 0.22,1.87 0.18,2.59 1,4 z"
         id="path34" />
    </g>
    <g
       fill="None"
       fill-opacity="0"
       stroke="#464240"
       stroke-opacity="1"
       stroke-width="0.3"
       id="g35">
      <path
         d="m 35,54 c 0.79,-0.15 2.2,-0.12 3,0 -1.79,-0.66 -1.14,-0.73 -3,0 z"
         id="path35" />
    </g>
    <g
       fill="None"
       fill-opacity="0"
       stroke="#f6f6f6"
       stroke-opacity="1"
       stroke-width="0.3"
       id="g36">
      <path
         d="m 20,65 c 1.67,-0.56 9.58,3.84 12.02,4.98 C 34.46,71.11 45.51,69 47,70 c -0.46,-2.37 -0.49,-6.84 -4,-6 0.55,-1.46 2.4,-2.18 2,-4 -0.53,-2.08 -4.8,-5.68 -7,-6 -0.8,-0.12 -2.21,-0.15 -3,0 -5.74,2.25 -12.05,5.25 -15,11 m 20,-8 c -1.52,4.23 -5.5,4.16 -7,0 2.03,-1.52 4.96,-1.29 7,0 m 2,7 c 1.42,1.55 -2.37,2.99 -4,3 -0.09,0.1 -2.91,0.1 -3,0 -0.42,0.21 -2.25,-1.49 -2,-2 -0.33,-1.51 2.27,-1.82 3,-2 -0.01,0 5.55,0.5 6,1 z"
         id="path36" />
    </g>
    <g
       fill="None"
       fill-opacity="0"
       stroke="#545251"
       stroke-opacity="1"
       stroke-width="0.3"
       id="g37">
      <path
         d="m 10,58 c 2.18,0.36 2.07,-3.15 2,-3 -1.2,1.47 -2.17,-0.05 -2,3 z"
         id="path37" />
    </g>
    <g
       fill="None"
       fill-opacity="0"
       stroke="#623d3b"
       stroke-opacity="1"
       stroke-width="0.3"
       id="g38">
      <path
         d="m 40,57 c -2.04,-1.29 -4.97,-1.52 -7,0 1.5,4.16 5.48,4.23 7,0 m -1,0 c -2.52,6.02 -7.56,-2.17 0,0 z"
         id="path38" />
    </g>
    <g
       fill="None"
       fill-opacity="0"
       stroke="#e8797a"
       stroke-opacity="1"
       stroke-width="0.3"
       id="g39">
      <path
         d="m 39,57 c -7.56,-2.17 -2.52,6.02 0,0 z"
         id="path39" />
    </g>
    <g
       fill="None"
       fill-opacity="0"
       stroke="#080706"
       stroke-opacity="1"
       stroke-width="0.3"
       id="g40">
      <path
         d="m 45,60 c 0.4,1.82 -1.45,2.54 -2,4 3.51,-0.84 3.54,3.63 4,6 0.41,2.11 0.29,1.9 0,4 -0.72,5.25 0.38,20.91 10,23 -2.68,-6.65 -11.83,-11.63 -9,-20 2.39,0.9 0.87,5.34 4,5 -0.81,-7.54 -7.27,-16.14 -4,-23 4.03,4.64 4.41,11.99 6,18 0.59,-5.1 3.17,-7.98 6,-2 0.08,-9.96 4.19,1.68 8,-4 5.91,6.67 -0.72,17.22 3,22 1.73,-8.36 2.4,-16.21 -2,-24 -2.91,-0.17 -5.79,1.78 -7,-2 -2.53,1.62 -2.96,1.86 -5,2 -0.16,0.11 -1.81,1.02 -2,1 -1.88,-0.16 -1.64,-3.89 -2,-5 -1.19,-3.68 -3.53,-10.02 -8,-5 z"
         id="path40" />
    </g>
    <g
       fill="None"
       fill-opacity="0"
       stroke="#f8c28f"
       stroke-opacity="1"
       stroke-width="0.3"
       id="g41">
      <path
         d="m 57,97 c 2.31,0.5 12.87,-2.28 14,-4 -3.72,-4.78 2.91,-15.33 -3,-22 -3.81,5.68 -7.92,-5.96 -8,4 -2.83,-5.98 -5.41,-3.1 -6,2 -1.59,-6.01 -1.97,-13.36 -6,-18 -3.27,6.86 3.19,15.46 4,23 -3.13,0.34 -1.61,-4.1 -4,-5 -2.83,8.37 6.32,13.35 9,20 z"
         id="path41" />
    </g>
    <g
       fill="None"
       fill-opacity="0"
       stroke="#c5c3c1"
       stroke-opacity="1"
       stroke-width="0.3"
       id="g42">
      <path
         d="m 66,64 c 1.46,-1.46 1.66,-2.16 2,-3 -0.63,0.96 -1.26,2.07 -2,3 z"
         id="path42" />
    </g>
    <g
       fill="None"
       fill-opacity="0"
       stroke="#3d3330"
       stroke-opacity="1"
       stroke-width="0.3"
       id="g43">
      <path
         d="m 36,63 c 0.93,-0.12 2.89,2.22 3,3 1.04,-0.26 2.55,-1.06 3,-2 -0.45,-0.5 -6.01,-1 -6,-1 z"
         id="path43" />
    </g>
    <g
       fill="None"
       fill-opacity="0"
       stroke="#947976"
       stroke-opacity="1"
       stroke-width="0.3"
       id="g44">
      <path
         d="m 33,65 c 0.1,-0.2 1,0 1,0 0.24,-0.13 1.86,-1.98 2,-2 -0.73,0.18 -3.33,0.49 -3,2 z"
         id="path44" />
    </g>
    <g
       fill="None"
       fill-opacity="0"
       stroke="#e0a09e"
       stroke-opacity="1"
       stroke-width="0.3"
       id="g45">
      <path
         d="m 34,65 c 0.5,0 1,0 1,0 1.63,-0.2 1.99,0.06 3,1 0.25,-0.25 1,0 1,0 -0.11,-0.78 -2.07,-3.12 -3,-3 -0.14,0.02 -1.76,1.87 -2,2 z"
         id="path45" />
    </g>
    <g
       fill="None"
       fill-opacity="0"
       stroke="#b1aba8"
       stroke-opacity="1"
       stroke-width="0.3"
       id="g46">
      <path
         d="m 39,66 c 0,0 -0.75,-0.25 -1,0 -0.25,0.25 0,1 0,1 1.63,-0.01 5.42,-1.45 4,-3 -0.45,0.94 -1.96,1.74 -3,2 z"
         id="path46" />
    </g>
    <g
       fill="None"
       fill-opacity="0"
       stroke="#c0b6b4"
       stroke-opacity="1"
       stroke-width="0.3"
       id="g47">
      <path
         d="m 19,67 c 2.97,2.37 8.5,5.49 11.92,6.08 3.42,0.59 13.53,3.66 16.08,0.92 0.29,-2.1 0.41,-1.89 0,-4 C 45.51,69 34.46,71.11 32.02,69.98 29.58,68.84 21.67,64.44 20,65 c -0.11,0.22 -1.03,1.78 -1,2 z"
         id="path47" />
    </g>
    <g
       fill="None"
       fill-opacity="0"
       stroke="#b4b3b2"
       stroke-opacity="1"
       stroke-width="0.3"
       id="g48">
      <path
         d="m 35,67 c -0.25,-0.27 0,-1 0,-1 0,-0.5 0,-1 0,-1 0,0 -0.5,0 -1,0 0,0 -0.9,-0.2 -1,0 -0.25,0.51 1.58,2.21 2,2 z"
         id="path48" />
    </g>
    <g
       fill="None"
       fill-opacity="0"
       stroke="#fefbf9"
       stroke-opacity="1"
       stroke-width="0.3"
       id="g49">
      <path
         d="m 35,66 c 0.09,-0.1 2.91,-0.1 3,0 -1.01,-0.94 -1.37,-1.2 -3,-1 0,0 0,0.5 0,1 z"
         id="path49" />
    </g>
    <g
       fill="None"
       fill-opacity="0"
       stroke="#d0c8c6"
       stroke-opacity="1"
       stroke-width="0.3"
       id="g50">
      <path
         d="m 55,70 c 0.48,0.38 -1.99,-4.97 -2,-5 0.36,1.11 0.12,4.84 2,5 z"
         id="path50" />
    </g>
    <g
       fill="None"
       fill-opacity="0"
       stroke="#4b4948"
       stroke-opacity="1"
       stroke-width="0.3"
       id="g51">
      <path
         d="m 35,67 c 0.09,0.1 2.91,0.1 3,0 0,0 -0.25,-0.75 0,-1 -0.09,-0.1 -2.91,-0.1 -3,0 0,0 -0.25,0.73 0,1 z"
         id="path51" />
    </g>
    <g
       fill="#8e8681"
       fill-opacity="1"
       stroke="None"
       id="g53">
      <path
         d="m 14,30 c -0.14,1.93 -0.14,4.07 0,6 1.87,9.75 2.21,10.6 -2,19 0.07,-0.15 0.18,3.36 -2,3 0.17,3.09 6.88,7.31 9,9 -0.03,-0.22 0.89,-1.78 1,-2 2.95,-5.75 9.26,-8.75 15,-11 1.86,-0.73 1.21,-0.66 3,0 2.2,0.32 6.47,3.92 7,6 4.47,-5.02 6.81,1.32 8,5 0.01,0.03 2.48,5.38 2,5 0.19,0.02 1.84,-0.89 2,-1 4.63,-3.16 11.19,-6.09 2,-7 2.44,0.08 5.4,-0.35 7,-2 -1.51,-1.32 -6.4,1.69 -8,-1 2.86,0.35 5.39,-0.27 8,-1 -3.68,-5.38 -4.89,-11.67 -6,-18 -0.08,-0.49 0,-1 0,-1 -2.73,-1.91 -4.74,-5.36 -8,-6 2,-1.31 3.8,-3.76 6,-5 1.98,-1.58 9.2,-7.37 8,-3 -0.07,0.27 0.75,0.75 1,1 2.36,2.31 2.06,6.68 2,10 2.9,-4.53 -0.54,-10.67 -1,-15 -7.89,1.4 -13.58,4.06 -18,10 -1.86,0.65 -2.49,-1.75 -4,-2 -2.64,3.55 -6.52,6.39 -7,11 -2.57,-2.74 -2.91,-7.16 -3,-11 -0.5,0 -1.61,-0.21 -2,0 -1.37,0.72 -3.09,2.02 -5,2 1.71,-2.71 -1.83,-5.55 -3,-8 -2.59,-2.45 -5.72,-3.47 -9,-5 -1.54,4.29 -2.71,7.86 -3,12 m 13,0 c -0.52,1.65 -0.89,1.69 -2,3 -1.25,1.48 -2.71,2.71 -4,4 -0.72,0.85 -1.64,2.74 -3,3 0.69,1.66 0.42,2.1 0,4 -1.39,-0.74 -1.65,-4.32 0,-5 -0.78,-1.48 -0.83,-2.32 -1,-4 -0.66,-2.77 -0.65,-4.28 0,-7 0.54,-2.26 0.53,-5.59 3,-6 2.43,-0.4 7.21,7.33 7,8 m 2,6 c -4.01,3.76 -6.43,-0.55 0,0 m 25,3 c -4.89,1.52 -5.22,-4.35 0,0 m -24,6 c 0.34,0.15 0.74,0.78 1,1 0.85,0.71 0.86,0.78 1,2 0.18,1.6 -0.11,4.69 -1,6 -2.56,3.78 -8.21,1.68 -10,-2 -0.83,-1.71 -1.76,-3.31 0,-5 0.12,-0.26 0.81,-0.68 1,-1 -0.3,-1.48 0.53,-2.79 3,-3 1.7,-1.76 3.8,0.4 5,2 m 22,-1 c 2.03,0.03 4.24,2.18 5,4 1.75,1.51 0.44,2.81 0,4 -1.18,3.18 -2.75,4.05 -5,4 -1.33,-0.03 -2.67,-0.03 -4,0 -2.77,0.06 -5,-1.79 -4,-6 0.01,-2.71 6.37,-9.61 8,-6 z"
         id="path53" />
    </g>
    <g
       fill="#deb49d"
       fill-opacity="1"
       stroke="None"
       id="g54">
      <path
         d="m 17,28 c -0.24,2.16 -0.22,4.84 0,7 0.17,1.68 0.22,2.52 1,4 0.21,0.39 0,1 0,1 1.36,-0.26 2.28,-2.15 3,-3 1.26,-1.49 2.67,-2.71 4,-4 1.11,-1.31 1.48,-1.35 2,-3 0.13,-3.03 -6.73,-4.98 -7,-8 -2.47,0.41 -2.46,3.74 -3,6 z"
         id="path54" />
    </g>
    <g
       fill="#382c27"
       fill-opacity="1"
       stroke="None"
       id="g55">
      <path
         d="m 27,30 c 0.21,-0.67 -4.57,-8.4 -7,-8 0.27,3.02 7.13,4.97 7,8 z"
         id="path55" />
    </g>
    <g
       fill="#4d4d50"
       fill-opacity="1"
       stroke="None"
       id="g56">
      <path
         d="m 34,29 c -2.17,-0.5 -5.79,-4.58 -8,-6 1.17,2.45 4.71,5.29 3,8 1.91,0.02 3.63,-1.28 5,-2 z"
         id="path56" />
    </g>
    <g
       fill="#7a6156"
       fill-opacity="1"
       stroke="None"
       id="g57">
      <path
         d="m 58,28 c -1.64,1.53 -3.36,3.7 -3,5 3.69,-1.71 6.66,-7.82 11,-8 1.2,-4.37 -6.02,1.42 -8,3 z"
         id="path57" />
    </g>
    <g
       fill="#d9af98"
       fill-opacity="1"
       stroke="None"
       id="g58">
      <path
         d="m 55,33 c 0.66,2.39 3.93,3.81 5,6 0,0 -0.08,0.51 0,1 1.26,1.57 2.03,4.01 4,5 1.94,-6.05 3.72,-12.23 3,-19 -0.25,-0.25 -1.07,-0.73 -1,-1 -4.34,0.18 -7.31,6.29 -11,8 z"
         id="path58" />
    </g>
    <g
       fill="#665f5e"
       fill-opacity="1"
       stroke="None"
       id="g59">
      <path
         d="m 60,40 c 1.11,6.33 2.32,12.62 6,18 -2.61,0.73 -5.14,1.35 -8,1 1.6,2.69 6.49,-0.32 8,1 -1.6,1.65 -4.56,2.08 -7,2 9.19,0.91 2.63,3.84 -2,7 2.04,-0.14 2.47,-0.38 5,-2 1.77,-1.13 2.51,-1.13 4,-3 0.74,-0.93 1.37,-2.04 2,-3 2.17,-1.4 1.78,-2.7 1,-5 -3.64,1.83 -2.45,-3.97 -5,-6 3.9,-3.7 4,-7.66 5,-14 0.06,-3.32 0.36,-7.69 -2,-10 0.72,6.77 -1.06,12.95 -3,19 -1.97,-0.99 -2.74,-3.43 -4,-5 z"
         id="path59" />
    </g>
    <g
       fill="#433e3c"
       fill-opacity="1"
       stroke="None"
       id="g60">
      <path
         d="m 17,35 c -0.22,-2.16 -0.24,-4.84 0,-7 -0.65,2.72 -0.66,4.23 0,7 z"
         id="path60" />
    </g>
    <g
       fill="#bfbebd"
       fill-opacity="1"
       stroke="None"
       id="g61">
      <path
         d="m 37,29 c 1.33,0 2.67,0 4,0 -1.52,-0.15 -2.16,-1.79 -4,0 z"
         id="path61" />
    </g>
    <g
       fill="#302926"
       fill-opacity="1"
       stroke="None"
       id="g62">
      <path
         d="m 60,39 c -1.07,-2.19 -4.34,-3.61 -5,-6 -0.36,-1.3 1.36,-3.47 3,-5 -2.2,1.24 -4,3.69 -6,5 3.26,0.64 5.27,4.09 8,6 z"
         id="path62" />
    </g>
    <g
       fill="#f1f0f0"
       fill-opacity="1"
       stroke="None"
       id="g63">
      <path
         d="m 14,36 c -0.14,-1.93 -0.14,-4.07 0,-6 -0.03,0.13 -0.46,3.63 0,6 z"
         id="path63" />
    </g>
    <g
       fill="#4a4c53"
       fill-opacity="1"
       stroke="None"
       id="g64">
      <path
         d="m 46,29 c -1.57,-0.26 -3.41,0 -5,0 -1.33,0 -2.67,0 -4,0 0,0 -0.5,0 -1,0 0.09,3.84 0.43,8.26 3,11 0.48,-4.61 4.36,-7.45 7,-11 z"
         id="path64" />
    </g>
    <g
       fill="#27221e"
       fill-opacity="1"
       stroke="None"
       id="g65">
      <path
         d="m 21,37 c 1.29,-1.29 2.75,-2.52 4,-4 -1.33,1.29 -2.74,2.51 -4,4 z"
         id="path65" />
    </g>
    <g
       fill="#35322d"
       fill-opacity="1"
       stroke="None"
       id="g66">
      <path
         d="m 29,36 c -6.43,-0.55 -4.01,3.76 0,0 z"
         id="path66" />
    </g>
    <g
       fill="#2c2a2a"
       fill-opacity="1"
       stroke="None"
       id="g67">
      <path
         d="m 54,39 c -5.22,-4.35 -4.89,1.52 0,0 z"
         id="path67" />
    </g>
    <g
       fill="#302b29"
       fill-opacity="1"
       stroke="None"
       id="g68">
      <path
         d="m 18,40 c 0,0 0.21,-0.61 0,-1 -1.65,0.68 -1.39,4.26 0,5 0.42,-1.9 0.69,-2.34 0,-4 z"
         id="path68" />
    </g>
    <g
       fill="#3e3b39"
       fill-opacity="1"
       stroke="None"
       id="g69">
      <path
         d="m 25,43 c -0.04,0 0,1 0,1 0.5,-0.03 1.51,-0.08 2,0 0.65,0.11 2.4,0.74 3,1 -1.2,-1.6 -3.3,-3.76 -5,-2 z"
         id="path69" />
    </g>
    <g
       fill="#000000"
       fill-opacity="1"
       stroke="None"
       id="g70">
      <path
         d="m 22,46 c 0.83,-1.42 1.28,-1.9 3,-2 0,0 -0.04,-1 0,-1 -2.47,0.21 -3.3,1.52 -3,3 z"
         id="path70" />
    </g>
    <g
       fill="#4a4a43"
       fill-opacity="1"
       stroke="None"
       id="g71">
      <path
         d="m 44,50 c 0.03,-0.11 1,0 1,0 0.5,0 1,0 1,0 0.5,0 1,0 1,0 0.25,-0.25 0,-1 0,-1 -0.94,-0.97 -0.98,-2.75 1,-3 1.01,-0.7 1.9,-0.44 3,-1 0.27,-0.14 0.67,-1.01 1,-1 -1.63,-3.61 -7.99,3.29 -8,6 z"
         id="path71" />
    </g>
    <g
       fill="#e3e4e0"
       fill-opacity="1"
       stroke="None"
       id="g72">
      <path
         d="m 22,46 c -0.19,0.32 -0.88,0.74 -1,1 -0.38,0.84 -0.23,4.09 0,5 1.79,3.68 7.44,5.78 10,2 -3.2,3.32 -10.4,-1.42 -8,-6 -0.28,0.98 5.04,-2.15 4,-2 -1.4,-0.55 -1.94,-1.93 0,-2 -0.49,-0.08 -1.5,-0.03 -2,0 -1.72,0.1 -2.17,0.58 -3,2 z"
         id="path72" />
    </g>
    <g
       fill="#7e9543"
       fill-opacity="1"
       stroke="None"
       id="g73">
      <path
         d="m 27,46 c 0.64,0.25 4.08,0.97 4,0 -0.26,-0.22 -0.66,-0.85 -1,-1 -0.6,-0.26 -2.35,-0.89 -3,-1 -1.94,0.07 -1.4,1.45 0,2 z"
         id="path73" />
    </g>
    <g
       fill="#040403"
       fill-opacity="1"
       stroke="None"
       id="g74">
      <path
         d="m 51,45 c 2.24,0.72 3.91,0.32 5,3 0.07,0.18 1,0 1,0 -0.76,-1.82 -2.97,-3.97 -5,-4 -0.33,-0.01 -0.73,0.86 -1,1 z"
         id="path74" />
    </g>
    <g
       fill="#dddddb"
       fill-opacity="1"
       stroke="None"
       id="g75">
      <path
         d="m 48,46 c 6.81,-1.62 10.25,8.52 4,10 2.25,0.05 3.82,-0.82 5,-4 0.17,-1.81 -0.65,-2.43 -1,-4 -1.09,-2.68 -2.76,-2.28 -5,-3 -1.1,0.56 -1.99,0.3 -3,1 z"
         id="path75" />
    </g>
    <g
       fill="#000000"
       fill-opacity="1"
       stroke="None"
       id="g76">
      <path
         d="m 23,48 c -0.76,2.68 3.89,6.69 7,5 0.56,-1.6 0.5,-4.03 2,-5 -0.14,-1.22 -0.15,-1.29 -1,-2 0.08,0.97 -3.36,0.25 -4,0 1.04,-0.15 -4.28,2.98 -4,2 z"
         id="path76" />
    </g>
    <g
       fill="#898f78"
       fill-opacity="1"
       stroke="None"
       id="g77">
      <path
         d="m 47,49 c -0.1,-1.58 0.36,-1.03 1,-2 -0.25,-0.25 0,-1 0,-1 -1.98,0.25 -1.94,2.03 -1,3 z"
         id="path77" />
    </g>
    <g
       fill="#8cb12d"
       fill-opacity="1"
       stroke="None"
       id="g78">
      <path
         d="m 48,47 c 0.5,-0.05 1,0 1,0 8.78,-0.3 3.58,12.74 -3,6 0,0.5 0,1 0,1 0.14,0.92 1.19,1.78 2,2 1.33,-0.03 2.67,-0.03 4,0 6.25,-1.48 2.81,-11.62 -4,-10 0,0 -0.25,0.75 0,1 z"
         id="path78" />
    </g>
    <g
       fill="#0b0908"
       fill-opacity="1"
       stroke="None"
       id="g79">
      <path
         d="m 21,52 c -0.23,-0.91 -0.38,-4.16 0,-5 -1.76,1.69 -0.83,3.29 0,5 z"
         id="path79" />
    </g>
    <g
       fill="#e3e2e1"
       fill-opacity="1"
       stroke="None"
       id="g80">
      <path
         d="m 47,49 c 0,0 0.25,0.75 0,1 1.68,-0.11 3.71,-1.25 2,-3 0,0 -0.5,-0.05 -1,0 -0.64,0.97 -1.1,0.42 -1,2 z"
         id="path80" />
    </g>
    <g
       fill="#000000"
       fill-opacity="1"
       stroke="None"
       id="g81">
      <path
         d="m 47,50 c 0,0 -0.5,0 -1,0 0.26,0.24 0,2.61 0,3 6.58,6.74 11.78,-6.3 3,-6 1.71,1.75 -0.32,2.89 -2,3 z"
         id="path81" />
    </g>
    <g
       fill="#84a52b"
       fill-opacity="1"
       stroke="None"
       id="g82">
      <path
         d="m 31,54 c 0.89,-1.31 1.18,-4.4 1,-6 -1.5,0.97 -1.44,3.4 -2,5 -3.11,1.69 -7.76,-2.32 -7,-5 -2.4,4.58 4.8,9.32 8,6 z"
         id="path82" />
    </g>
    <g
       fill="#494544"
       fill-opacity="1"
       stroke="None"
       id="g83">
      <path
         d="m 57,52 c 0.44,-1.19 1.75,-2.49 0,-4 0,0 -0.93,0.18 -1,0 0.35,1.57 1.17,2.19 1,4 z"
         id="path83" />
    </g>
    <g
       fill="#dedddc"
       fill-opacity="1"
       stroke="None"
       id="g84">
      <path
         d="m 48,56 c -0.81,-0.22 -1.86,-1.08 -2,-2 -0.82,-1.41 -0.78,-2.13 -1,-4 0,0 -0.97,-0.11 -1,0 -1,4.21 1.23,6.06 4,6 z"
         id="path84" />
    </g>
    <g
       fill="#768748"
       fill-opacity="1"
       stroke="None"
       id="g85">
      <path
         d="m 46,54 c 0,0 0,-0.5 0,-1 0,-0.39 0.26,-2.76 0,-3 0,0 -0.5,0 -1,0 0.22,1.87 0.18,2.59 1,4 z"
         id="path85" />
    </g>
    <g
       fill="#464240"
       fill-opacity="1"
       stroke="None"
       id="g86">
      <path
         d="m 35,54 c 0.79,-0.15 2.2,-0.12 3,0 -1.79,-0.66 -1.14,-0.73 -3,0 z"
         id="path86" />
    </g>
    <g
       fill="#f6f6f6"
       fill-opacity="1"
       stroke="None"
       id="g87">
      <path
         d="m 20,65 c 1.67,-0.56 9.58,3.84 12.02,4.98 C 34.46,71.11 45.51,69 47,70 c -0.46,-2.37 -0.49,-6.84 -4,-6 0.55,-1.46 2.4,-2.18 2,-4 -0.53,-2.08 -4.8,-5.68 -7,-6 -0.8,-0.12 -2.21,-0.15 -3,0 -5.74,2.25 -12.05,5.25 -15,11 m 20,-8 c -1.52,4.23 -5.5,4.16 -7,0 2.03,-1.52 4.96,-1.29 7,0 m 2,7 c 1.42,1.55 -2.37,2.99 -4,3 -0.09,0.1 -2.91,0.1 -3,0 -0.42,0.21 -2.25,-1.49 -2,-2 -0.33,-1.51 2.27,-1.82 3,-2 -0.01,0 5.55,0.5 6,1 z"
         id="path87" />
    </g>
    <g
       fill="#545251"
       fill-opacity="1"
       stroke="None"
       id="g88">
      <path
         d="m 10,58 c 2.18,0.36 2.07,-3.15 2,-3 -1.2,1.47 -2.17,-0.05 -2,3 z"
         id="path88" />
    </g>
    <g
       fill="#623d3b"
       fill-opacity="1"
       stroke="None"
       id="g89">
      <path
         d="m 40,57 c -2.04,-1.29 -4.97,-1.52 -7,0 1.5,4.16 5.48,4.23 7,0 m -1,0 c -2.52,6.02 -7.56,-2.17 0,0 z"
         id="path89" />
    </g>
    <g
       fill="#e8797a"
       fill-opacity="1"
       stroke="None"
       id="g90">
      <path
         d="m 39,57 c -7.56,-2.17 -2.52,6.02 0,0 z"
         id="path90" />
    </g>
    <g
       fill="#080706"
       fill-opacity="1"
       stroke="None"
       id="g91">
      <path
         d="m 45,60 c 0.4,1.82 -1.45,2.54 -2,4 3.51,-0.84 3.54,3.63 4,6 0.41,2.11 0.29,1.9 0,4 -0.72,5.25 0.38,20.91 10,23 -2.68,-6.65 -11.83,-11.63 -9,-20 2.39,0.9 0.87,5.34 4,5 -0.81,-7.54 -7.27,-16.14 -4,-23 4.03,4.64 4.41,11.99 6,18 0.59,-5.1 3.17,-7.98 6,-2 0.08,-9.96 4.19,1.68 8,-4 5.91,6.67 -0.72,17.22 3,22 1.73,-8.36 2.4,-16.21 -2,-24 -2.91,-0.17 -5.79,1.78 -7,-2 -2.53,1.62 -2.96,1.86 -5,2 -0.16,0.11 -1.81,1.02 -2,1 -1.88,-0.16 -1.64,-3.89 -2,-5 -1.19,-3.68 -3.53,-10.02 -8,-5 z"
         id="path91" />
    </g>
    <g
       fill="#f8c28f"
       fill-opacity="1"
       stroke="None"
       id="g92">
      <path
         d="m 57,97 c 2.31,0.5 12.87,-2.28 14,-4 -3.72,-4.78 2.91,-15.33 -3,-22 -3.81,5.68 -7.92,-5.96 -8,4 -2.83,-5.98 -5.41,-3.1 -6,2 -1.59,-6.01 -1.97,-13.36 -6,-18 -3.27,6.86 3.19,15.46 4,23 -3.13,0.34 -1.61,-4.1 -4,-5 -2.83,8.37 6.32,13.35 9,20 z"
         id="path92" />
    </g>
    <g
       fill="#c5c3c1"
       fill-opacity="1"
       stroke="None"
       id="g93">
      <path
         d="m 66,64 c 1.46,-1.46 1.66,-2.16 2,-3 -0.63,0.96 -1.26,2.07 -2,3 z"
         id="path93" />
    </g>
    <g
       fill="#3d3330"
       fill-opacity="1"
       stroke="None"
       id="g94">
      <path
         d="m 36,63 c 0.93,-0.12 2.89,2.22 3,3 1.04,-0.26 2.55,-1.06 3,-2 -0.45,-0.5 -6.01,-1 -6,-1 z"
         id="path94" />
    </g>
    <g
       fill="#947976"
       fill-opacity="1"
       stroke="None"
       id="g95">
      <path
         d="m 33,65 c 0.1,-0.2 1,0 1,0 0.24,-0.13 1.86,-1.98 2,-2 -0.73,0.18 -3.33,0.49 -3,2 z"
         id="path95" />
    </g>
    <g
       fill="#e0a09e"
       fill-opacity="1"
       stroke="None"
       id="g96">
      <path
         d="m 34,65 c 0.5,0 1,0 1,0 1.63,-0.2 1.99,0.06 3,1 0.25,-0.25 1,0 1,0 -0.11,-0.78 -2.07,-3.12 -3,-3 -0.14,0.02 -1.76,1.87 -2,2 z"
         id="path96" />
    </g>
    <g
       fill="#b1aba8"
       fill-opacity="1"
       stroke="None"
       id="g97">
      <path
         d="m 39,66 c 0,0 -0.75,-0.25 -1,0 -0.25,0.25 0,1 0,1 1.63,-0.01 5.42,-1.45 4,-3 -0.45,0.94 -1.96,1.74 -3,2 z"
         id="path97" />
    </g>
    <g
       fill="#c0b6b4"
       fill-opacity="1"
       stroke="None"
       id="g98">
      <path
         d="m 19,67 c 2.97,2.37 8.5,5.49 11.92,6.08 3.42,0.59 13.53,3.66 16.08,0.92 0.29,-2.1 0.41,-1.89 0,-4 C 45.51,69 34.46,71.11 32.02,69.98 29.58,68.84 21.67,64.44 20,65 c -0.11,0.22 -1.03,1.78 -1,2 z"
         id="path98" />
    </g>
    <g
       fill="#b4b3b2"
       fill-opacity="1"
       stroke="None"
       id="g99">
      <path
         d="m 35,67 c -0.25,-0.27 0,-1 0,-1 0,-0.5 0,-1 0,-1 0,0 -0.5,0 -1,0 0,0 -0.9,-0.2 -1,0 -0.25,0.51 1.58,2.21 2,2 z"
         id="path99" />
    </g>
    <g
       fill="#fefbf9"
       fill-opacity="1"
       stroke="None"
       id="g100">
      <path
         d="m 35,66 c 0.09,-0.1 2.91,-0.1 3,0 -1.01,-0.94 -1.37,-1.2 -3,-1 0,0 0,0.5 0,1 z"
         id="path100" />
    </g>
    <g
       fill="#d0c8c6"
       fill-opacity="1"
       stroke="None"
       id="g101">
      <path
         d="m 55,70 c 0.48,0.38 -1.99,-4.97 -2,-5 0.36,1.11 0.12,4.84 2,5 z"
         id="path101" />
    </g>
    <g
       fill="#4b4948"
       fill-opacity="1"
       stroke="None"
       id="g102">
      <path
         d="m 35,67 c 0.09,0.1 2.91,0.1 3,0 0,0 -0.25,-0.75 0,-1 -0.09,-0.1 -2.91,-0.1 -3,0 0,0 -0.25,0.73 0,1 z"
         id="path102" />
    </g>
  </g>
</svg>
